<svg xmlns="http://www.w3.org/2000/svg" width="512" height="512" fill="none"><path fill="#F90" d="M0 0h512v512H0z"/><path fill="#DA420F" d="M84 340h344v160H84z"/><g><animateTransform attributeName="transform" dur="0.4s" keyTimes="0;0.5;1" repeatCount="indefinite" type="translate" values="0 0;0 28;0 0"/><path fill="#F15824" d="M196 176h120v296H196z"/><path fill="#DA420F" d="M196 96h120v80H196z"/><path fill="#F15824" d="M250 96h12v36h-12z"><animate attributeName="fill" begin="5s" dur="0.4s" repeatCount="5" values="#F15824; #fff; #F15824"/></path><path fill="#121212" d="M196.059 120h119.882L323 104l-7.059-32L256 48l-59.941 24L189 104l7.059 16Z"/><path fill="#525252" d="M196 132h120v-12H196z"/><path fill="#121212" d="M216 156h120.001l-20-24H196l20 24Z"/><ellipse cx="256" cy="68" fill="#525252" rx="12" ry="6"/><path stroke="#121212" stroke-width="6" d="M250 202h12M178.027 179.789l24 22"/><circle cx="226" cy="203" r="24" stroke="#121212" stroke-width="6"/><path stroke="#121212" stroke-width="6" d="m333.973 179.789-24 22"/><circle cx="27" cy="27" r="24" stroke="#121212" stroke-width="6" transform="matrix(-1 0 0 1 313 176)"/><mask id="a" width="42" height="42" x="265" y="182" maskUnits="userSpaceOnUse" style="mask-type:alpha"><circle cx="286" cy="203" r="21" fill="#D9D9D9"/></mask><g mask="url(#a)"><path fill="#D9D9D9" d="M272.179 182h8.782l-10.539 42h-8.781l10.538-42Z"><animateTransform attributeName="transform" dur="4s" keyTimes="0;0.1;0.3;1" repeatCount="indefinite" type="translate" values="-32 0;-32 0;48 0;48 0"/></path></g><mask id="b" width="42" height="42" x="205" y="182" maskUnits="userSpaceOnUse" style="mask-type:alpha"><circle cx="226" cy="203" r="21" fill="#D9D9D9"/></mask><g mask="url(#b)"><path fill="#D9D9D9" d="M212.179 182h8.782l-10.539 42h-8.781l10.538-42Z"><animateTransform attributeName="transform" dur="4s" keyTimes="0;0.1;0.3;1" repeatCount="indefinite" type="translate" values="-32 0;-32 0;48 0;48 0"/></path></g></g></svg>