<svg height="320" shape-rendering="crispEdges" viewBox="0 0 320 320" width="320" xmlns="http://www.w3.org/2000/svg"><rect fill="#d5d7e1" height="100%" width="100%"/><g fill="#ae3208"><path d="m90 210h140v10h-140z"/><path d="m90 220h140v10h-140z"/><path d="m90 230h140v10h-140z"/><path d="m90 240h140v10h-140z"/><path d="m90 250h20v10h-20z"/><path d="m120 250h110v10h-110z"/><path d="m90 260h20v10h-20z"/><path d="m120 260h110v10h-110z"/><path d="m90 270h20v10h-20z"/><path d="m120 270h110v10h-110z"/><path d="m90 280h20v10h-20z"/><path d="m120 280h110v10h-110z"/><path d="m90 290h20v10h-20z"/><path d="m120 290h110v10h-110z"/><path d="m90 300h20v10h-20z"/><path d="m120 300h110v10h-110z"/><path d="m90 310h20v10h-20z"/><path d="m120 310h110v10h-110z"/></g><path d="m120 210h30v10h-30z" fill="#4bea69"/><path d="m180 210h30v10h-30z" fill="#4bea69"/><path d="m120 220h30v10h-30z" fill="#4bea69"/><path d="m180 220h30v10h-30z" fill="#4bea69"/><path d="m120 230h30v10h-30z" fill="#4bea69"/><path d="m180 230h30v10h-30z" fill="#4bea69"/><path d="m120 240h30v10h-30z"/><path d="m180 240h30v10h-30z"/><path d="m120 250h30v10h-30z"/><path d="m180 250h30v10h-30z"/><path d="m120 260h30v10h-30z"/><path d="m180 260h30v10h-30z"/><path d="m120 270h30v10h-30z" fill="#4bea69"/><path d="m180 270h30v10h-30z" fill="#4bea69"/><path d="m120 280h30v10h-30z" fill="#4bea69"/><path d="m180 280h30v10h-30z" fill="#4bea69"/><path d="m120 290h30v10h-30z" fill="#4bea69"/><path d="m180 290h30v10h-30z" fill="#4bea69"/><path d="m120 300h30v10h-30z"/><path d="m180 300h30v10h-30z"/><path d="m120 310h30v10h-30z"/><path d="m180 310h30v10h-30z"/><path d="m150 10h20v10h-20z"/><path d="m160 20h10v10h-10z" fill="#a86f60"/><path d="m80 30h10v10h-10z" fill="#a86f60"/><path d="m120 30h80v10h-80z"/><path d="m70 40h20v10h-20z"/><path d="m130 40h80v10h-80z"/><path d="m230 40h20v10h-20z"/><path d="m80 50h10v10h-10z" fill="#a86f60"/><path d="m140 50h10v10h-10z"/><path d="m150 50h10v10h-10z" fill="#fff0ee"/><path d="m160 50h10v10h-10z"/><path d="m170 50h20v10h-20z" fill="#fff0ee"/><path d="m190 50h10v10h-10z"/><path d="m200 50h10v10h-10z" fill="#fff0ee"/><path d="m210 50h10v10h-10z"/><path d="m240 50h10v10h-10z" fill="#a86f60"/><path d="m60 60h20v10h-20z" fill="#e11833"/><path d="m80 60h10v10h-10z" fill="#a86f60"/><path d="m140 60h30v10h-30z"/><path d="m170 60h20v10h-20z" fill="#fff0ee"/><path d="m190 60h30v10h-30z"/><path d="m230 60h30v10h-30z" fill="#e11833"/><path d="m60 70h30v10h-30z" fill="#e11833"/><path d="m140 70h40v10h-40z"/><path d="m180 70h10v10h-10z" fill="#fff0ee"/><path d="m190 70h30v10h-30z"/><path d="m240 70h30v10h-30z" fill="#e11833"/><path d="m60 80h40v10h-40z" fill="#e11833"/><path d="m130 80h20v10h-20z"/><path d="m150 80h10v10h-10z" fill="#fff0ee"/><path d="m160 80h40v10h-40z"/><path d="m200 80h10v10h-10z" fill="#fff0ee"/><path d="m210 80h10v10h-10z"/><path d="m230 80h30v10h-30z" fill="#e11833"/><path d="m50 90h60v10h-60z" fill="#e11833"/><path d="m120 90h90v10h-90z"/><path d="m240 90h10v10h-10z" fill="#a86f60"/><path d="m80 100h10v10h-10z" fill="#a86f60"/><path d="m160 100h10v10h-10z" fill="#a86f60"/><path d="m240 100h10v10h-10z" fill="#a86f60"/><path d="m80 110h10v10h-10z" fill="#a86f60"/><path d="m160 110h10v10h-10z" fill="#a86f60"/><path d="m240 110h10v10h-10z" fill="#a86f60"/><path d="m30 120h130v10h-130z" fill="#ffc110"/><path d="m160 120h10v10h-10z" fill="#a86f60"/><path d="m240 120h10v10h-10z" fill="#a86f60"/><path d="m30 130h120v10h-120z" fill="#7e5243"/><path d="m150 130h10v10h-10z" fill="#ffc110"/><path d="m160 130h10v10h-10z" fill="#a86f60"/><path d="m240 130h10v10h-10z" fill="#a86f60"/><path d="m30 140h10v10h-10z" fill="#7e5243"/><path d="m40 140h20v10h-20z"/><path d="m60 140h90v10h-90z" fill="#7e5243"/><path d="m150 140h10v10h-10z" fill="#ffc110"/><path d="m160 140h80v10h-80z" fill="#7e5243"/><path d="m240 140h10v10h-10z" fill="#a86f60"/><path d="m260 140h50v10h-50z" fill="#ffc110"/><path d="m30 150h10v10h-10z" fill="#7e5243"/><path d="m40 150h20v10h-20z"/><path d="m60 150h90v10h-90z" fill="#7e5243"/><path d="m150 150h10v10h-10z" fill="#ffc110"/><path d="m160 150h10v10h-10z" fill="#a86f60"/><path d="m180 150h10v10h-10z" fill="#7e5243"/><path d="m200 150h10v10h-10z" fill="#7e5243"/><path d="m220 150h10v10h-10z" fill="#7e5243"/><path d="m240 150h10v10h-10z" fill="#a86f60"/><path d="m250 150h10v10h-10z" fill="#ffc110"/><path d="m260 150h40v10h-40z" fill="#7e5243"/><path d="m30 160h120v10h-120z" fill="#7e5243"/><path d="m150 160h100v10h-100z" fill="#ffc110"/><path d="m250 160h30v10h-30z" fill="#7e5243"/><path d="m50 170h40v10h-40z" fill="#7e5243"/><path d="m90 170h10v10h-10z"/><path d="m100 170h160v10h-160z" fill="#7e5243"/><path d="m60 180h20v10h-20z" fill="#7e5243"/><path d="m80 180h30v10h-30z"/><path d="m110 180h10v10h-10z" fill="#7e5243"/><path d="m120 180h10v10h-10z"/><path d="m130 180h10v10h-10z" fill="#7e5243"/><path d="m140 180h10v10h-10z"/><path d="m150 180h10v10h-10z" fill="#7e5243"/><path d="m160 180h10v10h-10z"/><path d="m170 180h10v10h-10z" fill="#7e5243"/><path d="m180 180h10v10h-10z"/><path d="m190 180h10v10h-10z" fill="#7e5243"/><path d="m200 180h10v10h-10z"/><path d="m210 180h40v10h-40z" fill="#7e5243"/><path d="m70 190h20v10h-20z" fill="#7e5243"/><path d="m90 190h10v10h-10z"/><path d="m100 190h140v10h-140z" fill="#7e5243"/><path d="m80 200h150v10h-150z" fill="#7e5243"/><path d="m100 110h60v10h-60z" fill="#e8705b"/><path d="m170 110h60v10h-60z" fill="#e8705b"/><path d="m100 120h10v10h-10z" fill="#e8705b"/><path d="m110 120h20v10h-20z" fill="#fff"/><path d="m130 120h20v10h-20z"/><path d="m150 120h10v10h-10z" fill="#e8705b"/><path d="m170 120h10v10h-10z" fill="#e8705b"/><path d="m180 120h20v10h-20z" fill="#fff"/><path d="m200 120h20v10h-20z"/><path d="m220 120h10v10h-10z" fill="#e8705b"/><path d="m70 130h40v10h-40z" fill="#e8705b"/><path d="m110 130h20v10h-20z" fill="#fff"/><path d="m130 130h20v10h-20z"/><path d="m150 130h30v10h-30z" fill="#e8705b"/><path d="m180 130h20v10h-20z" fill="#fff"/><path d="m200 130h20v10h-20z"/><path d="m220 130h10v10h-10z" fill="#e8705b"/><path d="m70 140h10v10h-10z" fill="#e8705b"/><path d="m100 140h10v10h-10z" fill="#e8705b"/><path d="m110 140h20v10h-20z" fill="#fff"/><path d="m130 140h20v10h-20z"/><path d="m150 140h10v10h-10z" fill="#e8705b"/><path d="m170 140h10v10h-10z" fill="#e8705b"/><path d="m180 140h20v10h-20z" fill="#fff"/><path d="m200 140h20v10h-20z"/><path d="m220 140h10v10h-10z" fill="#e8705b"/><path d="m70 150h10v10h-10z" fill="#e8705b"/><path d="m100 150h10v10h-10z" fill="#e8705b"/><path d="m110 150h20v10h-20z" fill="#fff"/><path d="m130 150h20v10h-20z"/><path d="m150 150h10v10h-10z" fill="#e8705b"/><path d="m170 150h10v10h-10z" fill="#e8705b"/><path d="m180 150h20v10h-20z" fill="#fff"/><path d="m200 150h20v10h-20z"/><path d="m220 150h10v10h-10z" fill="#e8705b"/><path d="m100 160h60v10h-60z" fill="#e8705b"/><path d="m170 160h60v10h-60z" fill="#e8705b"/></svg>