<?xml version="1.0" encoding="UTF-8"?><svg xmlns="http://www.w3.org/2000/svg" viewBox="0 0 198.43 340.16"><defs><style>.f{mix-blend-mode:difference;}.g{isolation:isolate;}.h{stroke:#f2f2f2;}.h,.i,.j,.k,.l{stroke-miterlimit:10;}.h,.i,.j,.k,.l,.m{fill:none;}.h,.i,.k,.l,.m{stroke-width:.5px;}.i{stroke-linecap:round;}.i,.j,.l,.m{stroke:blue;}.n{fill:blue;opacity:.33;}.k{stroke:#999;}.o{fill:#999;}.p{fill:#ccc;}.m{stroke-linejoin:round;}.q{fill:#140016;}.r{fill:#f2f2f2;}</style></defs><g class="g"><g id="b"><g id="c"><g id="d"><g id="e"><rect class="r" width="198.43" height="340.16" rx="1.34" ry="1.34"/><path class="q" d="m6.93,333.51c-1.16,0-2.1-.87-2.1-1.95V8.6c0-1.08.94-1.95,2.1-1.95h184.56c1.16,0,2.1.87,2.1,1.95v322.96c0,1.08-.94,1.95-2.1,1.95"/></g><path class="p" d="m95.12,28.68h-.87l-3.14-8.05h-.48c-.11,0-.2-.01-.25-.03-.05-.02-.09-.06-.12-.11-.03-.05-.05-.11-.05-.17s.02-.12.05-.17c.03-.05.07-.09.12-.11s.13-.03.25-.03h2.32c.12,0,.2.01.25.03s.09.06.12.11.05.11.05.17-.02.11-.05.17c-.03.05-.08.09-.12.11-.05.02-.13.03-.24.03h-1.19l2.89,7.43h.04l2.85-7.43h-1.19c-.12,0-.2-.01-.25-.03-.05-.02-.09-.06-.12-.11-.03-.05-.05-.11-.05-.17s.02-.12.05-.17c.03-.05.08-.09.12-.11s.13-.03.25-.03h2.31c.12,0,.2.01.25.03s.09.06.12.11.05.11.05.17-.02.11-.05.17c-.03.05-.08.09-.12.11-.05.02-.13.03-.25.03h-.47l-3.08,8.05Z"/><path class="p" d="m104.09,20.62v7.43h2.14c.15,0,.25.03.32.09s.1.13.1.23c0,.09-.03.16-.1.22-.06.06-.17.09-.32.09h-4.89c-.15,0-.25-.03-.32-.09-.06-.06-.1-.13-.1-.22,0-.09.03-.17.1-.23.06-.06.17-.09.32-.09h2.14v-7.43h-2.14c-.15,0-.25-.03-.32-.08-.06-.06-.1-.13-.1-.23s.03-.17.1-.23c.06-.06.17-.08.32-.08h4.89c.15,0,.25.03.32.08.06.06.1.13.1.23s-.03.17-.1.23-.17.08-.32.08h-2.14Z"/><rect class="h" x="7.74" y="9.5" width="182.95" height="321.15" rx="1.34" ry="1.34"/><polygon class="j" points="113.52 192.64 36.52 192.64 75.02 258.44 113.52 192.64"/><polygon class="j" points="25.46 81.72 102.46 81.72 63.96 147.52 25.46 81.72"/><polygon class="j" points="87.64 192.64 164.64 192.64 126.14 258.44 87.64 192.64"/><polygon class="n" points="75.02 258.11 75.02 192.97 36.52 192.97 75.02 258.11"/><line class="l" x1="75.02" y1="258.11" x2="75.02" y2="192.97"/><polygon class="n" points="126.14 257.77 126.14 192.64 164.64 192.64 126.14 257.77"/><line class="l" x1="126.14" y1="257.77" x2="126.14" y2="192.64"/><polygon class="j" points="172.96 81.72 95.96 81.72 134.46 147.52 172.96 81.72"/><polygon class="n" points="134.46 147.19 134.46 82.05 172.96 82.05 134.46 147.19"/><line class="l" x1="134.46" y1="147.19" x2="134.46" y2="82.05"/><polygon class="n" points="63.96 147.19 63.96 82.05 25.46 82.05 63.96 147.19"/><line class="l" x1="64.81" y1="147.19" x2="64.81" y2="82.05"/><polygon class="n" points="95.63 137.6 133.61 158.44 133.51 202.47 95.63 137.6"/><line class="i" x1="133.55" y1="202.96" x2="133.61" y2="158.44"/><line class="i" x1="133.61" y1="158.44" x2="172.05" y2="137.15"/><line class="i" x1="133.61" y1="158.44" x2="95.04" y2="137.15"/><polygon class="j" points="95.04 137.15 172.05 137.15 133.55 202.96 95.04 137.15"/><polygon class="n" points="105.53 137.48 67.55 158.44 67.65 202.47 105.53 137.48"/><line class="m" x1="67.62" y1="202.96" x2="67.55" y2="158.44"/><g class="f"><line class="m" x1="67.55" y1="158.44" x2="29.11" y2="137.15"/></g><line class="i" x1="67.55" y1="158.44" x2="106.12" y2="137.15"/><polygon class="j" points="106.12 137.15 29.11 137.15 67.62 202.96 106.12 137.15"/><path class="o" d="m98.48,304.9v1.18h.42c.06,0,.09.01.12.03.02.02.03.05.03.08,0,.03-.01.06-.03.08-.02.02-.06.03-.12.03h-.94c-.05,0-.09-.01-.12-.03-.02-.02-.03-.05-.03-.08,0-.03.01-.06.03-.08.02-.02.06-.03.12-.03h.3v-2.69h-.3c-.05,0-.09-.01-.12-.03-.02-.02-.03-.05-.03-.08s.01-.06.03-.08c.02-.02.06-.03.12-.03h1.36c.28,0,.52.09.71.27.19.18.29.38.29.6,0,.16-.06.31-.18.45-.12.14-.32.26-.6.36.16.11.3.24.41.38.11.14.3.43.55.86h.17c.05,0,.09.01.12.03.02.02.03.05.03.08,0,.03-.01.06-.03.08-.02.02-.06.03-.12.03h-.3c-.28-.5-.49-.83-.65-1-.15-.17-.33-.3-.53-.4h-.72Zm0-.23h.61c.2,0,.38-.04.54-.11.16-.07.28-.16.35-.25s.11-.19.11-.3c0-.15-.08-.29-.23-.43-.15-.14-.33-.2-.55-.2h-.83v1.29Z"/><path class="o" d="m93.05,312.33h-1.48l-.3.82h.43c.05,0,.09.01.12.03.02.02.03.05.03.08,0,.03-.01.06-.03.08-.02.02-.06.03-.12.03h-.84c-.05,0-.09-.01-.12-.03-.02-.02-.03-.05-.03-.08,0-.03.01-.06.03-.08.02-.02.06-.03.12-.03h.17l1-2.69h-.67c-.05,0-.09-.01-.12-.03-.02-.02-.03-.05-.03-.08s.01-.06.03-.08c.02-.02.06-.03.12-.03h1.13l1.1,2.91h.17c.05,0,.09.01.12.03.02.02.03.05.03.08,0,.03-.01.06-.03.08-.02.02-.06.03-.12.03h-.84c-.06,0-.09-.01-.12-.03-.02-.02-.03-.05-.03-.08,0-.03.01-.06.03-.08.02-.02.06-.03.12-.03h.43l-.31-.82Zm-.09-.23l-.62-1.64h-.08l-.6,1.64h1.31Z"/><path class="o" d="m107.72,311.89c0,.3-.06.58-.18.84-.12.26-.29.46-.5.6-.21.14-.44.21-.69.21-.36,0-.68-.15-.96-.46s-.41-.7-.41-1.19.14-.88.41-1.19c.28-.31.6-.46.96-.46.25,0,.47.07.69.21.21.14.38.34.5.6.12.26.18.53.18.84Zm-.23,0c0-.37-.11-.7-.32-.99-.21-.29-.49-.44-.83-.44-.32,0-.59.14-.81.42-.22.28-.34.61-.34,1.01,0,.42.12.76.35,1.03.24.27.5.4.8.4.34,0,.61-.15.83-.44.21-.29.32-.62.32-.99Z"/><path class="o" d="m99.32,317.24v2.69h.58c.05,0,.09.01.12.03.02.02.03.05.03.08,0,.03-.01.06-.03.08-.02.02-.06.03-.12.03h-1.4c-.05,0-.09-.01-.12-.03-.02-.02-.03-.05-.03-.08,0-.03.01-.06.03-.08.02-.02.06-.03.12-.03h.58v-2.69h-.92v.78c0,.06-.01.09-.03.12-.02.02-.05.03-.08.03-.03,0-.06-.01-.08-.03-.02-.02-.03-.06-.03-.12v-1.01h2.52v1.01c0,.06-.01.09-.03.12-.02.02-.05.03-.08.03s-.06-.01-.08-.03c-.02-.02-.03-.06-.03-.12v-.78h-.92Z"/><path class="k" d="m106.34,309.6c-.74-2.52-2.78-4.48-5.33-5.11"/><path class="k" d="m101.02,318.88c2.37-.59,4.28-2.31,5.14-4.55"/><path class="k" d="m92.32,314.33c.84,2.2,2.7,3.89,4.99,4.51"/><path class="k" d="m97.55,304.64c-2.54.67-4.55,2.65-5.25,5.18"/></g></g></g></g></svg>