<?xml version="1.0" encoding="utf-8"?>
<!-- Generator: Adobe Illustrator 27.6.1, SVG Export Plug-In . SVG Version: 6.00 Build 0)  -->
<svg version="1.1" xmlns="http://www.w3.org/2000/svg" xmlns:xlink="http://www.w3.org/1999/xlink" x="0px" y="0px"
	 viewBox="0 0 1080 1080" style="enable-background:new 0 0 1080 1080;" xml:space="preserve">
<style type="text/css">
	.st0{fill:#FFFFFF;}
	.st1{fill:url(#SVGID_1_);stroke:#FFFF12;stroke-width:13;stroke-miterlimit:10;}
	.st2{fill:#003DAE;}
	.st3{fill:#00FFFF;}
	.st4{fill:#CEFFFF;}
	.st5{fill:#FFE63B;}
	.st6{fill:#FF303B;}
</style>
<g id="BG_00000049199473064088084310000008836133144443458486_">
	<rect class="st0" width="1080" height="1080"/>
</g>
<g id="face">
	<linearGradient id="SVGID_1_" gradientUnits="userSpaceOnUse" x1="539.367" y1="804.0264" x2="539.367" y2="186.4234">
		<stop  offset="0" style="stop-color:#674FC7"/>
		<stop  offset="0.0334" style="stop-color:#6354C5"/>
		<stop  offset="0.1831" style="stop-color:#5367BE"/>
		<stop  offset="0.3579" style="stop-color:#4775B9"/>
		<stop  offset="0.5791" style="stop-color:#417DB6"/>
		<stop  offset="1" style="stop-color:#3F7FB5"/>
	</linearGradient>
	<polygon class="st1" points="539.37,186.42 182.79,804.03 895.94,804.03 	"/>
</g>
<g id="BG">
	<polygon class="st2" points="700.36,797.69 677.35,757.83 723.37,757.83 	"/>
	<polygon class="st2" points="838.42,797.69 815.41,757.83 861.43,757.83 	"/>
	<polygon class="st2" points="792.4,797.69 769.39,757.83 815.41,757.83 	"/>
	<polygon class="st2" points="608.32,797.69 585.31,757.83 631.33,757.83 	"/>
	<polygon class="st2" points="746.38,797.58 700.41,717.96 792.35,717.96 	"/>
	<polygon class="st2" points="585.31,757.81 562.3,717.96 608.32,717.96 	"/>
	<polygon class="st2" points="654.27,797.58 723.27,678.08 585.28,678.08 	"/>
	<polygon class="st2" points="746.38,717.94 723.37,678.08 769.39,678.08 	"/>
	<polygon class="st2" points="401.48,677.91 424.49,638.06 378.47,638.06 	"/>
	<polygon class="st2" points="631.26,677.91 608.25,638.06 654.27,638.06 	"/>
	<polygon class="st2" points="677.29,677.91 654.27,638.06 700.3,638.06 	"/>
	<polygon class="st2" points="447.44,677.91 424.43,638.06 470.45,638.06 	"/>
	<polygon class="st2" points="424.52,638.02 447.53,598.16 401.51,598.16 	"/>
	<polygon class="st2" points="654.27,638.02 631.26,598.16 677.29,598.16 	"/>
	<path class="st2" d="M539.37,757.83l-0.05-0.09l92.13-159.58H447.08l46.14,79.92H355.54l-23.11-40.02l-69.09,119.67H217.3
		l23.01,39.86l0.07-0.08l-0.11,0.18h322.11l-0.04-0.07l22.97-39.79H539.37z M492.88,678.84l0.35-0.72l0.03,0.05L492.88,678.84z"/>
	<polygon class="st3" points="355.47,678.08 401.61,598.16 309.33,598.16 	"/>
	<polygon class="st3" points="309.42,677.91 286.41,638.06 332.43,638.06 	"/>
	<polygon class="st3" points="286.23,718.04 263.22,678.18 309.24,678.18 	"/>
	<polygon class="st3" points="263.32,757.81 240.31,717.96 286.33,717.96 	"/>
	<polygon class="st3" points="792.48,717.94 769.46,678.08 815.49,678.08 	"/>
	<polygon class="st3" points="815.49,757.81 792.48,717.96 838.5,717.96 	"/>
	<polygon class="st3" points="723.44,677.91 677.4,598.16 769.49,598.16 	"/>
	<polygon class="st3" points="769.46,677.91 746.45,638.06 792.48,638.06 	"/>
	<polygon class="st3" points="355.47,598.16 332.46,558.31 378.48,558.31 	"/>
	<polygon class="st3" points="723.44,598.16 700.43,558.31 746.45,558.31 	"/>
	<polygon class="st3" points="631.4,359.03 539.36,199.61 447.32,359.03 447.46,359.03 447.46,359.03 470.47,398.89 493.48,359.03 
		585.33,359.03 608.34,398.89 631.35,359.03 631.35,359.03 	"/>
	<polygon class="st4" points="631.35,598.16 608.34,558.31 654.36,558.31 	"/>
	<polygon class="st4" points="585.4,598.16 562.39,558.31 608.41,558.31 	"/>
	<polygon class="st4" points="608.39,558.31 585.38,518.45 631.4,518.45 	"/>
	<polygon class="st5" points="631.4,518.45 608.39,478.6 654.41,478.6 	"/>
	<polygon class="st5" points="447.46,518.45 424.45,478.6 470.47,478.6 	"/>
	<polygon class="st6" points="424.45,478.6 401.44,438.74 447.46,438.74 	"/>
	<polygon class="st6" points="447.46,438.74 424.45,398.89 470.47,398.89 	"/>
	<polygon class="st6" points="493.29,438.74 470.28,398.89 516.3,398.89 	"/>
	<polygon class="st6" points="585.38,438.74 562.37,398.89 608.39,398.89 	"/>
	<polygon class="st6" points="631.4,438.74 608.39,398.89 654.41,398.89 	"/>
	<polygon class="st6" points="539.26,438.74 493.24,359.03 585.28,359.03 	"/>
	<polygon class="st5" points="470.47,478.6 447.46,438.74 493.48,438.74 	"/>
	<polygon class="st5" points="516.39,478.6 493.38,438.74 539.4,438.74 	"/>
	<polygon class="st5" points="562.37,478.6 539.36,438.74 585.38,438.74 	"/>
	<polygon class="st5" points="608.39,478.6 585.38,438.74 631.4,438.74 	"/>
	<polygon class="st6" points="654.41,478.6 631.4,438.74 677.42,438.74 	"/>
	<polygon class="st5" points="424.45,558.31 401.44,518.45 447.46,518.45 	"/>
	<polygon class="st6" points="378.43,558.31 355.42,518.45 401.44,518.45 	"/>
	<polygon class="st6" points="401.44,598.16 378.43,558.31 424.45,558.31 	"/>
	<polygon class="st6" points="677.44,598.16 654.43,558.31 700.45,558.31 	"/>
	<polygon class="st5" points="654.41,558.31 631.4,518.45 677.42,518.45 	"/>
	<polygon class="st6" points="700.43,558.31 677.42,518.45 723.44,518.45 	"/>
	<polygon class="st6" points="677.42,518.45 654.41,478.6 700.43,478.6 	"/>
	<polygon class="st6" points="401.44,518.45 378.43,478.6 424.45,478.6 	"/>
	<polygon class="st4" points="539.45,598.08 608.44,478.6 470.37,478.6 470.42,478.68 401.44,598.16 539.4,598.16 539.4,598.16 
		539.4,598.16 539.5,598.16 	"/>
</g>
</svg>
