<?xml version="1.0" encoding="utf-8"?>
<svg version="1.1" id="SADBADLEMON" xmlns="http://www.w3.org/2000/svg" xmlns:xlink="http://www.w3.org/1999/xlink" x="0" y="0" width="100%" height="100%" viewBox="0 0 97 97" style="enable-background:new 0 0 97 97" xml:space="preserve" aria-labelledby="sadbadTitle sadbadDesc" role="img" class="actv">
  <title id="sadbadTitle">SADBAD LEMON by DREEEM</title>
  <desc id="sadbadDesc">Multiplicitous melancholy shapeshifter in the form of a lemon.</desc>
  <style type="text/css">
    svg{background:#FFEA44;box-sizing:border-box;transform:translate3d(0, 0, 0)}
    @media(min-width:380px){svg.js{padding:10px 3%}}
	.bod{fill:#FFEA44;stroke:#FFEA44;stroke-width:1}
	.lght{fill:#FFFFFF}
    .drk{fill:#000000}
    svg.actv{animation:hue-rotate 2s linear infinite;background:radial-gradient(#211717,#141626,#1a2a22)}
    svg.actv .bod{fill:#ded489;stroke:#ded489}
    svg.actv .lght{fill:#fff7cf}
    svg.actv .drk{fill:#5f5612}
    svg.actv .hvy{fill:#202b18}
        @keyframes hue-rotate{0%{filter:hue-rotate(0deg)saturate(1.65)contrast(0.95)}100%{filter:hue-rotate(360deg)saturate(1.65)contrast(0.95)}}
  </style>
  <path class="bod" d="M86.5 50.2c-1.2-6.6-4-5.3-6-8.9-3.3-5.8-8-11.4-14.1-15.2a66 66 0 0 0-1.5-11.5l-.6.7a48.8 48.8 0 0 0-4.5 7.4l-.1.3c-2-.7-4.2-1.2-6.4-1.5-1.8-.3-3.8-.3-5.5-.3-2.6 0-5.2.4-7.5.9l-.3.1c-.7.1-2.6.6-5.1 1.5l-.7.2a51.8 51.8 0 0 0-6.1-8.9c-.3.9-.4 2.1-.6 3.3a53 53 0 0 0-.1 7.9v1.1c0 .3-3.1 1.9-5.8 5.5l-1.2 1.4a32.1 32.1 0 0 0-4.6 8.1c-.7 1.8-2.5 2.9-3.6 4.1-1.1 1.1-2 2.4-2 5.5 0 1.6 2.6 3.9 3.8 5.3 1.2 1.7 1.7 2.8 2.9 4.7 1.6 2.2 2.8 4.4 5 7 2.1 1.9 4.5 2.9 7.2 5.9 2.7 2.5 5.6 3.7 8.9 4.1 3.2.5 6.8 1.5 10.5 1.5 17.6 0 26.7-11.6 32.8-21.6 2.5-3.9 6-4.1 5.2-8.6z"/>
  <g class="lght">
    <path d="M20.4 40.4v.1l-.5.5c-.3.2-.5.4-.8 1.2l-.1.1h-.1s-.3-.4-.3-.8l.1-.5c.3-.4.8-.6 1.7-.6z"/>
    <path d="M25 33.5v.1c-.2.3-.4.4-.6.5-.4.2-.8.4-.7 1.4l-.1.1h-.1s-.3-.4-.4-.9l.1-.5c.2-.4.8-.7 1.7-.7.1-.1.1-.1.1 0z"/>
    <path d="m24.6 38.2-.1.1c-.8.4-1.2.8-1.3 1.9l-.1.1-.1-.1-.1-.8c0-.5 0-1 .3-1.3.2-.2.7-.2 1.4.1-.1 0 0 0 0 0z"/>
    <path d="M64.2 15.3c.2.2-3.3 7.1-3.7 8-.4.9-.8 1.7-1.3 1.5-.7-.3 0-1 .6-2.1.6-1.2 3.3-6.2 4.4-7.4z"/>
    <path d="M27.6 18.2c.4.8.7 7.2.8 8.1.1 1 .1 1.7-.4 1.9l-2.6 1.6c-2.1 1.4-3.9 3.1-3.8 2.9 2.7-3.6 5.8-5.2 5.8-5.5v-1.1c-.1-1.8-.2-5.6.2-7.9z"/>
    <path d="m34.8 23.6.5.8 2.8-.9c1.2-.3 3.4-.9 4.9-1.1 2.5-.4 4.5-.4 6.6-.4 2.4-.1 3.9-.4 3.6-.5-3.5-.6-8-.2-8.7-.1l-4.6.7-5.1 1.5z"/>
  </g>
  <g class="drk">
    <path d="M13.7 49.7c.6-.4 4.1-1.2 4 .4-.1 1.6-1.8 1.5-2.9 1.1-1.1-.3-1.8-1-1.1-1.5z"/>
    <path d="M14 54.2c.6 0 3.9.8 3.7 1.5-.2.7-1.8.1-2.8-.4-1-.6-1.6-1.1-.9-1.1z"/>
    <path d="M82.2 50.2c.2.9 1.3 3.6.3 3.7-1 .2-1.2-1.4-1.1-2.5.1-1 .7-1.9.8-1.2z"/>
    <path d="M78.7 56.2c0-.1 0-.1 0 0-.1-.1-.2 0-.2 0v.1c-.2.5-.4.9-.8 1.2v.1l.1.1h.4c.2 0 .4 0 .6-.2.1-.3.1-.7-.1-1.3z"/>
    <path d="M72.9 65.6h-.1l-.4.5c-.2.3-.3.6-1.1.9l-.1.1.1.1.8.2.5-.1c.3-.2.4-.7.3-1.7 0 .1 0 .1 0 0z"/>
    <path d="M77.5 59.8h-.1l-.4.7c-.2.4-.3.8-1.3.9l-.1.1.1.1s.5.3.9.3l.5-.1c.3-.4.5-1 .4-2z"/>
    <path d="M73.1 61.2c-.1 0-.1 0 0 0-.5.9-.7 1.3-1.8 1.6l-.1.1.1.1.8.1c.5 0 1-.1 1.3-.4.1-.4.1-.9-.3-1.5.1 0 0 0 0 0z"/>
  </g>
  <path class="hvy" d="M89.4 49.7c-.9-4.8-2.6-6.5-4.6-8-.8-.6-1.3-1-1.8-1.8a46.1 46.1 0 0 0-13.8-15.4c-.2-3.6-.7-7.9-1.6-10.7-.4-1.2-1.5-2.1-2.8-2-3 .3-4.6 4.5-6.4 7.8a41 41 0 0 0-22.8.8c-2-2.8-4.7-9.1-8.1-8.3-3.8.9-2.8 9.9-2.9 13.7-5.1 4-9 9.2-11.4 15.3-.5 1.1-2.2 2.1-3 3.2-1.4 1.4-2.8 3.4-2.8 7.5 0 2.6 2.2 4.8 4 6.7 1.9 2.2 2.9 4.8 4.7 7.2 1.1 1.6 2.3 3.5 3.9 5.4 2.5 2.2 4.8 3.2 7.2 5.9 3.7 3.7 8.5 4.6 13.6 5.4 2.4.5 5 1 7.9 1 21 0 28.7-14.1 37.5-25.4 1.7-1.8 4-3.9 3.2-8.3zm-8 9c-6.2 10-15.2 21.6-32.8 21.6-3.8 0-7.3-1.1-10.5-1.5-3.2-.4-6.2-1.6-8.9-4.1-2.7-3-5.1-4-7.2-5.9-2.1-2.6-3.4-4.8-5-7-1.2-2-1.7-3-2.9-4.7-1.2-1.3-3.8-3.6-3.8-5.3 0-3.1.9-4.4 2-5.5 1.1-1.2 2.9-2.3 3.6-4.1 1.3-3.2 2.5-5.5 4.6-8.1l1.2-1.4c2.7-3.6 5.8-5.2 5.8-5.5v-1.1a53 53 0 0 1 .7-11.2 54 54 0 0 1 5.8 8.4c.6 1 1.6 3.2 2.2 2.8.4-.3-.4-1.7-1.1-2.6 2.4-.9 4.3-1.3 5-1.4l.3-.1a45.2 45.2 0 0 1 13-.6c2.3.3 4.4.8 6.4 1.5l.1-.3c.6-1.3 3.3-6.2 5-8.1a53 53 0 0 1 1.5 10.7v1.2c0 1.1.1 2.8.8 2.6.4-.1.3-1.4.1-2.5a42.6 42.6 0 0 1 13.2 14.6c2.1 3.6 4.9 2.4 6 8.9.8 4.7-2.7 4.9-5.1 8.7z"/>
  <g class="face">
    <path class="hvy" d="M60.9 64.2c-.5-.7-.8-1.5-1.2-2.2-.5-.8-1.2-1.1-1.8-1.8-.8-1-1.3-1.1-2.2-1.5-2-1-4.3-1.2-6.4-1.5-2.3-.3-4.3.8-6.3 1.7-1.8.5-3.5 2.4-4.6 5.1-.4.5-.1 1.2.5 1.2l.5-.2c1.1-1.2.8-1.9 2.3-3 2.5-1.5 4.8-2.2 6.6-2.4 2.1-.2 4.2.4 6.2 1 1.7 0 3.7 2.5 5.3 4.3.5.7 1.6 0 1.1-.7z"/>
    <g>
      <g>
        <path class="hvy" d="M56 49.1c.2 1.3.8 1.9 1.9 1.8.9 0 1.3-.7 1.6-1.9.4-1.5.1-2.8.4-8.6v-3.5c-.1-1-.8-1.8-2.1-1.8-1.1.1-1.8.9-1.8 2l-.1 2.8a24 24 0 0 0 0 3.8c0 2.4-.3 3.3.1 5.4z"/>
        <path class="hvy" d="M38.3 48c.3 2 1.1 2.8 2.2 2.7 1.1-.2 1.6-.9 1.6-1.9v-4c0-.7-.3-1.2-.3-2 0-3.2-.2-6-.2-6-.1-1.3-1-2-2.2-2-.9 0-1.7.8-1.7 2.4l.2 5.8.4 5z"/>
      </g>
      <path class="lght" d="M38.7 41.1c-.2-.6-.3-3.3-.2-4.3.1-1.4 2.1-1.2 2.2.2.1 1.1-1.1 5.3-2 4.1z"/>
      <path class="lght" d="M56.8 40.7c-.2-.5-.1-2-.1-2.9 0-1.3.6-2.2 1.6-1.9 1.4.3.6 3.4-.2 4.3-.9 1-1.3 1.1-1.3.5z"/>
    </g>
  </g>
  <script type="text/javascript">
    //<![CDATA[
    const sadbad = document.getElementById('SADBADLEMON');
    sadbad.classList.remove('actv');
    sadbad.classList.add('js');
    sadbad.addEventListener('dblclick', event => {sadbad.classList.toggle('actv');});
    //]]>
  </script>
</svg>