<svg viewBox="0 0 500 500" xmlns:xlink="http://www.w3.org/1999/xlink" height="500" width="500" xmlns="http://www.w3.org/2000/svg">
  <defs>
    <style>
      .c, .d, .e, .f, .g {
        fill: none;
      }

      .d {
        isolation: isolate;
      }

      .h, .i {
        fill: #faff55;
      }

      .j {
        fill: #fff;
      }

      .k {
        fill: #ffcacc;
      }

      .l {
        fill: #a7f0d3;
      }

      .m, .n {
        fill: #dcf8ea;
      }

      .o {
        fill: #49dbe6;
      }

      .o, .n, .p, .i, .q, .g {
        mix-blend-mode: multiply;
      }

      .p, .r {
        fill: #ed7faf;
      }

      .e {
        clip-path: url(#b);
      }

      .q {
        fill: #ef9fc4;
        opacity: .5;
      }

      .f {
        stroke: #d1cfc6;
        stroke-miterlimit: 10;
        stroke-width: 10px;
      }

      .r {
        opacity: .8;
      }
    </style>
    <clipPath id="b">
      <rect height="500" width="500" class="c"></rect>
    </clipPath>
  </defs>
  <g class="d">
    <g data-name="レイヤー 1" id="a">
      <g class="e">
        <rect height="500" width="500" class="l"></rect>
        <polygon points="215 534.7 332.7 534.7 400.5 381.6 282.9 381.6 215 534.7" class="j"></polygon>
        <polygon points="65.2 534.7 255.4 534.7 323.2 381.6 133.1 381.6 65.2 534.7" class="j"></polygon>
        <polygon points="-9.9 534.7 107.8 534.7 175.6 381.6 57.9 381.6 -9.9 534.7" class="j"></polygon>
        <polygon points="96.2 247.2 207.9 499.5 265.4 499.5 153.7 247.2 96.2 247.2" class="j"></polygon>
        <circle r="143.6" cy="142" cx="267.6" class="q"></circle>
        <circle r="143.6" cy="158.5" cx="249.4" class="k"></circle>
        <circle r="150.2" cy="178.3" cx="228.9" class="j"></circle>
        <polygon points="216.8 534.7 99.2 534.7 31.4 381.6 149 381.6 216.8 534.7" class="h"></polygon>
        <polygon points="259.6 534.7 377.3 534.7 445.1 381.6 327.4 381.6 259.6 534.7" class="i"></polygon>
        <g class="g">
          <path d="m117.4,273.4c0-17.7,21.8-17.7,21.8-35.3,0-17.7-21.8-17.7-21.8-35.3,0-17.7,21.8-17.7,21.8-35.3,0-17.7-21.8-17.7-21.8-35.3,0-17.7,21.8-17.7,21.8-35.4s-21.8-17.7-21.8-35.4" class="f"></path>
        </g>
        <g class="g">
          <path d="m166.3,205.6c0-17.7,21.8-17.7,21.8-35.3,0-17.7-21.8-17.7-21.8-35.3,0-17.7,21.8-17.7,21.8-35.3,0-17.7-21.8-17.7-21.8-35.3,0-17.7,21.8-17.7,21.8-35.4s-21.8-17.7-21.8-35.4" class="f"></path>
        </g>
        <polygon points="329.5 261 440.7 499.5 498.1 499.5 387 261 329.5 261" class="j"></polygon>
        <polygon points="300.6 260.5 414.7 226.4 417.6 260.5 300.6 260.5" class="p"></polygon>
        <g>
          <circle r="22.8" cy="167.5" cx="10.2" class="n"></circle>
          <circle r="22.8" cy="225.1" cx="34.4" class="o"></circle>
          <circle r="22.8" cy="282.8" cx="58.7" class="r"></circle>
          <circle r="22.8" cy="340.4" cx="83" class="m"></circle>
        </g>
        <g>
          <circle r="22.8" cy="296" cx="483.8" class="n"></circle>
          <circle r="22.8" cy="238.4" cx="459.5" class="o"></circle>
          <circle r="22.8" cy="180.8" cx="435.2" class="r"></circle>
        </g>
      </g>
    </g>
  </g>
</svg>