<?xml version="1.0" encoding="UTF-8"?><svg id="b" xmlns="http://www.w3.org/2000/svg" viewBox="0 0 198.43 340.28"><defs><style>.f{stroke:#f2f2f2;}.f,.g,.h,.i{fill:none;stroke-miterlimit:10;}.f,.h,.i{stroke-width:.5px;}.g,.i{stroke:blue;}.j{fill:blue;opacity:.33;}.h{stroke:#999;}.k{fill:#999;}.l{fill:#ccc;}.m{fill:#140016;}.n{fill:#f2f2f2;}</style></defs><g id="c"><g id="d"><rect class="n" width="198.43" height="340.28" rx="1.34" ry="1.34"/><g id="e"><path class="m" d="m6.93,333.63c-1.16,0-2.1-.87-2.1-1.95V8.6c0-1.08.94-1.95,2.1-1.95h184.56c1.16,0,2.1.87,2.1,1.95v323.07c0,1.08-.94,1.95-2.1,1.95"/></g><rect class="f" x="7.74" y="9.51" width="182.95" height="321.27" rx="1.34" ry="1.34"/><path class="l" d="m94.41,20.62v7.43h2.14c.15,0,.25.03.32.08.06.06.1.13.1.23s-.03.16-.1.22c-.06.06-.17.09-.32.09h-4.89c-.15,0-.25-.03-.32-.09-.06-.06-.1-.13-.1-.22s.03-.17.1-.23c.06-.06.17-.08.32-.08h2.13v-7.43h-2.13c-.15,0-.25-.03-.32-.09s-.1-.13-.1-.23.03-.17.1-.23c.06-.06.17-.09.32-.09h4.89c.15,0,.25.03.32.09.06.06.1.13.1.23s-.03.17-.1.23-.17.09-.32.09h-2.14Z"/><path class="l" d="m103.58,24.23l2.96,3.82h.24c.15,0,.25.03.32.08.06.06.1.13.1.23s-.03.16-.1.22c-.06.06-.17.09-.32.09h-2c-.15,0-.25-.03-.32-.09-.06-.06-.1-.13-.1-.22s.03-.17.1-.23c.06-.06.17-.08.32-.08h.99l-2.57-3.31-2.54,3.31h.99c.15,0,.25.03.32.08.06.06.1.13.1.23s-.03.16-.1.22c-.06.06-.17.09-.32.09h-1.99c-.15,0-.25-.03-.32-.09-.06-.06-.1-.13-.1-.22,0-.07.02-.13.06-.19.04-.05.08-.09.13-.1.05-.02.2-.02.45-.02l2.92-3.82-2.79-3.61h-.23c-.15,0-.25-.03-.32-.09s-.1-.13-.1-.23.03-.17.1-.23c.06-.06.17-.09.32-.09h1.7c.15,0,.26.03.33.09.06.06.1.13.1.23s-.03.17-.1.23-.17.09-.33.09h-.7l2.4,3.11,2.39-3.11h-.7c-.15,0-.26-.03-.33-.09s-.1-.13-.1-.23.03-.17.1-.23c.06-.06.17-.09.33-.09h1.7c.15,0,.25.03.32.09.06.06.1.13.1.23s-.03.17-.1.23-.17.09-.32.09h-.24l-2.77,3.61Z"/><line class="i" x1="56.26" y1="160.37" x2="56.31" y2="130.22"/><polygon class="j" points="56.26 160.37 56.31 130.22 82.34 115.8 56.26 160.37"/><polygon class="g" points="30.19 115.8 82.34 115.8 56.26 160.37 30.19 115.8"/><line class="i" x1="56.31" y1="130.22" x2="82.34" y2="115.8"/><line class="i" x1="56.31" y1="130.22" x2="30.19" y2="115.8"/><line class="i" x1="98.86" y1="192.82" x2="98.91" y2="162.67"/><polygon class="j" points="73.19 148.55 98.91 162.67 124.94 148.25 73.19 148.55"/><polygon class="g" points="72.79 148.25 124.94 148.25 98.86 192.82 72.79 148.25"/><line class="i" x1="98.91" y1="162.67" x2="124.94" y2="148.25"/><line class="i" x1="98.91" y1="162.67" x2="72.79" y2="148.25"/><line class="i" x1="56.46" y1="225.56" x2="56.42" y2="180.99"/><polygon class="j" points="82.14 181.3 56.48 181.3 56.48 225.22 82.14 181.3"/><polygon class="g" points="82.54 180.99 30.39 180.99 56.46 225.56 82.54 180.99"/><line class="i" x1="156.67" y1="192.76" x2="156.72" y2="148.2"/><polygon class="j" points="131 148.5 156.65 148.5 156.65 192.43 131 148.5"/><polygon class="g" points="130.6 148.2 182.75 148.2 156.67 192.76 130.6 148.2"/><line class="i" x1="98.66" y1="121.21" x2="98.71" y2="91.06"/><polygon class="j" points="72.99 76.94 98.71 91.06 124.74 76.64 72.99 76.94"/><polygon class="g" points="72.59 76.64 124.74 76.64 98.66 121.21 72.59 76.64"/><line class="i" x1="98.71" y1="91.06" x2="124.74" y2="76.64"/><line class="i" x1="98.71" y1="91.06" x2="72.59" y2="76.64"/><line class="i" x1="41.75" y1="192.59" x2="41.71" y2="148.03"/><polygon class="j" points="67.43 148.33 41.78 148.33 41.78 192.26 67.43 148.33"/><polygon class="g" points="67.83 148.03 15.68 148.03 41.75 192.59 67.83 148.03"/><line class="i" x1="143.75" y1="158.6" x2="143.8" y2="128.45"/><polygon class="j" points="118.08 114.34 143.8 128.45 143.73 158.27 118.08 114.34"/><polygon class="g" points="117.68 114.04 169.83 114.04 143.75 158.6 117.68 114.04"/><line class="i" x1="143.8" y1="128.45" x2="169.83" y2="114.04"/><line class="i" x1="143.8" y1="128.45" x2="117.68" y2="114.04"/><line class="i" x1="143.8" y1="225.8" x2="143.84" y2="181.24"/><polygon class="j" points="118.12 181.54 143.77 181.54 143.77 225.47 118.12 181.54"/><polygon class="g" points="117.72 181.24 169.87 181.24 143.8 225.8 117.72 181.24"/><line class="i" x1="98.66" y1="263.52" x2="98.71" y2="233.37"/><polygon class="j" points="72.99 219.26 98.71 233.37 124.74 218.95 72.99 219.26"/><polygon class="g" points="72.59 218.95 124.74 218.95 98.66 263.52 72.59 218.95"/><line class="i" x1="98.71" y1="233.37" x2="124.74" y2="218.95"/><line class="i" x1="98.71" y1="233.37" x2="72.59" y2="218.95"/><path class="k" d="m98.48,304.9v1.18h.42c.06,0,.09.01.12.03.02.02.03.05.03.08,0,.03-.01.06-.03.08-.02.02-.06.03-.12.03h-.94c-.05,0-.09-.01-.12-.03-.02-.02-.03-.05-.03-.08,0-.03.01-.06.03-.08.02-.02.06-.03.12-.03h.3v-2.69h-.3c-.05,0-.09-.01-.12-.03-.02-.02-.03-.05-.03-.08s.01-.06.03-.08c.02-.02.06-.03.12-.03h1.36c.28,0,.52.09.71.27.19.18.29.38.29.6,0,.16-.06.31-.18.45-.12.14-.32.26-.6.36.16.11.3.24.41.38.11.14.3.43.55.86h.17c.05,0,.09.01.12.03.02.02.03.05.03.08,0,.03-.01.06-.03.08-.02.02-.06.03-.12.03h-.3c-.28-.5-.49-.83-.65-1-.15-.17-.33-.3-.53-.4h-.72Zm0-.23h.61c.2,0,.38-.04.54-.11.16-.07.28-.16.35-.25s.11-.19.11-.3c0-.15-.08-.29-.23-.43-.15-.14-.33-.2-.55-.2h-.83v1.29Z"/><path class="k" d="m93.05,312.33h-1.48l-.3.82h.43c.05,0,.09.01.12.03.02.02.03.05.03.08,0,.03-.01.06-.03.08-.02.02-.06.03-.12.03h-.84c-.05,0-.09-.01-.12-.03-.02-.02-.03-.05-.03-.08,0-.03.01-.06.03-.08.02-.02.06-.03.12-.03h.17l1-2.69h-.67c-.05,0-.09-.01-.12-.03-.02-.02-.03-.05-.03-.08s.01-.06.03-.08c.02-.02.06-.03.12-.03h1.13l1.1,2.91h.17c.05,0,.09.01.12.03.02.02.03.05.03.08,0,.03-.01.06-.03.08-.02.02-.06.03-.12.03h-.84c-.06,0-.09-.01-.12-.03-.02-.02-.03-.05-.03-.08,0-.03.01-.06.03-.08.02-.02.06-.03.12-.03h.43l-.31-.82Zm-.09-.23l-.62-1.64h-.08l-.6,1.64h1.31Z"/><path class="k" d="m107.72,311.89c0,.3-.06.58-.18.84-.12.26-.29.46-.5.6-.21.14-.44.21-.69.21-.36,0-.68-.15-.96-.46s-.41-.7-.41-1.19.14-.88.41-1.19c.28-.31.6-.46.96-.46.25,0,.47.07.69.21.21.14.38.34.5.6.12.26.18.53.18.84Zm-.23,0c0-.37-.11-.7-.32-.99-.21-.29-.49-.44-.83-.44-.32,0-.59.14-.81.42-.22.28-.34.61-.34,1.01,0,.42.12.76.35,1.03.24.27.5.4.8.4.34,0,.61-.15.83-.44.21-.29.32-.62.32-.99Z"/><path class="k" d="m99.32,317.24v2.69h.58c.05,0,.09.01.12.03.02.02.03.05.03.08,0,.03-.01.06-.03.08-.02.02-.06.03-.12.03h-1.4c-.05,0-.09-.01-.12-.03-.02-.02-.03-.05-.03-.08,0-.03.01-.06.03-.08.02-.02.06-.03.12-.03h.58v-2.69h-.92v.78c0,.06-.01.09-.03.12-.02.02-.05.03-.08.03-.03,0-.06-.01-.08-.03-.02-.02-.03-.06-.03-.12v-1.01h2.52v1.01c0,.06-.01.09-.03.12-.02.02-.05.03-.08.03s-.06-.01-.08-.03c-.02-.02-.03-.06-.03-.12v-.78h-.92Z"/><path class="h" d="m106.34,309.6c-.74-2.52-2.78-4.48-5.33-5.11"/><path class="h" d="m101.02,318.88c2.37-.59,4.28-2.31,5.14-4.55"/><path class="h" d="m92.32,314.33c.84,2.2,2.7,3.89,4.99,4.51"/><path class="h" d="m97.55,304.64c-2.54.67-4.55,2.65-5.25,5.18"/></g></g></svg>