<svg height="320" shape-rendering="crispEdges" viewBox="0 0 320 320" width="320" xmlns="http://www.w3.org/2000/svg"><rect fill="#d5d7e1" height="100%" width="100%"/><path d="m90 210h140v10h-140z" fill="#4b4949"/><path d="m90 220h140v10h-140z" fill="#4b4949"/><path d="m90 230h140v10h-140z" fill="#4b4949"/><path d="m90 240h140v10h-140z" fill="#4b4949"/><path d="m90 250h20v10h-20z" fill="#4b4949"/><path d="m120 250h110v10h-110z" fill="#4b4949"/><path d="m90 260h20v10h-20z" fill="#4b4949"/><path d="m120 260h110v10h-110z" fill="#4b4949"/><path d="m90 270h20v10h-20z" fill="#4b4949"/><path d="m120 270h110v10h-110z" fill="#4b4949"/><path d="m90 280h20v10h-20z" fill="#4b4949"/><path d="m120 280h110v10h-110z" fill="#4b4949"/><path d="m90 290h20v10h-20z" fill="#4b4949"/><path d="m120 290h110v10h-110z" fill="#4b4949"/><path d="m90 300h20v10h-20z" fill="#4b4949"/><path d="m120 300h110v10h-110z" fill="#4b4949"/><path d="m90 310h20v10h-20z" fill="#4b4949"/><path d="m120 310h110v10h-110z" fill="#4b4949"/><g fill="#254efb"><path d="m90 210h20v10h-20z"/><path d="m130 210h20v10h-20z"/><path d="m170 210h20v10h-20z"/><path d="m210 210h20v10h-20z"/><path d="m90 220h20v10h-20z"/><path d="m130 220h20v10h-20z"/><path d="m170 220h20v10h-20z"/><path d="m210 220h20v10h-20z"/><path d="m110 230h20v10h-20z"/><path d="m150 230h20v10h-20z"/><path d="m190 230h20v10h-20z"/><path d="m110 240h20v10h-20z"/><path d="m150 240h20v10h-20z"/><path d="m190 240h20v10h-20z"/><path d="m90 250h20v10h-20z"/><path d="m130 250h20v10h-20z"/><path d="m170 250h20v10h-20z"/><path d="m210 250h20v10h-20z"/><path d="m90 260h20v10h-20z"/><path d="m130 260h20v10h-20z"/><path d="m170 260h20v10h-20z"/><path d="m210 260h20v10h-20z"/><path d="m120 270h10v10h-10z"/><path d="m150 270h20v10h-20z"/><path d="m190 270h20v10h-20z"/><path d="m120 280h10v10h-10z"/><path d="m150 280h20v10h-20z"/><path d="m190 280h20v10h-20z"/><path d="m90 290h20v10h-20z"/><path d="m130 290h20v10h-20z"/><path d="m170 290h20v10h-20z"/><path d="m210 290h20v10h-20z"/><path d="m90 300h20v10h-20z"/><path d="m130 300h20v10h-20z"/><path d="m170 300h20v10h-20z"/><path d="m210 300h20v10h-20z"/><path d="m120 310h10v10h-10z"/><path d="m150 310h20v10h-20z"/><path d="m190 310h20v10h-20z"/></g><path d="m150 40h50v10h-50z" fill="#fff"/><path d="m130 50h90v10h-90z" fill="#fff"/><path d="m120 60h110v10h-110z" fill="#fff"/><path d="m110 70h130v10h-130z" fill="#fff"/><path d="m100 80h150v10h-150z" fill="#fff"/><path d="m80 90h170v10h-170z" fill="#fff"/><path d="m60 100h200v10h-200z" fill="#fff"/><path d="m50 110h210v10h-210z" fill="#fff"/><path d="m50 120h210v10h-210z" fill="#fff"/><path d="m40 130h220v10h-220z" fill="#fff"/><path d="m40 140h230v10h-230z" fill="#fff"/><path d="m40 150h240v10h-240z" fill="#fff"/><path d="m40 160h240v10h-240z" fill="#fff"/><path d="m50 170h230v10h-230z" fill="#fff"/><path d="m50 180h230v10h-230z" fill="#fff"/><path d="m60 190h210v10h-210z" fill="#fff"/><path d="m80 200h180v10h-180z" fill="#fff"/><path d="m100 110h60v10h-60z" fill="#2b83f6"/><path d="m170 110h60v10h-60z" fill="#2b83f6"/><path d="m100 120h10v10h-10z" fill="#2b83f6"/><path d="m110 120h20v10h-20z" fill="#fff"/><path d="m130 120h20v10h-20z"/><path d="m150 120h10v10h-10z" fill="#2b83f6"/><path d="m170 120h10v10h-10z" fill="#2b83f6"/><path d="m180 120h20v10h-20z" fill="#fff"/><path d="m200 120h20v10h-20z"/><path d="m220 120h10v10h-10z" fill="#2b83f6"/><path d="m70 130h40v10h-40z" fill="#2b83f6"/><path d="m110 130h20v10h-20z" fill="#fff"/><path d="m130 130h20v10h-20z"/><path d="m150 130h30v10h-30z" fill="#2b83f6"/><path d="m180 130h20v10h-20z" fill="#fff"/><path d="m200 130h20v10h-20z"/><path d="m220 130h10v10h-10z" fill="#2b83f6"/><path d="m70 140h10v10h-10z" fill="#2b83f6"/><path d="m100 140h10v10h-10z" fill="#2b83f6"/><path d="m110 140h20v10h-20z" fill="#fff"/><path d="m130 140h20v10h-20z"/><path d="m150 140h10v10h-10z" fill="#2b83f6"/><path d="m170 140h10v10h-10z" fill="#2b83f6"/><path d="m180 140h20v10h-20z" fill="#fff"/><path d="m200 140h20v10h-20z"/><path d="m220 140h10v10h-10z" fill="#2b83f6"/><path d="m70 150h10v10h-10z" fill="#2b83f6"/><path d="m100 150h10v10h-10z" fill="#2b83f6"/><path d="m110 150h20v10h-20z" fill="#fff"/><path d="m130 150h20v10h-20z"/><path d="m150 150h10v10h-10z" fill="#2b83f6"/><path d="m170 150h10v10h-10z" fill="#2b83f6"/><path d="m180 150h20v10h-20z" fill="#fff"/><path d="m200 150h20v10h-20z"/><path d="m220 150h10v10h-10z" fill="#2b83f6"/><path d="m100 160h60v10h-60z" fill="#2b83f6"/><path d="m170 160h60v10h-60z" fill="#2b83f6"/></svg>