<svg height="320" shape-rendering="crispEdges" viewBox="0 0 320 320" width="320" xmlns="http://www.w3.org/2000/svg"><rect fill="#e1d7d5" height="100%" width="100%"/><g fill="#d26451"><path d="m90 210h140v10h-140z"/><path d="m90 220h140v10h-140z"/><path d="m90 230h140v10h-140z"/><path d="m90 240h140v10h-140z"/><path d="m90 250h20v10h-20z"/><path d="m120 250h110v10h-110z"/><path d="m90 260h20v10h-20z"/><path d="m120 260h110v10h-110z"/><path d="m90 270h20v10h-20z"/><path d="m120 270h110v10h-110z"/><path d="m90 280h20v10h-20z"/><path d="m120 280h110v10h-110z"/><path d="m90 290h20v10h-20z"/><path d="m120 290h110v10h-110z"/><path d="m90 300h20v10h-20z"/><path d="m120 300h110v10h-110z"/><path d="m90 310h20v10h-20z"/><path d="m120 310h110v10h-110z"/></g><path d="m140 230h10v10h-10z" fill="#62616d"/><path d="m130 240h20v10h-20z" fill="#62616d"/><path d="m140 250h10v10h-10z" fill="#62616d"/><path d="m180 250h10v10h-10z" fill="#62616d"/><path d="m140 260h10v10h-10z" fill="#62616d"/><path d="m170 260h10v10h-10z" fill="#62616d"/><path d="m160 270h10v10h-10z" fill="#62616d"/><path d="m150 280h10v10h-10z" fill="#62616d"/><path d="m180 280h20v10h-20z" fill="#62616d"/><path d="m140 290h10v10h-10z" fill="#62616d"/><path d="m170 290h10v10h-10z" fill="#62616d"/><path d="m190 290h10v10h-10z" fill="#62616d"/><path d="m170 300h10v10h-10z" fill="#62616d"/><path d="m190 300h10v10h-10z" fill="#62616d"/><path d="m150 30h20v10h-20z" fill="#fb4694"/><path d="m140 40h40v10h-40z" fill="#fb4694"/><path d="m90 50h20v10h-20z" fill="#fee3f3"/><path d="m130 50h10v10h-10z" fill="#cc0595"/><path d="m140 50h40v10h-40z" fill="#fb4694"/><path d="m180 50h10v10h-10z" fill="#cc0595"/><path d="m210 50h20v10h-20z" fill="#fee3f3"/><path d="m80 60h50v10h-50z" fill="#fee3f3"/><path d="m130 60h10v10h-10z" fill="#cc0595"/><path d="m140 60h40v10h-40z" fill="#fb4694"/><path d="m180 60h10v10h-10z" fill="#cc0595"/><path d="m190 60h50v10h-50z" fill="#fee3f3"/><path d="m70 70h70v10h-70z" fill="#fee3f3"/><path d="m140 70h10v10h-10z" fill="#cc0595"/><path d="m150 70h20v10h-20z" fill="#fb4694"/><path d="m170 70h10v10h-10z" fill="#cc0595"/><path d="m180 70h70v10h-70z" fill="#fee3f3"/><path d="m70 80h70v10h-70z" fill="#fee3f3"/><path d="m140 80h40v10h-40z" fill="#f98f30"/><path d="m180 80h70v10h-70z" fill="#fee3f3"/><path d="m80 90h40v10h-40z" fill="#fee3f3"/><path d="m120 90h20v10h-20z" fill="#f98f30"/><path d="m140 90h40v10h-40z" fill="#ffe939"/><path d="m180 90h20v10h-20z" fill="#f98f30"/><path d="m200 90h40v10h-40z" fill="#fee3f3"/><path d="m80 100h30v10h-30z" fill="#fee3f3"/><path d="m110 100h10v10h-10z" fill="#f98f30"/><path d="m120 100h80v10h-80z" fill="#ffe939"/><path d="m200 100h10v10h-10z" fill="#f98f30"/><path d="m210 100h30v10h-30z" fill="#fee3f3"/><path d="m70 110h20v10h-20z" fill="#cc0595"/><path d="m90 110h20v10h-20z" fill="#fee3f3"/><path d="m110 110h10v10h-10z" fill="#f98f30"/><path d="m120 110h80v10h-80z" fill="#ffe939"/><path d="m200 110h10v10h-10z" fill="#f98f30"/><path d="m210 110h20v10h-20z" fill="#fee3f3"/><path d="m230 110h20v10h-20z" fill="#cc0595"/><path d="m60 120h30v10h-30z" fill="#fb4694"/><path d="m90 120h10v10h-10z" fill="#cc0595"/><path d="m100 120h10v10h-10z" fill="#f98f30"/><path d="m110 120h100v10h-100z" fill="#ffe939"/><path d="m210 120h10v10h-10z" fill="#f98f30"/><path d="m220 120h10v10h-10z" fill="#cc0595"/><path d="m230 120h30v10h-30z" fill="#fb4694"/><path d="m50 130h50v10h-50z" fill="#fb4694"/><path d="m100 130h10v10h-10z" fill="#f98f30"/><path d="m110 130h100v10h-100z" fill="#ffe939"/><path d="m210 130h10v10h-10z" fill="#f98f30"/><path d="m220 130h50v10h-50z" fill="#fb4694"/><path d="m50 140h50v10h-50z" fill="#fb4694"/><path d="m100 140h10v10h-10z" fill="#f98f30"/><path d="m110 140h100v10h-100z" fill="#ffe939"/><path d="m210 140h10v10h-10z" fill="#f98f30"/><path d="m220 140h50v10h-50z" fill="#fb4694"/><path d="m60 150h30v10h-30z" fill="#fb4694"/><path d="m90 150h10v10h-10z" fill="#cc0595"/><path d="m100 150h10v10h-10z" fill="#f98f30"/><path d="m110 150h100v10h-100z" fill="#ffe939"/><path d="m210 150h10v10h-10z" fill="#f98f30"/><path d="m220 150h10v10h-10z" fill="#cc0595"/><path d="m230 150h30v10h-30z" fill="#fb4694"/><path d="m70 160h20v10h-20z" fill="#cc0595"/><path d="m90 160h20v10h-20z" fill="#fee3f3"/><path d="m110 160h10v10h-10z" fill="#f98f30"/><path d="m120 160h80v10h-80z" fill="#ffe939"/><path d="m200 160h10v10h-10z" fill="#f98f30"/><path d="m210 160h20v10h-20z" fill="#fee3f3"/><path d="m230 160h20v10h-20z" fill="#cc0595"/><path d="m80 170h30v10h-30z" fill="#fee3f3"/><path d="m110 170h10v10h-10z" fill="#f98f30"/><path d="m120 170h80v10h-80z" fill="#ffe939"/><path d="m200 170h10v10h-10z" fill="#f98f30"/><path d="m210 170h30v10h-30z" fill="#fee3f3"/><path d="m80 180h40v10h-40z" fill="#fee3f3"/><path d="m120 180h20v10h-20z" fill="#f98f30"/><path d="m140 180h10v10h-10z" fill="#ffe939"/><path d="m150 180h30v10h-30z" fill="#4d271b"/><path d="m180 180h20v10h-20z" fill="#f98f30"/><path d="m200 180h40v10h-40z" fill="#fee3f3"/><path d="m70 190h70v10h-70z" fill="#fee3f3"/><path d="m140 190h40v10h-40z" fill="#f98f30"/><path d="m180 190h70v10h-70z" fill="#fee3f3"/><path d="m70 200h70v10h-70z" fill="#fee3f3"/><path d="m140 200h10v10h-10z" fill="#cc0595"/><path d="m150 200h20v10h-20z" fill="#fb4694"/><path d="m170 200h10v10h-10z" fill="#cc0595"/><path d="m180 200h70v10h-70z" fill="#fee3f3"/><path d="m80 210h50v10h-50z" fill="#fee3f3"/><path d="m130 210h10v10h-10z" fill="#cc0595"/><path d="m140 210h40v10h-40z" fill="#fb4694"/><path d="m180 210h10v10h-10z" fill="#cc0595"/><path d="m190 210h50v10h-50z" fill="#fee3f3"/><path d="m90 220h20v10h-20z" fill="#fee3f3"/><path d="m130 220h10v10h-10z" fill="#cc0595"/><path d="m140 220h40v10h-40z" fill="#fb4694"/><path d="m180 220h10v10h-10z" fill="#cc0595"/><path d="m210 220h20v10h-20z" fill="#fee3f3"/><path d="m140 230h40v10h-40z" fill="#fb4694"/><path d="m150 240h20v10h-20z" fill="#fb4694"/><path d="m100 110h60v10h-60z" fill="#ffef16"/><path d="m170 110h60v10h-60z" fill="#ffef16"/><path d="m100 120h10v10h-10z" fill="#ffef16"/><path d="m110 120h20v10h-20z" fill="#fff"/><path d="m130 120h20v10h-20z"/><path d="m150 120h10v10h-10z" fill="#ffef16"/><path d="m170 120h10v10h-10z" fill="#ffef16"/><path d="m180 120h20v10h-20z" fill="#fff"/><path d="m200 120h20v10h-20z"/><path d="m220 120h10v10h-10z" fill="#ffef16"/><path d="m70 130h40v10h-40z" fill="#ffef16"/><path d="m110 130h20v10h-20z" fill="#fff"/><path d="m130 130h20v10h-20z"/><path d="m150 130h30v10h-30z" fill="#ffef16"/><path d="m180 130h20v10h-20z" fill="#fff"/><path d="m200 130h20v10h-20z"/><path d="m220 130h10v10h-10z" fill="#ffef16"/><path d="m70 140h10v10h-10z" fill="#ffef16"/><path d="m100 140h10v10h-10z" fill="#ffef16"/><path d="m110 140h20v10h-20z" fill="#fff"/><path d="m130 140h20v10h-20z"/><path d="m150 140h10v10h-10z" fill="#ffef16"/><path d="m170 140h10v10h-10z" fill="#ffef16"/><path d="m180 140h20v10h-20z" fill="#fff"/><path d="m200 140h20v10h-20z"/><path d="m220 140h10v10h-10z" fill="#ffef16"/><path d="m70 150h10v10h-10z" fill="#ffef16"/><path d="m100 150h10v10h-10z" fill="#ffef16"/><path d="m110 150h20v10h-20z" fill="#fff"/><path d="m130 150h20v10h-20z"/><path d="m150 150h10v10h-10z" fill="#ffef16"/><path d="m170 150h10v10h-10z" fill="#ffef16"/><path d="m180 150h20v10h-20z" fill="#fff"/><path d="m200 150h20v10h-20z"/><path d="m220 150h10v10h-10z" fill="#ffef16"/><path d="m100 160h60v10h-60z" fill="#ffef16"/><path d="m170 160h60v10h-60z" fill="#ffef16"/></svg>