<svg height="320" shape-rendering="crispEdges" viewBox="0 0 320 320" width="320" xmlns="http://www.w3.org/2000/svg"><rect fill="#d5d7e1" height="100%" width="100%"/><g fill="#fffdf2"><path d="m90 210h140v10h-140z"/><path d="m90 220h140v10h-140z"/><path d="m90 230h140v10h-140z"/><path d="m90 240h140v10h-140z"/><path d="m90 250h20v10h-20z"/><path d="m120 250h110v10h-110z"/><path d="m90 260h20v10h-20z"/><path d="m120 260h110v10h-110z"/><path d="m90 270h20v10h-20z"/><path d="m120 270h110v10h-110z"/><path d="m90 280h20v10h-20z"/><path d="m120 280h110v10h-110z"/><path d="m90 290h20v10h-20z"/><path d="m120 290h110v10h-110z"/><path d="m90 300h20v10h-20z"/><path d="m120 300h110v10h-110z"/><path d="m90 310h20v10h-20z"/><path d="m120 310h110v10h-110z"/></g><path d="m120 210h10v10h-10z" fill="#ffc110"/><path d="m190 210h10v10h-10z" fill="#ffc110"/><path d="m130 220h10v10h-10z" fill="#ffc110"/><path d="m180 220h10v10h-10z" fill="#ffc110"/><path d="m140 230h10v10h-10z" fill="#ffc110"/><path d="m170 230h10v10h-10z" fill="#ffc110"/><path d="m150 240h20v10h-20z" fill="#ffc110"/><path d="m130 250h60v10h-60z" fill="#fff671"/><path d="m130 260h40v10h-40z" fill="#ffc110"/><path d="m170 260h20v10h-20z" fill="#fff671"/><path d="m130 270h40v10h-40z" fill="#ffc110"/><path d="m170 270h20v10h-20z" fill="#fff671"/><path d="m50 80h80v10h-80z" fill="#d6c3be"/><path d="m130 80h140v10h-140z" fill="#a3baed"/><path d="m30 90h20v10h-20z" fill="#7e5243"/><path d="m50 90h10v10h-10z" fill="#d6c3be"/><path d="m60 90h80v10h-80z" fill="#fff0ee"/><path d="m140 90h140v10h-140z" fill="#9cb4b8"/><path d="m280 90h10v10h-10z" fill="#7e5243"/><path d="m30 100h10v10h-10z" fill="#7e5243"/><path d="m40 100h10v10h-10z"/><path d="m50 100h10v10h-10z" fill="#d6c3be"/><path d="m60 100h80v10h-80z" fill="#fff0ee"/><path d="m140 100h140v10h-140z" fill="#9cb4b8"/><path d="m280 100h10v10h-10z" fill="#7e5243"/><path d="m30 110h130v10h-130z" fill="#7e5243"/><path d="m160 110h10v10h-10z" fill="#5a423f"/><path d="m170 110h120v10h-120z" fill="#7e5243"/><path d="m30 120h10v10h-10z" fill="#7e5243"/><path d="m40 120h110v10h-110z" fill="#d6c3be"/><path d="m150 120h10v10h-10z" fill="#7e5243"/><path d="m160 120h10v10h-10z" fill="#5a423f"/><path d="m170 120h10v10h-10z" fill="#7e5243"/><path d="m180 120h100v10h-100z" fill="#2b83f6"/><path d="m280 120h10v10h-10z" fill="#7e5243"/><path d="m30 130h10v10h-10z" fill="#7e5243"/><path d="m40 130h10v10h-10z" fill="#d6c3be"/><path d="m50 130h50v10h-50z" fill="#b2958d"/><path d="m100 130h50v10h-50z" fill="#d6c3be"/><path d="m150 130h10v10h-10z" fill="#7e5243"/><path d="m160 130h10v10h-10z" fill="#5a423f"/><path d="m170 130h120v10h-120z" fill="#7e5243"/><path d="m30 140h10v10h-10z" fill="#7e5243"/><path d="m40 140h10v10h-10z" fill="#d6c3be"/><path d="m50 140h10v10h-10z" fill="#b2958d"/><path d="m60 140h30v10h-30z" fill="#d6c3be"/><path d="m90 140h10v10h-10z" fill="#b2958d"/><path d="m100 140h50v10h-50z" fill="#d6c3be"/><path d="m150 140h10v10h-10z" fill="#7e5243"/><path d="m160 140h10v10h-10z" fill="#5a423f"/><path d="m170 140h10v10h-10z" fill="#7e5243"/><path d="m180 140h100v10h-100z" fill="#ffc110"/><path d="m280 140h10v10h-10z" fill="#7e5243"/><path d="m30 150h10v10h-10z" fill="#7e5243"/><path d="m40 150h10v10h-10z" fill="#d6c3be"/><path d="m50 150h10v10h-10z" fill="#b2958d"/><path d="m60 150h30v10h-30z" fill="#d6c3be"/><path d="m90 150h10v10h-10z" fill="#b2958d"/><path d="m100 150h50v10h-50z" fill="#d6c3be"/><path d="m150 150h10v10h-10z" fill="#7e5243"/><path d="m160 150h10v10h-10z" fill="#5a423f"/><path d="m170 150h120v10h-120z" fill="#7e5243"/><path d="m30 160h10v10h-10z" fill="#7e5243"/><path d="m40 160h10v10h-10z" fill="#d6c3be"/><path d="m50 160h20v10h-20z" fill="#b2958d"/><path d="m70 160h10v10h-10z" fill="#d6c3be"/><path d="m80 160h20v10h-20z" fill="#b2958d"/><path d="m100 160h50v10h-50z" fill="#d6c3be"/><path d="m150 160h10v10h-10z" fill="#7e5243"/><path d="m160 160h10v10h-10z" fill="#5a423f"/><path d="m170 160h10v10h-10z" fill="#7e5243"/><path d="m180 160h100v10h-100z" fill="#a86f60"/><path d="m280 160h10v10h-10z" fill="#7e5243"/><path d="m30 170h10v10h-10z" fill="#7e5243"/><path d="m40 170h10v10h-10z" fill="#d6c3be"/><path d="m50 170h10v10h-10z" fill="#b2958d"/><path d="m60 170h30v10h-30z" fill="#d6c3be"/><path d="m90 170h10v10h-10z" fill="#b2958d"/><path d="m100 170h50v10h-50z" fill="#d6c3be"/><path d="m150 170h10v10h-10z" fill="#7e5243"/><path d="m160 170h10v10h-10z" fill="#5a423f"/><path d="m170 170h10v10h-10z" fill="#7e5243"/><path d="m180 170h100v10h-100z" fill="#a86f60"/><path d="m280 170h10v10h-10z" fill="#7e5243"/><path d="m30 180h10v10h-10z" fill="#7e5243"/><path d="m40 180h10v10h-10z" fill="#d6c3be"/><path d="m50 180h50v10h-50z" fill="#b2958d"/><path d="m100 180h10v10h-10z" fill="#d6c3be"/><path d="m110 180h30v10h-30z" fill="#d9391f"/><path d="m140 180h10v10h-10z" fill="#d6c3be"/><path d="m150 180h10v10h-10z" fill="#7e5243"/><path d="m160 180h10v10h-10z" fill="#5a423f"/><path d="m170 180h120v10h-120z" fill="#7e5243"/><path d="m30 190h10v10h-10z" fill="#7e5243"/><path d="m40 190h110v10h-110z" fill="#d6c3be"/><path d="m150 190h10v10h-10z" fill="#7e5243"/><path d="m160 190h10v10h-10z" fill="#5a423f"/><path d="m170 190h120v10h-120z" fill="#7e5243"/><path d="m30 200h130v10h-130z" fill="#7e5243"/><path d="m160 200h10v10h-10z" fill="#5a423f"/><path d="m170 200h120v10h-120z" fill="#7e5243"/><path d="m100 110h60v10h-60z" fill="#f3322c"/><path d="m170 110h60v10h-60z" fill="#f3322c"/><path d="m100 120h10v10h-10z" fill="#f3322c"/><path d="m110 120h20v10h-20z" fill="#fff"/><path d="m130 120h20v10h-20z"/><path d="m150 120h10v10h-10z" fill="#f3322c"/><path d="m170 120h10v10h-10z" fill="#f3322c"/><path d="m180 120h20v10h-20z" fill="#fff"/><path d="m200 120h20v10h-20z"/><path d="m220 120h10v10h-10z" fill="#f3322c"/><path d="m70 130h40v10h-40z" fill="#f3322c"/><path d="m110 130h20v10h-20z" fill="#fff"/><path d="m130 130h20v10h-20z"/><path d="m150 130h30v10h-30z" fill="#f3322c"/><path d="m180 130h20v10h-20z" fill="#fff"/><path d="m200 130h20v10h-20z"/><path d="m220 130h10v10h-10z" fill="#f3322c"/><path d="m70 140h10v10h-10z" fill="#f3322c"/><path d="m100 140h10v10h-10z" fill="#f3322c"/><path d="m110 140h20v10h-20z" fill="#fff"/><path d="m130 140h20v10h-20z"/><path d="m150 140h10v10h-10z" fill="#f3322c"/><path d="m170 140h10v10h-10z" fill="#f3322c"/><path d="m180 140h20v10h-20z" fill="#fff"/><path d="m200 140h20v10h-20z"/><path d="m220 140h10v10h-10z" fill="#f3322c"/><path d="m70 150h10v10h-10z" fill="#f3322c"/><path d="m100 150h10v10h-10z" fill="#f3322c"/><path d="m110 150h20v10h-20z" fill="#fff"/><path d="m130 150h20v10h-20z"/><path d="m150 150h10v10h-10z" fill="#f3322c"/><path d="m170 150h10v10h-10z" fill="#f3322c"/><path d="m180 150h20v10h-20z" fill="#fff"/><path d="m200 150h20v10h-20z"/><path d="m220 150h10v10h-10z" fill="#f3322c"/><path d="m100 160h60v10h-60z" fill="#f3322c"/><path d="m170 160h60v10h-60z" fill="#f3322c"/></svg>