<svg height="320" shape-rendering="crispEdges" viewBox="0 0 320 320" width="320" xmlns="http://www.w3.org/2000/svg"><rect fill="#d5d7e1" height="100%" width="100%"/><path d="m90 210h140v10h-140z" fill="#343235"/><path d="m90 220h140v10h-140z" fill="#343235"/><path d="m90 230h140v10h-140z" fill="#343235"/><path d="m90 240h140v10h-140z" fill="#343235"/><path d="m90 250h20v10h-20z" fill="#343235"/><path d="m120 250h110v10h-110z" fill="#343235"/><path d="m90 260h20v10h-20z" fill="#343235"/><path d="m120 260h110v10h-110z" fill="#343235"/><path d="m90 270h20v10h-20z" fill="#343235"/><path d="m120 270h110v10h-110z" fill="#343235"/><path d="m90 280h20v10h-20z" fill="#343235"/><path d="m120 280h110v10h-110z" fill="#343235"/><path d="m90 290h20v10h-20z" fill="#343235"/><path d="m120 290h110v10h-110z" fill="#343235"/><path d="m90 300h20v10h-20z" fill="#343235"/><path d="m120 300h110v10h-110z" fill="#343235"/><path d="m90 310h20v10h-20z" fill="#343235"/><path d="m120 310h110v10h-110z" fill="#343235"/><path d="m90 240h10v10h-10z" fill="#ffc110"/><path d="m110 240h30v10h-30z" fill="#ffc110"/><path d="m150 240h30v10h-30z" fill="#ffc110"/><path d="m190 240h30v10h-30z" fill="#ffc110"/><path d="m100 250h10v10h-10z" fill="#ffc110"/><path d="m140 250h10v10h-10z" fill="#ffc110"/><path d="m180 250h10v10h-10z" fill="#ffc110"/><path d="m220 250h10v10h-10z" fill="#ffc110"/><path d="m90 260h20v10h-20z" fill="#ffc110"/><path d="m130 260h30v10h-30z" fill="#ffc110"/><path d="m170 260h30v10h-30z" fill="#ffc110"/><path d="m210 260h20v10h-20z" fill="#ffc110"/><path d="m100 270h10v10h-10z" fill="#ffc110"/><path d="m140 270h10v10h-10z" fill="#ffc110"/><path d="m180 270h10v10h-10z" fill="#ffc110"/><path d="m220 270h10v10h-10z" fill="#ffc110"/><path d="m90 280h10v10h-10z" fill="#ffc110"/><path d="m120 280h20v10h-20z" fill="#ffc110"/><path d="m150 280h30v10h-30z" fill="#ffc110"/><path d="m190 280h30v10h-30z" fill="#ffc110"/><path d="m120 30h50v10h-50z" fill="#feb9d5"/><path d="m170 30h10v10h-10z" fill="#ff82ad"/><path d="m180 30h30v10h-30z" fill="#feb9d5"/><path d="m90 40h10v10h-10z" fill="#ff82ad"/><path d="m100 40h140v10h-140z" fill="#feb9d5"/><path d="m70 50h60v10h-60z" fill="#feb9d5"/><path d="m130 50h10v10h-10z" fill="#ff82ad"/><path d="m140 50h120v10h-120z" fill="#feb9d5"/><path d="m70 60h190v10h-190z" fill="#feb9d5"/><path d="m60 70h80v10h-80z" fill="#feb9d5"/><path d="m140 70h50v10h-50z" fill="#da42cb"/><path d="m190 70h50v10h-50z" fill="#feb9d5"/><path d="m240 70h10v10h-10z" fill="#ff82ad"/><path d="m250 70h20v10h-20z" fill="#feb9d5"/><path d="m60 80h10v10h-10z" fill="#feb9d5"/><path d="m70 80h10v10h-10z" fill="#ff82ad"/><path d="m80 80h40v10h-40z" fill="#feb9d5"/><path d="m120 80h90v10h-90z" fill="#da42cb"/><path d="m210 80h60v10h-60z" fill="#feb9d5"/><path d="m50 90h50v10h-50z" fill="#feb9d5"/><path d="m100 90h130v10h-130z" fill="#da42cb"/><path d="m230 90h50v10h-50z" fill="#feb9d5"/><path d="m50 100h10v10h-10z" fill="#feb9d5"/><path d="m60 100h10v10h-10z" fill="#ff82ad"/><path d="m70 100h20v10h-20z" fill="#feb9d5"/><path d="m90 100h150v10h-150z" fill="#da42cb"/><path d="m240 100h20v10h-20z" fill="#feb9d5"/><path d="m260 100h10v10h-10z" fill="#ff82ad"/><path d="m270 100h10v10h-10z" fill="#feb9d5"/><path d="m50 110h40v10h-40z" fill="#feb9d5"/><path d="m90 110h150v10h-150z" fill="#da42cb"/><path d="m240 110h40v10h-40z" fill="#feb9d5"/><path d="m50 120h30v10h-30z" fill="#feb9d5"/><path d="m80 120h170v10h-170z" fill="#da42cb"/><path d="m250 120h30v10h-30z" fill="#feb9d5"/><path d="m50 130h30v10h-30z" fill="#feb9d5"/><path d="m80 130h170v10h-170z" fill="#da42cb"/><path d="m250 130h30v10h-30z" fill="#feb9d5"/><path d="m60 140h10v10h-10z" fill="#feb9d5"/><path d="m70 140h190v10h-190z" fill="#da42cb"/><path d="m260 140h10v10h-10z" fill="#feb9d5"/><path d="m60 150h10v10h-10z" fill="#feb9d5"/><path d="m70 150h190v10h-190z" fill="#da42cb"/><path d="m260 150h10v10h-10z" fill="#feb9d5"/><path d="m60 160h10v10h-10z" fill="#feb9d5"/><path d="m70 160h190v10h-190z" fill="#da42cb"/><path d="m260 160h10v10h-10z" fill="#feb9d5"/><path d="m60 170h10v10h-10z" fill="#feb9d5"/><path d="m70 170h30v10h-30z" fill="#ab36be"/><path d="m100 170h10v10h-10z" fill="#da42cb"/><path d="m110 170h30v10h-30z" fill="#ab36be"/><path d="m140 170h10v10h-10z" fill="#da42cb"/><path d="m150 170h30v10h-30z" fill="#ab36be"/><path d="m180 170h10v10h-10z" fill="#da42cb"/><path d="m190 170h30v10h-30z" fill="#ab36be"/><path d="m220 170h10v10h-10z" fill="#da42cb"/><path d="m230 170h30v10h-30z" fill="#ab36be"/><path d="m260 170h10v10h-10z" fill="#feb9d5"/><path d="m60 180h210v10h-210z" fill="#ab36be"/><path d="m60 190h10v10h-10z" fill="#ff82ad"/><path d="m70 190h80v10h-80z" fill="#ab36be"/><path d="m150 190h60v10h-60z" fill="#3a085b"/><path d="m210 190h60v10h-60z" fill="#ab36be"/><path d="m60 200h10v10h-10z" fill="#ff82ad"/><path d="m90 200h10v10h-10z" fill="#ff82ad"/><path d="m100 200h140v10h-140z" fill="#ab36be"/><g fill="#ff82ad"><path d="m240 200h10v10h-10z"/><path d="m260 200h10v10h-10z"/><path d="m60 210h10v10h-10z"/><path d="m90 210h10v10h-10z"/><path d="m240 210h10v10h-10z"/><path d="m260 210h10v10h-10z"/><path d="m60 220h10v10h-10z"/><path d="m90 220h10v10h-10z"/><path d="m240 220h10v10h-10z"/><path d="m260 220h10v10h-10z"/><path d="m50 230h10v10h-10z"/><path d="m80 230h10v10h-10z"/><path d="m240 230h10v10h-10z"/><path d="m270 230h10v10h-10z"/><path d="m50 240h10v10h-10z"/><path d="m80 240h10v10h-10z"/><path d="m250 240h10v10h-10z"/><path d="m270 240h10v10h-10z"/><path d="m50 250h10v10h-10z"/><path d="m250 250h10v10h-10z"/><path d="m270 250h10v10h-10z"/><path d="m50 260h10v10h-10z"/><path d="m270 260h10v10h-10z"/><path d="m50 270h10v10h-10z"/><path d="m270 270h10v10h-10z"/></g><path d="m100 110h60v10h-60z" fill="#d19a54"/><path d="m170 110h60v10h-60z" fill="#d19a54"/><path d="m100 120h10v10h-10z" fill="#d19a54"/><path d="m110 120h20v10h-20z" fill="#fff"/><path d="m130 120h20v10h-20z"/><path d="m150 120h10v10h-10z" fill="#d19a54"/><path d="m170 120h10v10h-10z" fill="#d19a54"/><path d="m180 120h20v10h-20z" fill="#fff"/><path d="m200 120h20v10h-20z"/><path d="m220 120h10v10h-10z" fill="#d19a54"/><path d="m70 130h40v10h-40z" fill="#d19a54"/><path d="m110 130h20v10h-20z" fill="#fff"/><path d="m130 130h20v10h-20z"/><path d="m150 130h30v10h-30z" fill="#d19a54"/><path d="m180 130h20v10h-20z" fill="#fff"/><path d="m200 130h20v10h-20z"/><path d="m220 130h10v10h-10z" fill="#d19a54"/><path d="m70 140h10v10h-10z" fill="#d19a54"/><path d="m100 140h10v10h-10z" fill="#d19a54"/><path d="m110 140h20v10h-20z" fill="#fff"/><path d="m130 140h20v10h-20z"/><path d="m150 140h10v10h-10z" fill="#d19a54"/><path d="m170 140h10v10h-10z" fill="#d19a54"/><path d="m180 140h20v10h-20z" fill="#fff"/><path d="m200 140h20v10h-20z"/><path d="m220 140h10v10h-10z" fill="#d19a54"/><path d="m70 150h10v10h-10z" fill="#d19a54"/><path d="m100 150h10v10h-10z" fill="#d19a54"/><path d="m110 150h20v10h-20z" fill="#fff"/><path d="m130 150h20v10h-20z"/><path d="m150 150h10v10h-10z" fill="#d19a54"/><path d="m170 150h10v10h-10z" fill="#d19a54"/><path d="m180 150h20v10h-20z" fill="#fff"/><path d="m200 150h20v10h-20z"/><path d="m220 150h10v10h-10z" fill="#d19a54"/><path d="m100 160h60v10h-60z" fill="#d19a54"/><path d="m170 160h60v10h-60z" fill="#d19a54"/></svg>