<svg height="320" shape-rendering="crispEdges" viewBox="0 0 320 320" width="320" xmlns="http://www.w3.org/2000/svg"><rect fill="#d5d7e1" height="100%" width="100%"/><g fill="#cbc1bc"><path d="m90 210h140v10h-140z"/><path d="m90 220h140v10h-140z"/><path d="m90 230h140v10h-140z"/><path d="m90 240h140v10h-140z"/><path d="m90 250h20v10h-20z"/><path d="m120 250h110v10h-110z"/><path d="m90 260h20v10h-20z"/><path d="m120 260h110v10h-110z"/><path d="m90 270h20v10h-20z"/><path d="m120 270h110v10h-110z"/><path d="m90 280h20v10h-20z"/><path d="m120 280h110v10h-110z"/><path d="m90 290h20v10h-20z"/><path d="m120 290h110v10h-110z"/><path d="m90 300h20v10h-20z"/><path d="m120 300h110v10h-110z"/><path d="m90 310h20v10h-20z"/><path d="m120 310h110v10h-110z"/></g><path d="m150 240h40v10h-40z" fill="#00499c"/><path d="m140 250h10v10h-10z" fill="#00499c"/><path d="m160 250h20v10h-20z" fill="#00499c"/><path d="m190 250h10v10h-10z" fill="#00499c"/><path d="m130 260h10v10h-10z" fill="#00499c"/><path d="m160 260h20v10h-20z" fill="#00499c"/><path d="m200 260h10v10h-10z" fill="#00499c"/><path d="m140 270h10v10h-10z" fill="#00499c"/><path d="m190 270h10v10h-10z" fill="#00499c"/><path d="m150 280h40v10h-40z" fill="#00499c"/><path d="m50 60h230v10h-230z" fill="#4a5358"/><path d="m50 70h230v10h-230z" fill="#4a5358"/><path d="m50 80h230v10h-230z" fill="#f9f5e9"/><path d="m50 90h230v10h-230z" fill="#4a5358"/><path d="m50 100h230v10h-230z" fill="#4a5358"/><path d="m40 110h230v10h-230z" fill="#4a5358"/><path d="m40 120h230v10h-230z" fill="#4a5358"/><path d="m40 130h230v10h-230z" fill="#4a5358"/><path d="m40 140h230v10h-230z" fill="#4a5358"/><path d="m40 150h230v10h-230z" fill="#4a5358"/><path d="m30 160h240v10h-240z" fill="#4a5358"/><path d="m30 170h230v10h-230z" fill="#fbc800"/><path d="m30 180h230v10h-230z" fill="#4a5358"/><path d="m30 190h10v10h-10z" fill="#4a5358"/><path d="m40 190h30v10h-30z" fill="#fbc800"/><path d="m70 190h30v10h-30z" fill="#4a5358"/><path d="m100 190h30v10h-30z" fill="#fbc800"/><path d="m130 190h30v10h-30z" fill="#4a5358"/><path d="m160 190h30v10h-30z" fill="#fbc800"/><path d="m190 190h30v10h-30z" fill="#4a5358"/><path d="m220 190h30v10h-30z" fill="#fbc800"/><path d="m250 190h10v10h-10z" fill="#4a5358"/><path d="m30 200h230v10h-230z" fill="#4a5358"/><path d="m100 110h60v10h-60z"/><path d="m170 110h60v10h-60z"/><path d="m100 120h40v10h-40z"/><path d="m140 120h10v10h-10z" fill="#fff"/><path d="m150 120h10v10h-10z"/><path d="m170 120h40v10h-40z"/><path d="m210 120h10v10h-10z" fill="#fff"/><path d="m220 120h10v10h-10z"/><path d="m70 130h70v10h-70z"/><path d="m140 130h10v10h-10z" fill="#fff"/><path d="m150 130h60v10h-60z"/><path d="m210 130h10v10h-10z" fill="#fff"/><path d="m220 130h10v10h-10z"/><path d="m70 140h10v10h-10z"/><path d="m100 140h60v10h-60z"/><path d="m170 140h60v10h-60z"/><path d="m70 150h10v10h-10z"/><path d="m100 150h60v10h-60z"/><path d="m170 150h60v10h-60z"/><path d="m100 160h60v10h-60z"/><path d="m170 160h60v10h-60z"/></svg>