<svg height="320" shape-rendering="crispEdges" viewBox="0 0 320 320" width="320" xmlns="http://www.w3.org/2000/svg"><rect fill="#d5d7e1" height="100%" width="100%"/><g fill="#343235"><path d="m90 210h140v10h-140z"/><path d="m90 220h140v10h-140z"/><path d="m90 230h140v10h-140z"/><path d="m90 240h140v10h-140z"/><path d="m90 250h20v10h-20z"/><path d="m120 250h110v10h-110z"/><path d="m90 260h20v10h-20z"/><path d="m120 260h110v10h-110z"/><path d="m90 270h20v10h-20z"/><path d="m120 270h110v10h-110z"/><path d="m90 280h20v10h-20z"/><path d="m120 280h110v10h-110z"/><path d="m90 290h20v10h-20z"/><path d="m120 290h110v10h-110z"/><path d="m90 300h20v10h-20z"/><path d="m120 300h110v10h-110z"/><path d="m90 310h20v10h-20z"/><path d="m120 310h110v10h-110z"/></g><path d="m90 210h140v10h-140z" fill="#ff3a0e"/><path d="m90 220h140v10h-140z" fill="#ff3a0e"/><path d="m90 230h140v10h-140z" fill="#d32a09"/><path d="m90 240h140v10h-140z" fill="#d32a09"/><path d="m90 250h20v10h-20z" fill="#ae3208"/><path d="m120 250h110v10h-110z" fill="#ae3208"/><path d="m90 260h20v10h-20z" fill="#ae3208"/><path d="m120 260h110v10h-110z" fill="#ae3208"/><path d="m90 270h20v10h-20z" fill="#903707"/><path d="m120 270h110v10h-110z" fill="#903707"/><path d="m90 280h20v10h-20z" fill="#903707"/><path d="m120 280h110v10h-110z" fill="#903707"/><path d="m90 290h20v10h-20z" fill="#6e3206"/><path d="m120 290h110v10h-110z" fill="#6e3206"/><path d="m90 300h20v10h-20z" fill="#6e3206"/><path d="m120 300h110v10h-110z" fill="#6e3206"/><path d="m90 310h20v10h-20z" fill="#552e05"/><path d="m120 310h110v10h-110z" fill="#552e05"/><path d="m60 30h20v10h-20z" fill="#e8705b"/><path d="m80 30h40v10h-40z" fill="#c54e38"/><path d="m120 30h10v10h-10z" fill="#cd916d"/><path d="m130 30h20v10h-20z" fill="#e8705b"/><path d="m150 30h10v10h-10z" fill="#c54e38"/><path d="m160 30h10v10h-10z" fill="#e8705b"/><path d="m170 30h90v10h-90z" fill="#c54e38"/><path d="m60 40h60v10h-60z" fill="#c54e38"/><path d="m120 40h10v10h-10z" fill="#cd916d"/><path d="m130 40h130v10h-130z" fill="#c54e38"/><path d="m60 50h60v10h-60z" fill="#c54e38"/><path d="m120 50h10v10h-10z" fill="#cd916d"/><path d="m130 50h130v10h-130z" fill="#c54e38"/><path d="m60 60h60v10h-60z" fill="#c54e38"/><path d="m120 60h10v10h-10z" fill="#cd916d"/><path d="m130 60h130v10h-130z" fill="#c54e38"/><path d="m70 70h180v10h-180z" fill="#cd916d"/><path d="m60 80h20v10h-20z" fill="#e8705b"/><path d="m80 80h10v10h-10z" fill="#c54e38"/><path d="m90 80h10v10h-10z" fill="#e8705b"/><path d="m100 80h90v10h-90z" fill="#c54e38"/><path d="m190 80h10v10h-10z" fill="#cd916d"/><path d="m200 80h20v10h-20z" fill="#e8705b"/><path d="m220 80h40v10h-40z" fill="#c54e38"/><path d="m60 90h130v10h-130z" fill="#c54e38"/><path d="m190 90h10v10h-10z" fill="#cd916d"/><path d="m200 90h60v10h-60z" fill="#c54e38"/><path d="m60 100h130v10h-130z" fill="#c54e38"/><path d="m190 100h10v10h-10z" fill="#cd916d"/><path d="m200 100h60v10h-60z" fill="#c54e38"/><path d="m60 110h130v10h-130z" fill="#c54e38"/><path d="m190 110h10v10h-10z" fill="#cd916d"/><path d="m200 110h60v10h-60z" fill="#c54e38"/><path d="m70 120h180v10h-180z" fill="#cd916d"/><path d="m60 130h20v10h-20z" fill="#e8705b"/><path d="m80 130h40v10h-40z" fill="#c54e38"/><path d="m120 130h10v10h-10z" fill="#cd916d"/><path d="m130 130h10v10h-10z" fill="#e8705b"/><path d="m140 130h120v10h-120z" fill="#c54e38"/><path d="m60 140h60v10h-60z" fill="#c54e38"/><path d="m120 140h10v10h-10z" fill="#cd916d"/><path d="m130 140h130v10h-130z" fill="#c54e38"/><path d="m60 150h60v10h-60z" fill="#c54e38"/><path d="m120 150h10v10h-10z" fill="#cd916d"/><path d="m130 150h130v10h-130z" fill="#c54e38"/><path d="m60 160h60v10h-60z" fill="#c54e38"/><path d="m120 160h10v10h-10z" fill="#cd916d"/><path d="m130 160h130v10h-130z" fill="#c54e38"/><path d="m70 170h180v10h-180z" fill="#cd916d"/><path d="m60 180h20v10h-20z" fill="#e8705b"/><path d="m80 180h10v10h-10z" fill="#c54e38"/><path d="m90 180h10v10h-10z" fill="#e8705b"/><path d="m100 180h90v10h-90z" fill="#c54e38"/><path d="m190 180h10v10h-10z" fill="#cd916d"/><path d="m200 180h20v10h-20z" fill="#e8705b"/><path d="m220 180h40v10h-40z" fill="#c54e38"/><path d="m60 190h70v10h-70z" fill="#c54e38"/><path d="m130 190h30v10h-30z" fill="#e8705b"/><path d="m160 190h30v10h-30z" fill="#c54e38"/><path d="m190 190h10v10h-10z" fill="#cd916d"/><path d="m200 190h60v10h-60z" fill="#c54e38"/><path d="m60 200h130v10h-130z" fill="#c54e38"/><path d="m190 200h10v10h-10z" fill="#cd916d"/><path d="m200 200h60v10h-60z" fill="#c54e38"/><path d="m60 210h130v10h-130z" fill="#c54e38"/><path d="m190 210h10v10h-10z" fill="#cd916d"/><path d="m200 210h60v10h-60z" fill="#c54e38"/><path d="m100 110h60v10h-60z"/><path d="m170 110h60v10h-60z"/><path d="m100 120h40v10h-40z"/><path d="m140 120h10v10h-10z" fill="#fff"/><path d="m150 120h10v10h-10z"/><path d="m170 120h40v10h-40z"/><path d="m210 120h10v10h-10z" fill="#fff"/><path d="m220 120h10v10h-10z"/><path d="m70 130h70v10h-70z"/><path d="m140 130h10v10h-10z" fill="#fff"/><path d="m150 130h60v10h-60z"/><path d="m210 130h10v10h-10z" fill="#fff"/><path d="m220 130h10v10h-10z"/><path d="m70 140h10v10h-10z"/><path d="m100 140h60v10h-60z"/><path d="m170 140h60v10h-60z"/><path d="m70 150h10v10h-10z"/><path d="m100 150h60v10h-60z"/><path d="m170 150h60v10h-60z"/><path d="m100 160h60v10h-60z"/><path d="m170 160h60v10h-60z"/></svg>