<?xml version="1.0" encoding="utf-8"?>
<!-- Generator: Adobe Illustrator 27.6.1, SVG Export Plug-In . SVG Version: 6.00 Build 0)  -->
<svg version="1.1" id="レイヤー_1" xmlns="http://www.w3.org/2000/svg" xmlns:xlink="http://www.w3.org/1999/xlink" x="0px"
	 y="0px" viewBox="0 0 2000 2000" style="enable-background:new 0 0 2000 2000;" xml:space="preserve">
<style type="text/css">
	.st0{fill:#FFFFFF;}
	.st1{fill-rule:evenodd;clip-rule:evenodd;fill:#231815;}
</style>
<rect x="0" class="st0" width="2000" height="2000"/>
<g>
	<g>
		<path class="st1" d="M658.8,722.2c33.5,13.6,67.9,17.3,106.6,24.9c15.2,3,74.6,19.7,84.3,17.2c4.3-1.7,8.6-3.4,12.9-5.2
			c-2.2-5.2-1.3-7.2-2.6-12c-4.9-7-18.6-7.3-27.5-10.3c-10.6-3.6-22.2-10.6-34.4-13.8c-18.6-2.9-37.3-5.7-55.9-8.6
			c-12.6-10.2-19.1-63.6-13.8-88.6c8.3-26.9,16.6-53.9,24.9-80.8c16.6-74.7-24.2-128.1-85.1-126.4c-3.5-39.2-37-68.7-80.8-67.9
			c-8.9,2.3-17.8,4.6-26.7,6.9c-63.2,35-81.4,152.7-48.1,232.1C538.3,651.1,597.2,697.2,658.8,722.2z M667.4,451.3
			c2.3-1.7,4.6-3.4,6.9-5.2c37.4,2.2,49.8,44.9,42.1,88.6c-8,46-42.1,97.8-23.2,153.9c0,0.3,0,0.6,0,0.9
			c-16.1-5.2-21.8-28.8-28.4-44.7C635.1,572.8,661.5,519.5,667.4,451.3z M581.4,376.5c101.8-1.2,19.9,140.1,31,206.4
			c3.9,23.4,6.4,46.1,13.8,66.2c4.3,10,8.6,20.1,12.9,30.1c-43.9-23.1-83.3-57.6-102.3-105.8C508.3,501.1,526.2,406.2,581.4,376.5z
			 M880.7,711.8c32.8,15.9,21.2-30.4,23.2-43.9c2-13.2,3.6-33.6,0-45.6c0-7.7,0-15.5,0-23.2c8.8,1.6,14.8,7.3,21.5,11.2
			c15.1,8.8,30.3,14.5,48.1,20.6c3.7-2.6,7.5-5.2,11.2-7.7c5.9-4.5,5.3-23.2,7.7-31c4.5-14.5,7.4-32.6,12-48.1
			c5.7-16,11.5-32.1,17.2-48.1c0.3,0,0.6,0,0.9,0c28.2,20.1,48.1,75.6,92,78.2c28.7-19.2,37.3-51.4,55-81.7
			c7.7-13.8,15.5-27.5,23.2-41.3c0.9-0.6,1.7-1.1,2.6-1.7c26.6,21.5,41.7,56.8,67.1,80c4.3,4.3,8.6,8.6,12.9,12.9
			c16.7,6.7,28.9-6.7,38.7-14.6c22.9-18.6,39.1-46.6,57.6-69.6c8.6-9.2,17.2-18.3,25.8-27.5c0.6-0.3,1.1-0.6,1.7-0.9
			c10,38-3.9,91.4,10.3,124.7c2.3,3.9,6,5.3,7.7,12.9c9.5-1.7,20.3-0.7,24.1-8.6c9.1-8.2,3.7-35.1,0.9-49c-9.7-48,3-94.1-7.7-136.7
			c-4.6-2.8-11-7.5-16.3-8.6c-4.7,3-13.9,1.4-18.9,6c-10.9,14-21.8,28.1-32.7,42.1c-12.3,13.2-24.6,26.4-37,39.6
			c-10.8,15.3-25.8,45.6-44.7,51.6c-6.6-15.8-67.9-89-82.5-95.4c-9.2-4-14.9-1.8-23.2-2.6c-28,37.7-50.5,85.2-73.9,126.4
			c-0.6,0-1.1,0-1.7,0c-31.2-23.4-51.4-57.4-76.5-86.8c-6.3,0.6-12.6,1.1-18.9,1.7c-19.1,25.4-31.6,64.1-42.1,97.2
			c-3.2,14.6-6.3,29.2-9.5,43.9c-0.3,0.9-0.6,1.7-0.9,2.6c-22.7-5.2-50.4-39.3-79.1-23.2c-11.1,6.8-1.5,100.8-6,124.7
			C868.6,701.2,875.5,709.3,880.7,711.8z M1625.3,1172.7c-0.6-0.3-1.1-0.6-1.7-0.9c-6.6-38.4-28.9-71.3-77.4-57.6
			c-10.9,5.2-21.8,10.3-32.7,15.5c-4.1-4.9-8.3-18.5-10.3-24.1c-13.6-6.1-28.1-18.2-43.9-23.2c-28.5-9-71.8,38.9-83.4,51.6
			c-17,18.7-38.6,35.1-54.2,55c-13.7,17.6-23.2,37.5-35.3,56.7c-10.6,12.9-21.2,25.8-31.8,38.7c-6.3,10.9-12.6,21.8-18.9,32.7
			c-16,24-62.7,76.9-60.2,110.9c-36.5-6-62.1-34.7-86.8-53.3c0-0.6,0-1.1,0-1.7c16.2-21.7,44.8-32.3,64.5-50.7
			c3.2-3.4,6.3-6.9,9.5-10.3c-0.8-3.5-1.2-2.9-0.9-6c-2.4-1.8-0.2-0.5-3.4-0.9c0.6-1.7,1.1-3.4,1.7-5.2c-3.6-4.6-7.2-3.1-7.7-11.2
			c-31.2-8.3-62.3,46.5-86,54.2c-9.7-30.1-22.2-74.6-11.2-116.1c6-14,12-28.1,18.1-42.1c15.7-3.1,52.2,23.9,67.9,28.4
			c6.9-0.9,13.8-1.7,20.6-2.6c5.2-7.2,10.3-14.3,15.5-21.5c5.7-13.8,11.5-27.5,17.2-41.3c25.1,2.6,48.7,14.3,75.7,7.7
			c9.2-14.9,24.9-35.9,27.5-55c11.3-2.6,40.7,4.2,57.6,3.4c11.6-11,32.9-40.5,30.1-58.5c29.3,0.3,42.9,11.5,71.4,8.6
			c0-1.4,0-2.9,0-4.3c12.2-5,26.1-29.8,30.1-43c12.3,1.1,73.2,35.4,65.3-6c-2.9-15.2-70.2-37.7-86-31c-6.2,2.6-28.3,42-33.5,49.9
			c-16.3-3.7-32.7-7.5-49-11.2c-8.3-1.6-10.9,2.9-18.9,2.6c-9.2,18.9-22.8,37.6-30.1,55.9c-10.9,7.1-31.2-2.4-44.7-4.3
			c-8.6-1.2-9.3,4-18.1,4.3c-7.9,18.6-19.9,36.1-26.7,55.9c-19,3.3-40.3-16.4-59.3-13.8c-27.9,3.8-33,46.2-44.7,67.1
			c-14.6-5.7-29.2-11.5-43.9-17.2c-0.3-0.6-0.6-1.1-0.9-1.7c49.5-75.9,171.8-104.1,250.2-153c31.1-19.5,69.1-43.8,70.5-92
			c14.4,0.2,20.8,4.7,30.1,7.7c34.7,11.4,96.4,12.9,123-4.3c12.6-8.2,22.2-20.1,17.2-43c-8.7-39.8-46.7-53.9-86-63.6
			c-26.5-6.6-70.6,3.7-71.4-29.2c0-0.3,0-0.6,0-0.9c33.7-25,93.5,28,129.8-17.2c4.2-5.2,11.2-8.4,13.8-15.5
			c14.1-38.8-45.5-72.6-67.9-82.5c-62.5-27.7-128.6-57.7-201.2-73.9c-26.5-6-55.9-2.3-86.8-4.3c-44.3-2.9-84.7,10.5-117.8,24.1
			c-95.8,39.2-190,121.3-213.2,231.3c-0.6,0.6-1.1,1.1-1.7,1.7c-35.7-8.6-64.3-34.1-97.2-45.6c-14.2-5-32-15.2-47.3-3.4
			c-4.9,7.7-9.7,15.5-14.6,23.2c-6,8.9-25.1,23.8-17.2,39.6c5.8,11.6,26.1,12.3,32.7,0.9c0.9-4.6,1.7-9.2,2.6-13.8
			c4.3-7.9,11.7-15.3,14.6-24.9c8.5-4.6,28.2,6.9,37,12c22.1,11.2,44.1,22.4,66.2,33.5c11.5,5,24.4,4.6,37,9.5
			c6-3.7,12-7.5,18.1-11.2c6.3-17.8,12.6-35.5,18.9-53.3c10.1-25.1,22.8-50.8,38.7-70.5c15.7-19.5,37-34.4,57.6-49
			c54.7-38.8,109.6-70.5,202.1-70.5c20.4,0,40.1-1,57.6,2.6c38.2,7.8,71.4,21.7,104,34.4c36.2,14,130.9,37.9,133.3,80
			c0.6,0,1.1,0,1.7,0c0-2,0-4,0-6c0.6-0.3,1.1-0.6,1.7-0.9c0.3,0,0.6,0,0.9,0c0,3.4,0,6.9,0,10.3c-3.6,5.1-9.7,5.1-12.9,11.2
			c-45.9-0.4-129.6-34.5-122.1,37c2.3,6.6,4.6,13.2,6.9,19.8c31.4,42.8,149.1,6.8,148.7,81.7c-11.3,11.3-40.8,15.7-64.5,11.2
			c-44.9-8.5-82.6-18.9-125.5-30.1c-4.1,3.5-6.2,9.3-6,17.2c8.8,6.1,13.1,13.4,28.4,13.8c0.9,0.9,1.7,1.7,2.6,2.6
			c-25.1,72.3-93.2,90-160.8,119.5c-67.2,29.4-127,72.4-170.2,126.4c-28.1,35-55.8,91-40.4,158.2c5.3,22.9,13.7,40.6,24.1,57.6
			c-44.7,39.5-89.4,79.1-134.1,118.7c-21.3,16.7-46.6,49.7-71.4,60.2c-6.3-7.6-5.5-21.1-8.6-31.8c-8-20.6-16.1-41.3-24.1-61.9
			c12.3-16.3,24.6-32.7,37-49c18.9-30.1,37.8-60.2,56.7-90.3c28.1-53.3,56.2-106.6,84.3-159.9c10.6-14,21.2-28.1,31.8-42.1
			c2-4.9,4-9.7,6-14.6c9.2-13.6,30.5-16.2,35.3-32.7c-1.4,0.3-2.9,0.6-4.3,0.9c2.8-8.8-2-10.8-6.9-16.3
			c-33.4,0.7-60.9,45.8-76.5,67.1c-34.8,47.5-57.4,104.5-88.6,156.5c-18.6,31-37.3,61.9-55.9,92.9c-10.9,15.8-21.8,31.5-32.7,47.3
			c-1.7,1.4-3.4,2.9-5.2,4.3c-9.1-19.4-18.4-39.3-31-55.9c-8.3-9.5-16.6-18.9-24.9-28.4c-2.3-2.3-4.6-4.6-6.9-6.9
			c43.9-57.7,96.5-110.3,141.9-166.8c15.2-18.9,30.6-43.7,49.9-58.5c0.9-7.5-2.2-10.4-1.7-18.9c-3.2-1.7-6.3-3.4-9.5-5.2
			c-14.9-9.1-57,49.8-65.3,60.2c-35.5,44.6-76.5,86.9-111.8,131.6c-15.3,19.4-30.4,40.7-49.9,55.9c-24.5,19.1-59.9,27.3-83.4,2.6
			c-4.8-58.1,34.6-106.2,62.8-143.6c8.9-8.9,17.8-17.8,26.7-26.7c19.4-26.6,38.5-52.7,58.5-78.2c13.3-17,61.7-69.6,55.9-98.9
			c-10.9-54.6-44.3-77.7-92.9-42.1c-34.3,25.1-49.1,67.6-74.8,101.5c-8.3,10.9-32.3,27.6-49.9,15.5c-20.3-13.9,7.7-62.2,13.8-73.9
			c21.8-33.2,43.6-66.5,65.3-99.7c19.4-29.4,34.4-60.8,55-89.4c-1.2-7.1-3-8.3-2.6-16.3c-2-1.4-4-2.9-6-4.3c-4.3,0-8.6,0-12.9,0
			c-8.8,4.7-55.5,75.5-59.3,87.7c-0.9,0.6-1.7,1.1-2.6,1.7c-17.2-14.9-34.4-29.8-51.6-44.7c-43.3-37.2-90.9-72.9-125.5-118.7
			c-11.4,0.4-20.4,5.5-28.4,2.6c-0.3,0.3-0.6,0.6-0.9,0.9c11.6,36.6,40.1,62.6,67.1,84.3c41,32.9,75.5,74.8,117.8,106.6
			c-6.9,10.9-13.8,21.8-20.6,32.7c-21,30.5-75.9,108.3-30.1,146.2c8.2,6.7,14.6,16,26.7,18.9c10.4,2.5,21.5-2.6,28.4-4.3
			c45-11.4,56.6-48.2,78.2-82.5c7-11.2,17.7-19.2,25.8-29.2c7.2-8.9,16.9-19.9,31-21.5c30,28.4-3,67.1-19.8,89.4
			c-55.9,74.2-127.6,138.6-164.2,231.3c-18.8,47.6-1,72.9,30.1,92c7.3,4.5,15.1,10.9,27.5,10.3c30.8-1.4,54.3-16.4,77.4-26.7
			c31.4,23.4,40.8,65.9,64.5,97.2c-2.4,18-27,31.5-37,43.9c-31.4,39-84.8,93.3-147.9,98.9c-37.4-58.1,119.7-95.7,67.1-161.6
			c-16.3-20.4-56.3-24.8-80-8.6c-2.3,3.2-4.6,6.3-6.9,9.5c-14.3,7.7-28.7,15.5-43,23.2c-14,8.1-40,21.5-55,6
			c-8.1-49,97.3-144.2-1.7-165.1c-26.5-5.6-55.4,47.7-98.9,39.6c-12.1-20.6,6.7-42.9,12.9-56.7c21.7-48.6,64.5-77.2,94.6-116.9
			c0.6,0,1.1,0,1.7,0c8.3,7.2,9.8,14.1,22.4,18.1c14.5-0.5,16.9-9,19.8-21.5c-10.1-19.9-40.6-42.3-56.7-58.5
			c-35.2-35.2-64.9-75.3-104.9-105.8c-10.9-8.3-43-45.8-58.5-36.1c-27.6,17.3,16.2,41.9,25.8,50.7c34.7,32.1,69.9,60.2,99.7,97.2
			c9,11.1,23.5,19.4,30.1,32.7c-8.5,16.2-25.2,24.7-37.8,37c-3.3,3.2-3.4,7-6,11.2c-9.2,10-18.3,20.1-27.5,30.1
			c-12.8,16.9-24.2,32.9-35.3,51.6c-11.8,19.9-26.1,50.1-11.2,74.8c4.4,7.2,14.6,10.6,22.4,14.6c30,15.3,63.7,0.8,85.1-14.6
			c7.5-5.4,12.9-13.5,24.9-14.6c21.9,37.5-52.3,85.8-37.8,135c4,13.8,16.9,21.5,30.1,26.7c58,22.7,84.2-12.7,124.7-34.4
			c9.6-5.2,26.1-10.9,38.7-6.9c0.6,3.4,1.1,6.9,1.7,10.3c-10.3,12.3-20.6,24.6-31,37c-4.9,4-9.7,8-14.6,12
			c-14.9,13-27,31.2-35.3,50.7c-7,16.4,1.4,46.7,12,54.2c19,13.4,58.3,8.7,80.8,0.9c48.4-16.8,89.2-57.1,118.7-93.7
			c8.5-10.6,23.6-18.8,28.4-32.7c0.3,0,0.6,0,0.9,0c12.8,13.4,25.6,77.4,26.7,103.2c5.7,4.4,14.9,13.7,25.8,12
			c10.4-1.6,64.5-53.8,77.4-63.6c20.5,18.4,15.7,82.1,24.1,114.4c4.8,2.9,14.6,10.5,24.9,7.7c13.2-3.5,59.7-37.2,65.3-48.1
			c0.3,0,0.6,0,0.9,0c13.1,11.3,15,54.1,18.9,73.1c26,15.4,38.9,4.3,63.6-10.3c12.9-11.2,25.8-22.4,38.7-33.5
			c23.8-18.9,47.6-37.8,71.4-56.7c8.9-5.7,17.8-11.5,26.7-17.2c12.4-4.5,30.9-6.4,20.6-26.7c-11.7-23.1-46.4,0.7-57.6,7.7
			c-34.6,21.6-64,52-95.4,77.4c-10.6,8.5-20.7,26.6-37,28.4c-1.1-18.6-6-36.6-13.8-49c-3.4-4.6-6.9-9.2-10.3-13.8
			c23.2-30.3,63.9-43.5,85.1-76.5c-11.7-28.6-31.6-16.5-48.1,0c-39.8,33.5-79.7,67.1-119.5,100.6c-6.3-7.9-4.2-29.1-6.9-39.6
			c-5.7-22-14.8-41.8-26.7-57.6c13-16.3,30.2-28.1,46.4-41.3c17.4-14.2,31.7-33.8,49.9-47.3c11.4-8.5,24.9-17.2,33.5-28.4
			c1.1,0,2.3,0,3.4,0c30.2,46.7,128.3,84.2,211.5,71.4c12.6-0.3,25.2-0.6,37.8-0.9c125.8-21.4,309.6-78.5,370.6-160.8
			c15.2-20.6,27.5-46.7,32.7-76.5C1727.5,1174,1664.3,1147,1625.3,1172.7z M1295.1,1100.5c0.2,1.7,0.2,1.5-0.9,3.4
			c-0.3,0.6-0.6,1.1-0.9,1.7c-0.3,0-0.6,0-0.9,0C1293.4,1103.9,1294.2,1102.2,1295.1,1100.5z M571.1,1581.1
			c-3.3-3.5-4.7-10-4.3-14.6c2.4,2.1,3.2,6.2,4.3,9.5C571.1,1577.7,571.1,1579.4,571.1,1581.1z M1222,1413.4
			c-1.1,0.6-2.3,1.1-3.4,1.7c6.2-26.6,35.3-58.9,49.9-80c31.8-45.8,58.2-93.3,91.1-138.4c24.1-32.9,58-56.7,90.3-81.7
			c26.8,0.5,36.3,22.4,24.1,44.7c-5.2,4-10.3,8-15.5,12c-16.3,15.5-32.7,31-49,46.4c-42.3,47.1-83.7,96-130.7,138.4
			C1259.8,1375.6,1240.9,1394.5,1222,1413.4z M1300.2,1390.2c24.1-24.4,48.2-48.7,72.2-73.1c16.8-20.9,38.6-37.7,55-58.5
			c27-34,56.7-64.5,93.7-88.6c9.5-6.9,18.9-13.8,28.4-20.6c8.6-1.1,17.2-2.3,25.8-3.4c9.4,2.5,12.4,5.3,14.6,15.5
			c7.2,33.7-21.4,50.1-38.7,62.8c-79.7,58.2-163.6,115.2-250.2,165.9C1300.8,1390.2,1300.5,1390.2,1300.2,1390.2z M1633.8,1307.7
			c-64.2,49.2-139.2,77.8-228.7,103.2c-30.5,8.6-62.8,22.4-99.7,24.1c0-0.3,0-0.6,0-0.9c20.5-17.7,46.8-28.9,70.5-43
			c35.2-22.9,70.5-45.9,105.8-68.8c30.1-21.8,60.2-43.6,90.3-65.3c11.5-9.5,22.9-18.9,34.4-28.4c-1.1,1.4-2.3,2.9-3.4,4.3
			c9.5-6.9,18.9-13.8,28.4-20.6c9.2-4.9,18.3-9.7,27.5-14.6c9.4,0,12.6,2.2,18.9,4.3C1697,1236.9,1651.3,1294.3,1633.8,1307.7z
			 M1165.3,947.4c100.4-29.8,198.7-109.9,196.9-240.7c-28.8-26.5-91.6-43.2-147.9-42.1c-10.3,1.1-20.6,2.3-31,3.4
			c-25.5,5.7-52,13.6-73.9,24.1c-82.1,39.2-126,130.8-112.6,249.3C1036.1,969.7,1118.1,961.4,1165.3,947.4z M1321.7,720.4
			c-2.2,29.1-9.5,59.8-20.6,81.7c-4.9,7.2-9.7,14.3-14.6,21.5c-0.6,0.3-1.1,0.6-1.7,0.9c0.3-9.7,0.6-19.5,0.9-29.2
			c-2.8-18.6-5.1-36.9-12-52.4c-5.4-12-19.3-29.1-30.1-36.1c-5.2-3.4-10.6-4.1-14.6-8.6C1265.7,698.3,1297.4,709.2,1321.7,720.4z
			 M1026,922.5c-14.1-45.7,22.1-117.7,36.1-144.4c-0.3,10-0.6,20.1-0.9,30.1c2.3,13.5,4.6,26.9,6.9,40.4c3,10.1,29.3,53.3,34.4,56.7
			c9.5,4.6,18.9,9.2,28.4,13.8c0,0.3,0,0.6,0,0.9C1097.5,924.8,1060.9,927.9,1026,922.5z M614.1,766c-8.8,9.3-20.7,3.8-24.1,19.8
			c5.4,4.9,10.9,9.7,16.3,14.6c8.6,2.8,14.1-5,22.4-6c1.9-6.7,3.8-15.4,0.9-22.4C627,767.3,621.7,765.7,614.1,766z M488.6,882.1
			c8.4,7.3,31.6,30.1,44.7,11.2c14.5-20.8-13-26.8-23.2-34.4c-23.2-17.2-42.2-40-64.5-57.6c-10.3-9.5-20.6-18.9-31-28.4
			c-2.9,0-5.7,0-8.6,0c-6.3,2-12.6,4-18.9,6C400.7,814.5,457.8,855.4,488.6,882.1z M427.5,893.3c-4.4,3.7-11.6,7.4-18.9,7.7
			c-0.3,2.3-0.6,4.6-0.9,6.9c16.9,11.3,66.9,82.7,86.8,40.4c-1.4-5.5-1.2-11.8-4.3-15.5c-6-2.9-12-5.7-18.1-8.6
			C456.9,913.2,448.8,899.3,427.5,893.3z M436.1,1027.4c6.5,6.5,18.6,15.6,30.1,6.9c6.8-5.1,8.4-20.8,1.7-27.5
			c-4.9-2.6-9.7-5.2-14.6-7.7c-16.9-16.9-33.8-33.8-50.7-50.7c-2.3,0-4.6,0-6.9,0c-6,1.7-12,3.4-18.1,5.2c-1.5,2.4-1.9,2.2-2.6,6
			C392.9,984.2,414.8,1006.1,436.1,1027.4z M646.8,1424.6c0.6-0.6,1.1-1.1,1.7-1.7c-0.6,0-1.1,0-1.7,0
			C646.8,1423.5,646.8,1424,646.8,1424.6z"/>
	</g>
</g>
</svg>
