<?xml version="1.0" encoding="UTF-8"?><svg id="b" xmlns="http://www.w3.org/2000/svg" viewBox="0 0 198.52 340.16"><defs><style>.f{stroke:#f2f2f2;}.f,.g,.h,.i{fill:none;stroke-miterlimit:10;}.f,.g,.i{stroke-width:.5px;}.g,.h{stroke:red;}.i{stroke:#999;}.j{fill:#999;}.k{fill:red;opacity:.22;}.l{fill:#140016;}.m{fill:#f2f2f2;}</style></defs><g id="c"><g id="d"><rect class="m" width="198.52" height="340.16" rx="1.34" ry="1.34"/><g id="e"><path class="l" d="m6.94,333.51c-1.16,0-2.1-.87-2.1-1.95V8.6c0-1.08.94-1.95,2.1-1.95h184.65c1.16,0,2.1.87,2.1,1.95v322.96c0,1.08-.94,1.95-2.1,1.95"/></g><rect class="f" x="7.74" y="9.5" width="183.04" height="321.15" rx="1.34" ry="1.34"/><path class="m" d="m86.06,28.68h-.87l-3.14-8.06h-.48c-.11,0-.2-.01-.24-.03-.05-.02-.09-.06-.12-.11-.03-.05-.05-.11-.05-.17s.02-.11.05-.17c.03-.05.07-.09.12-.11.05-.02.13-.03.24-.03h2.32c.12,0,.2.01.25.03.05.02.09.06.12.11.03.05.05.11.05.17s-.02.11-.05.17c-.03.05-.08.09-.12.11-.05.02-.13.03-.24.03h-1.19l2.89,7.43h.04l2.86-7.43h-1.19c-.12,0-.2-.01-.25-.03-.05-.02-.09-.06-.12-.11-.03-.05-.05-.11-.05-.17s.02-.11.05-.17c.03-.05.08-.09.12-.11.05-.02.13-.03.25-.03h2.31c.12,0,.2.01.25.03.05.02.09.06.12.11.03.05.05.11.05.17s-.02.11-.05.17c-.03.05-.08.09-.12.11-.05.02-.13.03-.25.03h-.47l-3.09,8.06Z"/><path class="m" d="m95.03,20.62v7.43h2.14c.15,0,.25.03.32.08.06.06.1.13.1.23s-.03.16-.1.22-.17.09-.32.09h-4.9c-.15,0-.25-.03-.32-.09s-.1-.13-.1-.22c0-.09.03-.17.1-.23.06-.06.17-.08.32-.08h2.14v-7.43h-2.14c-.15,0-.25-.03-.32-.08-.06-.06-.1-.13-.1-.23s.03-.17.1-.23c.06-.06.17-.08.32-.08h4.9c.15,0,.25.03.32.08.06.06.1.13.1.23s-.03.17-.1.23c-.06.06-.17.08-.32.08h-2.14Z"/><path class="m" d="m104.15,20.62v7.43h2.14c.15,0,.25.03.32.08.06.06.1.13.1.23s-.03.16-.1.22-.17.09-.32.09h-4.9c-.15,0-.25-.03-.32-.09s-.1-.13-.1-.22c0-.09.03-.17.1-.23.06-.06.17-.08.32-.08h2.14v-7.43h-2.14c-.15,0-.25-.03-.32-.08-.06-.06-.1-.13-.1-.23s.03-.17.1-.23c.06-.06.17-.08.32-.08h4.9c.15,0,.25.03.32.08.06.06.1.13.1.23s-.03.17-.1.23c-.06.06-.17.08-.32.08h-2.14Z"/><path class="m" d="m113.27,20.62v7.43h2.14c.15,0,.25.03.32.08.06.06.1.13.1.23s-.03.16-.1.22-.17.09-.32.09h-4.9c-.15,0-.25-.03-.32-.09s-.1-.13-.1-.22c0-.09.03-.17.1-.23.06-.06.17-.08.32-.08h2.14v-7.43h-2.14c-.15,0-.25-.03-.32-.08-.06-.06-.1-.13-.1-.23s.03-.17.1-.23c.06-.06.17-.08.32-.08h4.9c.15,0,.25.03.32.08.06.06.1.13.1.23s-.03.17-.1.23c-.06.06-.17.08-.32.08h-2.14Z"/><line class="g" x1="44.99" y1="127.67" x2="45.04" y2="157.87"/><polygon class="k" points="19.27 172.01 45.04 157.87 71.11 172.31 19.27 172.01"/><polygon class="h" points="18.87 172.31 71.11 172.31 44.99 127.67 18.87 172.31"/><line class="g" x1="45.04" y1="157.87" x2="71.11" y2="172.31"/><line class="g" x1="45.04" y1="157.87" x2="18.87" y2="172.31"/><line class="g" x1="99.24" y1="89.45" x2="99.29" y2="119.65"/><polygon class="k" points="73.52 133.79 99.29 119.65 99.22 89.79 73.52 133.79"/><polygon class="h" points="73.12 134.09 125.36 134.09 99.24 89.45 73.12 134.09"/><line class="g" x1="99.29" y1="119.65" x2="125.36" y2="134.09"/><line class="g" x1="99.29" y1="119.65" x2="73.12" y2="134.09"/><line class="g" x1="45.06" y1="89.45" x2="45.02" y2="134.09"/><polygon class="k" points="70.78 133.79 45.09 133.79 45.09 89.79 70.78 133.79"/><polygon class="h" points="71.18 134.09 18.95 134.09 45.06 89.45 71.18 134.09"/><line class="g" x1="127.3" y1="170.75" x2="127.35" y2="215.39"/><polygon class="k" points="101.58 215.08 127.28 215.08 127.28 171.08 101.58 215.08"/><polygon class="h" points="101.19 215.39 153.42 215.39 127.3 170.75 101.19 215.39"/><line class="g" x1="153.39" y1="127.69" x2="153.43" y2="157.89"/><polygon class="k" points="127.67 172.03 153.43 157.89 179.51 172.33 127.67 172.03"/><polygon class="h" points="127.27 172.33 179.51 172.33 153.39 127.69 127.27 172.33"/><line class="g" x1="153.43" y1="157.89" x2="179.51" y2="172.33"/><line class="g" x1="153.43" y1="157.89" x2="127.27" y2="172.33"/><line class="g" x1="71.18" y1="170.75" x2="71.23" y2="215.39"/><polygon class="k" points="45.46 215.08 71.16 215.08 71.16 171.08 45.46 215.08"/><polygon class="h" points="45.06 215.39 97.3 215.39 71.18 170.75 45.06 215.39"/><line class="g" x1="99.24" y1="206.06" x2="99.29" y2="236.26"/><polygon class="k" points="73.52 250.4 99.29 236.26 99.22 206.4 73.52 250.4"/><polygon class="h" points="73.12 250.7 125.36 250.7 99.24 206.06 73.12 250.7"/><line class="g" x1="99.29" y1="236.26" x2="125.36" y2="250.7"/><line class="g" x1="99.29" y1="236.26" x2="73.12" y2="250.7"/><line class="g" x1="153.43" y1="89.45" x2="153.39" y2="134.09"/><polygon class="k" points="179.15 133.79 153.46 133.79 153.46 89.79 179.15 133.79"/><polygon class="h" points="179.55 134.09 127.31 134.09 153.43 89.45 179.55 134.09"/><path class="j" d="m98.48,304.9v1.18h.42c.06,0,.09.01.12.03.02.02.03.05.03.08,0,.03-.01.06-.03.08-.02.02-.06.03-.12.03h-.94c-.05,0-.09-.01-.12-.03-.02-.02-.03-.05-.03-.08,0-.03.01-.06.03-.08.02-.02.06-.03.12-.03h.3v-2.69h-.3c-.05,0-.09-.01-.12-.03-.02-.02-.03-.05-.03-.08s.01-.06.03-.08c.02-.02.06-.03.12-.03h1.36c.28,0,.52.09.71.27.19.18.29.38.29.6,0,.16-.06.31-.18.45-.12.14-.32.26-.6.36.16.11.3.24.41.38.11.14.3.43.55.86h.17c.05,0,.09.01.12.03.02.02.03.05.03.08,0,.03-.01.06-.03.08-.02.02-.06.03-.12.03h-.3c-.28-.5-.49-.83-.65-1-.15-.17-.33-.3-.53-.4h-.72Zm0-.23h.61c.2,0,.38-.04.54-.11.16-.07.28-.16.35-.25s.11-.19.11-.3c0-.15-.08-.29-.23-.43-.15-.14-.33-.2-.55-.2h-.83v1.29Z"/><path class="j" d="m93.05,312.33h-1.48l-.3.82h.43c.05,0,.09.01.12.03.02.02.03.05.03.08,0,.03-.01.06-.03.08-.02.02-.06.03-.12.03h-.84c-.05,0-.09-.01-.12-.03-.02-.02-.03-.05-.03-.08,0-.03.01-.06.03-.08.02-.02.06-.03.12-.03h.17l1-2.69h-.67c-.05,0-.09-.01-.12-.03-.02-.02-.03-.05-.03-.08s.01-.06.03-.08c.02-.02.06-.03.12-.03h1.13l1.1,2.91h.17c.05,0,.09.01.12.03.02.02.03.05.03.08,0,.03-.01.06-.03.08-.02.02-.06.03-.12.03h-.84c-.06,0-.09-.01-.12-.03-.02-.02-.03-.05-.03-.08,0-.03.01-.06.03-.08.02-.02.06-.03.12-.03h.43l-.31-.82Zm-.09-.23l-.62-1.64h-.08l-.6,1.64h1.31Z"/><path class="j" d="m107.72,311.89c0,.3-.06.58-.18.84-.12.26-.29.46-.5.6-.21.14-.44.21-.69.21-.36,0-.68-.15-.96-.46s-.41-.7-.41-1.19.14-.88.41-1.19c.28-.31.6-.46.96-.46.25,0,.47.07.69.21.21.14.38.34.5.6.12.26.18.53.18.84Zm-.23,0c0-.37-.11-.7-.32-.99-.21-.29-.49-.44-.83-.44-.32,0-.59.14-.81.42-.22.28-.34.61-.34,1.01,0,.42.12.76.35,1.03.24.27.5.4.8.4.34,0,.61-.15.83-.44.21-.29.32-.62.32-.99Z"/><path class="j" d="m99.32,317.24v2.69h.58c.05,0,.09.01.12.03.02.02.03.05.03.08,0,.03-.01.06-.03.08-.02.02-.06.03-.12.03h-1.4c-.05,0-.09-.01-.12-.03-.02-.02-.03-.05-.03-.08,0-.03.01-.06.03-.08.02-.02.06-.03.12-.03h.58v-2.69h-.92v.78c0,.06-.01.09-.03.12-.02.02-.05.03-.08.03-.03,0-.06-.01-.08-.03-.02-.02-.03-.06-.03-.12v-1.01h2.52v1.01c0,.06-.01.09-.03.12-.02.02-.05.03-.08.03s-.06-.01-.08-.03c-.02-.02-.03-.06-.03-.12v-.78h-.92Z"/><path class="i" d="m106.34,309.6c-.74-2.52-2.78-4.48-5.33-5.11"/><path class="i" d="m101.02,318.88c2.37-.59,4.28-2.31,5.14-4.55"/><path class="i" d="m92.32,314.33c.84,2.2,2.7,3.89,4.99,4.51"/><path class="i" d="m97.55,304.64c-2.54.67-4.55,2.65-5.25,5.18"/></g></g></svg>