<svg viewBox="0 0 500 500" xmlns:xlink="http://www.w3.org/1999/xlink" xmlns="http://www.w3.org/2000/svg"><defs><style>.c,.d,.e{fill:none;}.d{isolation:isolate;}.f{fill:#e8eb8a;}.g{fill:#fff;}.h{fill:#c4bea6;}.i,.j{fill:#559d85;}.j,.k,.l{mix-blend-mode:multiply;}.k,.l{fill:#f48e78;}.e{clip-path:url(#b);}.l{opacity:.8;}</style><clipPath id="b"><rect height="500" width="500" class="c"></rect></clipPath></defs><g class="d"><g id="a"><g class="e"><rect height="500" width="500" class="f"></rect><circle r="149.3" cy="209.7" cx="266.5" class="g"></circle><path d="m476.1,271c0,33.6-27.2,60.7-60.7,60.7v-121.5c33.6,0,60.7,27.2,60.7,60.7Z" class="h"></path><polygon points="449.8 84.4 449.8 256.8 347.3 226.2 347.3 53.8 449.8 84.4" class="k"></polygon><polygon points="323.8 395 323.8 635.9 165.2 588.6 165.2 347.7 323.8 395" class="i"></polygon><polygon points="208 -101.1 208 -2.9 79.2 -41.4 79.2 119.7 208 158.2 208 94.6 336.8 133 336.8 -62.7 208 -101.1" class="l"></polygon><polygon points="529.5 499.9 529.5 1305.7 -.8 1147.4 -.8 341.6 529.5 499.9" class="g"></polygon><polygon points="529.5 588.1 529.5 1393.9 -.8 1235.6 -.8 429.8 529.5 588.1" class="i"></polygon><path d="m57.3,213.2c0,32.8,26.6,59.4,59.4,59.4v-118.7c-32.8,0-59.4,26.6-59.4,59.4Z" class="h"></path><polygon points="77.5 310.4 77.5 569.8 65.9 566.4 65.9 307 77.5 310.4" class="j"></polygon><polygon points="97.1 316 97.1 575.5 85.5 572 85.5 312.6 97.1 316" class="j"></polygon><polygon points="116.6 322.3 116.6 581.7 105 578.3 105 318.8 116.6 322.3" class="j"></polygon><polygon points="268.9 420.7 517.4 495.1 517.5 483 268.9 408.6 268.9 420.7" class="j"></polygon><polygon points="268.7 441.2 517.2 515.5 517.2 503.4 268.7 429 268.7 441.2" class="j"></polygon><polygon points="269.1 461.6 517.6 536 517.6 523.9 269.1 449.5 269.1 461.6" class="j"></polygon></g></g></g></svg>