<svg viewBox="0 0 500 500" xmlns:xlink="http://www.w3.org/1999/xlink" height="500" width="500" xmlns="http://www.w3.org/2000/svg">
  <defs>
    <style>
      .c, .d, .e {
        fill: none;
      }

      .d {
        isolation: isolate;
      }

      .f {
        fill: #fff;
      }

      .g {
        fill: #c1f8fd;
      }

      .h, .i {
        fill: #dcf8ea;
      }

      .j {
        fill: #49dbe6;
      }

      .j, .i, .k, .l, .m {
        mix-blend-mode: multiply;
      }

      .k {
        fill: #fec7c4;
      }

      .l {
        fill: #e8d8cc;
      }

      .e {
        clip-path: url(#b);
      }

      .m, .n {
        fill: #ed7faf;
        opacity: .8;
      }
    </style>
    <clipPath id="b">
      <rect height="500" width="500" class="c"></rect>
    </clipPath>
  </defs>
  <g class="d">
    <g data-name="レイヤー 1" id="a">
      <g class="e">
        <rect height="500" width="500" class="g"></rect>
        <circle r="141.8" cy="163.5" cx="312" class="f"></circle>
        <g>
          <circle r="23.2" cy="104.3" cx="39.9" class="i"></circle>
          <circle r="23.2" cy="136.4" cx="94.9" class="j"></circle>
          <circle r="23.2" cy="168.5" cx="150" class="n"></circle>
          <circle r="23.2" cy="200.6" cx="205" class="h"></circle>
        </g>
        <g>
          <circle r="23.2" cy="195.9" cx="361.5" class="i"></circle>
          <circle r="23.2" cy="228" cx="416.5" class="j"></circle>
          <circle r="23.2" cy="260" cx="471.6" class="n"></circle>
        </g>
        <polygon points="364.6 547.1 157.6 547.1 273.8 349.4 480.7 349.4 364.6 547.1" class="f"></polygon>
        <polygon points="124.9 265.9 -17.9 499.8 69.3 499.8 212.1 265.9 124.9 265.9" class="f"></polygon>
        <polygon points="130.2 235.5 61 348.9 103.2 348.9 172.5 235.5 130.2 235.5" class="m"></polygon>
        <polygon points="201.9 0 143.1 96.4 322.1 96.4 381 0 201.9 0" class="l"></polygon>
        <polygon points="264.8 30.8 205.9 127.3 385 127.3 443.8 30.8 264.8 30.8" class="l"></polygon>
        <polygon points="297.4 508.5 88.5 508.5 205.7 316.4 414.6 316.4 297.4 508.5" class="k"></polygon>
        <g>
          <circle r="23.2" cy="444.2" cx="274" class="i"></circle>
          <circle r="23.2" cy="389.2" cx="306.1" class="j"></circle>
          <circle r="23.2" cy="334.1" cx="338.2" class="n"></circle>
        </g>
      </g>
    </g>
  </g>
</svg>