<svg height="320" shape-rendering="crispEdges" viewBox="0 0 320 320" width="320" xmlns="http://www.w3.org/2000/svg"><rect fill="#d5d7e1" height="100%" width="100%"/><g fill="#b87b11"><path d="m90 210h140v10h-140z"/><path d="m90 220h140v10h-140z"/><path d="m90 230h140v10h-140z"/><path d="m90 240h140v10h-140z"/><path d="m90 250h20v10h-20z"/><path d="m120 250h110v10h-110z"/><path d="m90 260h20v10h-20z"/><path d="m120 260h110v10h-110z"/><path d="m90 270h20v10h-20z"/><path d="m120 270h110v10h-110z"/><path d="m90 280h20v10h-20z"/><path d="m120 280h110v10h-110z"/><path d="m90 290h20v10h-20z"/><path d="m120 290h110v10h-110z"/><path d="m90 300h20v10h-20z"/><path d="m120 300h110v10h-110z"/><path d="m90 310h20v10h-20z"/><path d="m120 310h110v10h-110z"/></g><path d="m130 230h10v10h-10z" fill="#a3efd0"/><path d="m170 230h20v10h-20z" fill="#a3efd0"/><path d="m130 240h10v10h-10z" fill="#a3efd0"/><path d="m160 240h20v10h-20z" fill="#a3efd0"/><path d="m130 250h20v10h-20z" fill="#a3efd0"/><path d="m160 250h10v10h-10z" fill="#a3efd0"/><path d="m140 270h10v10h-10z" fill="#a3efd0"/><path d="m170 270h20v10h-20z" fill="#a3efd0"/><path d="m130 280h10v10h-10z" fill="#a3efd0"/><path d="m150 280h10v10h-10z" fill="#a3efd0"/><path d="m170 280h20v10h-20z" fill="#a3efd0"/><path d="m130 290h10v10h-10z" fill="#a3efd0"/><path d="m150 290h10v10h-10z" fill="#a3efd0"/><path d="m170 290h20v10h-20z" fill="#a3efd0"/><path d="m130 30h60v10h-60z" fill="#f9f4e6"/><path d="m110 40h30v10h-30z" fill="#f9f4e6"/><path d="m140 40h30v10h-30z" fill="#cfc9b8"/><path d="m170 40h40v10h-40z" fill="#f9f4e6"/><path d="m90 50h40v10h-40z" fill="#f9f4e6"/><path d="m130 50h30v10h-30z" fill="#cfc9b8"/><path d="m160 50h70v10h-70z" fill="#f9f4e6"/><path d="m80 60h40v10h-40z" fill="#f9f4e6"/><path d="m120 60h20v10h-20z" fill="#cfc9b8"/><path d="m140 60h60v10h-60z" fill="#f9f4e6"/><path d="m200 60h10v10h-10z" fill="#cfc9b8"/><path d="m210 60h30v10h-30z" fill="#f9f4e6"/><path d="m80 70h140v10h-140z" fill="#f9f4e6"/><path d="m220 70h10v10h-10z" fill="#cfc9b8"/><path d="m230 70h10v10h-10z" fill="#f9f4e6"/><path d="m70 80h180v10h-180z" fill="#f9f4e6"/><path d="m70 90h50v10h-50z" fill="#f9f4e6"/><path d="m120 90h10v10h-10z" fill="#cfc9b8"/><path d="m130 90h80v10h-80z" fill="#f9f4e6"/><path d="m210 90h10v10h-10z" fill="#cfc9b8"/><path d="m220 90h30v10h-30z" fill="#f9f4e6"/><path d="m60 100h20v10h-20z" fill="#f9f4e6"/><path d="m80 100h10v10h-10z" fill="#cfc9b8"/><path d="m90 100h170v10h-170z" fill="#f9f4e6"/><path d="m60 110h10v10h-10z" fill="#f9f4e6"/><path d="m70 110h20v10h-20z" fill="#cfc9b8"/><path d="m90 110h170v10h-170z" fill="#f9f4e6"/><path d="m60 120h10v10h-10z" fill="#f9f4e6"/><path d="m70 120h10v10h-10z" fill="#cfc9b8"/><path d="m80 120h180v10h-180z" fill="#f9f4e6"/><path d="m60 130h200v10h-200z" fill="#f9f4e6"/><path d="m60 140h200v10h-200z" fill="#f9f4e6"/><path d="m60 150h200v10h-200z" fill="#f9f4e6"/><path d="m70 160h180v10h-180z" fill="#f9f4e6"/><path d="m70 170h150v10h-150z" fill="#f9f4e6"/><path d="m220 170h10v10h-10z" fill="#cfc9b8"/><path d="m230 170h20v10h-20z" fill="#f9f4e6"/><path d="m80 180h50v10h-50z" fill="#f9f4e6"/><path d="m130 180h20v10h-20z"/><path d="m150 180h60v10h-60z" fill="#f9f4e6"/><path d="m210 180h20v10h-20z" fill="#cfc9b8"/><path d="m230 180h10v10h-10z" fill="#f9f4e6"/><path d="m80 190h110v10h-110z" fill="#f9f4e6"/><path d="m190 190h30v10h-30z" fill="#cfc9b8"/><path d="m220 190h20v10h-20z" fill="#f9f4e6"/><path d="m90 200h60v10h-60z" fill="#f9f4e6"/><path d="m150 200h10v10h-10z" fill="#cfc9b8"/><path d="m160 200h30v10h-30z" fill="#f9f4e6"/><path d="m190 200h10v10h-10z" fill="#cfc9b8"/><path d="m200 200h30v10h-30z" fill="#f9f4e6"/><path d="m110 210h100v10h-100z" fill="#f9f4e6"/><path d="m130 220h60v10h-60z" fill="#f9f4e6"/><path d="m100 110h60v10h-60z" fill="#2b83f6"/><path d="m170 110h60v10h-60z" fill="#2b83f6"/><path d="m100 120h10v10h-10z" fill="#2b83f6"/><path d="m110 120h20v10h-20z" fill="#fff"/><path d="m130 120h20v10h-20z"/><path d="m150 120h10v10h-10z" fill="#2b83f6"/><path d="m170 120h10v10h-10z" fill="#2b83f6"/><path d="m180 120h20v10h-20z" fill="#fff"/><path d="m200 120h20v10h-20z"/><path d="m220 120h10v10h-10z" fill="#2b83f6"/><path d="m70 130h40v10h-40z" fill="#2b83f6"/><path d="m110 130h20v10h-20z" fill="#fff"/><path d="m130 130h20v10h-20z"/><path d="m150 130h30v10h-30z" fill="#2b83f6"/><path d="m180 130h20v10h-20z" fill="#fff"/><path d="m200 130h20v10h-20z"/><path d="m220 130h10v10h-10z" fill="#2b83f6"/><path d="m70 140h10v10h-10z" fill="#2b83f6"/><path d="m100 140h10v10h-10z" fill="#2b83f6"/><path d="m110 140h20v10h-20z" fill="#fff"/><path d="m130 140h20v10h-20z"/><path d="m150 140h10v10h-10z" fill="#2b83f6"/><path d="m170 140h10v10h-10z" fill="#2b83f6"/><path d="m180 140h20v10h-20z" fill="#fff"/><path d="m200 140h20v10h-20z"/><path d="m220 140h10v10h-10z" fill="#2b83f6"/><path d="m70 150h10v10h-10z" fill="#2b83f6"/><path d="m100 150h10v10h-10z" fill="#2b83f6"/><path d="m110 150h20v10h-20z" fill="#fff"/><path d="m130 150h20v10h-20z"/><path d="m150 150h10v10h-10z" fill="#2b83f6"/><path d="m170 150h10v10h-10z" fill="#2b83f6"/><path d="m180 150h20v10h-20z" fill="#fff"/><path d="m200 150h20v10h-20z"/><path d="m220 150h10v10h-10z" fill="#2b83f6"/><path d="m100 160h60v10h-60z" fill="#2b83f6"/><path d="m170 160h60v10h-60z" fill="#2b83f6"/></svg>