<?xml version="1.0" encoding="utf-8"?>
<!-- Generator: Adobe Adobe Illustrator 24.2.0, SVG Export Plug-In . SVG Version: 6.00 Build 0)  -->
<svg version="1.1" id="Layer_1" xmlns="http://www.w3.org/2000/svg" xmlns:xlink="http://www.w3.org/1999/xlink" x="0px" y="0px"
	 width="500px" height="500px" viewBox="0 0 500 500" style="enable-background:new 0 0 500 500;" xml:space="preserve">
<style type="text/css">
	.st0{fill:#62959D;}
	.st1{fill:#EB3314;}
	.st2{fill:#17293D;}
	.st3{fill:#0C1A2C;}
	.st4{fill:#F0E5A3;}
	.st5{font-family:'Arial-BoldMT';}
	.st6{font-size:70.7396px;}
	.st7{fill:#EC3314;}
	.st8{fill:#60939B;}
	.st9{fill:#EE3314;}
	.st10{fill:#EB3515;}
	.st11{fill:#5F959D;}
	.st12{fill:#EEE4A3;}
</style>
<rect x="250" class="st0" width="250" height="500"/>
<rect class="st1" width="250" height="500"/>
<g id="Layer_4">
	<path class="st2" d="M246.04,7.29c15.83,0.62,46.04,15.63,60,24.58c12.29,7.92,36.67,25.21,47.29,36.04
		c11.25,11.67,32.71,37.5,39.79,53.12c7.08,15.83,16.46,50.83,17.29,68.54c0.62,12.92-1.46,39.38-5,51.46
		c-2.08,7.29-8.54,20.83-12.5,26.88c-6.04,9.58-18.96,28.12-26.67,35.62c-6.25,6.25-20.62,15.62-27.71,20.62
		c-6.46,4.58-19.17,13.96-25.62,18.54c-10.42,7.5-31.25,23.33-42.08,29.79c-3.54,2.08-10.62,7.08-14.58,7.08
		c-8.96,0-25.83-9.58-33.75-14.58c-11.87-7.92-35.21-24.79-46.88-33.33c-9.58-7.08-28.75-20.62-37.71-28.54
		c-7.08-6.25-21.46-19.38-26.67-27.71c-7.29-11.67-18.33-38.54-20.62-52.71c-1.67-10.21-1.25-31.46,0.42-41.67
		c2.5-15.42,10-45.62,16.25-59.37c7.08-15.63,23.96-46.67,35.21-58.75c11.04-11.88,36.67-30.63,50.21-38.12
		C205.21,17.92,232.29,6.88,246.04,7.29z"/>
	<path class="st3" d="M250.62,419.79c3.33-0.83,11.67-35.63,13.33-39.79c1.46-3.75,7.5-15.83,9.79-18.54
		c2.08-2.5,6.04-7.92,8.12-10.21c2.71-2.92,8.54-7.71,11.46-10.21c3.54-2.92,10.62-8.96,14.17-11.67c2.71-2.08,8.12-5.62,10.83-7.71
		c2.5-1.88,7.5-6.04,10-7.92c3.54-2.71,10.83-7.92,14.38-10.42c2.92-2.08,8.96-5.83,11.67-8.33c3.12-2.71,8.54-9.58,11.04-12.92
		c2.71-3.54,8.54-10.21,10.83-14.17s6.25-12.5,7.71-17.08c1.88-5.42,5-16.88,5.62-22.92c0.42-5-0.42-15-0.62-20
		c-0.42-5.83,0-17.71-1.46-23.12c-1.46-5.83-7.08-15.62-9.58-20.62c-1.88-3.75-5-11.88-6.88-15.62c-2.08-3.75-7.08-10.21-9.58-13.54
		c-2.71-3.96-7.5-12.71-10.21-16.46c-2.29-3.12-7.5-8.75-10.21-11.04c-2.71-2.5-8.54-7.29-11.67-9.17
		c-3.54-2.08-10.83-5.21-14.38-6.88c-3.54-1.67-10.83-5-14.38-6.88c-2.5-1.25-7.29-4.58-9.79-5.62c-3.96-1.67-12.08-3.33-16.04-4.38
		c-2.71-0.83-7.71-2.92-10.42-3.54c-3.75-0.62-11.46-0.62-15.42-0.42c-4.38,0.42-12.92,1.88-17.08,2.92
		c-4.79,1.25-14.38,4.17-18.96,5.62c-3.54,1.25-10.83,3.54-14.38,5.42c-3.54,1.87-11.04,7.29-14.58,10
		c-3.75,2.92-10.83,8.96-14.37,12.08c-3.33,2.71-10,7.92-13.12,11.04c-3.75,3.75-10.42,12.5-13.54,17.08
		c-1.88,3.12-5.42,9.17-7.08,12.5c-1.88,3.54-5.21,11.04-6.88,14.79c-1.67,3.96-5.42,11.25-6.87,15.21
		c-1.25,3.75-3.33,11.67-4.38,15.62c-0.83,3.75-3.12,11.25-3.96,15.21c-0.83,4.17-2.29,12.5-2.29,16.88s1.04,12.92,1.88,17.08
		c0.62,3.54,2.5,10.83,3.54,14.17c1.46,4.58,3.75,14.17,6.04,18.12c2.71,4.58,9.79,11.88,13.75,14.17
		c3.33,1.88,13.54,10.42,17.08,11.67c3.54,1.46,8.54,6.04,12.08,7.92C169.58,310,180,320,183.75,321.67
		c3.75,1.67,10.21,7.92,13.75,10.21c3.54,2.29,8.54,4.79,11.67,7.92c3.33,3.33,8.75,5.83,11.87,9.38
		c2.92,3.33,8.54,7.08,11.46,10.42c2.92,3.33,8.33,7.92,10.83,11.88c1.88,2.71,5,21.46,6.46,24.58
		C251.67,399.58,247.92,420.42,250.62,419.79z"/>
	<rect y="393.33" class="st3" width="500" height="106.67"/>
	<text transform="matrix(1 0 0 1 16.8638 470.9756)" class="st4 st5 st6">ANONYMOUS</text>
</g>
<g>
	<path class="st7" d="M199.38,302.08c-4.38-3.96-12.29-19.79-12.29-19.79l18.54,10c0,0-24.79-30.21-31.04-41.46
		c-2.92-5.42-7.08-6.88-9.37-22.71c-1.04-7.29,13.96,17.92,18.75,23.96c6.04,7.71,27.08,28.96,27.08,28.96s-10.62-15-7.08-18.75
		c2.92-3.12,18.33,2.29,18.33,2.29s7.92-1.25,10.42,0.83c3.12,2.92-1.04,21.88-1.04,21.88l11.04,30.62c0,0-18.96-4.38-24.58-5.62
		C212.71,311.04,203.12,305.62,199.38,302.08z"/>
	<path class="st8" d="M223.75,265.62c-5,3.96-2.71,20.83,0.42,26.25c3.12,5.83,19.79,32.29,19.58,25.83
		c-0.42-7.08-7.29-21.88-6.67-30.42c0.42-4.17,2.92-17.92,0.21-21.46C235.42,263.33,226.25,263.75,223.75,265.62z"/>
	<path class="st9" d="M248.75,212.5c5.21,3.54,14.37,2.08,14.37,2.08s-8.33,1.46-11.46,1.04c-4.58-0.62-15.83-8.96-15.83-8.96
		s-14.38,2.08-18.54,4.58c-2.5,1.46,1.88,5.63,3.54,6.67c2.08,1.25,8.33,1.04,9.38,3.12c1.04,2.29-3.54,7.29-5.83,8.33
		c-5,2.08-18.75,2.71-18.75,2.71l-17.08-12.29l27.29-18.12c0,0-28.54,13.12-38.33,11.04c-7.71-1.67-21.67-20-21.67-20
		s-3.12-14.79,0.63-17.71c6.88-5.62,28.54,2.08,37.92,2.29c6.04,0.21,18.54-1.25,23.33-4.38c4.38-2.92,8.33-5.63,11.88-16.88
		c0.83-2.29,2.5,9.58,2.5,9.58s3.12-3.96,3.54-2.92c3.33,6.25-4.38,15.62-2.29,19.79c0.83,1.88,5,4.38,4.58,6.25
		c-2.71,9.38-2.08,15.83,2.08,18.12"/>
	<path class="st9" d="M177.08,129.17c-3.12,2.08-9.79,12.5-7.5,15.42c1.88,2.29,12.29,3.13,15.21,2.08c9.17-2.5,20,2.08,25,2.92
		c3.12,0.62,11.04,3.12,13.75,2.08c2.71-1.04,3.12-4.79,2.08-7.08c-2.71-5.62-15.83-12.29-22.5-14.58
		C197.92,128.12,181.46,125.42,177.08,129.17z"/>
	<path class="st9" d="M234.17,128.96c6.25,7.08-23.33-17.92-32.92-19.58c-9.17-1.46-36.04,8.75-36.04,8.75s11.88-10.42,13.96-15
		c1.67-3.75,1.46-12.5,3.96-16.04c3.75-5.42,16.67-12.71,23.33-15c8.96-3.12,28.75-3.75,38.54-3.75c8.33,0,24.79,2.08,32.71,3.75
		c8.75,1.67,26.46,7.29,33.12,12.71c7.5,5.62,15.21,22.29,18.54,30.63c2.92,7.08,5.42,21.67,7.29,28.75
		c1.25,3.96,4.58,16.04,4.58,16.04s-1.67,6.25-1.25,8.33c0.42,1.88,3.96,6.46,3.96,6.46s3.12,17.29,2.92,23.12
		c0,8.33-3.12,25-5.21,33.13c-1.25,5.21-4.37,15.62-5.42,20.83c-1.25,5.62-4.58,17.5-7.92,22.71c-3.54,5.42-13.54,13.33-18.96,17.5
		c-6.88,5.21-23.54,16.04-28.54,18.96c-5.42,3.12-29.17,11.67-25.21,6.88c11.46-13.54,8.54-38.12,6.88-50.21
		c-2.29-17.92,70.62-43.54,70.62-43.54l-3.75-83.12c0,0-51.25,0.42-64.38,11.67c-13.13,11.25-25.21-48.75-25.21-48.75l-26.04,7.71
		C213.54,111.88,224.38,117.5,234.17,128.96z"/>
	<path class="st10" d="M191.67,238.54c0,0,11.88,5.83,17.08,7.5c8.75,2.5,40,2.71,40,2.71l30.83,10c0,0-47.71-1.04-54.17-2.71
		c-4.38-1.04-16.67-2.29-20.62-4.17C201.25,250,191.67,238.54,191.67,238.54z"/>
	<path class="st11" d="M261.88,313.75c3.54-9.38,3.75-18.75,4.38-23.75c0.83-5.83-2.71-12.08-2.08-21.46
		c0.21-3.75,12.29-10.63,12.29-10.63l-30.62-2.29c0,0-46.46-5.63-37.08-6.04c22.08-1.04,40.21-1.04,40.21-1.04l32.29-3.75
		l28.12-6.67l12.29-20.83l-9.17-3.54l-3.33,3.12L285,205c0,0-19.79,9.79-26.88,8.75c-4.38-0.62-16.88-7.29-19.17-11.04
		c-3.33-5.42,2.71-17.29,3.54-23.75c0.83-5.83,1.88-20.62,1.46-26.46c-0.42-5.42,0.83-16.04,0-21.46
		c-0.42-3.54-3.33-11.25-7.08-12.92c-1.25-0.62-4.58,0.83-6.25,0.63c-5.21-0.63-19.17-8.33-19.17-8.33s-15.62-4.17-19.79-6.67
		c-5.62-3.33,8.96-8.75,11.88-12.5c2.5-3.54,5.83-11.46,9.38-13.96c6.46-4.17,23.12-6.04,31.25-5.83
		c9.17,0.21,27.29,1.46,36.04,3.96c5,1.46,15.42,5.21,19.38,8.33c3.12,2.5,7.29,9.58,9.58,12.71c3.12,3.96,11.04,10.42,13.75,14.58
		c2.29,3.54,5.21,15.21,5.21,15.21s-11.67-8.33-18.96-10c-5.83-1.46-25.83-2.29-31.46,0c-4.79,1.67-15.83,9.37-16.88,14.79
		c-2.71,11.25-0.21,47.08-0.21,47.08l39.17-1.04c0,0,20.21-45.83,28.96-42.5c1.88,0.63,8.12,25.42,6.88,26.88
		c-2.5,2.71,2.71,16.46,6.25,18.75c4.37,3.12,1.04,25.21,0.21,29.38c-1.04,6.46-4.37,19.17-6.46,25.42
		c-1.88,5.21-5.83,15.42-7.92,20.62c-1.67,4.17-3.75,13.13-6.46,17.08c-3.75,5.42-14.38,14.38-19.79,18.33
		c-4.58,3.33-14.79,9.38-19.58,12.71C277.29,306.67,261.25,315.62,261.88,313.75z"/>
	<path class="st4" d="M285.62,202.71c0,0,22.71,6.67,31.25,6.25c5.42-0.42,15.83-5.63,19.38-9.58c2.71-3.12,3.96-11.88,2.92-15.62
		c-1.04-4.17-7.92-11.25-12.29-12.71c-3.54-1.25-11.67,0.83-15.42,1.25c-6.46,0.62-19.38,3.12-25.83,2.92
		c-3.75,0-11.25-1.88-14.17-3.96c-4.38-2.92-9.17-12.29-11.04-16.88c-1.67-3.96-2.92-12.71-3.96-16.88
		c-0.83-3.75-2.29-12.08-0.42-15.42c1.25-2.29,5.62-7.29,7.71-8.33c5-2.71,15-5.42,20.62-6.25c3.12-0.42,18.12,2.92,21.04,3.75
		c4.79,1.67,16.25,6.25,15.42,3.75c-1.88-5.21-14.58-11.67-16.67-14.58c-1.88-2.5-6.88-7.71-9.17-10.42
		c-1.88-2.29-5.62-7.29-8.54-8.75c-5.21-2.71-17.92-3.12-23.75-3.75c-5.21-0.62-16.88-1.67-21.67,0.62
		c-5.42,2.71-15.83,9.58-18.12,14.58c-1.46,3.12-11.46,5.83-10.62,9.17c1.04,3.33,17.5,14.38,21.46,13.96
		c2.08-0.21,4.38-1.04,6.46-1.25c2.5-0.21,6.25,4.38,7.29,6.46c1.25,2.5,0.62,8.33,0.42,11.04c-0.21,2.5-1.25,7.29-1.25,9.79
		c-0.21,3.12,0.62,9.17,0.83,12.29c0.42,2.71-0.21,10.21-0.62,12.92c-1.04,4.58-1.88,13.96-3.33,17.71
		C242.71,187.08,240,195,240,197.5c0,2.08,1.25,4.38,2.29,6.25c1.46,2.71,11.87,7.29,15.21,8.75c2.92,1.25,14.38-2.08,17.71-4.58
		C276.88,206.04,285.62,202.71,285.62,202.71z"/>
	<path class="st12" d="M282.08,144.79c0.83,5,17.08,0.21,22.5,2.08c3.54,1.04,16.04,6.88,16.04,6.88s11.67-15,7.92-19.17
		c-1.46-1.46-8.54,0.83-8.54,0.83S280.62,136.04,282.08,144.79z"/>
	<path class="st2" d="M259.58,153.75c3.75-4.58,16.25-8.54,22.5-9.58c5.42-1.04,16.25,1.04,21.46,2.29
		c4.58,1.04,13.75,4.58,17.29,7.5c1.25,1.04,2.5,3.33,3.12,4.58c0.62,1.46,1.25,4.17,1.04,5.62c0,1.46-0.42,5-1.88,6.04
		c-1.88,1.67-7.5,1.04-10,1.67c-2.92,0.83-8.12,2.5-11.88,3.12c-2.71,0.42-11.25,0.42-13.96,0.42c-2.5,0-7.5-1.25-10.62-2.08
		c-1.25-0.42-5-1.67-6.46-2.92c-1.46-1.25-4.58-5-6.25-7.29C262.92,162.08,258.75,155.21,259.58,153.75z"/>
	<path class="st4" d="M287.5,204.17l21.25,9.58l14.79,5.21c0,0,5-3.12,4.79-4.79c0-2.5-3.75-2.71-3.75-2.71s-15.42-2.08-18.75-2.5
		C301.04,208.54,287.5,204.17,287.5,204.17z"/>
	<path class="st4" d="M277.29,261.67c-2.29,1.46-5.42,3.96-5.42,6.67c-0.42,3.12,3.33,11.04,3.12,14.37
		c-0.42,3.54-1.46,8.96-2.92,12.08c-1.04,2.08-4.17,9.58-0.42,8.75c8.75-1.67,10.62-5.62,15-8.96c5.21-3.75,22.92-18.75,26.67-23.54
		c5.62-7.08,8.96-12.5,10-21.25c2.08-16.25,13.54-20.83,16.46-43.33c0.83-7.92-16.67,5.63-19.38,12.5
		c-1.67,4.38-6.25,16.04-10.62,18.54c-5.63,3.12-18.75,5.62-25,7.08c-6.67,1.67-20,4.17-26.67,4.58
		c-3.54,0.21-16.04-0.42-13.54,1.67c5,4.58,19.58,3.96,26.04,3.54c9.58-0.42,26.88-6.46,37.29-7.71c2.71-0.42-1.46,7.71-3.33,9.38
		C297.71,261.67,284.58,256.88,277.29,261.67z"/>
	<path class="st4" d="M240.42,237.5c-3.75-2.08,7.5-13.33,12.08-13.12c4.79,0.21,18.54,13.12,11.46,13.33"/>
	<path class="st4" d="M272.5,220c0.21,3.75,7.5,9.58,11.67,10.83c3.96,1.25,16.46-1.25,16.46-1.25l8.54-12.08l-20.83-9.17
		c0,0-7.5,1.67-9.58,2.92C276.25,212.71,272.29,217.29,272.5,220z"/>
</g>
<path class="st2" d="M171.67,104.79c0,0,7.29-3.96,9.17-5c4.17-2.29,13.13-5,17.71-6.04c5.21-1.25,15.62-2.92,20.83-3.75
	c4.58-0.62,13.96-1.67,18.54-2.08c4.58-0.42,13.54-1.46,18.12-1.67c4.58-0.42,13.75-0.83,18.54-0.83c3.96,0,11.88-0.42,15.83,0.21
	c3.54,0.42,10.62,2.5,14.17,3.54c2.92,0.83,14.17,3.96,14.17,3.96s-0.21-15.21-2.71-18.75c-4.79-6.88-19.17-16.67-26.88-19.58
	s-23.75-6.67-32.08-6.46c-12.5,0.42-37.29,6.46-49.37,10.42c-9.79,2.92-40.63,4.17-37.92,13.96c1.25,4.58,16.04-7.29,18.75-3.33
	c2.92,4.58-13.12,9.79-16.46,14.17C168.96,87.71,171.67,104.79,171.67,104.79z"/>
</svg>
