<svg xmlns="http://www.w3.org/2000/svg" width="512" height="512" fill="none"><path fill="#F90" d="M0 0h512v512H0z"/><path fill="#DA420F" d="M84 340h344v160H84z"/><path fill="#1D1D1D" d="m108 400-24-8v16l24-8ZM404 400l24-8v16l-24-8ZM116 432l-32-8v16l32-8ZM396 432l32-8v16l-32-8ZM132 464l-48-8v16l48-8ZM380 464l48-8v16l-48-8ZM125 340h-16l8 24 8-24ZM387 340h16l-8 24-8-24ZM342 340h16l-8 32-8-32ZM170 340h-16l8 32 8-32Z"/><g><animateTransform attributeName="transform" dur="0.4s" keyTimes="0;0.5;1" repeatCount="indefinite" type="translate" values="0 0;0 28;0 0"/><path fill="#F15824" d="M196 176h120v296H196z"/><path fill="#1D1D1D" d="m292 276 24-8v16l-24-8ZM292 244l24-8v16l-24-8ZM220 276l-24-8v16l24-8ZM228 308l-32-8v16l32-8ZM284 308l32-8v16l-32-8ZM220 244l-24-8v16l24-8Z"/><path fill="#DA420F" d="M196 96h120v80H196z"/><path fill="#F15824" d="M250 96h12v36h-12z"><animate attributeName="fill" begin="5s" dur="0.4s" repeatCount="5" values="#F15824; #fff; #F15824"/></path><path fill="#121212" d="M183 96h146v135.5l-13 .5V120l-60 28-60-28v112h-13V96Z"/><path fill="#121212" d="m236 28 40 16-8 64h-24l-8-80Z"/><path stroke="#121212" stroke-width="6" d="M232 76h48"/><path fill="#121212" d="M196 176h120v52l-39 4-21-16-21 16-39-4v-52Z"/><path fill="#D22D27" d="M204 192h104v20H204z"><animate attributeName="fill" dur="8s" keyTimes="0;0.05;0.075;0.1;0.12;0.15;0.5;0.55;1" repeatCount="indefinite" values="#6C0400;#FF0900;#6C0400;#FF0900;#6C0400;#FF0900;#FF0900;#6C0400;#6C0400"/></path><path fill="#fff" d="M216 323h80l-4 17-4 16h-64l-4-16-4-17Z"/><path stroke="#121212" stroke-width="6" d="m220 340 4 16h64l4-16m-72 0-4-17h80l-4 17m-72 0h72"/><g><animateTransform attributeName="transform" dur="4s" keyTimes="0;0.25;0.5;0.75;1" repeatCount="indefinite" type="translate" values="-8 0;16 0;16 0;-8 0;-8 0"/><path fill="#2D2D2D" d="M185 352v-24h-64v24z"/><path stroke="#2D2D2D" stroke-width="6" d="M199.785 364H187.83v-24m11.955-24H187.83v24m0 0H319M118 356v-32"/></g></g></svg>