<?xml version="1.0" encoding="UTF-8"?><svg id="_レイヤー_2" xmlns="http://www.w3.org/2000/svg" viewBox="0 0 833.33 833.33"><defs><style>.cls-1{fill:#f0f0f0;}.cls-2{fill:#ff3856;}.cls-3{fill:#ff3892;}.cls-4{fill:#7f7f8a;}.cls-5{fill:#263687;}</style></defs><g id="_レイヤー_1-2"><rect class="cls-5" width="833.33" height="833.33"/><path class="cls-3" d="m333.33,354.17v-10.83c0-5.52,4.48-10,10-10h31.67v-31.67c0-5.52,4.48-10,10-10h-51.67v41.67h-41.67v20.83h41.67Z"/><polygon class="cls-3" points="333.33 395.83 333.33 375 312.5 375 291.67 375 291.67 395.83 312.5 395.83 333.33 395.83"/><path class="cls-3" d="m375,490v-31.67h-31.67c-5.52,0-10-4.48-10-10v-31.67h-41.67v83.33h93.33c-5.52,0-10-4.48-10-10Z"/><path class="cls-1" d="m573.33,333.33h-31.67v-31.67c0-5.52-4.48-10-10-10h-146.67c-5.52,0-10,4.48-10,10v31.67h-31.67c-5.52,0-10,4.48-10,10v10.83h31.67c5.52,0,10,4.48,10,10v.83c0,5.52-4.48,10-10,10h-31.67v20.83h31.67c5.52,0,10,4.48,10,10v.83c0,5.52-4.48,10-10,10h-31.67v31.67c0,5.52,4.48,10,10,10h31.67v31.67c0,5.52,4.48,10,10,10h156.67v-41.67h31.67c5.52,0,10-4.48,10-10v-105c0-5.52-4.48-10-10-10Zm-31.67,51.67v21.67c0,5.52-4.48,10-10,10h-21.67c-5.52,0-10-4.48-10-10v-21.67c0-5.52,4.48-10,10-10h21.67c5.52,0,10,4.48,10,10Zm-52.08,63.33c0,5.52-4.48,10-10,10h-.83c-5.52,0-10-4.48-10-10v-.83c0-5.52,4.48-10,10-10h.83c5.52,0,10,4.48,10,10v.83Zm-83.75,10c-5.52,0-10-4.48-10-10v-21.67c0-5.52,4.48-10,10-10h10.83v-31.67c0-5.52,4.48-10,10-10h31.67v-31.67c0-5.52,4.48-10,10-10h.83c5.52,0,10,4.48,10,10v21.67c0,5.52-4.48,10-10,10h-10.83v31.67c0,5.52-4.48,10-10,10h-31.67v31.67c0,5.52-4.48,10-10,10h-.83Zm21.25-10v-.83c0-5.52,4.48-10,10-10h.83c5.52,0,10,4.48,10,10v.83c0,5.52-4.48,10-10,10h-.83c-5.52,0-10-4.48-10-10Zm20.83,31.25c0,5.52-4.48,10-10,10h-.83c-5.52,0-10-4.48-10-10v-.83c0-5.52,4.48-10,10-10h.83c5.52,0,10,4.48,10,10v.83Zm41.67,0c0,5.52-4.48,10-10,10h-.83c-5.52,0-10-4.48-10-10v-.83c0-5.52,4.48-10,10-10h.83c5.52,0,10,4.48,10,10v.83Zm41.67,0c0,5.52-4.48,10-10,10h-.83c-5.52,0-10-4.48-10-10v-.83c0-5.52,4.48-10,10-10h.83c5.52,0,10,4.48,10,10v.83Zm-10.83-21.25c-5.52,0-10-4.48-10-10v-.83c0-5.52,4.48-10,10-10h.83c5.52,0,10,4.48,10,10v.83c0,5.52-4.48,10-10,10h-.83Z"/><path class="cls-2" d="m469.17,333.33h-.83c-5.52,0-10,4.48-10,10v31.67h10.83c5.52,0,10-4.48,10-10v-21.67c0-5.52-4.48-10-10-10Z"/><path class="cls-2" d="m458.33,385v-10h-10c5.52,0,10,4.48,10,10Z"/><path class="cls-2" d="m416.67,406.67v10h10c-5.52,0-10-4.48-10-10Z"/><path class="cls-2" d="m395.83,426.67v21.67c0,5.52,4.48,10,10,10h.83c5.52,0,10-4.48,10-10v-31.67h-10.83c-5.52,0-10,4.48-10,10Z"/><rect class="cls-4" x="468.75" y="437.5" width="20.83" height="20.83" rx="10" ry="10"/><rect class="cls-4" x="510.42" y="437.5" width="20.83" height="20.83" rx="10" ry="10"/><rect class="cls-4" x="427.08" y="437.5" width="20.83" height="20.83" rx="10" ry="10"/><rect class="cls-4" x="468.75" y="468.75" width="20.83" height="20.83" rx="10" ry="10"/><rect class="cls-4" x="510.42" y="468.75" width="20.83" height="20.83" rx="10" ry="10"/><rect class="cls-4" x="427.08" y="468.75" width="20.83" height="20.83" rx="10" ry="10"/><path d="m291.67,416.67h73.33c5.52,0,10-4.48,10-10v-.83c0-5.52-4.48-10-10-10h-73.33v-20.83h73.33c5.52,0,10-4.48,10-10v-.83c0-5.52-4.48-10-10-10h-73.33v-20.83h-31.67c-5.52,0-10,4.48-10,10v156.67h41.67v-83.33Z"/><path d="m500,291.67v-31.67c0-5.52-4.48-10-10-10h-146.67c-5.52,0-10,4.48-10,10v31.67h166.67Z"/><path d="m208.33,510v21.67c0,5.52,4.48,10,10,10h21.67c5.52,0,10-4.48,10-10v-31.67h-31.67c-5.52,0-10,4.48-10,10Z"/><path d="m291.67,500v73.33c0,5.52,4.48,10,10,10h21.67c5.52,0,10-4.48,10-10v-31.67h83.33v31.67c0,5.52,4.48,10,10,10h21.67c5.52,0,10-4.48,10-10v-31.67h73.33c5.52,0,10-4.48,10-10v-31.67h-250Z"/><path d="m615,458.33h-73.33v41.67h73.33c5.52,0,10-4.48,10-10v-21.67c0-5.52-4.48-10-10-10Z"/><path d="m333.33,291.67h-31.67c-5.52,0-10,4.48-10,10v31.67h41.67v-41.67Z"/><rect x="500" y="375" width="41.67" height="41.67" rx="10" ry="10"/><path d="m426.67,375c-5.52,0-10,4.48-10,10v21.67c0,5.52,4.48,10,10,10h21.67c5.52,0,10-4.48,10-10v-21.67c0-5.52-4.48-10-10-10h-21.67Z"/></g></svg>