<?xml version="1.0" encoding="utf-8"?>
<!-- Generator: Adobe Illustrator 27.6.1, SVG Export Plug-In . SVG Version: 6.00 Build 0)  -->
<svg version="1.1" id="レイヤー_1" xmlns="http://www.w3.org/2000/svg" xmlns:xlink="http://www.w3.org/1999/xlink" x="0px"
	 y="0px" viewBox="0 0 2000 2000" style="enable-background:new 0 0 2000 2000;" xml:space="preserve">
<style type="text/css">
	.st0{fill:#FFFFFF;}
	.st1{fill-rule:evenodd;clip-rule:evenodd;fill:#231815;}
</style>
<rect x="0" class="st0" width="2000" height="2000"/>
<g>
	<g>
		<path class="st1" d="M1641,1163.6c-18,0.5-36,1.1-54,1.6c-8.2,0.9-17.2,4.5-26.2,2.7c1.4-6,2.8-12,4.1-17.9c0.5,0,1.1-0.1,1.6-0.1
			c-0.2,1.1-0.3,2.2-0.5,3.2c1.9-8.2,6-26.6,6.4-31.4c29.8-4.3,65.6-3.2,86.9-26.7c6-6.6,7.9-15.5,9.6-23.6
			c9.8-47.2-31.7-67.9-78.2-66.2c-5.9-7.5-0.6-62.2-0.7-75.6c-0.4-47.8-8.9-99.8-19.8-144.5c-5.2-21.1-15.7-48.7-27.7-66.9
			c-8.4-16.7-16.8-33.5-25.1-50.2c-34.9-57.9-72.1-108.9-132.6-156.5c-17.5-13.7-39.2-26.3-59.9-40c-8.3-3.9-16.7-7.8-25-11.7
			c-9.7-4.5-19.4-8.9-29.1-13.4c-34.4-8.6-63.1-16.9-94.4-18.7c-17.8-1-41.3,4.4-61.2-3.7c-0.9-14.2-10-24.9-13.7-37.7
			c-7.7-26.8-16.8-53.4-24.6-80.5c-3.7-8.3-7.4-16.6-11.1-24.9c-17.8-5.9-21.2-1.2-34.5-3.8c-18.3,21.6-30.8,52.9-46.9,79
			c-0.6,0.3-1.3,0.5-1.9,0.8c-30.2-15.5-65.5-55.9-94.8-36.9c-3.3,2.9-4.9,8.5-6.1,13.2c3.6,5.6,6.3,12.7,12.7,16.9
			c9.3,4,18.7,8.1,28,12.1c16.5,9.6,33.3,19.8,46.7,29.9c6.4,4.9,19.2,7.5,24.7,6.9c16.4-1.9,40.3-44.3,48.1-64.4
			c0.5,0,1.1-0.1,1.6-0.1c5.4,21.6,12.4,42.8,19.7,63.6c4.1,10.5,8.2,21.1,12.3,31.6c-1.9,7.1-18.6,9.8-25.2,11.8
			c-14.9,4.5-28.1,18.1-39.3,31.1c-10.3,12-11.5,36.5-9.9,47.7c6.4,46.6,28.9,63.9,83.1,83.1c-1.8,11.8-7.7,21.3-7.6,32.2
			c0.5,37,39.2,69.6,89.7,80.3c16.2,3.2,32.4,6.4,48.7,9.5c-12,38,27.1,73.3,56.7,95.9c20,15.3,50.9,27.8,79.3,34.5
			c19,4.5,32.4,13.7,48.9,16.7c15.4,2.8,33.8,17.4,44.3,24.2c35.8,23.1,83,45.1,106.5,73.8c5.5,7.1,1.3,21.8,0.5,31.6
			c-10,5-28.6,2.1-40.2,2.5c-31.8,1.2-92,1.3-117.5,15.1c-0.5,3.2-1,6.4-1.5,9.6c2.1,2.7,4.1,5.3,6.2,8c19.8,6.2,38.6,0,55.2-2.7
			c31.7-1.5,63.4-3,95.1-4.5c5.7,10.9-4.2,48.5-5.4,63.7c-10.7,4.8-38.4,0.1-51.8,0.2c-31.8,0-62.2,3.6-90.3,12
			c-13,3.9-36.2,14.5-40.5,36.1c-10.6,52.8,36,73,87.2,73c20.8-2.3,41.6-4.6,62.4-6.9c-9.9,30-24.3,62.8-40.6,88.6
			c-30.9,2.1-61.8,4.2-92.7,6.3c-19.2,2.9-38.4,5.8-57.7,8.8c-3.6,0.8-4.9,3.4-9.2,3.3c-12.6,18.1-6.1,48.6-1.8,64.4
			c9,1.7,14.8,4.1,23.9,5c13.2-11.7,4-28.2,7.9-44.6c12.9-2.1,25.7-4.2,38.6-6.3c18.7-1,37.4-2.1,56.1-3.1
			c6.2-0.4,12.3-0.8,18.5-1.1c-18,30.9-36,61.7-54,92.6c-9.3,3-18.7,6-28,9c-23.4,8.9-73.4,29.5-98.9,27.3c0.7-28.7,1.4-57.5,2-86.2
			c0.3-11.1,3.9-25.8-1.7-34.4c-6.8-10.3-16.1-10.1-26.9-10.9c-12.9,10.6-5.7,26.5-5.4,38.6c-0.4,33.3-0.9,66.6-1.3,99.8
			c-8.5,4.5-22.4,8.7-32.6,8.7c-5.8-18.8-5.4-54.1-5.8-74.5c-0.2-10,3.2-22-2-29.8c-5.7-8.5-19.9-9.3-27.4-8
			c-9.4,13.9-3.7,74.6-2.2,92.4c0.7,9,4.5,18.6,2.6,28.5c-15.1,2.5-30.3,5-45.4,7.5c-1.6-10.9,0-61.9-3.3-67.2
			c-4.6-7.4-17.7-7.9-24.5-9.2c-21.4,13.9-6,63.3-6.2,83c-14.7,9-34.2,8.7-51.2,12.2c-42.9,8.8-84.1,18.2-131.6,17.2
			c-18.2-0.4-42.4,7.2-61.5-6.9c-0.1-1.1-0.2-2.2-0.3-3.2c0.6-18.1,32.7-29.6,43.1-32.7c14.6-5.6,29.1-11.2,43.7-16.8
			c33-9.7,78.8-20.5,69.8-73.6c-6.7-39.6-63.3-56.6-100.8-51.1c-114.7,18-229.5,36-344.2,54.1c-8.5-5.8-16-58.4-15.6-69.8
			c22.3-12.3,56.6-9.8,82.4-13.6c7.3-2,14.7-4,22-6c15.2-2.4,31.1-0.5,43.6-9c3.9-10.3-3.1-26.3-16.9-28
			c-20.5-2.5-43.3,7.6-62.4,10.8c-23.7,4-47.4,4.8-69.9,10.1c-15.3,3.6-32.5,0.4-39.5,20c2.3,3.5,4.2,6.4,8.9,9.1
			c-13.8,16.9,3.8,56.5,4.8,73.3c0.3,0.6,0.5,1.3,0.8,1.9c-26.7,4.9-55.2,5.9-81.4,9.3c-8.8,1.1-17.6,2.3-26.5,3.4
			c-7.6,5-10.1,15.7-9.6,23.6c6.3,4.3,12.8,11.7,22.9,13.2c15.5,2.4,30.6-5.6,44.3-8.7c14-1.6,28-3.3,42-4.9
			c7.3-0.6,14.5-3.5,23.1-0.8c9.9,18.7,19.9,37.3,29.8,56c24.9,38.9,61.4,72.5,99.9,105.6c23.7,20.4,50.3,37.3,78.7,55.4
			c14.8,6.8,29.5,13.5,44.3,20.3c18.3,11,40,19.5,59.9,24.3c21.2,5.1,36.8,13.8,58.1,17.3c74.1,12,146.1,17.6,207.9-0.3
			c18.2-5.3,36.2-16.6,52.3-26.6c16-7.9,32-15.8,48-23.7c22.7-13.6,44.4-29.6,66.2-45.3c32.5-23.4,67.5-58.7,95.3-89.9
			c16.3-21.6,32.7-43.2,49-64.8c19.2-4.2,38.5-8.5,57.7-12.7c21.6-5,42.3-14.2,63.2-20.6c28-7.2,56-14.4,84-21.6
			c1.1-4.7,1-6.9,4.1-10.1c-1.6-2.6-1.3-3.7-4.7-5.8c-0.2-3.2,0.6-5,2.6-8.4c-15-21.5-35.4-9.9-54.5-4.9
			c-40.1,11.9-80.3,23.9-120.4,35.9c-0.1-9.1,34.4-61.1,41.4-75c-0.4-0.2-0.9-0.4-1.3-0.5c-11.7,20.4-23.3,40.7-35,61.1
			c-0.2-0.1-0.4-0.2-0.7-0.3c12.1-22.8,24.2-45.6,36.4-68.4c0.9-0.2,1.7-0.4,2.6-0.5c-0.7,1.8-1.5,3.6-2.2,5.4
			c0.2,0.1,0.4,0.2,0.7,0.3c1.5-2.3,2.9-4.6,4.4-6.9c54.9-3.2,144.4-3.1,188.5-27.8c12.8-7.2,39.2-18.7,42.4-44.7
			C1735.7,1210.8,1696.9,1168.2,1641,1163.6z M1589.2,1030.5c12.9,1.6,27.8,5.8,42.2,6.1c3.9,2.1,7.7,4.2,11.6,6.3
			c11.6,43.7-38.1,45.6-60.8,51.4c-0.8,0-1.5-0.1-2.3-0.1C1578.6,1081.2,1584.4,1040.2,1589.2,1030.5z M1228.8,687.5
			c-0.4,0.4-0.8,0.7-1.2,1.1c-2.6,7.1-33.1-1.3-42.9-2.5c-42.2-5.3-88.5-31-62.8-73.3c10.9,1.5,21.8,3.1,32.6,4.6
			c30.3,2.9,63.9,11.4,96.5,17.2c15.8,5.4,31.7,10.8,47.6,16.2c14,6.2,27.9,12.4,41.9,18.6c20.1,11.8,36.1,23.5,51.5,37.4
			c27,24.4,52.2,53.1,71.9,81.7c6.3,10.1,12.7,20.3,19,30.5c0.2,0.9,0.4,1.7,0.5,2.6c-8.5-1.9-30-22.8-41.1-30
			c-39.8-25.7-76.1-44.7-116.9-69.4c-25.9-15.7-58.4-25-80.9-30.5C1238.6,690.1,1233.2,691.8,1228.8,687.5z M1491.5,886.6
			c-14.9-8.9-29.9-17.9-44.8-26.8c-63.6-39.3-211.3-50.2-190.4-129.8c6.8,2,13.6,3.9,20.3,5.9c46,19.3,83.1,40.1,118.2,64.4
			c15.5,8.9,31,17.8,46.4,26.7c30.6,23.7,53.4,58.8,81.9,80.3c0.2,0.9,0.4,1.7,0.5,2.6C1513,902,1502.2,894.3,1491.5,886.6z
			 M1543,844.7c-4.4-4.2-4.1-9.2-7-13.8c-11.8-18.6-21.6-38.1-33.5-56.7c-28.1-44-70.4-88.2-117.2-122.8c-14.8-11-36.9-16-52.5-25.2
			c-14.3-8.5-33.9-15.4-48.1-18.7c-10.6-3.5-21.2-7-31.8-10.5c-36.2-7.1-73.8-15.6-108.4-18.9c-35.5-3.4-84.3-13.9-101.3-44.2
			c-12.6-22.5,13.5-54.7,30.7-62.1c39.5-16.8,85-9.7,134.7-3.4c14.1,3.9,28.2,7.8,42.3,11.7c129.2,52.4,184.1,130.2,235.2,214.6
			c25.2,41.6,53.2,99.5,57,149.4C1543.2,844.3,1543.1,844.5,1543,844.7z M1204.9,1616.4c-17.5,9.1-35.1,18.2-52.6,27.3
			c-21.2,12.2-42.6,24.5-66.4,30.3c-57.4,14.1-126.1,8.1-194.4-5.9c-113.7-23.4-225.3-106.3-274.8-171.1
			c-11.1-14.5-44.2-50.8-43.1-67.7c8.3,0.7,16.3-3.2,23.8-4.5c22.2-3.9,44.3-7.6,65.9-11.7c64.9-9.2,129.8-18.4,194.7-27.7
			c21.3-2.4,81.4-20.1,105.9-0.2c4.1,3.3,3.4,7.2,3.6,12.4c0.8,20.9-17.6,25.6-31.5,31.2c-34,13.6-78.8,17.9-107.5,42.7
			c-20,17.2-23.1,47.3-11.9,64.2c24,36,103.9,28.3,136.3,25.5c103.2-9,199.7-38,298.2-58.6c23.5-4.9,46.1-9.4,68.6-14.5
			c10.9-2.5,22.8-2.3,32.7-7.1c0.7,0.3,1.3,0.5,2,0.8C1306,1534.7,1259.8,1580,1204.9,1616.4z M1449.2,1410.4
			c-0.2-0.1-0.4-0.2-0.7-0.3c0.7-1,1.4-2.1,2-3.1c0.2,0.1,0.4,0.2,0.7,0.3c0,0.5,0.1,1.1,0.1,1.6
			C1450.6,1409.4,1449.9,1409.9,1449.2,1410.4z M1455,1401.8c-0.5,0-1.1,0.1-1.6,0.1c0.9-1.5,1.7-3,2.6-4.4
			C1455.7,1398.9,1455.4,1400.4,1455,1401.8z M1426.7,1185.7c-9.9-0.8-35.6-3.3-37.6-13.7c-4.4-22.7,12.6-37.1,29.6-42.1
			c25.6-7.5,57.6-10.5,86.3-9.7c9.6,0.2,19.2,0.5,28.7,0.7c0.9,0.4,1.8,0.7,2.7,1.1c-5.3,18.2-10.6,36.5-15.9,54.7
			C1489.5,1175.8,1460.1,1188.4,1426.7,1185.7z M1670.8,1268.2c-9.1,5.2-20.8,5.9-30.9,8.6c-12.2,3.3-25.3,8.1-38,10.5
			c-17,0.7-34,1.4-51,2c-12.7,1.1-25.5,2.2-38.2,3.3c-0.2-0.1-0.4-0.2-0.7-0.3c3.1-6.3,6.2-12.7,9.3-19
			c9.9-24.5,19.8-48.9,29.8-73.4c20.7-2.6,41.3-5.2,62-7.8c8.8,0.2,17.6,0.4,26.4,0.5c8.8,2.2,17.5,4.5,26.3,6.7
			C1708.4,1215.8,1702.1,1250.3,1670.8,1268.2z M1565.8,1155.8c0.1-0.9,0.3-1.8,0.4-2.7c-0.6,2.5-0.9,4.1-0.9,4.1
			C1565.4,1156.7,1565.6,1156.3,1565.8,1155.8z M648.6,1222.9c15.4-3.6,32.3-7.2,48.1-10.3c7-0.6,14-1.1,21.1-1.7
			c6.1-1.7,19.8-6.6,25.9-5.9c7.3,0.8,4.7,17.1,5.3,21.7c2.1,15.4,0.2,45.8,13.2,56.3c0.5,1.3,1.1,2.5,1.6,3.8
			c1.1-2.1,0.7-1.3,0.7-3.6c3.6,1.5,7.2,2.9,10.8,4.4c6.2,0.6,12.3-6.5,17.2-9.5c6.5-27-6.2-51.5-5.7-76.8c-0.3-0.6-0.5-1.3-0.8-1.9
			c7.7-4.6,18-3.3,27-4.7c17.5-2.8,68.5-15,84.9-10.3c5.8,13.9,1,32.4,8.1,45.6c16.2,30.2,70.6,49.2,93.1,19.7
			c30.6-40-4.7-79.8,22-110.3c2.4-0.8,4.9-1.7,7.3-2.5c15.1,7.5,11.1,45.8,11,61.7c-0.2,40.4,2.4,127.6,66.3,130.4
			c37.8,1.6,72.4-35,77.6-83c5.6-51.6-9.7-91.1-15.3-136.4c-2-16.4-2.6-41.6-12.4-54.4c-6.8-8.9-17.1-6.2-28.6-10.8
			c-14.6,18.7-0.9,42.8,3.5,61c10.1,42,39.1,156.4-21.2,191.4c-25.3-10.4-24.6-32.7-26.3-53c-3-34.2,4-100.6-21.4-123.2
			c-26.8-23.8-77.1-16.6-85,18.1c-5.5,24,2.1,46-0.5,68.8c-1.1,9.5-8.3,20.9-12.5,27.1c-19.5,2.4-22.6-19.2-24.5-30.3
			c-4.5-25.5-7.2-54.1-8-80.9c0-7.8,0.1-15.7,0.1-23.5c-2.9-16.6-27.4-12.2-34.7-5.4c-5.5,6.4-1.1,46.4-0.5,55.5
			c-4,6.6-28.7,8.5-36.3,6.4c-2.7-18.7-6.9-37.3-11.5-54.8c-19.1-8.4-23.8-5.4-35.2,3.7c1.2,16.6-0.4,41.1,6.3,55.9
			c0,0.8-0.1,1.5-0.1,2.3c-13,1.8-26,3.6-39,5.3c-8.3-15.6-6.5-59.3-8.5-79.5c-1.1-11.2-6-20.7-8.6-30.9c-16.7-7.5-26.7-6.2-35,7
			c5.2,22.4,3.3,46.2,6.8,70.2c1.7,11.4,6.3,26.2,4,38.5c-7.6,4.3-25.9,7.8-35.4,6c1.1-16.5-8.5-69-40.6-52.5
			c-14.6,7.5-2,44.8-1.5,55.9c0.5,1.3,1.1,2.5,1.6,3.8c-14.4,2.5-28.7,5.1-43.1,7.6c-1.3-16.2-2.3-37.1-11.8-50.3
			c-11.8-4.3-19.8-2.9-27.9,1.2c-10.7,17.5,1.3,36.7-0.9,54.5c-10,5.2-30.2,8-42.1,7.2c-14-21.1-29.4-72.2-4.5-103
			c18.9-23.3,54.2-39.9,77.6-57.9c15.1-11.7,32.2-42.1,44.3-58.9c28.5-39.7,31.5-99.7,34.5-137.3c3.4-42.2,17.3-88.5,35.9-132.9
			c0.2,0.1,0.4,0.2,0.7,0.3c3.1,12.2,6.3,24.5,9.4,36.7c2.6,4.4,3.6,13,8.4,16c13.3,8.1,35.4-0.9,34.8-18c-2.3-7.7-4.7-15.5-7-23.2
			c-4.2-18.8-7.9-43-17.4-59.6c13.4-35.4,46.8-59.4,72.1-73.5c16.5-9.2,42.1-6.1,50.9-28.8c-1.1-1.8-2.2-3.5-3.3-5.3
			c-10.9-10.3-30.2,0.8-38.9,3.1c-26.3,7-78.3,30.9-92.2,63c-0.3,0.1-0.6,0.3-0.9,0.4c-0.4-0.2-0.9-0.4-1.3-0.5
			c-19.7-40.4-27.3-86.5-38.9-130.3c-4.1-15.6-15.6-36.9-13.4-54c28,14.1,92.9,69.6,119.7,43.1c2.4-11.1,4.8-22.1,7.2-33.2
			c4.8-24.8,12.7-50.7,22.2-74.1c0.5,0,1.1-0.1,1.6-0.1c4.9,18.7,14.6,36,24,52.9c8.2,19.8,16.4,39.6,24.5,59.4
			c15.3,27.6,30.9,64.6,40,94.6c7.4,24.5,18.4,48.1,25.6,72.3c2.3,7.9,3.1,18.4,8.8,24.7c7,6.8,18.9,5.5,25.9,5.8
			c20.2,0.7,54.3,5.8,44.9-25.7c-11.7-8.2-23.2-7-37.5-8.1c-10-18.5-16-40.2-21.7-60.6c-6.4-22.5-17.4-43.6-24.1-66.2
			c-16-36.6-32-73.1-48-109.7c-4.1-7.4-8.1-14.8-12.2-22.2c-6-17.2-25.7-83.8-42.1-91.6c-10.6,0.7-21-1.7-28.9,5.5
			c-2.4,7.1-4.7,14.3-7.1,21.4c-8.1,22.6-16.2,45.2-24.3,67.8c-3.1,14-4.9,38.6-13.9,51.6c-38.6-10.5-80.7-62.7-122.4-52
			c-3.1,2.4-6.1,4.8-9.2,7.2c-4.4,20.3,6.8,36.8,10.1,54.3c6.8,35,18.1,67.2,25.6,101.3c3.5,15.9,5.6,31.2,10.2,46.5
			c4.6,15.1,25.4,43.9,23.9,59.1c-6.1,12.4-12.2,24.9-18.3,37.3c-6.9,28.1-19.2,53.4-24.7,80.2c-13.8,67.6-9,147.5-60.7,215.3
			c-32.3,42.5-72.1,53.6-103.4,90.6c-23.1,27.2-17.6,105-4,119.9c0.3,1.2,0.6,2.3,0.9,3.5c-16.4,3-32.8,6-49.2,9.1
			c-21.8,4-42.5,12.1-63.5,17.4c-12.2,3-31,5.1-39.5,16.1c-5.2,6.3-1.1,17.6,3.7,21.9c7.9,7.6,21.5,5.8,28,4.3
			c23.8-5.5,46.4-18.6,70.8-23.8C516.8,1245.5,583,1238.2,648.6,1222.9z M1093.6,779.3c-7.8-2.6-15.6-5.3-23.4-7.9
			c-24.5-4.3-49.8-12.3-73.1-13.2c-87.3-3.3-199.1,62.7-236.5,159.7c19.9,42.2,98.6,71.5,152.4,80.6c14.4,2.5,28.9,4.9,43.3,7.4
			c74.6-0.5,162.3-32.4,219-75.9c15.3-11.7,26.8-28.5,40.2-44.9C1199.8,838.9,1159.1,804.6,1093.6,779.3z M891.4,956.8
			c-0.1,0.2-0.2,0.4-0.3,0.7c-17.9-4.7-38.9-10-55.8-21c-10.4-7.3-20.7-14.7-31.1-22c0.1-8,13.3-23.5,18.5-30.1
			c24.4-30.8,48.3-46.6,77.1-64.4c-7.2,18.5-14.5,37-21.7,55.5C874.3,907.7,878.4,931.8,891.4,956.8z M1095.7,930.7
			c-3.7,1.4-7.4,2.8-11.1,4.1c-0.2-0.1-0.4-0.2-0.7-0.3c28-39.8,17.4-106.2-16-124.9c0-0.5-0.1-1.1-0.1-1.6
			c4.8,1.1,9.5,2.3,14.3,3.4c30,12.2,69,29.2,81.1,49.4c3.5,5.8-1.2,11.4,4.9,16.9C1152.7,908.8,1116.4,911.7,1095.7,930.7z
			 M1320.1,990.3c10.9-13.6,5.7-29.3-10.6-35.7c-4.5,0.2-9.1,0.5-13.6,0.7C1268.7,975,1296.2,997.5,1320.1,990.3z M1537.3,1058
			c-0.4,0.4-0.8,0.7-1.2,1.1c0.4,0.4,0.7,0.8,1.1,1.2c0.3-0.1,0.6-0.3,0.9-0.4C1537.8,1059.3,1537.5,1058.6,1537.3,1058z
			 M1282.8,1034c4.3-13.3-2-21.4-13.9-27.6c-7.9,2.1-25.6-0.4-25.6,14.7C1242.4,1041,1271.7,1044.7,1282.8,1034z M1186.7,1060.1
			c-0.6,4.4-1,7.6,1.2,10.7c11.1,15.8,36.5,15.4,43.2-2.1c-2-5.2-0.3-12.8-4-17.3c-1.9-3.6-7.6-6.5-13-8.4
			C1201.8,1044.3,1188.8,1043.2,1186.7,1060.1z M1538.8,1235.8c0.2,0.1,0.4,0.2,0.7,0.3c0.2,0.1,0.4,0.2,0.7,0.3
			c1.1-3,1.4-3.3,0.6-5.3C1540.1,1232.7,1539.5,1234.3,1538.8,1235.8z M1524.2,1269.9c0.2,0.1,0.4,0.2,0.7,0.3
			c0.2,0.1,0.4,0.2,0.7,0.3c1.7-3.2,9.2-15.1,7.2-19.8C1530,1257.1,1527.1,1263.5,1524.2,1269.9z M1514.8,1291.2
			c2.7-2.2,6.9-10.3,6.7-14.5c-2.9,2.9-5.3,8.8-7.4,14.3C1514.4,1291,1514.6,1291.1,1514.8,1291.2z M996.1,1443.1
			c0.5-0.6,1-1.2,1.5-1.7c-0.7-0.3-1.3-0.5-2-0.8c-0.4,0.4-0.8,0.7-1.2,1.1C994.9,1442.1,995.5,1442.6,996.1,1443.1z"/>
	</g>
</g>
</svg>
