<svg height="320" shape-rendering="crispEdges" viewBox="0 0 320 320" width="320" xmlns="http://www.w3.org/2000/svg"><rect fill="#e1d7d5" height="100%" width="100%"/><path d="m90 210h140v10h-140z" fill="#343235"/><path d="m90 220h140v10h-140z" fill="#343235"/><path d="m90 230h140v10h-140z" fill="#343235"/><path d="m90 240h140v10h-140z" fill="#343235"/><path d="m90 250h20v10h-20z" fill="#343235"/><path d="m120 250h110v10h-110z" fill="#343235"/><path d="m90 260h20v10h-20z" fill="#343235"/><path d="m120 260h110v10h-110z" fill="#343235"/><path d="m90 270h20v10h-20z" fill="#343235"/><path d="m120 270h110v10h-110z" fill="#343235"/><path d="m90 280h20v10h-20z" fill="#343235"/><path d="m120 280h110v10h-110z" fill="#343235"/><path d="m90 290h20v10h-20z" fill="#343235"/><path d="m120 290h110v10h-110z" fill="#343235"/><path d="m90 300h20v10h-20z" fill="#343235"/><path d="m120 300h110v10h-110z" fill="#343235"/><path d="m90 310h20v10h-20z" fill="#343235"/><path d="m120 310h110v10h-110z" fill="#343235"/><path d="m130 230h20v10h-20z" fill="#ffef16"/><path d="m130 240h20v10h-20z" fill="#ffef16"/><path d="m130 250h10v10h-10z" fill="#ffef16"/><path d="m150 250h20v10h-20z" fill="#ffef16"/><path d="m150 260h20v10h-20z" fill="#ffef16"/><path d="m170 270h20v10h-20z" fill="#ffef16"/><path d="m170 280h20v10h-20z" fill="#ffef16"/><path d="m170 290h10v10h-10z" fill="#ffef16"/><path d="m150 10h20v10h-20z" fill="#343235"/><path d="m150 20h20v10h-20z" fill="#343235"/><path d="m120 30h80v10h-80z" fill="#343235"/><path d="m100 40h120v10h-120z" fill="#343235"/><path d="m90 50h140v10h-140z" fill="#343235"/><path d="m80 60h160v10h-160z" fill="#62616d"/><path d="m80 70h80v10h-80z" fill="#62616d"/><path d="m160 70h10v10h-10z" fill="#fffdf2"/><path d="m170 70h10v10h-10z" fill="#62616d"/><path d="m180 70h30v10h-30z" fill="#fffdf2"/><path d="m210 70h30v10h-30z" fill="#62616d"/><path d="m80 80h160v10h-160z" fill="#62616d"/><g fill="#2b83f6"><path d="m90 90h140v10h-140z"/><path d="m90 100h140v10h-140z"/><path d="m80 110h160v10h-160z"/><path d="m80 120h160v10h-160z"/><path d="m80 130h160v10h-160z"/><path d="m70 140h180v10h-180z"/><path d="m70 150h180v10h-180z"/><path d="m70 160h180v10h-180z"/><path d="m60 170h200v10h-200z"/><path d="m60 180h200v10h-200z"/><path d="m60 190h200v10h-200z"/><path d="m50 200h220v10h-220z"/><path d="m50 210h10v10h-10z"/><path d="m70 210h10v10h-10z"/><path d="m240 210h10v10h-10z"/><path d="m260 210h10v10h-10z"/><path d="m50 220h40v10h-40z"/><path d="m230 220h40v10h-40z"/><path d="m40 230h10v10h-10z"/><path d="m60 230h10v10h-10z"/><path d="m80 230h10v10h-10z"/><path d="m230 230h10v10h-10z"/><path d="m250 230h10v10h-10z"/><path d="m270 230h10v10h-10z"/><path d="m50 250h10v10h-10z"/><path d="m70 250h10v10h-10z"/><path d="m240 250h10v10h-10z"/><path d="m260 250h10v10h-10z"/></g><path d="m100 110h60v10h-60z" fill="#9cb4b8"/><path d="m170 110h60v10h-60z" fill="#9cb4b8"/><path d="m100 120h10v10h-10z" fill="#9cb4b8"/><path d="m110 120h20v10h-20z" fill="#fff"/><path d="m130 120h20v10h-20z"/><path d="m150 120h10v10h-10z" fill="#9cb4b8"/><path d="m170 120h10v10h-10z" fill="#9cb4b8"/><path d="m180 120h20v10h-20z" fill="#fff"/><path d="m200 120h20v10h-20z"/><path d="m220 120h10v10h-10z" fill="#9cb4b8"/><path d="m70 130h40v10h-40z" fill="#9cb4b8"/><path d="m110 130h20v10h-20z" fill="#fff"/><path d="m130 130h20v10h-20z"/><path d="m150 130h30v10h-30z" fill="#9cb4b8"/><path d="m180 130h20v10h-20z" fill="#fff"/><path d="m200 130h20v10h-20z"/><path d="m220 130h10v10h-10z" fill="#9cb4b8"/><path d="m70 140h10v10h-10z" fill="#9cb4b8"/><path d="m100 140h10v10h-10z" fill="#9cb4b8"/><path d="m110 140h20v10h-20z" fill="#fff"/><path d="m130 140h20v10h-20z"/><path d="m150 140h10v10h-10z" fill="#9cb4b8"/><path d="m170 140h10v10h-10z" fill="#9cb4b8"/><path d="m180 140h20v10h-20z" fill="#fff"/><path d="m200 140h20v10h-20z"/><path d="m220 140h10v10h-10z" fill="#9cb4b8"/><path d="m70 150h10v10h-10z" fill="#9cb4b8"/><path d="m100 150h10v10h-10z" fill="#9cb4b8"/><path d="m110 150h20v10h-20z" fill="#fff"/><path d="m130 150h20v10h-20z"/><path d="m150 150h10v10h-10z" fill="#9cb4b8"/><path d="m170 150h10v10h-10z" fill="#9cb4b8"/><path d="m180 150h20v10h-20z" fill="#fff"/><path d="m200 150h20v10h-20z"/><path d="m220 150h10v10h-10z" fill="#9cb4b8"/><path d="m100 160h60v10h-60z" fill="#9cb4b8"/><path d="m170 160h60v10h-60z" fill="#9cb4b8"/></svg>