<svg height="320" shape-rendering="crispEdges" viewBox="0 0 320 320" width="320" xmlns="http://www.w3.org/2000/svg"><rect fill="#e1d7d5" height="100%" width="100%"/><g fill="#34ac80"><path d="m90 210h140v10h-140z"/><path d="m90 220h140v10h-140z"/><path d="m90 230h140v10h-140z"/><path d="m90 240h140v10h-140z"/><path d="m90 250h20v10h-20z"/><path d="m120 250h110v10h-110z"/><path d="m90 260h20v10h-20z"/><path d="m120 260h110v10h-110z"/><path d="m90 270h20v10h-20z"/><path d="m120 270h110v10h-110z"/><path d="m90 280h20v10h-20z"/><path d="m120 280h110v10h-110z"/><path d="m90 290h20v10h-20z"/><path d="m120 290h110v10h-110z"/><path d="m90 300h20v10h-20z"/><path d="m120 300h110v10h-110z"/><path d="m90 310h20v10h-20z"/><path d="m120 310h110v10h-110z"/></g><path d="m140 230h10v10h-10z" fill="#fff"/><path d="m180 230h10v10h-10z" fill="#fff"/><path d="m130 240h20v10h-20z" fill="#fff"/><path d="m160 240h10v10h-10z" fill="#fff"/><path d="m180 240h20v10h-20z" fill="#fff"/><path d="m150 250h30v10h-30z" fill="#fff"/><path d="m140 260h50v10h-50z" fill="#fff"/><path d="m150 270h30v10h-30z" fill="#fff"/><path d="m130 280h20v10h-20z" fill="#fff"/><path d="m160 280h10v10h-10z" fill="#fff"/><path d="m180 280h20v10h-20z" fill="#fff"/><path d="m140 290h10v10h-10z" fill="#fff"/><path d="m180 290h10v10h-10z" fill="#fff"/><path d="m240 40h10v10h-10z" fill="#b92b3c"/><path d="m60 50h180v10h-180z" fill="#5d6061"/><path d="m240 50h10v10h-10z" fill="#b92b3c"/><path d="m250 50h10v10h-10z" fill="#5d6061"/><path d="m50 60h20v10h-20z" fill="#b92b3c"/><path d="m70 60h10v10h-10z" fill="#5d6061"/><path d="m80 60h10v10h-10z" fill="#e2c8c0"/><path d="m90 60h10v10h-10z" fill="#d18687"/><path d="m100 60h10v10h-10z" fill="#5d6061"/><path d="m110 60h10v10h-10z" fill="#d18687"/><path d="m120 60h10v10h-10z" fill="#e2c8c0"/><path d="m130 60h10v10h-10z" fill="#5d6061"/><path d="m140 60h20v10h-20z" fill="#d18687"/><path d="m160 60h10v10h-10z" fill="#5d6061"/><path d="m170 60h10v10h-10z" fill="#e2c8c0"/><path d="m180 60h10v10h-10z" fill="#d18687"/><path d="m190 60h10v10h-10z" fill="#5d6061"/><path d="m200 60h10v10h-10z" fill="#e2c8c0"/><path d="m210 60h10v10h-10z" fill="#d18687"/><path d="m220 60h10v10h-10z" fill="#5d6061"/><path d="m230 60h10v10h-10z" fill="#d18687"/><path d="m240 60h10v10h-10z" fill="#b92b3c"/><path d="m250 60h10v10h-10z" fill="#5d6061"/><path d="m40 70h10v10h-10z" fill="#b92b3c"/><path d="m50 70h10v10h-10z" fill="#962236"/><path d="m60 70h20v10h-20z" fill="#5d6061"/><path d="m80 70h20v10h-20z" fill="#d18687"/><path d="m100 70h10v10h-10z" fill="#5d6061"/><path d="m110 70h20v10h-20z" fill="#d18687"/><path d="m130 70h10v10h-10z" fill="#5d6061"/><path d="m140 70h10v10h-10z" fill="#e2c8c0"/><path d="m150 70h10v10h-10z" fill="#d18687"/><path d="m160 70h10v10h-10z" fill="#5d6061"/><path d="m170 70h20v10h-20z" fill="#d18687"/><path d="m190 70h10v10h-10z" fill="#5d6061"/><path d="m200 70h20v10h-20z" fill="#d18687"/><path d="m220 70h10v10h-10z" fill="#5d6061"/><path d="m230 70h10v10h-10z" fill="#d18687"/><path d="m240 70h10v10h-10z" fill="#e2c8c0"/><path d="m250 70h20v10h-20z" fill="#b92b3c"/><path d="m40 80h10v10h-10z" fill="#b92b3c"/><path d="m50 80h10v10h-10z" fill="#962236"/><path d="m60 80h200v10h-200z" fill="#5d6061"/><path d="m260 80h10v10h-10z" fill="#b92b3c"/><path d="m40 90h10v10h-10z" fill="#b92b3c"/><path d="m60 90h20v10h-20z" fill="#5d6061"/><path d="m80 90h10v10h-10z" fill="#d18687"/><path d="m90 90h10v10h-10z" fill="#e2c8c0"/><path d="m100 90h10v10h-10z" fill="#5d6061"/><path d="m110 90h20v10h-20z" fill="#d18687"/><path d="m130 90h10v10h-10z" fill="#5d6061"/><path d="m140 90h10v10h-10z" fill="#d18687"/><path d="m150 90h10v10h-10z" fill="#e2c8c0"/><path d="m160 90h10v10h-10z" fill="#5d6061"/><path d="m170 90h10v10h-10z" fill="#d18687"/><path d="m180 90h10v10h-10z" fill="#e2c8c0"/><path d="m190 90h10v10h-10z" fill="#5d6061"/><path d="m200 90h20v10h-20z" fill="#d18687"/><path d="m220 90h10v10h-10z" fill="#5d6061"/><path d="m230 90h20v10h-20z" fill="#d18687"/><path d="m250 90h10v10h-10z" fill="#5d6061"/><path d="m260 90h10v10h-10z" fill="#b92b3c"/><path d="m40 100h10v10h-10z" fill="#b92b3c"/><path d="m60 100h20v10h-20z" fill="#b92b3c"/><path d="m80 100h20v10h-20z" fill="#d18687"/><path d="m100 100h10v10h-10z" fill="#5d6061"/><path d="m110 100h10v10h-10z" fill="#e2c8c0"/><path d="m120 100h10v10h-10z" fill="#d18687"/><path d="m130 100h10v10h-10z" fill="#5d6061"/><path d="m140 100h20v10h-20z" fill="#d18687"/><path d="m160 100h10v10h-10z" fill="#5d6061"/><path d="m170 100h20v10h-20z" fill="#d18687"/><path d="m190 100h10v10h-10z" fill="#5d6061"/><path d="m200 100h10v10h-10z" fill="#e2c8c0"/><path d="m210 100h10v10h-10z" fill="#d18687"/><path d="m220 100h10v10h-10z" fill="#5d6061"/><path d="m230 100h10v10h-10z" fill="#e2c8c0"/><path d="m240 100h10v10h-10z" fill="#d18687"/><path d="m250 100h10v10h-10z" fill="#5d6061"/><path d="m260 100h10v10h-10z" fill="#b92b3c"/><path d="m30 110h20v10h-20z" fill="#b92b3c"/><path d="m50 110h10v10h-10z" fill="#962236"/><path d="m60 110h10v10h-10z" fill="#5d6061"/><path d="m70 110h10v10h-10z" fill="#b92b3c"/><path d="m80 110h180v10h-180z" fill="#5d6061"/><path d="m260 110h10v10h-10z" fill="#b92b3c"/><path d="m270 110h10v10h-10z" fill="#962236"/><path d="m30 120h30v10h-30z" fill="#b92b3c"/><path d="m60 120h10v10h-10z" fill="#5d6061"/><path d="m70 120h10v10h-10z" fill="#b92b3c"/><path d="m80 120h10v10h-10z" fill="#d18687"/><path d="m90 120h10v10h-10z" fill="#e2c8c0"/><path d="m100 120h10v10h-10z" fill="#5d6061"/><path d="m110 120h20v10h-20z" fill="#d18687"/><path d="m130 120h10v10h-10z" fill="#5d6061"/><path d="m140 120h10v10h-10z" fill="#e2c8c0"/><path d="m150 120h10v10h-10z" fill="#d18687"/><path d="m160 120h10v10h-10z" fill="#5d6061"/><path d="m170 120h10v10h-10z" fill="#d18687"/><path d="m180 120h10v10h-10z" fill="#e2c8c0"/><path d="m190 120h10v10h-10z" fill="#5d6061"/><path d="m200 120h20v10h-20z" fill="#d18687"/><path d="m220 120h10v10h-10z" fill="#5d6061"/><path d="m230 120h10v10h-10z" fill="#d18687"/><path d="m240 120h10v10h-10z" fill="#e2c8c0"/><path d="m250 120h10v10h-10z" fill="#5d6061"/><path d="m260 120h10v10h-10z" fill="#b92b3c"/><path d="m280 120h10v10h-10z" fill="#b92b3c"/><path d="m30 130h10v10h-10z" fill="#b92b3c"/><path d="m50 130h10v10h-10z" fill="#b92b3c"/><path d="m60 130h10v10h-10z" fill="#5d6061"/><path d="m70 130h10v10h-10z" fill="#b92b3c"/><path d="m80 130h20v10h-20z" fill="#d18687"/><path d="m100 130h10v10h-10z" fill="#5d6061"/><path d="m110 130h10v10h-10z" fill="#e2c8c0"/><path d="m120 130h10v10h-10z" fill="#d18687"/><path d="m130 130h10v10h-10z" fill="#5d6061"/><path d="m140 130h20v10h-20z" fill="#d18687"/><path d="m160 130h10v10h-10z" fill="#5d6061"/><path d="m170 130h20v10h-20z" fill="#d18687"/><path d="m190 130h10v10h-10z" fill="#5d6061"/><path d="m200 130h10v10h-10z" fill="#d18687"/><path d="m210 130h10v10h-10z" fill="#e2c8c0"/><path d="m220 130h10v10h-10z" fill="#5d6061"/><path d="m230 130h20v10h-20z" fill="#d18687"/><path d="m250 130h10v10h-10z" fill="#5d6061"/><path d="m260 130h10v10h-10z" fill="#b92b3c"/><path d="m280 130h10v10h-10z" fill="#b92b3c"/><path d="m30 140h10v10h-10z" fill="#b92b3c"/><path d="m50 140h10v10h-10z" fill="#b92b3c"/><path d="m60 140h10v10h-10z" fill="#5d6061"/><path d="m70 140h10v10h-10z" fill="#b92b3c"/><path d="m80 140h180v10h-180z" fill="#5d6061"/><path d="m260 140h10v10h-10z" fill="#b92b3c"/><path d="m280 140h10v10h-10z" fill="#b92b3c"/><path d="m30 150h10v10h-10z" fill="#b92b3c"/><path d="m50 150h10v10h-10z" fill="#b92b3c"/><path d="m60 150h10v10h-10z" fill="#5d6061"/><path d="m70 150h10v10h-10z" fill="#b92b3c"/><path d="m80 150h10v10h-10z" fill="#d18687"/><path d="m90 150h10v10h-10z" fill="#e2c8c0"/><path d="m100 150h10v10h-10z" fill="#5d6061"/><path d="m110 150h20v10h-20z" fill="#d18687"/><path d="m130 150h10v10h-10z" fill="#5d6061"/><path d="m140 150h20v10h-20z" fill="#d18687"/><path d="m160 150h10v10h-10z" fill="#5d6061"/><path d="m170 150h20v10h-20z" fill="#d18687"/><path d="m190 150h10v10h-10z" fill="#5d6061"/><path d="m200 150h10v10h-10z" fill="#e2c8c0"/><path d="m210 150h10v10h-10z" fill="#d18687"/><path d="m220 150h10v10h-10z" fill="#5d6061"/><path d="m230 150h20v10h-20z" fill="#d18687"/><path d="m250 150h10v10h-10z" fill="#5d6061"/><path d="m260 150h10v10h-10z" fill="#b92b3c"/><path d="m280 150h10v10h-10z" fill="#b92b3c"/><path d="m30 160h10v10h-10z" fill="#b92b3c"/><path d="m50 160h30v10h-30z" fill="#b92b3c"/><path d="m80 160h20v10h-20z" fill="#d18687"/><path d="m100 160h10v10h-10z" fill="#5d6061"/><path d="m110 160h10v10h-10z" fill="#d18687"/><path d="m120 160h10v10h-10z" fill="#e2c8c0"/><path d="m130 160h10v10h-10z" fill="#5d6061"/><path d="m140 160h10v10h-10z" fill="#d18687"/><path d="m150 160h10v10h-10z" fill="#e2c8c0"/><path d="m160 160h10v10h-10z" fill="#5d6061"/><path d="m170 160h10v10h-10z" fill="#d18687"/><path d="m180 160h10v10h-10z" fill="#e2c8c0"/><path d="m190 160h10v10h-10z" fill="#5d6061"/><path d="m200 160h20v10h-20z" fill="#d18687"/><path d="m220 160h10v10h-10z" fill="#5d6061"/><path d="m230 160h10v10h-10z" fill="#e2c8c0"/><path d="m240 160h10v10h-10z" fill="#d18687"/><path d="m250 160h10v10h-10z" fill="#5d6061"/><path d="m260 160h10v10h-10z" fill="#b92b3c"/><path d="m280 160h10v10h-10z" fill="#b92b3c"/><path d="m30 170h10v10h-10z" fill="#b92b3c"/><path d="m50 170h10v10h-10z" fill="#b92b3c"/><path d="m60 170h200v10h-200z" fill="#5d6061"/><path d="m260 170h10v10h-10z" fill="#b92b3c"/><path d="m280 170h10v10h-10z" fill="#b92b3c"/><path d="m30 180h10v10h-10z" fill="#b92b3c"/><path d="m50 180h10v10h-10z" fill="#b92b3c"/><path d="m60 180h20v10h-20z" fill="#5d6061"/><path d="m80 180h20v10h-20z" fill="#fff"/><path d="m100 180h10v10h-10z" fill="#5d6061"/><path d="m110 180h20v10h-20z" fill="#fff"/><path d="m130 180h10v10h-10z" fill="#5d6061"/><path d="m140 180h20v10h-20z" fill="#fff"/><path d="m160 180h10v10h-10z" fill="#5d6061"/><path d="m170 180h20v10h-20z" fill="#fff"/><path d="m190 180h10v10h-10z" fill="#5d6061"/><path d="m200 180h20v10h-20z" fill="#fff"/><path d="m220 180h10v10h-10z" fill="#5d6061"/><path d="m230 180h20v10h-20z" fill="#fff"/><path d="m250 180h10v10h-10z" fill="#5d6061"/><path d="m280 180h10v10h-10z" fill="#b92b3c"/><path d="m30 190h10v10h-10z" fill="#b92b3c"/><path d="m50 190h10v10h-10z" fill="#b92b3c"/><path d="m60 190h20v10h-20z" fill="#5d6061"/><path d="m80 190h20v10h-20z" fill="#fff"/><path d="m100 190h10v10h-10z" fill="#5d6061"/><path d="m110 190h20v10h-20z" fill="#fff"/><path d="m130 190h10v10h-10z" fill="#5d6061"/><path d="m140 190h20v10h-20z" fill="#fff"/><path d="m160 190h10v10h-10z" fill="#5d6061"/><path d="m170 190h20v10h-20z" fill="#fff"/><path d="m190 190h10v10h-10z" fill="#5d6061"/><path d="m200 190h20v10h-20z" fill="#fff"/><path d="m220 190h10v10h-10z" fill="#5d6061"/><path d="m230 190h20v10h-20z" fill="#fff"/><path d="m250 190h10v10h-10z" fill="#5d6061"/><path d="m260 190h10v10h-10z" fill="#b92b3c"/><path d="m280 190h10v10h-10z" fill="#b92b3c"/><path d="m30 200h10v10h-10z" fill="#b92b3c"/><path d="m50 200h10v10h-10z" fill="#b92b3c"/><path d="m60 200h200v10h-200z" fill="#5d6061"/><path d="m260 200h10v10h-10z" fill="#b92b3c"/><path d="m280 200h10v10h-10z" fill="#b92b3c"/><path d="m30 210h10v10h-10z" fill="#b92b3c"/><path d="m50 210h10v10h-10z" fill="#b92b3c"/><path d="m60 210h10v10h-10z" fill="#962236"/><path d="m240 210h10v10h-10z" fill="#962236"/><path d="m260 210h20v10h-20z" fill="#b92b3c"/><path d="m30 220h10v10h-10z" fill="#b92b3c"/><path d="m60 220h20v10h-20z" fill="#b92b3c"/><path d="m250 220h10v10h-10z" fill="#b92b3c"/><path d="m40 230h10v10h-10z" fill="#b92b3c"/><path d="m60 230h20v10h-20z" fill="#b92b3c"/><path d="m40 240h10v10h-10z" fill="#b92b3c"/><path d="m60 240h10v10h-10z" fill="#962236"/><path d="m50 250h20v10h-20z" fill="#b92b3c"/><path d="m100 110h60v10h-60z" fill="#f3322c"/><path d="m170 110h60v10h-60z" fill="#f3322c"/><path d="m100 120h10v10h-10z" fill="#f3322c"/><path d="m110 120h20v10h-20z" fill="#fff"/><path d="m130 120h20v10h-20z"/><path d="m150 120h10v10h-10z" fill="#f3322c"/><path d="m170 120h10v10h-10z" fill="#f3322c"/><path d="m180 120h20v10h-20z" fill="#fff"/><path d="m200 120h20v10h-20z"/><path d="m220 120h10v10h-10z" fill="#f3322c"/><path d="m70 130h40v10h-40z" fill="#f3322c"/><path d="m110 130h20v10h-20z" fill="#fff"/><path d="m130 130h20v10h-20z"/><path d="m150 130h30v10h-30z" fill="#f3322c"/><path d="m180 130h20v10h-20z" fill="#fff"/><path d="m200 130h20v10h-20z"/><path d="m220 130h10v10h-10z" fill="#f3322c"/><path d="m70 140h10v10h-10z" fill="#f3322c"/><path d="m100 140h10v10h-10z" fill="#f3322c"/><path d="m110 140h20v10h-20z" fill="#fff"/><path d="m130 140h20v10h-20z"/><path d="m150 140h10v10h-10z" fill="#f3322c"/><path d="m170 140h10v10h-10z" fill="#f3322c"/><path d="m180 140h20v10h-20z" fill="#fff"/><path d="m200 140h20v10h-20z"/><path d="m220 140h10v10h-10z" fill="#f3322c"/><path d="m70 150h10v10h-10z" fill="#f3322c"/><path d="m100 150h10v10h-10z" fill="#f3322c"/><path d="m110 150h20v10h-20z" fill="#fff"/><path d="m130 150h20v10h-20z"/><path d="m150 150h10v10h-10z" fill="#f3322c"/><path d="m170 150h10v10h-10z" fill="#f3322c"/><path d="m180 150h20v10h-20z" fill="#fff"/><path d="m200 150h20v10h-20z"/><path d="m220 150h10v10h-10z" fill="#f3322c"/><path d="m100 160h60v10h-60z" fill="#f3322c"/><path d="m170 160h60v10h-60z" fill="#f3322c"/></svg>