<svg xmlns="http://www.w3.org/2000/svg" width="512" height="512" fill="none"><path fill="#F90" d="M0 0h512v512H0z"/><path fill="#B7009A" d="M84 340h344v160H84z"/><g><animateTransform attributeName="transform" dur="0.4s" keyTimes="0;0.5;1" repeatCount="indefinite" type="translate" values="0 0;0 28;0 0"/><path fill="#D800B5" d="M196 176h120v296H196z"/><path fill="#B7009A" d="M196 96h120v80H196z"/><path fill="#D800B5" d="M250 96h12v36h-12z"><animate attributeName="fill" begin="5s" dur="0.4s" repeatCount="5" values="#D800B5; #fff; #D800B5"/></path><path fill="#fff" d="m256 272-13-28 13-28 12 28-12 28Z"/><circle cx="256" cy="244" r="8" fill="#007089" transform="rotate(-90 256 244)"><animate attributeName="cx" dur="2s" keyTimes="0;0.1;0.7;0.8;1" repeatCount="indefinite" values="250;264;264;250;250"/></circle><path fill="#fff" d="m228 420 28-13 28 13-28 12-28-12Z"/><circle cx="256" cy="420" r="8" fill="#007089"><animate attributeName="cx" dur="3s" keyTimes="0;0.05;0.65;0.75;1" repeatCount="indefinite" values="264;250;250;264;264"/></circle><path fill="#fff" d="m228 364 28-13 28 13-28 12-28-12Z"/><circle cx="256" cy="364" r="8" fill="#007089"><animate attributeName="cx" dur="3s" keyTimes="0;0.15;0.75;0.85;1" repeatCount="indefinite" values="264;250;250;264;264"/></circle><path fill="#8B634A" d="M106 146 256 30l150 116v16H106v-16Z"/><path fill="#77492D" d="M106 146h300v16H106z"/><path fill="#121212" fill-rule="evenodd" d="M196 176h120v37.333l-46 8-14-10.666-14 10.666-46-8V176Zm51.333 22.667c0 7.732-6.268 14-14 14s-14-6.268-14-14 6.268-14 14-14 14 6.268 14 14Zm31.334 14c7.732 0 14-6.268 14-14s-6.268-14-14-14-14 6.268-14 14 6.268 14 14 14Z" clip-rule="evenodd"/><path stroke="#121212" stroke-width="6" d="M246 327.391s12.823-5.38 16 0c3.153 5.341-7.5 14-7.5 14s13.132-4.082 16 1.5c3.219 6.265-12.5 13-12.5 13"/></g></svg>