<svg height="320" shape-rendering="crispEdges" viewBox="0 0 320 320" width="320" xmlns="http://www.w3.org/2000/svg"><rect fill="#e1d7d5" height="100%" width="100%"/><path d="m90 210h140v10h-140z" fill="#c5b9a1"/><path d="m90 220h140v10h-140z" fill="#c5b9a1"/><path d="m90 230h140v10h-140z" fill="#c5b9a1"/><path d="m90 240h140v10h-140z" fill="#c5b9a1"/><path d="m90 250h20v10h-20z" fill="#c5b9a1"/><path d="m120 250h110v10h-110z" fill="#c5b9a1"/><path d="m90 260h20v10h-20z" fill="#c5b9a1"/><path d="m120 260h110v10h-110z" fill="#c5b9a1"/><path d="m90 270h20v10h-20z" fill="#c5b9a1"/><path d="m120 270h110v10h-110z" fill="#c5b9a1"/><path d="m90 280h20v10h-20z" fill="#c5b9a1"/><path d="m120 280h110v10h-110z" fill="#c5b9a1"/><path d="m90 290h20v10h-20z" fill="#c5b9a1"/><path d="m120 290h110v10h-110z" fill="#c5b9a1"/><path d="m90 300h20v10h-20z" fill="#c5b9a1"/><path d="m120 300h110v10h-110z" fill="#c5b9a1"/><path d="m90 310h20v10h-20z" fill="#c5b9a1"/><path d="m120 310h110v10h-110z" fill="#c5b9a1"/><g fill="#5648ed"><path d="m130 210h30v10h-30z"/><path d="m170 210h30v10h-30z"/><path d="m210 210h20v10h-20z"/><path d="m90 220h30v10h-30z"/><path d="m130 220h30v10h-30z"/><path d="m170 220h30v10h-30z"/><path d="m90 230h30v10h-30z"/><path d="m130 230h30v10h-30z"/><path d="m90 240h30v10h-30z"/><path d="m190 240h30v10h-30z"/><path d="m150 250h30v10h-30z"/><path d="m190 250h30v10h-30z"/><path d="m120 260h20v10h-20z"/><path d="m150 260h30v10h-30z"/><path d="m190 260h30v10h-30z"/><path d="m90 270h10v10h-10z"/><path d="m120 270h20v10h-20z"/><path d="m150 270h30v10h-30z"/><path d="m90 280h10v10h-10z"/><path d="m120 280h20v10h-20z"/><path d="m210 280h20v10h-20z"/><path d="m90 290h10v10h-10z"/><path d="m170 290h30v10h-30z"/><path d="m210 290h20v10h-20z"/><path d="m130 300h30v10h-30z"/><path d="m170 300h30v10h-30z"/><path d="m210 300h20v10h-20z"/><path d="m90 310h20v10h-20z"/><path d="m130 310h30v10h-30z"/><path d="m170 310h30v10h-30z"/></g><path d="m110 20h20v10h-20z" fill="#909b0e"/><path d="m130 20h30v10h-30z" fill="#ffc110"/><path d="m110 30h40v10h-40z" fill="#909b0e"/><path d="m170 30h20v10h-20z" fill="#909b0e"/><path d="m190 30h30v10h-30z" fill="#ffc110"/><path d="m70 40h10v10h-10z" fill="#ffc110"/><path d="m110 40h20v10h-20z" fill="#909b0e"/><path d="m160 40h50v10h-50z" fill="#909b0e"/><path d="m70 50h10v10h-10z" fill="#ffc110"/><path d="m80 50h10v10h-10z" fill="#909b0e"/><path d="m110 50h20v10h-20z" fill="#909b0e"/><path d="m150 50h30v10h-30z" fill="#909b0e"/><path d="m70 60h10v10h-10z" fill="#ffc110"/><path d="m80 60h10v10h-10z" fill="#909b0e"/><path d="m110 60h20v10h-20z" fill="#909b0e"/><path d="m150 60h30v10h-30z" fill="#909b0e"/><path d="m70 70h20v10h-20z" fill="#909b0e"/><path d="m110 70h20v10h-20z" fill="#909b0e"/><path d="m150 70h20v10h-20z" fill="#909b0e"/><path d="m190 70h10v10h-10z" fill="#6f597a"/><path d="m230 70h10v10h-10z" fill="#ffc110"/><path d="m70 80h20v10h-20z" fill="#909b0e"/><path d="m110 80h30v10h-30z" fill="#909b0e"/><path d="m150 80h20v10h-20z" fill="#909b0e"/><path d="m220 80h10v10h-10z" fill="#909b0e"/><path d="m230 80h20v10h-20z" fill="#ffc110"/><path d="m70 90h20v10h-20z" fill="#909b0e"/><path d="m120 90h50v10h-50z" fill="#909b0e"/><path d="m220 90h40v10h-40z" fill="#909b0e"/><path d="m50 100h10v10h-10z" fill="#6f597a"/><path d="m80 100h20v10h-20z" fill="#909b0e"/><path d="m120 100h50v10h-50z" fill="#909b0e"/><path d="m230 100h30v10h-30z" fill="#909b0e"/><path d="m50 110h20v10h-20z" fill="#6f597a"/><path d="m80 110h20v10h-20z" fill="#909b0e"/><path d="m120 110h50v10h-50z" fill="#909b0e"/><path d="m240 110h20v10h-20z" fill="#909b0e"/><path d="m80 120h100v10h-100z" fill="#909b0e"/><path d="m220 120h40v10h-40z" fill="#909b0e"/><path d="m90 130h160v10h-160z" fill="#909b0e"/><path d="m90 140h150v10h-150z" fill="#909b0e"/><path d="m260 140h10v10h-10z" fill="#6f597a"/><path d="m50 150h10v10h-10z" fill="#6f597a"/><path d="m110 150h100v10h-100z" fill="#909b0e"/><path d="m250 150h20v10h-20z" fill="#6f597a"/><path d="m120 160h80v10h-80z" fill="#909b0e"/><path d="m80 170h10v10h-10z" fill="#6f597a"/><path d="m120 170h80v10h-80z" fill="#909b0e"/><path d="m110 180h10v10h-10z" fill="#6f597a"/><path d="m120 180h10v10h-10z" fill="#909b0e"/><path d="m130 180h10v10h-10z"/><path d="m140 180h10v10h-10z" fill="#ffae1a"/><path d="m150 180h10v10h-10z"/><path d="m160 180h10v10h-10z" fill="#ffae1a"/><path d="m170 180h10v10h-10z"/><path d="m180 180h20v10h-20z" fill="#909b0e"/><path d="m200 180h10v10h-10z" fill="#6f597a"/><path d="m240 180h10v10h-10z" fill="#6f597a"/><path d="m100 190h30v10h-30z" fill="#6f597a"/><path d="m130 190h60v10h-60z" fill="#909b0e"/><path d="m190 190h30v10h-30z" fill="#6f597a"/><path d="m90 200h140v10h-140z" fill="#6f597a"/><path d="m100 210h10v10h-10z" fill="#6f597a"/><path d="m120 210h30v10h-30z" fill="#6f597a"/><path d="m170 210h20v10h-20z" fill="#6f597a"/><path d="m200 210h10v10h-10z" fill="#6f597a"/><path d="m130 220h10v10h-10z" fill="#6f597a"/><path d="m230 220h10v10h-10z" fill="#6f597a"/><path d="m100 110h60v10h-60z" fill="#2b83f6"/><path d="m170 110h60v10h-60z" fill="#2b83f6"/><path d="m100 120h10v10h-10z" fill="#2b83f6"/><path d="m110 120h20v10h-20z" fill="#fff"/><path d="m130 120h20v10h-20z"/><path d="m150 120h10v10h-10z" fill="#2b83f6"/><path d="m170 120h10v10h-10z" fill="#2b83f6"/><path d="m180 120h20v10h-20z" fill="#fff"/><path d="m200 120h20v10h-20z"/><path d="m220 120h10v10h-10z" fill="#2b83f6"/><path d="m70 130h40v10h-40z" fill="#2b83f6"/><path d="m110 130h20v10h-20z" fill="#fff"/><path d="m130 130h20v10h-20z"/><path d="m150 130h30v10h-30z" fill="#2b83f6"/><path d="m180 130h20v10h-20z" fill="#fff"/><path d="m200 130h20v10h-20z"/><path d="m220 130h10v10h-10z" fill="#2b83f6"/><path d="m70 140h10v10h-10z" fill="#2b83f6"/><path d="m100 140h10v10h-10z" fill="#2b83f6"/><path d="m110 140h20v10h-20z" fill="#fff"/><path d="m130 140h20v10h-20z"/><path d="m150 140h10v10h-10z" fill="#2b83f6"/><path d="m170 140h10v10h-10z" fill="#2b83f6"/><path d="m180 140h20v10h-20z" fill="#fff"/><path d="m200 140h20v10h-20z"/><path d="m220 140h10v10h-10z" fill="#2b83f6"/><path d="m70 150h10v10h-10z" fill="#2b83f6"/><path d="m100 150h10v10h-10z" fill="#2b83f6"/><path d="m110 150h20v10h-20z" fill="#fff"/><path d="m130 150h20v10h-20z"/><path d="m150 150h10v10h-10z" fill="#2b83f6"/><path d="m170 150h10v10h-10z" fill="#2b83f6"/><path d="m180 150h20v10h-20z" fill="#fff"/><path d="m200 150h20v10h-20z"/><path d="m220 150h10v10h-10z" fill="#2b83f6"/><path d="m100 160h60v10h-60z" fill="#2b83f6"/><path d="m170 160h60v10h-60z" fill="#2b83f6"/></svg>