<?xml version="1.0" encoding="UTF-8"?><svg id="b" xmlns="http://www.w3.org/2000/svg" viewBox="0 0 198.52 340.16"><defs><style>.f{stroke:#f2f2f2;}.f,.g,.h,.i{fill:none;stroke-miterlimit:10;}.f,.h,.i{stroke-width:.5px;}.g,.i{stroke:blue;}.j{fill:blue;opacity:.33;}.h{stroke:#999;}.k{fill:#999;}.l{font-family:CourierNewPSMT, 'Courier New';font-size:15.2px;}.l,.m{fill:#f2f2f2;}.n{fill:#140016;}</style></defs><g id="c"><g id="d"><g id="e"><rect class="m" width="198.52" height="340.16" rx="1.34" ry="1.34"/><path class="n" d="m6.94,333.7c-1.16,0-2.1-.87-2.1-1.95V8.79c0-1.08.94-1.95,2.1-1.95h184.65c1.16,0,2.1.87,2.1,1.95v322.96c0,1.08-.94,1.95-2.1,1.95"/></g><text class="l" transform="translate(94.7 31.94)"><tspan x="0" y="0">V</tspan></text><rect class="f" x="7.74" y="9.32" width="183.04" height="321.15" rx="1.34" ry="1.34"/><line class="g" x1="71.63" y1="262.13" x2="71.63" y2="197.56"/><polyline class="j" points="71.63 197.56 71.63 262.13 109.41 197.56"/><line class="g" x1="126.89" y1="262.39" x2="126.89" y2="197.82"/><polyline class="j" points="126.89 197.82 126.89 262.39 164.67 197.82"/><polygon class="g" points="109.41 197.82 33.85 197.82 71.63 262.39 109.41 197.82"/><polygon class="g" points="164.67 197.82 89.11 197.82 126.89 262.39 164.67 197.82"/><line class="g" x1="113" y1="142.34" x2="113" y2="77.76"/><polyline class="j" points="113 77.76 113 142.34 75.22 77.76"/><polygon class="g" points="150.78 78.17 75.22 78.17 113 142.74 150.78 78.17"/><line class="g" x1="85.36" y1="142.45" x2="85.36" y2="77.88"/><polyline class="j" points="85.36 77.88 85.36 142.45 47.58 77.88"/><polygon class="g" points="123.16 78.17 47.6 78.17 85.38 142.74 123.16 78.17"/><line class="i" x1="99.22" y1="200.98" x2="99.15" y2="157.29"/><polygon class="j" points="136.42 136.85 99.15 157.29 99.25 200.49 136.42 136.85"/><polygon class="g" points="137 136.4 61.44 136.4 99.22 200.98 137 136.4"/><line class="i" x1="99.15" y1="157.29" x2="61.44" y2="136.4"/><line class="i" x1="99.15" y1="157.29" x2="137" y2="136.4"/><path class="k" d="m98.59,304.9v1.18h.42c.06,0,.09.01.12.03.02.02.03.05.03.08,0,.03-.01.06-.03.08-.02.02-.06.03-.12.03h-.94c-.05,0-.09-.01-.12-.03-.02-.02-.03-.05-.03-.08,0-.03.01-.06.03-.08.02-.02.06-.03.12-.03h.3v-2.69h-.3c-.05,0-.09-.01-.12-.03-.02-.02-.03-.05-.03-.08s.01-.06.03-.08c.02-.02.06-.03.12-.03h1.36c.28,0,.52.09.71.27.19.18.29.38.29.6,0,.16-.06.31-.18.45-.12.14-.32.26-.6.36.16.11.3.24.41.38.11.14.3.43.55.86h.17c.05,0,.09.01.12.03.02.02.03.05.03.08,0,.03-.01.06-.03.08-.02.02-.06.03-.12.03h-.3c-.28-.5-.49-.83-.65-1-.15-.17-.33-.3-.53-.4h-.72Zm0-.23h.61c.2,0,.38-.04.54-.11.16-.07.28-.16.35-.25s.11-.19.11-.3c0-.15-.08-.29-.23-.43-.15-.14-.33-.2-.55-.2h-.83v1.29Z"/><path class="k" d="m93.17,312.33h-1.48l-.3.82h.43c.05,0,.09.01.12.03.02.02.03.05.03.08,0,.03-.01.06-.03.08-.02.02-.06.03-.12.03h-.84c-.05,0-.09-.01-.12-.03-.02-.02-.03-.05-.03-.08,0-.03.01-.06.03-.08.02-.02.06-.03.12-.03h.17l1-2.69h-.67c-.05,0-.09-.01-.12-.03-.02-.02-.03-.05-.03-.08s.01-.06.03-.08c.02-.02.06-.03.12-.03h1.13l1.1,2.91h.17c.05,0,.09.01.12.03.02.02.03.05.03.08,0,.03-.01.06-.03.08-.02.02-.06.03-.12.03h-.84c-.06,0-.09-.01-.12-.03-.02-.02-.03-.05-.03-.08,0-.03.01-.06.03-.08.02-.02.06-.03.12-.03h.43l-.31-.82Zm-.09-.23l-.62-1.64h-.08l-.6,1.64h1.31Z"/><path class="k" d="m107.83,311.89c0,.3-.06.58-.18.84-.12.26-.29.46-.5.6-.21.14-.44.21-.69.21-.36,0-.68-.15-.96-.46s-.41-.7-.41-1.19.14-.88.41-1.19c.28-.31.6-.46.96-.46.25,0,.47.07.69.21.21.14.38.34.5.6.12.26.18.53.18.84Zm-.23,0c0-.37-.11-.7-.32-.99-.21-.29-.49-.44-.83-.44-.32,0-.59.14-.81.42-.22.28-.34.61-.34,1.01,0,.42.12.76.35,1.03.24.27.5.4.8.4.34,0,.61-.15.83-.44.21-.29.32-.62.32-.99Z"/><path class="k" d="m99.44,317.24v2.69h.58c.05,0,.09.01.12.03.02.02.03.05.03.08,0,.03-.01.06-.03.08-.02.02-.06.03-.12.03h-1.4c-.05,0-.09-.01-.12-.03-.02-.02-.03-.05-.03-.08,0-.03.01-.06.03-.08.02-.02.06-.03.12-.03h.58v-2.69h-.92v.78c0,.06-.01.09-.03.12-.02.02-.05.03-.08.03-.03,0-.06-.01-.08-.03-.02-.02-.03-.06-.03-.12v-1.01h2.52v1.01c0,.06-.01.09-.03.12-.02.02-.05.03-.08.03s-.06-.01-.08-.03c-.02-.02-.03-.06-.03-.12v-.78h-.92Z"/><path class="h" d="m106.46,309.6c-.74-2.52-2.78-4.48-5.33-5.11"/><path class="h" d="m101.13,318.88c2.37-.59,4.28-2.31,5.14-4.55"/><path class="h" d="m92.43,314.33c.84,2.2,2.7,3.89,4.99,4.51"/><path class="h" d="m97.67,304.64c-2.54.67-4.55,2.65-5.25,5.18"/></g></g></svg>