<svg height="320" shape-rendering="crispEdges" viewBox="0 0 320 320" width="320" xmlns="http://www.w3.org/2000/svg"><rect fill="#d5d7e1" height="100%" width="100%"/><path d="m90 210h140v10h-140z" fill="#e9265c"/><path d="m90 220h140v10h-140z" fill="#e9265c"/><path d="m90 230h140v10h-140z" fill="#e9265c"/><path d="m90 240h140v10h-140z" fill="#e9265c"/><path d="m90 250h20v10h-20z" fill="#e9265c"/><path d="m120 250h110v10h-110z" fill="#e9265c"/><path d="m90 260h20v10h-20z" fill="#e9265c"/><path d="m120 260h110v10h-110z" fill="#e9265c"/><path d="m90 270h20v10h-20z" fill="#e9265c"/><path d="m120 270h110v10h-110z" fill="#e9265c"/><path d="m90 280h20v10h-20z" fill="#e9265c"/><path d="m120 280h110v10h-110z" fill="#e9265c"/><path d="m90 290h20v10h-20z" fill="#e9265c"/><path d="m120 290h110v10h-110z" fill="#e9265c"/><path d="m90 300h20v10h-20z" fill="#e9265c"/><path d="m120 300h110v10h-110z" fill="#e9265c"/><path d="m90 310h20v10h-20z" fill="#e9265c"/><path d="m120 310h110v10h-110z" fill="#e9265c"/><path d="m110 210h10v10h-10z" fill="#068940"/><path d="m140 210h10v10h-10z" fill="#068940"/><path d="m170 210h10v10h-10z" fill="#068940"/><path d="m200 210h10v10h-10z" fill="#068940"/><path d="m90 220h10v10h-10z" fill="#0b5027"/><path d="m120 220h10v10h-10z" fill="#0b5027"/><path d="m150 220h10v10h-10z" fill="#0b5027"/><path d="m180 220h10v10h-10z" fill="#0b5027"/><path d="m210 220h10v10h-10z" fill="#0b5027"/><path d="m100 230h10v10h-10z" fill="#068940"/><path d="m130 230h10v10h-10z" fill="#068940"/><path d="m160 230h10v10h-10z" fill="#068940"/><path d="m190 230h10v10h-10z" fill="#068940"/><path d="m220 230h10v10h-10z" fill="#068940"/><path d="m110 240h10v10h-10z" fill="#0b5027"/><path d="m140 240h10v10h-10z" fill="#0b5027"/><path d="m170 240h10v10h-10z" fill="#0b5027"/><path d="m200 240h10v10h-10z" fill="#0b5027"/><path d="m90 250h10v10h-10z" fill="#068940"/><path d="m120 250h10v10h-10z" fill="#068940"/><path d="m150 250h10v10h-10z" fill="#068940"/><path d="m180 250h10v10h-10z" fill="#068940"/><path d="m210 250h10v10h-10z" fill="#068940"/><path d="m100 260h10v10h-10z" fill="#0b5027"/><path d="m130 260h10v10h-10z" fill="#0b5027"/><path d="m160 260h10v10h-10z" fill="#0b5027"/><path d="m190 260h10v10h-10z" fill="#0b5027"/><path d="m220 260h10v10h-10z" fill="#0b5027"/><path d="m140 270h10v10h-10z" fill="#068940"/><path d="m170 270h10v10h-10z" fill="#068940"/><path d="m200 270h10v10h-10z" fill="#068940"/><path d="m90 280h10v10h-10z" fill="#0b5027"/><path d="m120 280h10v10h-10z" fill="#0b5027"/><path d="m150 280h10v10h-10z" fill="#0b5027"/><path d="m180 280h10v10h-10z" fill="#0b5027"/><path d="m210 280h10v10h-10z" fill="#0b5027"/><path d="m100 290h10v10h-10z" fill="#068940"/><path d="m130 290h10v10h-10z" fill="#068940"/><path d="m160 290h10v10h-10z" fill="#068940"/><path d="m190 290h10v10h-10z" fill="#068940"/><path d="m220 290h10v10h-10z" fill="#068940"/><path d="m140 300h10v10h-10z" fill="#0b5027"/><path d="m170 300h10v10h-10z" fill="#0b5027"/><path d="m200 300h10v10h-10z" fill="#0b5027"/><g fill="#068940"><path d="m90 310h10v10h-10z"/><path d="m120 310h10v10h-10z"/><path d="m150 310h10v10h-10z"/><path d="m180 310h10v10h-10z"/><path d="m210 310h10v10h-10z"/><path d="m150 10h10v10h-10z"/><path d="m140 20h20v10h-20z"/><path d="m140 30h20v10h-20z"/><path d="m170 30h10v10h-10z"/><path d="m130 40h40v10h-40z"/><path d="m60 50h10v10h-10z"/><path d="m130 50h40v10h-40z"/><path d="m240 50h10v10h-10z"/><path d="m60 60h20v10h-20z"/><path d="m140 60h30v10h-30z"/><path d="m180 60h10v10h-10z"/><path d="m230 60h20v10h-20z"/><path d="m60 70h30v10h-30z"/><path d="m100 70h10v10h-10z"/><path d="m130 70h50v10h-50z"/><path d="m220 70h30v10h-30z"/><path d="m70 80h40v10h-40z"/><path d="m130 80h60v10h-60z"/><path d="m200 80h40v10h-40z"/><path d="m70 90h50v10h-50z"/><path d="m140 90h40v10h-40z"/><path d="m190 90h50v10h-50z"/><path d="m80 100h50v10h-50z"/><path d="m140 100h40v10h-40z"/><path d="m190 100h40v10h-40z"/><path d="m20 110h10v10h-10z"/><path d="m90 110h130v10h-130z"/><path d="m280 110h10v10h-10z"/><path d="m30 120h20v10h-20z"/><path d="m60 120h10v10h-10z"/><path d="m100 120h110v10h-110z"/><path d="m260 120h20v10h-20z"/><path d="m30 130h40v10h-40z"/><path d="m90 130h190v10h-190z"/><path d="m40 140h230v10h-230z"/><path d="m60 150h190v10h-190z"/><path d="m70 160h150v10h-150z"/><path d="m110 170h30v10h-30z"/></g><path d="m140 170h10v10h-10z" fill="#0b5027"/><path d="m150 170h30v10h-30z" fill="#068940"/><path d="m180 170h10v10h-10z" fill="#0b5027"/><path d="m190 170h10v10h-10z" fill="#068940"/><path d="m100 180h50v10h-50z" fill="#068940"/><path d="m150 180h30v10h-30z" fill="#0b5027"/><path d="m180 180h30v10h-30z" fill="#068940"/><path d="m80 190h150v10h-150z" fill="#068940"/><path d="m70 200h170v10h-170z" fill="#068940"/><path d="m60 210h20v10h-20z" fill="#068940"/><path d="m230 210h20v10h-20z" fill="#068940"/><path d="m100 110h60v10h-60z" fill="#2b83f6"/><path d="m170 110h60v10h-60z" fill="#2b83f6"/><path d="m100 120h10v10h-10z" fill="#2b83f6"/><path d="m110 120h20v10h-20z" fill="#fff"/><path d="m130 120h20v10h-20z"/><path d="m150 120h10v10h-10z" fill="#2b83f6"/><path d="m170 120h10v10h-10z" fill="#2b83f6"/><path d="m180 120h20v10h-20z" fill="#fff"/><path d="m200 120h20v10h-20z"/><path d="m220 120h10v10h-10z" fill="#2b83f6"/><path d="m70 130h40v10h-40z" fill="#2b83f6"/><path d="m110 130h20v10h-20z" fill="#fff"/><path d="m130 130h20v10h-20z"/><path d="m150 130h30v10h-30z" fill="#2b83f6"/><path d="m180 130h20v10h-20z" fill="#fff"/><path d="m200 130h20v10h-20z"/><path d="m220 130h10v10h-10z" fill="#2b83f6"/><path d="m70 140h10v10h-10z" fill="#2b83f6"/><path d="m100 140h10v10h-10z" fill="#2b83f6"/><path d="m110 140h20v10h-20z" fill="#fff"/><path d="m130 140h20v10h-20z"/><path d="m150 140h10v10h-10z" fill="#2b83f6"/><path d="m170 140h10v10h-10z" fill="#2b83f6"/><path d="m180 140h20v10h-20z" fill="#fff"/><path d="m200 140h20v10h-20z"/><path d="m220 140h10v10h-10z" fill="#2b83f6"/><path d="m70 150h10v10h-10z" fill="#2b83f6"/><path d="m100 150h10v10h-10z" fill="#2b83f6"/><path d="m110 150h20v10h-20z" fill="#fff"/><path d="m130 150h20v10h-20z"/><path d="m150 150h10v10h-10z" fill="#2b83f6"/><path d="m170 150h10v10h-10z" fill="#2b83f6"/><path d="m180 150h20v10h-20z" fill="#fff"/><path d="m200 150h20v10h-20z"/><path d="m220 150h10v10h-10z" fill="#2b83f6"/><path d="m100 160h60v10h-60z" fill="#2b83f6"/><path d="m170 160h60v10h-60z" fill="#2b83f6"/></svg>