<svg xmlns="http://www.w3.org/2000/svg" viewBox="0 -0.5 50 50" shape-rendering="crispEdges">
	<title>Bitcoin Pussies #054</title>
	<desc>Bitcoin Pussies are 69 uniquely drawn and inscribed cats on Bitcoin</desc>
	<desc xmlns:meow="https://bitcoinpussies.com/">
		<meow:traits>
			<meow:Skin>Grey, White</meow:Skin>
			<meow:Eyes>Open</meow:Eyes>
			<meow:Gear>None</meow:Gear>
			<meow:Message>Meow</meow:Message>
		</meow:traits>
	</desc>
	<path stroke="#afea7b" d="M0 0h50M0 1h50M0 2h50M0 3h50M0 4h50M0 5h50M0 6h50M0 7h50M0 8h50M0 9h50M0 10h50M0 11h50M0 12h50M0 13h50M0 14h14M19 14h12M36 14h14M0 15h14M20 15h10M36 15h14M0 16h14M36 16h14M0 17h14M36 17h14M0 18h14M36 18h14M0 19h14M36 19h14M0 20h15M35 20h15M0 21h15M35 21h15M0 22h14M36 22h14M0 23h14M36 23h14M0 24h13M37 24h13M0 25h12M38 25h12M0 26h13M37 26h13M0 27h12M38 27h12M0 28h13M37 28h13M0 29h14M36 29h14M0 30h15M35 30h15M0 31h17M33 31h17M0 32h19M31 32h19M0 33h18M32 33h18M0 34h18M32 34h18M0 35h15M33 35h17M0 36h15M33 36h17M0 37h16M33 37h17M0 38h17M32 38h18M0 39h19M31 39h19M0 40h50M0 41h50M0 42h50M0 43h50M0 44h50M0 45h50M0 46h50M0 47h50M0 48h50M0 49h50" />
	<path stroke="#000000" d="M14 14h5M31 14h5M14 15h1M19 15h1M30 15h1M35 15h1M14 16h1M20 16h10M35 16h1M14 17h1M18 17h2M30 17h2M35 17h1M14 18h1M17 18h1M32 18h1M35 18h1M14 19h1M16 19h1M33 19h1M35 19h1M15 20h1M34 20h1M15 21h1M34 21h1M14 22h1M19 22h3M29 22h3M35 22h1M14 23h1M18 23h1M22 23h1M28 23h1M32 23h1M35 23h1M13 24h1M36 24h1M12 25h1M24 25h3M37 25h1M13 26h1M25 26h1M36 26h1M12 27h1M37 27h1M13 28h1M36 28h1M14 29h1M35 29h1M15 30h2M33 30h2M17 31h3M30 31h3M19 32h1M30 32h1M18 33h1M31 33h1M18 34h1M31 34h1M15 35h3M32 35h1M15 36h1M17 36h1M32 36h1M16 37h2M32 37h1M17 38h2M20 38h1M22 38h1M27 38h1M29 38h1M31 38h1M19 39h12" />
	<path stroke="#7b7b7b" d="M15 15h4M31 15h4M15 16h5M30 16h5M15 17h1M20 17h10M34 17h1M15 18h1M18 18h14M34 18h1M15 19h1M17 19h16M34 19h1M16 20h18M16 21h18M15 22h4M22 22h7M32 22h3M15 23h3M23 23h5M33 23h2M14 24h5M22 24h7M32 24h4M13 25h5M22 25h1M28 25h1M33 25h4M14 26h4M20 26h2M29 26h2M33 26h3M13 27h8M25 27h1M30 27h7M14 28h8M24 28h3M29 28h7M15 29h20M17 30h16M20 31h1M29 31h1M19 33h2M29 33h2M19 34h3M28 34h3M18 35h5M27 35h5M16 36h1M18 36h14M18 37h14M23 38h4" />
	<path stroke="#ffc4c6" d="M16 17h2M32 17h2M16 18h1M33 18h1" />
	<path stroke="#ccc158" d="M19 23h1M21 23h1M29 23h1M31 23h1M19 24h3M29 24h3" />
	<path stroke="#ffffff" d="M20 23h1M30 23h1M23 25h1M27 25h1M22 26h3M26 26h3M21 27h4M26 27h4M22 28h2M27 28h2M21 31h8M20 32h10M21 33h8M22 34h6M23 35h4M19 38h1M21 38h1M28 38h1M30 38h1" />
	<path stroke="#ffb0b2" d="M18 25h1M32 25h1M18 26h2M31 26h2" />
	<path stroke="#a29943" d="M19 25h3M29 25h3" />
</svg>