<svg xmlns="http://www.w3.org/2000/svg" width="512" height="512" fill="none"><path fill="#F90" d="M0 0h512v512H0z"/><path fill="#2D2D2D" d="M84 340h344v160H84z"/><g><animateTransform attributeName="transform" dur="0.4s" keyTimes="0;0.5;1" repeatCount="indefinite" type="translate" values="0 0;0 28;0 0"/><path fill="#E3E3E3" d="M196 176h120v296H196z"/><path fill="#2D2D2D" d="M196 96h120v80H196z"/><path fill="#E3E3E3" d="M250 96h12v36h-12z"><animate attributeName="fill" begin="5s" dur="0.4s" repeatCount="5" values="#E3E3E3; #fff; #E3E3E3"/></path><path fill="#121212" d="M234 130.25 196 119V96h120v36l-39-21.5v19.75l-43-19.75v19.75Z"/><path fill="#121212" fill-rule="evenodd" d="M196 176h120v37.333l-46 8-14-10.666-14 10.666-46-8V176Zm51.333 22.667c0 7.732-6.268 14-14 14s-14-6.268-14-14 6.268-14 14-14 14 6.268 14 14Zm31.334 14c7.732 0 14-6.268 14-14s-6.268-14-14-14-14 6.268-14 14 6.268 14 14 14Z" clip-rule="evenodd"/></g></svg>