<svg height="320" shape-rendering="crispEdges" viewBox="0 0 320 320" width="320" xmlns="http://www.w3.org/2000/svg"><rect fill="#e1d7d5" height="100%" width="100%"/><g fill="#c5b9a1"><path d="m90 210h140v10h-140z"/><path d="m90 220h140v10h-140z"/><path d="m90 230h140v10h-140z"/><path d="m90 240h140v10h-140z"/><path d="m90 250h20v10h-20z"/><path d="m120 250h110v10h-110z"/><path d="m90 260h20v10h-20z"/><path d="m120 260h110v10h-110z"/><path d="m90 270h20v10h-20z"/><path d="m120 270h110v10h-110z"/><path d="m90 280h20v10h-20z"/><path d="m120 280h110v10h-110z"/><path d="m90 290h20v10h-20z"/><path d="m120 290h110v10h-110z"/><path d="m90 300h20v10h-20z"/><path d="m120 300h110v10h-110z"/><path d="m90 310h20v10h-20z"/><path d="m120 310h110v10h-110z"/></g><path d="m140 230h20v10h-20z" fill="#a3efd0"/><path d="m170 230h10v10h-10z" fill="#a3efd0"/><path d="m140 240h10v10h-10z" fill="#a3efd0"/><path d="m160 240h20v10h-20z" fill="#a3efd0"/><path d="m130 260h20v10h-20z" fill="#a3efd0"/><path d="m160 260h10v10h-10z" fill="#a3efd0"/><path d="m180 260h10v10h-10z" fill="#a3efd0"/><path d="m130 270h20v10h-20z" fill="#a3efd0"/><path d="m160 270h30v10h-30z" fill="#a3efd0"/><path d="m140 290h20v10h-20z" fill="#a3efd0"/><path d="m170 290h10v10h-10z" fill="#a3efd0"/><path d="m140 300h10v10h-10z" fill="#a3efd0"/><path d="m160 300h20v10h-20z" fill="#a3efd0"/><path d="m140 30h50v10h-50z" fill="#807f7e"/><path d="m120 40h20v10h-20z" fill="#807f7e"/><path d="m180 40h10v10h-10z" fill="#807f7e"/><path d="m120 50h10v10h-10z" fill="#807f7e"/><path d="m150 50h90v10h-90z" fill="#807f7e"/><path d="m70 60h170v10h-170z" fill="#807f7e"/><path d="m70 70h80v10h-80z" fill="#807f7e"/><path d="m150 70h70v10h-70z"/><path d="m220 70h10v10h-10z" fill="#343235"/><path d="m80 80h10v10h-10z" fill="#343235"/><path d="m90 80h80v10h-80z"/><path d="m170 80h100v10h-100z" fill="#343235"/><path d="m70 90h60v10h-60z" fill="#807f7e"/><path d="m130 90h30v10h-30z"/><path d="m160 90h30v10h-30z" fill="#343235"/><path d="m190 90h50v10h-50z" fill="#807f7e"/><path d="m240 90h10v10h-10z" fill="#343235"/><path d="m70 100h20v10h-20z" fill="#807f7e"/><path d="m90 100h30v10h-30z" fill="#62616d"/><path d="m120 100h20v10h-20z" fill="#807f7e"/><path d="m140 100h30v10h-30z" fill="#62616d"/><path d="m170 100h20v10h-20z" fill="#807f7e"/><path d="m190 100h30v10h-30z" fill="#62616d"/><path d="m220 100h20v10h-20z" fill="#807f7e"/><path d="m250 100h10v10h-10z" fill="#343235"/><path d="m60 110h30v10h-30z" fill="#807f7e"/><path d="m90 110h30v10h-30z" fill="#62616d"/><path d="m120 110h20v10h-20z" fill="#807f7e"/><path d="m140 110h30v10h-30z" fill="#62616d"/><path d="m170 110h20v10h-20z" fill="#807f7e"/><path d="m190 110h30v10h-30z" fill="#62616d"/><path d="m220 110h30v10h-30z" fill="#807f7e"/><path d="m50 120h10v10h-10z" fill="#807f7e"/><path d="m70 120h20v10h-20z" fill="#807f7e"/><path d="m90 120h30v10h-30z" fill="#62616d"/><path d="m120 120h20v10h-20z" fill="#807f7e"/><path d="m140 120h30v10h-30z" fill="#62616d"/><path d="m170 120h20v10h-20z" fill="#807f7e"/><path d="m190 120h30v10h-30z" fill="#62616d"/><path d="m220 120h20v10h-20z" fill="#807f7e"/><path d="m250 120h10v10h-10z" fill="#807f7e"/><path d="m70 130h20v10h-20z" fill="#807f7e"/><path d="m90 130h30v10h-30z" fill="#62616d"/><path d="m120 130h20v10h-20z" fill="#807f7e"/><path d="m140 130h30v10h-30z" fill="#62616d"/><path d="m170 130h20v10h-20z" fill="#807f7e"/><path d="m190 130h30v10h-30z" fill="#62616d"/><path d="m220 130h20v10h-20z" fill="#807f7e"/><path d="m70 140h20v10h-20z" fill="#807f7e"/><path d="m90 140h30v10h-30z" fill="#62616d"/><path d="m120 140h20v10h-20z" fill="#807f7e"/><path d="m140 140h30v10h-30z" fill="#62616d"/><path d="m170 140h20v10h-20z" fill="#807f7e"/><path d="m190 140h30v10h-30z" fill="#62616d"/><path d="m220 140h20v10h-20z" fill="#807f7e"/><path d="m70 150h20v10h-20z" fill="#807f7e"/><path d="m90 150h30v10h-30z" fill="#62616d"/><path d="m120 150h20v10h-20z" fill="#807f7e"/><path d="m140 150h30v10h-30z" fill="#62616d"/><path d="m170 150h20v10h-20z" fill="#807f7e"/><path d="m190 150h30v10h-30z" fill="#62616d"/><path d="m220 150h20v10h-20z" fill="#807f7e"/><path d="m70 160h20v10h-20z" fill="#807f7e"/><path d="m90 160h30v10h-30z" fill="#62616d"/><path d="m120 160h20v10h-20z" fill="#807f7e"/><path d="m140 160h30v10h-30z" fill="#62616d"/><path d="m170 160h20v10h-20z" fill="#807f7e"/><path d="m190 160h30v10h-30z" fill="#62616d"/><path d="m220 160h20v10h-20z" fill="#807f7e"/><path d="m70 170h20v10h-20z" fill="#807f7e"/><path d="m90 170h30v10h-30z" fill="#62616d"/><path d="m120 170h20v10h-20z" fill="#807f7e"/><path d="m140 170h30v10h-30z" fill="#62616d"/><path d="m170 170h20v10h-20z" fill="#807f7e"/><path d="m190 170h30v10h-30z" fill="#62616d"/><path d="m220 170h20v10h-20z" fill="#807f7e"/><path d="m70 180h20v10h-20z" fill="#807f7e"/><path d="m90 180h10v10h-10z" fill="#62616d"/><path d="m100 180h50v10h-50z"/><path d="m150 180h20v10h-20z" fill="#62616d"/><path d="m170 180h20v10h-20z" fill="#807f7e"/><path d="m190 180h30v10h-30z" fill="#62616d"/><path d="m220 180h20v10h-20z" fill="#807f7e"/><path d="m70 190h20v10h-20z" fill="#807f7e"/><path d="m90 190h30v10h-30z" fill="#62616d"/><path d="m120 190h20v10h-20z" fill="#807f7e"/><path d="m140 190h30v10h-30z" fill="#62616d"/><path d="m170 190h20v10h-20z" fill="#807f7e"/><path d="m190 190h30v10h-30z" fill="#62616d"/><path d="m220 190h20v10h-20z" fill="#807f7e"/><path d="m70 200h170v10h-170z" fill="#807f7e"/><path d="m100 110h60v10h-60z" fill="#d19a54"/><path d="m170 110h60v10h-60z" fill="#d19a54"/><path d="m100 120h10v10h-10z" fill="#d19a54"/><path d="m110 120h20v10h-20z" fill="#fff"/><path d="m130 120h20v10h-20z"/><path d="m150 120h10v10h-10z" fill="#d19a54"/><path d="m170 120h10v10h-10z" fill="#d19a54"/><path d="m180 120h20v10h-20z" fill="#fff"/><path d="m200 120h20v10h-20z"/><path d="m220 120h10v10h-10z" fill="#d19a54"/><path d="m70 130h40v10h-40z" fill="#d19a54"/><path d="m110 130h20v10h-20z" fill="#fff"/><path d="m130 130h20v10h-20z"/><path d="m150 130h30v10h-30z" fill="#d19a54"/><path d="m180 130h20v10h-20z" fill="#fff"/><path d="m200 130h20v10h-20z"/><path d="m220 130h10v10h-10z" fill="#d19a54"/><path d="m70 140h10v10h-10z" fill="#d19a54"/><path d="m100 140h10v10h-10z" fill="#d19a54"/><path d="m110 140h20v10h-20z" fill="#fff"/><path d="m130 140h20v10h-20z"/><path d="m150 140h10v10h-10z" fill="#d19a54"/><path d="m170 140h10v10h-10z" fill="#d19a54"/><path d="m180 140h20v10h-20z" fill="#fff"/><path d="m200 140h20v10h-20z"/><path d="m220 140h10v10h-10z" fill="#d19a54"/><path d="m70 150h10v10h-10z" fill="#d19a54"/><path d="m100 150h10v10h-10z" fill="#d19a54"/><path d="m110 150h20v10h-20z" fill="#fff"/><path d="m130 150h20v10h-20z"/><path d="m150 150h10v10h-10z" fill="#d19a54"/><path d="m170 150h10v10h-10z" fill="#d19a54"/><path d="m180 150h20v10h-20z" fill="#fff"/><path d="m200 150h20v10h-20z"/><path d="m220 150h10v10h-10z" fill="#d19a54"/><path d="m100 160h60v10h-60z" fill="#d19a54"/><path d="m170 160h60v10h-60z" fill="#d19a54"/></svg>