<svg xmlns="http://www.w3.org/2000/svg" viewBox="0 -0.5 50 50" shape-rendering="crispEdges">
	<title>Bitcoin Pussies #005</title>
	<desc>Bitcoin Pussies are 69 uniquely drawn and inscribed cats on Bitcoin</desc>
	<desc xmlns:meow="https://bitcoinpussies.com/">
		<meow:traits>
			<meow:Skin>Grey</meow:Skin>
			<meow:Eyes>Open</meow:Eyes>
			<meow:Gear>Pepe</meow:Gear>
			<meow:Message>Ugh, can you guys stop trading?</meow:Message>
		</meow:traits>
	</desc>
	<path stroke="#00dbdc" d="M0 0h50M0 1h50M0 2h50M0 3h23M26 3h1M30 3h20M0 4h22M31 4h19M0 5h21M32 5h5M0 6h20M33 6h3M0 7h19M33 7h3M0 8h18M33 8h2M0 9h18M33 9h1M0 10h18M33 10h2M0 11h18M33 11h3M0 12h18M33 12h3M0 13h19M32 13h5M0 14h18M32 14h18M0 15h16M35 15h15M0 16h15M36 16h14M0 17h15M36 17h14M0 18h15M36 18h14M0 19h15M36 19h14M0 20h15M36 20h14M0 21h15M36 21h14M0 22h16M35 22h15M0 23h15M36 23h14M0 24h15M36 24h14M0 25h15M36 25h14M0 26h15M36 26h14M0 27h15M36 27h14M0 28h16M35 28h15M0 29h16M36 29h14M0 30h17M36 30h14M0 31h19M36 31h14M0 32h20M35 32h15M0 33h19M34 33h16M0 34h19M33 34h17M0 35h18M33 35h17M0 36h17M33 36h17M0 37h16M33 37h17M0 38h17M32 38h18M0 39h20M31 39h19M0 40h50M0 41h50M0 42h50M0 43h50M0 44h50M0 45h50M0 46h50M0 47h50M0 48h50M0 49h50" />
	<path stroke="#2d471f" d="M23 3h3M27 3h3M22 4h1M26 4h1M30 4h1M21 5h1M31 5h1M20 6h1M32 6h1M19 7h1M32 7h1M18 8h1M32 8h1M18 9h1M32 9h1M18 10h1M32 10h1M18 11h1M32 11h1M18 12h1M32 12h1M19 13h1M31 13h1M18 14h1M20 14h1M30 14h2M18 15h1M21 15h9M31 15h1M18 16h3M23 16h1M29 16h3M21 17h1M24 17h4M30 17h1M22 18h1M25 18h1M28 18h1M31 18h1M23 19h1M25 19h1M29 19h1M31 19h1M24 20h1M30 20h1" />
	<path stroke="#5fa636" d="M23 4h3M27 4h3M22 5h4M27 5h4M21 6h6M28 6h4M20 7h3M19 8h5M19 9h13M19 10h3M19 11h3M19 12h4M20 13h11M21 14h9M23 18h2M29 18h2M24 19h1M30 19h1" />
	<path stroke="#497c2a" d="M26 5h1M27 6h1M27 7h1M27 8h2" />
	<path stroke="#000000" d="M37 5h13M36 6h1M25 7h1M30 7h1M36 7h1M38 7h1M41 7h1M43 7h4M48 7h1M25 8h2M30 8h2M35 8h1M38 8h1M41 8h1M43 8h1M48 8h1M34 9h1M38 9h1M41 9h1M43 9h1M45 9h2M48 9h2M35 10h1M38 10h1M41 10h1M43 10h1M46 10h1M48 10h1M36 11h1M38 11h4M43 11h4M48 11h1M36 12h1M37 13h13M16 15h2M32 15h3M15 16h1M35 16h1M15 17h1M35 17h1M15 18h1M19 18h2M35 18h1M15 19h1M18 19h1M32 19h1M35 19h1M15 20h1M17 20h1M33 20h1M35 20h1M15 21h2M34 21h2M16 22h1M34 22h1M15 23h1M20 23h2M29 23h2M35 23h1M15 24h1M20 24h2M29 24h2M35 24h1M15 25h1M23 25h1M25 25h1M27 25h1M35 25h1M15 26h1M24 26h1M26 26h1M35 26h1M15 27h1M25 27h1M35 27h1M16 28h1M34 28h1M16 29h1M33 29h3M17 30h2M32 30h1M35 30h1M19 31h2M25 31h3M31 31h1M35 31h1M20 32h1M24 32h1M27 32h1M34 32h1M19 33h1M23 33h1M27 33h1M33 33h1M19 34h1M26 34h1M32 34h1M18 35h1M25 35h1M32 35h1M17 36h2M32 36h1M16 37h1M18 37h1M32 37h1M17 38h3M21 38h1M29 38h1M31 38h1M20 39h11" />
	<path stroke="#ffffff" d="M37 6h13M23 7h2M26 7h1M28 7h2M31 7h1M37 7h1M39 7h2M42 7h1M47 7h1M49 7h1M24 8h1M29 8h1M36 8h2M39 8h2M42 8h1M44 8h4M49 8h1M35 9h3M39 9h2M42 9h1M44 9h1M47 9h1M36 10h2M39 10h2M42 10h1M44 10h2M47 10h1M49 10h1M37 11h1M42 11h1M47 11h1M49 11h1M37 12h13" />
	<path stroke="#d04e25" d="M22 10h10M22 11h1M23 12h9" />
	<path stroke="#2f2f2f" d="M23 11h9" />
	<path stroke="#2247c6" d="M19 14h1M19 15h2M30 15h1M21 16h2M24 16h5M22 17h2M28 17h2" />
	<path stroke="#707070" d="M16 16h2M32 16h3M16 17h1M20 17h1M34 17h1M16 18h1M21 18h1M26 18h2M34 18h1M16 19h1M19 19h4M26 19h3M34 19h1M16 20h1M18 20h6M25 20h5M31 20h2M34 20h1M17 21h17M17 22h3M22 22h7M31 22h3M16 23h3M23 23h5M32 23h3M16 24h3M23 24h5M32 24h3M16 25h4M22 25h1M24 25h1M26 25h1M28 25h1M31 25h4M16 26h8M27 26h8M16 27h9M26 27h9M17 28h17M17 29h16M19 30h13M33 30h2M21 31h4M28 31h3M32 31h3M21 32h3M25 32h2M28 32h6M20 33h3M24 33h3M28 33h5M20 34h6M27 34h5M19 35h6M26 35h6M19 36h13M17 37h1M19 37h13M20 38h1M22 38h7M30 38h1" />
	<path stroke="#fabeb0" d="M17 17h3M31 17h3M17 18h2M32 18h2M17 19h1M33 19h1" />
	<path stroke="#c3d57f" d="M20 22h2M29 22h2M19 23h1M22 23h1M28 23h1M31 23h1M19 24h1M22 24h1M28 24h1M31 24h1M20 25h2M29 25h2" />
	<path stroke="#ffb790" d="M25 26h1" />
</svg>