<svg width="495" height="494" viewBox="0 0 495 494" xmlns="http://www.w3.org/2000/svg" xmlns:xlink="http://www.w3.org/1999/xlink" xml:space="preserve" overflow="hidden"><defs><clipPath id="clip0"><rect x="236" y="1035" width="495" height="494"/></clipPath></defs><g clip-path="url(#clip0)" transform="translate(-236 -1035)"><path d="M327.5 1134.67C327.5 1116.35 342.35 1101.5 360.667 1101.5L604.333 1101.5C622.651 1101.5 637.5 1116.35 637.5 1134.67L637.5 1267.33C637.5 1285.65 622.651 1300.5 604.333 1300.5L360.667 1300.5C342.35 1300.5 327.5 1285.65 327.5 1267.33Z" stroke="#000000" stroke-width="4.58333" stroke-miterlimit="8" fill="#FFFFFF" fill-rule="evenodd"/><text fill="#0070C0" font-family="Calibri,Calibri_MSFontService,sans-serif" font-weight="400" font-size="46" transform="matrix(1 0 0 1 381.102 1163)">SEE U HK🎓</text><text fill="#C00000" font-family="DFKai-SB,DFKai-SB_MSFontService,sans-serif" font-weight="700" font-size="110" transform="matrix(1 0 0 1 341.43 1256)">中</text><text fill="#C00000" font-family="DFKai-SB,DFKai-SB_MSFontService,sans-serif" font-weight="700" font-size="110" transform="matrix(1 0 0 1 506.43 1256)">文</text><text fill="#0070C0" font-family="DFKai-SB,DFKai-SB_MSFontService,sans-serif" font-weight="700" font-size="55" transform="matrix(1 0 0 1 456.201 1267)">學</text><text fill="#0070C0" font-family="DFKai-SB,DFKai-SB_MSFontService,sans-serif" font-weight="700" font-size="55" transform="matrix(1 0 0 1 454.546 1217)">大</text><text font-family="PMingLiU,PMingLiU_MSFontService,sans-serif" font-weight="400" font-size="83" transform="matrix(1 0 0 1 441.315 1434)">🚍</text><rect x="236.5" y="1035.5" width="494" height="493" stroke="#000000" stroke-width="1.14583" stroke-miterlimit="8" stroke-opacity="0.0196078" fill="none"/></g></svg>