<svg height="320" shape-rendering="crispEdges" viewBox="0 0 320 320" width="320" xmlns="http://www.w3.org/2000/svg"><rect fill="#e1d7d5" height="100%" width="100%"/><g fill="#d26451"><path d="m90 210h140v10h-140z"/><path d="m90 220h140v10h-140z"/><path d="m90 230h140v10h-140z"/><path d="m90 240h140v10h-140z"/><path d="m90 250h20v10h-20z"/><path d="m120 250h110v10h-110z"/><path d="m90 260h20v10h-20z"/><path d="m120 260h110v10h-110z"/><path d="m90 270h20v10h-20z"/><path d="m120 270h110v10h-110z"/><path d="m90 280h20v10h-20z"/><path d="m120 280h110v10h-110z"/><path d="m90 290h20v10h-20z"/><path d="m120 290h110v10h-110z"/><path d="m90 300h20v10h-20z"/><path d="m120 300h110v10h-110z"/><path d="m90 310h20v10h-20z"/><path d="m120 310h110v10h-110z"/></g><path d="m90 210h140v10h-140z" fill="#ff1a0b"/><path d="m90 220h140v10h-140z" fill="#ff1a0b"/><path d="m90 230h140v10h-140z" fill="#f78a18"/><path d="m90 240h140v10h-140z" fill="#f78a18"/><path d="m90 250h20v10h-20z" fill="#fff449"/><path d="m120 250h110v10h-110z" fill="#fff449"/><path d="m90 260h20v10h-20z" fill="#fff449"/><path d="m120 260h110v10h-110z" fill="#fff449"/><path d="m90 270h20v10h-20z" fill="#068940"/><path d="m120 270h110v10h-110z" fill="#068940"/><path d="m90 280h20v10h-20z" fill="#068940"/><path d="m120 280h110v10h-110z" fill="#068940"/><path d="m90 290h20v10h-20z" fill="#2b83f6"/><path d="m120 290h110v10h-110z" fill="#2b83f6"/><path d="m90 300h20v10h-20z" fill="#2b83f6"/><path d="m120 300h110v10h-110z" fill="#2b83f6"/><path d="m90 310h20v10h-20z" fill="#9f21a0"/><path d="m120 310h110v10h-110z" fill="#9f21a0"/><path d="m170 10h10v10h-10z" fill="#a28ef4"/><path d="m160 20h10v10h-10z" fill="#a28ef4"/><path d="m70 30h10v10h-10z" fill="#a28ef4"/><path d="m60 40h10v10h-10z" fill="#a28ef4"/><path d="m130 40h10v10h-10z" fill="#feb9d5"/><path d="m200 40h10v10h-10z" fill="#feb9d5"/><path d="m250 40h10v10h-10z" fill="#a28ef4"/><path d="m60 50h10v10h-10z" fill="#a28ef4"/><path d="m120 50h10v10h-10z" fill="#feb9d5"/><path d="m190 50h10v10h-10z" fill="#feb9d5"/><path d="m260 50h10v10h-10z" fill="#a28ef4"/><path d="m110 60h10v10h-10z" fill="#feb9d5"/><path d="m150 60h40v10h-40z" fill="#feb9d5"/><path d="m220 60h10v10h-10z" fill="#feb9d5"/><path d="m110 70h10v10h-10z" fill="#feb9d5"/><path d="m120 70h10v10h-10z" fill="#e9265c"/><path d="m130 70h10v10h-10z" fill="#ff638d"/><path d="m140 70h10v10h-10z" fill="#feb9d5"/><path d="m150 70h30v10h-30z" fill="#ff638d"/><path d="m180 70h30v10h-30z" fill="#e9265c"/><path d="m70 80h10v10h-10z" fill="#feb9d5"/><path d="m100 80h10v10h-10z" fill="#feb9d5"/><path d="m110 80h10v10h-10z" fill="#e9265c"/><path d="m120 80h20v10h-20z" fill="#ff638d"/><path d="m140 80h40v10h-40z" fill="#feb9d5"/><path d="m180 80h20v10h-20z" fill="#ff638d"/><path d="m200 80h20v10h-20z" fill="#feb9d5"/><path d="m70 90h10v10h-10z" fill="#feb9d5"/><path d="m90 90h10v10h-10z" fill="#feb9d5"/><path d="m100 90h10v10h-10z" fill="#e9265c"/><path d="m110 90h10v10h-10z" fill="#ff638d"/><path d="m120 90h20v10h-20z" fill="#feb9d5"/><path d="m140 90h40v10h-40z" fill="#3a085b"/><path d="m180 90h20v10h-20z" fill="#feb9d5"/><path d="m200 90h10v10h-10z" fill="#ff638d"/><path d="m210 90h10v10h-10z" fill="#e9265c"/><path d="m220 90h10v10h-10z" fill="#feb9d5"/><path d="m70 100h10v10h-10z" fill="#feb9d5"/><path d="m90 100h10v10h-10z" fill="#feb9d5"/><path d="m100 100h10v10h-10z" fill="#ff638d"/><path d="m110 100h10v10h-10z" fill="#feb9d5"/><path d="m120 100h20v10h-20z" fill="#3a085b"/><path d="m140 100h40v10h-40z"/><path d="m180 100h20v10h-20z" fill="#3a085b"/><path d="m200 100h10v10h-10z" fill="#feb9d5"/><path d="m210 100h10v10h-10z" fill="#ff638d"/><path d="m220 100h10v10h-10z" fill="#e9265c"/><path d="m230 100h10v10h-10z" fill="#feb9d5"/><path d="m250 100h10v10h-10z" fill="#feb9d5"/><path d="m50 110h10v10h-10z" fill="#feb9d5"/><path d="m80 110h20v10h-20z" fill="#feb9d5"/><path d="m100 110h10v10h-10z" fill="#ff638d"/><path d="m110 110h10v10h-10z" fill="#feb9d5"/><path d="m120 110h10v10h-10z" fill="#3a085b"/><path d="m130 110h60v10h-60z"/><path d="m190 110h10v10h-10z" fill="#3a085b"/><path d="m200 110h10v10h-10z" fill="#feb9d5"/><path d="m210 110h20v10h-20z" fill="#ff638d"/><path d="m230 110h10v10h-10z" fill="#e9265c"/><path d="m270 110h10v10h-10z" fill="#a28ef4"/><path d="m80 120h10v10h-10z" fill="#e9265c"/><path d="m90 120h20v10h-20z" fill="#feb9d5"/><path d="m110 120h10v10h-10z" fill="#3a085b"/><path d="m120 120h80v10h-80z"/><path d="m200 120h10v10h-10z" fill="#3a085b"/><path d="m210 120h20v10h-20z" fill="#feb9d5"/><path d="m230 120h10v10h-10z" fill="#e9265c"/><path d="m280 120h10v10h-10z" fill="#a28ef4"/><path d="m30 130h10v10h-10z" fill="#a28ef4"/><path d="m90 130h20v10h-20z" fill="#feb9d5"/><path d="m110 130h10v10h-10z" fill="#3a085b"/><path d="m120 130h80v10h-80z"/><path d="m200 130h10v10h-10z" fill="#3a085b"/><path d="m210 130h10v10h-10z" fill="#feb9d5"/><path d="m220 130h10v10h-10z" fill="#ff638d"/><path d="m230 130h10v10h-10z" fill="#feb9d5"/><path d="m240 130h10v10h-10z" fill="#e9265c"/><path d="m280 130h10v10h-10z" fill="#a28ef4"/><path d="m30 140h10v10h-10z" fill="#a28ef4"/><path d="m80 140h10v10h-10z" fill="#feb9d5"/><path d="m90 140h10v10h-10z" fill="#ff638d"/><path d="m100 140h10v10h-10z" fill="#feb9d5"/><path d="m110 140h10v10h-10z" fill="#3a085b"/><path d="m120 140h80v10h-80z"/><path d="m200 140h10v10h-10z" fill="#3a085b"/><path d="m210 140h10v10h-10z" fill="#feb9d5"/><path d="m220 140h10v10h-10z" fill="#ff638d"/><path d="m230 140h10v10h-10z" fill="#feb9d5"/><path d="m40 150h10v10h-10z" fill="#a28ef4"/><path d="m80 150h10v10h-10z" fill="#feb9d5"/><path d="m90 150h10v10h-10z" fill="#ff638d"/><path d="m100 150h10v10h-10z" fill="#feb9d5"/><path d="m110 150h10v10h-10z" fill="#3a085b"/><path d="m120 150h80v10h-80z"/><path d="m200 150h10v10h-10z" fill="#3a085b"/><path d="m210 150h10v10h-10z" fill="#feb9d5"/><path d="m220 150h10v10h-10z" fill="#ff638d"/><path d="m230 150h10v10h-10z" fill="#feb9d5"/><path d="m80 160h10v10h-10z" fill="#feb9d5"/><path d="m90 160h10v10h-10z" fill="#e9265c"/><path d="m100 160h10v10h-10z" fill="#ff638d"/><path d="m110 160h10v10h-10z" fill="#feb9d5"/><path d="m120 160h10v10h-10z" fill="#3a085b"/><path d="m130 160h60v10h-60z"/><path d="m190 160h10v10h-10z" fill="#3a085b"/><path d="m200 160h10v10h-10z" fill="#feb9d5"/><path d="m210 160h20v10h-20z" fill="#ff638d"/><path d="m230 160h10v10h-10z" fill="#e9265c"/><path d="m240 160h10v10h-10z" fill="#feb9d5"/><path d="m60 170h10v10h-10z" fill="#feb9d5"/><path d="m90 170h30v10h-30z" fill="#feb9d5"/><path d="m120 170h20v10h-20z" fill="#3a085b"/><path d="m140 170h40v10h-40z"/><path d="m180 170h20v10h-20z" fill="#3a085b"/><path d="m200 170h20v10h-20z" fill="#feb9d5"/><path d="m220 170h20v10h-20z" fill="#e9265c"/><path d="m250 170h10v10h-10z" fill="#feb9d5"/><path d="m70 180h20v10h-20z" fill="#feb9d5"/><path d="m90 180h20v10h-20z" fill="#e9265c"/><path d="m110 180h10v10h-10z" fill="#ff638d"/><path d="m120 180h20v10h-20z" fill="#feb9d5"/><path d="m140 180h40v10h-40z" fill="#3a085b"/><path d="m180 180h20v10h-20z" fill="#feb9d5"/><path d="m200 180h20v10h-20z" fill="#ff638d"/><path d="m220 180h10v10h-10z" fill="#feb9d5"/><path d="m230 180h10v10h-10z" fill="#e9265c"/><path d="m250 180h10v10h-10z" fill="#feb9d5"/><path d="m100 190h10v10h-10z" fill="#feb9d5"/><path d="m110 190h10v10h-10z" fill="#e9265c"/><path d="m120 190h20v10h-20z" fill="#ff638d"/><path d="m140 190h40v10h-40z" fill="#feb9d5"/><path d="m180 190h10v10h-10z" fill="#ff638d"/><path d="m190 190h10v10h-10z" fill="#feb9d5"/><path d="m200 190h10v10h-10z" fill="#ff638d"/><path d="m210 190h10v10h-10z" fill="#e9265c"/><path d="m220 190h10v10h-10z" fill="#feb9d5"/><path d="m90 200h20v10h-20z" fill="#e9265c"/><path d="m110 200h50v10h-50z" fill="#feb9d5"/><path d="m160 200h30v10h-30z" fill="#ff638d"/><path d="m190 200h10v10h-10z" fill="#feb9d5"/><path d="m200 200h20v10h-20z" fill="#e9265c"/><path d="m240 200h10v10h-10z" fill="#feb9d5"/><path d="m50 210h10v10h-10z" fill="#a28ef4"/><path d="m130 210h10v10h-10z" fill="#feb9d5"/><path d="m150 210h30v10h-30z" fill="#e9265c"/><path d="m180 210h10v10h-10z" fill="#feb9d5"/><path d="m60 220h10v10h-10z" fill="#a28ef4"/><path d="m160 220h10v10h-10z" fill="#feb9d5"/><path d="m260 220h10v10h-10z" fill="#a28ef4"/><path d="m250 230h10v10h-10z" fill="#a28ef4"/><path d="m100 110h60v10h-60z" fill="#068940"/><path d="m170 110h60v10h-60z" fill="#257ced"/><path d="m100 120h10v10h-10z" fill="#068940"/><path d="m110 120h20v10h-20z" fill="#fff"/><path d="m130 120h20v10h-20z"/><path d="m150 120h10v10h-10z" fill="#068940"/><path d="m170 120h10v10h-10z" fill="#257ced"/><path d="m180 120h20v10h-20z" fill="#fff"/><path d="m200 120h20v10h-20z"/><path d="m220 120h10v10h-10z" fill="#257ced"/><path d="m70 130h30v10h-30z" fill="#257ced"/><path d="m100 130h10v10h-10z" fill="#068940"/><path d="m110 130h20v10h-20z" fill="#fff"/><path d="m130 130h20v10h-20z"/><path d="m150 130h10v10h-10z" fill="#068940"/><path d="m160 130h20v10h-20z" fill="#257ced"/><path d="m180 130h20v10h-20z" fill="#fff"/><path d="m200 130h20v10h-20z"/><path d="m220 130h10v10h-10z" fill="#257ced"/><path d="m70 140h10v10h-10z" fill="#257ced"/><path d="m100 140h10v10h-10z" fill="#068940"/><path d="m110 140h20v10h-20z" fill="#fff"/><path d="m130 140h20v10h-20z"/><path d="m150 140h10v10h-10z" fill="#068940"/><path d="m170 140h10v10h-10z" fill="#257ced"/><path d="m180 140h20v10h-20z" fill="#fff"/><path d="m200 140h20v10h-20z"/><path d="m220 140h10v10h-10z" fill="#257ced"/><path d="m70 150h10v10h-10z" fill="#257ced"/><path d="m100 150h10v10h-10z" fill="#068940"/><path d="m110 150h20v10h-20z" fill="#fff"/><path d="m130 150h20v10h-20z"/><path d="m150 150h10v10h-10z" fill="#068940"/><path d="m170 150h10v10h-10z" fill="#257ced"/><path d="m180 150h20v10h-20z" fill="#fff"/><path d="m200 150h20v10h-20z"/><path d="m220 150h10v10h-10z" fill="#257ced"/><path d="m100 160h60v10h-60z" fill="#068940"/><path d="m170 160h60v10h-60z" fill="#257ced"/></svg>