<svg xmlns="http://www.w3.org/2000/svg" width="572" height="572" viewBox="-1 -0.6 572 572" xml:space="preserve"><path fill="#B375FE" d="M317 5h247v346.5H317z"/><path d="M564 4.5H316.5V352h248V4.5h-.5zm-.5 1V351h-246V5.5h246z"/><path fill="#C1C1B9" d="M362.8 220.3c12.5-2 37.8-6.5 46.3 15.5 0 0 11.5 29.3-16.8 41.8s-24 36.5-18.8 46.3 16.5 20 40.8 15c18-1 24.8 9.8 32.8 16.8-.8 12 8.3 79-28 79.3s-73 2.5-73 2.5L298.6 276l64.2-55.7z"/><path d="m362.5 214.2-.7.1c-1.1.2-2.1.7-3 1.4l-64.3 55.5c-1.8 1.5-2.5 4-1.8 6.2l47.5 161.5c.8 2.7 3.3 4.5 6.1 4.3.4 0 37-2.2 72.7-2.5 8.3-.1 15.3-3 20.7-8.7 15.3-15.9 14-49.7 13.4-67.8-.1-3.7-.2-6.8-.2-8.4.1-1.8-.8-3.7-2-4.9l-4-3.8c-7-6.9-15.6-15.4-33-14.4-.3 0-.6.1-.9.1-16.6 3.4-28.1-.6-34.3-12-2.5-4.7-4.5-13-1.8-20.9 2.5-7.2 8.4-12.9 17.7-17 26.5-11.7 24.6-37.5 19.9-49.4-10-26-39.4-21.3-52-19.3zm40.9 23.7c.9 2.5 8.6 24.3-13.6 34.1-12.5 5.5-20.6 13.6-24.2 24.1-4 11.5-1.3 23.3 2.6 30.5 5 9.3 17.7 23.9 46.7 18.1 11.9-.6 17.4 4.8 23.7 11 0 0 1.2 1.2 2.4 2.3 0 1.8.1 4 .2 6.6.1 3.8.3 8.7.3 14 0 15.9-1.6 35.9-10.4 45.1-3.2 3.3-7.2 5-12.1 5-28.5.2-57.4 1.6-68.5 2.2-2.5-8.4-43-146.4-45.1-153.2 5.2-4.5 57.6-49.8 60-51.8 15.4-2.4 32.1-3.4 38 12zM441 355.4v-.3.3z"/><path fill="#FBFD76" d="m314 273.2 74.7 291.3h-168l-44-166L274 281.8z"/><path d="m312.7 267.3-40 8.7c-1.3.3-2.5 1-3.3 2l-97.3 116.7c-1.2 1.5-1.7 3.5-1.2 5.4l44 166c.7 2.6 3.1 4.5 5.8 4.5h168c1.9 0 3.6-.9 4.7-2.3 1.1-1.5 1.5-3.4 1.1-5.2l-74.7-291.3c-.8-3.2-3.9-5.2-7.1-4.5zm-3.1 13c2.7 10.5 67.7 264.3 71.3 278.2H225.2c-2.2-8.3-40.5-152.9-42-158.5 3.8-4.5 91.5-109.7 94-112.7 3.2-.7 24.6-5.3 32.4-7z"/><path fill="#74736E" d="M190.5 426.5C212 448 269.5 438 262 383c4 33.5 18.5 51 45.5 51-4.5 27.5 14.5 65.5 63.5 63-11-43.5-51.5-200-51.5-200H287l-96.5 129.5z"/><path d="M287 291c-1.9 0-3.7.9-4.8 2.4l-96.5 129.5c-1.8 2.4-1.5 5.7.6 7.8 13.2 13.2 37.4 16.2 56.2 6.8 10.3-5.1 17.8-13.1 22-23.3 7.6 15.1 19.8 23.6 36.4 25.3 0 .8-.1 1.6-.1 2.4 0 14.6 5.5 29.5 15.4 40.5 9.1 10.1 26 21.9 55.1 20.4 1.8-.1 3.5-1 4.5-2.4s1.4-3.3 1-5c-10.9-43-51.1-198.5-51.5-200-.7-2.6-3.1-4.5-5.8-4.5H287zm27.9 12c6.3 24.4 36.8 142.1 48.4 188-15.9-.7-29-6.2-38.1-16.4-7.9-8.8-12.3-20.8-12.3-32.4 0-2.4.2-4.8.6-7.1.1-.3.1-.6.1-1 0-1.4-.5-2.8-1.4-3.9-1.1-1.3-2.8-2.1-4.6-2.1-14.6 0-34.6-4.7-39.5-45.7v.1-.2c-.4-3.3-3.4-5.6-6.7-5.1-3 .4-5.2 3-5.2 5.9V383.9c3.7 27.4-10.2 38.7-18.9 43-12.4 6.2-28.2 5.4-38.4-1.4 6.3-8.4 87.9-118 91.3-122.5h24.7z"/><path fill="#FBFD76" d="M301 329.3h72c15 2.3 15.3 27-1.8 27h-33.5c16 0 29.8-1.8 30 12.8 0 17.8-18 14-36.8 14h-69l39.1-53.8z"/><path d="M301 323.3c-1.9 0-3.7.9-4.9 2.5l-39 53.8a6.02 6.02 0 0 0-.5 6.2c1 2 3.1 3.3 5.3 3.3h69l8.3.2c11.6.4 22.5.7 29.1-5.8 3.5-3.4 5.3-8.3 5.3-14.4 0-2.7-.5-4.9-1.1-6.9 9.6-.6 16.7-7.5 17.5-17.4 0-.5.1-1 .1-1.5 0-8.7-5.5-18.3-16.2-19.9-.3 0-.6-.1-.9-.1h-72zm71.4 12c4.3.8 5.8 4.9 5.8 8v.7c-.2 2.4-1.3 6.4-6.9 6.4H351c-2.7-.1-5.6-.1-8.6 0h-4.6c-3.3 0-6 2.7-6 6s2.7 6 6 6h11.7c10.9.3 12.3 2 12.3 6.9 0 4-1.3 5.3-1.7 5.7-3 2.9-11.9 2.7-20.4 2.4l-8.7-.4h-57.2c8.8-12.2 27.6-38.1 30.3-41.8 5.5.1 67.1.1 68.3.1z"/><path fill="#FAF9E4" d="M6 87.8h321.5s41.5 156.3 50 185.8C377 300.5 361 298 340 298h-53L88 563.7 6 564V87.8z"/><path d="M6 81.8c-3.3 0-6 2.7-6 6V564c0 1.6.6 3.1 1.8 4.3S4.4 570 6 570l82-.3c1.9 0 3.6-.9 4.8-2.4 0 0 193.7-258.5 197.2-263.3h54.9c17.8.2 38.1.4 38.6-30.4 0-.6-.1-1.2-.2-1.8-8.4-29.1-49.6-184.1-50-185.6-.7-2.6-3.1-4.5-5.8-4.5H6zm316.9 12c6.8 25.4 40.5 152.2 48.6 180.5-.6 18-7.7 18-26.5 17.8h-58c-1.9 0-3.7.9-4.8 2.4 0 0-193.7 258.6-197.2 263.3-5.1 0-63.1.3-73 .3V93.9c11.4-.1 302.1-.1 310.9-.1z"/><path fill="#52C07B" d="m6.4 468.3.5 95.8 213.8.4L184 429.8h-74L6.4 468.3"/><path d="M110 423.8c-.7 0-1.4.1-2.1.4L4.3 462.7h-.1c-.5.2-1 .5-1.4.8-.1.1-.2.2-.3.2-.4.3-.7.7-1 1.1l-.1.1c-.3.4-.5.9-.7 1.4 0 .1-.1.2-.1.4-.1.5-.2 1-.2 1.6l.5 95.8c0 3.3 2.7 6 6 6l213.8.4c1.9 0 3.6-.9 4.8-2.4 1.1-1.5 1.5-3.4 1-5.2l-36.7-134.7c-.7-2.6-3.1-4.4-5.8-4.4h-74zm69.4 12c2.1 7.8 29.8 109.6 33.4 122.7-14.2 0-189.2-.3-200-.4-.1-10-.4-78.5-.4-85.6 7.2-2.7 96.8-36 98.7-36.7h68.3z"/><path d="M180.7 428 83.9 560.7c-1.3 1.8-1.5 4.2-.5 6.3s3.1 3.3 5.3 3.3h131.5c1.9 0 3.6-.9 4.7-2.3s1.5-3.4 1.1-5.2L191.3 430c-.6-2.2-2.4-3.9-4.7-4.4-2.2-.4-4.6.5-5.9 2.4zm2.2 17.3c5 18.9 26.4 100.9 29.6 113H100.6c10.9-15.1 70.6-97 82.3-113z"/><path fill="#C1C1B9" d="M336.5 6.5C353 18 348 53 321.5 57H7c0-17 .5-40 .5-51l329 .5z"/><path d="m1.5 6-.2 20.2C1.2 36.2 1 47.5 1 57c0 3.3 2.7 6 6 6h314.5c.3 0 .6 0 .9-.1 14.2-2.1 25.2-12.5 28.6-27 3.2-13.7-1.2-27.5-11-34.3-1-.7-2.2-1.1-3.4-1.1L7.5 0c-3.3 0-5.9 2.7-6 6zm11.8 20.4s.1-8.4.1-14.3c11.4 0 316.8.5 320.9.5 3.6 3.3 5.6 8.7 5.6 14.6 0 2-.2 4-.7 6.1-2.3 9.7-9.1 16.3-18.4 17.8H12.9c.2-8.1.3-16.8.4-24.7z"/><path fill="#FBFD76" d="M7 57h348c23.5-1 22.5 31.5 1.5 30.5L6 87.8 7 57z"/><path d="M355 51H7c-3.2 0-5.9 2.6-6 5.8L0 87.6v.2c0 1.6.6 3.1 1.7 4.2 1.1 1.2 2.7 1.8 4.3 1.8l350.5-.3c8.1.3 14.9-3.2 18.8-9.7 4.1-6.9 4.2-15.7.1-22.5-4-6.9-11.4-10.6-20.4-10.3zm0 12h.3c4.6-.2 8 1.3 9.9 4.4 1.8 3 1.8 7.2-.1 10.2-1.2 1.9-3.5 4.2-8.3 3.9h-.3s-332.3.2-344.3.2c.2-6 .4-13 .6-18.7H355z"/><path fill="#74736E" d="M6 87.8s204 .1 222 .1c-2.3 10.8-16.7 16-26.7 16.3s-28.7-6.7-42.3 16.3c-7.7 19 1.3 33 9.3 38.3 6 5.3 22.7 6.7 29.3 25.7 3.7 13.7-2.7 34.7-20.7 39.7s-30-9-50.3 13.7c0 0-15 23.3 8 42.7 9.7 8.3 27 7.7 30.3 32 2.3 10.7-9.7 34-29 34.3-8.7 2.7-26-10.3-44 13-11 21 .3 40 13 45.3s24.3 12.3 26.7 31c1.3 17-11 32.7-30 32.3l-95.3-.2L6 87.8z"/><path d="M1.8 83.5C.6 84.6 0 86.2 0 87.8l.3 380.6c0 3.3 2.7 6 6 6l95.3.2c10.2.2 19.6-3.7 26.4-10.9 6.3-6.7 9.7-15.6 9.7-25 0-1 0-2-.1-3v-.3c-2.7-21.4-16.1-29.8-30.3-35.8-5.3-2.2-10-7.5-12.2-13.8-.8-2.4-1.5-5.4-1.5-8.9 0-4 .9-8.7 3.6-13.9 10.6-13.4 19.8-12 28.7-10.6 3.8.6 7.5 1.1 10.9.3 9.5-.4 18.5-5.3 25.3-13.9 5.8-7.3 9.2-16.2 9.2-23.5 0-1.5-.1-2.9-.4-4.2 0 .2.1.3.1.5-2.8-20.6-15.1-26.5-24-30.8-3.2-1.5-6.2-3-8.4-4.9-8.4-7.1-10.8-14.6-10.8-20.9 0-6.7 2.7-11.9 3.7-13.6 11.1-12.2 18.2-11.6 28-10.7 5.6.5 11.9 1.1 19.2-.9 17-4.7 26.1-21.7 26.1-37.4 0-3.3-.4-6.6-1.2-9.7 0-.1-.1-.3-.1-.4-5.6-16-17.4-21.4-25.2-25-2.5-1.1-4.8-2.2-5.8-3.1-.2-.2-.4-.4-.7-.5-4.2-2.8-9.6-9.4-9.6-19.1 0-3.4.7-7.3 2.3-11.5 9.2-15.2 20.3-14.2 30.2-13.4 2.5.2 4.8.4 7 .3 11.2-.4 29.1-6.3 32.3-21.1.4-1.8-.1-3.6-1.2-5-1.1-1.4-2.9-2.2-4.7-2.2L6 81.8c-1.6 0-3.1.6-4.2 1.7zM12 93.8c10.7 0 183 .1 204 .1-4.4 2.7-10.3 4.2-14.8 4.3-1.5 0-3.4-.1-5.5-.3-10.7-.9-28.7-2.5-41.8 19.6-.2.3-.3.5-.4.8-8.3 20.5.2 38 11.6 45.6-.2-.2-.5-.3-.7-.5 2.4 2.1 5.5 3.5 8.8 5.1 7 3.2 14.9 6.9 18.8 17.9.5 1.9.8 4 .8 6.2 0 10.3-5.4 22.6-17.3 25.9-5.1 1.4-9.8 1-14.8.5-10.8-1-23-2.2-38.4 14.9-.2.2-.4.5-.6.8-6.2 9.6-12.2 32.5 9.2 50.5 3.3 2.8 7.2 4.7 10.9 6.5 8.3 4 15.4 7.5 17.4 21.7 0 .2 0 .3.1.5.8 3.7-1.4 11.3-6.4 17.6-2.7 3.5-8.5 9.3-16.8 9.4-.6 0-1.1.1-1.7.3-1.1.3-4-.1-6.5-.5-9.5-1.5-25.4-4-40.5 15.6l-.6.9c-3.4 6.5-5.1 13.3-5.1 20 0 4.4.7 8.7 2.2 12.8 3.4 9.5 10.5 17.3 18.9 20.8 13.2 5.5 21.2 11.6 23 26.1 0 .6.1 1.3.1 1.9 0 6.3-2.3 12.3-6.5 16.7-3.1 3.3-8.7 7.2-17.5 7.1 0 0-78.9-.1-89.4-.2-.2-11.5-.5-357.2-.5-368.6z"/><path fill="#C1C1B9" d="M6 87.8h75c-6.5 8.8-10 32.3 2.5 43.8 8.5 9.5 29.5 7 34 29.5 3.5 18.5-5 41-31 40-20.5-6-35 5.5-40 13 0 0-14 24.5 9 43 8 8.5 20 4.5 29.5 25.5 7 22.5-12.5 38.5-26.5 39S22 317 12 338.5c-8 27.5 5 36 15.5 43 4 3.5 25 5.5 25 34.5-2.3 30.8-35.3 28.5-46.3 26.5 0-5 .4-260 .4-267.3 13.7-.3 26-8.3 30.7-22.7S36 124.8 25 118.8c-14.6-9-19.3-18.3-19-31z"/><path d="M6 81.8c-3.3 0-5.9 2.6-6 5.8-.4 15.8 6.1 26.7 21.9 36.4.1.1.2.1.3.2 9.2 5 13 15.7 9.5 26.5-3.6 11.1-13.2 18.2-25.1 18.5-3.3.1-5.8 2.7-5.9 6L.3 442.5c0 2.9 2.1 5.4 4.9 5.9 6 1.1 26.9 3.8 40.9-7 7.4-5.7 11.6-14.1 12.4-24.9v-.4c0-27.2-16.6-34.4-24.5-37.9-1-.4-2.3-1-2.7-1.2l.1.1c-.1-.1-.5-.4-.6-.5l-.2-.1c-7.7-5.2-15.2-10.1-15.2-22.6 0-3.7.7-8 2.1-13.1 6.2-13 17.6-13.7 33.1-13.3 2.8.1 5.5.2 8 .1 10.1-.4 20.8-6.5 27.3-15.8 4.2-6 6.4-12.8 6.4-19.9 0-3.7-.6-7.4-1.7-11.1-.1-.2-.2-.5-.3-.7-7.1-15.7-15.9-19.5-22.9-22.6-3.2-1.4-5.7-2.5-7.7-4.6l-.6-.6c-8.6-6.9-11-14.8-11-21.4 0-7.1 2.7-12.6 3.3-13.7 4-5.9 16-15.5 33.2-10.4.5.1 1 .2 1.5.2 15.2.6 24.1-5.9 28.9-11.5 7.7-8.9 10.8-22.2 8.2-35.6-3.6-17.8-16.1-23-25.3-26.8-4.3-1.8-8-3.3-10.1-5.6l-.4-.4c-9.7-8.9-6.9-28.8-1.7-35.8 1.4-1.8 1.6-4.2.5-6.3-1-2-3.1-3.3-5.4-3.3H6zm65.6 12c-1.5 4.7-2.4 10.1-2.4 15.6 0 9.5 2.7 19.4 9.9 26.2 3.9 4.3 9.2 6.5 14.4 8.6 8.5 3.5 15.8 6.5 18.1 18 .4 2.3.6 4.6.6 6.8 0 7.2-2.2 14-6.2 18.7-4.4 5.1-10.7 7.5-18.8 7.3-23.6-6.4-40.3 7.3-45.8 15.7-.1.1-.1.2-.2.4-5.7 10-10.9 33.5 10.4 50.7l-.6-.6c3.7 3.9 7.9 5.7 11.7 7.4 5.9 2.5 11.4 5 16.6 16.1.8 2.6 1.1 5 1.1 7.2 0 5.6-2.1 10-4.2 13-5 7.1-12.8 10.5-18 10.7-2.2.1-4.6 0-7.3-.1-11.4-.3-27.7-.7-38.6 11.5 0-2.7.2-136.3.2-146.3 14.4-2.4 25.7-12 30.4-26.2 1.3-3.9 1.9-7.8 1.9-11.6 0-12.2-6.2-23.3-17-29.2.1 0 .2.1.3.2-10.9-6.7-14.8-12.9-15.8-20 9.2-.1 46.4-.1 59.3-.1zM12.4 377.1c3.7 4 8 6.8 11.7 9.3l.2.1c-.2-.1-.4-.3-.6-.5 1.5 1.3 3.4 2.1 5.6 3.1 6.9 3 17.2 7.5 17.3 26.7-.6 7.2-3.1 12.5-7.7 16.1-7.8 6-19.6 6-26.5 5.4-.1-5.3-.1-30.8 0-60.2zm67.1-241.2-.3-.3-.1-.1c.1.1.2.3.4.4z"/><path fill="#C1C1B9" d="M330.7 98.5c13.3-.8 37.3-.7 44 24.7s-16 36-28 38.7c-2-10.7-12-48.7-16-63.4z"/><path d="M330.3 92.5c-1.8.1-3.5 1-4.5 2.5s-1.4 3.3-.9 5.1c3.9 14.2 13.9 52.4 15.9 62.9.3 1.6 1.2 3 2.6 3.9 1.4.9 3 1.2 4.6.8 4.8-1.1 21-5.6 29.3-19.2 4.8-7.8 5.8-16.8 3.2-26.9-8.4-31.7-39.8-29.7-50.2-29.1zm8.2 11.8c12.9.2 26.1 3.9 30.4 20.4.7 2.6 1 5 1 7.3 0 3.8-.9 7.2-2.8 10.3-3.5 5.7-9.8 9.6-15.9 11.9-3-13-9.1-36.1-12.7-49.9z"/><path fill="#FAF9E4" d="M481 277.5V206c0-17.5 4-26 19-26s20 7.5 20 24.5V279l-39-1.5z"/><path d="M475 206v71.5c0 3.2 2.5 5.9 5.8 6l39 1.5c1.6.1 3.2-.5 4.4-1.7 1.2-1.1 1.8-2.7 1.8-4.3v-74.5c0-14.2-3-30.5-26-30.5-22 0-25 16.2-25 32zm12 0c0-18.7 4.9-20 13-20 9.7 0 14 2.7 14 18.5v68.3c-7.2-.3-20.2-.8-27-1V206z"/><path fill="#FAF9E4" d="M564 440.3s-95-68.3-122-88.8v-45c0-22 14.5-29 40.5-27.5 31.5 0 28 20 28 20-2 22-18.5 24-26 23.5 5 1 9 .5 14.5 0 4.5 8.5 16.5 11.5 22.5 11-17 0-20 11.5-20 16s2 17 19 17H564v73.8z"/><path d="M445 282.2c-6 5.6-9 13.8-9 24.3v45c0 1.9.9 3.6 2.4 4.8 26.8 20.3 121.2 88.2 122.1 88.8 1.8 1.3 4.2 1.5 6.2.5s3.3-3.1 3.3-5.3v-73.8c0-3.3-2.7-6-6-6h-43.5c-11.3 0-13-6.9-13-11 0-1.7.7-10 14-10h.5c3.1-.3 5.5-2.9 5.5-6v-.3c-.1-3.2-2.8-5.8-6-5.8h-.5c-3.6.3-11-1.4-15-5.5 5.4-4.5 9.3-11.6 10.4-22 .1-.3.2-1.3.2-2.8 0-3.3-.8-8.8-5.1-14-5.7-6.8-15.5-10.3-29-10.3h.3c-18-.8-30 2.1-37.8 9.4zm3 24.3c0-7.2 1.7-12.3 5.3-15.6 5.1-4.8 14.5-6.7 28.9-5.9h.3c9.6 0 16.4 2 19.7 5.8 2.8 3.3 2.4 7.1 2.3 7.2v.4c-1.5 16.7-12.9 18.5-19.6 18.1-3.2-.2-5.9 2.1-6.3 5.2-.4 3.1 1.7 6.1 4.8 6.7 4.6.9 8.5.8 12.7.4 1.7 2.2 3.9 4 6.1 5.4-5 4.8-6.6 11.1-6.6 15.3 0 11.4 7.7 23 25 23h37.5v56c-23.9-17.2-86.3-62.2-110-80-.1-5.2-.1-42-.1-42z"/><path fill="#FAF9E4" d="M563.8 262h-44.3c-6.5 0-19.3 2.5-19.3 17.5 5 4.3 10.5 8.5 10.8 17.3s-.3 15-11.8 23.8c6.3 12.5 18.5 13.3 24.5 13-15 0-22.3 5.8-22.3 16s5 17 25.3 17H564c0-11.1-.2-104.6-.2-104.6z"/><path d="M519.5 256c-11.6 0-25.3 6.2-25.3 23.5 0 1.8.8 3.4 2.1 4.6l.7.6c5 4.2 7.8 6.9 7.9 12.3 0 1 .1 1.9.1 2.8 0 5.6-1.1 9.7-9.4 16-1.5 1.2-2.4 3-2.4 4.8 0 .9.2 1.8.6 2.7 2.1 4.3 5.1 7.8 8.7 10.4-6.1 5.1-7.1 12-7.1 15.9 0 23 23.5 23 31.3 23H564c1.6 0 3.1-.6 4.2-1.8 1.1-1.1 1.8-2.7 1.8-4.2l-.2-104.6c0-3.3-2.7-6-6-6h-44.3zm0 12h38.3c0 10 .2 82.5.2 92.5h-31.2c-19.3 0-19.3-6.1-19.3-11 0-3 0-10 16.2-10h.3c3.2-.1 5.8-2.8 5.8-6v-.1c-.1-3.3-2.7-5.9-6-5.9h-.3c-7.2.3-12.6-1.7-16.3-5.9 8.5-7.9 9.8-14.8 9.8-22.5v-2.6c-.3-9.8-5.8-15.5-10.5-19.6 1.2-7.2 7.6-8.9 13-8.9z"/><path d="M513.8 290.5c-3.3 0-6 2.7-6 6s2.7 6 6 6h47.8c3.3 0 6-2.7 6-6s-2.7-6-6-6h-47.8zM520 327.8c-3.3 0-6 2.7-6 6s2.7 6 6 6h43.5c3.3 0 6-2.7 6-6s-2.7-6-6-6H520z"/><path fill="#52C07B" d="M442 349s-1 42.5-5 59-20 20-31 20.5-52 0-52 0L388.5 563H564V435.5L442 349z"/><path d="M439.3 343.6c-2 1-3.3 3-3.3 5.2 0 .4-1 42-4.8 57.7-2.4 9.9-11 15.3-25.4 15.9-10.7.5-51.2 0-51.7 0-1.9 0-3.6.8-4.8 2.3s-1.6 3.4-1.1 5.2l34.5 134.5c.7 2.7 3.1 4.5 5.8 4.5H564c3.3 0 6-2.7 6-6V435.5c0-1.9-.9-3.8-2.5-4.9l-122-86.5a6.02 6.02 0 0 0-6.2-.5zm-33 90.9c19.9-.9 32.9-9.8 36.6-25.1 2.8-11.7 4.2-35.1 4.8-49.1 15.2 10.8 105.9 75.1 110.4 78.3V557H393.3c-2-7.9-28.1-109.4-31.4-122.4 12.4.1 36.2.3 44.4-.1z"/><path d="M558.6 491.7c-2.6 18.5-24.3 30.7-37.7 29.8H450.1c-1.8-6.8-7.8-30-7.8-30-.8-3.2-4.1-5.1-7.3-4.3-3.2.8-5.1 4.1-4.3 7.3l17.5 70.5c.7 2.7 3.1 4.6 5.9 4.6l110-.5c3.3 0 5.9-2.7 6-5.9 0-.4.5-43.3.5-70.6 0-3.2-2.4-5.8-5.6-6-3.2-.3-6 2-6.4 5.1zm-.2 25.3c-.1 16-.3 31.8-.3 40.1-10.1 0-91.2.4-99.4.5-.7-2.9-3.1-12.4-6-24h67.8-.4c12.9.7 28-5.8 38.3-16.6z"/><circle fill="#FBFD76" cx="248.7" cy="202.5" r="28.7"/><path d="M224.2 178c-6.5 6.5-10.2 15.3-10.2 24.5s3.6 18 10.2 24.5c6.5 6.5 15.3 10.2 24.5 10.2 19.1 0 34.7-15.6 34.7-34.7s-15.6-34.7-34.7-34.7c-9.3 0-18 3.6-24.5 10.2zm8.5 40.5c-4.3-4.3-6.6-10-6.6-16 0-6.1 2.4-11.7 6.6-16 4.3-4.3 10-6.6 16-6.6 12.5 0 22.7 10.2 22.7 22.7s-10.2 22.7-22.7 22.7c-6.1-.1-11.8-2.5-16-6.8z"/><path d="M228 143c-2.9 0-5.5 2.1-5.9 5.1l-7.5 47c-.5 3.3 1.7 6.3 5 6.9 3.3.5 6.3-1.7 6.9-5 0 0 5.4-33.9 6.7-41.9h26.4c3.3 0 6-2.7 6-6s-2.7-6-6-6H228z"/><path fill="#FBFD76" d="M443 7c-53.5 38.5-48 97.5-27 128s56 43.5 81.5 39.5c28.5-2 55.5-19.5 67-36C564.5 91.5 563 7 563 7H443z"/><path d="M443 1c-1.3 0-2.5.4-3.5 1.1-32.2 23.2-41.6 51.5-43.9 71.2-2.6 22.9 3.1 47.2 15.5 65.1 23.7 34.4 61.5 45.9 86.9 42.1 30.8-2.2 59.2-21 71.4-38.5.7-1 1.1-2.2 1.1-3.4C570.5 92 569 7.7 569 6.9c0-3.3-2.7-5.9-6-5.9H443zm114.1 12c.3 19.7 1.4 84 1.4 123.5-10.9 14.4-35.5 30.2-61.4 32-.2 0-.3 0-.5.1-22.5 3.5-55.7-8-75.6-37-9-13.1-14-30.2-14-47.2 0-3.3.2-6.5.6-9.7 2-17 10.1-41.3 37.5-61.7h112z"/><path d="M466 35c-3.3 0-6 2.7-6 6s2.7 6 6 6h42.5c4.9 0 12 4.1 12 11.5 0 7-3.1 14-10 14-3.2 0-5.8 2.5-6 5.7s2.2 6 5.4 6.3c7 .7 10.6 4.9 10.6 12.5 0 7.3-2.3 11-15 11H466c-3.3 0-6 2.7-6 6s2.7 6 6 6h39.5c17.9 0 27-7.7 27-23 0-8.6-3.1-14.6-7.4-18.6 4.6-4.7 7.4-11.7 7.4-19.9 0-14.1-12.4-23.5-24-23.5H466z"/><path d="M471 24.5v111c0 3.3 2.7 6 6 6s6-2.7 6-6v-111c0-3.3-2.7-6-6-6s-6 2.7-6 6z"/><path d="M480.5 72.5c-3.3 0-6 2.7-6 6s2.7 6 6 6h30c3.3 0 6-2.7 6-6s-2.7-6-6-6h-30zM489 23.5V40c0 3.3 2.7 6 6 6s6-2.7 6-6V23.5c0-3.3-2.7-6-6-6s-6 2.7-6 6zM489 116v17c0 3.3 2.7 6 6 6s6-2.7 6-6v-17c0-3.3-2.7-6-6-6s-6 2.7-6 6z"/><path d="M564.5.2H.7V570h569.8V.2h-6zm-6 12V558H12.7V12.2h545.8z"/><path d="M558.5 541c0 15.4-6.1 17-20 17-3.3 0-6 2.7-6 6s2.7 6 6 6c11.2 0 32 0 32-29 0-3.3-2.7-6-6-6s-6 2.7-6 6zM535.5 6c0 3.3 2.7 6 6 6 15.4 0 17 6.1 17 20 0 3.3 2.7 6 6 6s6-2.7 6-6c0-11.2 0-32-29-32-3.3 0-6 2.7-6 6zM7.9 7.2C3.1 12 .8 19.1.8 29c0 3.3 2.7 6 6 6s6-2.7 6-6c0-6.5 1.2-10.9 3.6-13.3 3-3 8.7-3.7 16.4-3.7 3.3 0 6-2.7 6-6s-2.7-6-6-6C24.2 0 14.5.6 7.9 7.2zM.6 538c0 11.2 0 32 29 32 3.3 0 6-2.7 6-6s-2.7-6-6-6c-15.4 0-17-6.1-17-20 0-3.3-2.7-6-6-6s-6 2.7-6 6z"/></svg>