<svg xmlns="http://www.w3.org/2000/svg" xmlns:xlink="http://www.w3.org/1999/xlink" width="2474" height="1394" viewBox="0 0 2474 1394">
  <defs>
    <linearGradient id="linear-gradient" x1="0.144" y1="0.408" x2="0.859" y2="0.574" gradientUnits="objectBoundingBox">
      <stop offset="0" stop-color="#ff933a"/>
      <stop offset="1" stop-color="#ff672b"/>
    </linearGradient>
  </defs>
  <g id="OG" transform="translate(-14877 -775)">
    <g id="组_7026" data-name="组 7026" transform="translate(5861 -400)">
      <path id="路径_8272" data-name="路径 8272" d="M76,0H2398a76,76,0,0,1,76,76V1318a76,76,0,0,1-76,76H76a76,76,0,0,1-76-76V76A76,76,0,0,1,76,0Z" transform="translate(9016 1175)" fill="#050402"/>
      <path id="减去_40" data-name="减去 40" d="M7418.316,3341.221h-78.17l955.686-955.563-258.511-258.475h78.173L8374,2385.658l-955.688,955.563ZM7239,3274.894h0v-95.949l793.39-793.287L7773.88,2127.183h95.964l258.51,258.475L7239,3274.894Zm0-220.3h0V2875.932l490.337-490.274-258.507-258.475h178.684l258.51,258.475L7239,3054.594Z" transform="translate(1866.998 -862.202)" fill="#150b08"/>
      <path id="减去_44" data-name="减去 44" d="M179.315,1214.038h-78.17l955.686-955.562L798.32,0h78.173L1135,258.475,179.315,1214.038ZM0,1147.711H0v-95.949l793.39-793.286L534.879,0h95.964l258.51,258.475L0,1147.711Zm0-220.3H0V748.75L490.337,258.475,231.831,0H410.514l258.51,258.475L0,927.411Z" transform="translate(11403.005 2479.019) rotate(180)" fill="#150b08"/>
      <path id="减去_21" data-name="减去 21" d="M2398,1394H76a75.647,75.647,0,0,1-42.492-12.979,76.215,76.215,0,0,1-27.535-33.438A75.523,75.523,0,0,1,0,1318V76A75.649,75.649,0,0,1,12.98,33.508,76.218,76.218,0,0,1,46.417,5.973,75.522,75.522,0,0,1,76,0H2398a75.651,75.651,0,0,1,42.493,12.979,76.225,76.225,0,0,1,27.535,33.438A75.522,75.522,0,0,1,2474,76V1318a75.645,75.645,0,0,1-12.98,42.493,76.217,76.217,0,0,1-33.438,27.535A75.523,75.523,0,0,1,2398,1394ZM99,34A62.07,62.07,0,0,0,37,96V1298a62.07,62.07,0,0,0,62,62H2375a62.07,62.07,0,0,0,62-62V96a62.07,62.07,0,0,0-62-62Z" transform="translate(9016 1175)" fill="#d26834"/>
      <path id="减去_36" data-name="减去 36" d="M2283,1252H50a49.959,49.959,0,0,1-50-50V50A49.959,49.959,0,0,1,50,0H2283a49.959,49.959,0,0,1,50,50V1202a49.958,49.958,0,0,1-50,50ZM56.892,19.536a37.042,37.042,0,0,0-37,37V1195.464a37.042,37.042,0,0,0,37,37H2276.109a37.042,37.042,0,0,0,37-37V56.536a37.042,37.042,0,0,0-37-37Z" transform="translate(9087 1246)" fill="#d26834" opacity="0.36"/>
    </g>
    <text id="iDclub" transform="translate(15959 1994)" fill="#ff602b" font-size="87" font-family="AlternoxBold, Alternox"><tspan x="0" y="0">iDclub</tspan></text>
    <path id="交叉_21" data-name="交叉 21" d="M1978.912,1106.058V898.328H1746.086l50.934-101.84h290.007v309.57Zm-208.094,0c-138.365,0-204.046-90.4-204.046-200.349v-116.6c0-109.949,65.681-200.349,204.046-200.349H2082.6l-50.92,101.84H1821c-66.047,0-146.11,10.336-146.11,115.86v81.9c0,105.524,80.064,115.86,146.11,115.86H1950.51l-50.92,101.84Zm-629.628,0c-138.365,0-204.046-90.4-204.046-200.349v-116.6c0-109.949,65.681-200.349,204.046-200.349H1269.6c138,0,204.046,90.022,204.046,200.349v116.6c0,110.314-66.046,200.349-204.046,200.349Zm-95.918-299.6v81.9c0,105.524,80.064,115.86,146.109,115.86h28.038c65.669,0,146.11-10.336,146.11-115.86v-81.9c0-105.524-80.428-115.86-146.11-115.86H1191.38C1125.335,690.6,1045.271,700.934,1045.271,806.458Z" transform="translate(14601.249 624.85)" fill="url(#linear-gradient)"/>
  </g>
</svg>
