<?xml version="1.0" encoding="UTF-8"?><svg xmlns="http://www.w3.org/2000/svg" viewBox="0 0 198.3 340.12"><defs><style>.k,.l,.m,.n,.o{fill:none;stroke-miterlimit:10;}.k,.n{stroke:lime;}.p{fill:#0a0b00;}.q{mix-blend-mode:soft-light;}.q,.r,.s{fill:lime;}.t{isolation:isolate;}.l,.m{stroke-width:.5px;}.l,.o{stroke:#f2f2f2;}.r{opacity:.22;}.m{stroke:#999;}.u{fill:#999;}.s{opacity:.95;}.n{opacity:.78;}.v{mix-blend-mode:multiply;}.w{fill:#f2f2f2;}</style></defs><g class="t"><g id="b"><g id="c"><g id="d"><rect class="w" width="198.3" height="340.12" rx="1.34" ry="1.34"/><path class="p" d="m6.93,333.47c-1.16,0-2.1-.87-2.1-1.95V8.61c0-1.08.94-1.95,2.1-1.95h184.44c1.16,0,2.1.87,2.1,1.95v322.92c0,1.08-.94,1.95-2.1,1.95"/><rect class="l" x="7.73" y="9.5" width="182.83" height="321.11" rx="1.34" ry="1.34"/><line id="e" class="o" x1="3.93" y1="296.91" x2="194.37" y2="296.91"/><path class="w" d="m36.38,309.12h.64l3.22,9.09h-.68l-1.82-5.35c-.37-1.08-.69-2.03-1.01-3.14h-.05c-.32,1.11-.64,2.06-1.01,3.14l-1.85,5.35h-.65l3.22-9.09Zm-1.75,5.44h4.09v.54h-4.09v-.54Z"/><path class="w" d="m44.71,309.66h-3.18v-.55h7v.55h-3.18v8.54h-.64v-8.54Z"/><path class="w" d="m50.17,317.82l5.58-8.18h-5.1v-.54h5.88v.38l-5.59,8.17h5.68v.55h-6.44v-.38Z"/><path class="w" d="m59.01,317.66h2.35v-7.99h-2.35v-.55h5.34v.55h-2.35v7.99h2.35v.55h-5.34v-.55Z"/><path class="w" d="m67.93,309.12h.62v8.54h4.78v.55h-5.39v-9.09Z"/><path class="w" d="m75.4,314.81v-5.69h.64v5.62c0,2.33,1.07,3.06,2.29,3.06s2.32-.73,2.32-3.06v-5.62h.61v5.69c0,2.75-1.4,3.57-2.93,3.57s-2.94-.81-2.94-3.57Z"/><path class="w" d="m86.34,309.66h-3.18v-.55h7v.55h-3.18v8.54h-.64v-8.54Z"/><path class="w" d="m92.05,309.12h.64v3.98h4.58v-3.98h.64v9.09h-.64v-4.55h-4.58v4.55h-.64v-9.09Z"/><path class="w" d="m111.35,307.86h.56v13.79h-.56v-13.79Z"/><path class="w" d="m125.89,309.12h5.41v.55h-4.77v3.44h4.01v.55h-4.01v4.01h4.91v.55h-5.55v-9.09Z"/><path class="w" d="m136.29,309.12h.64l3.22,9.09h-.68l-1.82-5.35c-.37-1.08-.69-2.03-1.01-3.14h-.05c-.32,1.11-.64,2.06-1.01,3.14l-1.85,5.35h-.65l3.22-9.09Zm-1.75,5.44h4.09v.54h-4.09v-.54Z"/><path class="w" d="m142.4,309.12h2.61c1.81,0,3.01.66,3.01,2.4s-1.19,2.52-3.01,2.52h-1.97v4.17h-.64v-9.09Zm2.44,4.38c1.62,0,2.51-.64,2.51-1.98s-.9-1.86-2.51-1.86h-1.8v3.84h1.8Zm.63.16l2.71,4.54h-.74l-2.58-4.36.61-.19Z"/><path class="w" d="m152.94,309.66h-3.18v-.55h7v.55h-3.18v8.54h-.64v-8.54Z"/><path class="w" d="m158.66,309.12h.64v3.98h4.58v-3.98h.64v9.09h-.64v-4.55h-4.58v4.55h-.64v-9.09Z"/><path class="o" d="m159.16,289.8H41.79v-57.82c8.83,18.91,108.47,19.07,117.37,0v57.82Z"/><path class="w" d="m106.82,282.54v-13.55c0-1.35.05-2.53.15-3.53.1-1,.22-1.87.35-2.6.13-.73.24-1.34.33-1.81v-.13h-15.8c-.68,0-1.21-.24-1.59-.71-.38-.47-.57-1.25-.57-2.34,0-.38.01-.75.04-1.1.03-.35.1-.77.2-1.26.1-.49.23-1.1.37-1.83h1.19v.44c0,.71.22,1.21.66,1.52.44.31,1,.46,1.68.46h15.27c.5,0,.85.1,1.04.31.19.21.29.59.29,1.15v2.96l-1.15.4.57,20.03c-.32.32-.68.61-1.06.86-.38.25-.82.49-1.32.73h-.66Zm-16.33,0v-11.87c0-1,.1-1.75.31-2.25.21-.5.54-.81,1.02-.93l1.41-.4.27.31.04,13.55c-.32.32-.68.61-1.06.86-.38.25-.82.49-1.32.73h-.66Z"/><path class="w" d="m99.37,221.07l-1.15-27.11c0-.73-.09-1.24-.27-1.53-.18-.29-.58-.44-1.2-.44h-3.61c-.87,0-1.54-.3-1.99-.9-.46-.6-.68-1.61-.68-3.03,0-.4.02-.81.05-1.23.04-.42.12-.93.25-1.53.13-.6.28-1.36.46-2.27h1.48v.16c0,.87.25,1.57.74,2.08.49.51,1.21.76,2.16.76h3.11c.95,0,1.6.23,1.97.68.36.46.56,1.27.6,2.43l-1.59,31.54"/><path class="o" d="m99.55,242.4c28.25,0,49.08-6.16,50.8-9.64-8.65-3.2-46.67-21.62-48.82-22.61s-27.66-14.58-38.12-22.06c-10.46-7.48-10.71-12.4-10.71-12.4,0,0,9.02-8.85,46.85-8.85h0c37.83,0,46.85,8.85,46.85,8.85,0,0-.24,4.92-10.71,12.4s-35.97,21.06-38.12,22.06-40.18,19.41-48.82,22.61c1.72,3.48,25.46,9.64,50.8,9.64h0Z"/><path class="k" d="m99.18,69.74c8.68,0,16.23,4.82,20.13,11.93l23.5-40.16H55.55l23.5,40.16c3.9-7.11,11.45-11.93,20.13-11.93Z"/><circle id="f" class="s" cx="99.21" cy="92.85" r="22.95"/><g class="v"><path class="p" d="m98.65,103.52l-1.91-2.02,1.69-1.97c1.31-1.53,2.19-2.74,2.65-3.63.45-.89.68-1.79.68-2.7,0-.51-.09-.92-.27-1.23-.18-.31-.56-.46-1.15-.46h-4.81c-.87,0-1.54-.3-1.99-.9-.46-.6-.68-1.61-.68-3.03,0-.4.02-.79.05-1.17.04-.38.12-.86.25-1.45.13-.58.28-1.38.46-2.4h1.47v.22c0,.95.25,1.65.76,2.1.51.46,1.22.68,2.13.68h3.6c1.38,0,2.4.43,3.06,1.28.66.86.98,2.07.98,3.63,0,1.09-.16,2.18-.46,3.25-.31,1.07-.73,2.08-1.26,3.03-.53.95-1.1,1.8-1.72,2.57l-3.55,4.21Z"/></g><path id="g" class="k" d="m99.21,69.92c-12.67,0-22.96,10.27-22.93,22.93.03,12.61,10.3,22.87,22.93,22.93,12.67.06,22.93-10.27,22.93-22.93s-10.27-22.93-22.93-22.93"/><line class="n" x1="58.2" y1="75.86" x2="141.88" y2="75.86"/><path class="q" d="m99.18,69.74c8.68,0,16.23,4.82,20.13,11.93l23.5-40.16H55.55l23.5,40.16c3.9-7.11,11.45-11.93,20.13-11.93Z"/><path class="q" d="m99.18,69.74c8.68,0,16.23,4.82,20.13,11.93l23.5-40.16H55.55l23.5,40.16c3.9-7.11,11.45-11.93,20.13-11.93Z"/><g id="h"><path id="i" class="w" d="m106.76,153.11v-13.55c0-1.35.05-2.53.15-3.53.1-1,.22-1.87.35-2.6.13-.73.24-1.34.33-1.81v-.13h-15.8c-.68,0-1.21-.24-1.59-.71-.38-.47-.57-1.25-.57-2.34,0-.38.01-.75.04-1.1.03-.35.1-.77.2-1.26.1-.49.23-1.1.37-1.83h1.19v.44c0,.71.22,1.21.66,1.52.44.31,1,.46,1.68.46h15.27c.5,0,.85.1,1.04.31.19.21.29.59.29,1.15v2.96l-1.15.4.57,20.03c-.32.32-.68.61-1.06.86-.38.25-.82.49-1.32.73h-.66Zm-16.33,0v-11.87c0-1,.1-1.75.31-2.25.21-.5.54-.81,1.02-.93l1.41-.4.27.31.04,13.55c-.32.32-.68.61-1.06.86-.38.25-.82.49-1.32.73h-.66Z"/><path id="j" class="o" d="m85.82,112.09s5.15,4.31,13.42,4.31,13.43-4.31,13.43-4.31c20.1,0,43.02,2.4,43.02,2.4.62,0,1.12.86,1.12,1.91,0,0,1.32,9.65,1.27,20.22-.05,10.57-1.27,24.71-1.27,24.71,0,1.15-.59,2.03-1.25,1.9,0,0-25.41-4.75-55.24-4.75s-57.33,4.76-57.33,4.76c-.67.11-1.3-.77-1.3-1.91,0,0-1.24-14.95-1.29-24.66-.05-9.71,1.29-20.27,1.29-20.27,0-1.06.5-1.91,1.12-1.91,0,0,22.91-2.4,43.01-2.4Z"/></g><path class="r" d="m99.15,69.85c8.68,0,16.23,4.82,20.13,11.93l23.5-40.16H55.52l23.5,40.16c3.9-7.11,11.45-11.93,20.13-11.93Z"/><path class="u" d="m98.35,21.74v1.18h.42c.06,0,.09.01.12.03.02.02.03.05.03.08,0,.03-.01.06-.03.08-.02.02-.06.03-.12.03h-.94c-.05,0-.09-.01-.12-.03-.02-.02-.03-.05-.03-.08,0-.03.01-.06.03-.08.02-.02.06-.03.12-.03h.3v-2.69h-.3c-.05,0-.09-.01-.12-.03-.02-.02-.03-.05-.03-.08s.01-.06.03-.08c.02-.02.06-.03.12-.03h1.36c.28,0,.52.09.71.27.19.18.29.38.29.6,0,.16-.06.31-.18.45-.12.14-.32.26-.6.36.16.11.3.24.41.38.11.14.3.43.55.86h.17c.05,0,.09.01.12.03.02.02.03.05.03.08,0,.03-.01.06-.03.08-.02.02-.06.03-.12.03h-.3c-.28-.5-.49-.83-.65-1-.15-.17-.33-.3-.53-.4h-.72Zm0-.23h.61c.2,0,.38-.04.54-.11.16-.07.28-.16.35-.25s.11-.19.11-.3c0-.15-.08-.29-.23-.43-.15-.14-.33-.2-.55-.2h-.83v1.29Z"/><path class="u" d="m92.93,29.17h-1.48l-.3.82h.43c.05,0,.09.01.12.03.02.02.03.05.03.08,0,.03-.01.06-.03.08-.02.02-.06.03-.12.03h-.84c-.05,0-.09-.01-.12-.03-.02-.02-.03-.05-.03-.08,0-.03.01-.06.03-.08.02-.02.06-.03.12-.03h.17l1-2.69h-.67c-.05,0-.09-.01-.12-.03-.02-.02-.03-.05-.03-.08s.01-.06.03-.08c.02-.02.06-.03.12-.03h1.13l1.1,2.91h.17c.05,0,.09.01.12.03.02.02.03.05.03.08,0,.03-.01.06-.03.08-.02.02-.06.03-.12.03h-.84c-.06,0-.09-.01-.12-.03-.02-.02-.03-.05-.03-.08,0-.03.01-.06.03-.08.02-.02.06-.03.12-.03h.43l-.31-.82Zm-.09-.23l-.62-1.64h-.08l-.6,1.64h1.31Z"/><path class="u" d="m107.59,28.73c0,.3-.06.58-.18.84-.12.26-.29.46-.5.6-.21.14-.44.21-.69.21-.36,0-.68-.15-.96-.46s-.41-.7-.41-1.19.14-.88.41-1.19c.28-.31.6-.46.96-.46.25,0,.47.07.69.21.21.14.38.34.5.6.12.26.18.53.18.84Zm-.23,0c0-.37-.11-.7-.32-.99-.21-.29-.49-.44-.83-.44-.32,0-.59.14-.81.42-.22.28-.34.61-.34,1.01,0,.42.12.76.35,1.03.24.27.5.4.8.4.34,0,.61-.15.83-.44.21-.29.32-.62.32-.99Z"/><path class="u" d="m99.19,34.08v2.69h.58c.05,0,.09.01.12.03.02.02.03.05.03.08,0,.03-.01.06-.03.08-.02.02-.06.03-.12.03h-1.4c-.05,0-.09-.01-.12-.03-.02-.02-.03-.05-.03-.08,0-.03.01-.06.03-.08.02-.02.06-.03.12-.03h.58v-2.69h-.92v.78c0,.06-.01.09-.03.12-.02.02-.05.03-.08.03-.03,0-.06-.01-.08-.03-.02-.02-.03-.06-.03-.12v-1.01h2.52v1.01c0,.06-.01.09-.03.12-.02.02-.05.03-.08.03s-.06-.01-.08-.03c-.02-.02-.03-.06-.03-.12v-.78h-.92Z"/><path class="m" d="m106.22,26.44c-.74-2.52-2.78-4.48-5.33-5.11"/><path class="m" d="m100.89,35.71c2.37-.59,4.28-2.31,5.14-4.55"/><path class="m" d="m92.19,31.17c.84,2.2,2.7,3.89,4.99,4.51"/><path class="m" d="m97.42,21.48c-2.54.67-4.55,2.65-5.25,5.18"/></g></g></g></g></svg>