<?xml version="1.0" encoding="UTF-8"?><svg id="b" xmlns="http://www.w3.org/2000/svg" viewBox="0 0 198.3 340.28"><defs><style>.f{stroke:#f2f2f2;}.f,.g,.h,.i{fill:none;stroke-miterlimit:10;}.f,.h,.i{stroke-width:.5px;}.g,.i{stroke:blue;}.j{fill:blue;opacity:.33;}.h{stroke:#999;}.k{fill:#999;}.l{fill:#140016;}.m{fill:#f2f2f2;}</style></defs><g id="c"><g id="d"><rect class="m" width="198.3" height="340.28" rx="1.34" ry="1.34"/><g id="e"><path class="l" d="m6.93,333.63c-1.16,0-2.1-.87-2.1-1.95V8.6c0-1.08.94-1.95,2.1-1.95h184.44c1.16,0,2.1.87,2.1,1.95v323.07c0,1.08-.94,1.95-2.1,1.95"/></g><rect class="f" x="7.73" y="9.51" width="182.83" height="321.27" rx="1.34" ry="1.34"/><path class="m" d="m91.29,28.67h-.87l-3.13-8.05h-.48c-.11,0-.2-.01-.24-.03-.05-.02-.09-.06-.12-.11-.03-.05-.05-.11-.05-.17s.02-.11.05-.17c.03-.05.07-.09.12-.11.05-.02.13-.03.24-.03h2.32c.12,0,.2.01.25.03.05.02.09.06.12.11.03.05.05.11.05.17s-.02.11-.05.17c-.03.05-.08.09-.12.11-.05.02-.13.03-.24.03h-1.19l2.89,7.43h.04l2.85-7.43h-1.19c-.12,0-.2-.01-.25-.03-.05-.02-.09-.06-.12-.11-.03-.05-.05-.11-.05-.17s.02-.11.05-.17c.03-.05.08-.09.12-.11.05-.02.13-.03.25-.03h2.31c.12,0,.2.01.25.03.05.02.09.06.12.11.03.05.05.11.05.17s-.02.11-.05.17c-.03.05-.08.09-.12.11-.05.02-.13.03-.25.03h-.47l-3.08,8.05Z"/><path class="m" d="m100.25,20.62v7.43h2.13c.15,0,.25.03.32.08s.1.13.1.23c0,.09-.03.16-.1.22s-.17.09-.32.09h-4.89c-.15,0-.25-.03-.32-.09s-.1-.13-.1-.22c0-.09.03-.17.1-.23s.17-.08.32-.08h2.13v-7.43h-2.13c-.15,0-.25-.03-.32-.08-.06-.06-.1-.13-.1-.23s.03-.17.1-.23.17-.08.32-.08h4.89c.15,0,.25.03.32.08s.1.13.1.23-.03.17-.1.23c-.06.06-.17.08-.32.08h-2.13Z"/><path class="m" d="m109.36,20.62v7.43h2.13c.15,0,.25.03.32.08s.1.13.1.23c0,.09-.03.16-.1.22s-.17.09-.32.09h-4.89c-.15,0-.25-.03-.32-.09s-.1-.13-.1-.22c0-.09.03-.17.1-.23s.17-.08.32-.08h2.13v-7.43h-2.13c-.15,0-.25-.03-.32-.08-.06-.06-.1-.13-.1-.23s.03-.17.1-.23.17-.08.32-.08h4.89c.15,0,.25.03.32.08s.1.13.1.23-.03.17-.1.23c-.06.06-.17.08-.32.08h-2.13Z"/><line class="i" x1="49.93" y1="254.21" x2="49.88" y2="204.22"/><polygon class="j" points="78.73 204.56 49.95 204.56 49.95 253.84 78.73 204.56"/><polygon class="g" points="79.17 204.22 20.68 204.22 49.93 254.21 79.17 204.22"/><line class="i" x1="148.5" y1="253.84" x2="148.45" y2="203.85"/><polygon class="j" points="177.3 204.19 148.52 204.19 148.52 253.46 177.3 204.19"/><polygon class="g" points="177.74 203.85 119.25 203.85 148.5 253.84 177.74 203.85"/><line class="i" x1="99.21" y1="137.93" x2="99.26" y2="104.12"/><polygon class="j" points="70.41 88.29 99.26 104.12 99.18 137.56 70.41 88.29"/><polygon class="g" points="69.96 87.95 128.45 87.95 99.21 137.93 69.96 87.95"/><line class="i" x1="99.26" y1="104.12" x2="128.45" y2="87.95"/><line class="i" x1="99.26" y1="104.12" x2="69.96" y2="87.95"/><line class="i" x1="69.96" y1="170.69" x2="69.91" y2="120.7"/><polygon class="j" points="98.76 121.04 69.99 121.04 69.99 170.31 98.76 121.04"/><polygon class="g" points="99.21 120.7 40.72 120.7 69.96 170.69 99.21 120.7"/><line class="i" x1="128.45" y1="170.69" x2="128.4" y2="120.7"/><polygon class="j" points="157.25 121.04 128.48 121.04 128.48 170.31 157.25 121.04"/><polygon class="g" points="157.7 120.7 99.21 120.7 128.45 170.69 157.7 120.7"/><line class="i" x1="146.2" y1="211.8" x2="146.16" y2="177.99"/><polygon class="j" points="175.01 162.16 146.16 177.99 146.23 211.43 175.01 162.16"/><polygon class="g" points="175.45 161.81 116.96 161.81 146.2 211.8 175.45 161.81"/><line class="i" x1="146.16" y1="177.99" x2="116.96" y2="161.81"/><line class="i" x1="146.16" y1="177.99" x2="175.45" y2="161.81"/><line class="i" x1="52.24" y1="211.8" x2="52.29" y2="177.99"/><polygon class="j" points="23.44 162.16 52.29 177.99 52.21 211.43 23.44 162.16"/><polygon class="g" points="22.99 161.81 81.48 161.81 52.24 211.8 22.99 161.81"/><line class="i" x1="52.29" y1="177.99" x2="81.48" y2="161.81"/><line class="i" x1="52.29" y1="177.99" x2="22.99" y2="161.81"/><path class="k" d="m98.48,304.9v1.18h.42c.06,0,.09.01.12.03.02.02.03.05.03.08,0,.03-.01.06-.03.08-.02.02-.06.03-.12.03h-.94c-.05,0-.09-.01-.12-.03-.02-.02-.03-.05-.03-.08,0-.03.01-.06.03-.08.02-.02.06-.03.12-.03h.3v-2.69h-.3c-.05,0-.09-.01-.12-.03-.02-.02-.03-.05-.03-.08s.01-.06.03-.08c.02-.02.06-.03.12-.03h1.36c.28,0,.52.09.71.27.19.18.29.38.29.6,0,.16-.06.31-.18.45-.12.14-.32.26-.6.36.16.11.3.24.41.38.11.14.3.43.55.86h.17c.05,0,.09.01.12.03.02.02.03.05.03.08,0,.03-.01.06-.03.08-.02.02-.06.03-.12.03h-.3c-.28-.5-.49-.83-.65-1-.15-.17-.33-.3-.53-.4h-.72Zm0-.23h.61c.2,0,.38-.04.54-.11.16-.07.28-.16.35-.25s.11-.19.11-.3c0-.15-.08-.29-.23-.43-.15-.14-.33-.2-.55-.2h-.83v1.29Z"/><path class="k" d="m93.05,312.33h-1.48l-.3.82h.43c.05,0,.09.01.12.03.02.02.03.05.03.08,0,.03-.01.06-.03.08-.02.02-.06.03-.12.03h-.84c-.05,0-.09-.01-.12-.03-.02-.02-.03-.05-.03-.08,0-.03.01-.06.03-.08.02-.02.06-.03.12-.03h.17l1-2.69h-.67c-.05,0-.09-.01-.12-.03-.02-.02-.03-.05-.03-.08s.01-.06.03-.08c.02-.02.06-.03.12-.03h1.13l1.1,2.91h.17c.05,0,.09.01.12.03.02.02.03.05.03.08,0,.03-.01.06-.03.08-.02.02-.06.03-.12.03h-.84c-.06,0-.09-.01-.12-.03-.02-.02-.03-.05-.03-.08,0-.03.01-.06.03-.08.02-.02.06-.03.12-.03h.43l-.31-.82Zm-.09-.23l-.62-1.64h-.08l-.6,1.64h1.31Z"/><path class="k" d="m107.72,311.89c0,.3-.06.58-.18.84-.12.26-.29.46-.5.6-.21.14-.44.21-.69.21-.36,0-.68-.15-.96-.46s-.41-.7-.41-1.19.14-.88.41-1.19c.28-.31.6-.46.96-.46.25,0,.47.07.69.21.21.14.38.34.5.6.12.26.18.53.18.84Zm-.23,0c0-.37-.11-.7-.32-.99-.21-.29-.49-.44-.83-.44-.32,0-.59.14-.81.42-.22.28-.34.61-.34,1.01,0,.42.12.76.35,1.03.24.27.5.4.8.4.34,0,.61-.15.83-.44.21-.29.32-.62.32-.99Z"/><path class="k" d="m99.32,317.24v2.69h.58c.05,0,.09.01.12.03.02.02.03.05.03.08,0,.03-.01.06-.03.08-.02.02-.06.03-.12.03h-1.4c-.05,0-.09-.01-.12-.03-.02-.02-.03-.05-.03-.08,0-.03.01-.06.03-.08.02-.02.06-.03.12-.03h.58v-2.69h-.92v.78c0,.06-.01.09-.03.12-.02.02-.05.03-.08.03-.03,0-.06-.01-.08-.03-.02-.02-.03-.06-.03-.12v-1.01h2.52v1.01c0,.06-.01.09-.03.12-.02.02-.05.03-.08.03s-.06-.01-.08-.03c-.02-.02-.03-.06-.03-.12v-.78h-.92Z"/><path class="h" d="m106.34,309.6c-.74-2.52-2.78-4.48-5.33-5.11"/><path class="h" d="m101.02,318.88c2.37-.59,4.28-2.31,5.14-4.55"/><path class="h" d="m92.32,314.33c.84,2.2,2.7,3.89,4.99,4.51"/><path class="h" d="m97.55,304.64c-2.54.67-4.55,2.65-5.25,5.18"/></g></g></svg>