<?xml version="1.0" encoding="UTF-8"?><svg id="_レイヤー_2" xmlns="http://www.w3.org/2000/svg" viewBox="0 0 833.33 833.33"><defs><style>.cls-1,.cls-2,.cls-3,.cls-4,.cls-5,.cls-6,.cls-7{stroke-width:0px;}.cls-2{fill:#5c5c66;}.cls-3{fill:#222270;}.cls-4{fill:#fff;}.cls-5{fill:#fff078;}.cls-6{fill:#ff3856;}.cls-7{fill:#ffa36e;}</style></defs><g id="_レイヤー_1-2"><rect class="cls-2" width="833.33" height="833.33"/><polygon class="cls-7" points="541.67 375 541.67 333.33 291.67 333.33 291.67 375 250 416.67 250 458.33 291.67 458.33 291.67 500 541.67 500 541.67 458.33 583.33 458.33 583.33 416.67 541.67 375"/><path class="cls-1" d="m458.33,437.5h41.67v10.83c0,5.52-4.48,10-10,10h-31.67v-20.83h0Z"/><path class="cls-1" d="m375,437.5h41.67v10.83c0,5.52-4.48,10-10,10h-31.67v-20.83h0Z"/><path class="cls-4" d="m437.5,437.5h20.83v20.83h-10.83c-5.52,0-10-4.48-10-10v-10.83h0Z"/><path class="cls-4" d="m354.17,437.5h20.83v20.83h-10.83c-5.52,0-10-4.48-10-10v-10.83h0Z"/><rect class="cls-3" x="250" y="458.33" width="41.67" height="41.67"/><path class="cls-3" d="m208.33,510v21.67c0,5.52,4.48,10,10,10h21.67c5.52,0,10-4.48,10-10v-31.67h-31.67c-5.52,0-10,4.48-10,10Z"/><path class="cls-3" d="m291.67,500v73.33c0,5.52,4.48,10,10,10h21.67c5.52,0,10-4.48,10-10v-31.67h83.33v31.67c0,5.52,4.48,10,10,10h21.67c5.52,0,10-4.48,10-10v-31.67h73.33c5.52,0,10-4.48,10-10v-31.67h-250Z"/><path class="cls-3" d="m615,458.33h-73.33v41.67h73.33c5.52,0,10-4.48,10-10v-21.67c0-5.52-4.48-10-10-10Z"/><path class="cls-5" d="m437.5,426.67v10.83h62.5v-20.83h-52.5c-5.52,0-10,4.48-10,10Z"/><path class="cls-5" d="m406.67,416.67h-52.5v20.83h62.5v-10.83c0-5.52-4.48-10-10-10Z"/><path class="cls-5" d="m583.33,333.33v-31.67c0-5.52-4.48-10-10-10h-31.67v-31.67c0-5.52-4.48-10-10-10h-230c-5.52,0-10,4.48-10,10v31.67h0s0,0,0,0h0s-31.67,0-31.67,0c-5.52,0-10,4.48-10,10v115h31.67c5.52,0,10-4.48,10-10v-31.67h0s0,0,0,0h250v31.67c0,5.52,4.48,10,10,10h31.67v-41.67h31.67c5.52,0,10-4.48,10-10v-31.67h-41.67Z"/><rect class="cls-4" x="375" y="500" width="83.33" height="41.67"/><rect class="cls-6" x="395.83" y="500" width="41.67" height="41.67"/></g></svg>