<svg xmlns="http://www.w3.org/2000/svg" viewBox="0 -0.5 50 50" shape-rendering="crispEdges">
	<title>Bitcoin Pussies #022</title>
	<desc>Bitcoin Pussies are 69 uniquely drawn and inscribed cats on Bitcoin</desc>
	<desc xmlns:meow="https://bitcoinpussies.com/">
		<meow:traits>
			<meow:Skin>Black</meow:Skin>
			<meow:Eyes>Tired</meow:Eyes>
			<meow:Gear>None</meow:Gear>
			<meow:Message>Meeeeooowwwwww</meow:Message>
		</meow:traits>
	</desc>
	<path stroke="#5c5c74" d="M0 0h50M0 1h50M0 2h50M0 3h50M0 4h50M0 5h50M0 6h50M0 7h50M0 8h50M0 9h50M0 10h50M0 11h50M0 12h50M0 13h50M0 14h50M0 15h16M19 15h13M35 15h15M0 16h15M21 16h9M36 16h14M0 17h15M36 17h14M0 18h15M36 18h14M0 19h15M36 19h14M0 20h15M36 20h14M0 21h15M36 21h14M0 22h16M35 22h15M0 23h15M36 23h14M0 24h15M36 24h14M0 25h15M36 25h14M0 26h15M36 26h14M0 27h15M36 27h14M0 28h16M35 28h15M0 29h16M35 29h15M0 30h17M34 30h16M0 31h19M32 31h18M0 32h20M31 32h19M0 33h19M32 33h18M0 34h19M32 34h18M0 35h14M17 35h1M33 35h17M0 36h14M33 36h17M0 37h15M33 37h17M0 38h16M32 38h18M0 39h20M31 39h19M0 40h50M0 41h50M0 42h50M0 43h50M0 44h50M0 45h50M0 46h50M0 47h50M0 48h50M0 49h50" />
	<path stroke="#000000" d="M16 15h3M32 15h3M15 16h1M19 16h2M30 16h2M35 16h1M15 17h1M21 17h9M35 17h1M15 18h1M19 18h2M30 18h2M35 18h1M15 19h1M18 19h1M32 19h1M35 19h1M15 20h1M17 20h1M33 20h1M35 20h1M15 21h2M34 21h2M16 22h1M34 22h1M15 23h1M35 23h1M15 24h1M19 24h4M28 24h4M35 24h1M15 25h1M20 25h2M29 25h2M35 25h1M15 26h1M23 26h1M25 26h1M27 26h1M35 26h1M15 27h1M24 27h1M26 27h1M35 27h1M16 28h1M34 28h1M16 29h1M34 29h1M17 30h2M32 30h2M19 31h2M30 31h2M20 32h1M30 32h1M19 33h1M31 33h1M19 34h1M31 34h1M14 35h3M18 35h1M32 35h1M14 36h1M17 36h2M32 36h1M15 37h1M18 37h1M32 37h1M16 38h4M21 38h1M23 38h1M27 38h1M29 38h1M31 38h1M20 39h11" />
	<path stroke="#2c2c2c" d="M16 16h3M32 16h3M16 17h1M20 17h1M30 17h1M34 17h1M16 18h1M21 18h9M34 18h1M16 19h1M19 19h13M34 19h1M16 20h1M18 20h15M34 20h1M17 21h17M17 22h17M16 23h19M16 24h3M23 24h5M32 24h3M16 25h4M22 25h7M31 25h4M16 26h2M20 26h3M28 26h3M33 26h2M16 27h8M25 27h1M27 27h8M17 28h17M17 29h17M19 30h13M21 31h9M21 32h9M20 33h11M20 34h11M19 35h13M15 36h2M19 36h13M16 37h2M19 37h13M20 38h1M22 38h1M24 38h3M28 38h1M30 38h1" />
	<path stroke="#ffbdbe" d="M17 17h3M31 17h3M17 18h2M32 18h2M17 19h1M33 19h1" />
	<path stroke="#ffabad" d="M18 26h2M31 26h2" />
	<path stroke="#3d3d3d" d="M24 26h1M26 26h1" />
</svg>