<svg xmlns="http://www.w3.org/2000/svg" viewBox="0 0 50 50"><defs><style>.cls-2{fill:#231815}.cls-3{stroke-width:.43px}.cls-3,.cls-4,.cls-6,.cls-7{fill:none;stroke-miterlimit:10;stroke:#231815;stroke-linecap:round}.cls-4{stroke-width:.43px}.cls-6,.cls-7{stroke-width:.71px}</style></defs><path id="_背景" d="M0 0h50v50H0z" style="fill:#fff"/><g id="_ライン_太_"><circle cx="28.55" cy="17.45" r=".4" class="cls-2"/><path d="M29.85 16.93c.1.38.31 1.12.4 1.49.03.11-.02.22-.11.29l-.35.24M29.15 19.35s-.21 1.31-1.16 2.04c-.62.47-1.48.43-2.08-.06l-1.45-1.18M25.95 24.55s4.3 6.3 6.1 11.8M18.65 20.85l.4 1.3M25.75 23.65c-1.4-2.1-5.1-2.7-5.1-2.7l-1.2-.2M19.75 22.55s4.3.9 5.5 1.7M25.15 21.65v.36M21.35 20.05l-.1.3M23.96 15.61c-1.18-.43-1.08 1.84-.36 2.24" class="cls-7"/><path d="M27.65 19.35s.1.3.4.45M37.43 21.96l-.63-.05M38.21 20.66l-.38-.38M39.4 19.65l.02-.54" class="cls-7"/><path d="m37.05 33.27-1.5 1.48M38.64 34.78l-.9 1.26-.48.66M39.09 34.1l2.71-1.72M42.24 31.71l-.44-1.53a.841.841 0 0 0-.27-.4l-.78-.36M37.31 32.67s.22-1.07 1.24-1.89l.93-1.34c.13-.19.43-.18.53.03.07.15.08.41-.07.85-.41 1.17-.2 1.06-.2 1.06M39.33 28.85s-1.09-.4-1.16-.11.69 1 .69 1M38.56 29.89s-.78-.18-.85.11.45.72.45.72M40.03 30.51s.64.3-.19.83" class="cls-6"/><path d="M22.73 33.02c-.02 1.39 0 2.77-.03 4.15-.03 1.22-.24 2.66.23 3.84.38.97 1.5 1.42 2.38 1.83M23.65 42.84s1.87 6.21 3.88 6.71M28.3 49.55s6.15-3.8 8.95-9.4M31.35 32.65c.15.03 5.2 2.8 6.2 6.7M25 8.75s1.55.5 2.15 2.9M17.95 12.05s-.4 1.9.2 3.3M18.85 15.65c.39.14.79-.16 1.06-.41.33-.31.63-.69.84-1.09M21.85 13.65c.64.11 1.37.22 2.02.18 1.12-.06 2.48-.45 3.08-1.48M22.65 6.75s1.4.9 1.7 1.6M21.8 9.22s-.15-1.47.15-2.27M18.15 8.66s-.27 1.61-.2 2.59M18.85 8.65s1 .7 1.4 1.3M20.85 9.65c.12-.09.26-.16.4-.2M40.15 27.35l-.45 1.74" class="cls-7"/><path d="M22.11 11.79c-.04-.05-.02-.13.01-.2.35-.81 1.18-1.19 2.02-.98.11.03.37.07.27.24-.11.19-.4.29-.59.37-.27.12-.53.24-.79.37-.24.12-.47.26-.75.26-.04 0-.08 0-.12-.02a.102.102 0 0 1-.06-.05ZM20.26 13.27c-.03-.16.1-.26.22-.35.2-.14.43-.2.66-.25.16-.03.4-.06.49.11.19.33-.06.76-.35.94-.38.24-.94-.01-1.03-.45ZM19.97 12.64s-.04-.08-.08-.11c-.22-.19-.55-.22-.83-.16-.19.04-.38.11-.53.24-.1.09-.21.22-.23.35-.02.15.12.2.24.2.45.02 1-.12 1.35-.4a.16.16 0 0 0 .07-.09v-.03ZM22.49 9.34s-.02-.03-.02-.05v-.07c.03-.26.03-.53.05-.79 0-.11.02-.55.08-.63.08-.1.23.03.3.1.26.26.53.5.68.83.04.08.02.14-.04.2-.21.19-.5.33-.77.43-.08.03-.22.07-.28-.02ZM18.74 11.27s-.02-.03-.02-.05v-.07c.02-.26 0-.53 0-.79 0-.11-.02-.55.04-.63.08-.1.23.01.31.08.28.24.46.57.64.89.05.08.03.14-.03.2-.05.05-.11.09-.17.13-.12.08-.25.15-.38.2-.08.03-.29.13-.37.04Z" class="cls-2"/><path d="M18.77 22.74s-3.31 4.92-5.61 15.12c-.07.32-.05.65.06.95l.13.34" class="cls-7"/><path d="M22.85 18.25s-.8 1-2.4 1.2M19.95 16.15s.7 1.6.1 2.6M28.05 14.23s-.61 1.63-3.3 1.32M30.25 14.75s-.5 1.3-2.3 1.5M31.7 13.23c.58.58.86 1.42.48 2.19-.31.64-.95 1.06-1.64 1.13M31.45 12.55s-.2-3.1-4.2-2.9M39.65 25.25c-.43.1-.89.25-1.24.53-.62.5-.2 1.17.48 1.27.41.06.83-.06 1.21-.21" class="cls-6"/><path d="M40.39 24.69c.62-.25 1.2-.79 1.65-1.28.51-.56.9-1.21 1.16-1.92.14-.38.28-.69.66-.86.33-.15.76-.17 1.03.1.42.42.33 1.25.2 1.77a6.153 6.153 0 0 1-4.08 4.36c-.09.03-.18.06-.27.04a.259.259 0 0 1-.19-.13c-.02-.05-.02-.1-.02-.15.01-.23.25-.61.08-.81-.09-.11-.25-.16-.35-.27a.798.798 0 0 1-.18-.49c0-.08.02-.17.08-.23.05-.06.14-.09.21-.12Z" class="cls-2"/><path d="M11.78 40.15s2.5-.33 3.63-.07M11.15 40.45s-1.4 2.2-1.4 4.3M16.04 40.45s-.29 1.3-.19 2M10.45 45.01s3.51-1.89 4.75-2.18M16.55 39.85s1.66-.9 2.4-.8M19.25 39.75l-.7 3.4M16.45 42.85s1 .3 1.4.4M19.85 40.75s.16 2 .1 2.6M19.16 43.53l.2.04M20.65 40.65s.8-.1 1.4 0M20.65 41.55s1-.1 1.6 0M13.05 46.55s5.1 1 11.1.1M12.17 46.97c-.13.84-.25 1.69-.36 2.57M12.55 44.75s-.2.7-.2 1.5" class="cls-7"/></g><g id="_ライン_細_"><path d="M25.3 25s-3.5.9-2.33 7.15M23.8 12.3c.36.04.73-.03 1.07-.17.35-.15.64-.39.93-.63M24.85 12.79s.65-.09 1.25-.69M19.7 13.7c-.16.12-.32.25-.51.33s-.41.09-.62.09M18.7 14.7s.6.1.9-.2" class="cls-3"/><path d="m44.9 20.73-2 .77 2.4-.3-2.83.83h2.93l-4.5.97h4.31l-3.61.5 3.2.4h-3.5s4.01.44 3.91.47-4.08-.11-4.08-.11l2.68.74-3.31-.5s2.7 1.4 2.6 1.4-2.92-1.09-2.92-1.09l1.88 1.61-1.55-.62" style="stroke:#fff;stroke-width:.06px;fill:none;stroke-miterlimit:10"/></g><g id="_花火"><circle cx="41" cy="3.8" r=".3" class="cls-2"/><circle cx="42" cy="4.6" r=".3" class="cls-2"/><circle cx="5" cy="5.9" r=".3" class="cls-2"/><circle cx="40" cy="4.6" r=".3" class="cls-2"/><path d="M41 9.3V4.6" class="cls-3"/><circle cx="35.52" cy="6.67" r=".3" class="cls-2"/><circle cx="36.71" cy="6.2" r=".3" class="cls-2"/><circle cx="35.71" cy="7.94" r=".3" class="cls-2"/><path d="m40.28 9.42-4.07-2.35" class="cls-3"/><circle cx="46.48" cy="6.67" r=".3" class="cls-2"/><circle cx="45.29" cy="6.2" r=".3" class="cls-2"/><circle cx="46.29" cy="7.94" r=".3" class="cls-2"/><path d="m41.72 9.42 4.07-2.35" class="cls-3"/><circle cx="41" cy="15.72" r=".3" class="cls-2"/><circle cx="42" cy="14.92" r=".3" class="cls-2"/><circle cx="40" cy="14.92" r=".3" class="cls-2"/><path d="M41 10.22v4.7" class="cls-3"/><circle cx="35.52" cy="12.85" r=".3" class="cls-2"/><circle cx="36.71" cy="13.32" r=".3" class="cls-2"/><circle cx="35.71" cy="11.58" r=".3" class="cls-2"/><path d="m40.28 10.1-4.07 2.35" class="cls-3"/><circle cx="46.48" cy="12.85" r=".3" class="cls-2"/><circle cx="45.29" cy="13.32" r=".3" class="cls-2"/><circle cx="46.29" cy="11.58" r=".3" class="cls-2"/><path d="m41.72 10.1 4.07 2.35M7.3 5.7v2.79" class="cls-3"/><path d="M10.5 17.53v3.86M8.54 18.52l.71 1.23" class="cls-4"/><path d="m5.52 6.41.67.67" class="cls-3"/><circle cx="3.42" cy="9.04" r=".3" class="cls-2"/><path d="m4.29 7.3 2.42 1.39" class="cls-3"/><circle cx="9.62" cy="5.9" r=".3" class="cls-2"/><circle cx="10.5" cy="16.56" r=".29" class="cls-2"/><path d="m6.36 19.68 3.34 1.94" class="cls-4"/><circle cx="5.52" cy="19.2" r=".29" class="cls-2"/><path d="m12.46 18.52-.71 1.23M14.9 21.91h-1.42M7.41 21.91H6M14.64 19.68l-3.34 1.94" class="cls-4"/><circle cx="15.48" cy="19.2" r=".29" class="cls-2"/><path d="M10.5 26.47V22.6M8.54 25.47l.71-1.22" class="cls-4"/><circle cx="10.5" cy="27.44" r=".29" class="cls-2"/><path d="m6.36 24.31 3.34-1.93" class="cls-4"/><circle cx="5.52" cy="24.79" r=".29" class="cls-2"/><path d="m12.46 25.47-.71-1.22M14.64 24.31l-3.34-1.93" class="cls-4"/><circle cx="15.48" cy="24.79" r=".29" class="cls-2"/><path d="m9.1 6.41-.67.67" class="cls-3"/><circle cx="11.2" cy="9.04" r=".3" class="cls-2"/><path d="M10.33 7.3 7.91 8.69" class="cls-3"/><circle cx="5" cy="12.14" r=".3" class="cls-2"/><path d="M7.3 12.34V9.55M5.52 11.63l.67-.67M4.15 9h.94M4.29 10.74l2.42-1.39" class="cls-3"/><circle cx="9.62" cy="12.14" r=".3" class="cls-2"/><path d="m9.1 11.63-.67-.67M10.47 9h-.95M10.33 10.74 7.91 9.35" class="cls-3"/></g></svg>