<svg height="320" shape-rendering="crispEdges" viewBox="0 0 320 320" width="320" xmlns="http://www.w3.org/2000/svg"><rect fill="#d5d7e1" height="100%" width="100%"/><path d="m90 210h140v10h-140z" fill="#9f21a0"/><path d="m90 220h140v10h-140z" fill="#9f21a0"/><path d="m90 230h140v10h-140z" fill="#9f21a0"/><path d="m90 240h140v10h-140z" fill="#9f21a0"/><path d="m90 250h20v10h-20z" fill="#9f21a0"/><path d="m120 250h110v10h-110z" fill="#9f21a0"/><path d="m90 260h20v10h-20z" fill="#9f21a0"/><path d="m120 260h110v10h-110z" fill="#9f21a0"/><path d="m90 270h20v10h-20z" fill="#9f21a0"/><path d="m120 270h110v10h-110z" fill="#9f21a0"/><path d="m90 280h20v10h-20z" fill="#9f21a0"/><path d="m120 280h110v10h-110z" fill="#9f21a0"/><path d="m90 290h20v10h-20z" fill="#9f21a0"/><path d="m120 290h110v10h-110z" fill="#9f21a0"/><path d="m90 300h20v10h-20z" fill="#9f21a0"/><path d="m120 300h110v10h-110z" fill="#9f21a0"/><path d="m90 310h20v10h-20z" fill="#9f21a0"/><path d="m120 310h110v10h-110z" fill="#9f21a0"/><g fill="#fff0ee"><path d="m90 210h10v10h-10z"/><path d="m130 210h10v10h-10z"/><path d="m170 210h10v10h-10z"/><path d="m210 210h10v10h-10z"/><path d="m100 220h10v10h-10z"/><path d="m120 220h10v10h-10z"/><path d="m180 220h10v10h-10z"/><path d="m200 220h10v10h-10z"/><path d="m100 230h10v10h-10z"/><path d="m120 230h10v10h-10z"/><path d="m180 230h10v10h-10z"/><path d="m200 230h10v10h-10z"/><path d="m90 240h10v10h-10z"/><path d="m130 240h10v10h-10z"/><path d="m170 240h10v10h-10z"/><path d="m210 240h10v10h-10z"/><path d="m140 250h10v10h-10z"/><path d="m160 250h10v10h-10z"/><path d="m220 250h10v10h-10z"/><path d="m140 260h10v10h-10z"/><path d="m160 260h10v10h-10z"/><path d="m220 260h10v10h-10z"/><path d="m90 270h10v10h-10z"/><path d="m130 270h10v10h-10z"/><path d="m170 270h10v10h-10z"/><path d="m210 270h10v10h-10z"/><path d="m100 280h10v10h-10z"/><path d="m120 280h10v10h-10z"/><path d="m180 280h10v10h-10z"/><path d="m200 280h10v10h-10z"/><path d="m100 290h10v10h-10z"/><path d="m120 290h10v10h-10z"/><path d="m180 290h10v10h-10z"/><path d="m200 290h10v10h-10z"/><path d="m90 300h10v10h-10z"/><path d="m130 300h10v10h-10z"/><path d="m170 300h10v10h-10z"/><path d="m210 300h10v10h-10z"/><path d="m140 310h10v10h-10z"/><path d="m160 310h10v10h-10z"/><path d="m220 310h10v10h-10z"/></g><path d="m140 40h10v10h-10z" fill="#f7913d"/><path d="m170 40h10v10h-10z" fill="#f7913d"/><path d="m110 50h10v10h-10z" fill="#f7913d"/><path d="m130 50h60v10h-60z" fill="#f7913d"/><path d="m200 50h10v10h-10z" fill="#f7913d"/><path d="m50 60h30v10h-30z" fill="#ff7216"/><path d="m110 60h50v10h-50z" fill="#f7913d"/><path d="m160 60h10v10h-10z" fill="#ff7216"/><path d="m170 60h40v10h-40z" fill="#f7913d"/><path d="m50 70h50v10h-50z" fill="#ff7216"/><path d="m100 70h20v10h-20z" fill="#f7913d"/><path d="m120 70h30v10h-30z" fill="#ff7216"/><path d="m150 70h70v10h-70z" fill="#f7913d"/><path d="m50 80h40v10h-40z" fill="#ff7216"/><path d="m90 80h30v10h-30z" fill="#f7913d"/><path d="m120 80h30v10h-30z" fill="#ff7216"/><path d="m150 80h30v10h-30z" fill="#f7913d"/><path d="m180 80h20v10h-20z" fill="#ff7216"/><path d="m200 80h30v10h-30z" fill="#f7913d"/><path d="m50 90h30v10h-30z" fill="#ff7216"/><path d="m80 90h40v10h-40z" fill="#f7913d"/><path d="m120 90h30v10h-30z" fill="#ff7216"/><path d="m150 90h30v10h-30z" fill="#f7913d"/><path d="m180 90h20v10h-20z" fill="#ff7216"/><path d="m200 90h40v10h-40z" fill="#f7913d"/><path d="m50 100h30v10h-30z" fill="#ff7216"/><path d="m80 100h160v10h-160z" fill="#f7913d"/><path d="m70 110h180v10h-180z" fill="#f7913d"/><path d="m70 120h180v10h-180z" fill="#f7913d"/><path d="m70 130h180v10h-180z" fill="#f7913d"/><path d="m50 140h50v10h-50z" fill="#ff7216"/><path d="m100 140h130v10h-130z" fill="#f7913d"/><path d="m230 140h50v10h-50z" fill="#ff7216"/><path d="m50 150h10v10h-10z" fill="#ff7216"/><path d="m60 150h40v10h-40z" fill="#f7913d"/><path d="m100 150h10v10h-10z" fill="#ffd067"/><path d="m110 150h110v10h-110z" fill="#f7913d"/><path d="m220 150h10v10h-10z" fill="#ffd067"/><path d="m230 150h40v10h-40z" fill="#f7913d"/><path d="m270 150h10v10h-10z" fill="#ff7216"/><path d="m50 160h50v10h-50z" fill="#ff7216"/><path d="m100 160h20v10h-20z" fill="#ffd067"/><path d="m120 160h90v10h-90z" fill="#f7913d"/><path d="m210 160h20v10h-20z" fill="#ffd067"/><path d="m230 160h50v10h-50z" fill="#ff7216"/><path d="m50 170h10v10h-10z" fill="#ff7216"/><path d="m60 170h100v10h-100z" fill="#f7913d"/><path d="m160 170h40v10h-40z" fill="#ff7216"/><path d="m200 170h70v10h-70z" fill="#f7913d"/><path d="m270 170h10v10h-10z" fill="#ff7216"/><path d="m50 180h50v10h-50z" fill="#ff7216"/><path d="m100 180h20v10h-20z" fill="#ffd067"/><path d="m120 180h40v10h-40z" fill="#f7913d"/><path d="m160 180h10v10h-10z" fill="#ff7216"/><path d="m170 180h20v10h-20z" fill="#6e3206"/><path d="m190 180h10v10h-10z" fill="#ff7216"/><path d="m200 180h20v10h-20z" fill="#f7913d"/><path d="m220 180h10v10h-10z" fill="#ffd067"/><path d="m230 180h50v10h-50z" fill="#ff7216"/><path d="m80 190h60v10h-60z" fill="#ffd067"/><path d="m140 190h20v10h-20z" fill="#f7913d"/><path d="m160 190h40v10h-40z" fill="#ff7216"/><path d="m200 190h10v10h-10z" fill="#f7913d"/><path d="m210 190h30v10h-30z" fill="#ffd067"/><path d="m90 200h140v10h-140z" fill="#ffd067"/><path d="m100 210h120v10h-120z" fill="#ffd067"/><path d="m120 220h80v10h-80z" fill="#ffd067"/><path d="m100 110h60v10h-60z" fill="#fe500c"/><path d="m170 110h60v10h-60z" fill="#fe500c"/><path d="m100 120h10v10h-10z" fill="#fe500c"/><path d="m110 120h20v10h-20z" fill="#fff"/><path d="m130 120h20v10h-20z"/><path d="m150 120h10v10h-10z" fill="#fe500c"/><path d="m170 120h10v10h-10z" fill="#fe500c"/><path d="m180 120h20v10h-20z" fill="#fff"/><path d="m200 120h20v10h-20z"/><path d="m220 120h10v10h-10z" fill="#fe500c"/><path d="m70 130h40v10h-40z" fill="#fe500c"/><path d="m110 130h20v10h-20z" fill="#fff"/><path d="m130 130h20v10h-20z"/><path d="m150 130h30v10h-30z" fill="#fe500c"/><path d="m180 130h20v10h-20z" fill="#fff"/><path d="m200 130h20v10h-20z"/><path d="m220 130h10v10h-10z" fill="#fe500c"/><path d="m70 140h10v10h-10z" fill="#fe500c"/><path d="m100 140h10v10h-10z" fill="#fe500c"/><path d="m110 140h20v10h-20z" fill="#fff"/><path d="m130 140h20v10h-20z"/><path d="m150 140h10v10h-10z" fill="#fe500c"/><path d="m170 140h10v10h-10z" fill="#fe500c"/><path d="m180 140h20v10h-20z" fill="#fff"/><path d="m200 140h20v10h-20z"/><path d="m220 140h10v10h-10z" fill="#fe500c"/><path d="m70 150h10v10h-10z" fill="#fe500c"/><path d="m100 150h10v10h-10z" fill="#fe500c"/><path d="m110 150h20v10h-20z" fill="#fff"/><path d="m130 150h20v10h-20z"/><path d="m150 150h10v10h-10z" fill="#fe500c"/><path d="m170 150h10v10h-10z" fill="#fe500c"/><path d="m180 150h20v10h-20z" fill="#fff"/><path d="m200 150h20v10h-20z"/><path d="m220 150h10v10h-10z" fill="#fe500c"/><path d="m100 160h60v10h-60z" fill="#fe500c"/><path d="m170 160h60v10h-60z" fill="#fe500c"/></svg>