<svg xmlns="http://www.w3.org/2000/svg" viewBox="0 -0.5 50 50" shape-rendering="crispEdges">
	<title>Bitcoin Pussies #064</title>
	<desc>Bitcoin Pussies are 69 uniquely drawn and inscribed cats on Bitcoin</desc>
	<desc xmlns:meow="https://bitcoinpussies.com/">
		<meow:traits>
			<meow:Skin>Lightgrey, White</meow:Skin>
			<meow:Eyes>Smiling</meow:Eyes>
			<meow:Gear>None</meow:Gear>
			<meow:Message>The dollar does not have nine lives like meow</meow:Message>
		</meow:traits>
	</desc>
	<path stroke="#fff195" d="M0 0h50M0 1h50M0 2h50M0 3h50M0 4h50M0 5h50M0 6h50M0 7h50M0 8h50M0 9h50M0 10h50M0 11h50M0 12h50M0 13h50M0 14h50M0 15h16M19 15h13M35 15h15M0 16h15M21 16h9M36 16h14M0 17h15M36 17h14M0 18h15M36 18h14M0 19h15M36 19h14M0 20h15M36 20h14M0 21h15M36 21h14M0 22h16M35 22h15M0 23h15M36 23h14M0 24h15M36 24h14M0 25h15M36 25h14M0 26h15M36 26h14M0 27h15M36 27h14M0 28h16M35 28h15M0 29h16M35 29h15M0 30h17M34 30h16M0 31h19M32 31h18M0 32h15M17 32h3M31 32h19M0 33h14M18 33h1M32 33h18M0 34h14M18 34h1M32 34h18M0 35h15M33 35h17M0 36h16M33 36h17M0 37h17M33 37h17M0 38h18M32 38h18M0 39h20M31 39h19M0 40h50M0 41h50M0 42h50M0 43h50M0 44h50M0 45h50M0 46h50M0 47h50M0 48h50M0 49h50" />
	<path stroke="#000000" d="M16 15h3M32 15h3M15 16h1M19 16h2M30 16h2M35 16h1M15 17h1M21 17h9M35 17h1M15 18h1M19 18h2M30 18h2M35 18h1M15 19h1M18 19h1M32 19h1M35 19h1M15 20h1M17 20h1M33 20h1M35 20h1M15 21h2M34 21h2M16 22h1M34 22h1M15 23h1M20 23h2M29 23h2M35 23h1M15 24h1M19 24h1M22 24h1M28 24h1M31 24h1M35 24h1M15 25h1M35 25h1M15 26h1M23 26h1M25 26h1M27 26h1M35 26h1M15 27h1M24 27h1M26 27h1M35 27h1M16 28h1M25 28h1M34 28h1M16 29h1M34 29h1M17 30h2M32 30h2M19 31h2M30 31h2M15 32h2M20 32h1M30 32h1M14 33h1M17 33h1M19 33h1M31 33h1M14 34h1M17 34h1M19 34h1M31 34h1M15 35h1M18 35h1M32 35h1M16 36h1M18 36h1M32 36h1M17 37h2M32 37h1M18 38h2M21 38h1M23 38h1M27 38h1M29 38h1M31 38h1M20 39h11" />
	<path stroke="#acacac" d="M16 16h3M32 16h3M16 17h1M20 17h1M30 17h1M34 17h1M16 18h1M21 18h2M24 18h1M26 18h1M28 18h2M34 18h1M16 19h1M19 19h4M24 19h1M26 19h1M28 19h4M34 19h1M16 20h1M18 20h15M34 20h1M17 21h17M17 22h17M16 23h4M22 23h7M31 23h4M16 24h3M20 24h2M23 24h1M27 24h1M29 24h2M32 24h3M16 25h2M20 25h3M28 25h3M33 25h2M16 26h6M29 26h6M16 27h5M30 27h5M17 28h2M32 28h2M17 29h1M33 29h1M21 31h1M29 31h1M21 32h2M28 32h2M15 33h1M22 33h1M28 33h1M16 34h1M20 34h2M29 34h2M19 36h1M31 36h1M19 37h1M31 37h1M20 38h1M30 38h1" />
	<path stroke="#ffd0d1" d="M17 17h3M31 17h3M17 18h2M32 18h2M17 19h1M33 19h1" />
	<path stroke="#868686" d="M23 18h1M25 18h1M27 18h1M23 19h1M25 19h1M27 19h1M16 33h1M20 33h2M29 33h2M19 35h2M30 35h2" />
	<path stroke="#ffffff" d="M24 24h3M23 25h5M22 26h1M24 26h1M26 26h1M28 26h1M21 27h3M27 27h3M19 28h6M26 28h6M18 29h15M19 30h13M22 31h7M23 32h5M23 33h5M15 34h1M22 34h7M16 35h2M21 35h9M17 36h1M20 36h11M20 37h11M22 38h1M24 38h3M28 38h1" />
	<path stroke="#ffacae" d="M18 25h2M31 25h2" />
	<path stroke="#dfb3a9" d="M25 27h1" />
</svg>