<svg xmlns="http://www.w3.org/2000/svg" viewBox="0 -0.5 50 50" shape-rendering="crispEdges">
	<title>Bitcoin Pussies #051</title>
	<desc>Bitcoin Pussies are 69 uniquely drawn and inscribed cats on Bitcoin</desc>
	<desc xmlns:meow="https://bitcoinpussies.com/">
		<meow:traits>
			<meow:Skin>Grey, White</meow:Skin>
			<meow:Eyes>Closed</meow:Eyes>
			<meow:Gear>Lucy the Snail</meow:Gear>
			<meow:Message>Who lives in a pineapple under the sea?</meow:Message>
		</meow:traits>
	</desc>
	<path stroke="#00b7ff" d="M0 0h50M0 1h11M13 1h37M0 2h10M11 2h2M14 2h36M0 3h10M11 3h2M14 3h36M0 4h6M8 4h2M11 4h2M14 4h1M17 4h33M0 5h5M6 5h2M9 5h2M12 5h1M15 5h2M18 5h32M0 6h4M5 6h4M11 6h2M14 6h3M23 6h21M46 6h4M0 7h4M5 7h6M12 7h5M24 7h1M28 7h1M32 7h11M44 7h2M47 7h3M0 8h5M6 8h3M10 8h5M33 8h9M43 8h4M48 8h2M0 9h6M9 9h1M11 9h1M13 9h1M33 9h9M43 9h4M48 9h2M0 10h9M10 10h2M13 10h2M33 10h9M43 10h3M47 10h3M0 11h9M10 11h2M13 11h2M32 11h7M42 11h1M44 11h1M46 11h4M0 12h9M10 12h2M14 12h1M32 12h6M39 12h3M43 12h2M46 12h1M0 13h10M12 13h2M32 13h6M39 13h5M45 13h1M47 13h3M0 14h15M32 14h7M43 14h7M0 15h16M32 15h7M40 15h5M0 16h16M32 16h6M39 16h3M43 16h3M47 16h3M0 17h2M5 17h11M35 17h3M39 17h2M42 17h1M44 17h3M48 17h2M0 18h1M2 18h3M6 18h2M11 18h4M36 18h3M41 18h2M44 18h3M48 18h2M1 19h4M6 19h1M8 19h3M13 19h2M36 19h8M47 19h3M1 20h4M6 20h1M8 20h5M14 20h1M36 20h14M1 21h5M7 21h6M14 21h1M36 21h14M1 22h5M7 22h3M13 22h2M36 22h14M1 23h8M10 23h5M36 23h14M0 24h1M2 24h6M9 24h7M35 24h15M1 25h3M6 25h3M12 25h3M36 25h14M1 26h3M6 26h6M13 26h2M36 26h14M0 27h10M13 27h2M36 27h14M0 28h10M13 28h2M36 28h2M40 28h4M45 28h5M0 29h1M2 29h4M7 29h4M13 29h2M36 29h1M40 29h1M42 29h2M45 29h5M1 30h1M3 30h2M8 30h3M13 30h2M36 30h1M40 30h1M42 30h1M45 30h5M0 31h1M2 31h3M13 31h1M42 31h1M45 31h5M0 32h1M2 32h3M15 32h1M37 32h1M41 32h2M45 32h5M0 33h1M2 33h4M14 33h1M17 33h2M32 33h2M39 33h1M44 33h6M0 34h1M2 34h2M5 34h1M8 34h1M17 34h2M32 34h3M36 34h1M39 34h1M44 34h6M0 35h2M6 35h1M15 35h3M33 35h2M43 35h7M0 36h4M13 36h4M33 36h3M41 36h9M0 37h8M13 37h3M33 37h4M39 37h1M41 37h9M0 38h9M10 38h2M13 38h3M32 38h5M39 38h1M41 38h9M0 39h9M10 39h2M13 39h7M31 39h7M39 39h1M41 39h9M0 40h8M14 40h4M33 40h3M43 40h7M0 41h9M13 41h7M31 41h6M42 41h8M0 42h50M0 43h50M0 44h50M0 45h50M0 46h50M0 47h50M0 48h50M0 49h50" />
	<path stroke="#c7ea65" d="M11 1h2M10 2h1M13 2h1M10 3h1M13 3h1M6 4h2M10 4h1M13 4h1M15 4h2M5 5h1M8 5h1M11 5h1M13 5h2M17 5h1M4 6h1M9 6h2M13 6h1M17 6h1M4 7h1M11 7h1M5 8h1M9 8h1M15 8h1M6 9h3M10 9h1M12 9h1M14 9h1M9 10h1M12 10h1M9 11h1M12 11h1M9 12h1M12 12h2M10 13h2M14 13h1" />
	<path stroke="#000000" d="M18 6h5M17 7h1M23 7h1M25 7h3M29 7h3M16 8h1M24 8h1M28 8h1M32 8h1M15 9h1M24 9h1M27 9h2M31 9h2M15 10h1M24 10h1M28 10h1M32 10h1M15 11h1M25 11h7M15 12h1M25 12h1M28 12h2M31 12h1M15 13h1M26 13h1M28 13h2M31 13h1M15 14h1M26 14h1M28 14h2M31 14h1M16 15h1M26 15h1M29 15h1M31 15h1M16 16h1M25 16h3M29 16h1M31 16h1M16 17h2M27 17h1M29 17h6M15 18h1M18 18h10M31 18h1M35 18h1M15 19h1M19 19h1M32 19h1M35 19h1M15 20h1M18 20h1M21 20h11M35 20h1M15 21h1M18 21h3M32 21h1M35 21h1M15 22h1M17 22h1M33 22h1M35 22h1M15 23h2M34 23h2M16 24h1M34 24h1M15 25h1M20 25h3M28 25h3M35 25h1M15 26h1M35 26h1M15 27h1M25 27h1M35 27h1M15 28h1M24 28h3M35 28h1M15 29h1M35 29h1M16 30h1M34 30h1M16 31h1M34 31h1M17 32h2M32 32h2M19 33h2M30 33h2M19 34h1M31 34h1M18 35h1M32 35h1M17 36h2M32 36h1M16 37h1M18 37h1M22 37h2M27 37h2M32 37h1M16 38h4M24 38h1M26 38h1M31 38h1M20 39h11" />
	<path stroke="#b85fff" d="M44 6h2M43 7h1M46 7h1M42 8h1M47 8h1M42 9h1M47 9h1M42 10h1M46 10h1M39 11h3M43 11h1M45 11h1M38 12h1M42 12h1M45 12h1M47 12h3M38 13h1M44 13h1M46 13h1M39 14h4M39 15h1M45 15h5M38 16h1M42 16h1M46 16h1M38 17h1M41 17h1M43 17h1M47 17h1M39 18h2M43 18h1M47 18h1M44 19h3" />
	<path stroke="#ffdd7b" d="M18 7h5M17 8h7M16 9h2M20 9h1M22 9h2M16 10h8M17 11h2M21 11h2M24 11h1M16 12h2M19 12h2M22 12h3M16 13h2M19 13h3M23 13h3M16 14h3M20 14h2M23 14h3M17 15h3M21 15h1M23 15h3M17 16h5M23 16h2M18 17h4M23 17h4" />
	<path stroke="#ffffff" d="M25 8h1M29 8h1M25 9h1M29 9h1M25 10h3M29 10h3M21 21h1M29 21h3M18 22h2M31 22h2M17 23h2M32 23h2M17 24h1M33 24h1M16 25h2M33 25h2M16 26h1M34 26h1M16 27h1M34 27h1M16 28h1M34 28h1M16 29h2M33 29h2M17 30h2M32 30h2M17 31h4M30 31h4M19 32h13M21 33h9M20 34h11M19 35h13M19 36h13M19 37h3M24 37h3M29 37h3M20 38h2M25 38h1M29 38h2" />
	<path stroke="#91d9ff" d="M26 8h2M30 8h2M26 9h1M30 9h1" />
	<path stroke="#235c82" d="M18 9h2M21 9h1M16 11h1M23 11h1" />
	<path stroke="#e03700" d="M19 11h2M18 12h1M21 12h1M18 13h1M22 13h1M19 14h1M22 14h1M20 15h1M22 15h1M22 16h1M22 17h1" />
	<path stroke="#bb7d49" d="M26 12h2M30 12h1M27 13h1M30 13h1M27 14h1M30 14h1M27 15h2M30 15h1M28 16h1M30 16h1M28 17h1M28 18h3" />
	<path stroke="#2963c4" d="M2 17h3M1 18h1M5 18h1M8 18h3M0 19h1M5 19h1M7 19h1M11 19h2M0 20h1M5 20h1M7 20h1M13 20h1M0 21h1M6 21h1M13 21h1M0 22h1M6 22h1M10 22h3M0 23h1M9 23h1M1 24h1M8 24h1M0 25h1M4 25h2M9 25h3M0 26h1M4 26h2M12 26h1M12 27h1M12 28h1M1 29h1M6 29h1M0 30h1M2 30h1M1 31h1M6 31h1M8 31h3M1 32h1M1 33h1M6 33h1M1 34h1M6 34h1M2 35h2M5 35h1" />
	<path stroke="#606060" d="M16 18h2M32 18h3M16 19h1M34 19h1M16 20h1M34 20h1M16 21h1M34 21h1M16 22h1M34 22h1" />
	<path stroke="#ffcfc6" d="M17 19h2M33 19h1M17 20h1M32 20h2M17 21h1M33 21h1" />
	<path stroke="#ea7133" d="M20 19h12M19 20h2" />
	<path stroke="#7b7b7b" d="M22 21h7M20 22h11M19 23h13M18 24h15M18 25h2M23 25h5M31 25h2M17 26h17M17 27h2M21 27h4M26 27h4M32 27h2M17 28h2M21 28h3M27 28h3M32 28h2M18 29h15M19 30h13M21 31h9M17 37h1M22 38h2M27 38h2" />
	<path stroke="#fb7477" d="M10 27h2M10 28h2M39 30h1M39 31h1M9 32h1M16 32h1M39 32h1M44 32h1M9 33h1M16 33h1M43 33h1M10 34h1M15 34h2M37 34h1M42 34h2M13 35h2M36 35h2M41 35h2M12 36h1M11 37h2M38 37h1M12 38h1M38 38h1M12 39h1M38 39h1" />
	<path stroke="#ffc0b4" d="M19 27h2M30 27h2M19 28h2M30 28h2" />
	<path stroke="#fc9800" d="M38 28h1M37 29h2M41 29h1M44 29h1M5 30h2M12 30h1M35 30h1M37 30h1M41 30h1M44 30h1M5 31h1M11 31h2M35 31h2M40 31h2M6 32h2M40 32h1M13 33h1M38 33h1M42 33h1M38 34h1M8 35h1M11 35h1M38 35h1M5 36h2M8 36h2M11 36h1M40 37h1" />
	<path stroke="#ffa3a5" d="M39 28h1M11 29h2M39 29h1M7 30h1M15 30h1M38 30h1M7 31h1M15 31h1M38 31h1M44 31h1M8 32h1M12 32h1M34 32h2M38 32h1M8 33h1M15 33h1M34 33h2M9 34h1M12 34h3M35 34h1M9 35h1M12 35h1M35 35h1M36 36h4M37 37h1M37 38h1" />
	<path stroke="#ffc065" d="M44 28h1M11 30h1M43 30h1M14 31h1M37 31h1M43 31h1M5 32h1M10 32h2M13 32h2M36 32h1M43 32h1M7 33h1M10 33h3M36 33h2M40 33h2M4 34h1M7 34h1M11 34h1M40 34h2M4 35h1M7 35h1M10 35h1M39 35h2M4 36h1M7 36h1M10 36h1M40 36h1M8 37h3M9 38h1M40 38h1M9 39h1M40 39h1" />
	<path stroke="#008bc9" d="M8 40h6M18 40h15M36 40h7M9 41h4M20 41h11M37 41h5" />
</svg>