<?xml version="1.0" encoding="utf-8"?>
<!-- Generator: Adobe Illustrator 27.6.1, SVG Export Plug-In . SVG Version: 6.00 Build 0)  -->
<svg version="1.1" xmlns="http://www.w3.org/2000/svg" xmlns:xlink="http://www.w3.org/1999/xlink" x="0px" y="0px"
	 viewBox="0 0 1080 1080" style="enable-background:new 0 0 1080 1080;" xml:space="preserve">
<style type="text/css">
	.st0{fill:#FFFFFF;}
	.st1{stroke:#000000;stroke-width:13;stroke-miterlimit:10;}
</style>
<g id="BG_00000049199473064088084310000008836133144443458486_">
	<rect class="st0" width="1080" height="1080"/>
</g>
<g id="face">
	<polygon class="st1" points="539.37,186.42 182.79,804.03 895.94,804.03 	"/>
</g>
<g id="BG">
	<polygon class="st0" points="660.3,716.69 710.15,630.34 610.45,630.34 	"/>
	<polygon class="st0" points="499.84,516.81 539.13,494.13 539.13,539.5 	"/>
	<polygon class="st0" points="539.13,494.13 499.84,516.81 499.84,471.44 	"/>
	<polygon class="st0" points="460.54,539.5 499.84,516.81 499.84,562.19 	"/>
	<polygon class="st0" points="499.84,516.81 460.54,539.5 460.54,494.13 	"/>
	<polygon class="st0" points="421.25,562.19 460.54,539.5 460.54,584.87 	"/>
	<polygon class="st0" points="460.54,539.5 421.25,562.19 421.25,516.81 	"/>
	<polygon class="st0" points="538.87,494.13 578.17,471.44 578.17,516.81 	"/>
	<polygon class="st0" points="578.52,471.44 539.23,494.13 539.23,448.76 	"/>
	<polygon class="st0" points="578.17,471.44 617.46,448.76 617.46,494.13 	"/>
	<polygon class="st0" points="617.81,448.76 578.52,471.44 578.52,426.07 	"/>
	<polygon class="st0" points="539.13,403.39 578.42,380.7 578.42,426.07 	"/>
	<polygon class="st0" points="578.77,380.7 539.48,403.39 539.48,358.02 	"/>
	<polygon class="st0" points="499.84,335.33 539.13,312.65 539.13,358.02 	"/>
	<polygon class="st0" points="539.13,358.02 499.84,380.7 499.84,335.33 	"/>
	<polygon points="623.45,630.34 697.15,630.34 660.3,694.17 	"/>
	<polygon points="682.41,630.34 660.3,668.64 638.19,630.34 	"/>
	<polygon class="st0" points="674.09,649.49 663.04,630.34 685.15,630.34 	"/>
	<polygon class="st0" points="417.16,716.69 367.31,630.34 467.01,630.34 	"/>
	<polygon points="453.06,630.34 379.36,630.34 416.21,694.17 	"/>
	<polygon points="394.02,630.34 416.13,668.64 438.25,630.34 	"/>
	<polygon class="st0" points="429.96,649.49 441.01,630.34 418.9,630.34 	"/>
	<polygon class="st0" points="539.37,716.69 496.07,751.69 582.67,751.69 	"/>
</g>
</svg>
