<svg height="320" shape-rendering="crispEdges" viewBox="0 0 320 320" width="320" xmlns="http://www.w3.org/2000/svg"><rect fill="#d5d7e1" height="100%" width="100%"/><path d="m90 210h140v10h-140z" fill="#fe500c"/><path d="m90 220h140v10h-140z" fill="#fe500c"/><path d="m90 230h140v10h-140z" fill="#fe500c"/><path d="m90 240h140v10h-140z" fill="#fe500c"/><path d="m90 250h20v10h-20z" fill="#fe500c"/><path d="m120 250h110v10h-110z" fill="#fe500c"/><path d="m90 260h20v10h-20z" fill="#fe500c"/><path d="m120 260h110v10h-110z" fill="#fe500c"/><path d="m90 270h20v10h-20z" fill="#fe500c"/><path d="m120 270h110v10h-110z" fill="#fe500c"/><path d="m90 280h20v10h-20z" fill="#fe500c"/><path d="m120 280h110v10h-110z" fill="#fe500c"/><path d="m90 290h20v10h-20z" fill="#fe500c"/><path d="m120 290h110v10h-110z" fill="#fe500c"/><path d="m90 300h20v10h-20z" fill="#fe500c"/><path d="m120 300h110v10h-110z" fill="#fe500c"/><path d="m90 310h20v10h-20z" fill="#fe500c"/><path d="m120 310h110v10h-110z" fill="#fe500c"/><g fill="#f9f4e6"><path d="m90 210h30v10h-30z"/><path d="m130 210h70v10h-70z"/><path d="m210 210h20v10h-20z"/><path d="m90 220h20v10h-20z"/><path d="m140 220h50v10h-50z"/><path d="m220 220h10v10h-10z"/><path d="m90 230h10v10h-10z"/><path d="m150 230h30v10h-30z"/><path d="m160 240h10v10h-10z"/><path d="m90 250h20v10h-20z"/><path d="m120 250h40v10h-40z"/><path d="m170 250h60v10h-60z"/><path d="m100 260h10v10h-10z"/><path d="m120 260h30v10h-30z"/><path d="m180 260h50v10h-50z"/><path d="m120 270h20v10h-20z"/><path d="m190 270h30v10h-30z"/><path d="m120 280h10v10h-10z"/><path d="m200 280h10v10h-10z"/><path d="m90 290h20v10h-20z"/><path d="m130 290h70v10h-70z"/><path d="m210 290h20v10h-20z"/><path d="m90 300h20v10h-20z"/><path d="m140 300h50v10h-50z"/><path d="m220 300h10v10h-10z"/><path d="m90 310h10v10h-10z"/><path d="m150 310h30v10h-30z"/></g><path d="m80 20h10v10h-10z" fill="#cc0595"/><path d="m80 30h10v10h-10z" fill="#cc0595"/><path d="m90 30h10v10h-10z" fill="#fb4694"/><path d="m80 40h20v10h-20z" fill="#cc0595"/><path d="m100 40h10v10h-10z" fill="#fb4694"/><path d="m80 50h10v10h-10z" fill="#cc0595"/><path d="m90 50h30v10h-30z" fill="#fb4694"/><path d="m80 60h10v10h-10z" fill="#cc0595"/><path d="m90 60h40v10h-40z" fill="#fb4694"/><path d="m80 70h20v10h-20z" fill="#cc0595"/><path d="m100 70h40v10h-40z" fill="#fb4694"/><path d="m80 80h10v10h-10z" fill="#cc0595"/><path d="m90 80h60v10h-60z" fill="#fb4694"/><path d="m80 90h10v10h-10z" fill="#cc0595"/><path d="m90 90h70v10h-70z" fill="#fb4694"/><path d="m80 100h20v10h-20z" fill="#cc0595"/><path d="m100 100h70v10h-70z" fill="#fb4694"/><path d="m80 110h10v10h-10z" fill="#cc0595"/><path d="m90 110h90v10h-90z" fill="#fb4694"/><path d="m80 120h10v10h-10z" fill="#cc0595"/><path d="m90 120h30v10h-30z" fill="#fb4694"/><path d="m130 120h60v10h-60z" fill="#fb4694"/><path d="m80 130h20v10h-20z" fill="#cc0595"/><path d="m100 130h20v10h-20z" fill="#fb4694"/><path d="m140 130h60v10h-60z" fill="#fb4694"/><path d="m80 140h10v10h-10z" fill="#cc0595"/><path d="m90 140h30v10h-30z" fill="#fb4694"/><path d="m150 140h60v10h-60z" fill="#fb4694"/><path d="m80 150h10v10h-10z" fill="#cc0595"/><path d="m90 150h30v10h-30z" fill="#fb4694"/><path d="m160 150h60v10h-60z" fill="#fb4694"/><path d="m80 160h20v10h-20z" fill="#cc0595"/><path d="m100 160h20v10h-20z" fill="#fb4694"/><path d="m170 160h60v10h-60z" fill="#fb4694"/><path d="m80 170h10v10h-10z" fill="#cc0595"/><path d="m90 170h30v10h-30z" fill="#fb4694"/><path d="m180 170h60v10h-60z" fill="#fb4694"/><path d="m80 180h10v10h-10z" fill="#cc0595"/><path d="m90 180h160v10h-160z" fill="#fb4694"/><path d="m80 190h20v10h-20z" fill="#cc0595"/><path d="m100 190h90v10h-90z" fill="#fb4694"/><path d="m190 190h40v10h-40z" fill="#cc0595"/><path d="m230 190h30v10h-30z" fill="#fb4694"/><path d="m80 200h10v10h-10z" fill="#cc0595"/><path d="m90 200h100v10h-100z" fill="#fb4694"/><path d="m190 200h40v10h-40z" fill="#cc0595"/><path d="m230 200h40v10h-40z" fill="#fb4694"/><path d="m80 210h10v10h-10z" fill="#cc0595"/><path d="m90 210h190v10h-190z" fill="#fb4694"/><path d="m100 110h60v10h-60z"/><path d="m170 110h60v10h-60z"/><path d="m100 120h30v10h-30z"/><path d="m130 120h10v10h-10z" fill="#ff0e0e"/><path d="m140 120h20v10h-20z"/><path d="m170 120h30v10h-30z"/><path d="m200 120h10v10h-10z" fill="#ff0e0e"/><path d="m210 120h20v10h-20z"/><path d="m70 130h160v10h-160z"/><path d="m70 140h10v10h-10z"/><path d="m100 140h10v10h-10z"/><path d="m110 140h10v10h-10z" fill="#0adc4d"/><path d="m120 140h20v10h-20z"/><path d="m140 140h10v10h-10z" fill="#1929f4"/><path d="m150 140h10v10h-10z"/><path d="m170 140h10v10h-10z"/><path d="m180 140h10v10h-10z" fill="#0adc4d"/><path d="m190 140h20v10h-20z"/><path d="m210 140h10v10h-10z" fill="#1929f4"/><path d="m220 140h10v10h-10z"/><path d="m70 150h10v10h-10z"/><path d="m100 150h60v10h-60z"/><path d="m170 150h60v10h-60z"/><path d="m100 160h60v10h-60z"/><path d="m170 160h60v10h-60z"/></svg>