<?xml version="1.0" encoding="UTF-8"?><svg xmlns="http://www.w3.org/2000/svg" viewBox="0 0 198.43 340.16"><defs><style>.l{mix-blend-mode:soft-light;}.l,.m,.n{fill:#f2f2f2;}.o{fill:#0a0b00;}.m{mix-blend-mode:overlay;}.p{isolation:isolate;}.q{opacity:.66;}.q,.r{fill:#ff0;}.s,.t,.u,.v,.w{fill:none;stroke-miterlimit:10;}.s,.u{stroke-width:.5px;}.s,.w{stroke:#f2f2f2;}.r{opacity:.5;}.t,.v{stroke:#ff0;}.u{stroke:#999;}.x{fill:#999;}.v{opacity:.78;}</style></defs><g class="p"><g id="b"><g id="c"><g id="d"><rect class="n" width="198.43" height="340.16" rx="1.34" ry="1.34"/><path class="o" d="m6.93,333.51c-1.16,0-2.1-.87-2.1-1.95V8.6c0-1.08.94-1.95,2.1-1.95h184.56c1.16,0,2.1.87,2.1,1.95v322.96c0,1.08-.94,1.95-2.1,1.95"/><g id="e"><path class="n" d="m54.98,308.55h2.32c1.88,0,2.99.69,2.99,2.21,0,.95-.53,1.71-1.62,1.98v.06c1.35.2,2.18.94,2.18,2.2,0,1.75-1.27,2.65-3.38,2.65h-2.5v-9.1Zm2.06,3.99c1.88,0,2.62-.6,2.62-1.76s-.82-1.69-2.54-1.69h-1.5v3.45h1.43Zm.27,4.56c1.86,0,2.91-.64,2.91-2.1,0-1.31-1.04-1.92-2.91-1.92h-1.69v4.02h1.69Z"/><path class="n" d="m63.35,308.55h2.61c1.82,0,3.01.66,3.01,2.4s-1.2,2.52-3.01,2.52h-1.97v4.18h-.64v-9.1Zm2.45,4.39c1.62,0,2.52-.64,2.52-1.98s-.9-1.87-2.52-1.87h-1.8v3.85h1.8Zm.63.16l2.72,4.55h-.74l-2.59-4.36.61-.19Z"/><path class="n" d="m71.54,317.1h2.35v-8h-2.35v-.55h5.35v.55h-2.35v8h2.35v.55h-5.35v-.55Z"/><path class="n" d="m82.23,308.55h.65l3.22,9.1h-.68l-1.82-5.36c-.37-1.08-.7-2.03-1.01-3.14h-.06c-.32,1.11-.64,2.06-1.01,3.14l-1.85,5.36h-.65l3.22-9.1Zm-1.75,5.44h4.1v.54h-4.1v-.54Z"/><path class="n" d="m87.95,308.55h.64v3.98h4.59v-3.98h.64v9.1h-.64v-4.56h-4.59v4.56h-.64v-9.1Z"/><path class="n" d="m107.26,307.29h.56v13.81h-.56v-13.81Z"/><path class="n" d="m123.88,308.55h.65l3.22,9.1h-.68l-1.82-5.36c-.37-1.08-.7-2.03-1.01-3.14h-.06c-.32,1.11-.64,2.06-1.01,3.14l-1.85,5.36h-.65l3.22-9.1Zm-1.75,5.44h4.1v.54h-4.1v-.54Z"/><path class="n" d="m129.86,317.1h2.35v-8h-2.35v-.55h5.35v.55h-2.35v8h2.35v.55h-5.35v-.55Z"/><path class="n" d="m138.33,308.55h2.61c1.82,0,3.01.66,3.01,2.4s-1.2,2.52-3.01,2.52h-1.97v4.18h-.64v-9.1Zm2.45,4.39c1.62,0,2.52-.64,2.52-1.98s-.9-1.87-2.52-1.87h-1.8v3.85h1.8Zm.63.16l2.72,4.55h-.74l-2.59-4.36.61-.19Z"/></g><line id="f" class="w" x1="4.07" y1="298.04" x2="194.36" y2="298.04"/><rect class="s" x="7.74" y="9.5" width="182.95" height="321.15" rx="1.34" ry="1.34"/><path class="w" d="m158.6,266.18H41.15v-57.86c8.83,18.92,108.54,19.08,117.45,0v57.86Z"/><path class="n" d="m106.23,259.02v-13.56c0-1.35.05-2.53.15-3.53.1-1,.22-1.87.35-2.61.13-.74.24-1.34.33-1.81v-.13h-15.81c-.68,0-1.21-.24-1.59-.71-.38-.47-.57-1.25-.57-2.34,0-.38.01-.75.04-1.1.03-.35.1-.77.2-1.26.1-.49.23-1.1.38-1.83h1.19v.44c0,.71.22,1.21.66,1.52.44.31,1,.46,1.68.46h15.28c.5,0,.85.1,1.04.31.19.21.29.59.29,1.15v2.96l-1.15.4.57,20.05c-.32.32-.68.61-1.06.86-.38.25-.82.49-1.33.73h-.66Zm-16.34,0v-11.88c0-1,.1-1.75.31-2.25.21-.5.54-.81,1.02-.93l1.41-.4.27.31.04,13.56c-.32.32-.68.61-1.06.86-.38.25-.82.49-1.32.73h-.66Z"/><path class="n" d="m98.77,197.41l-1.15-27.13c0-.73-.09-1.24-.27-1.53-.18-.29-.58-.44-1.2-.44h-3.61c-.87,0-1.54-.3-1.99-.9-.46-.6-.68-1.61-.68-3.03,0-.4.02-.81.05-1.23.04-.42.12-.93.25-1.53.13-.6.28-1.36.46-2.27h1.48v.16c0,.87.25,1.57.74,2.08.49.51,1.21.76,2.16.76h3.12c.95,0,1.6.23,1.97.68.36.46.56,1.27.6,2.43l-1.6,31.56"/><path class="w" d="m98.95,218.75c28.27,0,49.11-6.17,50.84-9.65-8.65-3.21-46.7-21.63-48.86-22.63-2.15-1-27.67-14.59-38.14-22.07s-10.71-12.41-10.71-12.41c0,0,9.03-8.85,46.88-8.85h0c37.85,0,46.88,8.85,46.88,8.85,0,0-.24,4.92-10.71,12.41-10.47,7.48-35.99,21.08-38.14,22.07-2.15,1-40.2,19.42-48.86,22.63,1.73,3.48,25.48,9.65,50.84,9.65h0Z"/><path id="g" class="q" d="m85.27,86.04s5.16,4.32,13.43,4.32,13.44-4.32,13.44-4.32c20.11,0,43.05,2.4,43.05,2.4.62,0,1.12.86,1.12,1.91,0,0,1.33,9.66,1.27,20.24-.05,10.58-1.27,24.73-1.27,24.73,0,1.15-.59,2.03-1.25,1.9,0,0-25.43-4.75-55.28-4.75s-57.37,4.76-57.37,4.76c-.67.11-1.3-.77-1.3-1.91,0,0-1.24-14.96-1.29-24.68-.05-9.72,1.29-20.29,1.29-20.29,0-1.06.5-1.91,1.12-1.91,0,0,22.93-2.4,43.03-2.4Z"/><path id="h" class="m" d="m106.23,127.1v-13.56c0-1.35.05-2.53.15-3.53.1-1,.22-1.87.35-2.61.13-.74.24-1.34.33-1.81v-.13h-15.81c-.68,0-1.21-.24-1.59-.71-.38-.47-.57-1.25-.57-2.34,0-.38.01-.75.04-1.1.03-.35.1-.77.2-1.26.1-.49.23-1.1.38-1.83h1.19v.44c0,.71.22,1.21.66,1.52.44.31,1,.46,1.68.46h15.28c.5,0,.85.1,1.04.31.19.21.29.59.29,1.15v2.96l-1.15.4.57,20.05c-.32.32-.68.61-1.06.86-.38.25-.82.49-1.33.73h-.66Zm-16.34,0v-11.88c0-1,.1-1.75.31-2.25.21-.5.54-.81,1.02-.93l1.41-.4.27.31.04,13.56c-.32.32-.68.61-1.06.86-.38.25-.82.49-1.32.73h-.66Z"/><path id="i" class="t" d="m85.27,86.04s5.16,4.32,13.43,4.32,13.44-4.32,13.44-4.32c20.11,0,43.05,2.4,43.05,2.4.62,0,1.12.86,1.12,1.91,0,0,1.33,9.66,1.27,20.24-.05,10.58-1.27,24.73-1.27,24.73,0,1.15-.59,2.03-1.25,1.9,0,0-25.43-4.75-55.28-4.75s-57.37,4.76-57.37,4.76c-.67.11-1.3-.77-1.3-1.91,0,0-1.24-14.96-1.29-24.68-.05-9.72,1.29-20.29,1.29-20.29,0-1.06.5-1.91,1.12-1.91,0,0,22.93-2.4,43.03-2.4Z"/><path class="t" d="m85.3,85.92s5.16,4.32,13.43,4.32,13.44-4.32,13.44-4.32c4.43,0,8.99.12,13.42.3l-26.85-45.9-26.85,45.9c4.43-.18,8.99-.3,13.42-.3Z"/><path id="j" class="w" d="m98.9,43.78c-12.67,0-22.95,10.27-22.95,22.95s10.27,22.95,22.95,22.95,22.95-10.27,22.95-22.95-10.27-22.95-22.95-22.95"/><path id="k" class="l" d="m98.3,77.22l-1.91-2.02,1.69-1.97c1.31-1.53,2.19-2.74,2.65-3.63.46-.89.68-1.79.68-2.71,0-.51-.09-.92-.27-1.23-.18-.31-.57-.46-1.15-.46h-4.81c-.87,0-1.54-.3-1.99-.9-.46-.6-.68-1.61-.68-3.03,0-.4.02-.79.05-1.18.04-.38.12-.87.25-1.45.13-.58.28-1.38.46-2.4h1.48v.22c0,.95.25,1.65.77,2.1.51.46,1.22.68,2.13.68h3.61c1.38,0,2.4.43,3.06,1.28.66.86.98,2.07.98,3.63,0,1.09-.16,2.18-.46,3.25-.31,1.08-.73,2.09-1.26,3.03-.53.95-1.1,1.8-1.72,2.57l-3.55,4.21Z"/><path class="r" d="m85.3,85.92s5.16,4.32,13.43,4.32,13.44-4.32,13.44-4.32c4.43,0,8.99.12,13.42.3l-26.85-45.9-26.85,45.9c4.43-.18,8.99-.3,13.42-.3Z"/><line class="v" x1="56.86" y1="66.52" x2="140.59" y2="66.52"/><path class="x" d="m97.99,21.74v1.18h.42c.06,0,.09.01.12.03.02.02.03.05.03.08,0,.03-.01.06-.03.08-.02.02-.06.03-.12.03h-.94c-.05,0-.09-.01-.12-.03-.02-.02-.03-.05-.03-.08,0-.03.01-.06.03-.08.02-.02.06-.03.12-.03h.3v-2.69h-.3c-.05,0-.09-.01-.12-.03-.02-.02-.03-.05-.03-.08s.01-.06.03-.08c.02-.02.06-.03.12-.03h1.36c.28,0,.52.09.71.27.19.18.29.38.29.6,0,.16-.06.31-.18.45-.12.14-.32.26-.6.36.16.11.3.24.41.38.11.14.3.43.55.86h.17c.05,0,.09.01.12.03.02.02.03.05.03.08,0,.03-.01.06-.03.08-.02.02-.06.03-.12.03h-.3c-.28-.5-.49-.83-.65-1-.15-.17-.33-.3-.53-.4h-.72Zm0-.23h.61c.2,0,.38-.04.54-.11.16-.07.28-.16.35-.25s.11-.19.11-.3c0-.15-.08-.29-.23-.43-.15-.14-.33-.2-.55-.2h-.83v1.29Z"/><path class="x" d="m92.57,29.17h-1.48l-.3.82h.43c.05,0,.09.01.12.03.02.02.03.05.03.08,0,.03-.01.06-.03.08-.02.02-.06.03-.12.03h-.84c-.05,0-.09-.01-.12-.03-.02-.02-.03-.05-.03-.08,0-.03.01-.06.03-.08.02-.02.06-.03.12-.03h.17l1-2.69h-.67c-.05,0-.09-.01-.12-.03-.02-.02-.03-.05-.03-.08s.01-.06.03-.08c.02-.02.06-.03.12-.03h1.13l1.1,2.91h.17c.05,0,.09.01.12.03.02.02.03.05.03.08,0,.03-.01.06-.03.08-.02.02-.06.03-.12.03h-.84c-.06,0-.09-.01-.12-.03-.02-.02-.03-.05-.03-.08,0-.03.01-.06.03-.08.02-.02.06-.03.12-.03h.43l-.31-.82Zm-.09-.23l-.62-1.64h-.08l-.6,1.64h1.31Z"/><path class="x" d="m107.23,28.73c0,.3-.06.58-.18.84-.12.26-.29.46-.5.6-.21.14-.44.21-.69.21-.36,0-.68-.15-.96-.46s-.41-.7-.41-1.19.14-.88.41-1.19c.28-.31.6-.46.96-.46.25,0,.47.07.69.21.21.14.38.34.5.6.12.26.18.53.18.84Zm-.23,0c0-.37-.11-.7-.32-.99-.21-.29-.49-.44-.83-.44-.32,0-.59.14-.81.42-.22.28-.34.61-.34,1.01,0,.42.12.76.35,1.03.24.27.5.4.8.4.34,0,.61-.15.83-.44.21-.29.32-.62.32-.99Z"/><path class="x" d="m98.84,34.08v2.69h.58c.05,0,.09.01.12.03.02.02.03.05.03.08,0,.03-.01.06-.03.08-.02.02-.06.03-.12.03h-1.4c-.05,0-.09-.01-.12-.03-.02-.02-.03-.05-.03-.08,0-.03.01-.06.03-.08.02-.02.06-.03.12-.03h.58v-2.69h-.92v.78c0,.06-.01.09-.03.12-.02.02-.05.03-.08.03-.03,0-.06-.01-.08-.03-.02-.02-.03-.06-.03-.12v-1.01h2.52v1.01c0,.06-.01.09-.03.12-.02.02-.05.03-.08.03s-.06-.01-.08-.03c-.02-.02-.03-.06-.03-.12v-.78h-.92Z"/><path class="u" d="m105.86,26.44c-.74-2.52-2.78-4.48-5.33-5.11"/><path class="u" d="m100.53,35.71c2.37-.59,4.28-2.31,5.14-4.55"/><path class="u" d="m91.83,31.17c.84,2.2,2.7,3.89,4.99,4.51"/><path class="u" d="m97.07,21.48c-2.54.67-4.55,2.65-5.25,5.18"/></g></g></g></g></svg>