<svg version="1.1" viewBox="0 0 48 48" xmlns="http://www.w3.org/2000/svg"><rect width="100%" height="100%" fill="black"/><g fill="rgb(230, 87, 0)" font-family="Monospace" font-size="1px"><text x="12" y="23">0</text><text x="12" y="24">1</text><text x="12" y="25">0</text><text x="12" y="26">1</text><text x="12" y="27">0</text><text x="12" y="28">1</text><text x="12" y="29">0</text><text x="12" y="30">1</text><text x="13" y="23">1</text><text x="13" y="24">0</text><text x="13" y="25">1</text><text x="13" y="26">0</text><text x="13" y="27">1</text><text x="13" y="28">0</text><text x="13" y="29">1</text><text x="13" y="30">0</text><text x="14" y="17">0</text><text x="14" y="18">1</text><text x="14" y="19">0</text><text x="14" y="20">1</text><text x="14" y="21">0</text><text x="14" y="22">1</text><text x="14" y="23">0</text><text x="14" y="24">1</text><text x="14" y="25">0</text><text x="14" y="26">1</text><text x="15" y="17">1</text><text x="15" y="18">0</text><text x="15" y="19">1</text><text x="15" y="20">0</text><text x="15" y="21">1</text><text x="15" y="22">0</text><text x="15" y="23">1</text><text x="15" y="24">0</text><text x="15" y="25">1</text><text x="15" y="26">0</text><text x="16" y="15">0</text><text x="16" y="16">1</text><text x="16" y="17">0</text><text x="16" y="18">1</text><text x="16" y="19">0</text><text x="16" y="20">1</text><text x="16" y="21">0</text><text x="16" y="22">1</text><text x="17" y="15">1</text><text x="17" y="16">0</text><text x="17" y="17">1</text><text x="17" y="18">0</text><text x="17" y="19">1</text><text x="17" y="20">0</text><text x="17" y="21">1</text><text x="17" y="22">0</text><text x="18" y="15">0</text><text x="18" y="16">1</text><text x="18" y="17">0</text><text x="18" y="18">1</text><text x="18" y="19">0</text><text x="18" y="20">1</text><text x="19" y="15">1</text><text x="19" y="16">0</text><text x="19" y="17">1</text><text x="19" y="18">0</text><text x="19" y="19">1</text><text x="19" y="20">0</text><text x="20" y="13">0</text><text x="20" y="14">1</text><text x="20" y="15">0</text><text x="20" y="16">1</text><text x="20" y="17">0</text><text x="20" y="18">1</text><text x="20" y="19">0</text><text x="20" y="20">1</text><text x="21" y="13">1</text><text x="21" y="14">0</text><text x="21" y="15">1</text><text x="21" y="16">0</text><text x="21" y="17">1</text><text x="21" y="18">0</text><text x="21" y="19">1</text><text x="21" y="20">0</text><text x="22" y="13">0</text><text x="22" y="14">1</text><text x="22" y="15">0</text><text x="22" y="16">1</text><text x="22" y="17">0</text><text x="22" y="18">1</text><text x="22" y="19">0</text><text x="22" y="20">1</text><text x="23" y="13">1</text><text x="23" y="14">0</text><text x="23" y="15">1</text><text x="23" y="16">0</text><text x="23" y="17">1</text><text x="23" y="18">0</text><text x="23" y="19">1</text><text x="23" y="20">0</text><text x="24" y="13">0</text><text x="24" y="14">1</text><text x="24" y="15">0</text><text x="24" y="16">1</text><text x="24" y="17">0</text><text x="24" y="18">1</text><text x="24" y="19">0</text><text x="24" y="20">1</text><text x="25" y="13">1</text><text x="25" y="14">0</text><text x="25" y="15">1</text><text x="25" y="16">0</text><text x="25" y="17">1</text><text x="25" y="18">0</text><text x="25" y="19">1</text><text x="25" y="20">0</text><text x="26" y="13">0</text><text x="26" y="14">1</text><text x="26" y="15">0</text><text x="26" y="16">1</text><text x="26" y="17">0</text><text x="26" y="18">1</text><text x="26" y="19">0</text><text x="26" y="20">1</text><text x="26" y="21">0</text><text x="26" y="22">1</text><text x="27" y="13">1</text><text x="27" y="14">0</text><text x="27" y="15">1</text><text x="27" y="16">0</text><text x="27" y="17">1</text><text x="27" y="18">0</text><text x="27" y="19">1</text><text x="27" y="20">0</text><text x="27" y="21">1</text><text x="27" y="22">0</text><text x="28" y="15">0</text><text x="28" y="16">1</text><text x="28" y="17">0</text><text x="28" y="18">1</text><text x="28" y="19">0</text><text x="28" y="20">1</text><text x="28" y="43">0</text><text x="28" y="44">1</text><text x="28" y="45">0</text><text x="28" y="46">1</text><text x="29" y="15">1</text><text x="29" y="16">0</text><text x="29" y="17">1</text><text x="29" y="18">0</text><text x="29" y="19">1</text><text x="29" y="20">0</text><text x="29" y="43">1</text><text x="29" y="44">0</text><text x="29" y="45">1</text><text x="29" y="46">0</text><text x="30" y="15">0</text><text x="30" y="16">1</text><text x="30" y="17">0</text><text x="30" y="18">1</text><text x="30" y="19">0</text><text x="30" y="20">1</text><text x="30" y="21">0</text><text x="30" y="22">1</text><text x="30" y="41">0</text><text x="30" y="42">1</text><text x="30" y="43">0</text><text x="30" y="44">1</text><text x="30" y="45">0</text><text x="30" y="46">1</text><text x="31" y="15">1</text><text x="31" y="16">0</text><text x="31" y="17">1</text><text x="31" y="18">0</text><text x="31" y="19">1</text><text x="31" y="20">0</text><text x="31" y="21">1</text><text x="31" y="22">0</text><text x="31" y="41">1</text><text x="31" y="42">0</text><text x="31" y="43">1</text><text x="31" y="44">0</text><text x="31" y="45">1</text><text x="31" y="46">0</text><text x="32" y="17">0</text><text x="32" y="18">1</text><text x="32" y="19">0</text><text x="32" y="20">1</text><text x="32" y="21">0</text><text x="32" y="22">1</text><text x="32" y="23">0</text><text x="32" y="24">1</text><text x="32" y="25">0</text><text x="32" y="26">1</text><text x="32" y="27">0</text><text x="32" y="28">1</text><text x="32" y="29">0</text><text x="32" y="30">1</text><text x="32" y="31">0</text><text x="32" y="32">1</text><text x="32" y="33">0</text><text x="32" y="34">1</text><text x="32" y="41">0</text><text x="32" y="42">1</text><text x="32" y="43">0</text><text x="32" y="44">1</text><text x="32" y="45">0</text><text x="32" y="46">1</text><text x="33" y="17">1</text><text x="33" y="18">0</text><text x="33" y="19">1</text><text x="33" y="20">0</text><text x="33" y="21">1</text><text x="33" y="22">0</text><text x="33" y="23">1</text><text x="33" y="24">0</text><text x="33" y="25">1</text><text x="33" y="26">0</text><text x="33" y="27">1</text><text x="33" y="28">0</text><text x="33" y="29">1</text><text x="33" y="30">0</text><text x="33" y="31">1</text><text x="33" y="32">0</text><text x="33" y="33">1</text><text x="33" y="34">0</text><text x="33" y="41">1</text><text x="33" y="42">0</text><text x="33" y="43">1</text><text x="33" y="44">0</text><text x="33" y="45">1</text><text x="33" y="46">0</text><text x="34" y="21">0</text><text x="34" y="22">1</text><text x="34" y="23">0</text><text x="34" y="24">1</text><text x="34" y="25">0</text><text x="34" y="26">1</text><text x="34" y="27">0</text><text x="34" y="28">1</text><text x="34" y="29">0</text><text x="34" y="30">1</text><text x="34" y="31">0</text><text x="34" y="32">1</text><text x="34" y="33">0</text><text x="34" y="34">1</text><text x="34" y="41">0</text><text x="34" y="42">1</text><text x="34" y="43">0</text><text x="34" y="44">1</text><text x="35" y="21">1</text><text x="35" y="22">0</text><text x="35" y="23">1</text><text x="35" y="24">0</text><text x="35" y="25">1</text><text x="35" y="26">0</text><text x="35" y="27">1</text><text x="35" y="28">0</text><text x="35" y="29">1</text><text x="35" y="30">0</text><text x="35" y="31">1</text><text x="35" y="32">0</text><text x="35" y="33">1</text><text x="35" y="34">0</text><text x="35" y="41">1</text><text x="35" y="42">0</text><text x="35" y="43">1</text><text x="35" y="44">0</text><text x="36" y="31">0</text><text x="36" y="32">1</text><text x="36" y="33">0</text><text x="36" y="34">1</text><text x="36" y="41">0</text><text x="36" y="42">1</text><text x="36" y="43">0</text><text x="36" y="44">1</text><text x="37" y="31">1</text><text x="37" y="32">0</text><text x="37" y="33">1</text><text x="37" y="34">0</text><text x="37" y="41">1</text><text x="37" y="42">0</text><text x="37" y="43">1</text><text x="37" y="44">0</text></g><g fill="rgb(234, 217, 217)" font-family="Monospace" font-size="1px"><text x="14" y="27">0</text><text x="14" y="28">1</text><text x="15" y="27">1</text><text x="15" y="28">0</text><text x="16" y="23">0</text><text x="16" y="24">1</text><text x="16" y="25">0</text><text x="16" y="26">1</text><text x="16" y="27">0</text><text x="16" y="28">1</text><text x="16" y="29">0</text><text x="16" y="30">1</text><text x="16" y="31">0</text><text x="16" y="32">1</text><text x="16" y="33">0</text><text x="16" y="34">1</text><text x="16" y="35">0</text><text x="16" y="36">1</text><text x="16" y="37">0</text><text x="16" y="38">1</text><text x="17" y="23">1</text><text x="17" y="24">0</text><text x="17" y="25">1</text><text x="17" y="26">0</text><text x="17" y="27">1</text><text x="17" y="28">0</text><text x="17" y="29">1</text><text x="17" y="30">0</text><text x="17" y="31">1</text><text x="17" y="32">0</text><text x="17" y="33">1</text><text x="17" y="34">0</text><text x="17" y="35">1</text><text x="17" y="36">0</text><text x="17" y="37">1</text><text x="17" y="38">0</text><text x="18" y="21">0</text><text x="18" y="22">1</text><text x="18" y="23">0</text><text x="18" y="24">1</text><text x="18" y="29">0</text><text x="18" y="30">1</text><text x="18" y="31">0</text><text x="18" y="32">1</text><text x="18" y="33">0</text><text x="18" y="34">1</text><text x="18" y="35">0</text><text x="18" y="36">1</text><text x="18" y="37">0</text><text x="18" y="38">1</text><text x="18" y="39">0</text><text x="18" y="40">1</text><text x="18" y="41">0</text><text x="18" y="42">1</text><text x="18" y="43">0</text><text x="18" y="44">1</text><text x="18" y="45">0</text><text x="18" y="46">1</text><text x="18" y="47">0</text><text x="18" y="48">1</text><text x="19" y="21">1</text><text x="19" y="22">0</text><text x="19" y="23">1</text><text x="19" y="24">0</text><text x="19" y="29">1</text><text x="19" y="30">0</text><text x="19" y="31">1</text><text x="19" y="32">0</text><text x="19" y="33">1</text><text x="19" y="34">0</text><text x="19" y="35">1</text><text x="19" y="36">0</text><text x="19" y="37">1</text><text x="19" y="38">0</text><text x="19" y="39">1</text><text x="19" y="40">0</text><text x="19" y="41">1</text><text x="19" y="42">0</text><text x="19" y="43">1</text><text x="19" y="44">0</text><text x="19" y="45">1</text><text x="19" y="46">0</text><text x="19" y="47">1</text><text x="19" y="48">0</text><text x="20" y="21">0</text><text x="20" y="22">1</text><text x="20" y="23">0</text><text x="20" y="24">1</text><text x="20" y="29">0</text><text x="20" y="30">1</text><text x="20" y="31">0</text><text x="20" y="32">1</text><text x="20" y="33">0</text><text x="20" y="34">1</text><text x="20" y="35">0</text><text x="20" y="36">1</text><text x="20" y="37">0</text><text x="20" y="38">1</text><text x="20" y="39">0</text><text x="20" y="40">1</text><text x="20" y="43">0</text><text x="20" y="44">1</text><text x="20" y="45">0</text><text x="20" y="46">1</text><text x="20" y="47">0</text><text x="20" y="48">1</text><text x="21" y="21">1</text><text x="21" y="22">0</text><text x="21" y="23">1</text><text x="21" y="24">0</text><text x="21" y="29">1</text><text x="21" y="30">0</text><text x="21" y="31">1</text><text x="21" y="32">0</text><text x="21" y="33">1</text><text x="21" y="34">0</text><text x="21" y="35">1</text><text x="21" y="36">0</text><text x="21" y="37">1</text><text x="21" y="38">0</text><text x="21" y="39">1</text><text x="21" y="40">0</text><text x="21" y="43">1</text><text x="21" y="44">0</text><text x="21" y="45">1</text><text x="21" y="46">0</text><text x="21" y="47">1</text><text x="21" y="48">0</text><text x="22" y="21">0</text><text x="22" y="22">1</text><text x="22" y="23">0</text><text x="22" y="24">1</text><text x="22" y="25">0</text><text x="22" y="26">1</text><text x="22" y="27">0</text><text x="22" y="28">1</text><text x="22" y="29">0</text><text x="22" y="30">1</text><text x="22" y="31">0</text><text x="22" y="32">1</text><text x="22" y="33">0</text><text x="22" y="34">1</text><text x="22" y="35">0</text><text x="22" y="36">1</text><text x="22" y="39">0</text><text x="22" y="40">1</text><text x="22" y="41">0</text><text x="22" y="42">1</text><text x="22" y="45">0</text><text x="22" y="46">1</text><text x="22" y="47">0</text><text x="22" y="48">1</text><text x="23" y="21">1</text><text x="23" y="22">0</text><text x="23" y="23">1</text><text x="23" y="24">0</text><text x="23" y="25">1</text><text x="23" y="26">0</text><text x="23" y="27">1</text><text x="23" y="28">0</text><text x="23" y="29">1</text><text x="23" y="30">0</text><text x="23" y="31">1</text><text x="23" y="32">0</text><text x="23" y="33">1</text><text x="23" y="34">0</text><text x="23" y="35">1</text><text x="23" y="36">0</text><text x="23" y="39">1</text><text x="23" y="40">0</text><text x="23" y="41">1</text><text x="23" y="42">0</text><text x="23" y="45">1</text><text x="23" y="46">0</text><text x="23" y="47">1</text><text x="23" y="48">0</text><text x="24" y="21">0</text><text x="24" y="22">1</text><text x="24" y="23">0</text><text x="24" y="24">1</text><text x="24" y="25">0</text><text x="24" y="26">1</text><text x="24" y="27">0</text><text x="24" y="28">1</text><text x="24" y="29">0</text><text x="24" y="30">1</text><text x="24" y="31">0</text><text x="24" y="32">1</text><text x="24" y="35">0</text><text x="24" y="36">1</text><text x="24" y="39">0</text><text x="24" y="40">1</text><text x="24" y="41">0</text><text x="24" y="42">1</text><text x="25" y="21">1</text><text x="25" y="22">0</text><text x="25" y="23">1</text><text x="25" y="24">0</text><text x="25" y="25">1</text><text x="25" y="26">0</text><text x="25" y="27">1</text><text x="25" y="28">0</text><text x="25" y="29">1</text><text x="25" y="30">0</text><text x="25" y="31">1</text><text x="25" y="32">0</text><text x="25" y="35">1</text><text x="25" y="36">0</text><text x="25" y="39">1</text><text x="25" y="40">0</text><text x="25" y="41">1</text><text x="25" y="42">0</text><text x="26" y="23">0</text><text x="26" y="24">1</text><text x="26" y="25">0</text><text x="26" y="26">1</text><text x="26" y="27">0</text><text x="26" y="28">1</text><text x="26" y="29">0</text><text x="26" y="30">1</text><text x="26" y="31">0</text><text x="26" y="32">1</text><text x="26" y="33">0</text><text x="26" y="34">1</text><text x="26" y="35">0</text><text x="26" y="36">1</text><text x="26" y="39">0</text><text x="26" y="40">1</text><text x="26" y="41">0</text><text x="26" y="42">1</text><text x="27" y="23">1</text><text x="27" y="24">0</text><text x="27" y="25">1</text><text x="27" y="26">0</text><text x="27" y="27">1</text><text x="27" y="28">0</text><text x="27" y="29">1</text><text x="27" y="30">0</text><text x="27" y="31">1</text><text x="27" y="32">0</text><text x="27" y="33">1</text><text x="27" y="34">0</text><text x="27" y="35">1</text><text x="27" y="36">0</text><text x="27" y="39">1</text><text x="27" y="40">0</text><text x="27" y="41">1</text><text x="27" y="42">0</text><text x="28" y="21">0</text><text x="28" y="22">1</text><text x="28" y="23">0</text><text x="28" y="24">1</text><text x="28" y="29">0</text><text x="28" y="30">1</text><text x="28" y="31">0</text><text x="28" y="32">1</text><text x="28" y="33">0</text><text x="28" y="34">1</text><text x="29" y="21">1</text><text x="29" y="22">0</text><text x="29" y="23">1</text><text x="29" y="24">0</text><text x="29" y="29">1</text><text x="29" y="30">0</text><text x="29" y="31">1</text><text x="29" y="32">0</text><text x="29" y="33">1</text><text x="29" y="34">0</text><text x="30" y="23">0</text><text x="30" y="24">1</text><text x="30" y="29">0</text><text x="30" y="30">1</text><text x="30" y="31">0</text><text x="30" y="32">1</text><text x="30" y="33">0</text><text x="30" y="34">1</text><text x="31" y="23">1</text><text x="31" y="24">0</text><text x="31" y="29">1</text><text x="31" y="30">0</text><text x="31" y="31">1</text><text x="31" y="32">0</text><text x="31" y="33">1</text><text x="31" y="34">0</text></g><g fill="rgb(92, 145, 95)" font-family="Monospace" font-size="1px"><text x="18" y="25">0</text><text x="18" y="26">1</text><text x="19" y="25">1</text><text x="19" y="26">0</text><text x="20" y="25">0</text><text x="20" y="26">1</text><text x="21" y="25">1</text><text x="21" y="26">0</text><text x="28" y="25">0</text><text x="28" y="26">1</text><text x="29" y="25">1</text><text x="29" y="26">0</text><text x="30" y="25">0</text><text x="30" y="26">1</text><text x="31" y="25">1</text><text x="31" y="26">0</text></g><g fill="rgb(106, 160, 110)" font-family="Monospace" font-size="1px"><text x="20" y="27">0</text><text x="20" y="28">1</text><text x="21" y="27">1</text><text x="21" y="28">0</text><text x="30" y="27">0</text><text x="30" y="28">1</text><text x="31" y="27">1</text><text x="31" y="28">0</text></g><g fill="rgb(113, 16, 16)" font-family="Monospace" font-size="1px"><text x="22" y="37">0</text><text x="22" y="38">1</text><text x="23" y="37">1</text><text x="23" y="38">0</text><text x="24" y="37">0</text><text x="24" y="38">1</text><text x="25" y="37">1</text><text x="25" y="38">0</text></g><g fill="rgb(198, 198, 198)" font-family="Monospace" font-size="1px"><text x="28" y="37">0</text><text x="28" y="38">1</text><text x="29" y="37">1</text><text x="29" y="38">0</text><text x="30" y="37">0</text><text x="30" y="38">1</text><text x="31" y="37">1</text><text x="31" y="38">0</text><text x="32" y="37">0</text><text x="32" y="38">1</text><text x="33" y="37">1</text><text x="33" y="38">0</text><text x="34" y="37">0</text><text x="34" y="38">1</text><text x="35" y="37">1</text><text x="35" y="38">0</text><text x="36" y="37">0</text><text x="36" y="38">1</text><text x="37" y="37">1</text><text x="37" y="38">0</text></g><g fill="rgb(221, 221, 221)" font-family="Monospace" font-size="1px"><text x="38" y="21">0</text><text x="38" y="22">1</text><text x="38" y="23">0</text><text x="38" y="24">1</text><text x="38" y="25">0</text><text x="38" y="26">1</text><text x="38" y="27">0</text><text x="38" y="28">1</text><text x="38" y="29">0</text><text x="38" y="30">1</text><text x="38" y="31">0</text><text x="38" y="32">1</text><text x="39" y="21">1</text><text x="39" y="22">0</text><text x="39" y="23">1</text><text x="39" y="24">0</text><text x="39" y="25">1</text><text x="39" y="26">0</text><text x="39" y="27">1</text><text x="39" y="28">0</text><text x="39" y="29">1</text><text x="39" y="30">0</text><text x="39" y="31">1</text><text x="39" y="32">0</text></g><g fill="rgb(226, 91, 38)" font-family="Monospace" font-size="1px"><text x="38" y="37">0</text><text x="38" y="38">1</text><text x="39" y="37">1</text><text x="39" y="38">0</text></g></svg>