<?xml version="1.0" encoding="utf-8"?>
<!-- Generator: Adobe Illustrator 27.7.0, SVG Export Plug-In . SVG Version: 6.00 Build 0)  -->
<svg version="1.1" xmlns="http://www.w3.org/2000/svg" xmlns:xlink="http://www.w3.org/1999/xlink" x="0px" y="0px"
	 viewBox="0 0 300 300" style="enable-background:new 0 0 300 300;" xml:space="preserve">
<style type="text/css">
	.st0{fill:#FFFFFF;}
	.st1{display:none;}
	.st2{display:inline;fill:#FFFFFF;}
	.st3{fill:#231F20;}
	.st4{fill:none;stroke:#231F20;stroke-width:2;stroke-linecap:round;stroke-linejoin:round;stroke-miterlimit:10;}
</style>
<g id="Слой_2">
	<rect x="0" y="0" class="st0" width="300" height="300"/>
</g>
<g id="Layer_1" xmlns:ev="http://www.w3.org/2001/xml-events">
	<g class="st1">
		<path class="st2" d="M0,0.4v300l297.1-1.1v-300L0,0.4z"/>
		<path class="st2" d="M65.7,197.6"/>
	</g>
	<g>
		<path class="st3" d="M84.1,208c-3.1-0.5-6.3,0.6-9.4,1.2c-2.7,0.7-5.6,1.6-8.4,2.4c-0.6,0.1-1.1,0.4-1.8,0c-1-0.8-0.3-1.8,0.5-2.2
			c6-2.7,12.7-4.1,19.4-3.4C84.4,206,84.1,208,84.1,208L84.1,208z M84.1,208c-6.1-0.7-12.7,0.6-18.3,3.3c0,0-0.1,0.1,0-0.1
			c0.1-0.1,0.1-0.3,0.1-0.5c0.1-0.4-0.4-0.9-0.7-0.9c-0.1,0,0,0,0.1,0c0.2,0,0.3-0.1,0.5-0.1c6.1-1.6,12.2-4.1,18.5-3.7
			C84.4,206,84.1,208,84.1,208L84.1,208z"/>
	</g>
	<path class="st4" d="M194.9,228.7c0.6-0.3,1.6-0.6,2.3-0.4c0.7,0.2,2.2,0.3,3.2,0.3s2.4,0.1,3.3,0.3c0.9,0.1,2,0.6,2.7,1.2
		c0.7,0.4,1.6,1.3,1.9,1.9c0.3,0.6,1.4,1.6,2.4,2.3s2.9,1.6,4.3,1.7c16.8-2.1,16.4-2.8,0.3-0.3c-1.3-0.4-2.9-1.4-3.7-2.2
		c-0.9-0.7-1.8-1.8-2.4-2.6l-0.1-0.1c-0.6-0.7-1.6-1.6-2.3-2s-2.1-0.9-3.1-1.2c-0.1,0-0.2,0-0.3-0.1c-1-0.1-2.3-0.4-3.1-0.4
		s-2-0.1-2.7-0.4c-0.7-0.3-1.7-0.1-2.3,0.1c-0.6,0.3-1.3,0.7-1.7,0.9c-0.4,0.1-1,0.3-1.3,0.1c-0.3,0-0.9-0.3-1.3-0.4
		c-0.4-0.1-0.6-0.7-0.3-1c0.1-0.4,0.6-1.2,0.7-1.7c0.1-0.6,0.9-1.7,1.6-2.6c0.7-0.9,1.9-2,2.9-2.4c0.9-0.6,2.8-1.2,4.2-1.6h0.1
		c1.4-0.3,3.2-0.4,3.9-0.1c0.7,0.3,0.6,0.1-0.1-0.4s-2.2-0.9-3-0.6c-0.9,0.1-2.3,0.4-3,0.6c-0.6,0.2-1.5,0.5-2.1,0.8
		c-0.1,0.1-0.2,0.1-0.3,0.2c-0.5,0.4-1.3,1.2-2.1,1.8c-0.8,0.7-1.9,2.2-2.4,3.2c-0.4,0.9-1.1,1.8-1.5,2.3c-0.1,0.1-0.2,0.2-0.2,0.3
		c-0.3,0.3-0.9,0.5-1.5,0.6s-1.6,0.1-2.3,0s-1.7-0.3-2.2-0.4c-0.4-0.1-1.3-0.3-2-0.3s-1.7-0.3-2.2-0.7s-1.4-0.9-2.2-0.9
		c-0.7,0-1.4-0.2-1.9-0.3c-0.3-0.1-0.7-0.3-0.9-0.5c-0.5-0.6-1-1.7-1.5-3.1c-0.6-1.6-0.4-3.6,0.3-4.3s1.7-1.2,2.3-0.9
		s1.2,0.9,1.4,1.4c0.3,0.4,0.7,1.4,1,2s1.2,1.2,1.9,1.3c0.9,0.1,2.2,0.6,3,1.2c0.9,0.6,2.4,0.7,3.5,0.4s1-0.4,0-0.3
		s-2.4-0.3-3.2-0.9c-0.7-0.6-2-1.2-2.7-1.2s-1.6-0.6-1.7-1.3c-0.1-0.6-0.4-1.4-0.7-1.7s-0.6-0.9-0.9-1.3c-0.3-0.3,0.3-0.9,1.2-1
		s2.2-0.1,2.7,0.1c0.6,0.3,1.9,0.7,2.6,0.9c0.9,0.3,2.6,0.4,3.7,0.3c1.3-0.1,1.4-0.3,0.3-0.3c-1.2-0.1-2.7-0.3-3.5-0.6
		c-0.9-0.3-2-0.7-2.7-0.9c-0.7-0.3-1.7-0.6-2.2-0.7c-0.4-0.1-1.5,0-2.2,0.1c-0.1,0-0.2,0-0.3,0.1c-0.9,0.3-2.2,0.7-3.4,1.2
		c-1,0.4-2.9,0-3.9-0.9c-1-1-2.2-2-2.3-2.4c-0.3-0.4-0.1-1,0-1.4c0.3-0.4,1.4-1,2.6-1.3c1.2-0.4,3.1-0.9,4.2-1.3h0.1
		c1.2-0.3,3.8-0.7,5.8-1h0.1c2-0.1,4.2-0.3,4.9-0.3s2.7-0.1,4.5-0.6c1.7-0.4,3.9,0,4.8,1c0.9,1,3.2,2.6,5,3.6c2,1,2.9,1.3,1.9,0.6
		c-0.9-0.7-2.4-1.9-3.3-2.6c-0.9-0.7-2-1.7-2.6-2.3c-0.4-0.6-0.6-1.4-0.1-1.9c0.4-0.4,1.6-1,2.7-1.3c1.2-0.3,3.3-0.4,4.9-0.3
		c1.6,0.1,4.5,0.3,6.3,0.4c1.9,0.1-0.7-1-0.2-1c-1.5,0-4.7-0.3-6.4-0.3c-1.9-0.1-4.3,0.1-5.6,0.7c-1.3,0.4-3,1-3.7,1
		c-0.9,0.1-3,0.4-4.8,0.7c-1.7,0.3-5.2,0.7-7.6,0.9c-2.4,0.3-5.6,0.7-7.1,1.2s-3.6,0.9-4.8,1.2s-2.9,0.6-3.7,0.9
		c-1,0.3-1.9-0.3-2.6-0.6c-0.9-0.3-1.7-1.4-2.6-2c-0.9-0.6-2.2-1.4-2.9-1.9l-0.1-0.1c-0.7-0.6-2.2-2-2.9-2.7
		c-0.5-0.5-0.9-1.7-1.4-2.5c-0.1-0.2-0.2-0.4-0.3-0.6c-0.4-2.4-0.9-14.4-1.4-28.6c0-1,0.3-2-0.7-1.8l-4.3-0.1c-3,0.1-2.9-0.5-3,0.1
		c-1,13.4-0.8,27.6-1,30.6c0,0.7-0.5,1.2-1.1,1.5c-1.3,0.4-3.5,0.6-4.9,1.3c-1.9,1-5,3.9-6.5,4.5c-1.4,0.6-2.4,2.2-2.9,2.7
		c-0.4,0.6-2,1.4-3.5,1.9s-4.5,0.3-6.5-0.1c-2.2-0.4-5.2-0.9-6.8-0.9c-1.6,0-4.9-0.4-7.2-0.9c-2.3-0.4-6.2-0.7-8.6-0.4
		s-16.1-10.4-13.4-7.6c2,2.1,12.9,7.1,10.1,7.6c-1,0.1-5.1-0.1-9.8,0.5c2.1-0.2,3.7,0.4,4.2,0.4c2,0.1,5.6,0.1,8.1,0
		c2.4-0.1,6.3,0.1,8.8,0.6s5.2,0.9,5.9,1.2c0.7,0.1,0.7,1.2-0.1,2.2c-0.8,1-2,2.4-2.4,3.3c-0.4,0.7-2.4,2-4.2,2.7
		c-1.9,0.7-4.2,1.2-5.5,1c-1.2-0.3-2.9-0.1-3.7,0.1c-0.9,0.3-2.7,0.6-3.9,0.6c-1.2,0-4,0.7-6.1,1.4h-0.1c-2.2,0.9-5.3,1.7-7,2
		s-1.7,0.4-0.3,0.3c1.6-0.1,3.9-0.6,5-0.9c1.3-0.3,3-0.9,3.9-1.3c0.9-0.3,2.6-0.6,3.9-0.7h0.1c1.3,0,3.2-0.1,4.2-0.4
		c1-0.3,2.7-0.3,3.7-0.1c1,0.1,1,0.6-0.1,0.9c-1.2,0.3-3.5,1-5.3,1.6c-1.7,0.6-4.2,1.7-5.2,2.4s-3,2.2-4.2,3
		c-1.3,0.9-2.7,1.7-3.5,1.9c-0.6,0.1-1.7,0.7-2.6,1.3s-4.9,8.4-5.6,9.7c-10.2,24-9.8,24.8,0.7,0.7c0.5-1.2,3.9-8.9,5.2-9.8
		c0.7-0.6,1.9-1.2,2.6-1.2c0.6-0.1,2-0.9,3.2-1.7c0,0,0.1,0,0.1-0.1c1.2-0.9,2.7-2,3.7-2.7c0.9-0.7,2.4-1.6,3.6-1.9
		c1-0.3,2.6-0.9,3.5-1.2s2-0.7,2.4-0.9c0.6-0.1,1.6-0.6,2.3-0.9c0.7-0.3,2-0.7,2.6-1.2c0.7-0.3,2-1,2.7-1.3c0.9-0.4,1-0.3,0.6,0.3
		c-0.6,0.6-1.3,1.6-1.9,2.4c-0.4,0.9-1.3,1.7-1.9,2s-1.7,0.9-2.6,1.3c-0.9,0.4-1.7,0.9-2,1s-0.9,0.3-1.6,0.4
		c-0.6,0.1-3.4,3.2-4.4,3.2c-0.9,0-2.2,0.3-2.7,0.7c-0.6,0.3-1.7,1.3-2.4,2c-0.7,0.7-0.9,1-0.1,0.4c0.6-0.4,1.7-1.1,2.3-1.5
		c0.1-0.1,0.2-0.1,0.3-0.2c0.6-0.3,1.8-0.6,2.5-0.6c0.9,0,3.7-3,4.3-3.2c0.6-0.1,1.6-0.3,2.3-0.6c0.7-0.3,1.7-0.6,2.2-0.9
		c0.4-0.3,1,0,1,0.7c0,0.6-0.3,1.6-0.7,2.2c-0.4,0.6-1.3,1.7-1.7,2.6c-0.6,0.9-1.3,2.2-1.9,2.7c-0.4,0.6-1.6,1.4-2.3,1.9
		c-0.7,0.5-1.9,0.7-2.6,0.7s-1.5,1.1-2.5,1.7c-0.3,0.2-1.3,1.1-2,1.8c0,0.7-5.4,10.2-7.3,17c-3.1,15.3,3.2-6.8,3.5-6.9
		c0.1,0,4.5-8.6,4.6-8.6c1-0.3,2.8-2.9,3.6-3.1c0.9-0.1,2.8-1.5,3.5-1.9s1.9-1.4,2.4-2.2c0.7-0.7,1.4-1.9,1.9-2.6
		c0.4-0.7,1.2-1.6,1.7-2.2c0.6-0.6,1-1.4,1-2.2v-1.9c0-0.5,0.3-1,0.4-1.2c0.3-0.3,0.7-0.7,1-0.9c0.4-0.3,0.9-0.1,1,0.1
		c0.3,0.3,0.7,1,1.2,1.4c0.4,0.4,1,1.6,1.4,2.6s0.7,2.5,0.9,3.6c0,0.1,0,0.2,0,0.3c0,1-0.3,2.9-0.7,4.5c-0.4,1.4-1.3,3-1.9,3.5
		c-0.6,0.4-0.4,0.4,0.4,0c0.9-0.4,1.7-1.4,2-2.3c0.3-0.9,0.7-2.2,0.9-2.9c0.2-0.7,0.3-1.9,0.3-2.4c0-0.6-0.3-1.9-0.6-2.9
		c-0.3-1-1-2.7-1.6-3.7s-1.2-2.2-1.3-2.6c-0.1-0.4,0-1.2,0.1-1.7s0.7-1.4,1.2-2c0.4-0.6,1.2-1.3,1.4-1.6c0.4-0.3,0.9-1,1.3-1.7
		c0.3-0.7,1-1.3,1.6-1.6c0.6-0.1,1.4-0.9,1.7-1.4c0.4-0.6,1-1.4,1.4-1.7s2.2-0.4,3.9,0c1.7,0.3,3.3,1.4,3.6,2.4c0.3,1,0.1,2-0.4,2.4
		c-0.4,0.3-1.3,0.6-2,0.6c-0.6,0-1.6,0-2.3-0.1c-0.7-0.1-1.6,0.4-2,1c-0.4,0.7-1.6,1.6-2.4,2c-0.9,0.4-1.7,1.7-2,2.7
		s-0.1,1.2,0.3,0.1c0.4-1,1.4-2,2.3-2.4c0.9-0.3,1.9-1.2,2.3-1.9c0.4-0.6,1.3-1,1.9-0.9s1.4,0.3,1.9,0.3c0.4,0,1.2-0.1,1.4-0.1
		c0.4,0,0.6,0.6,0.3,1.4c-0.3,0.9-0.9,1.9-1.4,2.3s-1.4,1.3-2,1.9c-0.6,0.6-1.6,2-2,3.2c-0.6,1.2-0.4,1.3,0.1,0.4
		c0.6-1,1.6-2.2,2.3-2.7c0.6-0.6,1.6-1.4,2.2-1.9s1.3-1.2,1.6-1.6s0.9-1.3,1-2.2s0.4-2.4,0.6-3.6c0.1-1.2,1.3-2.4,2.7-3
		c1.3-0.4,2.9-0.9,3.3-0.9s1,0.3,1.2,0.7c0.1,0.4,0.1,1.7-0.1,2.9v0.1c-0.3,1.3-0.7,3.2-1,4.5c-0.3,1.2-1.2,3.7-2,5.6
		c-0.9,1.9-1.9,4-2.2,4.5c-0.4,0.6-1.2,2.4-1.7,4.2c-0.6,1.7-2,3.3-3.2,3.6c-1.3,0.3-3.7,1.4-5.6,2.7s-29.3,18.8-1.4,1.4
		c1-0.4,2.7-1.3,3.9-1.7c1-0.4,2.6-1,3.3-1.2l0,0c0.9-0.1,1.7,0.6,1.7,1.6c0,0.6,0,1.4-0.1,2.1c0,0.1,0,0.1,0,0.2
		c-0.3,1.2-1.3,3.2-2.2,4.4c-0.9,1.3-2.4,3.7-3.5,5.3c-6.8,13.6-7.2,15.1,0.4,0.3c0.9-1.7,3-3.9,4-5.3c0,0,0-0.1,0.1-0.1
		c1-1.6,2-3.9,2.2-5.2c0.1-1.3,0.6-3,0.9-3.9s1.2-2.9,1.7-4.5c0.6-1.7,2-4.9,2.9-7.2c1-2.2,2-5.3,2.4-6.8c0.4-1.4,1-3.6,1.3-4.8
		s0.8-2.6,1-3.6c0-0.1,0-0.2,0.1-0.3c0.3-1,1-2.1,1.6-2.6c0.6-0.6,1.9-1.4,2.9-2c0.9-0.6,2.3-1.3,3.2-1.7s2.3-1.2,3.5-1.4
		c0.6-0.3,1-0.6,2-0.9c1-0.3,1,8.6,0.1,10.1c-1,1.7-1.3,4.2-1.7,5.6c-0.4,1.4-1.9,5-3.3,8.2c-1.4,3-1.9,6.8-3.7,11.2l-1.2,2.9
		c-1.7,4.5-1.4,4.8-4,9.1l-2.4,5.4c0.8,24.3,1.6,19.6,0,0l3.3-5c2.9-4.3,1.7-3.5,3.3-7.2s2.2-4.5,2.7-6.3c0.6-2,2.6-7.9,3.9-10.5
		c1.3-2.4,3-5.6,3.7-7.1s1.9-2.6,2.7-2.4c0.7,0.1,1.4,1.7,1.6,3.6c0.1,1.9,0.9,5.9-0.1,8.9c-0.9,3,0.1,7.8,0.3,8.9
		c0.1,1,0.7,3.9,1.4,5.5c0.6,1.6-1.6,2.4-2.4,4.5c-0.7,2-3.7,5.8-5.3,8.5c-1.6,2.6-6.7,6.7-6.8,13l-0.4,0.9
		c-10.9,24.1-8.4,23.6,0.6,0l0.3-0.6c0.8-5.7,6-10.8,8.2-14.2c0.9-1.5,2-3,2.9-4.2c0.9-1.1,2.7-0.7,2.9,0.8c0,0.2,0,0.3,0.1,0.5v0.1
		c0.1,1.9,0.3,6.5,0.1,9.9c-0.1,3.6-0.1,7.9,0,9.6s-0.7,5.6-1.9,8.5s-2,7.2-2,9.5s0,2.2,0.3-0.4s1.6-7.2,3-10.4
		c1.4-3.2,2-8.6,1.9-12.1c-0.3-3.5,0.3-8.2,0.3-10.5s0-6.2-0.3-8.8c-0.3-2.4,0.9-3.6,2.3-2.3c1.4,1.3,4.2,3.3,5,5.3
		c0.9,2,1.9,5.8,3.2,7.3s2.4,4.2,2.7,6.1c0,0.1,0,0.1,0,0.2c0.1,1.8-0.1,5.8-0.7,8.7c-0.6,3-4.7,24.2,0.1,1.4
		c0.9-2.2,1.3-5.2,1.6-6.8c0-0.1,0-0.1,0-0.2c0.1-1.5,0.1-3.1,0-5c0-0.1,0-0.2,0-0.2c-0.4-2-2.2-5.5-3.3-6.8
		c-1.3-1.2-1.3-3.6-1.7-4.9c-0.4-1.3-1.9-3.5-3-4.8c-1.2-1.3-3-3.2-4.2-4.3c-1.2-1-2.3-2.6-2.4-3.6c-0.1-0.8-0.4-1.2-0.6-2
		c0-0.1,0-0.3,0-0.4v-3.4c-0.1-1.7,1.2-4.2,1.4-5.5c0.3-1.3-0.9-3.6-0.4-5.5s0.1-5.2-0.3-6.8c-0.1-0.4,0.4-0.6,0.7-0.3
		c2,2.7,5.2,4.9,8.2,8.4l2,2.3c11.8,20.6,10.7,30.2,6.2,7.8l3.3,5.2c13.3,24,15.5,26.9,0.4-0.4l-4.4-4.8c-2.4-4.5-0.8-3.5-3.5-6.9
		c-2.6-3.2-2.9-3.9-4.5-5.3c0,0,0,0-0.1-0.1c-1.4-1.4-5.9-5.9-7.5-8.2c-0.3-0.6-1-1.2-1.2-1.6c-0.2-0.4,0.1-1.4,0-2
		c0-0.9,0-5,0.4-4.6c0.6,0.6,3.4,2.9,4.9,3.7c0,0,0.1,0,0.1,0.1c1.7,1.2,4.3,2.9,5.5,3.9s2.9,1.7,3.6,1.9c0.7,0,2.3,1,3.3,2.2
		s2.4,3.7,3,5.8c0.6,2,1.7,4.9,2.4,6.3c0.7,1.4,2,4.5,2.7,6.8s2.4,5.8,3.9,7.8s3.3,5.2,4.3,7.1c1,1.9,3.2,5.2,4.8,7.3
		c11.8,15.5,11.9,14.8,0.4,0.1c-1.6-2.1-3.5-5.3-4.3-7.1c-0.9-1.9-2.7-4.9-3.9-6.9c-1.3-2-3-5.6-3.9-7.9c-0.9-2.3-1.7-4.9-1.9-5.8
		c-0.1-0.7,0.7-1.2,2-0.9s3.2,0.6,4,0.6c0.9,0,2.9,1.2,4.5,2.3c1.6,1.2,3.2,3.2,3.5,4.3c0.3,1.2,1.3,2.6,2,3.3s1.7,2,2.3,3.2
		c0.6,1,2.4,3.2,4.3,4.8c1.7,1.6,8.3,11.8,9.3,13.1c1.2,1.3,14.2,12.2,13.3,11c-0.9-1.3-11.2-10.7-12.2-11.7
		c-0.9-0.9-10.4-13.2-11.1-13.9c-0.7-0.6-1.9-2-2.6-3.2c-0.6-1.2-1.7-2.7-2.4-3.5s-1.6-2.3-2-3.3c-0.3-1,0-1.2,0.9-0.3
		s2.6,2.6,4,3.9c1.4,1.3,3.5,2.7,4.6,3.3c1.2,0.6,3.2,1.6,4.7,2.2c0,0,0.1,0,0.1,0.1c1.4,0.7,2.8,1.6,3.2,2s1.4,1.2,2.4,1.6
		c0.9,0.4,2.9,0.9,4.2,0.9c1.4,0.1,1.4-0.1,0-0.4c-1.4-0.3-3.2-0.9-4-1.3c-0.9-0.4-1.9-1.2-2.3-1.6c-0.4-0.4-1.7-1.4-3-2
		s-3.2-1.4-4.2-1.9s-2.6-1.4-3.3-2.2c-0.7-0.5-1.3-1.4-2.7-2.4c-0.7-0.5-1.6-1.4-2-1.7c-0.4-0.4-1.3-1.2-1.9-1.6
		c-0.6-0.6-1.6-1.3-2.3-1.7s-1.7-1.3-2.6-1.7c-0.7-0.6-0.7-0.7,0-0.6c0.7,0.3,2,0.4,3,0.4c0.9,0,2.2,0.3,2.6,0.7
		c0.6,0.4,1.6,1.2,2.3,1.7c0.9,0.6,1.6,1.2,1.9,1.3c0.3,0.1,1.8,1,2.3,1.6c0.4,0.4,5.5,1.9,5.9,2.7c0.4,0.7,0.3,1.9,0.9,2.2
		c0.6,0.3,1.9,0.9,2.9,1.2s1.3,0.3,0.4-0.1c-0.7-0.4-1.9-1-2.4-1.3c-0.6-0.4-0.4-1.4-1-2.1c-0.1-0.1-0.1-0.1-0.1-0.2
		c-0.4-0.7-5.6-2.7-5.9-3.2c-0.3-0.4-2-1.2-2.6-1.6c-0.6-0.6-1.4-1.2-1.9-1.4C194.3,229.7,194.4,229,194.9,228.7z"/>
	<g id="Bitcoin_2_">
		<path class="st4" d="M149.3,16.6c-41.3,0-74.9,33.6-74.9,74.9s33.6,74.9,74.9,74.9s74.9-33.6,74.9-74.9S190.7,16.6,149.3,16.6z"/>
		<path class="st4" d="M149.3,16.6c-41.3,0-74.9,33.6-74.9,74.9s33.6,74.9,74.9,74.9s74.9-33.6,74.9-74.9S190.7,16.6,149.3,16.6z
			 M149.3,160c-37.9,0-68.5-30.8-68.5-68.5S111.6,23,149.3,23c37.9,0,68.5,30.8,68.5,68.5C217.9,129.2,187.2,160,149.3,160z"/>
		<path class="st4" d="M172,88.9c3.6-3.5,5.8-8.4,5.8-13.7c0-10.5-8.5-19-19-19h-2.9V43.8h-8.6v12.4h-8.6V43.8h-8.6v12.4h-12.7v8.6
			h12.7v20.9h-12.7v8.6h12.7v23.9h-12.7v8.6h12.7v12.4h8.6v-12.4h8.6v12.4h8.6v-12.4h5.2c11.4,0,20.6-9.2,20.6-20.6
			C181.5,98.9,177.6,92.5,172,88.9z M138.5,64.8h20c5.8,0,10.4,4.6,10.4,10.4s-4.6,10.4-10.4,10.4h-20V64.8z M160.9,118.1h-22.3
			V94.2h20h2.3c6.6,0,12,5.3,12,12C172.8,112.8,167.5,118.1,160.9,118.1z"/>
	</g>
	<g>
		<path class="st3" d="M202.5,199.4c0.3,0.1,0.5,0.1,0.8,0.2c0.2,0.1,0.5-0.1,0.7,0c0.5,0.1,0.9,0.2,1.4,0.3c2.5,0.7,5,1.2,7.2,2.7
			c3.9,3.3,7.9,6.9,12,9.5c-0.6-0.2-1.3,0.5-1.1,1.2c-3.6-3.4-9.2-7.6-13.7-10.9c-0.4-0.3-0.5-0.9-0.2-1.4c0.3-0.4,1-0.5,1.4-0.2
			c3,2.2,5.9,4.4,8.8,6.7c1.9,1.6,3.9,3,5.5,5c0,0.1,0.1,0.1,0.1,0.3v0.1c0,0.1,0,0.3,0,0.4c-0.1,0.4-0.3,0.6-0.6,0.8
			c-0.4,0.1-0.4,0.1-0.5,0.1c-0.2,0-0.3-0.1-0.4-0.1c-4.3-2.6-7.9-6.1-11.8-9.2c-0.2-0.1-0.6-0.5-0.8-0.7c-0.4-0.3-0.8-0.5-1.2-0.7
			c-2.2-1-4.7-1.5-7-2.1c-0.2,0-0.4,0-0.6,0C200.6,201.6,200.8,198.9,202.5,199.4L202.5,199.4z"/>
	</g>
	<g>
		<path class="st3" d="M116.1,246.8c-0.6,0.6-1,0.7-1.6,1c-0.3,0.3-0.9,0.5-1.3,0.6c-2.2,0.8-5.7,1.8-7.2,2.8
			c-1.2,2.5-2.8,4.8-4.7,6.8c-3,3.9-8.9,6.5-8.8,11.9c0.1,2.4,1.2,4.8,2.4,7.1c0.3,0.5,0.1,1.1-0.4,1.4s-1.1,0.1-1.3-0.4
			c-1.2-2.4-2.4-5-2.6-8c-0.4-6.1,5.9-9.3,9.3-13.3c1.7-1.9,3.2-4.1,4.4-6.4c0.5-0.7,1.1-1,1.6-1.3c2.4-1.2,5-1.8,7.4-2.8
			c0.2-0.1,0.4-0.2,0.6-0.2c0.2-0.1,0.4-0.2,0.5-0.3s0.3-0.3,0.2-0.2C115.3,244.6,116.9,245.7,116.1,246.8L116.1,246.8z"/>
	</g>
	<g>
		<path class="st3" d="M80.7,208.4c0.1,0,0.3,0,0.4,0l0,0c-0.1,0.1-0.3,0.2-0.4,0.3c-0.9,0.7-1.8,1.4-2.5,2.3
			c-0.4,0.4-1.5,1.4-1.9,1.7c-4.2,3.9-9.7,9.2-14,13c-0.4,0.3-0.9,0.8-1.4,1.1c-1,0.4-1.9-0.7-1.3-1.6c0.6-1.2,2.4-0.2,1.8,0.9
			c-0.2,0.4-0.5,0.8-0.6,1.2c0,0,0.1,0.1,0-0.4c0-0.1-0.1-0.3-0.3-0.4c-0.2-0.2-0.6-0.2-0.7-0.2c2.7-1.1,24-24.7,24.5-18.1
			c-0.1,0.5-0.6,0.9-1.1,0.8c-0.9,0.2-2,1-2.8,1.6c-3.2,2.4-6.1,5.2-9.1,7.9l-5.9,5.6c-1.7,1.4-3.1,3.1-5.1,4.1
			c-0.5,0.2-1.3-0.1-1.4-0.7c-0.1-0.6,0-0.7,0-0.9c0.2-0.6,0.5-1.1,0.8-1.6l1.7,1c0,0,0,0,0-0.1c0.3-0.8-0.6-1.5-1.3-1.2H60l0,0
			l0.3-0.2c2.7-2.2,6.9-6.3,9.5-8.7c0.9-0.9,5.5-5.2,6.4-5.9c0.3-0.3,1-0.8,1.4-1.1c0.6-0.5,1.7-1.6,2.4-2.1c0.7-0.7,2-0.4,1.9,0.8
			C81.8,208.1,81.3,208.5,80.7,208.4L80.7,208.4z"/>
	</g>
	<g>
		<path class="st3" d="M201.4,199.3c0.8-0.4,0.9-0.7,1.6-1.2c2.4-1.3,5.1-3.1,8-2.8c0.6,0.1,1,0.5,1.5,0.8l3.2,1.9
			c5.5,3.3,11,6.7,16.6,9.8l0.2,0.1c0,0,0.1,0,0,0c0,0-0.1,0-0.2-0.1c0.2-1-1.7,1.7-1,1.5c0.2,0.3,0.2,0.2,0.2,0.3
			c-5-3.2-15.7-9.3-20.9-12.4c-0.5-0.3-0.6-0.9-0.4-1.4c0.3-0.5,0.9-0.6,1.4-0.4l12.8,7.4l6.3,3.8l1.6,1c0.3,0.2,0.5,0.2,0.8,0.7
			c0.8-0.2-1.2,2.5-1,1.5c-0.3,0-0.3-0.1-0.5-0.2l-0.2-0.1l-0.8-0.5c-6.4-3.7-12.8-7.5-19-11.3l-0.8-0.5c-0.2-0.1-0.1-0.1-0.2-0.1
			c-1.7-0.1-3.4,0.9-4.9,1.7c-0.7,0.3-1.3,0.7-1.9,1.1l-0.2,0.1c-0.3,0-0.7,0.3-0.8,0.6C201.6,202.4,199.7,200.2,201.4,199.3
			L201.4,199.3z"/>
	</g>
	<g>
		<path class="st3" d="M205.1,226.1c0,0.1,0.3,0,0.5,0c0.1,0,0.1-0.1,0.1-0.2c0.7-0.3,1.4-0.7,2.1-1.1c1.9-0.9,3.7-2.3,5.9-2.4
			c0.2,0,0.5,0.1,0.8,0.2c7.2,2.9,14.5,5.9,21.9,8.3h0.2l0,0c-0.1,0-0.2,0-0.3,0c-0.7,0.1-1,1-0.6,1.6c0.1,0.1,0.1,0.1,0.1,0.1
			c0.1,0.1,0,0,0,0c-7.2-3.1-14.7-5.6-22.1-8.3c-0.5-0.2-0.8-0.7-0.6-1.3c0.2-0.5,0.7-0.8,1.3-0.6c4.6,1.6,9.1,3.2,13.7,4.9
			c3,1.2,6.2,2.2,9.1,3.7c0,0,0,0,0.2,0.2c0.1,0.1,0-0.1,0.2,0.4c0.2,0.9-0.6,1.5-1.3,1.2c-6.2-1.9-12.2-4.4-18.2-6.8
			c-0.6-0.2-3.7-1.5-4.2-1.7c-0.1-0.1-0.1,0-0.3,0c-2.3,0.6-4.5,2.2-6.7,3.2l-0.2,0.1c-0.1,0-0.2,0-0.3,0c-0.3,0.1-0.6,0.3-1.3,0.3
			C203.6,228,203.7,226.1,205.1,226.1L205.1,226.1z"/>
	</g>
	<g>
		<path class="st3" d="M129,249.9c-0.6,0.9-1,1.8-1.5,2.7c-0.9,1.5-2,2.8-3.1,4.1c-6.6,7.1-12,8.5-6.4,19.1c0.6,1.2-1.2,2.1-1.8,0.9
			c-6-11.5-0.8-13.6,6.7-21.3c1.1-1.2,2.1-2.5,2.9-3.8c0.6-0.8,1.1-1.6,1.5-2.6C127.8,247.5,129.8,248.6,129,249.9L129,249.9z"/>
	</g>
	<path class="st4" d="M159.7,220.6c-9.6,13.6,0.6,12.7,3.2,20.8l12.5,20.6c13.3,23.9,7.9,11-8.7-16.4c-1.4-2.3-2.1-7.1-2.1-7.1
		l-5.8-6.3c-2.4-4.5,4.5-7.2,1.8-10.5"/>
	<path class="st4" d="M208.7,259.9c-9.6,13.6,0.6,12.7,3.2,20.8"/>
	<path class="st4" d="M219.1,236.2c-9.6,13.6,17.7,7.7,20.3,15.8"/>
	<path class="st4" d="M80.2,247.5c-9.6,13.6-15.9,16.8-13.3,24.9"/>
	<path class="st4" d="M68.3,243c-9.6,13.6-26,14.9-23.4,23"/>
	<path class="st4" d="M67.6,219.5c-9.6,13.6-2.5,23.5-14,23.5"/>
	<path class="st4" d="M214.9,205.9c-9.6,13.6,31.8,18.8,34.4,27"/>
	<path class="st4" d="M227.9,206.8c15.8-1.8,27.6,3.8,30.2,11.9"/>
	<path class="st4" d="M70.4,216.9c-9.8,0.9-20.2,3.2-17.6,11.4"/>
</g>
</svg>
