<?xml version="1.0" encoding="UTF-8"?><svg xmlns="http://www.w3.org/2000/svg" viewBox="0 0 198.37 340.16"><defs><style>.f{fill:#0a0b00;}.g{opacity:.78;}.g,.h{stroke:#f2f2f2;}.g,.h,.i,.j,.k,.l{stroke-miterlimit:10;}.g,.h,.i,.k,.l{fill:none;}.m{isolation:isolate;}.h,.i{stroke-width:.5px;}.i,.j,.l{stroke:#ff0;}.j{fill:red;mix-blend-mode:soft-light;}.k{stroke:#999;stroke-width:.75px;}.n{fill:#999;}.o{fill:#ccc;}.p{fill:#ff0;opacity:.23;}.q{fill:#f2f2f2;}</style></defs><g class="m"><g id="b"><g id="c"><g id="d"><rect class="q" width="198.37" height="340.16" rx="1.34" ry="1.34"/><g id="e"><path class="f" d="m6.93,333.51c-1.16,0-2.1-.87-2.1-1.95V8.6c0-1.08.94-1.95,2.1-1.95h184.51c1.16,0,2.1.87,2.1,1.95v322.96c0,1.08-.94,1.95-2.1,1.95"/></g><rect class="h" x="7.74" y="9.5" width="182.9" height="321.15" rx="1.34" ry="1.34"/><path class="n" d="m98.45,304.9v1.17h.42c.06,0,.09.01.12.03.02.02.03.05.03.08,0,.03-.01.06-.03.08-.02.02-.06.03-.12.03h-.94c-.05,0-.09-.01-.12-.03-.02-.02-.03-.05-.03-.08,0-.03.01-.06.03-.08.02-.02.06-.03.12-.03h.3v-2.69h-.3c-.05,0-.09-.01-.12-.03-.02-.02-.03-.05-.03-.08s.01-.06.03-.08c.02-.02.06-.03.12-.03h1.36c.28,0,.52.09.71.27.19.18.29.38.29.6,0,.16-.06.31-.18.45-.12.14-.32.26-.6.36.16.11.3.24.41.38.11.14.3.43.55.86h.17c.05,0,.09.01.12.03.02.02.03.05.03.08,0,.03-.01.06-.03.08-.02.02-.06.03-.12.03h-.3c-.28-.5-.49-.83-.65-1-.15-.17-.33-.3-.53-.4h-.72Zm0-.23h.61c.2,0,.38-.04.54-.11.16-.07.28-.16.35-.25s.11-.19.11-.3c0-.15-.08-.29-.23-.43-.15-.14-.33-.2-.55-.2h-.83v1.29Z"/><path class="n" d="m93.03,312.33h-1.48l-.3.82h.43c.05,0,.09.01.12.03.02.02.03.05.03.08,0,.03-.01.06-.03.08-.02.02-.06.03-.12.03h-.84c-.05,0-.09-.01-.12-.03-.02-.02-.03-.05-.03-.08,0-.03.01-.06.03-.08.02-.02.06-.03.12-.03h.17l1-2.69h-.67c-.05,0-.09-.01-.12-.03-.02-.02-.03-.05-.03-.08s.01-.06.03-.08c.02-.02.06-.03.12-.03h1.13l1.1,2.91h.17c.05,0,.09.01.12.03.02.02.03.05.03.08,0,.03-.01.06-.03.08-.02.02-.06.03-.12.03h-.84c-.06,0-.09-.01-.12-.03-.02-.02-.03-.05-.03-.08,0-.03.01-.06.03-.08.02-.02.06-.03.12-.03h.43l-.31-.82Zm-.09-.23l-.62-1.64h-.08l-.6,1.64h1.31Z"/><path class="n" d="m107.69,311.89c0,.3-.06.58-.18.84-.12.26-.29.46-.5.6-.21.14-.44.21-.69.21-.36,0-.68-.15-.96-.46s-.41-.7-.41-1.19.14-.88.41-1.19c.28-.31.6-.46.96-.46.24,0,.47.07.69.21.21.14.38.34.5.6.12.26.18.53.18.84Zm-.23,0c0-.37-.11-.7-.32-.99-.21-.29-.49-.44-.83-.44-.32,0-.59.14-.81.42-.22.28-.34.61-.34,1.01,0,.42.12.76.35,1.03.24.27.5.4.8.4.34,0,.61-.15.83-.44.21-.29.32-.62.32-.99Z"/><path class="n" d="m99.29,317.24v2.69h.58c.05,0,.09.01.12.03.02.02.03.05.03.08,0,.03-.01.06-.03.08-.02.02-.06.03-.12.03h-1.4c-.05,0-.09-.01-.12-.03-.02-.02-.03-.05-.03-.08,0-.03.01-.06.03-.08.02-.02.06-.03.12-.03h.58v-2.69h-.92v.78c0,.06-.01.09-.03.12-.02.02-.05.03-.08.03-.03,0-.06-.01-.08-.03-.02-.02-.03-.06-.03-.12v-1.01h2.52v1.01c0,.06-.01.09-.03.12-.02.02-.05.03-.08.03s-.06-.01-.08-.03c-.02-.02-.03-.06-.03-.12v-.78h-.92Z"/><path class="k" d="m106.32,309.6c-.74-2.52-2.78-4.48-5.33-5.11"/><path class="k" d="m100.99,318.88c2.37-.59,4.28-2.31,5.14-4.55"/><path class="k" d="m92.29,314.33c.84,2.2,2.7,3.89,4.99,4.51"/><path class="k" d="m97.52,304.64c-2.54.67-4.55,2.65-5.25,5.18"/><path class="o" d="m99.52,23.85l2.69,3.47h.22c.13,0,.23.03.29.08s.09.12.09.21-.03.15-.09.2-.15.08-.29.08h-1.82c-.13,0-.23-.03-.29-.08s-.09-.12-.09-.2.03-.15.09-.21.16-.08.29-.08h.9l-2.34-3-2.31,3h.9c.13,0,.23.03.29.08s.09.12.09.21-.03.15-.09.2-.16.08-.29.08h-1.81c-.13,0-.23-.03-.29-.08-.06-.05-.09-.12-.09-.2,0-.06.02-.12.05-.17.04-.05.08-.08.12-.09s.18-.02.41-.02l2.65-3.47-2.53-3.28h-.21c-.13,0-.23-.03-.29-.08s-.09-.12-.09-.21.03-.15.09-.21.16-.08.29-.08h1.54c.14,0,.24.03.3.08s.09.12.09.21-.03.15-.09.21-.16.08-.3.08h-.63l2.18,2.82,2.17-2.82h-.63c-.14,0-.24-.03-.3-.08-.06-.05-.09-.12-.09-.21s.03-.15.09-.21c.06-.05.16-.08.3-.08h1.55c.13,0,.23.03.29.08.06.05.09.12.09.21s-.03.15-.09.21c-.06.05-.16.08-.29.08h-.22l-2.52,3.28Z"/><polygon class="p" points="97.61 248.31 69.14 248.31 69.14 199.57 97.61 248.31"/><line class="g" x1="39.39" y1="223.59" x2="98.35" y2="223.59"/><line class="i" x1="68.92" y1="198.85" x2="68.87" y2="248.31"/><polygon class="l" points="97.82 248.31 39.95 248.31 68.88 198.86 97.82 248.31"/><polygon class="p" points="101.12 248.31 129.59 248.31 129.59 199.57 101.12 248.31"/><polygon class="l" points="100.7 248.31 158.57 248.31 129.64 198.86 100.7 248.31"/><line class="g" x1="100.02" y1="223.6" x2="158.98" y2="223.6"/><line class="i" x1="129.64" y1="198.6" x2="129.59" y2="248.06"/><line class="j" x1="128.19" y1="324.23" x2="70.76" y2="323.89"/><polygon class="l" points="70.32 324.23 128.19 324.23 99.26 274.78 70.32 324.23"/><line class="g" x1="69.78" y1="299.5" x2="128.74" y2="299.5"/><polygon class="p" points="70.77 294.47 128.2 294.75 99.26 245.29 70.77 294.47"/><line class="j" x1="128.2" y1="294.8" x2="70.77" y2="294.47"/><polygon class="l" points="70.33 294.8 128.2 294.8 99.26 245.35 70.33 294.8"/><line class="g" x1="69.78" y1="270.02" x2="128.74" y2="270.02"/><line class="i" x1="99.26" y1="148.14" x2="99.31" y2="181.6"/><polygon class="p" points="70.33 197.6 99.31 181.6 128.2 197.6 70.33 197.6"/><polygon class="l" points="70.33 197.6 128.2 197.6 99.26 148.14 70.33 197.6"/><line class="i" x1="99.31" y1="181.6" x2="128.2" y2="197.6"/><line class="i" x1="99.31" y1="181.6" x2="70.33" y2="197.6"/><line class="g" x1="70.4" y1="172.87" x2="129.36" y2="172.87"/><line class="i" x1="124.35" y1="103.13" x2="124.3" y2="136.59"/><polygon class="p" points="152.84 152.25 124.3 136.59 124.37 103.5 152.84 152.25"/><polygon class="l" points="153.28 152.59 95.41 152.59 124.35 103.13 153.28 152.59"/><line class="i" x1="124.3" y1="136.59" x2="95.41" y2="152.59"/><line class="i" x1="124.3" y1="136.59" x2="153.28" y2="152.59"/><line class="g" x1="94.82" y1="127.86" x2="153.78" y2="127.86"/><line class="i" x1="74.2" y1="103.13" x2="74.15" y2="136.59"/><polygon class="p" points="74.2 103.13 74.15 136.59 45.26 152.59 74.2 103.13"/><polygon class="l" points="103.13 152.59 45.26 152.59 74.2 103.13 103.13 152.59"/><line class="i" x1="74.15" y1="136.59" x2="45.26" y2="152.59"/><line class="i" x1="74.15" y1="136.59" x2="103.13" y2="152.59"/><line class="g" x1="44.67" y1="127.86" x2="103.63" y2="127.86"/><line class="i" x1="69.02" y1="91.82" x2="40.14" y2="107.82"/><line class="g" x1="98.01" y1="83.09" x2="40.14" y2="83.09"/><line class="i" x1="69.07" y1="58.36" x2="69.02" y2="91.82"/><polygon class="p" points="97.81 107.66 69.02 91.82 40.14 107.82 97.81 107.66"/><polygon class="l" points="98.01 107.82 40.14 107.82 69.07 58.37 98.01 107.82"/><line class="i" x1="69.02" y1="91.82" x2="98.01" y2="107.82"/><line class="i" x1="129.45" y1="58.36" x2="129.4" y2="91.82"/><polygon class="p" points="157.94 107.47 129.4 91.81 100.52 107.82 157.94 107.47"/><polygon class="l" points="158.39 107.82 100.52 107.82 129.45 58.36 158.39 107.82"/><line class="i" x1="129.4" y1="91.82" x2="100.52" y2="107.82"/><line class="i" x1="129.4" y1="91.82" x2="158.39" y2="107.82"/><line class="g" x1="100.52" y1="83.1" x2="158.39" y2="83.1"/><line class="i" x1="99.26" y1="34.73" x2="99.31" y2="68.19"/><polygon class="p" points="70.36 84.19 99.31 68.19 128.2 84.19 70.36 84.19"/><polygon class="l" points="70.33 84.19 128.2 84.19 99.26 34.73 70.33 84.19"/><line class="i" x1="99.31" y1="68.19" x2="128.2" y2="84.19"/><line class="i" x1="99.31" y1="68.19" x2="70.33" y2="84.19"/><line class="g" x1="69.78" y1="59.46" x2="128.74" y2="59.46"/></g></g></g></g></svg>