<svg xmlns="http://www.w3.org/2000/svg" width="512" height="512" fill="none"><path fill="#F90" d="M0 0h512v512H0z"/><path fill="#56C399" d="M84 340h344v160H84z"/><g><animateTransform attributeName="transform" dur="0.4s" keyTimes="0;0.5;1" repeatCount="indefinite" type="translate" values="0 0;0 28;0 0"/><path fill="#82DCB9" d="M196 176h120v296H196z"/><path fill="#D22D27" d="m264 403 52 12v10l-52-22Z"/><path fill="#fff" d="m283 401 3.625 1.69-6.762 14.501-3.625-1.69zM301 408l3.864 1.035-4.141 15.455-3.864-1.035z"/><path fill="#56C399" d="m196 300 120-16v4l-120 16v-4Z"/><path fill="#fff" d="m212 292 3.985-.349 1.394 15.94-3.985.348zM240 288l3.985-.349 1.394 15.94-3.985.348zM268 284l3.985-.349 1.394 15.94-3.985.348zM296 280l3.985-.349 1.394 15.94-3.985.348z"/><path fill="#56C399" d="M196 96h120v80H196z"/><path fill="#82DCB9" d="M250 96h12v36h-12z"><animate attributeName="fill" begin="5s" dur="0.4s" repeatCount="5" values="#82DCB9; #fff; #82DCB9"/></path><path fill="#96469A" d="M196 96c0-17.673 14.327-32 32-32h56c17.673 0 32 14.327 32 32H196ZM196 120h120V96H196z"/><path fill="#704B9F" d="M196 144h120v-24H196z"/><path fill="#121212" d="M196 176h120v52l-39 4-21-16-21 16-39-4v-52Z"/><path fill="#D22D27" d="M204 192h104v20H204z"><animate attributeName="fill" dur="8s" keyTimes="0;0.05;0.075;0.1;0.12;0.15;0.5;0.55;1" repeatCount="indefinite" values="#6C0400;#FF0900;#6C0400;#FF0900;#6C0400;#FF0900;#FF0900;#6C0400;#6C0400"/></path><path stroke="#121212" stroke-width="6" d="M228 340h56"/><path fill="#D22D27" stroke="#121212" stroke-width="6" d="M268 359.25V340h-22.5v19.25c0 6.213 5.037 11.25 11.25 11.25S268 365.463 268 359.25Z"/></g></svg>