<?xml version="1.0" encoding="utf-8"?>
<svg version="1.1" id="SADBADCUP" xmlns="http://www.w3.org/2000/svg" xmlns:xlink="http://www.w3.org/1999/xlink" x="0px" y="0px" width="100%" heigh="100%" viewBox="0 0 575 575" xml:space="preserve" aria-labelledby="sadbadTitle sadbadDesc" role="img" class="actv">
  <title id="sadbadTitle">SADBAD PAPER CUP by DREEEM</title>
  <desc id="sadbadDesc">Multiplicitous melancholy shapeshifter in the form of a 'disposable' paper cup.</desc>
  <style type="text/css">
    svg{background:#40c66e;box-sizing:border-box;transform:translate3d(0, 0, 0)}
	@media(min-width:380px){svg.js{padding:10px 3%}}
	.lght{fill:#FFFFFF;}
	.brnd{fill:#42B767;}
	.papr{fill:#bca27c;}
    .drk{fill:#000000}
	svg.actv .shd{opacity:0.5}
    svg.actv{animation:hue-rotate 2s linear infinite;background:radial-gradient(#211717,#141626,#1a2a22)}
    svg.actv .brnd{fill:#ded489}
    svg.actv .lght{fill:#fff7cf}
    svg.actv .drk{fill:#4a2f10}
    svg.actv .hvy{fill:#0b3a0e}
        @keyframes hue-rotate{0%{filter:hue-rotate(0deg)saturate(1.65)contrast(0.95)}100%{filter:hue-rotate(360deg)saturate(1.65)contrast(0.95)}}
  </style>
  <g>
    <path class="drk" d="m440.7 127.5-10-20.1c-1.9-10.7-13.6-23-69.1-30.2-4.5-13.1-4.4-36.7-21.7-37.5-10.7-1.1-16.1 11.8-25.1 33.5-18.7.1-40.3-.9-58.5.1-3.9-9.7-13.1-25.5-14.7-28.4s-5.2-5.5-11-5.5-10.9 3.7-12.9 9.1c-3.3 9.1-6.2 19.7-8.8 29.2-36.1 5.4-60.2 11.2-65.3 29L132.7 128c-5 6.1-6.6 18.1-1.4 23.8-7.8 14 .4 24.9 12.7 31.1-9.8 9.8-6.2 19.3-5 30 4.4 30.1 10 76.6 14.4 107.4 2.4 27.4 4.5 29.8 7.2 53.2 1.4 11.1 7.8 14.9 12.3 18.3l11.1 83.1c2.6 60.1 216.8 60.3 218.1-.7 2-20.5 4.8-55.1 6.9-79 8.7-5.8 13.3-12.7 13.5-20.6 1.8-19.1 4-41.8 5.3-60.4 1.7-5.4 2.9-27.5 3.1-38.7 3.3-24.8 5.3-51.2 7.5-75.2 1-6.6-1.5-12.6-7.4-18 11.8-6.2 19.4-17.3 11.4-30.9a19.3 19.3 0 0 0-1.7-23.9z"/>
    <g>
      <path class="drk" d="m348.8 398.4-1.1-.8c-.2.4.2.7 1.1.8z"/>
    </g>
    <path class="lght" d="m155.6 167 40.9 306.8c0 18.6 43.3 33.7 96.6 33.7 52 0 94.3-14.4 96.4-32.3h.1l8.8-101.7L416.2 170l-260.6-3z"/>
    <path class="drk shd" d="m413.7 205.8 3.4-30.8-1.2.5c-24.7 9-204.8 11.9-231.1 6.9-11.3-2.2 11.6 6.6 43.2 9.6 19.2 1.8 40.6 2.8 63.3 2.8 41.9 0 98.4-.7 109.7 13.8 11.3 14.5-3.7 79.1-9.1 105.8-7.2 36-31.6 84.1-23.2 84.3 7.9.1 18.6 1.3 18.6 10 0 5.1.7 13 .9 20.2.2 9.1-.1 12.2.3 18.2.5 7.2 2.2 14 2.2 14.8 0 4.6 2.1-15.1 3.4-27.8.4-5.7 19.3-227 19.6-228.3z"/>
    <path class="brnd" d="M429.1 155.1v-7.4c2.8-2.2 4.3-4.5 4.3-6.9 0-2-1.1-4.1-3.1-6.2L418.5 111c0-14.2-58.9-25.7-131.5-25.7S155.5 96.8 155.5 111l-11.7 23.6c-2 2.1-3.1 4.2-3.1 6.2 0 2.2 1.3 4.3 3.7 6.4v8.3c-2.4 2.1-3.7 4.2-3.7 6.4 0 15.8 65.5 28.6 146.3 28.6s146.3-12.8 146.3-28.6c0-2.3-1.5-4.6-4.2-6.8z"/>
    <g>
      <path class="papr" d="M149.9 199.8a57 57 0 0 0-.3-1.7l.3 1.7z"/>
      <path class="papr" d="M425.9 197.1c0-4-3.7-7.8-10.4-11.3l-.3 3.6c24.5 21-55.9 27.7-71.1 30.2-30.8 5.5-212.1 2.8-185.5-29.1l-.5-3.8c-6.2 3.8-9.5 7.1-8.4 12 6.7 48.2 16.8 129.6 23.4 174.3 34.9 49.2 227.6 38.5 236.7 0 5.1-54.9 11-122.1 16.1-175.9z"/>
    </g>
    <path class="lght" d="M368.7 314.4a75.7 75.7 0 0 1-151.4 0c0-22.9 3.8-28.8 10.3-38.2 6.6-4.5 16-24.2 27.2-27.2a75.6 75.6 0 0 1 113.9 65.4z"/>
    <path class="brnd" d="M366.9 316.3c0 13.3-3.6 25.8-9.9 36.6-6.3 6-15.3 17.3-26 26a75.5 75.5 0 0 1-36.6 9.9c-13.3.7-25.8-7.7-36.6-9.9-10.7-2.5-19.7-15.4-26-26-6.3-14.4-9.9-18.4-9.9-36.6 0-21.3 3.6-22.6 9.9-36.6a71.9 71.9 0 0 1 62.6-35.9 72.6 72.6 0 0 1 72.5 72.5z"/>
    <path class="brnd" d="M354.4 102.4s-5.8-31.5-13.1-49.9c-.5-1.2-2-1.3-2.7-.3-10.1 16.1-17.7 48.1-17.7 48.1"/>
    <path class="brnd" d="M251.1 96.2s-8.8-29-19.5-43.6c-.6-.8-1.8-.6-2.1.3-3.2 9.2-7.3 24.4-8.7 34.7-1.2 9.1-3.5 11.9-3.5 11.9"/>
    <g>
      <path class="lght" d="M318 86.1c-1.9-.1-9.6-.7-31.3-.7-13.3 0-26.1.3-38.2 1l.8 2.3c12.5-.8 25.7-1.2 39.5-1.2a260 260 0 0 0 29.2-1.4z"/>
      <path class="lght" d="M388.1 115.6a276.2 276.2 0 0 1-51.5 9.2c-14 1.4-29.3 2.3-45.6 2.6-4.6.1-31.9 2.3-11.8 2.3 16.2 0 31.8-.6 46.1-1.6 30.3-2.2 55.3-6.6 70.2-12.1 5.7-2.2-3.2-1.7-7.4-.4z"/>
      <path class="lght" d="M144.2 155.6s-5.2 4.8-2.9 8.1c2.3 3.3 3.8-.6 4.5-2 .8-1.5-.6-7.3-1.6-6.1z"/>
      <path class="lght" d="M149.4 123.5s-4.4 8-6.1 11.5c-2.9 3.3-3.7 7.6-1.3 10 9.4 9.8.1-3.1 1.7-6.2 1.6-3.3 7.3-16.8 5.7-15.3z"/>
      <path class="lght" d="M218.8 89c-30.9 3.7-53.4 9.8-60.9 16.9-1.8 1.7 2.8.6 9-2.3 10.3-5 28.3-9.1 51-12-.9 2.6-2 5.2-3.3 7.7-2.4 1.9-1.1 3.3 1.5 3.8 3.5 1.3 4.4-3.1 4.7-5.7.4-3.5 6.3-36.9 6-35.9-3.6 9.5-5.2 18.7-8 27.5z"/>
      <path class="lght" d="M327.8 75.2c-4.3 8.4-6.6 18.9-14.3 24.9-.4.2-.6.7-.2 1 10 6 12.9-10.6 14.7-17.3 1.8-6.2 5.6-20 4.8-20.3l-5 11.7z"/>
    </g>
    <g>
      <path class="drk" d="M391.2 105.9c2 1.3.4 4.1-11.8 6.1-12.2 2.1-17.5 3-17.9.7-.3-1.6 4.7-1.6 10.9-3.3 2.1-.6 4.4-1.1 7.1-1.5.9-.1.2-2.3 1.1-2.4 6.6-1 8.7-.8 10.6.4z"/>
      <path class="drk" d="M406.9 157.8a151.2 151.2 0 0 1-46.5 9.6c-23.5 2.6-47.2 3-70.9 2.1 34.3-3.8 68.5-4.6 102.7-10.1h-.1c4.9-.8 9.7-1.8 14.4-3.4 2.3-.6 2.7.9.4 1.8z"/>
      <path class="drk" d="M417.8 116.2c-.5-.9-3.8-.7-7.9 1.1-19.8 8.5-68.4 17-122.9 17a735 735 0 0 1-39.9-1c-12.4-.6-22.1-1.1-28.8-1.3-10.3-.4-10.3-.2-10.3.2s0 .7 24.6 2.7c17.5 1.4 36.5 2.1 56.6 2.1 65.4 0 114.9-11.6 127.9-19.5.8-.6.9-1 .7-1.3z"/>
      <path class="drk" d="M430 147.2v4.6s-16.4 3.9-10 1c6.3-3 7.9-4.3 10-5.6z"/>
      <path class="drk" d="M351.9 82.4a214 214 0 0 0 4.9 16.5c1 2.4.9 3.4-.1 3.8-2.2.8-3.3-2.4-3.8-6.1-.3-2.5-4.4-20.8-4.8-22.4-.6-2.2 2.1 1.3 3.8 8.2z"/>
      <path class="drk" d="M250.5 86.3c1 2.7 3.8 9 5.5 11.6 1.6 2.3 1.4 3.2.6 3.8-1.9 1.3-4.4-3.4-5.9-6.8-.8-1.9-6.5-17.4-7.2-19.6-.5-1.8 2.5-1.3 7 11z"/>
    </g>
    <g>
      <g>
        <path class="drk" d="M338.8 365.3c-2.1.1-3.5-2.1-4.7-3.6-5.3-6.5-11.9-14.5-17.3-14.8-8.2-2.3-16.4-6.2-24.8-4.4-7.5-.6-24.4 5.4-29.5 14.2-1.3 1.9-3.6 6.9-7.1 6.2-3-.6-4.8-4.2-2.5-7.2 5.2-12.2 12.3-18.2 21.4-20.9a43.2 43.2 0 0 1 22.8-5c12 2 24.7 3 33.8 13.1 2.4 2.9 4.7 3.9 6.8 7.5 1.6 2.9 2.8 5.9 4.1 8.2 2.4 2.4.5 6.9-3 6.7z"/>
      </g>
      <g>
        <g>
          <path class="drk" d="M321.3 302.1c-.2 3.9 4.8 7.1 8.8 6.8 4-.3 5.8-3.8 6.1-7s.4-9.3.6-15.6c.2-6.3.7-13.7.6-19.7-.1-6 .3-6.6.3-10.9s-4.4-7.1-8-7.1c-2.3 0-4.3.6-5.5 2.5a9.7 9.7 0 0 0-1.4 5l-.7 18.2c-.5 13.1-.8 27.8-.8 27.8z"/>
          <path class="drk" d="M254.6 300.7c.1 3.9 3.9 7 7.9 6.4 4-.5 6.8-4.5 6.8-8.4 0 0 .1-3.9-.7-21l-1-23.7v-1.4c0-2.2-1-4.3-2.8-5.6-1.4-1-2.2-1.2-4.9-1.1-3.7.2-7 4-7 7.9a4147.6 4147.6 0 0 0 1.7 46.9z"/>
        </g>
        <g>
          <path class="lght" d="M255.7 271.1c-.5-3-.4-15.4-.4-17.5 0-2 2.8-5.7 5.7-4.5 2.2.9 2.5 7.7 1.8 11.5s-1.3 5.6-2.7 8.5c-1.2 2.8-3.9 5.1-4.4 2z"/>
          <path class="lght" d="M324.9 273.1c-.1-4.2-.1-14.4.8-17.5.9-3.2 3.7-4.4 5.7-3.9 2.1.5 2.8 2.4 2.7 5-.1 2.6-.7 4.8-1.6 7.6-.9 2.8-1.8 4.9-3 6.9-1.5 2.6-4.6 4.4-4.6 1.9z"/>
        </g>
      </g>
    </g>
  </g>
  <script type="text/javascript">
	//<![CDATA[
	const sadbad = document.getElementById('SADBADCUP');
	sadbad.classList.remove('actv');
	sadbad.classList.add('js');
	sadbad.addEventListener('dblclick', event => {sadbad.classList.toggle('actv');});
	//]]>
  </script>
</svg>