<svg height="320" shape-rendering="crispEdges" viewBox="0 0 320 320" width="320" xmlns="http://www.w3.org/2000/svg"><rect fill="#e1d7d5" height="100%" width="100%"/><path d="m90 210h140v10h-140z" fill="#4b4949"/><path d="m90 220h140v10h-140z" fill="#4b4949"/><path d="m90 230h140v10h-140z" fill="#4b4949"/><path d="m90 240h140v10h-140z" fill="#4b4949"/><path d="m90 250h20v10h-20z" fill="#4b4949"/><path d="m120 250h110v10h-110z" fill="#4b4949"/><path d="m90 260h20v10h-20z" fill="#4b4949"/><path d="m120 260h110v10h-110z" fill="#4b4949"/><path d="m90 270h20v10h-20z" fill="#4b4949"/><path d="m120 270h110v10h-110z" fill="#4b4949"/><path d="m90 280h20v10h-20z" fill="#4b4949"/><path d="m120 280h110v10h-110z" fill="#4b4949"/><path d="m90 290h20v10h-20z" fill="#4b4949"/><path d="m120 290h110v10h-110z" fill="#4b4949"/><path d="m90 300h20v10h-20z" fill="#4b4949"/><path d="m120 300h110v10h-110z" fill="#4b4949"/><path d="m90 310h20v10h-20z" fill="#4b4949"/><path d="m120 310h110v10h-110z" fill="#4b4949"/><path d="m90 210h10v10h-10z" fill="#fff0ee"/><path d="m130 210h10v10h-10z" fill="#fff0ee"/><path d="m170 210h10v10h-10z" fill="#fff0ee"/><path d="m210 210h10v10h-10z" fill="#fff0ee"/><path d="m100 220h10v10h-10z" fill="#fff0ee"/><path d="m120 220h10v10h-10z" fill="#fff0ee"/><path d="m180 220h10v10h-10z" fill="#fff0ee"/><path d="m200 220h10v10h-10z" fill="#fff0ee"/><path d="m100 230h10v10h-10z" fill="#fff0ee"/><path d="m120 230h10v10h-10z" fill="#fff0ee"/><path d="m180 230h10v10h-10z" fill="#fff0ee"/><path d="m200 230h10v10h-10z" fill="#fff0ee"/><path d="m90 240h10v10h-10z" fill="#fff0ee"/><path d="m130 240h10v10h-10z" fill="#fff0ee"/><path d="m170 240h10v10h-10z" fill="#fff0ee"/><path d="m210 240h10v10h-10z" fill="#fff0ee"/><path d="m140 250h10v10h-10z" fill="#fff0ee"/><path d="m160 250h10v10h-10z" fill="#fff0ee"/><path d="m220 250h10v10h-10z" fill="#fff0ee"/><path d="m140 260h10v10h-10z" fill="#fff0ee"/><path d="m160 260h10v10h-10z" fill="#fff0ee"/><path d="m220 260h10v10h-10z" fill="#fff0ee"/><path d="m90 270h10v10h-10z" fill="#fff0ee"/><path d="m130 270h10v10h-10z" fill="#fff0ee"/><path d="m170 270h10v10h-10z" fill="#fff0ee"/><path d="m210 270h10v10h-10z" fill="#fff0ee"/><path d="m100 280h10v10h-10z" fill="#fff0ee"/><path d="m120 280h10v10h-10z" fill="#fff0ee"/><path d="m180 280h10v10h-10z" fill="#fff0ee"/><path d="m200 280h10v10h-10z" fill="#fff0ee"/><path d="m100 290h10v10h-10z" fill="#fff0ee"/><path d="m120 290h10v10h-10z" fill="#fff0ee"/><path d="m180 290h10v10h-10z" fill="#fff0ee"/><path d="m200 290h10v10h-10z" fill="#fff0ee"/><path d="m90 300h10v10h-10z" fill="#fff0ee"/><path d="m130 300h10v10h-10z" fill="#fff0ee"/><path d="m170 300h10v10h-10z" fill="#fff0ee"/><path d="m210 300h10v10h-10z" fill="#fff0ee"/><path d="m140 310h10v10h-10z" fill="#fff0ee"/><path d="m160 310h10v10h-10z" fill="#fff0ee"/><path d="m220 310h10v10h-10z" fill="#fff0ee"/><g fill="#2bb26b"><path d="m50 60h100v10h-100z"/><path d="m160 60h110v10h-110z"/><path d="m50 70h10v10h-10z"/><path d="m170 70h10v10h-10z"/><path d="m220 70h10v10h-10z"/><path d="m260 70h10v10h-10z"/><path d="m50 80h10v10h-10z"/><path d="m70 80h110v10h-110z"/><path d="m190 80h10v10h-10z"/><path d="m210 80h40v10h-40z"/><path d="m260 80h10v10h-10z"/><path d="m50 90h10v10h-10z"/><path d="m70 90h10v10h-10z"/><path d="m110 90h10v10h-10z"/><path d="m190 90h10v10h-10z"/><path d="m240 90h10v10h-10z"/><path d="m260 90h10v10h-10z"/><path d="m50 100h10v10h-10z"/><path d="m90 100h10v10h-10z"/><path d="m130 100h70v10h-70z"/><path d="m210 100h40v10h-40z"/><path d="m260 100h10v10h-10z"/><path d="m50 110h60v10h-60z"/><path d="m120 110h20v10h-20z"/><path d="m170 110h10v10h-10z"/><path d="m260 110h10v10h-10z"/><path d="m50 120h10v10h-10z"/><path d="m70 120h10v10h-10z"/><path d="m130 120h10v10h-10z"/><path d="m150 120h10v10h-10z"/><path d="m170 120h10v10h-10z"/><path d="m190 120h60v10h-60z"/><path d="m260 120h10v10h-10z"/><path d="m50 130h10v10h-10z"/><path d="m70 130h50v10h-50z"/><path d="m130 130h10v10h-10z"/><path d="m150 130h30v10h-30z"/><path d="m260 130h10v10h-10z"/><path d="m50 140h10v10h-10z"/><path d="m110 140h10v10h-10z"/><path d="m170 140h10v10h-10z"/><path d="m190 140h80v10h-80z"/><path d="m50 150h10v10h-10z"/><path d="m70 150h30v10h-30z"/><path d="m110 150h30v10h-30z"/><path d="m150 150h10v10h-10z"/><path d="m240 150h10v10h-10z"/><path d="m260 150h10v10h-10z"/><path d="m50 160h10v10h-10z"/><path d="m90 160h10v10h-10z"/><path d="m110 160h10v10h-10z"/><path d="m130 160h10v10h-10z"/><path d="m150 160h80v10h-80z"/><path d="m240 160h10v10h-10z"/><path d="m260 160h10v10h-10z"/><path d="m50 170h30v10h-30z"/><path d="m90 170h10v10h-10z"/><path d="m260 170h10v10h-10z"/><path d="m50 180h10v10h-10z"/><path d="m70 180h10v10h-10z"/><path d="m90 180h40v10h-40z"/><path d="m140 180h70v10h-70z"/><path d="m220 180h50v10h-50z"/><path d="m50 190h10v10h-10z"/><path d="m90 190h10v10h-10z"/><path d="m180 190h10v10h-10z"/><path d="m260 190h10v10h-10z"/><path d="m50 200h200v10h-200z"/><path d="m260 200h10v10h-10z"/></g><path d="m100 110h60v10h-60z" fill="#00a556"/><path d="m170 110h60v10h-60z" fill="#00a556"/><path d="m100 120h10v10h-10z" fill="#00a556"/><path d="m110 120h20v10h-20z" fill="#fff"/><path d="m130 120h20v10h-20z"/><path d="m150 120h10v10h-10z" fill="#00a556"/><path d="m170 120h10v10h-10z" fill="#00a556"/><path d="m180 120h20v10h-20z" fill="#fff"/><path d="m200 120h20v10h-20z"/><path d="m220 120h10v10h-10z" fill="#00a556"/><path d="m70 130h40v10h-40z" fill="#00a556"/><path d="m110 130h20v10h-20z" fill="#fff"/><path d="m130 130h20v10h-20z"/><path d="m150 130h30v10h-30z" fill="#00a556"/><path d="m180 130h20v10h-20z" fill="#fff"/><path d="m200 130h20v10h-20z"/><path d="m220 130h10v10h-10z" fill="#00a556"/><path d="m70 140h10v10h-10z" fill="#00a556"/><path d="m100 140h10v10h-10z" fill="#00a556"/><path d="m110 140h20v10h-20z" fill="#fff"/><path d="m130 140h20v10h-20z"/><path d="m150 140h10v10h-10z" fill="#00a556"/><path d="m170 140h10v10h-10z" fill="#00a556"/><path d="m180 140h20v10h-20z" fill="#fff"/><path d="m200 140h20v10h-20z"/><path d="m220 140h10v10h-10z" fill="#00a556"/><path d="m70 150h10v10h-10z" fill="#00a556"/><path d="m100 150h10v10h-10z" fill="#00a556"/><path d="m110 150h20v10h-20z" fill="#fff"/><path d="m130 150h20v10h-20z"/><path d="m150 150h10v10h-10z" fill="#00a556"/><path d="m170 150h10v10h-10z" fill="#00a556"/><path d="m180 150h20v10h-20z" fill="#fff"/><path d="m200 150h20v10h-20z"/><path d="m220 150h10v10h-10z" fill="#00a556"/><path d="m100 160h60v10h-60z" fill="#00a556"/><path d="m170 160h60v10h-60z" fill="#00a556"/></svg>