<svg height="320" shape-rendering="crispEdges" viewBox="0 0 320 320" width="320" xmlns="http://www.w3.org/2000/svg"><rect fill="#d5d7e1" height="100%" width="100%"/><g fill="#343235"><path d="m90 210h140v10h-140z"/><path d="m90 220h140v10h-140z"/><path d="m90 230h140v10h-140z"/><path d="m90 240h140v10h-140z"/><path d="m90 250h20v10h-20z"/><path d="m120 250h110v10h-110z"/><path d="m90 260h20v10h-20z"/><path d="m120 260h110v10h-110z"/><path d="m90 270h20v10h-20z"/><path d="m120 270h110v10h-110z"/><path d="m90 280h20v10h-20z"/><path d="m120 280h110v10h-110z"/><path d="m90 290h20v10h-20z"/><path d="m120 290h110v10h-110z"/><path d="m90 300h20v10h-20z"/><path d="m120 300h110v10h-110z"/><path d="m90 310h20v10h-20z"/><path d="m120 310h110v10h-110z"/></g><path d="m130 230h20v10h-20z" fill="#ffef16"/><path d="m130 240h20v10h-20z" fill="#ffef16"/><path d="m130 250h10v10h-10z" fill="#ffef16"/><path d="m150 250h20v10h-20z" fill="#ffef16"/><path d="m150 260h20v10h-20z" fill="#ffef16"/><path d="m170 270h20v10h-20z" fill="#ffef16"/><path d="m170 280h20v10h-20z" fill="#ffef16"/><path d="m170 290h10v10h-10z" fill="#ffef16"/><path d="m120 50h80v10h-80z" fill="#807f7e"/><path d="m90 60h30v10h-30z" fill="#807f7e"/><path d="m120 60h80v10h-80z" fill="#62616d"/><path d="m200 60h30v10h-30z" fill="#807f7e"/><path d="m70 70h20v10h-20z" fill="#807f7e"/><path d="m90 70h140v10h-140z" fill="#62616d"/><path d="m230 70h20v10h-20z" fill="#807f7e"/><path d="m60 80h10v10h-10z" fill="#807f7e"/><path d="m70 80h180v10h-180z" fill="#62616d"/><path d="m250 80h10v10h-10z" fill="#807f7e"/><path d="m50 90h10v10h-10z" fill="#807f7e"/><path d="m60 90h200v10h-200z" fill="#62616d"/><path d="m260 90h10v10h-10z" fill="#807f7e"/><path d="m50 100h10v10h-10z" fill="#807f7e"/><path d="m60 100h200v10h-200z" fill="#62616d"/><path d="m260 100h10v10h-10z" fill="#807f7e"/><path d="m50 110h10v10h-10z" fill="#807f7e"/><path d="m60 110h200v10h-200z" fill="#62616d"/><path d="m260 110h10v10h-10z" fill="#807f7e"/><path d="m50 120h10v10h-10z" fill="#343235"/><path d="m60 120h10v10h-10z" fill="#807f7e"/><path d="m70 120h180v10h-180z" fill="#62616d"/><path d="m250 120h10v10h-10z" fill="#807f7e"/><path d="m260 120h10v10h-10z" fill="#62616d"/><path d="m50 130h20v10h-20z" fill="#343235"/><path d="m70 130h20v10h-20z" fill="#807f7e"/><path d="m90 130h140v10h-140z" fill="#62616d"/><path d="m230 130h20v10h-20z" fill="#807f7e"/><path d="m250 130h10v10h-10z" fill="#4b4949"/><path d="m260 130h10v10h-10z" fill="#62616d"/><path d="m50 140h40v10h-40z" fill="#343235"/><path d="m90 140h30v10h-30z" fill="#807f7e"/><path d="m120 140h80v10h-80z" fill="#62616d"/><path d="m200 140h30v10h-30z" fill="#807f7e"/><path d="m230 140h20v10h-20z" fill="#4b4949"/><path d="m250 140h20v10h-20z" fill="#62616d"/><path d="m50 150h70v10h-70z" fill="#343235"/><path d="m120 150h80v10h-80z" fill="#807f7e"/><path d="m200 150h60v10h-60z" fill="#4b4949"/><path d="m260 150h10v10h-10z" fill="#62616d"/><path d="m50 160h40v10h-40z" fill="#343235"/><path d="m90 160h30v10h-30z" fill="#4b4949"/><path d="m120 160h20v10h-20z" fill="#343235"/><path d="m140 160h10v10h-10z" fill="#4b4949"/><path d="m150 160h10v10h-10z" fill="#343235"/><path d="m160 160h90v10h-90z" fill="#4b4949"/><path d="m250 160h20v10h-20z" fill="#62616d"/><path d="m50 170h70v10h-70z" fill="#343235"/><path d="m120 170h140v10h-140z" fill="#4b4949"/><path d="m260 170h10v10h-10z" fill="#62616d"/><path d="m60 180h30v10h-30z" fill="#343235"/><path d="m90 180h30v10h-30z" fill="#4b4949"/><path d="m120 180h20v10h-20z" fill="#343235"/><path d="m140 180h110v10h-110z" fill="#4b4949"/><path d="m250 180h10v10h-10z" fill="#62616d"/><path d="m70 190h50v10h-50z" fill="#343235"/><path d="m120 190h30v10h-30z" fill="#4b4949"/><path d="m150 190h10v10h-10z" fill="#807f7e"/><path d="m160 190h10v10h-10z" fill="#343235"/><path d="m170 190h20v10h-20z" fill="#807f7e"/><path d="m190 190h10v10h-10z" fill="#343235"/><path d="m200 190h50v10h-50z" fill="#4b4949"/><path d="m90 200h30v10h-30z" fill="#4b4949"/><path d="m120 200h20v10h-20z" fill="#343235"/><path d="m140 200h90v10h-90z" fill="#4b4949"/><path d="m120 210h80v10h-80z" fill="#4b4949"/><path d="m100 110h60v10h-60z" fill="#ec5b43"/><path d="m170 110h60v10h-60z" fill="#ec5b43"/><path d="m100 120h10v10h-10z" fill="#ec5b43"/><path d="m110 120h20v10h-20z" fill="#fff"/><path d="m130 120h20v10h-20z"/><path d="m150 120h10v10h-10z" fill="#ec5b43"/><path d="m170 120h10v10h-10z" fill="#ec5b43"/><path d="m180 120h20v10h-20z" fill="#fff"/><path d="m200 120h20v10h-20z"/><path d="m220 120h10v10h-10z" fill="#ec5b43"/><path d="m70 130h40v10h-40z" fill="#ec5b43"/><path d="m110 130h20v10h-20z" fill="#fff"/><path d="m130 130h20v10h-20z"/><path d="m150 130h30v10h-30z" fill="#ec5b43"/><path d="m180 130h20v10h-20z" fill="#fff"/><path d="m200 130h20v10h-20z"/><path d="m220 130h10v10h-10z" fill="#ec5b43"/><path d="m70 140h10v10h-10z" fill="#ec5b43"/><path d="m100 140h10v10h-10z" fill="#ec5b43"/><path d="m110 140h20v10h-20z" fill="#fff"/><path d="m130 140h20v10h-20z"/><path d="m150 140h10v10h-10z" fill="#ec5b43"/><path d="m170 140h10v10h-10z" fill="#ec5b43"/><path d="m180 140h20v10h-20z" fill="#fff"/><path d="m200 140h20v10h-20z"/><path d="m220 140h10v10h-10z" fill="#ec5b43"/><path d="m70 150h10v10h-10z" fill="#ec5b43"/><path d="m100 150h10v10h-10z" fill="#ec5b43"/><path d="m110 150h20v10h-20z" fill="#fff"/><path d="m130 150h20v10h-20z"/><path d="m150 150h10v10h-10z" fill="#ec5b43"/><path d="m170 150h10v10h-10z" fill="#ec5b43"/><path d="m180 150h20v10h-20z" fill="#fff"/><path d="m200 150h20v10h-20z"/><path d="m220 150h10v10h-10z" fill="#ec5b43"/><path d="m100 160h60v10h-60z" fill="#ec5b43"/><path d="m170 160h60v10h-60z" fill="#ec5b43"/></svg>