<?xml version="1.0" encoding="UTF-8"?><svg id="b" xmlns="http://www.w3.org/2000/svg" viewBox="0 0 198.24 340.16"><defs><style>.f{stroke:#f2f2f2;}.f,.g,.h,.i{fill:none;stroke-miterlimit:10;}.f,.g,.i{stroke-width:.5px;}.g,.h{stroke:red;}.i{stroke:#999;}.j{fill:#999;}.k{fill:#ccc;}.l{fill:red;opacity:.22;}.m{fill:#140016;}.n{fill:#f2f2f2;}</style></defs><g id="c"><g id="d"><rect class="n" width="198.24" height="340.16" rx="1.34" ry="1.34"/><g id="e"><path class="m" d="m6.93,333.51c-1.16,0-2.09-.87-2.09-1.95V8.6c0-1.08.94-1.95,2.09-1.95h184.39c1.16,0,2.09.87,2.09,1.95v322.96c0,1.08-.94,1.95-2.09,1.95"/></g><path class="k" d="m95.81,28.67h-.87l-3.13-8.05h-.48c-.11,0-.2-.01-.24-.03-.05-.02-.09-.06-.12-.11-.03-.05-.05-.11-.05-.17s.02-.11.05-.17c.03-.05.07-.09.12-.11.05-.02.13-.03.24-.03h2.32c.12,0,.2.01.25.03.05.02.09.06.12.11.03.05.05.11.05.17s-.02.11-.05.17c-.03.05-.08.09-.12.11-.05.02-.13.03-.24.03h-1.19l2.89,7.42h.04l2.85-7.42h-1.19c-.12,0-.2-.01-.25-.03-.05-.02-.09-.06-.12-.11-.03-.05-.05-.11-.05-.17s.02-.11.05-.17c.03-.05.08-.09.12-.11.05-.02.13-.03.25-.03h2.31c.12,0,.2.01.25.03.05.02.09.06.12.11.03.05.05.11.05.17s-.02.11-.05.17c-.03.05-.08.09-.12.11-.05.02-.13.03-.25.03h-.47l-3.08,8.05Z"/><path class="k" d="m104.77,20.62v7.42h2.13c.15,0,.25.03.32.08.06.06.1.13.1.23s-.03.16-.1.22-.17.09-.32.09h-4.89c-.15,0-.25-.03-.32-.09s-.1-.13-.1-.22c0-.09.03-.17.1-.23.06-.06.17-.08.32-.08h2.13v-7.42h-2.13c-.15,0-.25-.03-.32-.08-.06-.06-.1-.13-.1-.23s.03-.17.1-.23c.06-.06.17-.08.32-.08h4.89c.15,0,.25.03.32.08.06.06.1.13.1.23s-.03.17-.1.23c-.06.06-.17.08-.32.08h-2.13Z"/><polygon class="h" points="99.58 149.94 30.27 149.94 64.93 90.72 99.58 149.94"/><polygon class="h" points="107.9 249.78 38.59 249.78 73.24 190.55 107.9 249.78"/><polygon class="h" points="97.72 149.94 167.03 149.94 132.37 90.72 97.72 149.94"/><polygon class="l" points="64.93 91.02 64.93 149.64 30.27 149.64 64.93 91.02"/><line class="g" x1="64.93" y1="91.02" x2="64.93" y2="149.64"/><polygon class="l" points="133.31 90.38 133.31 149 167.97 149 133.31 90.38"/><line class="g" x1="132.37" y1="91.32" x2="132.37" y2="149.94"/><polygon class="h" points="89.4 249.78 158.71 249.78 124.06 190.55 89.4 249.78"/><polygon class="l" points="124.06 190.85 124.06 249.48 89.4 249.48 124.06 190.85"/><line class="g" x1="124.06" y1="190.85" x2="124.06" y2="249.48"/><polygon class="l" points="73.24 190.85 73.24 249.48 107.9 249.48 73.24 190.85"/><line class="g" x1="73.24" y1="190.85" x2="73.24" y2="249.48"/><line class="g" x1="129.85" y1="140.63" x2="129.91" y2="180.7"/><polygon class="l" points="95.72 199.46 130.85 179.76 130.76 140.14 95.72 199.46"/><polygon class="h" points="95.2 199.86 164.51 199.86 129.85 140.63 95.2 199.86"/><line class="g" x1="129.91" y1="180.7" x2="164.51" y2="199.86"/><line class="g" x1="129.91" y1="180.7" x2="95.2" y2="199.86"/><line class="g" x1="67.45" y1="140.65" x2="67.39" y2="180.72"/><polygon class="l" points="101.58 199.48 67.39 180.72 67.48 141.1 101.58 199.48"/><polygon class="h" points="102.1 199.88 32.79 199.88 67.45 140.65 102.1 199.88"/><line class="g" x1="67.39" y1="180.72" x2="32.79" y2="199.88"/><line class="g" x1="67.39" y1="180.72" x2="102.1" y2="199.88"/><rect class="f" x="7.73" y="9.5" width="182.78" height="321.15" rx="1.34" ry="1.34"/><path class="j" d="m98.38,304.9v1.18h.42c.06,0,.09.01.12.03.02.02.03.05.03.08,0,.03-.01.06-.03.08-.02.02-.06.03-.12.03h-.94c-.05,0-.09-.01-.12-.03-.02-.02-.03-.05-.03-.08,0-.03.01-.06.03-.08.02-.02.06-.03.12-.03h.3v-2.69h-.3c-.05,0-.09-.01-.12-.03-.02-.02-.03-.05-.03-.08s.01-.06.03-.08c.02-.02.06-.03.12-.03h1.36c.28,0,.52.09.71.27.19.18.29.38.29.6,0,.16-.06.31-.18.45-.12.14-.32.26-.6.36.16.11.3.24.41.38.11.14.3.43.55.86h.17c.05,0,.09.01.12.03.02.02.03.05.03.08,0,.03-.01.06-.03.08-.02.02-.06.03-.12.03h-.3c-.28-.5-.49-.83-.65-1-.15-.17-.33-.3-.53-.4h-.72Zm0-.23h.61c.2,0,.38-.04.54-.11.16-.07.28-.16.35-.25s.11-.19.11-.3c0-.15-.08-.29-.23-.43-.15-.14-.33-.2-.55-.2h-.83v1.29Z"/><path class="j" d="m92.96,312.33h-1.48l-.3.82h.43c.05,0,.09.01.12.03.02.02.03.05.03.08,0,.03-.01.06-.03.08-.02.02-.06.03-.12.03h-.84c-.05,0-.09-.01-.12-.03-.02-.02-.03-.05-.03-.08,0-.03.01-.06.03-.08.02-.02.06-.03.12-.03h.17l1-2.69h-.67c-.05,0-.09-.01-.12-.03-.02-.02-.03-.05-.03-.08s.01-.06.03-.08c.02-.02.06-.03.12-.03h1.13l1.1,2.91h.17c.05,0,.09.01.12.03.02.02.03.05.03.08,0,.03-.01.06-.03.08-.02.02-.06.03-.12.03h-.84c-.06,0-.09-.01-.12-.03-.02-.02-.03-.05-.03-.08,0-.03.01-.06.03-.08.02-.02.06-.03.12-.03h.43l-.31-.82Zm-.09-.23l-.62-1.64h-.08l-.6,1.64h1.31Z"/><path class="j" d="m107.62,311.89c0,.3-.06.58-.18.84-.12.26-.29.46-.5.6-.21.14-.44.21-.69.21-.36,0-.68-.15-.96-.46s-.41-.7-.41-1.19.14-.88.41-1.19c.28-.31.6-.46.96-.46.25,0,.47.07.69.21.21.14.38.34.5.6.12.26.18.53.18.84Zm-.23,0c0-.37-.11-.7-.32-.99-.21-.29-.49-.44-.83-.44-.32,0-.59.14-.81.42-.22.28-.34.61-.34,1.01,0,.42.12.76.35,1.03.24.27.5.4.8.4.34,0,.61-.15.83-.44.21-.29.32-.62.32-.99Z"/><path class="j" d="m99.23,317.24v2.69h.58c.05,0,.09.01.12.03.02.02.03.05.03.08,0,.03-.01.06-.03.08-.02.02-.06.03-.12.03h-1.4c-.05,0-.09-.01-.12-.03-.02-.02-.03-.05-.03-.08,0-.03.01-.06.03-.08.02-.02.06-.03.12-.03h.58v-2.69h-.92v.78c0,.06-.01.09-.03.12-.02.02-.05.03-.08.03-.03,0-.06-.01-.08-.03-.02-.02-.03-.06-.03-.12v-1.01h2.52v1.01c0,.06-.01.09-.03.12-.02.02-.05.03-.08.03s-.06-.01-.08-.03c-.02-.02-.03-.06-.03-.12v-.78h-.92Z"/><path class="i" d="m106.25,309.6c-.74-2.52-2.78-4.48-5.33-5.11"/><path class="i" d="m100.92,318.88c2.37-.59,4.28-2.31,5.14-4.55"/><path class="i" d="m92.22,314.33c.84,2.2,2.7,3.89,4.99,4.51"/><path class="i" d="m97.45,304.64c-2.54.67-4.55,2.65-5.25,5.18"/></g></g></svg>