<svg height="320" shape-rendering="crispEdges" viewBox="0 0 320 320" width="320" xmlns="http://www.w3.org/2000/svg"><rect fill="#e1d7d5" height="100%" width="100%"/><g fill="#b87b11"><path d="m90 210h140v10h-140z"/><path d="m90 220h140v10h-140z"/><path d="m90 230h140v10h-140z"/><path d="m90 240h140v10h-140z"/><path d="m90 250h20v10h-20z"/><path d="m120 250h110v10h-110z"/><path d="m90 260h20v10h-20z"/><path d="m120 260h110v10h-110z"/><path d="m90 270h20v10h-20z"/><path d="m120 270h110v10h-110z"/><path d="m90 280h20v10h-20z"/><path d="m120 280h110v10h-110z"/><path d="m90 290h20v10h-20z"/><path d="m120 290h110v10h-110z"/><path d="m90 300h20v10h-20z"/><path d="m120 300h110v10h-110z"/><path d="m90 310h20v10h-20z"/><path d="m120 310h110v10h-110z"/></g><path d="m140 230h10v10h-10z" fill="#c4da53"/><path d="m160 230h10v10h-10z" fill="#c4da53"/><path d="m130 250h20v10h-20z" fill="#c4da53"/><path d="m160 250h20v10h-20z" fill="#c4da53"/><path d="m130 270h20v10h-20z" fill="#c4da53"/><path d="m160 270h20v10h-20z" fill="#c4da53"/><path d="m130 290h20v10h-20z" fill="#c4da53"/><path d="m160 290h10v10h-10z" fill="#c4da53"/><path d="m140 300h10v10h-10z" fill="#c4da53"/><path d="m160 30h30v10h-30z" fill="#4b4949"/><path d="m150 40h10v10h-10z" fill="#4b4949"/><path d="m160 40h30v10h-30z" fill="#62616d"/><path d="m190 40h20v10h-20z" fill="#4b4949"/><path d="m140 50h10v10h-10z" fill="#4b4949"/><path d="m150 50h10v10h-10z" fill="#62616d"/><path d="m160 50h10v10h-10z" fill="#4b4949"/><path d="m170 50h40v10h-40z" fill="#62616d"/><path d="m210 50h20v10h-20z" fill="#4b4949"/><path d="m130 60h20v10h-20z" fill="#4b4949"/><path d="m150 60h20v10h-20z" fill="#62616d"/><path d="m170 60h10v10h-10z" fill="#4b4949"/><path d="m180 60h50v10h-50z" fill="#62616d"/><path d="m230 60h20v10h-20z" fill="#4b4949"/><path d="m80 70h50v10h-50z" fill="#4b4949"/><path d="m130 70h50v10h-50z" fill="#62616d"/><path d="m180 70h10v10h-10z" fill="#4b4949"/><path d="m190 70h60v10h-60z" fill="#62616d"/><path d="m250 70h10v10h-10z" fill="#4b4949"/><path d="m70 80h10v10h-10z" fill="#4b4949"/><path d="m80 80h180v10h-180z" fill="#62616d"/><path d="m260 80h10v10h-10z" fill="#4b4949"/><path d="m60 90h10v10h-10z" fill="#4b4949"/><path d="m70 90h50v10h-50z" fill="#62616d"/><path d="m120 90h40v10h-40z" fill="#4b4949"/><path d="m160 90h100v10h-100z" fill="#62616d"/><path d="m260 90h10v10h-10z" fill="#4b4949"/><path d="m60 100h10v10h-10z" fill="#4b4949"/><path d="m70 100h90v10h-90z" fill="#62616d"/><path d="m160 100h10v10h-10z" fill="#4b4949"/><path d="m170 100h90v10h-90z" fill="#62616d"/><path d="m260 100h10v10h-10z" fill="#4b4949"/><path d="m60 110h10v10h-10z" fill="#4b4949"/><path d="m70 110h20v10h-20z" fill="#62616d"/><path d="m90 110h10v10h-10z" fill="#4b4949"/><path d="m100 110h160v10h-160z" fill="#62616d"/><path d="m260 110h10v10h-10z" fill="#4b4949"/><path d="m60 120h10v10h-10z" fill="#4b4949"/><path d="m70 120h70v10h-70z" fill="#62616d"/><path d="m140 120h20v10h-20z" fill="#4b4949"/><path d="m160 120h10v10h-10z" fill="#62616d"/><path d="m170 120h70v10h-70z" fill="#4b4949"/><path d="m240 120h20v10h-20z" fill="#62616d"/><path d="m260 120h10v10h-10z" fill="#4b4949"/><path d="m60 130h10v10h-10z" fill="#4b4949"/><path d="m70 130h50v10h-50z" fill="#62616d"/><path d="m120 130h20v10h-20z" fill="#4b4949"/><path d="m140 130h120v10h-120z" fill="#62616d"/><path d="m260 130h10v10h-10z" fill="#4b4949"/><path d="m50 140h10v10h-10z" fill="#4b4949"/><path d="m60 140h200v10h-200z" fill="#62616d"/><path d="m260 140h10v10h-10z" fill="#4b4949"/><path d="m50 150h10v10h-10z" fill="#4b4949"/><path d="m60 150h40v10h-40z" fill="#62616d"/><path d="m100 150h10v10h-10z" fill="#4b4949"/><path d="m110 150h140v10h-140z" fill="#62616d"/><path d="m250 150h20v10h-20z" fill="#4b4949"/><path d="m50 160h10v10h-10z" fill="#4b4949"/><path d="m60 160h40v10h-40z" fill="#62616d"/><path d="m100 160h10v10h-10z" fill="#4b4949"/><path d="m110 160h80v10h-80z" fill="#62616d"/><path d="m190 160h20v10h-20z" fill="#4b4949"/><path d="m210 160h10v10h-10z" fill="#62616d"/><path d="m220 160h30v10h-30z" fill="#4b4949"/><path d="m60 170h10v10h-10z" fill="#4b4949"/><path d="m70 170h40v10h-40z" fill="#62616d"/><path d="m110 170h10v10h-10z" fill="#4b4949"/><path d="m120 170h40v10h-40z" fill="#62616d"/><path d="m160 170h30v10h-30z" fill="#4b4949"/><path d="m190 170h20v10h-20z" fill="#62616d"/><path d="m210 170h10v10h-10z" fill="#4b4949"/><path d="m220 170h20v10h-20z" fill="#62616d"/><path d="m240 170h10v10h-10z" fill="#4b4949"/><path d="m70 180h10v10h-10z" fill="#4b4949"/><path d="m80 180h50v10h-50z" fill="#62616d"/><path d="m130 180h30v10h-30z" fill="#4b4949"/><path d="m160 180h40v10h-40z" fill="#62616d"/><path d="m200 180h10v10h-10z" fill="#4b4949"/><path d="m210 180h20v10h-20z" fill="#62616d"/><path d="m230 180h10v10h-10z" fill="#4b4949"/><path d="m80 190h50v10h-50z" fill="#4b4949"/><path d="m130 190h40v10h-40z" fill="#62616d"/><path d="m170 190h30v10h-30z" fill="#4b4949"/><path d="m200 190h30v10h-30z" fill="#62616d"/><path d="m230 190h10v10h-10z" fill="#4b4949"/><path d="m90 200h10v10h-10z" fill="#4b4949"/><path d="m100 200h120v10h-120z" fill="#62616d"/><path d="m220 200h10v10h-10z" fill="#4b4949"/><path d="m100 110h60v10h-60z" fill="#b9185c"/><path d="m170 110h60v10h-60z" fill="#b9185c"/><path d="m100 120h10v10h-10z" fill="#b9185c"/><path d="m110 120h20v10h-20z" fill="#fff"/><path d="m130 120h20v10h-20z"/><path d="m150 120h10v10h-10z" fill="#b9185c"/><path d="m170 120h10v10h-10z" fill="#b9185c"/><path d="m180 120h20v10h-20z" fill="#fff"/><path d="m200 120h20v10h-20z"/><path d="m220 120h10v10h-10z" fill="#b9185c"/><path d="m70 130h40v10h-40z" fill="#b9185c"/><path d="m110 130h20v10h-20z" fill="#fff"/><path d="m130 130h20v10h-20z"/><path d="m150 130h30v10h-30z" fill="#b9185c"/><path d="m180 130h20v10h-20z" fill="#fff"/><path d="m200 130h20v10h-20z"/><path d="m220 130h10v10h-10z" fill="#b9185c"/><path d="m70 140h10v10h-10z" fill="#b9185c"/><path d="m100 140h10v10h-10z" fill="#b9185c"/><path d="m110 140h20v10h-20z" fill="#fff"/><path d="m130 140h20v10h-20z"/><path d="m150 140h10v10h-10z" fill="#b9185c"/><path d="m170 140h10v10h-10z" fill="#b9185c"/><path d="m180 140h20v10h-20z" fill="#fff"/><path d="m200 140h20v10h-20z"/><path d="m220 140h10v10h-10z" fill="#b9185c"/><path d="m70 150h10v10h-10z" fill="#b9185c"/><path d="m100 150h10v10h-10z" fill="#b9185c"/><path d="m110 150h20v10h-20z" fill="#fff"/><path d="m130 150h20v10h-20z"/><path d="m150 150h10v10h-10z" fill="#b9185c"/><path d="m170 150h10v10h-10z" fill="#b9185c"/><path d="m180 150h20v10h-20z" fill="#fff"/><path d="m200 150h20v10h-20z"/><path d="m220 150h10v10h-10z" fill="#b9185c"/><path d="m100 160h60v10h-60z" fill="#b9185c"/><path d="m170 160h60v10h-60z" fill="#b9185c"/></svg>