<?xml version="1.0" encoding="UTF-8"?><svg xmlns="http://www.w3.org/2000/svg" viewBox="0 0 198.07 340.16"><defs><style>.f,.g,.h,.i,.j{fill:none;stroke-miterlimit:10;}.f,.h{stroke:lime;}.k{fill:#0a0b00;}.g{opacity:.78;}.g,.i{stroke:#f2f2f2;}.l{fill:lime;opacity:.33;}.m{mix-blend-mode:lighten;}.n{isolation:isolate;}.h,.i,.j{stroke-width:.5px;}.j{stroke:#999;}.o{fill:#999;}.p{fill:#ccc;}.q{fill:#f2f2f2;}</style></defs><g class="n"><g id="b"><g id="c"><g id="d"><rect class="q" width="198.07" height="340.16" rx="1.34" ry="1.34"/><g id="e"><path class="k" d="m6.92,333.51c-1.16,0-2.09-.87-2.09-1.95V8.6c0-1.08.94-1.95,2.09-1.95h184.23c1.16,0,2.09.87,2.09,1.95v322.96c0,1.08-.94,1.95-2.09,1.95"/></g><rect class="i" x="7.72" y="9.5" width="182.62" height="321.15" rx="1.34" ry="1.34"/><path class="p" d="m90.4,28.66h-.87l-3.13-8.04h-.48c-.11,0-.2-.01-.24-.03-.05-.02-.09-.06-.12-.11-.03-.05-.05-.11-.05-.17s.02-.11.05-.17c.03-.05.07-.09.12-.11.05-.02.13-.03.24-.03h2.32c.12,0,.2.01.25.03.05.02.09.06.12.11.03.05.05.11.05.17s-.02.11-.05.17c-.03.05-.08.09-.12.11-.05.02-.13.03-.24.03h-1.19l2.89,7.42h.04l2.85-7.42h-1.18c-.12,0-.2-.01-.25-.03-.05-.02-.09-.06-.12-.11-.03-.05-.05-.11-.05-.17s.02-.11.05-.17c.03-.05.08-.09.12-.11.05-.02.13-.03.25-.03h2.31c.12,0,.2.01.25.03.05.02.09.06.12.11.03.05.05.11.05.17s-.02.11-.05.17c-.03.05-.08.09-.12.11-.05.02-.13.03-.25.03h-.47l-3.08,8.04Z"/><path class="p" d="m99.35,20.62v7.42h2.13c.15,0,.25.03.32.08.06.06.1.13.1.23s-.03.16-.1.22-.17.09-.32.09h-4.89c-.15,0-.25-.03-.32-.09s-.1-.13-.1-.22c0-.09.03-.17.1-.23.06-.06.17-.08.32-.08h2.13v-7.42h-2.13c-.15,0-.25-.03-.32-.08-.06-.06-.1-.13-.1-.23s.03-.17.1-.23c.06-.06.17-.08.32-.08h4.89c.15,0,.25.03.32.08.06.06.1.13.1.23s-.03.17-.1.23c-.06.06-.17.08-.32.08h-2.13Z"/><path class="p" d="m108.45,20.62v7.42h2.13c.15,0,.25.03.32.08.06.06.1.13.1.23s-.03.16-.1.22-.17.09-.32.09h-4.89c-.15,0-.25-.03-.32-.09s-.1-.13-.1-.22c0-.09.03-.17.1-.23.06-.06.17-.08.32-.08h2.13v-7.42h-2.13c-.15,0-.25-.03-.32-.08-.06-.06-.1-.13-.1-.23s.03-.17.1-.23c.06-.06.17-.08.32-.08h4.89c.15,0,.25.03.32.08.06.06.1.13.1.23s-.03.17-.1.23c-.06.06-.17.08-.32.08h-2.13Z"/><g class="m"><line class="h" x1="139.46" y1="205.98" x2="139.51" y2="161"/><polygon class="l" points="113.55 161.31 139.44 161.31 139.44 205.65 113.55 161.31"/><polygon class="f" points="113.15 161 165.78 161 139.46 205.98 113.15 161"/><line class="g" x1="163.17" y1="183.49" x2="115.75" y2="183.49"/><polygon class="l" points="124.86 101.12 98.9 115.37 98.97 145.46 124.86 101.12"/><polygon class="f" points="125.27 100.97 72.63 100.97 98.95 145.95 125.27 100.97"/><line class="g" x1="122.66" y1="123.16" x2="75.24" y2="123.16"/><line class="h" x1="98.95" y1="145.8" x2="98.9" y2="115.37"/><line class="h" x1="98.9" y1="115.37" x2="72.63" y2="100.82"/><line class="h" x1="98.9" y1="115.37" x2="125.27" y2="100.82"/><polygon class="l" points="125.86 194.43 151.82 208.68 151.75 238.77 125.86 194.43"/><polygon class="f" points="125.46 194.28 178.09 194.28 151.77 239.26 125.46 194.28"/><line class="g" x1="128.06" y1="216.47" x2="175.48" y2="216.47"/><line class="h" x1="151.77" y1="239.11" x2="151.82" y2="208.68"/><line class="h" x1="151.82" y1="208.68" x2="178.09" y2="194.13"/><line class="h" x1="151.82" y1="208.68" x2="125.46" y2="194.13"/><line class="h" x1="58.43" y1="205.98" x2="58.39" y2="161"/><polygon class="l" points="84.35 161.31 58.45 161.31 58.45 205.65 84.35 161.31"/><polygon class="f" points="84.75 161 32.11 161 58.43 205.98 84.75 161"/><line class="g" x1="34.72" y1="183.49" x2="82.14" y2="183.49"/><line class="h" x1="76.15" y1="169.37" x2="76.11" y2="124.39"/><polygon class="l" points="102.07 124.69 76.18 124.69 76.18 169.03 102.07 124.69"/><polygon class="f" points="102.47 124.39 49.84 124.39 76.15 169.37 102.47 124.39"/><line class="g" x1="52.44" y1="146.88" x2="99.86" y2="146.88"/><line class="h" x1="121.74" y1="169.37" x2="121.79" y2="124.39"/><polygon class="l" points="95.82 124.69 121.72 124.69 121.72 169.03 95.82 124.69"/><polygon class="f" points="95.42 124.39 148.06 124.39 121.74 169.37 95.42 124.39"/><line class="g" x1="145.45" y1="146.88" x2="98.03" y2="146.88"/><polygon class="l" points="20.21 194.51 46.17 208.75 46.1 238.85 20.21 194.51"/><polygon class="f" points="19.8 194.36 72.44 194.36 46.12 239.34 19.8 194.36"/><line class="g" x1="22.41" y1="216.55" x2="69.83" y2="216.55"/><line class="h" x1="46.12" y1="239.18" x2="46.17" y2="208.75"/><line class="h" x1="46.17" y1="208.75" x2="72.44" y2="194.2"/><line class="h" x1="46.17" y1="208.75" x2="19.8" y2="194.2"/></g><path class="o" d="m98.21,304.9v1.18h.42c.06,0,.09.01.12.03.02.02.03.05.03.08,0,.03-.01.06-.03.08-.02.02-.06.03-.12.03h-.94c-.05,0-.09-.01-.12-.03-.02-.02-.03-.05-.03-.08,0-.03.01-.06.03-.08.02-.02.06-.03.12-.03h.3v-2.69h-.3c-.05,0-.09-.01-.12-.03-.02-.02-.03-.05-.03-.08s.01-.06.03-.08c.02-.02.06-.03.12-.03h1.36c.28,0,.52.09.71.27.19.18.29.38.29.6,0,.16-.06.31-.18.45-.12.14-.32.26-.6.36.16.11.3.24.41.38.11.14.3.43.55.86h.17c.05,0,.09.01.12.03.02.02.03.05.03.08,0,.03-.01.06-.03.08-.02.02-.06.03-.12.03h-.3c-.28-.5-.49-.83-.65-1-.15-.17-.33-.3-.53-.4h-.72Zm0-.23h.61c.2,0,.38-.04.54-.11.16-.07.28-.16.35-.25s.11-.19.11-.3c0-.15-.08-.29-.23-.43-.15-.14-.33-.2-.55-.2h-.83v1.29Z"/><path class="o" d="m92.79,312.33h-1.48l-.3.82h.43c.05,0,.09.01.12.03.02.02.03.05.03.08,0,.03-.01.06-.03.08-.02.02-.06.03-.12.03h-.84c-.05,0-.09-.01-.12-.03-.02-.02-.03-.05-.03-.08,0-.03.01-.06.03-.08.02-.02.06-.03.12-.03h.17l1-2.69h-.67c-.05,0-.09-.01-.12-.03-.02-.02-.03-.05-.03-.08s.01-.06.03-.08c.02-.02.06-.03.12-.03h1.13l1.1,2.91h.17c.05,0,.09.01.12.03.02.02.03.05.03.08,0,.03-.01.06-.03.08-.02.02-.06.03-.12.03h-.84c-.06,0-.09-.01-.12-.03-.02-.02-.03-.05-.03-.08,0-.03.01-.06.03-.08.02-.02.06-.03.12-.03h.43l-.31-.82Zm-.09-.23l-.62-1.64h-.08l-.6,1.64h1.31Z"/><path class="o" d="m107.45,311.89c0,.3-.06.58-.18.84-.12.26-.29.46-.5.6-.21.14-.44.21-.69.21-.36,0-.68-.15-.96-.46s-.41-.7-.41-1.19.14-.88.41-1.19c.28-.31.6-.46.96-.46.25,0,.47.07.69.21.21.14.38.34.5.6.12.26.18.53.18.84Zm-.23,0c0-.37-.11-.7-.32-.99-.21-.29-.49-.44-.83-.44-.32,0-.59.14-.81.42-.22.28-.34.61-.34,1.01,0,.42.12.76.35,1.03.24.27.5.4.8.4.34,0,.61-.15.83-.44.21-.29.32-.62.32-.99Z"/><path class="o" d="m99.06,317.24v2.69h.58c.05,0,.09.01.12.03.02.02.03.05.03.08,0,.03-.01.06-.03.08-.02.02-.06.03-.12.03h-1.4c-.05,0-.09-.01-.12-.03-.02-.02-.03-.05-.03-.08,0-.03.01-.06.03-.08.02-.02.06-.03.12-.03h.58v-2.69h-.92v.78c0,.06-.01.09-.03.12-.02.02-.05.03-.08.03-.03,0-.06-.01-.08-.03-.02-.02-.03-.06-.03-.12v-1.01h2.52v1.01c0,.06-.01.09-.03.12-.02.02-.05.03-.08.03s-.06-.01-.08-.03c-.02-.02-.03-.06-.03-.12v-.78h-.92Z"/><path class="j" d="m106.08,309.6c-.74-2.52-2.78-4.48-5.33-5.11"/><path class="j" d="m100.75,318.88c2.37-.59,4.28-2.31,5.14-4.55"/><path class="j" d="m92.05,314.33c.84,2.2,2.7,3.89,4.99,4.51"/><path class="j" d="m97.29,304.64c-2.54.67-4.55,2.65-5.25,5.18"/></g></g></g></g></svg>