<svg xmlns="http://www.w3.org/2000/svg" viewBox="0 -0.5 50 50" shape-rendering="crispEdges">
	<title>Bitcoin Pussies #050</title>
	<desc>Bitcoin Pussies are 69 uniquely drawn and inscribed cats on Bitcoin</desc>
	<desc xmlns:meow="https://bitcoinpussies.com/">
		<meow:traits>
			<meow:Skin>Grey, White</meow:Skin>
			<meow:Eyes>Open</meow:Eyes>
			<meow:Gear>None</meow:Gear>
			<meow:Message>Play?</meow:Message>
		</meow:traits>
	</desc>
	<path stroke="#80a8ee" d="M0 0h50M0 1h50M0 2h50M0 3h50M0 4h50M0 5h50M0 6h50M0 7h50M0 8h50M0 9h50M0 10h50M0 11h50M0 12h50M0 13h50M0 14h14M19 14h12M36 14h14M0 15h14M20 15h10M36 15h14M0 16h14M36 16h14M0 17h14M36 17h14M0 18h14M36 18h14M0 19h14M36 19h14M0 20h15M35 20h15M0 21h15M35 21h15M0 22h14M36 22h14M0 23h14M36 23h14M0 24h13M37 24h13M0 25h12M38 25h12M0 26h13M37 26h13M0 27h12M38 27h12M0 28h13M37 28h13M0 29h14M36 29h14M0 30h15M36 30h14M0 31h11M12 31h5M36 31h14M0 32h10M13 32h6M35 32h15M0 33h10M15 33h3M34 33h16M0 34h10M16 34h2M33 34h17M0 35h11M33 35h17M0 36h12M33 36h17M0 37h15M33 37h17M0 38h17M32 38h18M0 39h19M31 39h19M0 40h50M0 41h50M0 42h50M0 43h50M0 44h50M0 45h50M0 46h50M0 47h50M0 48h50M0 49h50" />
	<path stroke="#000000" d="M14 14h5M31 14h5M14 15h1M19 15h1M30 15h1M35 15h1M14 16h1M20 16h10M35 16h1M14 17h1M18 17h2M30 17h2M35 17h1M14 18h1M17 18h1M32 18h1M35 18h1M14 19h1M16 19h1M33 19h1M35 19h1M15 20h1M34 20h1M15 21h1M34 21h1M14 22h1M19 22h3M29 22h3M35 22h1M14 23h1M18 23h1M22 23h1M28 23h1M32 23h1M35 23h1M13 24h1M36 24h1M12 25h1M24 25h1M26 25h1M37 25h1M13 26h1M25 26h1M36 26h1M12 27h1M37 27h1M13 28h1M36 28h1M14 29h1M33 29h3M15 30h2M32 30h1M35 30h1M11 31h1M17 31h3M30 31h2M35 31h1M10 32h1M12 32h1M19 32h1M30 32h1M34 32h1M10 33h1M13 33h2M18 33h1M33 33h1M10 34h1M15 34h1M18 34h1M32 34h1M11 35h1M16 35h2M32 35h1M12 36h3M17 36h1M32 36h1M15 37h3M32 37h1M17 38h2M20 38h1M22 38h1M27 38h1M29 38h1M31 38h1M19 39h12" />
	<path stroke="#7b7b7b" d="M15 15h4M31 15h4M15 16h5M30 16h5M15 17h1M20 17h4M26 17h4M34 17h1M15 18h1M18 18h6M26 18h6M34 18h1M15 19h1M17 19h7M26 19h7M34 19h1M16 20h8M26 20h8M16 21h8M26 21h8M15 22h4M22 22h1M27 22h2M32 22h3M15 23h3M33 23h2M14 24h5M32 24h4M13 25h5M33 25h4M14 26h4M33 26h3M20 31h1M11 32h1M20 32h1M11 33h2M19 33h2M11 34h4M19 34h1M12 35h4M18 35h1M31 35h1M15 36h2M21 38h1M28 38h1" />
	<path stroke="#ffc4c6" d="M16 17h2M32 17h2M16 18h1M33 18h1" />
	<path stroke="#ffffff" d="M24 17h2M24 18h2M24 19h2M24 20h2M24 21h2M23 22h4M20 23h1M23 23h5M30 23h1M22 24h7M22 25h2M27 25h2M20 26h5M26 26h5M13 27h24M14 28h22M15 29h18M17 30h15M33 30h2M21 31h9M32 31h3M21 32h9M31 32h3M21 33h12M20 34h12M19 35h12M18 36h14M18 37h14M19 38h1M23 38h4M30 38h1" />
	<path stroke="#deab00" d="M19 23h1M21 23h1M29 23h1M31 23h1M19 24h3M29 24h3" />
	<path stroke="#ffb0b2" d="M18 25h1M32 25h1M18 26h2M31 26h2" />
	<path stroke="#f6cb49" d="M19 25h3M29 25h3" />
	<path stroke="#ffb790" d="M25 25h1" />
</svg>