<?xml version="1.0" encoding="UTF-8"?><svg id="b" xmlns="http://www.w3.org/2000/svg" viewBox="0 0 198.43 340.16"><defs><style>.g{stroke:#f2f2f2;}.g,.h,.i,.j{fill:none;stroke-miterlimit:10;}.g,.h,.j{stroke-width:.5px;}.h,.i{stroke:red;}.j{stroke:#999;}.k{fill:#999;}.l{fill:red;opacity:.22;}.m{fill:#140016;}.n{fill:#f2f2f2;}</style></defs><g id="c"><g id="d"><rect class="n" width="198.43" height="340.16" rx="1.34" ry="1.34"/><g id="e"><path class="m" d="m6.93,333.51c-1.16,0-2.1-.87-2.1-1.95V8.6c0-1.08.94-1.95,2.1-1.95h184.56c1.16,0,2.1.87,2.1,1.95v322.96c0,1.08-.94,1.95-2.1,1.95"/></g><path class="n" d="m99.77,28.68h-.87l-3.14-8.05h-.48c-.11,0-.2-.01-.25-.03-.05-.02-.09-.06-.12-.11-.03-.05-.05-.11-.05-.17s.02-.12.05-.17.07-.09.12-.11c.05-.02.13-.03.25-.03h2.32c.12,0,.2.01.25.03s.09.06.12.11.05.11.05.17-.02.11-.05.17c-.04.05-.08.09-.12.11-.05.02-.13.03-.24.03h-1.19l2.89,7.43h.04l2.86-7.43h-1.19c-.12,0-.2-.01-.25-.03-.05-.02-.09-.06-.12-.11-.03-.05-.05-.11-.05-.17s.02-.12.05-.17c.04-.05.08-.09.12-.11.05-.02.13-.03.25-.03h2.31c.12,0,.2.01.25.03.05.02.09.06.12.11s.05.11.05.17-.02.11-.05.17c-.03.05-.08.09-.12.11-.05.02-.13.03-.25.03h-.47l-3.08,8.05Z"/><rect class="g" x="7.74" y="9.5" width="182.95" height="321.15" rx="1.34" ry="1.34"/><g id="f"><line class="i" x1="71.6" y1="79.5" x2="71.6" y2="144.04"/><polyline class="l" points="71.6 144.04 71.6 79.5 33.84 144.04"/><line class="i" x1="126.83" y1="79.19" x2="126.83" y2="143.73"/><polyline class="l" points="126.83 143.73 126.83 79.19 164.59 143.73"/><polygon class="i" points="109.36 143.73 33.84 143.73 71.6 79.19 109.36 143.73"/><polygon class="i" points="164.59 143.73 89.07 143.73 126.83 79.19 164.59 143.73"/><polygon class="i" points="119.19 260.57 43.66 260.57 81.42 196.02 119.19 260.57"/><polygon class="i" points="154.63 260.57 79.1 260.57 116.87 196.02 154.63 260.57"/><line class="i" x1="116.87" y1="195.84" x2="116.87" y2="260.39"/><polyline class="l" points="116.87 260.39 116.87 195.84 154.63 260.39"/><line class="i" x1="81.42" y1="196.43" x2="81.42" y2="260.97"/><polyline class="l" points="81.42 260.97 81.42 196.43 43.66 260.97"/><line class="h" x1="99.17" y1="132.55" x2="99.1" y2="176.22"/><polygon class="l" points="136.35 196.66 99.1 176.22 99.2 133.04 136.35 196.66"/><polygon class="i" points="136.93 197.1 61.4 197.1 99.17 132.55 136.93 197.1"/><line class="h" x1="99.1" y1="176.22" x2="61.4" y2="197.1"/><line class="h" x1="99.1" y1="176.22" x2="136.93" y2="197.1"/></g><path class="k" d="m98.48,304.9v1.18h.42c.06,0,.09.01.12.03.02.02.03.05.03.08,0,.03-.01.06-.03.08-.02.02-.06.03-.12.03h-.94c-.05,0-.09-.01-.12-.03-.02-.02-.03-.05-.03-.08,0-.03.01-.06.03-.08.02-.02.06-.03.12-.03h.3v-2.69h-.3c-.05,0-.09-.01-.12-.03-.02-.02-.03-.05-.03-.08s.01-.06.03-.08c.02-.02.06-.03.12-.03h1.36c.28,0,.52.09.71.27.19.18.29.38.29.6,0,.16-.06.31-.18.45-.12.14-.32.26-.6.36.16.11.3.24.41.38.11.14.3.43.55.86h.17c.05,0,.09.01.12.03.02.02.03.05.03.08,0,.03-.01.06-.03.08-.02.02-.06.03-.12.03h-.3c-.28-.5-.49-.83-.65-1-.15-.17-.33-.3-.53-.4h-.72Zm0-.23h.61c.2,0,.38-.04.54-.11.16-.07.28-.16.35-.25s.11-.19.11-.3c0-.15-.08-.29-.23-.43-.15-.14-.33-.2-.55-.2h-.83v1.29Z"/><path class="k" d="m93.05,312.33h-1.48l-.3.82h.43c.05,0,.09.01.12.03.02.02.03.05.03.08,0,.03-.01.06-.03.08-.02.02-.06.03-.12.03h-.84c-.05,0-.09-.01-.12-.03-.02-.02-.03-.05-.03-.08,0-.03.01-.06.03-.08.02-.02.06-.03.12-.03h.17l1-2.69h-.67c-.05,0-.09-.01-.12-.03-.02-.02-.03-.05-.03-.08s.01-.06.03-.08c.02-.02.06-.03.12-.03h1.13l1.1,2.91h.17c.05,0,.09.01.12.03.02.02.03.05.03.08,0,.03-.01.06-.03.08-.02.02-.06.03-.12.03h-.84c-.06,0-.09-.01-.12-.03-.02-.02-.03-.05-.03-.08,0-.03.01-.06.03-.08.02-.02.06-.03.12-.03h.43l-.31-.82Zm-.09-.23l-.62-1.64h-.08l-.6,1.64h1.31Z"/><path class="k" d="m107.72,311.89c0,.3-.06.58-.18.84-.12.26-.29.46-.5.6-.21.14-.44.21-.69.21-.36,0-.68-.15-.96-.46s-.41-.7-.41-1.19.14-.88.41-1.19c.28-.31.6-.46.96-.46.25,0,.47.07.69.21.21.14.38.34.5.6.12.26.18.53.18.84Zm-.23,0c0-.37-.11-.7-.32-.99-.21-.29-.49-.44-.83-.44-.32,0-.59.14-.81.42-.22.28-.34.61-.34,1.01,0,.42.12.76.35,1.03.24.27.5.4.8.4.34,0,.61-.15.83-.44.21-.29.32-.62.32-.99Z"/><path class="k" d="m99.32,317.24v2.69h.58c.05,0,.09.01.12.03.02.02.03.05.03.08,0,.03-.01.06-.03.08-.02.02-.06.03-.12.03h-1.4c-.05,0-.09-.01-.12-.03-.02-.02-.03-.05-.03-.08,0-.03.01-.06.03-.08.02-.02.06-.03.12-.03h.58v-2.69h-.92v.78c0,.06-.01.09-.03.12-.02.02-.05.03-.08.03-.03,0-.06-.01-.08-.03-.02-.02-.03-.06-.03-.12v-1.01h2.52v1.01c0,.06-.01.09-.03.12-.02.02-.05.03-.08.03s-.06-.01-.08-.03c-.02-.02-.03-.06-.03-.12v-.78h-.92Z"/><path class="j" d="m106.34,309.6c-.74-2.52-2.78-4.48-5.33-5.11"/><path class="j" d="m101.02,318.88c2.37-.59,4.28-2.31,5.14-4.55"/><path class="j" d="m92.32,314.33c.84,2.2,2.7,3.89,4.99,4.51"/><path class="j" d="m97.55,304.64c-2.54.67-4.55,2.65-5.25,5.18"/></g></g></svg>