<svg xmlns="http://www.w3.org/2000/svg" width="512" height="512" fill="none"><path fill="#F90" d="M0 0h512v512H0z"/><path fill="#0097D8" d="M84 340h344v160H84z"/><path fill="#2C71A3" d="m388 407 40-32v12l-40 20ZM124 407l-40-32v12l40 20ZM124 430l-40 36v-16l40-20ZM388 430l40 36v-16l-40-20Z"/><g><animateTransform attributeName="transform" dur="0.4s" keyTimes="0;0.5;1" repeatCount="indefinite" type="translate" values="0 0;0 28;0 0"/><path fill="#00B2FF" d="M196 176h120v296H196z"/><path fill="#2C71A3" d="m227 400-31 31v-16l31-15ZM222 336l-26 8v-16l26 8ZM276 347l40 36v-16l-40-20ZM276 324l40-32v12l-40 20Z"/><path fill="#0097D8" d="M196 96h120v80H196z"/><path fill="#00B2FF" d="M250 96h12v36h-12z"><animate attributeName="fill" begin="5s" dur="0.4s" repeatCount="5" values="#00B2FF; #fff; #00B2FF"/></path><circle cx="256" cy="96" r="32" fill="#121212"/><path fill="#121212" d="M196 96h120v56l-21-32-39 20-39-20-21 32V96Z"/><path fill="#121212" fill-rule="evenodd" d="M196 176h120v37.333l-46 8-14-10.666-14 10.666-46-8V176Zm51.333 22.667c0 7.732-6.268 14-14 14s-14-6.268-14-14 6.268-14 14-14 14 6.268 14 14Zm31.334 14c7.732 0 14-6.268 14-14s-6.268-14-14-14-14 6.268-14 14 6.268 14 14 14Z" clip-rule="evenodd"/><path fill="#fff" d="M298.785 326.892 220 313s-6.946 39.392 32.474 46.343c39.421 6.951 46.311-32.451 46.311-32.451Z"/></g></svg>