<svg xmlns="http://www.w3.org/2000/svg" viewBox="0 -0.5 50 50" shape-rendering="crispEdges">
	<title>Bitcoin Pussies #026</title>
	<desc>Bitcoin Pussies are 69 uniquely drawn and inscribed cats on Bitcoin</desc>
	<desc xmlns:meow="https://bitcoinpussies.com/">
		<meow:traits>
			<meow:Skin>Black, White</meow:Skin>
			<meow:Eyes>Open</meow:Eyes>
			<meow:Gear>1195c8112e21131e8cea96f774a30871fe4f3f042d041acbc342193eaf801cbfi0</meow:Gear>
			<meow:Message>Looks like a rare, warm, nice-to-hold ball</meow:Message>
		</meow:traits>
	</desc>
	<path stroke="#ffcf6f" d="M0 0h50M0 1h50M0 2h50M0 3h50M0 4h50M0 5h50M0 6h50M0 7h50M0 8h50M0 9h50M0 10h50M0 11h50M0 12h50M0 13h23M28 13h22M0 14h22M29 14h21M0 15h16M19 15h2M30 15h2M35 15h15M0 16h15M36 16h14M0 17h15M36 17h14M0 18h15M36 18h14M0 19h13M38 19h12M0 20h12M39 20h11M0 21h13M38 21h12M0 22h16M35 22h15M0 23h15M36 23h14M0 24h11M14 24h1M36 24h14M0 25h10M36 25h14M0 26h9M36 26h14M0 27h8M36 27h14M0 28h8M35 28h15M0 29h8M35 29h15M0 30h9M34 30h16M0 31h10M32 31h18M0 32h11M14 32h2M31 32h19M0 33h17M32 33h18M0 34h17M33 34h17M0 35h16M34 35h16M0 36h16M34 36h16M0 37h16M33 37h17M0 38h17M32 38h18M0 39h20M31 39h19M0 40h50M0 41h50M0 42h50M0 43h50M0 44h50M0 45h50M0 46h50M0 47h50M0 48h50M0 49h50" />
	<path stroke="#000000" d="M23 13h5M22 14h1M28 14h1M16 15h3M21 15h1M29 15h1M32 15h3M15 16h1M19 16h2M30 16h2M35 16h1M15 17h1M19 17h1M31 17h1M35 17h1M15 18h1M18 18h1M32 18h1M35 18h1M13 19h5M33 19h5M12 20h1M38 20h1M13 21h25M16 22h1M34 22h1M15 23h1M20 23h2M29 23h2M35 23h1M11 24h3M15 24h1M20 24h2M29 24h2M35 24h1M10 25h1M14 25h2M24 25h3M35 25h1M9 26h1M15 26h1M25 26h1M35 26h1M8 27h1M16 27h1M35 27h1M8 28h1M16 28h1M34 28h1M8 29h1M16 29h2M34 29h1M9 30h1M15 30h1M18 30h1M32 30h2M10 31h1M14 31h2M19 31h1M30 31h2M11 32h3M16 32h1M30 32h1M17 33h1M27 33h1M30 33h2M17 34h11M30 34h3M16 35h1M27 35h1M30 35h1M33 35h1M16 36h1M33 36h1M16 37h17M17 38h3M21 38h1M29 38h1M31 38h1M20 39h11" />
	<path stroke="#ab8a6a" d="M23 14h4M22 15h4M21 16h4M20 17h4M30 17h1M13 20h9" />
	<path stroke="#a38262" d="M27 14h1M26 15h2M25 16h2M24 17h3M22 20h3" />
	<path stroke="#9c7b5b" d="M28 15h1M27 16h3M27 17h3M25 20h13" />
	<path stroke="#ffffff" d="M16 16h3M16 17h1M16 18h1M16 30h1M16 31h1M23 31h4M17 32h1M22 32h6M18 33h1M21 33h6" />
	<path stroke="#2c2c2c" d="M32 16h3M34 17h1M34 18h1M17 22h3M22 22h7M31 22h3M16 23h3M23 23h5M32 23h3M16 24h3M23 24h5M32 24h3M16 25h4M22 25h2M27 25h2M31 25h4M16 26h2M20 26h5M26 26h5M33 26h2M17 27h18M17 28h17M18 29h16M17 30h1M19 30h13M17 31h2M20 31h3M27 31h3M18 32h4M28 32h2M19 33h2M28 33h2M28 34h2M28 35h2M20 38h1M22 38h7M30 38h1" />
	<path stroke="#fabeb0" d="M17 17h2M32 17h2M17 18h1M33 18h1" />
	<path stroke="#ffcb00" d="M19 18h1M22 18h5M22 19h5M11 25h3M10 26h3M9 27h2M12 27h1M15 27h1M10 28h6M12 29h1M15 29h1M11 30h3M17 35h1M19 35h2M22 35h2M25 35h2M31 35h2M17 36h1M19 36h2M22 36h2M25 36h2M28 36h2M31 36h2" />
	<path stroke="#ffd703" d="M20 18h2M18 19h4" />
	<path stroke="#fabf00" d="M27 18h5M27 19h6" />
	<path stroke="#c3d57f" d="M20 22h2M29 22h2M19 23h1M22 23h1M28 23h1M31 23h1M19 24h1M22 24h1M28 24h1M31 24h1M20 25h2M29 25h2" />
	<path stroke="#ffe028" d="M13 26h2M14 27h1M14 29h1" />
	<path stroke="#ffb29d" d="M18 26h2M31 26h2" />
	<path stroke="#ff0000" d="M11 27h1M13 27h1M11 29h1M13 29h1" />
	<path stroke="#ffb400" d="M9 28h1M9 29h2M10 30h1M14 30h1M11 31h3" />
	<path stroke="#0094ea" d="M18 35h1M21 35h1M24 35h1M18 36h1M21 36h1M24 36h1M27 36h1M30 36h1" />
</svg>