<svg xmlns="http://www.w3.org/2000/svg" width="512" height="512" fill="none"><path fill="#F90" d="M0 0h512v512H0z"/><path fill="#56C399" d="M84 340h344v160H84z"/><g><animateTransform attributeName="transform" dur="0.4s" keyTimes="0;0.5;1" repeatCount="indefinite" type="translate" values="0 0;0 28;0 0"/><path fill="#82DCB9" d="M196 176h120v296H196z"/><path fill="#D22D27" d="m264 403 52 12v10l-52-22Z"/><path fill="#fff" d="m283 401 3.625 1.69-6.762 14.501-3.625-1.69zM301 408l3.864 1.035-4.141 15.455-3.864-1.035z"/><path fill="#56C399" d="m196 300 120-16v4l-120 16v-4Z"/><path fill="#fff" d="m212 292 3.985-.349 1.394 15.94-3.985.348zM240 288l3.985-.349 1.394 15.94-3.985.348zM268 284l3.985-.349 1.394 15.94-3.985.348zM296 280l3.985-.349 1.394 15.94-3.985.348z"/><path fill="#56C399" d="M196 96h120v80H196z"/><path fill="#82DCB9" d="M250 96h12v36h-12z"><animate attributeName="fill" begin="5s" dur="0.4s" repeatCount="5" values="#82DCB9; #fff; #82DCB9"/></path><path fill="#121212" d="M156 138h200V92.08h-39.61L256 58l-57.143 34.08H156V138Z"/><path fill="#D22D27" d="M196 162h120v-24H196z"/><path fill="#fff" d="M246.966 77h20v20h-20zM236.966 96l41.45 24.206-3.966 6.948L233 102.948z"/><path fill="#fff" d="M274.45 96 233 120.206l3.966 6.948 41.45-24.206z"/><path fill="#fff" d="M204 179h47v48h-47v-48Z"/><path stroke="#BBB" stroke-width="6" d="M204 179h47v48h-47v-48Zm0 0h-8M251 188h10"/><path fill="#fff" d="M308 179h-47v48h47v-48Z"/><path stroke="#BBB" stroke-width="6" d="M308 179h-47v48h47v-48Zm0 0h8"/><mask id="a" width="41" height="42" x="207" y="182" maskUnits="userSpaceOnUse" style="mask-type:alpha"><path fill="#121212" d="M207 182h41v42h-41v-42Z"/></mask><g mask="url(#a)"><path fill="#D9D9D9" d="M215.112 182h8.77l-10.524 43.235h-8.77L215.112 182Z"><animateTransform attributeName="transform" dur="4s" keyTimes="0;0.1;0.3;1" repeatCount="indefinite" type="translate" values="-32 0;-32 0;48 0;48 0"/></path></g><mask id="b" width="41" height="42" x="264" y="182" maskUnits="userSpaceOnUse" style="mask-type:alpha"><path fill="#121212" d="M264 182h41v42h-41v-42Z"/></mask><g mask="url(#b)"><path fill="#D9D9D9" d="M271.112 182h8.77l-10.524 43.235h-8.77L271.112 182Z"><animateTransform attributeName="transform" dur="4s" keyTimes="0;0.1;0.3;1" repeatCount="indefinite" type="translate" values="-32 0;-32 0;48 0;48 0"/></path></g><path stroke="#121212" stroke-width="6" d="M231.114 346h49.289L292 334"/></g></svg>