<svg height="320" shape-rendering="crispEdges" viewBox="0 0 320 320" width="320" xmlns="http://www.w3.org/2000/svg"><rect fill="#d5d7e1" height="100%" width="100%"/><path d="m90 210h140v10h-140z" fill="#867c1d"/><path d="m90 220h140v10h-140z" fill="#867c1d"/><path d="m90 230h140v10h-140z" fill="#867c1d"/><path d="m90 240h140v10h-140z" fill="#867c1d"/><path d="m90 250h20v10h-20z" fill="#867c1d"/><path d="m120 250h110v10h-110z" fill="#867c1d"/><path d="m90 260h20v10h-20z" fill="#867c1d"/><path d="m120 260h110v10h-110z" fill="#867c1d"/><path d="m90 270h20v10h-20z" fill="#867c1d"/><path d="m120 270h110v10h-110z" fill="#867c1d"/><path d="m90 280h20v10h-20z" fill="#867c1d"/><path d="m120 280h110v10h-110z" fill="#867c1d"/><path d="m90 290h20v10h-20z" fill="#867c1d"/><path d="m120 290h110v10h-110z" fill="#867c1d"/><path d="m90 300h20v10h-20z" fill="#867c1d"/><path d="m120 300h110v10h-110z" fill="#867c1d"/><path d="m90 310h20v10h-20z" fill="#867c1d"/><path d="m120 310h110v10h-110z" fill="#867c1d"/><path d="m90 210h30v10h-30z" fill="#027ee6"/><path d="m130 210h30v10h-30z" fill="#fe500c"/><path d="m170 210h30v10h-30z" fill="#027ee6"/><path d="m210 210h20v10h-20z" fill="#027ee6"/><path d="m90 230h10v10h-10z" fill="#027ee6"/><path d="m110 230h30v10h-30z" fill="#fe500c"/><path d="m150 230h30v10h-30z" fill="#027ee6"/><path d="m190 230h30v10h-30z" fill="#fe500c"/><path d="m100 240h10v10h-10z" fill="#fe500c"/><path d="m140 240h10v10h-10z" fill="#027ee6"/><path d="m180 240h10v10h-10z" fill="#fe500c"/><path d="m220 240h10v10h-10z" fill="#027ee6"/><path d="m90 250h10v10h-10z" fill="#fe500c"/><path d="m120 250h20v10h-20z" fill="#027ee6"/><path d="m150 250h30v10h-30z" fill="#fe500c"/><path d="m190 250h30v10h-30z" fill="#027ee6"/><path d="m90 270h20v10h-20z" fill="#027ee6"/><path d="m130 270h30v10h-30z" fill="#fe500c"/><path d="m170 270h30v10h-30z" fill="#027ee6"/><path d="m210 270h20v10h-20z" fill="#fe500c"/><path d="m120 280h10v10h-10z" fill="#fe500c"/><path d="m160 280h10v10h-10z" fill="#027ee6"/><path d="m200 280h10v10h-10z" fill="#fe500c"/><path d="m90 290h10v10h-10z" fill="#027ee6"/><path d="m100 290h10v10h-10z" fill="#fe500c"/><path d="m130 290h30v10h-30z" fill="#027ee6"/><path d="m170 290h30v10h-30z" fill="#fe500c"/><path d="m210 290h20v10h-20z" fill="#027ee6"/><path d="m90 310h10v10h-10z" fill="#027ee6"/><path d="m120 310h20v10h-20z" fill="#027ee6"/><path d="m150 310h30v10h-30z" fill="#fe500c"/><path d="m190 310h30v10h-30z" fill="#027ee6"/><g fill="#343235"><path d="m140 20h10v10h-10z"/><path d="m140 30h20v10h-20z"/><path d="m140 40h30v10h-30z"/><path d="m140 50h40v10h-40z"/><path d="m140 60h50v10h-50z"/><path d="m140 70h60v10h-60z"/><path d="m120 80h110v10h-110z"/><path d="m100 90h140v10h-140z"/><path d="m90 100h160v10h-160z"/><path d="m20 110h30v10h-30z"/><path d="m80 110h170v10h-170z"/><path d="m30 120h30v10h-30z"/><path d="m70 120h190v10h-190z"/><path d="m30 130h230v10h-230z"/><path d="m40 140h220v10h-220z"/><path d="m30 150h240v10h-240z"/><path d="m30 160h30v10h-30z"/><path d="m70 160h200v10h-200z"/><path d="m20 170h30v10h-30z"/><path d="m70 170h190v10h-190z"/><path d="m10 180h30v10h-30z"/><path d="m80 180h80v10h-80z"/></g><path d="m160 180h90v10h-90z" fill="#fffdf2"/><path d="m90 190h60v10h-60z" fill="#343235"/><path d="m150 190h90v10h-90z" fill="#fffdf2"/><path d="m100 200h40v10h-40z" fill="#343235"/><path d="m140 200h90v10h-90z" fill="#fffdf2"/><path d="m100 110h60v10h-60z"/><path d="m170 110h60v10h-60z"/><path d="m100 120h10v10h-10z"/><path d="m110 120h20v10h-20z" fill="#fff"/><path d="m130 120h30v10h-30z"/><path d="m170 120h10v10h-10z"/><path d="m180 120h20v10h-20z" fill="#fff"/><path d="m200 120h30v10h-30z"/><path d="m70 130h40v10h-40z"/><path d="m110 130h20v10h-20z" fill="#fff"/><path d="m130 130h50v10h-50z"/><path d="m180 130h20v10h-20z" fill="#fff"/><path d="m200 130h30v10h-30z"/><path d="m70 140h10v10h-10z"/><path d="m100 140h10v10h-10z"/><path d="m110 140h20v10h-20z" fill="#fff"/><path d="m130 140h30v10h-30z"/><path d="m170 140h10v10h-10z"/><path d="m180 140h20v10h-20z" fill="#fff"/><path d="m200 140h30v10h-30z"/><path d="m70 150h10v10h-10z"/><path d="m100 150h10v10h-10z"/><path d="m110 150h20v10h-20z" fill="#fff"/><path d="m130 150h30v10h-30z"/><path d="m170 150h10v10h-10z"/><path d="m180 150h20v10h-20z" fill="#fff"/><path d="m200 150h30v10h-30z"/><path d="m100 160h60v10h-60z"/><path d="m170 160h60v10h-60z"/></svg>