<?xml version="1.0" encoding="utf-8"?>
<!-- Generator: Adobe Illustrator 27.6.1, SVG Export Plug-In . SVG Version: 6.00 Build 0)  -->
<svg version="1.1" xmlns="http://www.w3.org/2000/svg" xmlns:xlink="http://www.w3.org/1999/xlink" x="0px" y="0px"
	 viewBox="0 0 1080 1080" style="enable-background:new 0 0 1080 1080;" xml:space="preserve">
<style type="text/css">
	.st0{fill:#FFFFFF;}
	.st1{fill:url(#SVGID_1_);stroke:#A3AED8;stroke-width:13;stroke-miterlimit:10;}
	.st2{fill:#FF304F;}
	.st3{fill:#0053E0;}
	.st4{fill:#FFFF68;}
	.st5{fill:#994DFF;}
	.st6{fill:#FFFF4F;}
	.st7{fill:#5948A6;}
</style>
<g id="BG_00000049199473064088084310000008836133144443458486_">
	<rect class="st0" width="1080" height="1080"/>
</g>
<g id="face">
	<linearGradient id="SVGID_1_" gradientUnits="userSpaceOnUse" x1="539.367" y1="804.0264" x2="539.367" y2="186.4234">
		<stop  offset="0" style="stop-color:#00FF00"/>
		<stop  offset="1" style="stop-color:#729BDB"/>
	</linearGradient>
	<polygon class="st1" points="539.37,186.42 182.79,804.03 895.94,804.03 	"/>
</g>
<g id="BG">
	<path class="st2" d="M884.65,796.6L694.4,467.46l-74.45,128.95l-161.77,0l-73.97-128.11L194.09,797.68L884.65,796.6z"/>
	<polygon class="st3" points="362.74,750.91 389.74,797.68 335.74,797.68 	"/>
	<polygon class="st3" points="308.48,750.91 335.48,797.68 281.48,797.68 	"/>
	<polygon class="st3" points="416.47,750.91 443.47,797.68 389.47,797.68 	"/>
	<polygon class="st3" points="716.81,750.91 743.81,797.68 689.81,797.68 	"/>
	<polygon class="st3" points="663.68,750.91 690.68,797.68 636.67,797.68 	"/>
	<polygon class="st3" points="770.53,750.91 797.54,797.68 743.53,797.68 	"/>
	<polygon points="358.48,546.38 448.92,619.37 340.49,661.2 	"/>
	<polygon class="st0" points="407.25,612.28 403.39,636.92 426.66,627.94 	"/>
	<polygon points="720.06,546.38 629.62,619.37 738.05,661.2 	"/>
	<polygon class="st0" points="671.29,612.28 675.15,636.92 651.88,627.94 	"/>
	<polygon points="539.37,683 496.07,718 582.67,718 	"/>
	<polygon class="st4" points="539.26,297.63 526.29,320.13 539.26,342.6 552.23,320.13 	"/>
	<polygon class="st5" points="496.07,274.09 582.67,274.09 539.37,199.09 	"/>
	<polygon class="st5" points="557.6,315.37 606.21,315.37 581.9,273.27 	"/>
	<polygon class="st5" points="583.7,354.12 628.58,354.12 606.14,315.25 	"/>
	<polygon class="st5" points="612.61,381.9 644.62,381.9 628.62,354.18 	"/>
	<polygon class="st5" points="632.37,403.03 656.82,403.03 644.6,381.86 	"/>
	<polygon class="st5" points="648.11,418.15 665.55,418.15 656.83,403.05 	"/>
	<polygon class="st5" points="656.83,433.25 674.27,433.25 665.55,418.15 	"/>
	<polygon class="st5" points="665.52,448.31 682.96,448.31 674.24,433.2 	"/>
	<polygon class="st5" points="676.96,457.82 688.45,457.82 682.71,447.87 	"/>
	<polygon class="st5" points="682.73,467.81 694.22,467.81 688.48,457.86 	"/>
	<polygon class="st5" points="520.74,315.91 472.13,315.91 496.44,273.81 	"/>
	<polygon class="st5" points="494.64,354.65 449.76,354.65 472.2,315.79 	"/>
	<polygon class="st5" points="465.73,382.44 433.72,382.44 449.73,354.72 	"/>
	<polygon class="st5" points="445.97,403.56 421.53,403.56 433.75,382.39 	"/>
	<polygon class="st5" points="430.23,418.69 412.79,418.69 421.51,403.59 	"/>
	<polygon class="st5" points="421.51,433.79 404.07,433.79 412.79,418.69 	"/>
	<polygon class="st5" points="412.82,448.84 395.39,448.84 404.1,433.74 	"/>
	<polygon class="st5" points="401.38,458.35 389.89,458.35 395.64,448.4 	"/>
	<polygon class="st5" points="395.61,468.35 384.12,468.35 389.87,458.4 	"/>
	<polygon class="st4" points="539.09,238.9 533.38,248.8 539.09,258.68 544.79,248.8 	"/>
	<polygon class="st4" points="520.65,249.59 523.62,260.62 534.64,263.57 531.68,252.55 	"/>
	<polygon class="st4" points="557.67,249.59 554.69,260.62 543.67,263.57 546.63,252.55 	"/>
	<polygon class="st4" points="539.09,274.2 533.38,284.09 539.09,293.97 544.79,284.09 	"/>
	<polygon class="st4" points="520.65,284.89 523.62,295.92 534.64,298.86 531.68,287.84 	"/>
	<polygon class="st4" points="557.67,284.89 554.69,295.92 543.67,298.86 546.63,287.84 	"/>
	<polygon class="st6" points="539.42,456.66 458.79,596.32 620.06,596.32 	"/>
	<g>
		<polygon class="st7" points="477.88,517.87 539.46,553.42 601.04,517.87 539.46,482.32 		"/>
		<polygon class="st7" points="489.57,475.07 489.46,475.1 494.48,456.34 475.69,461.38 489.43,475.1 475.52,478.84 454.29,457.64 
			446.54,486.63 446.78,486.57 478.13,517.87 		"/>
		<polygon class="st7" points="600.9,517.94 632.3,486.58 632.23,486.56 624.47,457.53 603.21,478.77 589.58,475.1 603.34,461.36 
			584.52,456.31 589.55,475.1 589.44,475.07 		"/>
		<polygon class="st7" points="539.52,430.35 494.52,456.34 539.52,482.32 584.52,456.34 		"/>
		<polygon class="st7" points="507.15,411.7 539.46,430.35 571.77,411.7 539.46,393.05 		"/>
		<polygon class="st7" points="539.46,393.05 562.35,379.83 539.46,366.61 516.57,379.83 		"/>
		<polygon class="st7" points="556.82,356.59 539.46,346.57 522.1,356.59 539.46,366.61 		"/>
	</g>
</g>
</svg>
