<svg xmlns="http://www.w3.org/2000/svg" width="512" height="512" fill="none"><path fill="#F90" d="M0 0h512v512H0z"/><path fill="#8B634A" d="M84 340h344v160H84z"/><g><animateTransform attributeName="transform" dur="0.4s" keyTimes="0;0.5;1" repeatCount="indefinite" type="translate" values="0 0;0 28;0 0"/><path fill="#AE7B5C" d="M196 176h120v296H196z"/><path fill="#8B634A" d="M196 96h120v80H196z"/><path fill="#AE7B5C" d="M250 96h12v36h-12z"><animate attributeName="fill" begin="5s" dur="0.4s" repeatCount="5" values="#AE7B5C; #fff; #AE7B5C"/></path><path fill="#121212" d="M234 130.25 196 119V96h120v36l-39-21.5v19.75l-43-19.75v19.75Z"/><path fill="#fff" d="M145 145h51v95h-51zM316 145h51v95h-51zM196 96v49h-28V67h176v78h-28V96H196Z"/><path stroke="#121212" stroke-width="6" d="M250 202h12M178.027 179.789l24 22"/><circle cx="226" cy="203" r="24" stroke="#121212" stroke-width="6"/><path stroke="#121212" stroke-width="6" d="m333.973 179.789-24 22"/><circle cx="27" cy="27" r="24" stroke="#121212" stroke-width="6" transform="matrix(-1 0 0 1 313 176)"/><mask id="a" width="42" height="42" x="265" y="182" maskUnits="userSpaceOnUse" style="mask-type:alpha"><circle cx="286" cy="203" r="21" fill="#D9D9D9"/></mask><g mask="url(#a)"><path fill="#D9D9D9" d="M272.179 182h8.782l-10.539 42h-8.781l10.538-42Z"><animateTransform attributeName="transform" dur="4s" keyTimes="0;0.1;0.3;1" repeatCount="indefinite" type="translate" values="-32 0;-32 0;48 0;48 0"/></path></g><mask id="b" width="42" height="42" x="205" y="182" maskUnits="userSpaceOnUse" style="mask-type:alpha"><circle cx="226" cy="203" r="21" fill="#D9D9D9"/></mask><g mask="url(#b)"><path fill="#D9D9D9" d="M212.179 182h8.782l-10.539 42h-8.781l10.538-42Z"><animateTransform attributeName="transform" dur="4s" keyTimes="0;0.1;0.3;1" repeatCount="indefinite" type="translate" values="-32 0;-32 0;48 0;48 0"/></path></g><path stroke="#121212" stroke-width="6" d="M228 340h56"/><path fill="#D22D27" stroke="#121212" stroke-width="6" d="M268 359.25V340h-22.5v19.25c0 6.213 5.037 11.25 11.25 11.25S268 365.463 268 359.25Z"/></g></svg>