<svg xmlns="http://www.w3.org/2000/svg" width="512" height="512" fill="none"><path fill="#F90" d="M0 0h512v512H0z"/><path fill="#0097D8" d="M84 340h344v160H84z"/><path fill="#2C71A3" d="m388 407 40-32v12l-40 20ZM124 407l-40-32v12l40 20ZM124 430l-40 36v-16l40-20ZM388 430l40 36v-16l-40-20Z"/><g><animateTransform attributeName="transform" dur="0.4s" keyTimes="0;0.5;1" repeatCount="indefinite" type="translate" values="0 0;0 28;0 0"/><path fill="#00B2FF" d="M196 176h120v296H196z"/><path fill="#2C71A3" d="m227 400-31 31v-16l31-15ZM222 336l-26 8v-16l26 8ZM276 347l40 36v-16l-40-20ZM276 324l40-32v12l-40 20Z"/><path fill="#0097D8" d="M196 96h120v80H196z"/><path fill="#00B2FF" d="M250 96h12v36h-12z"><animate attributeName="fill" begin="5s" dur="0.4s" repeatCount="5" values="#00B2FF; #fff; #00B2FF"/></path><path fill="#96469A" d="M196 96c0-17.673 14.327-32 32-32h56c17.673 0 32 14.327 32 32H196ZM196 120h120V96H196z"/><path fill="#704B9F" d="M196 144h120v-24H196z"/><path fill="#121212" d="M202 179h48v20l-12 28h-36v-48Z"/><path stroke="#FFB74A" stroke-width="6" d="M202 179h48v20l-12 28h-36v-48Zm0 0h-6M247 179h19M247 197h19"/><path fill="#121212" d="M310 179h-48v20l12 28h36v-48Z"/><path stroke="#FFB74A" stroke-width="6" d="M310 179h-48v20l12 28h36v-48Zm0 0h6"/><mask id="a" width="42" height="42" x="205" y="182" maskUnits="userSpaceOnUse" style="mask-type:alpha"><path fill="#121212" d="M205 182h42v16.336L242 210l-6 14h-31v-42Z"/></mask><g mask="url(#a)"><path fill="#FFF" d="M213.112 182h8.77l-10.524 43.235h-8.77L213.112 182Z"><animateTransform attributeName="transform" dur="4s" keyTimes="0;0.1;0.3;1" repeatCount="indefinite" type="translate" values="-32 0;-32 0;48 0;48 0"/></path></g><mask id="b" width="42" height="42" x="265" y="182" maskUnits="userSpaceOnUse" style="mask-type:alpha"><path fill="#121212" d="M265 182h42v42h-31l-11-25.5V182Z"/></mask><g mask="url(#b)"><path fill="#FFF" d="M271.112 182h8.77l-10.524 43.235h-8.77L271.112 182Z"><animateTransform attributeName="transform" dur="4s" keyTimes="0;0.1;0.3;1" repeatCount="indefinite" type="translate" values="-32 0;-32 0;48 0;48 0"/></path></g><path stroke="#121212" stroke-width="6" d="M230.711 344H280"/><path fill="#fff" d="m368.922 415.44-38.548-34.957-32.47-18.932-17.49-17.491h-13.5l38.126 46.324 16.85 18.878 31.606 24.563 15.426-18.385Z"/><path stroke="#121212" stroke-width="6" d="m321.89 409.262 31.606 24.563 15.426-18.385-38.548-34.957m-8.484 28.779 8.484-28.779m-8.484 28.779-16.85-18.878m25.334-9.901-32.47-18.932m7.136 28.833-38.126-46.324h13.5l17.49 17.491m7.136 28.833-7.136-28.833"/><path fill="#2D2D2D" stroke="#121212" stroke-width="6" d="m368.922 415.44-15.427 18.385-8.495-6.602 16-18.967 7.922 7.184Z"><animate attributeName="fill" dur="4s" keyTimes="0;0.8;1" repeatCount="indefinite" values="#2d2d2d;red;#2d2d2d"/></path><path stroke="#fff" stroke-width="6" d="M383 432c28.5 7 59-4.5 66-46.5S393 313 424 267"><animate attributeName="stroke" dur="4s" keyTimes="0;0.8;1" repeatCount="indefinite" values="white;transparent;white"/></path></g></svg>