<svg height="320" shape-rendering="crispEdges" viewBox="0 0 320 320" width="320" xmlns="http://www.w3.org/2000/svg"><rect fill="#d5d7e1" height="100%" width="100%"/><g fill="#eed811"><path d="m90 210h140v10h-140z"/><path d="m90 220h140v10h-140z"/><path d="m90 230h140v10h-140z"/><path d="m90 240h140v10h-140z"/><path d="m90 250h20v10h-20z"/><path d="m120 250h110v10h-110z"/><path d="m90 260h20v10h-20z"/><path d="m120 260h110v10h-110z"/><path d="m90 270h20v10h-20z"/><path d="m120 270h110v10h-110z"/><path d="m90 280h20v10h-20z"/><path d="m120 280h110v10h-110z"/><path d="m90 290h20v10h-20z"/><path d="m120 290h110v10h-110z"/><path d="m90 300h20v10h-20z"/><path d="m120 300h110v10h-110z"/><path d="m90 310h20v10h-20z"/><path d="m120 310h110v10h-110z"/></g><path d="m130 240h70v10h-70z" fill="#26b1f3"/><path d="m130 250h10v10h-10z" fill="#26b1f3"/><path d="m150 250h10v10h-10z" fill="#26b1f3"/><path d="m170 250h10v10h-10z" fill="#26b1f3"/><path d="m190 250h30v10h-30z" fill="#26b1f3"/><path d="m130 260h30v10h-30z" fill="#26b1f3"/><path d="m170 260h30v10h-30z" fill="#26b1f3"/><path d="m210 260h10v10h-10z" fill="#26b1f3"/><path d="m160 20h10v10h-10z" fill="#fb4694"/><path d="m150 30h30v10h-30z" fill="#fb4694"/><path d="m160 40h10v10h-10z" fill="#fb4694"/><path d="m130 50h60v10h-60z" fill="#fb4694"/><path d="m110 60h100v10h-100z" fill="#fb4694"/><path d="m90 70h140v10h-140z" fill="#2b83f6"/><path d="m80 80h100v10h-100z" fill="#2b83f6"/><path d="m180 80h10v10h-10z" fill="#caeff9"/><path d="m190 80h10v10h-10z" fill="#2b83f6"/><path d="m200 80h20v10h-20z" fill="#caeff9"/><path d="m220 80h20v10h-20z" fill="#2b83f6"/><path d="m80 90h120v10h-120z" fill="#2b83f6"/><path d="m200 90h20v10h-20z" fill="#caeff9"/><path d="m220 90h20v10h-20z" fill="#2b83f6"/><path d="m70 100h180v10h-180z" fill="#2b83f6"/><path d="m70 110h180v10h-180z" fill="#2b83f6"/><path d="m70 120h180v10h-180z" fill="#2b83f6"/><path d="m60 130h200v10h-200z" fill="#2b83f6"/><path d="m60 140h200v10h-200z" fill="#2b83f6"/><path d="m60 150h200v10h-200z" fill="#2b83f6"/><path d="m60 160h200v10h-200z" fill="#fb4694"/><path d="m40 170h240v10h-240z" fill="#fb4694"/><path d="m30 180h50v10h-50z" fill="#fb4694"/><path d="m80 180h20v10h-20z" fill="#ffe939"/><path d="m100 180h10v10h-10z" fill="#fb4694"/><path d="m110 180h20v10h-20z" fill="#ffe939"/><path d="m130 180h10v10h-10z" fill="#fb4694"/><path d="m140 180h20v10h-20z" fill="#ffe939"/><path d="m160 180h10v10h-10z" fill="#fb4694"/><path d="m170 180h20v10h-20z" fill="#ffe939"/><path d="m190 180h10v10h-10z" fill="#fb4694"/><path d="m200 180h20v10h-20z" fill="#ffe939"/><path d="m220 180h10v10h-10z" fill="#fb4694"/><path d="m230 180h20v10h-20z" fill="#ffe939"/><path d="m250 180h40v10h-40z" fill="#fb4694"/><path d="m20 190h60v10h-60z" fill="#fb4694"/><path d="m80 190h20v10h-20z" fill="#ffe939"/><path d="m100 190h10v10h-10z" fill="#fb4694"/><path d="m110 190h20v10h-20z" fill="#ffe939"/><path d="m130 190h10v10h-10z" fill="#fb4694"/><path d="m140 190h20v10h-20z" fill="#ffe939"/><path d="m160 190h10v10h-10z" fill="#fb4694"/><path d="m170 190h20v10h-20z" fill="#ffe939"/><path d="m190 190h10v10h-10z" fill="#fb4694"/><path d="m200 190h20v10h-20z" fill="#ffe939"/><path d="m220 190h10v10h-10z" fill="#fb4694"/><path d="m230 190h20v10h-20z" fill="#ffe939"/><path d="m250 190h50v10h-50z" fill="#fb4694"/><path d="m60 200h200v10h-200z" fill="#fb4694"/><path d="m110 210h100v10h-100z" fill="#fb4694"/><path d="m100 110h60v10h-60z" fill="#d19a54"/><path d="m170 110h60v10h-60z" fill="#d19a54"/><path d="m100 120h10v10h-10z" fill="#d19a54"/><path d="m110 120h20v10h-20z" fill="#fff"/><path d="m130 120h20v10h-20z"/><path d="m150 120h10v10h-10z" fill="#d19a54"/><path d="m170 120h10v10h-10z" fill="#d19a54"/><path d="m180 120h20v10h-20z" fill="#fff"/><path d="m200 120h20v10h-20z"/><path d="m220 120h10v10h-10z" fill="#d19a54"/><path d="m70 130h40v10h-40z" fill="#d19a54"/><path d="m110 130h20v10h-20z" fill="#fff"/><path d="m130 130h20v10h-20z"/><path d="m150 130h30v10h-30z" fill="#d19a54"/><path d="m180 130h20v10h-20z" fill="#fff"/><path d="m200 130h20v10h-20z"/><path d="m220 130h10v10h-10z" fill="#d19a54"/><path d="m70 140h10v10h-10z" fill="#d19a54"/><path d="m100 140h10v10h-10z" fill="#d19a54"/><path d="m110 140h20v10h-20z" fill="#fff"/><path d="m130 140h20v10h-20z"/><path d="m150 140h10v10h-10z" fill="#d19a54"/><path d="m170 140h10v10h-10z" fill="#d19a54"/><path d="m180 140h20v10h-20z" fill="#fff"/><path d="m200 140h20v10h-20z"/><path d="m220 140h10v10h-10z" fill="#d19a54"/><path d="m70 150h10v10h-10z" fill="#d19a54"/><path d="m100 150h10v10h-10z" fill="#d19a54"/><path d="m110 150h20v10h-20z" fill="#fff"/><path d="m130 150h20v10h-20z"/><path d="m150 150h10v10h-10z" fill="#d19a54"/><path d="m170 150h10v10h-10z" fill="#d19a54"/><path d="m180 150h20v10h-20z" fill="#fff"/><path d="m200 150h20v10h-20z"/><path d="m220 150h10v10h-10z" fill="#d19a54"/><path d="m100 160h60v10h-60z" fill="#d19a54"/><path d="m170 160h60v10h-60z" fill="#d19a54"/></svg>