<svg xmlns="http://www.w3.org/2000/svg" viewBox="0 -0.5 50 50" shape-rendering="crispEdges">
	<title>Bitcoin Pussies #008</title>
	<desc>Bitcoin Pussies are 69 uniquely drawn and inscribed cats on Bitcoin</desc>
	<desc xmlns:meow="https://bitcoinpussies.com/">
		<meow:traits>
			<meow:Skin>Grey (Shiny)</meow:Skin>
			<meow:Eyes>Open</meow:Eyes>
			<meow:Gear>Magical Star</meow:Gear>
			<meow:Message>Winter is coming and WAGMI</meow:Message>
		</meow:traits>
	</desc>
	<path stroke="#94eff4" d="M0 0h50M0 1h50M0 2h50M0 3h50M0 4h50M0 5h50M0 6h50M0 7h41M43 7h7M0 8h40M44 8h6M0 9h39M45 9h5M0 10h21M27 10h11M46 10h4M0 11h20M28 11h9M47 11h3M0 12h19M29 12h7M48 12h2M0 13h17M30 13h6M48 13h2M0 14h16M31 14h5M47 14h3M0 15h16M31 15h5M48 15h2M0 16h17M32 16h3M49 16h1M0 17h18M33 17h1M0 18h17M34 18h1M49 18h1M0 19h15M48 19h2M0 20h14M49 20h1M0 21h14M0 22h14M0 23h13M0 24h10M0 25h10M0 26h11M0 27h12M0 28h12M0 29h12M0 30h12M14 30h1M0 31h15M0 32h16M33 32h1M37 32h3M44 32h3M0 33h15M31 33h10M43 33h7M0 34h14M32 34h9M43 34h7M0 35h14M18 35h1M32 35h18M0 36h15M33 36h17M0 37h16M33 37h17M0 38h17M33 38h17M0 39h18M32 39h18M0 40h20M31 40h19M0 41h50M0 42h50M0 43h50M0 44h50M0 45h50M0 46h50M0 47h50M0 48h50M0 49h50" />
	<path stroke="#000000" d="M41 7h2M40 8h1M43 8h1M39 9h1M44 9h1M21 10h6M38 10h1M45 10h1M20 11h1M27 11h1M37 11h1M46 11h1M19 12h1M28 12h1M36 12h1M47 12h1M17 13h5M29 13h1M36 13h1M38 13h1M42 13h1M44 13h2M47 13h1M16 14h1M19 14h1M30 14h1M37 14h1M39 14h1M41 14h1M43 14h1M46 14h1M16 15h1M19 15h1M30 15h1M36 15h1M40 15h1M47 15h1M17 16h15M35 16h1M48 16h1M18 17h1M31 17h2M34 17h1M49 17h1M17 18h2M32 18h2M35 18h1M38 18h2M43 18h1M45 18h2M48 18h1M15 19h2M19 19h13M34 19h4M40 19h1M42 19h1M44 19h1M47 19h1M14 20h1M36 20h1M41 20h1M48 20h1M14 21h2M17 21h1M33 21h1M36 21h1M49 21h1M14 22h1M16 22h1M34 22h2M13 23h1M17 23h1M20 23h2M29 23h2M35 23h1M38 23h1M45 23h1M10 24h4M17 24h5M29 24h2M35 24h3M39 24h1M44 24h1M46 24h3M10 25h1M20 25h1M35 25h1M40 25h4M49 25h1M11 26h1M19 26h1M24 26h1M26 26h1M36 26h1M12 27h1M18 27h1M25 27h1M37 27h1M12 28h1M15 28h1M18 28h1M36 28h1M12 29h1M14 29h3M18 29h1M36 29h1M12 30h2M15 30h1M17 30h2M35 30h1M15 31h1M19 31h1M33 31h2M37 31h3M44 31h3M16 32h1M20 32h1M30 32h3M34 32h3M40 32h4M47 32h3M15 33h3M30 33h1M14 34h1M17 34h2M31 34h1M14 35h1M17 35h1M19 35h1M31 35h1M15 36h1M18 36h1M32 36h1M16 37h1M18 37h1M32 37h1M17 38h2M32 38h1M18 39h2M21 39h1M23 39h1M27 39h1M29 39h1M31 39h1M20 40h11" />
	<path stroke="#ffffff" d="M41 8h2M40 9h4M39 10h6M38 11h8M37 12h10M37 13h1M39 13h3M43 13h1M46 13h1M17 14h2M36 14h1M40 14h1M17 15h2M46 16h2M19 17h12M35 17h14M19 18h13M36 18h2M40 18h3M44 18h1M47 18h1M41 19h1M36 22h1M39 22h1M42 22h6M49 22h1M36 23h2M39 23h6M46 23h4M40 24h4M49 24h1M45 27h2M39 28h8M37 29h13M36 30h14M35 31h2M40 31h4M47 31h3M24 33h3M23 34h5M24 35h3M25 36h1" />
	<path stroke="#be051a" d="M21 11h6M20 12h6M27 12h1M22 13h4M27 13h2M20 14h7M28 14h2M20 15h10" />
	<path stroke="#a50717" d="M26 12h1M26 13h1M27 14h1" />
	<path stroke="#00520f" d="M38 14h1M42 14h1M44 14h2M37 15h3M41 15h6M36 16h10M38 19h2M43 19h1M45 19h2M37 20h4M42 20h6M37 21h12M37 22h2M40 22h2M48 22h1M38 24h1M45 24h1M36 25h4M44 25h5M37 26h13M38 27h7M47 27h3M37 28h2M47 28h3" />
	<path stroke="#707070" d="M17 19h2M32 19h2M15 20h21M18 21h15M17 22h3M22 22h7M31 22h3M18 23h1M23 23h5M32 23h3M23 24h5M32 24h3M22 25h7M31 25h4M20 26h4M25 26h1M27 26h4M33 26h3M19 27h6M26 27h11M19 28h17M19 29h17M16 30h1M19 30h16M16 31h3M20 31h13M17 32h3M21 32h9M18 33h6M27 33h3M15 34h2M19 34h4M28 34h3M15 35h2M20 35h4M27 35h4M16 36h2M19 36h6M26 36h6M17 37h1M19 37h13M19 38h13M20 39h1M22 39h1M24 39h3M28 39h1M30 39h1" />
	<path stroke="#ffc8ca" d="M16 21h1M34 21h2" />
	<path stroke="#fddd81" d="M15 22h1" />
	<path stroke="#f4ff72" d="M20 22h2M29 22h2M19 23h1M22 23h1M28 23h1M31 23h1M22 24h1M28 24h1M31 24h1M21 25h1M29 25h2" />
	<path stroke="#ffdf6c" d="M14 23h3M14 24h3M11 25h9M12 26h7M13 27h2M16 27h2M13 28h1M17 28h1" />
	<path stroke="#e79e8e" d="M31 26h2" />
	<path stroke="#deaa46" d="M15 27h1M14 28h1M16 28h1M13 29h1M17 29h1" />
	<path stroke="#603417" d="M41 33h2M41 34h2" />
</svg>