<?xml version="1.0" encoding="UTF-8"?><svg id="_レイヤー_2" xmlns="http://www.w3.org/2000/svg" viewBox="0 0 833.33 833.33"><defs><style>.cls-1{fill:#f0f0f0;}.cls-2{fill:#fff324;}.cls-3{fill:#fff;}.cls-4{fill:#ffbb6e;}.cls-5{fill:#ff9238;}.cls-6{fill:#ff5f38;}.cls-7{fill:#7f7f8a;}.cls-8{fill:#43434d;}.cls-9{fill:#2b60cf;}.cls-10{fill:#2d2d33;}.cls-11{fill:#5c5c66;}.cls-12{fill:#3c7ac2;}</style></defs><g id="_レイヤー_1-2"><rect class="cls-8" y="604.17" width="833.33" height="229.17"/><rect class="cls-10" y="750" width="833.33" height="20.83"/><rect class="cls-11" y="770.83" width="833.33" height="20.83"/><rect class="cls-11" x="208.33" y="666.67" width="416.67" height="166.67"/><rect y="541.67" width="833.33" height="41.67"/><rect class="cls-10" y="583.33" width="833.33" height="20.83"/><rect x="187.5" y="625" width="458.33" height="20.83" rx="10" ry="10"/><rect class="cls-10" x="208.33" y="687.5" width="416.67" height="20.83"/><rect class="cls-10" x="208.33" y="645.83" width="416.67" height="20.83"/><polygon class="cls-8" points="250 708.33 250 729.17 312.5 729.17 312.5 833.33 333.33 833.33 333.33 708.33 312.5 708.33 250 708.33"/><polygon class="cls-8" points="375 708.33 375 729.17 437.5 729.17 437.5 833.33 458.33 833.33 458.33 708.33 375 708.33"/><polygon class="cls-8" points="500 708.33 500 729.17 562.5 729.17 562.5 833.33 583.33 833.33 583.33 708.33 572.92 708.33 500 708.33"/><polygon class="cls-9" points="250 729.17 250 750 291.67 750 291.67 833.33 312.5 833.33 312.5 729.17 250 729.17"/><polygon class="cls-9" points="375 729.17 375 750 416.67 750 416.67 833.33 437.5 833.33 437.5 729.17 375 729.17"/><polygon class="cls-9" points="500 729.17 500 750 541.67 750 541.67 833.33 562.5 833.33 562.5 729.17 500 729.17"/><rect class="cls-12" x="250" y="750" width="41.67" height="83.33"/><rect class="cls-12" x="375" y="750" width="41.67" height="83.33"/><rect class="cls-12" x="500" y="750" width="41.67" height="83.33"/><path class="cls-10" d="m73.33,708.33c5.52,0,10-4.48,10-10v-42.5c0-5.52-4.48-10-10-10h-21.67c-5.52,0-10,4.48-10,10v10.83h20.83v41.67h10.83Z"/><path class="cls-10" d="m156.67,708.33c5.52,0,10-4.48,10-10v-42.5c0-5.52-4.48-10-10-10h-21.67c-5.52,0-10,4.48-10,10v10.83h20.83v41.67h10.83Z"/><path class="cls-10" d="m698.33,708.33c5.52,0,10-4.48,10-10v-42.5c0-5.52-4.48-10-10-10h-21.67c-5.52,0-10,4.48-10,10v10.83h20.83v41.67h10.83Z"/><path class="cls-10" d="m781.67,708.33c5.52,0,10-4.48,10-10v-42.5c0-5.52-4.48-10-10-10h-21.67c-5.52,0-10,4.48-10,10v10.83h20.83v41.67h10.83Z"/><path class="cls-12" d="m41.67,698.33c0,5.52,4.48,10,10,10h10.83v-41.67h-20.83v31.67Z"/><path class="cls-12" d="m125,698.33c0,5.52,4.48,10,10,10h10.83v-41.67h-20.83v31.67Z"/><path class="cls-12" d="m666.67,698.33c0,5.52,4.48,10,10,10h10.83v-41.67h-20.83v31.67Z"/><path class="cls-12" d="m750,666.67v31.67c0,5.52,4.48,10,10,10h10.83v-41.67h-20.83Z"/><rect class="cls-9" width="833.33" height="541.67"/><rect class="cls-1" x="208.33" y="375" width="41.67" height="41.67"/><rect class="cls-1" x="250" y="416.67" width="41.67" height="41.67"/><path class="cls-1" d="m500,416.67v-41.67h-125v41.67h-41.67v41.67h-41.67v41.67h41.67v41.67h208.33v-125h-41.67Zm-83.33,94.17c0,5.52-4.48,10-10,10h-21.67c-5.52,0-10-4.48-10-10v-42.5c0-5.52,4.48-10,10-10h21.67c5.52,0,10,4.48,10,10v42.5Zm83.33,0c0,5.52-4.48,10-10,10h-21.67c-5.52,0-10-4.48-10-10v-42.5c0-5.52,4.48-10,10-10h21.67c5.52,0,10,4.48,10,10v42.5Z"/><rect class="cls-7" x="250" y="458.33" width="41.67" height="41.67"/><rect class="cls-7" x="291.67" y="500" width="41.67" height="41.67"/><path d="m250,375v-31.67c0-5.52-4.48-10-10-10h-63.33c-5.52,0-10,4.48-10,10v63.33c0,5.52,4.48,10,10,10h31.67v-41.67h41.67Z"/><path d="m490,333.33h-105c-5.52,0-10,4.48-10,10v31.67h125v-31.67c0-5.52-4.48-10-10-10Z"/><path d="m573.33,416.67h-31.67v125h41.67v-115c0-5.52-4.48-10-10-10Z"/><path d="m281.67,375h-31.67v41.67h41.67v-31.67c0-5.52-4.48-10-10-10Z"/><rect x="250" y="500" width="41.67" height="41.67"/><path d="m333.33,385v31.67h41.67v-41.67h-31.67c-5.52,0-10,4.48-10,10Z"/><path d="m531.67,375h-31.67v41.67h41.67v-31.67c0-5.52-4.48-10-10-10Z"/><rect x="291.67" y="416.67" width="41.67" height="41.67"/><path d="m208.33,490c0,5.52,4.48,10,10,10h31.67v-83.33h-41.67v73.33Z"/><path d="m395.83,469.17v-10.83h-10.83c-5.52,0-10,4.48-10,10v42.5c0,5.52,4.48,10,10,10h21.67c5.52,0,10-4.48,10-10v-31.67h-10.83c-5.52,0-10-4.48-10-10Z"/><path d="m479.17,469.17v-10.83h-10.83c-5.52,0-10,4.48-10,10v42.5c0,5.52,4.48,10,10,10h21.67c5.52,0,10-4.48,10-10v-31.67h-10.83c-5.52,0-10-4.48-10-10Z"/><polygon class="cls-4" points="427.08 125 427.08 333.33 447.92 333.33 447.92 125 447.92 125 427.08 125"/><path class="cls-6" d="m541.25,104.17c-5.52,0-10,4.48-10,10v156.67h115c5.52,0,10-4.48,10-10V104.17h-115Z"/><path class="cls-5" d="m447.92,125v166.67h73.33c5.52,0,10-4.48,10-10V125h-83.33Z"/><path class="cls-2" d="m447.92,114.17c0-5.52-4.48-10-10-10h-.83c-5.52,0-10,4.48-10,10v10.83h20.83v-10.83Z"/><path class="cls-3" d="m406.67,458.33h-10.83v10.83c0,5.52,4.48,10,10,10h10.83v-10.83c0-5.52-4.48-10-10-10Z"/><path class="cls-3" d="m490,458.33h-10.83v10.83c0,5.52,4.48,10,10,10h10.83v-10.83c0-5.52-4.48-10-10-10Z"/><path class="cls-3" d="m531.25,218.75h0v-41.67h-10.83c-5.52,0-10,4.48-10,10v42.5c0,5.52,4.48,10,10,10h42.5c5.52,0,10-4.48,10-10v-10.83h-41.67Z"/><path class="cls-3" d="m572.92,218.75h10.83c5.52,0,10-4.48,10-10v-.83c0-5.52-4.48-10-10-10h-10.83v20.83Z"/><path class="cls-3" d="m583.75,156.25h-10.83v20.83h10.83c5.52,0,10-4.48,10-10v-.83c0-5.52-4.48-10-10-10Z"/><path class="cls-3" d="m552.08,187.08v.83c0,5.52,4.48,10,10,10h10.83v-20.83h-10.83c-5.52,0-10,4.48-10,10Z"/><path class="cls-3" d="m572.92,145.83v-.42c0-5.52-4.48-10-10-10h-31.67v20.83h41.67v-10.42h0Z"/></g></svg>