<svg height="320" shape-rendering="crispEdges" viewBox="0 0 320 320" width="320" xmlns="http://www.w3.org/2000/svg"><rect fill="#e1d7d5" height="100%" width="100%"/><g fill="#ae3208"><path d="m90 210h140v10h-140z"/><path d="m90 220h140v10h-140z"/><path d="m90 230h140v10h-140z"/><path d="m90 240h140v10h-140z"/><path d="m90 250h20v10h-20z"/><path d="m120 250h110v10h-110z"/><path d="m90 260h20v10h-20z"/><path d="m120 260h110v10h-110z"/><path d="m90 270h20v10h-20z"/><path d="m120 270h110v10h-110z"/><path d="m90 280h20v10h-20z"/><path d="m120 280h110v10h-110z"/><path d="m90 290h20v10h-20z"/><path d="m120 290h110v10h-110z"/><path d="m90 300h20v10h-20z"/><path d="m120 300h110v10h-110z"/><path d="m90 310h20v10h-20z"/><path d="m120 310h110v10h-110z"/></g><path d="m90 210h140v10h-140z" fill="#1f1d29"/><path d="m90 220h140v10h-140z" fill="#1f1d29"/><path d="m90 230h140v10h-140z" fill="#1f1d29"/><path d="m90 240h140v10h-140z" fill="#1f1d29"/><path d="m90 250h20v10h-20z" fill="#1f1d29"/><path d="m120 250h110v10h-110z" fill="#1f1d29"/><path d="m90 260h20v10h-20z" fill="#1f1d29"/><path d="m120 260h110v10h-110z" fill="#1f1d29"/><path d="m90 270h20v10h-20z" fill="#1f1d29"/><path d="m120 270h110v10h-110z" fill="#1f1d29"/><path d="m90 280h20v10h-20z" fill="#1f1d29"/><path d="m120 280h110v10h-110z" fill="#1f1d29"/><path d="m90 290h20v10h-20z" fill="#1f1d29"/><path d="m120 290h110v10h-110z" fill="#1f1d29"/><path d="m90 300h20v10h-20z" fill="#1f1d29"/><path d="m120 300h110v10h-110z" fill="#1f1d29"/><path d="m90 310h20v10h-20z" fill="#1f1d29"/><path d="m120 310h110v10h-110z" fill="#1f1d29"/><path d="m50 50h220v10h-220z" fill="#2b2834"/><path d="m60 60h20v10h-20z" fill="#2b2834"/><path d="m90 60h20v10h-20z" fill="#2b2834"/><path d="m120 60h20v10h-20z" fill="#2b2834"/><path d="m150 60h20v10h-20z" fill="#2b2834"/><path d="m180 60h20v10h-20z" fill="#2b2834"/><path d="m210 60h20v10h-20z" fill="#2b2834"/><path d="m240 60h20v10h-20z" fill="#2b2834"/><path d="m50 70h220v10h-220z" fill="#2b2834"/><path d="m50 80h20v10h-20z" fill="#0079fc"/><path d="m70 80h10v10h-10z" fill="#2b2834"/><path d="m80 80h160v10h-160z" fill="#0079fc"/><path d="m240 80h10v10h-10z" fill="#2b2834"/><path d="m250 80h20v10h-20z" fill="#0079fc"/><path d="m50 90h20v10h-20z" fill="#0079fc"/><path d="m70 90h10v10h-10z" fill="#2b2834"/><path d="m80 90h160v10h-160z" fill="#0079fc"/><path d="m240 90h10v10h-10z" fill="#2b2834"/><path d="m250 90h20v10h-20z" fill="#0079fc"/><path d="m50 100h20v10h-20z" fill="#0079fc"/><path d="m70 100h10v10h-10z" fill="#2b2834"/><path d="m80 100h160v10h-160z" fill="#0079fc"/><path d="m240 100h10v10h-10z" fill="#2b2834"/><path d="m250 100h20v10h-20z" fill="#0079fc"/><path d="m50 110h20v10h-20z" fill="#0079fc"/><path d="m70 110h10v10h-10z" fill="#2b2834"/><path d="m80 110h160v10h-160z" fill="#0079fc"/><path d="m240 110h10v10h-10z" fill="#2b2834"/><path d="m250 110h20v10h-20z" fill="#0079fc"/><path d="m50 120h10v10h-10z" fill="#0079fc"/><path d="m60 120h10v10h-10z" fill="#027ee6"/><path d="m70 120h10v10h-10z" fill="#2b2834"/><path d="m80 120h160v10h-160z" fill="#0079fc"/><path d="m240 120h10v10h-10z" fill="#2b2834"/><path d="m250 120h20v10h-20z" fill="#0079fc"/><path d="m50 130h20v10h-20z" fill="#0079fc"/><path d="m70 130h10v10h-10z" fill="#2b2834"/><path d="m80 130h160v10h-160z" fill="#0079fc"/><path d="m240 130h10v10h-10z" fill="#2b2834"/><path d="m250 130h20v10h-20z" fill="#0079fc"/><path d="m50 140h20v10h-20z" fill="#0079fc"/><path d="m70 140h10v10h-10z" fill="#2b2834"/><path d="m80 140h160v10h-160z" fill="#0079fc"/><path d="m240 140h10v10h-10z" fill="#2b2834"/><path d="m250 140h20v10h-20z" fill="#0079fc"/><path d="m50 150h20v10h-20z" fill="#0079fc"/><path d="m70 150h10v10h-10z" fill="#2b2834"/><path d="m80 150h160v10h-160z" fill="#0079fc"/><path d="m240 150h10v10h-10z" fill="#2b2834"/><path d="m250 150h20v10h-20z" fill="#0079fc"/><path d="m50 160h20v10h-20z" fill="#0079fc"/><path d="m70 160h10v10h-10z" fill="#2b2834"/><path d="m80 160h160v10h-160z" fill="#0079fc"/><path d="m240 160h10v10h-10z" fill="#2b2834"/><path d="m250 160h20v10h-20z" fill="#0079fc"/><path d="m50 170h20v10h-20z" fill="#0079fc"/><path d="m70 170h10v10h-10z" fill="#2b2834"/><path d="m80 170h160v10h-160z" fill="#0079fc"/><path d="m240 170h10v10h-10z" fill="#2b2834"/><path d="m250 170h20v10h-20z" fill="#0079fc"/><path d="m50 180h220v10h-220z" fill="#2b2834"/><path d="m60 190h20v10h-20z" fill="#2b2834"/><path d="m90 190h20v10h-20z" fill="#2b2834"/><path d="m120 190h20v10h-20z" fill="#2b2834"/><path d="m150 190h20v10h-20z" fill="#2b2834"/><path d="m180 190h20v10h-20z" fill="#2b2834"/><path d="m210 190h20v10h-20z" fill="#2b2834"/><path d="m240 190h20v10h-20z" fill="#2b2834"/><path d="m50 200h220v10h-220z" fill="#2b2834"/><path d="m100 110h60v10h-60z"/><path d="m170 110h60v10h-60z"/><path d="m100 120h30v10h-30z"/><path d="m130 120h10v10h-10z" fill="#ff0e0e"/><path d="m140 120h20v10h-20z"/><path d="m170 120h30v10h-30z"/><path d="m200 120h10v10h-10z" fill="#ff0e0e"/><path d="m210 120h20v10h-20z"/><path d="m70 130h160v10h-160z"/><path d="m70 140h10v10h-10z"/><path d="m100 140h10v10h-10z"/><path d="m110 140h10v10h-10z" fill="#0adc4d"/><path d="m120 140h20v10h-20z"/><path d="m140 140h10v10h-10z" fill="#1929f4"/><path d="m150 140h10v10h-10z"/><path d="m170 140h10v10h-10z"/><path d="m180 140h10v10h-10z" fill="#0adc4d"/><path d="m190 140h20v10h-20z"/><path d="m210 140h10v10h-10z" fill="#1929f4"/><path d="m220 140h10v10h-10z"/><path d="m70 150h10v10h-10z"/><path d="m100 150h60v10h-60z"/><path d="m170 150h60v10h-60z"/><path d="m100 160h60v10h-60z"/><path d="m170 160h60v10h-60z"/></svg>