<svg height="320" shape-rendering="crispEdges" viewBox="0 0 320 320" width="320" xmlns="http://www.w3.org/2000/svg"><rect fill="#d5d7e1" height="100%" width="100%"/><g fill="#ae3208"><path d="m90 210h140v10h-140z"/><path d="m90 220h140v10h-140z"/><path d="m90 230h140v10h-140z"/><path d="m90 240h140v10h-140z"/><path d="m90 250h20v10h-20z"/><path d="m120 250h110v10h-110z"/><path d="m90 260h20v10h-20z"/><path d="m120 260h110v10h-110z"/><path d="m90 270h20v10h-20z"/><path d="m120 270h110v10h-110z"/><path d="m90 280h20v10h-20z"/><path d="m120 280h110v10h-110z"/><path d="m90 290h20v10h-20z"/><path d="m120 290h110v10h-110z"/><path d="m90 300h20v10h-20z"/><path d="m120 300h110v10h-110z"/><path d="m90 310h20v10h-20z"/><path d="m120 310h110v10h-110z"/></g><path d="m120 210h10v10h-10z" fill="#ffc110"/><path d="m190 210h10v10h-10z" fill="#ffc110"/><path d="m130 220h10v10h-10z" fill="#ffc110"/><path d="m180 220h10v10h-10z" fill="#ffc110"/><path d="m140 230h10v10h-10z" fill="#ffc110"/><path d="m170 230h10v10h-10z" fill="#ffc110"/><path d="m150 240h20v10h-20z" fill="#ffc110"/><path d="m150 250h20v10h-20z" fill="#ffc110"/><path d="m140 260h40v10h-40z" fill="#ffc110"/><path d="m140 270h40v10h-40z" fill="#ffc110"/><path d="m130 280h60v10h-60z" fill="#ffc110"/><path d="m130 290h60v10h-60z" fill="#ffc110"/><path d="m140 60h10v10h-10z" fill="#c16710"/><path d="m160 60h20v10h-20z" fill="#c16710"/><path d="m90 70h30v10h-30z" fill="#d4a015"/><path d="m130 70h60v10h-60z" fill="#c16710"/><path d="m200 70h30v10h-30z" fill="#d4a015"/><path d="m70 80h20v10h-20z" fill="#c16710"/><path d="m90 80h30v10h-30z" fill="#d4a015"/><path d="m120 80h60v10h-60z" fill="#c16710"/><path d="m200 80h30v10h-30z" fill="#d4a015"/><path d="m70 90h20v10h-20z" fill="#c16710"/><path d="m90 90h70v10h-70z" fill="#d4a015"/><path d="m160 90h10v10h-10z" fill="#c16710"/><path d="m170 90h60v10h-60z" fill="#d4a015"/><path d="m60 100h30v10h-30z" fill="#c16710"/><path d="m90 100h60v10h-60z" fill="#d4a015"/><path d="m150 100h30v10h-30z" fill="#ffe939"/><path d="m180 100h50v10h-50z" fill="#d4a015"/><path d="m70 110h20v10h-20z" fill="#c16710"/><path d="m90 110h70v10h-70z" fill="#d4a015"/><path d="m160 110h10v10h-10z" fill="#ffe939"/><path d="m170 110h60v10h-60z" fill="#d4a015"/><path d="m70 120h20v10h-20z" fill="#c16710"/><path d="m90 120h70v10h-70z" fill="#d4a015"/><path d="m160 120h10v10h-10z" fill="#ffe939"/><path d="m170 120h60v10h-60z" fill="#d4a015"/><path d="m60 130h30v10h-30z" fill="#c16710"/><path d="m90 130h70v10h-70z" fill="#d4a015"/><path d="m160 130h10v10h-10z" fill="#ffe939"/><path d="m170 130h60v10h-60z" fill="#d4a015"/><path d="m70 140h20v10h-20z" fill="#c16710"/><path d="m90 140h70v10h-70z" fill="#d4a015"/><path d="m160 140h10v10h-10z" fill="#ffe939"/><path d="m170 140h60v10h-60z" fill="#d4a015"/><path d="m70 150h20v10h-20z" fill="#c16710"/><path d="m90 150h70v10h-70z" fill="#d4a015"/><path d="m160 150h10v10h-10z" fill="#ffe939"/><path d="m170 150h60v10h-60z" fill="#d4a015"/><path d="m60 160h30v10h-30z" fill="#c16710"/><path d="m90 160h180v10h-180z" fill="#d08b11"/><path d="m70 170h20v10h-20z" fill="#c16710"/><path d="m90 170h140v10h-140z" fill="#d08b11"/><path d="m230 170h10v10h-10z"/><path d="m240 170h10v10h-10z" fill="#d08b11"/><path d="m250 170h10v10h-10z"/><path d="m260 170h10v10h-10z" fill="#d08b11"/><path d="m60 180h30v10h-30z" fill="#c16710"/><path d="m90 180h20v10h-20z" fill="#d08b11"/><path d="m110 180h10v10h-10z" fill="#ffe939"/><path d="m120 180h10v10h-10z"/><path d="m130 180h10v10h-10z" fill="#ffe939"/><path d="m140 180h10v10h-10z"/><path d="m150 180h10v10h-10z" fill="#ffe939"/><path d="m160 180h10v10h-10z"/><path d="m170 180h10v10h-10z" fill="#ffe939"/><path d="m180 180h90v10h-90z" fill="#d08b11"/><path d="m50 190h40v10h-40z" fill="#c16710"/><path d="m90 190h180v10h-180z" fill="#d08b11"/><path d="m60 200h30v10h-30z" fill="#c16710"/><path d="m90 200h180v10h-180z" fill="#d08b11"/><path d="m60 210h10v10h-10z" fill="#c16710"/><path d="m80 210h10v10h-10z" fill="#c16710"/><path d="m90 210h140v10h-140z" fill="#d08b11"/><path d="m100 110h60v10h-60z" fill="#ec5b43"/><path d="m170 110h60v10h-60z" fill="#ec5b43"/><path d="m100 120h10v10h-10z" fill="#ec5b43"/><path d="m110 120h20v10h-20z" fill="#fff"/><path d="m130 120h20v10h-20z"/><path d="m150 120h10v10h-10z" fill="#ec5b43"/><path d="m170 120h10v10h-10z" fill="#ec5b43"/><path d="m180 120h20v10h-20z" fill="#fff"/><path d="m200 120h20v10h-20z"/><path d="m220 120h10v10h-10z" fill="#ec5b43"/><path d="m70 130h40v10h-40z" fill="#ec5b43"/><path d="m110 130h20v10h-20z" fill="#fff"/><path d="m130 130h20v10h-20z"/><path d="m150 130h30v10h-30z" fill="#ec5b43"/><path d="m180 130h20v10h-20z" fill="#fff"/><path d="m200 130h20v10h-20z"/><path d="m220 130h10v10h-10z" fill="#ec5b43"/><path d="m70 140h10v10h-10z" fill="#ec5b43"/><path d="m100 140h10v10h-10z" fill="#ec5b43"/><path d="m110 140h20v10h-20z" fill="#fff"/><path d="m130 140h20v10h-20z"/><path d="m150 140h10v10h-10z" fill="#ec5b43"/><path d="m170 140h10v10h-10z" fill="#ec5b43"/><path d="m180 140h20v10h-20z" fill="#fff"/><path d="m200 140h20v10h-20z"/><path d="m220 140h10v10h-10z" fill="#ec5b43"/><path d="m70 150h10v10h-10z" fill="#ec5b43"/><path d="m100 150h10v10h-10z" fill="#ec5b43"/><path d="m110 150h20v10h-20z" fill="#fff"/><path d="m130 150h20v10h-20z"/><path d="m150 150h10v10h-10z" fill="#ec5b43"/><path d="m170 150h10v10h-10z" fill="#ec5b43"/><path d="m180 150h20v10h-20z" fill="#fff"/><path d="m200 150h20v10h-20z"/><path d="m220 150h10v10h-10z" fill="#ec5b43"/><path d="m100 160h60v10h-60z" fill="#ec5b43"/><path d="m170 160h60v10h-60z" fill="#ec5b43"/></svg>