<svg height="320" shape-rendering="crispEdges" viewBox="0 0 320 320" width="320" xmlns="http://www.w3.org/2000/svg"><rect fill="#d5d7e1" height="100%" width="100%"/><g fill="#c5b9a1"><path d="m90 210h140v10h-140z"/><path d="m90 220h140v10h-140z"/><path d="m90 230h140v10h-140z"/><path d="m90 240h140v10h-140z"/><path d="m90 250h20v10h-20z"/><path d="m120 250h110v10h-110z"/><path d="m90 260h20v10h-20z"/><path d="m120 260h110v10h-110z"/><path d="m90 270h20v10h-20z"/><path d="m120 270h110v10h-110z"/><path d="m90 280h20v10h-20z"/><path d="m120 280h110v10h-110z"/><path d="m90 290h20v10h-20z"/><path d="m120 290h110v10h-110z"/><path d="m90 300h20v10h-20z"/><path d="m120 300h110v10h-110z"/><path d="m90 310h20v10h-20z"/><path d="m120 310h110v10h-110z"/></g><path d="m160 220h10v10h-10z" fill="#eab118"/><path d="m150 230h10v10h-10z" fill="#eab118"/><path d="m160 230h10v10h-10z" fill="#db8323"/><path d="m170 230h10v10h-10z" fill="#eab118"/><path d="m160 240h10v10h-10z" fill="#eab118"/><path d="m150 250h30v10h-30z" fill="#eab118"/><path d="m140 260h10v10h-10z" fill="#eab118"/><path d="m150 260h30v10h-30z" fill="#db8323"/><path d="m180 260h10v10h-10z" fill="#eab118"/><path d="m140 270h20v10h-20z" fill="#eab118"/><path d="m160 270h20v10h-20z" fill="#db8323"/><path d="m180 270h10v10h-10z" fill="#eab118"/><path d="m140 280h10v10h-10z" fill="#eab118"/><path d="m150 280h30v10h-30z" fill="#db8323"/><path d="m180 280h10v10h-10z" fill="#eab118"/><path d="m150 290h30v10h-30z" fill="#eab118"/><path d="m110 20h20v10h-20z" fill="#f9f4e6"/><path d="m150 20h30v10h-30z" fill="#f9f4e6"/><path d="m100 30h110v10h-110z" fill="#f9f4e6"/><path d="m90 40h150v10h-150z" fill="#f9f4e6"/><path d="m90 50h150v10h-150z" fill="#f9f4e6"/><path d="m80 60h170v10h-170z" fill="#f9f4e6"/><path d="m80 70h10v10h-10z" fill="#f9f4e6"/><path d="m90 70h10v10h-10z" fill="#f78a18"/><path d="m100 70h120v10h-120z" fill="#f9f4e6"/><path d="m220 70h10v10h-10z" fill="#ffe939"/><path d="m230 70h20v10h-20z" fill="#f9f4e6"/><path d="m90 80h30v10h-30z" fill="#f78a18"/><path d="m120 80h20v10h-20z" fill="#f9f4e6"/><path d="m140 80h10v10h-10z" fill="#f78a18"/><path d="m150 80h20v10h-20z" fill="#d9391f"/><path d="m170 80h50v10h-50z" fill="#f9f4e6"/><path d="m220 80h10v10h-10z" fill="#ffe939"/><path d="m230 80h10v10h-10z" fill="#f9f4e6"/><path d="m60 90h30v10h-30z" fill="#f8ddb0"/><path d="m90 90h30v10h-30z" fill="#f78a18"/><path d="m120 90h20v10h-20z" fill="#d9391f"/><path d="m140 90h10v10h-10z" fill="#f78a18"/><path d="m150 90h20v10h-20z" fill="#d9391f"/><path d="m170 90h10v10h-10z" fill="#f78a18"/><path d="m180 90h10v10h-10z" fill="#d9391f"/><path d="m190 90h20v10h-20z" fill="#f9f4e6"/><path d="m210 90h10v10h-10z" fill="#f78a18"/><path d="m220 90h10v10h-10z" fill="#ffe939"/><path d="m230 90h10v10h-10z" fill="#f9f4e6"/><path d="m60 100h30v10h-30z" fill="#f8ddb0"/><path d="m90 100h30v10h-30z" fill="#f78a18"/><path d="m120 100h20v10h-20z" fill="#d9391f"/><path d="m140 100h10v10h-10z" fill="#f78a18"/><path d="m150 100h20v10h-20z" fill="#d9391f"/><path d="m170 100h10v10h-10z" fill="#f78a18"/><path d="m180 100h20v10h-20z" fill="#d9391f"/><path d="m200 100h20v10h-20z" fill="#f78a18"/><path d="m220 100h10v10h-10z" fill="#ffe939"/><path d="m60 110h20v10h-20z" fill="#f8ddb0"/><path d="m90 110h30v10h-30z" fill="#f78a18"/><path d="m120 110h20v10h-20z" fill="#d9391f"/><path d="m140 110h10v10h-10z" fill="#f78a18"/><path d="m150 110h20v10h-20z" fill="#d9391f"/><path d="m170 110h10v10h-10z" fill="#f78a18"/><path d="m180 110h20v10h-20z" fill="#d9391f"/><path d="m200 110h20v10h-20z" fill="#f78a18"/><path d="m220 110h10v10h-10z" fill="#ffe939"/><path d="m60 120h20v10h-20z" fill="#f8ddb0"/><path d="m90 120h30v10h-30z" fill="#f78a18"/><path d="m120 120h20v10h-20z" fill="#d9391f"/><path d="m140 120h10v10h-10z" fill="#f78a18"/><path d="m150 120h20v10h-20z" fill="#d9391f"/><path d="m170 120h10v10h-10z" fill="#f78a18"/><path d="m180 120h20v10h-20z" fill="#d9391f"/><path d="m200 120h20v10h-20z" fill="#f78a18"/><path d="m220 120h10v10h-10z" fill="#ffe939"/><path d="m60 130h20v10h-20z" fill="#f8ddb0"/><path d="m90 130h30v10h-30z" fill="#f78a18"/><path d="m120 130h20v10h-20z" fill="#d9391f"/><path d="m140 130h10v10h-10z" fill="#f78a18"/><path d="m150 130h20v10h-20z" fill="#d9391f"/><path d="m170 130h10v10h-10z" fill="#f78a18"/><path d="m180 130h20v10h-20z" fill="#d9391f"/><path d="m200 130h20v10h-20z" fill="#f78a18"/><path d="m220 130h10v10h-10z" fill="#ffe939"/><path d="m60 140h20v10h-20z" fill="#f8ddb0"/><path d="m90 140h30v10h-30z" fill="#f78a18"/><path d="m120 140h20v10h-20z" fill="#d9391f"/><path d="m140 140h10v10h-10z" fill="#f78a18"/><path d="m150 140h20v10h-20z" fill="#d9391f"/><path d="m170 140h10v10h-10z" fill="#f78a18"/><path d="m180 140h20v10h-20z" fill="#d9391f"/><path d="m200 140h20v10h-20z" fill="#f78a18"/><path d="m220 140h10v10h-10z" fill="#ffe939"/><path d="m60 150h20v10h-20z" fill="#f8ddb0"/><path d="m90 150h30v10h-30z" fill="#f78a18"/><path d="m120 150h20v10h-20z" fill="#d9391f"/><path d="m140 150h10v10h-10z" fill="#f78a18"/><path d="m150 150h20v10h-20z" fill="#d9391f"/><path d="m170 150h10v10h-10z" fill="#f78a18"/><path d="m180 150h20v10h-20z" fill="#d9391f"/><path d="m200 150h20v10h-20z" fill="#f78a18"/><path d="m220 150h10v10h-10z" fill="#ffe939"/><path d="m60 160h30v10h-30z" fill="#f8ddb0"/><path d="m90 160h30v10h-30z" fill="#f78a18"/><path d="m120 160h20v10h-20z" fill="#d9391f"/><path d="m140 160h10v10h-10z" fill="#f78a18"/><path d="m150 160h20v10h-20z" fill="#d9391f"/><path d="m170 160h10v10h-10z" fill="#f78a18"/><path d="m180 160h20v10h-20z" fill="#d9391f"/><path d="m200 160h20v10h-20z" fill="#f78a18"/><path d="m220 160h10v10h-10z" fill="#ffe939"/><path d="m70 170h20v10h-20z" fill="#f8ddb0"/><path d="m90 170h30v10h-30z" fill="#f78a18"/><path d="m120 170h20v10h-20z" fill="#d9391f"/><path d="m140 170h10v10h-10z" fill="#f78a18"/><path d="m150 170h20v10h-20z" fill="#d9391f"/><path d="m170 170h10v10h-10z" fill="#f78a18"/><path d="m180 170h20v10h-20z" fill="#d9391f"/><path d="m200 170h20v10h-20z" fill="#f78a18"/><path d="m220 170h10v10h-10z" fill="#ffe939"/><path d="m90 180h130v10h-130z" fill="#f78a18"/><path d="m220 180h10v10h-10z" fill="#ffe939"/><path d="m90 190h50v10h-50z" fill="#f8ddb0"/><path d="m140 190h70v10h-70z" fill="#4d271b"/><path d="m210 190h20v10h-20z" fill="#f8ddb0"/><path d="m90 200h140v10h-140z" fill="#f8ddb0"/><path d="m100 110h60v10h-60z" fill="#9cb4b8"/><path d="m170 110h60v10h-60z" fill="#9cb4b8"/><path d="m100 120h10v10h-10z" fill="#9cb4b8"/><path d="m110 120h20v10h-20z" fill="#fff"/><path d="m130 120h20v10h-20z"/><path d="m150 120h10v10h-10z" fill="#9cb4b8"/><path d="m170 120h10v10h-10z" fill="#9cb4b8"/><path d="m180 120h20v10h-20z" fill="#fff"/><path d="m200 120h20v10h-20z"/><path d="m220 120h10v10h-10z" fill="#9cb4b8"/><path d="m70 130h40v10h-40z" fill="#9cb4b8"/><path d="m110 130h20v10h-20z" fill="#fff"/><path d="m130 130h20v10h-20z"/><path d="m150 130h30v10h-30z" fill="#9cb4b8"/><path d="m180 130h20v10h-20z" fill="#fff"/><path d="m200 130h20v10h-20z"/><path d="m220 130h10v10h-10z" fill="#9cb4b8"/><path d="m70 140h10v10h-10z" fill="#9cb4b8"/><path d="m100 140h10v10h-10z" fill="#9cb4b8"/><path d="m110 140h20v10h-20z" fill="#fff"/><path d="m130 140h20v10h-20z"/><path d="m150 140h10v10h-10z" fill="#9cb4b8"/><path d="m170 140h10v10h-10z" fill="#9cb4b8"/><path d="m180 140h20v10h-20z" fill="#fff"/><path d="m200 140h20v10h-20z"/><path d="m220 140h10v10h-10z" fill="#9cb4b8"/><path d="m70 150h10v10h-10z" fill="#9cb4b8"/><path d="m100 150h10v10h-10z" fill="#9cb4b8"/><path d="m110 150h20v10h-20z" fill="#fff"/><path d="m130 150h20v10h-20z"/><path d="m150 150h10v10h-10z" fill="#9cb4b8"/><path d="m170 150h10v10h-10z" fill="#9cb4b8"/><path d="m180 150h20v10h-20z" fill="#fff"/><path d="m200 150h20v10h-20z"/><path d="m220 150h10v10h-10z" fill="#9cb4b8"/><path d="m100 160h60v10h-60z" fill="#9cb4b8"/><path d="m170 160h60v10h-60z" fill="#9cb4b8"/></svg>