<?xml version="1.0" encoding="UTF-8"?><svg xmlns="http://www.w3.org/2000/svg" viewBox="0 0 198.32 340.16"><defs><style>.j{opacity:.11;}.j,.k{fill:red;}.l{isolation:isolate;}.m,.n,.o,.p{fill:none;stroke-miterlimit:10;}.m,.o{stroke-width:.5px;}.m,.p{stroke:#f2f2f2;}.q{mix-blend-mode:soft-light;}.n{stroke:red;}.o{stroke:#999;}.r{fill:#999;}.s{mix-blend-mode:overlay;}.k{opacity:.22;}.t{fill:#140016;}.u{fill:#f2f2f2;}</style></defs><g class="l"><g id="b"><g id="c"><g id="d"><rect class="u" width="198.32" height="340.16" rx="1.34" ry="1.34"/><g id="e"><path class="t" d="m6.93,333.51c-1.16,0-2.1-.87-2.1-1.95V8.6c0-1.08.94-1.95,2.1-1.95h184.46c1.16,0,2.1.87,2.1,1.95v322.96c0,1.08-.94,1.95-2.1,1.95"/></g><rect class="m" x="7.73" y="9.5" width="182.86" height="321.15" rx="1.34" ry="1.34"/><line id="f" class="p" x1="4.07" y1="297.39" x2="194.26" y2="297.39"/><path class="u" d="m48.88,309.24h.65l3.22,9.09h-.68l-1.82-5.35c-.37-1.08-.7-2.03-1.01-3.14h-.06c-.32,1.11-.64,2.06-1.01,3.14l-1.85,5.35h-.65l3.22-9.09Zm-1.75,5.44h4.1v.54h-4.1v-.54Z"/><path class="u" d="m54.43,317.13l.41-.44c.69.75,1.7,1.23,2.83,1.23,1.47,0,2.4-.74,2.4-1.81,0-1.15-.81-1.5-1.78-1.91l-1.39-.62c-.85-.35-1.99-.91-1.99-2.26s1.19-2.24,2.79-2.24c1.16,0,2.1.5,2.68,1.09l-.37.42c-.57-.56-1.34-.93-2.33-.93-1.28,0-2.14.64-2.14,1.62,0,1.06.99,1.46,1.72,1.75l1.38.62c1.09.45,2.06,1.02,2.06,2.4s-1.2,2.45-3.06,2.45c-1.39,0-2.48-.56-3.22-1.37Z"/><path class="u" d="m62.75,317.13l.41-.44c.69.75,1.7,1.23,2.83,1.23,1.47,0,2.4-.74,2.4-1.81,0-1.15-.81-1.5-1.78-1.91l-1.39-.62c-.85-.35-1.99-.91-1.99-2.26s1.19-2.24,2.79-2.24c1.16,0,2.1.5,2.68,1.09l-.37.42c-.57-.56-1.34-.93-2.33-.93-1.28,0-2.14.64-2.14,1.62,0,1.06.99,1.46,1.72,1.75l1.38.62c1.09.45,2.06,1.02,2.06,2.4s-1.2,2.45-3.06,2.45c-1.39,0-2.48-.56-3.22-1.37Z"/><path class="u" d="m71.51,317.78h2.35v-7.99h-2.35v-.55h5.35v.55h-2.35v7.99h2.35v.55h-5.35v-.55Z"/><path class="u" d="m82.19,309.24h.65l3.22,9.09h-.68l-1.82-5.35c-.37-1.08-.7-2.03-1.01-3.14h-.06c-.32,1.11-.64,2.06-1.01,3.14l-1.85,5.35h-.65l3.22-9.09Zm-1.75,5.44h4.1v.54h-4.1v-.54Z"/><path class="u" d="m87.9,309.24h.64v3.98h4.59v-3.98h.64v9.09h-.64v-4.55h-4.59v4.55h-.64v-9.09Z"/><path class="u" d="m107.21,307.99h.56v13.79h-.56v-13.79Z"/><path class="u" d="m122.06,309.24h5.34v.55h-4.7v3.62h3.96v.55h-3.96v4.37h-.64v-9.09Z"/><path class="u" d="m129.8,317.78h2.35v-7.99h-2.35v-.55h5.35v.55h-2.35v7.99h2.35v.55h-5.35v-.55Z"/><path class="u" d="m138.26,309.24h2.61c1.82,0,3.01.66,3.01,2.4s-1.2,2.51-3.01,2.51h-1.97v4.17h-.64v-9.09Zm2.45,4.38c1.62,0,2.52-.64,2.52-1.98s-.9-1.87-2.52-1.87h-1.8v3.84h1.8Zm.63.17l2.72,4.54h-.74l-2.59-4.36.61-.18Z"/><path class="u" d="m146.72,309.24h5.42v.55h-4.77v3.44h4.02v.55h-4.02v4.01h4.91v.55h-5.55v-9.09Z"/><path class="u" d="m102.11,89.17c.62-.76,1.19-1.62,1.72-2.57.53-.95.95-1.96,1.26-3.03.31-1.07.46-2.16.46-3.25,0-1.57-.33-2.78-.98-3.63-.66-.86-1.68-1.28-3.06-1.28h-3.61c-.91,0-1.62-.23-2.13-.68-.51-.46-.77-1.16-.77-2.1v-.22h-1.47c-.18,1.02-.34,1.82-.46,2.4-.13.58-.21,1.07-.25,1.45-.04.38-.05.77-.05,1.17,0,1.42.23,2.43.68,3.03.45.6,1.12.9,1.99.9h4.81c.58,0,.96.16,1.15.46.18.31.27.72.27,1.23,0,.91-.23,1.81-.68,2.7-.46.89-1.34,2.1-2.65,3.63l-1.69,1.97,1.91,2.02,3.55-4.21Z"/><path id="g" class="p" d="m85.74,99.6s5.15,4.32,13.42,4.32,13.43-4.32,13.43-4.32c20.1,0,43.03,2.4,43.03,2.4.62,0,1.12.86,1.12,1.91,0,0,1.32,9.65,1.27,20.23-.05,10.57-1.27,24.71-1.27,24.71,0,1.15-.59,2.03-1.25,1.9,0,0-25.41-4.75-55.25-4.75s-57.34,4.76-57.34,4.76c-.67.11-1.3-.77-1.3-1.91,0,0-1.24-14.95-1.29-24.66-.05-9.71,1.29-20.28,1.29-20.28,0-1.06.5-1.91,1.12-1.91,0,0,22.91-2.4,43.01-2.4"/><circle id="h" class="p" cx="99.16" cy="81.01" r="22.95"/><path id="i" class="u" d="m105.91,138.47v-13.55c0-1.35.05-2.53.15-3.53.1-1,.22-1.87.35-2.6.13-.74.24-1.34.33-1.81v-.13h-15.8c-.68,0-1.21-.24-1.59-.71-.38-.47-.57-1.25-.57-2.34,0-.38.01-.75.04-1.1.03-.35.1-.77.2-1.26.1-.49.23-1.1.38-1.83h1.19v.44c0,.71.22,1.21.66,1.52s1,.46,1.68.46h15.27c.5,0,.85.1,1.04.31.19.21.29.59.29,1.15v2.96l-1.15.4.57,20.04c-.32.32-.68.61-1.06.86-.38.25-.82.49-1.32.73h-.66Zm-16.33,0v-11.87c0-1,.1-1.75.31-2.25.21-.5.54-.81,1.02-.93l1.41-.4.26.31.04,13.55c-.32.32-.68.61-1.06.86-.38.25-.82.49-1.32.73h-.66Z"/><path class="p" d="m99.16,235.06c28.25,0,49.09-7.42,50.81-10.9-8.65-3.2-46.68-21.62-48.83-22.62-2.15-.99-27.66-14.58-38.12-22.06-10.46-7.48-10.71-12.4-10.71-12.4,0,0,9.02-8.85,46.85-8.85h0c37.83,0,46.85,8.85,46.85,8.85,0,0-.24,4.92-10.71,12.4-10.46,7.48-35.97,21.07-38.12,22.06-2.15.99-40.18,19.41-48.83,22.62,1.72,3.48,25.46,10.9,50.81,10.9h0Z"/><polygon class="j" points="59.95 226.35 138.57 226.35 99.26 159.17 59.95 226.35"/><polygon class="n" points="59.95 226.35 138.57 226.35 99.26 159.17 59.95 226.35"/><path class="k" d="m157.83,282.09H40.37v-57.87c8.83,18.92,108.55,19.08,117.46,0v57.87Z"/><path class="n" d="m157.96,282.09H40.5v-57.87c8.83,18.92,108.55,19.08,117.46,0v57.87Z"/><g class="q"><path class="u" d="m105.85,274.8v-13.55c0-1.35.05-2.53.15-3.53.1-1,.22-1.87.35-2.6.13-.74.24-1.34.33-1.81v-.13h-15.8c-.68,0-1.21-.24-1.59-.71-.38-.47-.57-1.25-.57-2.34,0-.38.01-.75.04-1.1.03-.35.1-.77.2-1.26.1-.49.23-1.1.38-1.83h1.19v.44c0,.71.22,1.21.66,1.52s1,.46,1.68.46h15.27c.5,0,.85.1,1.04.31.19.21.29.59.29,1.15v2.96l-1.15.4.57,20.04c-.32.32-.68.61-1.06.86-.38.25-.82.49-1.32.73h-.66Zm-16.33,0v-11.87c0-1,.1-1.75.31-2.25.21-.5.54-.81,1.02-.93l1.41-.4.26.31.04,13.55c-.32.32-.68.61-1.06.86-.38.25-.82.49-1.32.73h-.66Z"/></g><g class="s"><path class="u" d="m105.85,274.8v-13.55c0-1.35.05-2.53.15-3.53.1-1,.22-1.87.35-2.6.13-.74.24-1.34.33-1.81v-.13h-15.8c-.68,0-1.21-.24-1.59-.71-.38-.47-.57-1.25-.57-2.34,0-.38.01-.75.04-1.1.03-.35.1-.77.2-1.26.1-.49.23-1.1.38-1.83h1.19v.44c0,.71.22,1.21.66,1.52s1,.46,1.68.46h15.27c.5,0,.85.1,1.04.31.19.21.29.59.29,1.15v2.96l-1.15.4.57,20.04c-.32.32-.68.61-1.06.86-.38.25-.82.49-1.32.73h-.66Zm-16.33,0v-11.87c0-1,.1-1.75.31-2.25.21-.5.54-.81,1.02-.93l1.41-.4.26.31.04,13.55c-.32.32-.68.61-1.06.86-.38.25-.82.49-1.32.73h-.66Z"/></g><path class="r" d="m98.42,21.74v1.18h.42c.06,0,.09.01.12.03.02.02.03.05.03.08,0,.03-.01.06-.03.08-.02.02-.06.03-.12.03h-.94c-.05,0-.09-.01-.12-.03-.02-.02-.03-.05-.03-.08,0-.03.01-.06.03-.08.02-.02.06-.03.12-.03h.3v-2.69h-.3c-.05,0-.09-.01-.12-.03-.02-.02-.03-.05-.03-.08s.01-.06.03-.08c.02-.02.06-.03.12-.03h1.36c.28,0,.52.09.71.27.19.18.29.38.29.6,0,.16-.06.31-.18.45-.12.14-.32.26-.6.36.16.11.3.24.41.38.11.14.3.43.55.86h.17c.05,0,.09.01.12.03.02.02.03.05.03.08,0,.03-.01.06-.03.08-.02.02-.06.03-.12.03h-.3c-.28-.5-.49-.83-.65-1-.15-.17-.33-.3-.53-.4h-.72Zm0-.23h.61c.2,0,.38-.04.54-.11.16-.07.28-.16.35-.25s.11-.19.11-.3c0-.15-.08-.29-.23-.43-.15-.14-.33-.2-.55-.2h-.83v1.29Z"/><path class="r" d="m93,29.17h-1.48l-.3.82h.43c.05,0,.09.01.12.03.02.02.03.05.03.08,0,.03-.01.06-.03.08-.02.02-.06.03-.12.03h-.84c-.05,0-.09-.01-.12-.03-.02-.02-.03-.05-.03-.08,0-.03.01-.06.03-.08.02-.02.06-.03.12-.03h.17l1-2.69h-.67c-.05,0-.09-.01-.12-.03-.02-.02-.03-.05-.03-.08s.01-.06.03-.08c.02-.02.06-.03.12-.03h1.13l1.1,2.91h.17c.05,0,.09.01.12.03.02.02.03.05.03.08,0,.03-.01.06-.03.08-.02.02-.06.03-.12.03h-.84c-.06,0-.09-.01-.12-.03-.02-.02-.03-.05-.03-.08,0-.03.01-.06.03-.08.02-.02.06-.03.12-.03h.43l-.31-.82Zm-.09-.23l-.62-1.64h-.08l-.6,1.64h1.31Z"/><path class="r" d="m107.67,28.73c0,.3-.06.58-.18.84-.12.26-.29.46-.5.6-.21.14-.44.21-.69.21-.36,0-.68-.15-.96-.46s-.41-.7-.41-1.19.14-.88.41-1.19c.28-.31.6-.46.96-.46.25,0,.47.07.69.21.21.14.38.34.5.6.12.26.18.53.18.84Zm-.23,0c0-.37-.11-.7-.32-.99-.21-.29-.49-.44-.83-.44-.32,0-.59.14-.81.42-.22.28-.34.61-.34,1.01,0,.42.12.76.35,1.03.24.27.5.4.8.4.34,0,.61-.15.83-.44.21-.29.32-.62.32-.99Z"/><path class="r" d="m99.27,34.08v2.69h.58c.05,0,.09.01.12.03.02.02.03.05.03.08,0,.03-.01.06-.03.08-.02.02-.06.03-.12.03h-1.4c-.05,0-.09-.01-.12-.03-.02-.02-.03-.05-.03-.08,0-.03.01-.06.03-.08.02-.02.06-.03.12-.03h.58v-2.69h-.92v.78c0,.06-.01.09-.03.12-.02.02-.05.03-.08.03-.03,0-.06-.01-.08-.03-.02-.02-.03-.06-.03-.12v-1.01h2.52v1.01c0,.06-.01.09-.03.12-.02.02-.05.03-.08.03s-.06-.01-.08-.03c-.02-.02-.03-.06-.03-.12v-.78h-.92Z"/><path class="o" d="m106.29,26.44c-.74-2.52-2.78-4.48-5.33-5.11"/><path class="o" d="m100.97,35.71c2.37-.59,4.28-2.31,5.14-4.55"/><path class="o" d="m92.26,31.17c.84,2.2,2.7,3.89,4.99,4.51"/><path class="o" d="m97.5,21.48c-2.54.67-4.55,2.65-5.25,5.18"/></g></g></g></g></svg>