<svg xmlns="http://www.w3.org/2000/svg" width="512" height="512" fill="none"><path fill="#F90" d="M0 0h512v512H0z"/><path fill="#CACACA" d="M84 340h344v160H84z"/><rect width="16" height="16" x="343" y="377" fill="#1D1D1D" rx="8"/><rect width="12" height="12" x="120" y="412" fill="#1D1D1D" rx="6"/><rect width="16" height="16" x="370" y="425" fill="#1D1D1D" rx="8"/><rect width="16" height="16" x="148" y="450" fill="#1D1D1D" rx="8"/><g><animateTransform attributeName="transform" dur="0.4s" keyTimes="0;0.5;1" repeatCount="indefinite" type="translate" values="0 0;0 28;0 0"/><path fill="#E3E3E3" d="M196 176h120v296H196z"/><path fill="#CACACA" d="M196 96h120v80H196z"/><path fill="#E3E3E3" d="M250 96h12v36h-12z"><animate attributeName="fill" begin="5s" dur="0.4s" repeatCount="5" values="#E3E3E3; #fff; #E3E3E3"/></path><rect width="16" height="16" x="280" y="330" fill="#1D1D1D" rx="8"/><rect width="16" height="16" x="280" y="404" fill="#1D1D1D" rx="8"/><rect width="24" height="24" x="210" y="287" fill="#1D1D1D" rx="12"/><rect width="24" height="24" x="210" y="417" fill="#1D1D1D" rx="12"/><path fill="#121212" d="M196 108h120V44H196v64Z"/><path fill="#2D2D2D" d="M181 140h151l-16-32H196l-15 32Z"/><path fill="#121212" d="M202 179h48v20l-12 28h-36v-48Z"/><path stroke="#FFB74A" stroke-width="6" d="M202 179h48v20l-12 28h-36v-48Zm0 0h-6M247 179h19M247 197h19"/><path fill="#121212" d="M310 179h-48v20l12 28h36v-48Z"/><path stroke="#FFB74A" stroke-width="6" d="M310 179h-48v20l12 28h36v-48Zm0 0h6"/><mask id="a" width="42" height="42" x="205" y="182" maskUnits="userSpaceOnUse" style="mask-type:alpha"><path fill="#121212" d="M205 182h42v16.336L242 210l-6 14h-31v-42Z"/></mask><g mask="url(#a)"><path fill="#FFF" d="M213.112 182h8.77l-10.524 43.235h-8.77L213.112 182Z"><animateTransform attributeName="transform" dur="4s" keyTimes="0;0.1;0.3;1" repeatCount="indefinite" type="translate" values="-32 0;-32 0;48 0;48 0"/></path></g><mask id="b" width="42" height="42" x="265" y="182" maskUnits="userSpaceOnUse" style="mask-type:alpha"><path fill="#121212" d="M265 182h42v42h-31l-11-25.5V182Z"/></mask><g mask="url(#b)"><path fill="#FFF" d="M271.112 182h8.77l-10.524 43.235h-8.77L271.112 182Z"><animateTransform attributeName="transform" dur="4s" keyTimes="0;0.1;0.3;1" repeatCount="indefinite" type="translate" values="-32 0;-32 0;48 0;48 0"/></path></g><path fill="#fff" d="M298.785 326.892 220 313s-6.946 39.392 32.474 46.343c39.421 6.951 46.311-32.451 46.311-32.451Z"/></g></svg>