<svg xmlns="http://www.w3.org/2000/svg" width="512" height="512" fill="none"><path fill="#F90" d="M0 0h512v512H0z"/><path fill="#B7009A" d="M84 340h344v160H84z"/><g><animateTransform attributeName="transform" dur="0.4s" keyTimes="0;0.5;1" repeatCount="indefinite" type="translate" values="0 0;0 28;0 0"/><path fill="#D800B5" d="M196 176h120v296H196z"/><path fill="#B7009A" d="M196 96h120v80H196z"/><path fill="#D800B5" d="M250 96h12v36h-12z"><animate attributeName="fill" begin="5s" dur="0.4s" repeatCount="5" values="#D800B5; #fff; #D800B5"/></path><path fill="#fff" d="m256 272-13-28 13-28 12 28-12 28Z"/><circle cx="256" cy="244" r="8" fill="#007089" transform="rotate(-90 256 244)"><animate attributeName="cx" dur="2s" keyTimes="0;0.1;0.7;0.8;1" repeatCount="indefinite" values="250;264;264;250;250"/></circle><path fill="#fff" d="m228 420 28-13 28 13-28 12-28-12Z"/><circle cx="256" cy="420" r="8" fill="#007089"><animate attributeName="cx" dur="3s" keyTimes="0;0.05;0.65;0.75;1" repeatCount="indefinite" values="264;250;250;264;264"/></circle><path fill="#fff" d="m228 364 28-13 28 13-28 12-28-12Z"/><circle cx="256" cy="364" r="8" fill="#007089"><animate attributeName="cx" dur="3s" keyTimes="0;0.15;0.75;0.85;1" repeatCount="indefinite" values="264;250;250;264;264"/></circle><path fill="#D22D27" d="M196 144h120V96H196z"/><path fill="#FF9490" d="M286.7 104h4.267v32H286.7z"/><path fill="#FF9490" d="M290.966 117.867h11.733v4.267h-11.733zM283.5 127.467h19.2v4.267h-19.2zM283.5 108.267h19.2v4.267h-19.2zM302.7 112.533h4.267v5.333H302.7zM293.306 104h4.267v4.267h-4.267z"/><path fill="#FF9490" d="M293.366 131.733h4.267V136h-4.267zM302.7 122.133h4.267v5.333H302.7zM196 156h120v-12H196z"/><path fill="#D22D27" d="M152 149.5 182.271 96H284l-87.835 81L152 149.5Z"/><path fill="#fff" d="M204 179h47v48h-47v-48Z"/><path stroke="#BBB" stroke-width="6" d="M204 179h47v48h-47v-48Zm0 0h-8M251 188h10"/><path fill="#fff" d="M308 179h-47v48h47v-48Z"/><path stroke="#BBB" stroke-width="6" d="M308 179h-47v48h47v-48Zm0 0h8"/><mask id="a" width="41" height="42" x="207" y="182" maskUnits="userSpaceOnUse" style="mask-type:alpha"><path fill="#121212" d="M207 182h41v42h-41v-42Z"/></mask><g mask="url(#a)"><path fill="#D9D9D9" d="M215.112 182h8.77l-10.524 43.235h-8.77L215.112 182Z"><animateTransform attributeName="transform" dur="4s" keyTimes="0;0.1;0.3;1" repeatCount="indefinite" type="translate" values="-32 0;-32 0;48 0;48 0"/></path></g><mask id="b" width="41" height="42" x="264" y="182" maskUnits="userSpaceOnUse" style="mask-type:alpha"><path fill="#121212" d="M264 182h41v42h-41v-42Z"/></mask><g mask="url(#b)"><path fill="#D9D9D9" d="M271.112 182h8.77l-10.524 43.235h-8.77L271.112 182Z"><animateTransform attributeName="transform" dur="4s" keyTimes="0;0.1;0.3;1" repeatCount="indefinite" type="translate" values="-32 0;-32 0;48 0;48 0"/></path></g><path fill="#fff" d="M292 340h-72l72-26v26Z"/></g></svg>