<?xml version="1.0" encoding="UTF-8"?><svg id="_レイヤー_2" xmlns="http://www.w3.org/2000/svg" viewBox="0 0 833.33 833.33"><defs><style>.cls-1{fill:#f0f0f0;}.cls-2{fill:#fff324;}.cls-3{fill:#fff;}.cls-4{fill:#ffbd38;}.cls-5{fill:#ff9238;}.cls-6{fill:#ff5f38;}.cls-7{fill:#ff726e;}.cls-8{fill:#43b0a6;}.cls-9{fill:#77db30;}.cls-10{fill:#4cb67e;}</style></defs><g id="_レイヤー_1-2"><rect class="cls-1" width="833.33" height="833.33"/><rect class="cls-8" x="291.67" y="458.33" width="41.67" height="41.67"/><rect class="cls-8" x="333.33" y="500" width="41.67" height="41.67"/><path d="m291.67,375v-31.67c0-5.52-4.48-10-10-10h-63.33c-5.52,0-10,4.48-10,10v63.33c0,5.52,4.48,10,10,10h31.67v-41.67h41.67Z"/><path d="m500,375h41.67v-31.67c0-5.52-4.48-10-10-10h-105c-5.52,0-10,4.48-10,10v31.67h83.33Z"/><path d="m500,541.67h-166.67v31.67c0,5.52,4.48,10,10,10h230c5.52,0,10-4.48,10-10v-31.67h-83.33Z"/><path d="m615,416.67h-31.67v125h31.67c5.52,0,10-4.48,10-10v-105c0-5.52-4.48-10-10-10Z"/><path d="m333.33,416.67v-31.67c0-5.52-4.48-10-10-10h-31.67v41.67h41.67Z"/><path d="m291.67,500v31.67c0,5.52,4.48,10,10,10h31.67v-41.67h-41.67Z"/><path d="m416.67,375h-31.67c-5.52,0-10,4.48-10,10v31.67h41.67v-41.67Z"/><path d="m583.33,416.67v-31.67c0-5.52-4.48-10-10-10h-31.67v41.67h41.67Z"/><rect x="333.33" y="416.67" width="41.67" height="41.67"/><path d="m291.67,416.67h-41.67v73.33c0,5.52,4.48,10,10,10h31.67v-83.33Z"/><polygon class="cls-10" points="437.5 291.67 437.5 312.5 437.5 333.33 458.33 333.33 458.33 312.5 458.33 291.67 437.5 291.67"/><path class="cls-7" d="m468.34,520.83c-5.52,0-10,4.48-10,10v10.83h41.67v-20.83h-31.67Z"/><path class="cls-5" d="m416.67,166.67h-10.83c-5.52,0-10,4.48-10,10v10.83h20.83v-20.83Z"/><path class="cls-5" d="m500,187.5v-10.83c0-5.52-4.48-10-10-10h-10.83v20.83h20.83Z"/><path class="cls-5" d="m395.83,250v10.83c0,5.52,4.48,10,10,10h10.83v-20.83h-20.83Z"/><path class="cls-5" d="m479.17,270.83h10.83c5.52,0,10-4.48,10-10v-10.83h-20.83v20.83Z"/><path class="cls-5" d="m458.33,166.67h20.83v-10.83c0-5.52-4.48-10-10-10h-42.5c-5.52,0-10,4.48-10,10v10.83h41.67Z"/><path class="cls-5" d="m437.5,270.83h-20.83v10.83c0,5.52,4.48,10,10,10h42.5c5.52,0,10-4.48,10-10v-10.83h-41.67Z"/><polygon class="cls-5" points="437.5 187.5 416.67 187.5 416.67 208.33 416.67 229.17 416.67 250 437.5 250 458.33 250 479.17 250 479.17 229.17 479.17 208.33 479.17 187.5 458.33 187.5 437.5 187.5"/><path class="cls-5" d="m395.83,208.33v-20.83h-10.83c-5.52,0-10,4.48-10,10v42.5c0,5.52,4.48,10,10,10h10.83v-41.67Z"/><path class="cls-5" d="m510.83,187.5h-10.83v62.5h10.83c5.52,0,10-4.48,10-10v-42.5c0-5.52-4.48-10-10-10Z"/><polygon class="cls-6" points="458.33 166.67 437.5 166.67 416.67 166.67 416.67 187.5 437.5 187.5 458.33 187.5 479.17 187.5 479.17 166.67 458.33 166.67"/><polygon class="cls-6" points="479.17 187.5 479.17 208.33 479.17 229.17 479.17 250 500 250 500 229.17 500 208.33 500 187.5 479.17 187.5"/><polygon class="cls-4" points="416.67 208.33 416.67 187.5 395.83 187.5 395.83 208.33 395.83 229.17 395.83 250 416.67 250 416.67 229.17 416.67 208.33"/><polygon class="cls-4" points="458.33 250 437.5 250 416.67 250 416.67 270.83 437.5 270.83 458.33 270.83 479.17 270.83 479.17 250 458.33 250"/><path class="cls-2" d="m458.33,203.13v-8.38c0-1.12-.91-2.03-2.03-2.03h-16.76c-1.12,0-2.03.91-2.03,2.03v8.38h20.83Z"/><path class="cls-2" d="m437.5,213.54v-10.42h-8.38c-1.12,0-2.04.91-2.04,2.03v27.18c0,1.12.91,2.03,2.04,2.03h8.38v-20.83Z"/><path class="cls-2" d="m437.5,234.38v8.38c0,1.12.91,2.03,2.03,2.03h16.76c1.12,0,2.03-.91,2.03-2.03v-8.38h-20.83Z"/><path class="cls-2" d="m466.71,234.38c1.12,0,2.04-.91,2.04-2.03v-6.35c0-1.12-.91-2.03-2.04-2.03h-8.38v10.42h8.38Z"/><path class="cls-2" d="m466.71,213.54c1.12,0,2.04-.91,2.04-2.03v-6.35c0-1.12-.91-2.03-2.04-2.03h-8.38v10.42h8.38Z"/><path class="cls-2" d="m449.95,213.54c-1.12,0-2.03.91-2.03,2.03v6.35c0,1.12.91,2.03,2.03,2.03h8.38v-10.42h-8.38Z"/><path class="cls-9" d="m416.25,281.25h10.83v31.67c0,5.52-4.48,10-10,10h-10.83v-31.67c0-5.52,4.48-10,10-10Z" transform="translate(114.58 718.75) rotate(-90)"/><path class="cls-9" d="m468.75,281.25h10.83c5.52,0,10,4.48,10,10v31.67h-10.83c-5.52,0-10-4.48-10-10v-31.67h0Z" transform="translate(177.08 781.25) rotate(-90)"/><path d="m375,458.33v10.83c0,5.52,4.48,10,10,10h10.83v10.83c0,5.52,4.48,10,10,10h10.83v10.83c0,5.52,4.48,10,10,10h21.67c5.52,0,10-4.48,10-10v-10.83h-20.83v-20.83h20.83v20.83h10.83c5.52,0,10-4.48,10-10v-10.83h20.83v10.83c0,5.52,4.48,10,10,10h10.83v10.83c0,5.52,4.48,10,10,10h21.67c5.52,0,10-4.48,10-10v-10.83h-20.83v-20.83h20.83v20.83h10.83c5.52,0,10-4.48,10-10v-31.67h-208.33Z"/><rect class="cls-3" x="437.5" y="479.17" width="20.83" height="20.83"/><rect class="cls-3" x="541.67" y="479.17" width="20.83" height="20.83"/></g></svg>