<?xml version="1.0" encoding="UTF-8"?><svg id="b" xmlns="http://www.w3.org/2000/svg" viewBox="0 0 198.45 340.14"><defs><style>.f,.g,.h,.i,.j{fill:none;stroke-miterlimit:10;}.f,.h{stroke:lime;}.k{fill:#0a0b00;}.g{opacity:.78;}.g,.i{stroke:#f2f2f2;}.l{fill:lime;opacity:.33;}.h,.i,.j{stroke-width:.5px;}.j{stroke:#999;}.m{fill:#999;}.n{fill:#ccc;}.o{fill:#f2f2f2;}</style></defs><g id="c"><g id="d"><rect class="o" width="198.45" height="340.14" rx="1.34" ry="1.34"/><g id="e"><path class="k" d="m6.93,333.49c-1.16,0-2.1-.87-2.1-1.95V8.6c0-1.08.94-1.95,2.1-1.95h184.58c1.16,0,2.1.87,2.1,1.95v322.94c0,1.08-.94,1.95-2.1,1.95"/></g><rect class="i" x="7.74" y="9.5" width="182.97" height="321.14" rx="1.34" ry="1.34"/><path class="n" d="m95.16,20.62v7.43h2.14c.15,0,.25.03.32.09.06.06.1.13.1.23,0,.09-.03.16-.1.22-.06.06-.17.09-.32.09h-4.89c-.15,0-.25-.03-.32-.09-.06-.06-.1-.13-.1-.22,0-.09.03-.17.1-.23.06-.06.17-.09.32-.09h2.14v-7.43h-2.14c-.15,0-.25-.03-.32-.09-.06-.06-.1-.13-.1-.23s.03-.17.1-.23c.06-.06.17-.09.32-.09h4.89c.15,0,.25.03.32.09.06.06.1.13.1.23s-.03.17-.1.23c-.06.06-.17.09-.32.09h-2.14Z"/><path class="n" d="m104.33,24.23l2.96,3.82h.24c.15,0,.25.03.32.09.06.06.1.13.1.23,0,.09-.03.16-.1.22-.06.06-.17.09-.32.09h-2c-.15,0-.25-.03-.32-.09-.06-.06-.1-.13-.1-.22,0-.09.03-.17.1-.23.06-.06.17-.09.32-.09h.99l-2.57-3.31-2.54,3.31h.99c.15,0,.25.03.32.09s.1.13.1.23c0,.09-.03.16-.1.22-.06.06-.17.09-.32.09h-1.99c-.15,0-.25-.03-.32-.09-.06-.06-.1-.13-.1-.22,0-.07.02-.13.06-.19.04-.05.08-.09.13-.1s.2-.02.45-.02l2.92-3.82-2.79-3.61h-.23c-.15,0-.25-.03-.32-.09-.06-.06-.1-.13-.1-.23s.03-.17.1-.23c.06-.06.17-.09.32-.09h1.7c.15,0,.26.03.33.09.06.06.1.13.1.23s-.03.17-.1.23c-.06.06-.17.09-.33.09h-.7l2.4,3.11,2.39-3.11h-.7c-.15,0-.26-.03-.33-.09-.06-.06-.1-.13-.1-.23s.03-.17.1-.23c.06-.06.17-.09.33-.09h1.71c.15,0,.25.03.32.09.06.06.1.13.1.23s-.03.17-.1.23c-.06.06-.17.09-.32.09h-.24l-2.77,3.61Z"/><line class="h" x1="81" y1="225.23" x2="81.04" y2="180.33"/><polygon class="l" points="55.13 180.63 80.97 180.63 80.97 224.89 55.13 180.63"/><polygon class="f" points="54.73 180.33 107.27 180.33 81 225.23 54.73 180.33"/><line class="h" x1="99.96" y1="116.05" x2="100.01" y2="85.67"/><polygon class="l" points="74.09 71.46 100.01 85.67 126.23 71.15 74.09 71.46"/><polygon class="f" points="73.69 71.15 126.23 71.15 99.96 116.05 73.69 71.15"/><line class="h" x1="100.01" y1="85.67" x2="126.23" y2="71.15"/><line class="h" x1="100.01" y1="85.67" x2="73.69" y2="71.15"/><line class="h" x1="118.92" y1="225.23" x2="118.87" y2="180.33"/><polygon class="l" points="144.79 180.63 118.94 180.63 118.94 224.89 144.79 180.63"/><polygon class="f" points="145.19 180.33 92.65 180.33 118.92 225.23 145.19 180.33"/><line class="h" x1="99.96" y1="269.01" x2="100.01" y2="238.63"/><polygon class="l" points="74.09 224.41 100.01 238.63 126.23 224.11 74.09 224.41"/><polygon class="f" points="73.69 224.11 126.23 224.11 99.96 269.01 73.69 224.11"/><line class="h" x1="100.01" y1="238.63" x2="126.23" y2="224.11"/><line class="h" x1="100.01" y1="238.63" x2="73.69" y2="224.11"/><line class="g" x1="126.23" y1="244.66" x2="73.69" y2="244.66"/><line class="g" x1="145.19" y1="202.78" x2="92.65" y2="202.78"/><line class="g" x1="107.67" y1="202.76" x2="55.13" y2="202.76"/><line class="h" x1="99.96" y1="186.51" x2="100.01" y2="156.13"/><polygon class="l" points="74.09 141.91 100.01 156.13 126.23 141.61 74.09 141.91"/><polygon class="f" points="73.69 141.61 126.23 141.61 99.96 186.51 73.69 141.61"/><line class="h" x1="100.01" y1="156.13" x2="126.23" y2="141.61"/><line class="h" x1="100.01" y1="156.13" x2="73.69" y2="141.61"/><line class="g" x1="126.23" y1="164.06" x2="73.69" y2="164.06"/><line class="h" x1="55.08" y1="186.51" x2="55.13" y2="141.61"/><polygon class="l" points="29.21 141.91 55.06 141.91 55.06 186.17 29.21 141.91"/><polygon class="f" points="28.81 141.61 81.35 141.61 55.08 186.51 28.81 141.61"/><line class="g" x1="81.35" y1="164.06" x2="28.81" y2="164.06"/><line class="h" x1="144.84" y1="186.51" x2="144.8" y2="141.61"/><polygon class="l" points="170.71 141.91 144.86 141.91 144.86 186.17 170.71 141.91"/><polygon class="f" points="171.11 141.61 118.57 141.61 144.84 186.51 171.11 141.61"/><line class="g" x1="171.11" y1="164.06" x2="118.57" y2="164.06"/><line class="h" x1="123.35" y1="155.49" x2="123.3" y2="125.12"/><polygon class="l" points="149.22 110.9 123.3 125.12 123.37 155.16 149.22 110.9"/><polygon class="f" points="149.62 110.59 97.08 110.59 123.35 155.49 149.62 110.59"/><line class="h" x1="123.3" y1="125.12" x2="97.08" y2="110.59"/><line class="h" x1="123.3" y1="125.12" x2="149.62" y2="110.59"/><line class="g" x1="149.62" y1="133.04" x2="97.08" y2="133.04"/><line class="h" x1="76.57" y1="155.49" x2="76.53" y2="125.12"/><polygon class="l" points="76.57 155.49 76.53 125.12 50.3 110.59 76.57 155.49"/><polygon class="f" points="102.84 110.59 50.3 110.59 76.57 155.49 102.84 110.59"/><line class="h" x1="76.53" y1="125.12" x2="50.3" y2="110.59"/><line class="h" x1="76.53" y1="125.12" x2="102.84" y2="110.59"/><line class="g" x1="102.84" y1="133.04" x2="50.3" y2="133.04"/><line class="g" x1="126.23" y1="93.6" x2="73.69" y2="93.6"/><path class="m" d="m99.22,304.9v1.18h.42c.06,0,.09.01.12.03.02.02.03.05.03.08,0,.03-.01.06-.03.08-.02.02-.06.03-.12.03h-.94c-.05,0-.09-.01-.12-.03-.02-.02-.03-.05-.03-.08,0-.03.01-.06.03-.08.02-.02.06-.03.12-.03h.3v-2.69h-.3c-.05,0-.09-.01-.12-.03-.02-.02-.03-.05-.03-.08s.01-.06.03-.08c.02-.02.06-.03.12-.03h1.36c.28,0,.52.09.71.27.19.18.29.38.29.6,0,.16-.06.31-.18.45-.12.14-.32.26-.6.36.16.11.3.24.41.38.11.14.3.43.55.86h.17c.05,0,.09.01.12.03.02.02.03.05.03.08,0,.03-.01.06-.03.08-.02.02-.06.03-.12.03h-.3c-.28-.5-.49-.83-.65-1-.15-.17-.33-.3-.53-.4h-.72Zm0-.23h.61c.2,0,.38-.04.54-.11.16-.07.28-.16.35-.25s.11-.19.11-.3c0-.15-.08-.29-.23-.43-.15-.14-.33-.2-.55-.2h-.83v1.29Z"/><path class="m" d="m93.8,312.33h-1.48l-.3.82h.43c.05,0,.09.01.12.03.02.02.03.05.03.08,0,.03-.01.06-.03.08-.02.02-.06.03-.12.03h-.84c-.05,0-.09-.01-.12-.03-.02-.02-.03-.05-.03-.08,0-.03.01-.06.03-.08.02-.02.06-.03.12-.03h.17l1-2.69h-.67c-.05,0-.09-.01-.12-.03-.02-.02-.03-.05-.03-.08s.01-.06.03-.08c.02-.02.06-.03.12-.03h1.13l1.1,2.91h.17c.05,0,.09.01.12.03.02.02.03.05.03.08,0,.03-.01.06-.03.08-.02.02-.06.03-.12.03h-.84c-.06,0-.09-.01-.12-.03-.02-.02-.03-.05-.03-.08,0-.03.01-.06.03-.08.02-.02.06-.03.12-.03h.43l-.31-.82Zm-.09-.23l-.62-1.64h-.08l-.6,1.64h1.31Z"/><path class="m" d="m108.47,311.89c0,.3-.06.58-.18.84-.12.26-.29.46-.5.6-.21.14-.44.21-.69.21-.36,0-.68-.15-.96-.46s-.41-.7-.41-1.19.14-.88.41-1.19c.28-.31.6-.46.96-.46.25,0,.47.07.69.21.21.14.38.34.5.6.12.26.18.53.18.84Zm-.23,0c0-.37-.11-.7-.32-.99-.21-.29-.49-.44-.83-.44-.32,0-.59.14-.81.42-.22.28-.34.61-.34,1.01,0,.42.12.76.35,1.03.24.27.5.4.8.4.34,0,.61-.15.83-.44.21-.29.32-.62.32-.99Z"/><path class="m" d="m100.07,317.24v2.69h.58c.05,0,.09.01.12.03.02.02.03.05.03.08,0,.03-.01.06-.03.08-.02.02-.06.03-.12.03h-1.4c-.05,0-.09-.01-.12-.03-.02-.02-.03-.05-.03-.08,0-.03.01-.06.03-.08.02-.02.06-.03.12-.03h.58v-2.69h-.92v.78c0,.06-.01.09-.03.12-.02.02-.05.03-.08.03-.03,0-.06-.01-.08-.03-.02-.02-.03-.06-.03-.12v-1.01h2.52v1.01c0,.06-.01.09-.03.12-.02.02-.05.03-.08.03s-.06-.01-.08-.03c-.02-.02-.03-.06-.03-.12v-.78h-.92Z"/><path class="j" d="m107.09,309.6c-.74-2.52-2.78-4.48-5.33-5.11"/><path class="j" d="m101.77,318.88c2.37-.59,4.28-2.31,5.14-4.55"/><path class="j" d="m93.06,314.33c.84,2.2,2.7,3.89,4.99,4.51"/><path class="j" d="m98.3,304.64c-2.54.67-4.55,2.65-5.25,5.18"/></g></g></svg>