<svg xmlns="http://www.w3.org/2000/svg" viewBox="0 -0.5 50 50" shape-rendering="crispEdges">
	<title>Bitcoin Pussies #049</title>
	<desc>Bitcoin Pussies are 69 uniquely drawn and inscribed cats on Bitcoin</desc>
	<desc xmlns:meow="https://bitcoinpussies.com/">
		<meow:traits>
			<meow:Skin>Grey (Shiny)</meow:Skin>
			<meow:Eyes>Wink</meow:Eyes>
			<meow:Gear>Unicorn powers</meow:Gear>
			<meow:Message>I am just as meow-gical as meow-gical internet money</meow:Message>
		</meow:traits>
	</desc>
	<path stroke="#a9f7ff" d="M0 0h50M0 1h50M0 2h50M0 3h50M0 4h23M24 4h26M0 5h38M39 5h11M0 6h14M15 6h35M0 7h50M0 8h12M13 8h12M26 8h4M32 8h18M0 9h11M14 9h10M27 9h2M30 9h2M33 9h17M0 10h12M13 10h11M27 10h2M30 10h2M33 10h17M0 11h24M27 11h3M32 11h18M0 12h23M27 12h23M0 13h23M27 13h23M0 14h7M8 14h15M27 14h16M44 14h6M0 15h21M27 15h15M45 15h5M0 16h19M31 16h12M44 16h6M0 17h18M33 17h17M0 18h17M34 18h16M0 19h15M36 19h14M0 20h14M37 20h13M0 21h13M38 21h12M0 22h14M37 22h13M0 23h6M7 23h8M36 23h14M0 24h15M36 24h14M0 25h8M9 25h6M36 25h14M0 26h14M37 26h13M0 27h3M4 27h9M38 27h4M43 27h7M0 28h14M37 28h4M42 28h1M44 28h6M0 29h13M39 29h3M43 29h7M0 30h10M40 30h10M0 31h8M40 31h10M0 32h7M39 32h7M47 32h3M0 33h6M40 33h10M0 34h6M39 34h11M0 35h4M5 35h2M32 35h1M39 35h11M0 36h3M4 36h1M6 36h3M33 36h3M38 36h12M0 37h4M5 37h4M33 37h17M0 38h9M33 38h17M0 39h10M32 39h8M41 39h9M0 40h11M17 40h3M31 40h7M39 40h11M0 41h12M16 41h2M33 41h17M0 42h19M32 42h18M0 43h50M0 44h50M0 45h50M0 46h50M0 47h50M0 48h50M0 49h50" />
	<path stroke="#82bec5" d="M23 4h1M12 8h1M11 9h3M12 10h1M6 23h1M3 27h1M42 27h1M41 28h1M43 28h1M42 29h1M38 40h1M18 41h15M19 42h13" />
	<path stroke="#ffffff" d="M38 5h1M14 6h1M30 8h2M29 9h1M32 9h1M29 10h1M32 10h1M30 11h2M7 14h1M43 14h1M42 15h3M43 16h1M30 23h1M8 25h1M14 30h1M36 30h3M15 31h1M35 31h2M16 32h2M33 32h4M46 32h1M16 33h3M33 33h5M36 34h2M4 35h1M3 36h1M5 36h1M4 37h1M40 39h1" />
	<path stroke="#dca61b" d="M25 8h1M24 9h1M26 9h1M24 10h1M26 10h1M24 11h1M26 11h1M23 12h1M26 12h1M23 13h1M26 13h1M23 14h1M26 14h1M26 15h1" />
	<path stroke="#ffe24c" d="M25 9h1M25 11h1M24 13h2M25 15h1" />
	<path stroke="#fdd200" d="M25 10h1M24 12h2M24 14h2" />
	<path stroke="#683e77" d="M21 15h4M19 16h2M25 16h2M29 16h1M19 17h1M27 17h2M30 17h1M19 18h1M30 18h1M20 19h1M29 19h1M21 20h2M28 20h1M23 21h5M10 30h4M8 31h2M14 31h1M7 32h1M15 32h1M6 33h1M15 33h1M6 34h1M8 34h1M16 34h1M7 35h2M17 35h1M9 36h1M17 36h1M9 37h1M9 38h1M10 39h1M17 39h1M11 40h1M16 40h1M12 41h4" />
	<path stroke="#00f2ed" d="M21 16h4M23 17h4M29 17h1M25 18h4M7 33h3M7 34h1M9 34h1M9 35h2M10 36h2M10 37h2M10 38h5M11 39h6M12 40h4" />
	<path stroke="#000000" d="M27 16h2M30 16h1M18 17h1M31 17h2M17 18h1M33 18h1M15 19h2M34 19h2M14 20h1M36 20h1M13 21h1M17 21h1M33 21h1M37 21h1M14 22h3M29 22h3M34 22h3M15 23h1M20 23h2M28 23h1M32 23h1M35 23h1M15 24h1M19 24h1M22 24h1M35 24h1M15 25h1M25 25h1M35 25h1M14 26h1M24 26h3M36 26h1M13 27h1M37 27h1M14 28h1M36 28h1M13 29h2M36 29h3M15 30h1M35 30h1M39 30h1M16 31h2M33 31h2M39 31h1M18 32h3M30 32h3M37 32h2M20 33h1M30 33h1M39 33h1M19 34h1M31 34h2M38 34h1M18 35h2M31 35h1M33 35h3M38 35h1M18 36h1M32 36h1M36 36h2M18 37h1M32 37h1M18 38h1M32 38h1M18 39h2M21 39h1M23 39h1M27 39h1M29 39h1M31 39h1M20 40h11" />
	<path stroke="#ffef78" d="M20 17h3M22 18h3M29 18h1M24 19h5M8 32h4M10 33h3M10 34h4M11 35h4M12 36h3M12 37h4M15 38h3" />
	<path stroke="#7b7b7b" d="M18 18h1M31 18h2M17 19h3M30 19h4M15 20h6M29 20h7M18 21h5M28 21h5M17 22h12M32 22h2M16 23h4M22 23h6M33 23h2M16 24h3M20 24h2M23 24h6M32 24h3M16 25h9M26 25h3M32 25h3M15 26h3M20 26h4M27 26h4M33 26h3M15 27h21M18 28h15M15 29h21M20 30h11M18 31h15M21 32h9M24 33h3M21 34h9M20 35h1M23 35h5M30 35h1M20 36h4M27 36h4M22 37h3M26 37h3M19 38h13M22 39h1M24 39h3M28 39h1" />
	<path stroke="#ffb0c2" d="M20 18h2M21 19h3M23 20h5M10 31h4M12 32h3M13 33h2M14 34h2M15 35h2M15 36h2M16 37h2" />
	<path stroke="#ffc8ca" d="M14 21h3M34 21h3" />
	<path stroke="#9bb000" d="M29 23h1M31 23h1M29 24h3" />
	<path stroke="#7f9101" d="M29 25h3" />
	<path stroke="#ffa1a4" d="M18 26h2M31 26h2" />
	<path stroke="#3e3e3e" d="M14 27h1M36 27h1M15 28h3M33 28h3M16 30h4M31 30h4M21 33h3M27 33h3M20 34h1M30 34h1M21 35h2M28 35h2M19 36h1M24 36h3M31 36h1M19 37h3M25 37h1M29 37h3M20 39h1M30 39h1" />
	<path stroke="#d4d4d4" d="M37 31h2M19 33h1M31 33h2M38 33h1M17 34h2M33 34h3M36 35h2" />
</svg>