<?xml version="1.0" encoding="UTF-8"?><svg xmlns="http://www.w3.org/2000/svg" viewBox="0 0 198.34 340.12"><defs><style>.m{isolation:isolate;}.n,.o,.p,.q{fill:none;stroke-miterlimit:10;}.n,.p{stroke-width:.5px;}.n,.q{stroke:#f2f2f2;}.r{mix-blend-mode:soft-light;opacity:.78;}.r,.s,.t{fill:blue;}.o{stroke:blue;}.s{opacity:.33;}.p{stroke:#999;}.u{fill:#999;}.t{opacity:.95;}.v{fill:#140016;}.w{fill:#f2f2f2;}</style></defs><g class="m"><g id="b"><g id="c"><g id="d"><rect class="w" width="198.34" height="340.12" rx="1.34" ry="1.34"/><path class="v" d="m6.93,333.47c-1.16,0-2.1-.87-2.1-1.95V8.6c0-1.08.94-1.95,2.1-1.95h184.48c1.16,0,2.1.87,2.1,1.95v322.92c0,1.08-.94,1.95-2.1,1.95"/><rect class="n" x="7.73" y="9.5" width="182.87" height="321.11" rx="1.34" ry="1.34"/><line id="e" class="q" x1="3.93" y1="296.9" x2="194.41" y2="296.9"/><path class="w" d="m36.39,309.11h.65l3.22,9.09h-.68l-1.82-5.35c-.37-1.08-.7-2.03-1.01-3.14h-.06c-.32,1.11-.64,2.06-1.01,3.14l-1.85,5.35h-.65l3.22-9.09Zm-1.75,5.44h4.1v.54h-4.1v-.54Z"/><path class="w" d="m44.72,309.66h-3.19v-.55h7.01v.55h-3.19v8.54h-.64v-8.54Z"/><path class="w" d="m50.18,317.82l5.58-8.18h-5.11v-.54h5.89v.38l-5.6,8.17h5.69v.55h-6.45v-.38Z"/><path class="w" d="m59.02,317.65h2.35v-7.99h-2.35v-.55h5.35v.55h-2.35v7.99h2.35v.55h-5.35v-.55Z"/><path class="w" d="m67.94,309.11h.62v8.54h4.78v.55h-5.4v-9.09Z"/><path class="w" d="m75.41,314.8v-5.69h.64v5.62c0,2.33,1.07,3.06,2.3,3.06s2.32-.73,2.32-3.06v-5.62h.61v5.69c0,2.75-1.4,3.57-2.93,3.57s-2.94-.81-2.94-3.57Z"/><path class="w" d="m86.36,309.66h-3.19v-.55h7.01v.55h-3.19v8.54h-.64v-8.54Z"/><path class="w" d="m92.07,309.11h.64v3.98h4.59v-3.98h.64v9.09h-.64v-4.55h-4.59v4.55h-.64v-9.09Z"/><path class="w" d="m111.38,307.86h.56v13.79h-.56v-13.79Z"/><path class="w" d="m124.34,309.1h.65l.97,6.22c.08.74.2,1.38.28,2.16h.03c.22-.78.41-1.42.61-2.15l1.13-3.85h.66l1.14,3.85c.19.73.38,1.39.59,2.15h.06c.09-.77.18-1.42.28-2.15l.93-6.22h.62l-1.46,9.1h-.82l-1.26-4.31c-.15-.53-.26-1.05-.39-1.59h-.04c-.14.54-.25,1.06-.41,1.59l-1.23,4.31h-.81l-1.51-9.1Z"/><path class="w" d="m136.32,309.11h.65l3.22,9.09h-.68l-1.82-5.35c-.37-1.08-.7-2.03-1.01-3.14h-.06c-.32,1.11-.64,2.06-1.01,3.14l-1.85,5.35h-.65l3.22-9.09Zm-1.75,5.44h4.1v.54h-4.1v-.54Z"/><path class="w" d="m144.65,309.66h-3.19v-.55h7.01v.55h-3.19v8.54h-.64v-8.54Z"/><path class="w" d="m150.9,309.11h5.42v.55h-4.77v3.44h4.02v.55h-4.02v4.01h4.91v.55h-5.55v-9.09Z"/><path class="w" d="m159.09,309.11h2.61c1.82,0,3.01.66,3.01,2.4s-1.2,2.52-3.01,2.52h-1.97v4.17h-.64v-9.09Zm2.45,4.38c1.62,0,2.52-.64,2.52-1.98s-.9-1.86-2.52-1.86h-1.8v3.84h1.8Zm.63.16l2.72,4.54h-.74l-2.59-4.36.61-.19Z"/><path class="q" d="m157.87,289.77H40.47v-57.84c8.83,18.91,108.5,19.07,117.4,0v57.84Z"/><path class="w" d="m105.51,282.51v-13.55c0-1.35.05-2.53.15-3.53.1-1,.22-1.87.35-2.6.13-.74.24-1.34.33-1.81v-.13h-15.8c-.68,0-1.21-.24-1.59-.71-.38-.47-.57-1.25-.57-2.34,0-.38.01-.75.04-1.1.03-.35.1-.77.2-1.26.1-.49.23-1.1.37-1.83h1.19v.44c0,.71.22,1.21.66,1.52.44.31,1,.46,1.68.46h15.27c.5,0,.85.1,1.04.31.19.21.29.59.29,1.15v2.96l-1.15.4.57,20.04c-.32.32-.68.61-1.06.86-.38.25-.82.49-1.32.73h-.66Zm-16.33,0v-11.87c0-1,.1-1.75.31-2.25.21-.5.54-.81,1.02-.93l1.41-.4.27.31.04,13.55c-.32.32-.68.61-1.06.86-.38.25-.82.49-1.32.73h-.66Z"/><path class="w" d="m98.99,221.02l-1.15-27.12c0-.73-.09-1.24-.27-1.53-.18-.29-.58-.44-1.2-.44h-3.61c-.87,0-1.54-.3-1.99-.9-.46-.6-.68-1.61-.68-3.03,0-.4.02-.81.05-1.23.04-.42.12-.93.25-1.53.13-.6.28-1.36.46-2.27h1.48v.16c0,.87.25,1.57.74,2.08.49.51,1.21.76,2.16.76h3.11c.95,0,1.6.23,1.97.68.36.46.56,1.27.6,2.43l-1.59,31.55"/><path class="q" d="m99.17,242.35c28.25,0,49.09-6.16,50.81-9.64-8.65-3.2-46.68-21.62-48.83-22.62s-27.66-14.58-38.13-22.06c-10.46-7.48-10.71-12.4-10.71-12.4,0,0,9.02-8.85,46.86-8.85h0c37.83,0,46.86,8.85,46.86,8.85,0,0-.24,4.92-10.71,12.4-10.46,7.48-35.97,21.07-38.13,22.06s-40.19,19.41-48.83,22.62c1.72,3.48,25.46,9.64,50.81,9.64h0Z"/><path class="o" d="m99.17,69.71c8.68,0,16.24,4.82,20.14,11.93l23.5-40.17H55.53l23.5,40.17c3.9-7.11,11.45-11.93,20.14-11.93Z"/><path class="r" d="m99.17,69.71c8.68,0,16.24,4.82,20.14,11.93l23.5-40.17H55.53l23.5,40.17c3.9-7.11,11.45-11.93,20.14-11.93Z"/><path class="s" d="m99.17,69.71c8.68,0,16.24,4.82,20.14,11.93l23.5-40.17H55.53l23.5,40.17c3.9-7.11,11.45-11.93,20.14-11.93Z"/><g id="f"><path id="g" class="w" d="m106.69,153.12v-13.55c0-1.35.05-2.53.15-3.53.1-1,.22-1.87.35-2.6.13-.74.24-1.34.33-1.81v-.13h-15.8c-.68,0-1.21-.24-1.59-.71-.38-.47-.57-1.25-.57-2.34,0-.38.01-.75.04-1.1.03-.35.1-.77.2-1.26.1-.49.23-1.1.37-1.83h1.19v.44c0,.71.22,1.21.66,1.52.44.31,1,.46,1.68.46h15.27c.5,0,.85.1,1.04.31.19.21.29.59.29,1.15v2.96l-1.15.4.57,20.04c-.32.32-.68.61-1.06.86-.38.25-.82.49-1.32.73h-.66Zm-16.33,0v-11.87c0-1,.1-1.75.31-2.25.21-.5.54-.81,1.02-.93l1.41-.4.27.31.04,13.55c-.32.32-.68.61-1.06.86-.38.25-.82.49-1.32.73h-.66Z"/><path id="h" class="q" d="m85.75,112.09s5.15,4.32,13.42,4.32,13.43-4.32,13.43-4.32c20.1,0,43.03,2.4,43.03,2.4.62,0,1.12.86,1.12,1.91,0,0,1.32,9.65,1.27,20.23-.05,10.58-1.27,24.72-1.27,24.72,0,1.15-.59,2.03-1.25,1.9,0,0-25.42-4.75-55.25-4.75s-57.34,4.76-57.34,4.76c-.67.11-1.3-.77-1.3-1.91,0,0-1.24-14.95-1.29-24.67-.05-9.71,1.29-20.28,1.29-20.28,0-1.06.5-1.91,1.12-1.91,0,0,22.92-2.4,43.02-2.4Z"/></g><g id="i"><circle id="j" class="t" cx="99.14" cy="92.85" r="22.95"/><path id="k" class="v" d="m98.58,103.51l-1.91-2.02,1.69-1.97c1.31-1.53,2.19-2.74,2.65-3.63.45-.89.68-1.79.68-2.7,0-.51-.09-.92-.27-1.23-.18-.31-.56-.46-1.15-.46h-4.81c-.87,0-1.54-.3-1.99-.9-.46-.6-.68-1.61-.68-3.03,0-.4.02-.79.05-1.17.04-.38.12-.86.25-1.45.13-.58.28-1.38.46-2.4h1.47v.22c0,.95.25,1.65.77,2.1.51.46,1.22.68,2.13.68h3.61c1.38,0,2.4.43,3.06,1.28.66.86.98,2.07.98,3.63,0,1.09-.16,2.18-.46,3.25-.31,1.07-.73,2.09-1.26,3.03-.53.95-1.1,1.8-1.72,2.57l-3.55,4.21Z"/><path id="l" class="o" d="m99.14,69.91c-12.67,0-22.97,10.27-22.94,22.94.03,12.61,10.3,22.88,22.94,22.94,12.67.06,22.94-10.27,22.94-22.94s-10.27-22.94-22.94-22.94"/></g><path class="u" d="m98.43,21.74v1.18h.42c.06,0,.09.01.12.03.02.02.03.05.03.08,0,.03-.01.06-.03.08-.02.02-.06.03-.12.03h-.94c-.05,0-.09-.01-.12-.03-.02-.02-.03-.05-.03-.08,0-.03.01-.06.03-.08.02-.02.06-.03.12-.03h.3v-2.69h-.3c-.05,0-.09-.01-.12-.03-.02-.02-.03-.05-.03-.08s.01-.06.03-.08c.02-.02.06-.03.12-.03h1.36c.28,0,.52.09.71.27.19.18.29.38.29.6,0,.16-.06.31-.18.45-.12.14-.32.26-.6.36.16.11.3.24.41.38.11.14.3.43.55.86h.17c.05,0,.09.01.12.03.02.02.03.05.03.08,0,.03-.01.06-.03.08-.02.02-.06.03-.12.03h-.3c-.28-.5-.49-.83-.65-1-.15-.17-.33-.3-.53-.4h-.72Zm0-.23h.61c.2,0,.38-.04.54-.11.16-.07.28-.16.35-.25s.11-.19.11-.3c0-.15-.08-.29-.23-.43-.15-.14-.33-.2-.55-.2h-.83v1.29Z"/><path class="u" d="m93.01,29.17h-1.48l-.3.82h.43c.05,0,.09.01.12.03.02.02.03.05.03.08,0,.03-.01.06-.03.08-.02.02-.06.03-.12.03h-.84c-.05,0-.09-.01-.12-.03-.02-.02-.03-.05-.03-.08,0-.03.01-.06.03-.08.02-.02.06-.03.12-.03h.17l1-2.69h-.67c-.05,0-.09-.01-.12-.03-.02-.02-.03-.05-.03-.08s.01-.06.03-.08c.02-.02.06-.03.12-.03h1.13l1.1,2.91h.17c.05,0,.09.01.12.03.02.02.03.05.03.08,0,.03-.01.06-.03.08-.02.02-.06.03-.12.03h-.84c-.06,0-.09-.01-.12-.03-.02-.02-.03-.05-.03-.08,0-.03.01-.06.03-.08.02-.02.06-.03.12-.03h.43l-.31-.82Zm-.09-.23l-.62-1.64h-.08l-.6,1.64h1.31Z"/><path class="u" d="m107.67,28.73c0,.3-.06.58-.18.84-.12.26-.29.46-.5.6-.21.14-.44.21-.69.21-.36,0-.68-.15-.96-.46s-.41-.7-.41-1.19.14-.88.41-1.19c.28-.31.6-.46.96-.46.25,0,.47.07.69.21.21.14.38.34.5.6.12.26.18.53.18.84Zm-.23,0c0-.37-.11-.7-.32-.99-.21-.29-.49-.44-.83-.44-.32,0-.59.14-.81.42-.22.28-.34.61-.34,1.01,0,.42.12.76.35,1.03.24.27.5.4.8.4.34,0,.61-.15.83-.44.21-.29.32-.62.32-.99Z"/><path class="u" d="m99.28,34.08v2.69h.58c.05,0,.09.01.12.03.02.02.03.05.03.08,0,.03-.01.06-.03.08-.02.02-.06.03-.12.03h-1.4c-.05,0-.09-.01-.12-.03-.02-.02-.03-.05-.03-.08,0-.03.01-.06.03-.08.02-.02.06-.03.12-.03h.58v-2.69h-.92v.78c0,.06-.01.09-.03.12-.02.02-.05.03-.08.03-.03,0-.06-.01-.08-.03-.02-.02-.03-.06-.03-.12v-1.01h2.52v1.01c0,.06-.01.09-.03.12-.02.02-.05.03-.08.03s-.06-.01-.08-.03c-.02-.02-.03-.06-.03-.12v-.78h-.92Z"/><path class="p" d="m106.3,26.44c-.74-2.52-2.78-4.48-5.33-5.11"/><path class="p" d="m100.97,35.71c2.37-.59,4.28-2.31,5.14-4.55"/><path class="p" d="m92.27,31.17c.84,2.2,2.7,3.89,4.99,4.51"/><path class="p" d="m97.51,21.48c-2.54.67-4.55,2.65-5.25,5.18"/></g></g></g></g></svg>