<svg height="320" shape-rendering="crispEdges" viewBox="0 0 320 320" width="320" xmlns="http://www.w3.org/2000/svg"><rect fill="#d5d7e1" height="100%" width="100%"/><g fill="#9f21a0"><path d="m90 210h140v10h-140z"/><path d="m90 220h140v10h-140z"/><path d="m90 230h140v10h-140z"/><path d="m90 240h140v10h-140z"/><path d="m90 250h20v10h-20z"/><path d="m120 250h110v10h-110z"/><path d="m90 260h20v10h-20z"/><path d="m120 260h110v10h-110z"/><path d="m90 270h20v10h-20z"/><path d="m120 270h110v10h-110z"/><path d="m90 280h20v10h-20z"/><path d="m120 280h110v10h-110z"/><path d="m90 290h20v10h-20z"/><path d="m120 290h110v10h-110z"/><path d="m90 300h20v10h-20z"/><path d="m120 300h110v10h-110z"/><path d="m90 310h20v10h-20z"/><path d="m120 310h110v10h-110z"/></g><path d="m90 210h20v10h-20z" fill="#f3322c"/><path d="m110 210h20v10h-20z" fill="#4bea69"/><path d="m130 210h20v10h-20z" fill="#254efb"/><path d="m150 210h20v10h-20z" fill="#f3322c"/><path d="m170 210h20v10h-20z" fill="#4bea69"/><path d="m190 210h20v10h-20z" fill="#254efb"/><path d="m210 210h20v10h-20z" fill="#f3322c"/><path d="m90 220h20v10h-20z" fill="#f3322c"/><path d="m110 220h20v10h-20z" fill="#4bea69"/><path d="m130 220h20v10h-20z" fill="#254efb"/><path d="m150 220h20v10h-20z" fill="#f3322c"/><path d="m170 220h20v10h-20z" fill="#4bea69"/><path d="m190 220h20v10h-20z" fill="#254efb"/><path d="m210 220h20v10h-20z" fill="#f3322c"/><path d="m90 230h20v10h-20z" fill="#254efb"/><path d="m110 230h20v10h-20z" fill="#f3322c"/><path d="m130 230h20v10h-20z" fill="#4bea69"/><path d="m150 230h20v10h-20z" fill="#254efb"/><path d="m170 230h20v10h-20z" fill="#f3322c"/><path d="m190 230h20v10h-20z" fill="#4bea69"/><path d="m210 230h20v10h-20z" fill="#254efb"/><path d="m90 240h20v10h-20z" fill="#254efb"/><path d="m110 240h20v10h-20z" fill="#f3322c"/><path d="m130 240h20v10h-20z" fill="#4bea69"/><path d="m150 240h20v10h-20z" fill="#254efb"/><path d="m170 240h20v10h-20z" fill="#f3322c"/><path d="m190 240h20v10h-20z" fill="#4bea69"/><path d="m210 240h20v10h-20z" fill="#254efb"/><path d="m90 250h20v10h-20z" fill="#4bea69"/><path d="m120 250h10v10h-10z" fill="#254efb"/><path d="m130 250h20v10h-20z" fill="#f3322c"/><path d="m150 250h20v10h-20z" fill="#4bea69"/><path d="m170 250h20v10h-20z" fill="#254efb"/><path d="m190 250h20v10h-20z" fill="#f3322c"/><path d="m210 250h20v10h-20z" fill="#4bea69"/><path d="m90 260h20v10h-20z" fill="#4bea69"/><path d="m120 260h10v10h-10z" fill="#254efb"/><path d="m130 260h20v10h-20z" fill="#f3322c"/><path d="m150 260h20v10h-20z" fill="#4bea69"/><path d="m170 260h20v10h-20z" fill="#254efb"/><path d="m190 260h20v10h-20z" fill="#f3322c"/><path d="m210 260h20v10h-20z" fill="#4bea69"/><path d="m90 270h20v10h-20z" fill="#f3322c"/><path d="m120 270h10v10h-10z" fill="#4bea69"/><path d="m130 270h20v10h-20z" fill="#254efb"/><path d="m150 270h20v10h-20z" fill="#f3322c"/><path d="m170 270h20v10h-20z" fill="#4bea69"/><path d="m190 270h20v10h-20z" fill="#254efb"/><path d="m210 270h20v10h-20z" fill="#f3322c"/><path d="m90 280h20v10h-20z" fill="#f3322c"/><path d="m120 280h10v10h-10z" fill="#4bea69"/><path d="m130 280h20v10h-20z" fill="#254efb"/><path d="m150 280h20v10h-20z" fill="#f3322c"/><path d="m170 280h20v10h-20z" fill="#4bea69"/><path d="m190 280h20v10h-20z" fill="#254efb"/><path d="m210 280h20v10h-20z" fill="#f3322c"/><path d="m90 290h20v10h-20z" fill="#254efb"/><path d="m120 290h10v10h-10z" fill="#f3322c"/><path d="m130 290h20v10h-20z" fill="#4bea69"/><path d="m150 290h20v10h-20z" fill="#254efb"/><path d="m170 290h20v10h-20z" fill="#f3322c"/><path d="m190 290h20v10h-20z" fill="#4bea69"/><path d="m210 290h20v10h-20z" fill="#254efb"/><path d="m90 300h20v10h-20z" fill="#254efb"/><path d="m120 300h10v10h-10z" fill="#f3322c"/><path d="m130 300h20v10h-20z" fill="#4bea69"/><path d="m150 300h20v10h-20z" fill="#254efb"/><path d="m170 300h20v10h-20z" fill="#f3322c"/><path d="m190 300h20v10h-20z" fill="#4bea69"/><path d="m210 300h20v10h-20z" fill="#254efb"/><path d="m90 310h20v10h-20z" fill="#4bea69"/><path d="m120 310h10v10h-10z" fill="#254efb"/><path d="m130 310h20v10h-20z" fill="#f3322c"/><path d="m150 310h20v10h-20z" fill="#4bea69"/><path d="m170 310h20v10h-20z" fill="#254efb"/><path d="m190 310h20v10h-20z" fill="#f3322c"/><path d="m210 310h20v10h-20z" fill="#4bea69"/><path d="m120 20h100v10h-100z" fill="#f39d44"/><path d="m110 30h10v10h-10z" fill="#f39d44"/><path d="m120 30h100v10h-100z" fill="#eeb78c"/><path d="m220 30h10v10h-10z" fill="#f39d44"/><path d="m100 40h10v10h-10z" fill="#f39d44"/><path d="m110 40h10v10h-10z" fill="#eeb78c"/><path d="m120 40h40v10h-40z" fill="#f9f5e9"/><path d="m160 40h20v10h-20z" fill="#eeb78c"/><path d="m180 40h40v10h-40z" fill="#f9f5e9"/><path d="m220 40h10v10h-10z" fill="#eeb78c"/><path d="m230 40h10v10h-10z" fill="#f39d44"/><path d="m100 50h10v10h-10z" fill="#f39d44"/><path d="m110 50h10v10h-10z" fill="#eeb78c"/><path d="m120 50h100v10h-100z" fill="#f9f5e9"/><path d="m220 50h10v10h-10z" fill="#eeb78c"/><path d="m230 50h10v10h-10z" fill="#f39d44"/><path d="m100 60h10v10h-10z" fill="#f39d44"/><path d="m110 60h10v10h-10z" fill="#eeb78c"/><path d="m120 60h10v10h-10z" fill="#f9f5e9"/><path d="m130 60h20v10h-20z" fill="#5d3500"/><path d="m150 60h10v10h-10z" fill="#eeb78c"/><path d="m160 60h20v10h-20z" fill="#f9f5e9"/><path d="m180 60h10v10h-10z" fill="#eeb78c"/><path d="m190 60h20v10h-20z" fill="#5d3500"/><path d="m210 60h10v10h-10z" fill="#f9f5e9"/><path d="m220 60h10v10h-10z" fill="#eeb78c"/><path d="m230 60h10v10h-10z" fill="#f39d44"/><path d="m100 70h10v10h-10z" fill="#f39d44"/><path d="m110 70h10v10h-10z" fill="#eeb78c"/><path d="m120 70h30v10h-30z" fill="#f9f5e9"/><path d="m150 70h10v10h-10z" fill="#eeb78c"/><path d="m160 70h20v10h-20z" fill="#f9f5e9"/><path d="m180 70h10v10h-10z" fill="#eeb78c"/><path d="m190 70h30v10h-30z" fill="#f9f5e9"/><path d="m220 70h10v10h-10z" fill="#eeb78c"/><path d="m230 70h10v10h-10z" fill="#f39d44"/><path d="m100 80h10v10h-10z" fill="#f39d44"/><path d="m110 80h10v10h-10z" fill="#eeb78c"/><path d="m120 80h40v10h-40z" fill="#f9f5e9"/><path d="m160 80h20v10h-20z" fill="#eeb78c"/><path d="m180 80h40v10h-40z" fill="#f9f5e9"/><path d="m220 80h10v10h-10z" fill="#eeb78c"/><path d="m230 80h10v10h-10z" fill="#f39d44"/><path d="m100 90h20v10h-20z" fill="#f39d44"/><path d="m120 90h10v10h-10z" fill="#eeb78c"/><path d="m130 90h80v10h-80z" fill="#f9f5e9"/><path d="m210 90h20v10h-20z" fill="#eeb78c"/><path d="m230 90h10v10h-10z" fill="#f39d44"/><path d="m90 100h40v10h-40z" fill="#db8323"/><path d="m130 100h10v10h-10z" fill="#eeb78c"/><path d="m140 100h80v10h-80z" fill="#f9f5e9"/><path d="m220 100h10v10h-10z" fill="#eeb78c"/><path d="m230 100h10v10h-10z" fill="#f39d44"/><path d="m80 110h60v10h-60z" fill="#db8323"/><path d="m140 110h80v10h-80z" fill="#f9f5e9"/><path d="m220 110h10v10h-10z" fill="#eeb78c"/><path d="m230 110h10v10h-10z" fill="#f39d44"/><path d="m80 120h60v10h-60z" fill="#db8323"/><path d="m140 120h10v10h-10z" fill="#f39d44"/><path d="m150 120h70v10h-70z" fill="#f9f5e9"/><path d="m220 120h10v10h-10z" fill="#eeb78c"/><path d="m230 120h10v10h-10z" fill="#f39d44"/><path d="m70 130h70v10h-70z" fill="#db8323"/><path d="m140 130h10v10h-10z" fill="#f39d44"/><path d="m150 130h70v10h-70z" fill="#f9f5e9"/><path d="m220 130h10v10h-10z" fill="#eeb78c"/><path d="m230 130h10v10h-10z" fill="#f39d44"/><path d="m70 140h70v10h-70z" fill="#db8323"/><path d="m140 140h10v10h-10z" fill="#f39d44"/><path d="m150 140h70v10h-70z" fill="#f9f5e9"/><path d="m220 140h10v10h-10z" fill="#eeb78c"/><path d="m230 140h10v10h-10z" fill="#f39d44"/><path d="m70 150h70v10h-70z" fill="#db8323"/><path d="m140 150h10v10h-10z" fill="#f39d44"/><path d="m150 150h70v10h-70z" fill="#f9f5e9"/><path d="m220 150h10v10h-10z" fill="#eeb78c"/><path d="m230 150h10v10h-10z" fill="#f39d44"/><path d="m70 160h60v10h-60z" fill="#db8323"/><path d="m130 160h20v10h-20z" fill="#f39d44"/><path d="m150 160h70v10h-70z" fill="#f9f5e9"/><path d="m220 160h10v10h-10z" fill="#f39d44"/><path d="m70 170h50v10h-50z" fill="#db8323"/><path d="m120 170h30v10h-30z" fill="#f39d44"/><path d="m150 170h60v10h-60z" fill="#f9f5e9"/><path d="m210 170h10v10h-10z" fill="#f39d44"/><path d="m70 180h30v10h-30z" fill="#db8323"/><path d="m100 180h40v10h-40z" fill="#f39d44"/><path d="m140 180h60v10h-60z" fill="#f9f5e9"/><path d="m200 180h10v10h-10z" fill="#f39d44"/><path d="m60 190h10v10h-10z" fill="#f39d44"/><path d="m70 190h10v10h-10z" fill="#db8323"/><path d="m80 190h70v10h-70z" fill="#f39d44"/><path d="m150 190h60v10h-60z" fill="#f9f5e9"/><path d="m50 200h110v10h-110z" fill="#f39d44"/><path d="m160 200h70v10h-70z" fill="#f9f5e9"/><path d="m100 110h60v10h-60z"/><path d="m170 110h60v10h-60z"/><path d="m100 120h30v10h-30z"/><path d="m130 120h10v10h-10z" fill="#ff0e0e"/><path d="m140 120h20v10h-20z"/><path d="m170 120h30v10h-30z"/><path d="m200 120h10v10h-10z" fill="#ff0e0e"/><path d="m210 120h20v10h-20z"/><path d="m70 130h160v10h-160z"/><path d="m70 140h10v10h-10z"/><path d="m100 140h10v10h-10z"/><path d="m110 140h10v10h-10z" fill="#0adc4d"/><path d="m120 140h20v10h-20z"/><path d="m140 140h10v10h-10z" fill="#1929f4"/><path d="m150 140h10v10h-10z"/><path d="m170 140h10v10h-10z"/><path d="m180 140h10v10h-10z" fill="#0adc4d"/><path d="m190 140h20v10h-20z"/><path d="m210 140h10v10h-10z" fill="#1929f4"/><path d="m220 140h10v10h-10z"/><path d="m70 150h10v10h-10z"/><path d="m100 150h60v10h-60z"/><path d="m170 150h60v10h-60z"/><path d="m100 160h60v10h-60z"/><path d="m170 160h60v10h-60z"/></svg>