<svg height="320" shape-rendering="crispEdges" viewBox="0 0 320 320" width="320" xmlns="http://www.w3.org/2000/svg"><rect fill="#d5d7e1" height="100%" width="100%"/><g fill="#fffdf2"><path d="m90 210h140v10h-140z"/><path d="m90 220h140v10h-140z"/><path d="m90 230h140v10h-140z"/><path d="m90 240h140v10h-140z"/><path d="m90 250h20v10h-20z"/><path d="m120 250h110v10h-110z"/><path d="m90 260h20v10h-20z"/><path d="m120 260h110v10h-110z"/><path d="m90 270h20v10h-20z"/><path d="m120 270h110v10h-110z"/><path d="m90 280h20v10h-20z"/><path d="m120 280h110v10h-110z"/><path d="m90 290h20v10h-20z"/><path d="m120 290h110v10h-110z"/><path d="m90 300h20v10h-20z"/><path d="m120 300h110v10h-110z"/><path d="m90 310h20v10h-20z"/><path d="m120 310h110v10h-110z"/></g><path d="m160 240h10v10h-10z" fill="#34ac80"/><path d="m180 240h10v10h-10z" fill="#34ac80"/><path d="m170 250h10v10h-10z" fill="#34ac80"/><path d="m160 260h20v10h-20z" fill="#ff7216"/><path d="m150 270h20v10h-20z" fill="#ff7216"/><path d="m150 280h10v10h-10z" fill="#ff7216"/><path d="m140 290h10v10h-10z" fill="#ff7216"/><path d="m150 20h20v10h-20z" fill="#d31e14"/><path d="m130 30h60v10h-60z" fill="#d31e14"/><path d="m120 40h20v10h-20z" fill="#f83001"/><path d="m140 40h10v10h-10z" fill="#d31e14"/><path d="m150 40h20v10h-20z" fill="#f83001"/><path d="m170 40h10v10h-10z" fill="#d31e14"/><path d="m180 40h20v10h-20z" fill="#f83001"/><path d="m110 50h30v10h-30z" fill="#f83001"/><path d="m140 50h10v10h-10z" fill="#d31e14"/><path d="m150 50h20v10h-20z" fill="#f83001"/><path d="m170 50h10v10h-10z" fill="#d31e14"/><path d="m180 50h30v10h-30z" fill="#f83001"/><path d="m100 60h30v10h-30z" fill="#f83001"/><path d="m130 60h10v10h-10z" fill="#d31e14"/><path d="m140 60h40v10h-40z" fill="#f83001"/><path d="m180 60h10v10h-10z" fill="#d31e14"/><path d="m190 60h30v10h-30z" fill="#f83001"/><path d="m100 70h30v10h-30z" fill="#f83001"/><path d="m130 70h10v10h-10z" fill="#d31e14"/><path d="m140 70h40v10h-40z" fill="#f83001"/><path d="m180 70h10v10h-10z" fill="#d31e14"/><path d="m190 70h30v10h-30z" fill="#f83001"/><path d="m90 80h30v10h-30z" fill="#f83001"/><path d="m120 80h10v10h-10z" fill="#d31e14"/><path d="m130 80h60v10h-60z" fill="#f83001"/><path d="m190 80h10v10h-10z" fill="#d31e14"/><path d="m200 80h30v10h-30z" fill="#f83001"/><path d="m90 90h30v10h-30z" fill="#f83001"/><path d="m120 90h10v10h-10z" fill="#d31e14"/><path d="m130 90h60v10h-60z" fill="#f83001"/><path d="m190 90h10v10h-10z" fill="#d31e14"/><path d="m200 90h30v10h-30z" fill="#f83001"/><path d="m70 100h180v10h-180z" fill="#d31e14"/><path d="m70 110h180v10h-180z" fill="#d31e14"/><path d="m90 120h140v10h-140z" fill="#f83001"/><path d="m90 130h140v10h-140z" fill="#f83001"/><path d="m50 140h20v10h-20z" fill="#f83001"/><path d="m70 140h10v10h-10z"/><path d="m80 140h160v10h-160z" fill="#d31e14"/><path d="m240 140h10v10h-10z"/><path d="m250 140h20v10h-20z" fill="#f83001"/><path d="m50 150h20v10h-20z" fill="#f83001"/><path d="m70 150h10v10h-10z"/><path d="m80 150h160v10h-160z" fill="#d31e14"/><path d="m240 150h10v10h-10z"/><path d="m250 150h20v10h-20z" fill="#f83001"/><path d="m40 160h10v10h-10z" fill="#d31e14"/><path d="m50 160h20v10h-20z" fill="#f83001"/><path d="m70 160h10v10h-10z"/><path d="m80 160h160v10h-160z" fill="#d31e14"/><path d="m240 160h10v10h-10z"/><path d="m250 160h20v10h-20z" fill="#f83001"/><path d="m270 160h10v10h-10z" fill="#d31e14"/><path d="m40 170h10v10h-10z" fill="#d31e14"/><path d="m50 170h20v10h-20z" fill="#f83001"/><path d="m70 170h10v10h-10z"/><path d="m80 170h160v10h-160z" fill="#d31e14"/><path d="m240 170h10v10h-10z"/><path d="m250 170h20v10h-20z" fill="#f83001"/><path d="m270 170h10v10h-10z" fill="#d31e14"/><path d="m50 180h20v10h-20z" fill="#f83001"/><path d="m70 180h10v10h-10z"/><path d="m80 180h30v10h-30z" fill="#d31e14"/><path d="m110 180h110v10h-110z"/><path d="m220 180h20v10h-20z" fill="#d31e14"/><path d="m240 180h10v10h-10z"/><path d="m250 180h20v10h-20z" fill="#f83001"/><path d="m50 190h20v10h-20z" fill="#f83001"/><path d="m70 190h10v10h-10z"/><path d="m80 190h160v10h-160z" fill="#d31e14"/><path d="m240 190h10v10h-10z"/><path d="m250 190h20v10h-20z" fill="#f83001"/><path d="m90 200h140v10h-140z" fill="#f83001"/><path d="m100 110h60v10h-60z" fill="#d7d3cd"/><path d="m170 110h60v10h-60z" fill="#d7d3cd"/><path d="m100 120h10v10h-10z" fill="#d7d3cd"/><path d="m110 120h20v10h-20z" fill="#fdf8ff"/><path d="m130 120h20v10h-20z"/><path d="m150 120h10v10h-10z" fill="#d7d3cd"/><path d="m170 120h10v10h-10z" fill="#d7d3cd"/><path d="m180 120h20v10h-20z" fill="#fdf8ff"/><path d="m200 120h20v10h-20z"/><path d="m220 120h10v10h-10z" fill="#d7d3cd"/><path d="m70 130h40v10h-40z" fill="#d7d3cd"/><path d="m110 130h20v10h-20z" fill="#fdf8ff"/><path d="m130 130h20v10h-20z"/><path d="m150 130h30v10h-30z" fill="#d7d3cd"/><path d="m180 130h20v10h-20z" fill="#fdf8ff"/><path d="m200 130h20v10h-20z"/><path d="m220 130h10v10h-10z" fill="#d7d3cd"/><path d="m70 140h10v10h-10z" fill="#d7d3cd"/><path d="m100 140h10v10h-10z" fill="#d7d3cd"/><path d="m110 140h20v10h-20z" fill="#fdf8ff"/><path d="m130 140h20v10h-20z"/><path d="m150 140h10v10h-10z" fill="#d7d3cd"/><path d="m170 140h10v10h-10z" fill="#d7d3cd"/><path d="m180 140h20v10h-20z" fill="#fdf8ff"/><path d="m200 140h20v10h-20z"/><path d="m220 140h10v10h-10z" fill="#d7d3cd"/><path d="m70 150h10v10h-10z" fill="#d7d3cd"/><path d="m100 150h10v10h-10z" fill="#d7d3cd"/><path d="m110 150h20v10h-20z" fill="#fdf8ff"/><path d="m130 150h20v10h-20z"/><path d="m150 150h10v10h-10z" fill="#d7d3cd"/><path d="m170 150h10v10h-10z" fill="#d7d3cd"/><path d="m180 150h20v10h-20z" fill="#fdf8ff"/><path d="m200 150h20v10h-20z"/><path d="m220 150h10v10h-10z" fill="#d7d3cd"/><path d="m100 160h60v10h-60z" fill="#d7d3cd"/><path d="m170 160h60v10h-60z" fill="#d7d3cd"/></svg>