<svg xmlns="http://www.w3.org/2000/svg" viewBox="0 -0.5 50 50" shape-rendering="crispEdges">
	<title>Bitcoin Pussies #004</title>
	<desc>Bitcoin Pussies are 69 uniquely drawn and inscribed cats on Bitcoin</desc>
	<desc xmlns:meow="https://bitcoinpussies.com/">
		<meow:traits>
			<meow:Skin>Grey</meow:Skin>
			<meow:Eyes>Wink</meow:Eyes>
			<meow:Gear>None</meow:Gear>
			<meow:Message>Meeeeooowwwwww</meow:Message>
		</meow:traits>
	</desc>
	<path stroke="#c3ff81" d="M0 0h50M0 1h50M0 2h50M0 3h50M0 4h50M0 5h50M0 6h50M0 7h50M0 8h50M0 9h50M0 10h50M0 11h50M0 12h50M0 13h50M0 14h50M0 15h50M0 16h16M19 16h13M35 16h15M0 17h15M21 17h9M36 17h14M0 18h15M36 18h14M0 19h15M36 19h14M0 20h15M36 20h14M0 21h15M36 21h14M0 22h15M36 22h14M0 23h16M35 23h15M0 24h15M36 24h14M0 25h15M36 25h14M0 26h15M36 26h14M0 27h15M36 27h14M0 28h15M36 28h14M0 29h16M35 29h15M0 30h16M35 30h15M0 31h17M34 31h16M0 32h19M32 32h18M0 33h19M32 33h18M0 34h18M33 34h17M0 35h18M33 35h17M0 36h16M33 36h17M0 37h16M32 37h18M0 38h16M19 38h1M31 38h19M0 39h50M0 40h50M0 41h50M0 42h50M0 43h50M0 44h50M0 45h50M0 46h50M0 47h50M0 48h50M0 49h50" />
	<path stroke="#000000" d="M16 16h3M32 16h3M15 17h1M19 17h2M30 17h2M35 17h1M15 18h1M21 18h9M35 18h1M15 19h1M19 19h2M30 19h2M35 19h1M15 20h1M18 20h1M32 20h1M35 20h1M15 21h1M17 21h1M33 21h1M35 21h1M15 22h2M34 22h2M16 23h1M34 23h1M15 24h1M21 24h1M29 24h2M35 24h1M15 25h1M20 25h1M22 25h1M29 25h2M35 25h1M15 26h1M25 26h1M35 26h1M15 27h1M24 27h3M35 27h1M15 28h1M35 28h1M16 29h1M34 29h1M16 30h1M34 30h1M17 31h2M32 31h2M19 32h2M30 32h2M19 33h1M31 33h1M18 34h1M32 34h1M18 35h1M32 35h1M16 36h3M22 36h2M27 36h2M32 36h1M16 37h1M18 37h2M24 37h1M26 37h1M31 37h1M16 38h3M20 38h11" />
	<path stroke="#707070" d="M16 17h3M32 17h3M16 18h1M20 18h1M30 18h1M34 18h1M16 19h1M21 19h2M24 19h1M26 19h1M28 19h2M34 19h1M16 20h1M19 20h6M26 20h6M34 20h1M16 21h1M18 21h15M34 21h1M17 22h17M17 23h12M31 23h3M16 24h5M22 24h6M32 24h3M16 25h4M21 25h1M23 25h5M32 25h3M18 26h7M26 26h3M31 26h2M16 27h2M20 27h4M27 27h4M33 27h2M18 28h15M17 29h17M17 30h17M19 31h13M21 32h9M20 33h11M19 34h13M19 35h13M19 36h3M24 36h3M29 36h3M17 37h1M20 37h4M25 37h1M27 37h4" />
	<path stroke="#e2c6c0" d="M17 18h3M31 18h3M17 19h2M32 19h2M17 20h1M33 20h1" />
	<path stroke="#616161" d="M23 19h1M25 19h1M27 19h1M25 20h1M16 26h2M33 26h2M16 28h2M33 28h2" />
	<path stroke="#c3d57f" d="M29 23h2M28 24h1M31 24h1M28 25h1M31 25h1M29 26h2" />
	<path stroke="#f0cdc5" d="M18 27h2M31 27h2" />
</svg>