<svg viewBox="0 0 2500 2500" xmlns:xlink="http://www.w3.org/1999/xlink" xmlns="http://www.w3.org/2000/svg"><g><path d="M0 0h25e2v25e2H0z" style="fill-rule:evenodd;clip-rule:evenodd;fill:#d0cae2;"></path><path d="M1634.754 2148.807c1.927 5.057.0.0-5.78-15.17l-26.192 2.763.003.001c-29.47 61.966-189.929 58.995-254.948 60.108-259.599 4.447-472.17-48.054-637.709-157.502C580.824 2055.622 354.002 2296.891 3e2 25e2h1618C1826.858 2320.131 1699.317 2185.588 1634.754 2148.807z" style="fill-rule:evenodd;clip-rule:evenodd;fill:#38696c;stroke:#000;stroke-linecap:round;stroke-linejoin:round;stroke-width:7px"></path><path d="M867.603 1293.527c135.408-338.495 331.41-420.844 588.004-247.048 241.577-117.709 380.271-75.33 416.082 127.137 85.736 16.593 133.412 45.005 143.028 85.238 38.849 13.16 55.222 33.628 49.121 61.401 34.595 16.186 41.096 32.078 19.504 47.676 27.655 37.786 20.431 64.754-21.671 80.905 15.662 25.919-1.675 43.978-52.01 54.177-17.8 44.837-54.641 74.213-110.522 88.128 78.07 53.384 133.361 153.359 109.076 195.761-96.726 186.205-207.247 292.151-331.565 317.84-25.241 2.762-41.134 12.394-47.676 28.895-84.606 9.871-201.87 13.723-351.791 11.557-265.722-14.316-452.573-58.139-560.555-131.47C551.93 1890.923 644.393 1306.53 867.603 1293.527z" style="fill-rule:evenodd;clip-rule:evenodd;fill:#55a544;stroke:#000000;stroke-width:8.5039;stroke-linecap:round;stroke-linejoin:round;stroke-miterlimit:2.6131;"></path><path d="M1602.782 2136.4l.003.001c-29.47 61.966-189.929 58.995-254.948 60.108-259.599 4.447-472.17-48.054-637.709-157.502-.339-9.494 1.828-17.921 6.501-25.282 107.982 73.33 294.833 117.153 560.555 131.47C1412.208 2147.146 1520.737 2144.214 1602.782 2136.4z" style="fill-rule:evenodd;clip-rule:evenodd;fill:#55a544;stroke:#000000;stroke-width:8.5039;stroke-linecap:round;stroke-linejoin:round;stroke-miterlimit:2.6131;"></path><path d="M867.603 1293.527c-6.666 40.876-12.204 79.643-16.615 116.301" style="fill-rule:evenodd;clip-rule:evenodd;fill:none;stroke:#000000;stroke-width:8.5039;stroke-linecap:round;stroke-linejoin:round;stroke-miterlimit:2.6131;"></path><path d="M1525.676 1561.525c-51.268 27.946-114.836 54.192-190.704 78.737" style="fill-rule:evenodd;clip-rule:evenodd;fill:none;stroke:#000000;stroke-width:8.5039;stroke-linecap:round;stroke-linejoin:round;stroke-miterlimit:2.6131;"></path><path d="M1661.48 1575.972c43.172 17.706 78.809 35.524 106.91 53.455" style="fill-rule:evenodd;clip-rule:evenodd;fill:none;stroke:#000000;stroke-width:8.5039;stroke-linecap:round;stroke-linejoin:round;stroke-miterlimit:2.6131;"></path><path d="M1899.139 1591.141c-51.724 10.804-107.176 16.714-166.355 17.731" style="fill-rule:evenodd;clip-rule:evenodd;fill:none;stroke:#000000;stroke-width:8.5039;stroke-linecap:round;stroke-linejoin:round;stroke-miterlimit:2.6131;"></path><path d="M1153.659 1482.787c60.118 38.148 137.411 57.893 231.879 59.234 39.01-.234 79.221.007 120.635.722 32.19-13.808 57.713-18.865 76.571-15.17 48.169-23.217 60.691-48.499 37.562-75.848" style="fill-rule:evenodd;clip-rule:evenodd;fill:none;stroke:#000000;stroke-width:8.5039;stroke-linecap:round;stroke-linejoin:round;stroke-miterlimit:2.6131;"></path><path d="M1455.607 1046.479c34.191 41.927 51.047 84.546 50.566 127.858-162.616-97.202-306.126-95.756-430.529 4.334" style="fill-rule:evenodd;clip-rule:evenodd;fill:none;stroke:#000000;stroke-width:8.5039;stroke-linecap:round;stroke-linejoin:round;stroke-miterlimit:2.6131;"></path><path d="M1871.688 1173.615c-13.481 2.256-24.317.329-32.506-5.78-3.124-4.977-8.661-7.145-16.614-6.501-15.036 5.566-26.834 5.807-35.396.723-9.792-4.853-23.998-7.501-42.619-7.946-88.686-4.572-168.146 2.17-238.38 20.226 20.481 29.685 50.58 58.098 90.295 85.239 17.034 9.995 18.72 25.887 5.057 47.676-140.781-70.757-280.197-57.274-418.249 40.452-23.248 12.323-56.235 17.861-98.964 16.615-20.681-3.351-31.758 4.112-33.229 22.393-.159 13.995 10.436 21.459 31.784 22.394 26.147.214 47.337 2.38 63.568 6.501" style="fill-rule:evenodd;clip-rule:evenodd;fill:none;stroke:#000000;stroke-width:8.5039;stroke-linecap:round;stroke-linejoin:round;stroke-miterlimit:2.6131;"></path><path d="M1559.124 1231.308c-146.388-18.638-254.816-7.048-325.282 34.77-40.94 36.795-86.93 57.984-137.972 63.568" style="fill-rule:evenodd;clip-rule:evenodd;fill:none;stroke:#000000;stroke-width:8.5039;stroke-linecap:round;stroke-linejoin:round;stroke-miterlimit:2.6131;"></path><path d="M1609.225 1290.928c119.034-61.942 254.197-72.633 405.492-32.075" style="fill-rule:evenodd;clip-rule:evenodd;fill:none;stroke:#000000;stroke-width:8.5039;stroke-linecap:round;stroke-linejoin:round;stroke-miterlimit:2.6131;"></path><path d="M1618.139 1315.921c160.721-64.233 309.287-62.788 445.699 4.334" style="fill-rule:evenodd;clip-rule:evenodd;fill:none;stroke:#000000;stroke-width:8.5039;stroke-linecap:round;stroke-linejoin:round;stroke-miterlimit:2.6131;"></path><path d="M1620.306 1451.725c-183.453 85.64-341.41 73.601-473.87-36.118 81.906-93.234 190.983-132.241 327.231-117.023 89.674 13.565 143.851 34.754 162.532 63.568C1639.566 1387.294 1634.269 1417.151 1620.306 1451.725z" style="fill-rule:evenodd;clip-rule:evenodd;fill:#FFFFFF;stroke:#000000;stroke-width:8.5039;stroke-linecap:round;stroke-linejoin:round;stroke-miterlimit:2.6131;"></path><path d="M1630.669 1470.517c-6.027-5.755-11.21-11.219-15.568-16.401 1.734-.795 3.466-1.58 5.204-2.392 9.248-22.898 14.693-43.727 16.338-62.487h.002c122.337-97.366 247.398-113.377 375.182-48.035 35.336 2.547 59.174 11.457 71.514 26.728 27.951 36.626 20.728 63.594-21.671 80.905C1921.202 1499.447 1777.535 1506.674 1630.669 1470.517z" style="fill-rule:evenodd;clip-rule:evenodd;fill:#FFFFFF;stroke:#000000;stroke-width:8.5039;stroke-linecap:round;stroke-linejoin:round;stroke-miterlimit:2.6131;"></path><path d="M1456.328 1443.056c16.978-47.016 11.439-84.579-16.614-112.689-81.824-27.566-133.352-11.433-154.586 48.399-14.148 60.477.06 95.151 42.62 104.02C1397.808 1492.729 1440.667 1479.486 1456.328 1443.056z" style="fill-rule:evenodd;clip-rule:evenodd;fill:#004781;stroke:#000000;stroke-width:8.5039;stroke-miterlimit:10;"></path><path d="M1358.088 1341.926c.079-4.984-1.606-8.115-5.057-9.391-10.363-2.927-17.587-.278-21.671 7.947-1.294 9.487 3.281 15.989 13.725 19.504C1355.514 1356.377 1359.848 1350.357 1358.088 1341.926z" style="fill-rule:evenodd;clip-rule:evenodd;fill:#FFFFFF;"></path><path d="M1348.697 1407.661c3.692-1.507 6.822-3.914 9.391-7.224 3.804-9.394-.771-14.451-13.725-15.17-6.118 2.252-9.007 7.309-8.668 15.17C1337.875 1407.539 1342.209 1409.947 1348.697 1407.661z" style="fill-rule:evenodd;clip-rule:evenodd;fill:#FFFFFF;"></path><path d="M1403.597 1393.936c22.864-10.049 25.753-21.848 8.668-35.396-14.656-5.277-24.529-1.183-29.618 12.281C1381.388 1386.17 1388.371 1393.875 1403.597 1393.936z" style="fill-rule:evenodd;clip-rule:evenodd;fill:#FFFFFF;"></path><path d="M1927.663 1438.375c16.977-47.016 11.44-84.579-16.614-112.689-81.824-27.566-133.352-11.433-154.586 48.399-14.147 60.477.06 95.151 42.62 104.02C1869.142 1488.047 1912.002 1474.804 1927.663 1438.375z" style="fill-rule:evenodd;clip-rule:evenodd;fill:#004781;stroke:#000000;stroke-width:8.5039;stroke-miterlimit:10;"></path><path d="M1829.422 1337.244c.079-4.984-1.605-8.115-5.057-9.391-10.363-2.927-17.587-.278-21.671 7.947-1.295 9.487 3.281 15.989 13.725 19.504C1826.848 1351.695 1831.182 1345.675 1829.422 1337.244z" style="fill-rule:evenodd;clip-rule:evenodd;fill:#FFFFFF;"></path><path d="M1820.031 1402.98c3.692-1.507 6.822-3.914 9.391-7.224 3.805-9.394-.771-14.451-13.725-15.17-6.118 2.252-9.007 7.309-8.668 15.17C1809.21 1402.858 1813.544 1405.265 1820.031 1402.98z" style="fill-rule:evenodd;clip-rule:evenodd;fill:#FFFFFF;"></path><path d="M1874.931 1389.255c22.864-10.049 25.753-21.848 8.668-35.396-14.656-5.277-24.529-1.183-29.617 12.281C1852.723 1381.489 1859.706 1389.194 1874.931 1389.255z" style="fill-rule:evenodd;clip-rule:evenodd;fill:#FFFFFF;"></path><g><g><g><g><path d="M2014.537 1699.497c-28.302-32.317-76.914-16.189-335.269-9.692-149.649 3.766-446.23-12.683-513.836 69.608-42.586 51.823 28.261 212.25 306.638 270.675C1914.285 2122.907 2085.366 1780.337 2014.537 1699.497z" style="fill:#9F4238;"></path><path d="M2014.537 1699.497c-28.302-32.317-76.914-16.189-335.269-9.692-149.649 3.766-446.23-12.683-513.836 69.608-42.586 51.823 28.261 212.25 306.638 270.675C1914.285 2122.907 2085.366 1780.337 2014.537 1699.497z" style="fill:none;stroke:#000000;stroke-width:8.5039;"></path></g></g></g><g><path d="M1964.798 1744.231c-23.769-22.563-64.597-11.304-281.553-6.768-125.672 2.63-374.737-8.856-431.513 48.6-35.762 36.177 23.732 148.187 257.509 188.978C1880.608 2039.841 2024.274 1800.668 1964.798 1744.231z" style="fill:#FFFFFF;stroke:#000000;stroke-width:8.5039;"></path></g><path d="M1935.052 1814.276c1.506-39.395-3.319-66.24-8.304-83.038-3.375-.233-7.021-.399-10.978-.499 5.001 15.862 10.506 43.3 8.802 85.043-34.238 4.808-69.956 8.579-106.37 11.492-.794-27.144-2.845-52.543-4.424-72.138-.634-7.826-1.246-15.43-1.626-21.578-3.36.127-6.73.255-10.246.393.327 5.439.877 12.484 1.63 21.844 1.584 19.606 3.64 45.121 4.419 72.282-41.908 3.157-84.616 5.206-126.924 6.414.322-40.049-2.539-76.259-4.611-96.912-3.376.055-6.824.111-10.35.144 1.979 20.321 4.809 56.835 4.466 97.045-41.773 1.063-83.032 1.318-122.65 1.025-1.142-41.998-8.101-76.519-13.476-97.405-3.495.039-6.979.089-10.49.139 5.302 20.082 12.551 54.72 13.736 97.183-53.374-.526-103.456-2.021-147.39-3.855-.436-36.177-3.433-67.353-5.708-86.184-3.433.36-6.824.748-10.189 1.147 2.244 18.515 5.188 49.087 5.64 84.6-61.424-2.692-109.73-5.959-136.349-7.948.706 3.063 1.672 6.214 2.913 9.448 27.456 2.022 74.463 5.134 133.493 7.71.0 30.328-1.957 63.625-7.706 95.727 3.178 1.346 6.367 2.692 9.68 4.005 6.17-33.248 8.257-67.846 8.278-99.299 43.98 1.827 94.093 3.317 147.478 3.838.249 39.417-4.928 84.832-21.515 131.295 3.396.565 6.808 1.152 10.168 1.662 16.597-47.027 21.826-92.957 21.577-132.873 39.524.293 80.69.033 122.375-1.013-1.065 51.419-7.722 107.158-28.032 141.973 3.889-.078 7.769-.166 11.591-.316 19.432-36.825 25.892-91.601 26.931-141.939 42.406-1.202 85.239-3.246 127.277-6.403.768 44.397-2.327 91.795-16.633 124.277 4.31-1.451 8.522-2.968 12.686-4.519 12.245-33.48 14.935-78.497 14.188-120.556 36.149-2.88 71.618-6.601 105.669-11.326-1.22 19.085-3.942 40.956-8.74 65.714 4.466-4.093 8.699-8.219 12.682-12.384 3.474-20.298 5.562-38.559 6.553-54.819 11.685-1.706 23.115-3.584 34.409-5.539 1.412-3.395 2.659-6.751 3.729-10.041C1960.378 1810.289 1947.869 1812.382 1935.052 1814.276z"></path></g><g><path d="M1066.261 1710.735c-1.429.482-35.041 12.173-44.96 41.379-6.209 18.273-1.626 39.092 13.609 61.882.888 1.328 2.688 1.689 4.022.797 1.33-.889 1.688-2.693.802-4.025-14.168-21.19-18.521-40.286-12.946-56.758 8.968-26.482 41.011-37.671 41.334-37.776 1.519-.525 2.329-2.172 1.818-3.684C1069.424 1711.03 1067.774 1710.224 1066.261 1710.735z"></path></g><path d="M2120.803 1419.139c-3.423-45.098-7.636-88.517-12.639-130.258l-1042.734-80.269-3.995 63.23c-133.967 52.533-303.133 122.147-507.497 208.841-58.48 36.521-64.72 95.016-18.72 175.487 74.091 32.645 106.699-3.76 97.827-109.214 192.749-53.177 332.349-81.693 418.801-85.547 5.177 51.776 21.454 93.187 48.829 124.234 79.13 89.746 295.059 91.547 391.778 28.044 48.001-31.515 85.118-81.132 111.35-148.85 42.402 91.858 107.853 151.827 196.35 179.908C1991.923 1705.594 2128.815 1644.17 2120.803 1419.139z" style="fill-rule:evenodd;clip-rule:evenodd;stroke:#000000;fill:#094c31;stroke-width:9.5;stroke-miterlimit:2.6131;"></path><path d="M1207.163 1229.146c61.865-.866 112.938.451 153.219 3.951 24.649 26.794 2.684 113.099 23.97 136.602 25.556 28.222 55.834-11.425 79.152 27.976 16.847 28.463 28.783 118.124 42.511 159.845-21.334 34.932-62.395 51.509-123.182 49.73-13.234-24.673-23.772-51.039-31.615-79.098-12.54-44.871-6.443-149.443-61.368-138.037-27.999 5.814-58.845 31.237-79.529-23.176C1194.711 1325.874 1200.666 1259.044 1207.163 1229.146z" style="fill-rule:evenodd;clip-rule:evenodd;fill:#75399f;"></path><path d="M2030.597 1601.869c-13.389-53.869-17.594-264.866-83.511-233.918-21.697 22.866-39.372 13.867-53.025-26.997-1.375-32.466-9.138-54.292-23.288-65.477-75.152-6.534-130.888-12.183-167.209-16.946-.696 123.502 27.378 166.112 84.221 127.828 24.478-24.564 45.182-6.023 62.113 55.624 11.179 84.366 28.131 144.51 50.854 180.431C1962.522 1627.673 2005.804 1620.825 2030.597 1601.869z" style="fill-rule:evenodd;clip-rule:evenodd;fill:#75399f;"></path></g></svg>