<svg xmlns="http://www.w3.org/2000/svg" viewBox="0 -0.5 50 50" shape-rendering="crispEdges">
	<title>Bitcoin Pussies #002</title>
	<desc>Bitcoin Pussies are 69 uniquely drawn and inscribed cats on Bitcoin</desc>
	<desc xmlns:meow="https://bitcoinpussies.com/">
		<meow:traits>
			<meow:Skin>Grey</meow:Skin>
			<meow:Eyes>Tired</meow:Eyes>
			<meow:Gear>Balloon</meow:Gear>
			<meow:Message>Come play with us</meow:Message>
		</meow:traits>
	</desc>
	<path stroke="#ff8419" d="M0 0h50M0 1h50M0 2h50M0 3h37M42 3h8M0 4h36M43 4h7M0 5h35M44 5h6M0 6h34M45 6h5M0 7h34M45 7h5M0 8h34M45 8h5M0 9h34M45 9h5M0 10h22M24 10h1M29 10h5M45 10h5M0 11h20M30 11h5M44 11h6M0 12h19M31 12h5M43 12h7M0 13h16M34 13h3M42 13h8M0 14h15M35 14h3M41 14h9M0 15h14M35 15h4M40 15h10M0 16h14M37 16h2M40 16h10M0 17h14M38 17h1M40 17h10M0 18h13M40 18h10M0 19h13M40 19h10M0 20h12M40 20h10M0 21h11M40 21h10M0 22h11M40 22h10M0 23h12M39 23h11M0 24h13M37 24h1M39 24h11M0 25h14M36 25h2M39 25h11M0 26h15M36 26h1M38 26h12M0 27h15M37 27h13M0 28h16M36 28h14M0 29h16M36 29h14M0 30h17M34 30h1M36 30h14M0 31h17M32 31h2M35 31h15M0 32h15M34 32h16M0 33h14M33 33h17M0 34h14M32 34h18M0 35h15M33 35h17M0 36h16M33 36h17M0 37h17M33 37h17M0 38h18M32 38h18M0 39h20M31 39h19M0 40h50M0 41h50M0 42h50M0 43h50M0 44h50M0 45h50M0 46h50M0 47h50M0 48h50M0 49h50" />
	<path stroke="#000000" d="M37 3h5M36 4h1M42 4h1M35 5h1M43 5h1M34 6h1M44 6h1M34 7h1M44 7h1M34 8h1M44 8h1M34 9h1M44 9h1M22 10h2M25 10h4M34 10h1M44 10h1M20 11h2M24 11h1M29 11h1M35 11h1M43 11h1M19 12h1M30 12h1M36 12h1M42 12h1M16 13h3M31 13h3M37 13h1M41 13h1M15 14h1M34 14h1M38 14h3M14 15h1M16 15h3M32 15h3M39 15h1M14 16h2M19 16h1M31 16h1M35 16h2M39 16h1M14 17h2M35 17h1M37 17h1M39 17h1M13 18h1M15 18h1M19 18h1M31 18h1M35 18h1M37 18h3M13 19h1M15 19h1M18 19h1M32 19h1M35 19h1M38 19h2M12 20h1M15 20h1M17 20h1M19 20h3M23 20h3M33 20h1M35 20h1M38 20h2M11 21h1M15 21h2M18 21h1M22 21h1M25 21h2M28 21h3M34 21h2M38 21h2M11 22h1M18 22h1M27 22h1M31 22h1M34 22h1M38 22h2M12 23h1M17 23h1M19 23h4M28 23h5M37 23h2M13 24h1M17 24h1M20 24h2M29 24h2M33 24h1M36 24h1M38 24h1M14 25h3M34 25h2M38 25h1M15 26h1M35 26h1M37 26h1M15 27h1M35 27h2M16 28h1M34 28h2M16 29h1M34 29h2M17 30h1M32 30h2M35 30h1M34 31h1M15 32h2M33 32h1M14 33h1M17 33h1M32 33h1M14 34h1M17 34h1M31 34h1M15 35h1M18 35h1M32 35h1M16 36h1M18 36h1M32 36h1M17 37h2M32 37h1M18 38h2M21 38h1M23 38h1M27 38h1M29 38h1M31 38h1M20 39h11" />
	<path stroke="#da000f" d="M37 4h4M36 5h5M35 6h2M38 6h4M35 7h2M38 7h4M35 8h2M38 8h5M35 9h7M35 10h2M38 10h4M36 11h5M37 12h3M38 13h2" />
	<path stroke="#bc0000" d="M41 4h1M41 5h2M42 6h2M42 7h2M43 8h1M42 9h2M42 10h2M41 11h2M40 12h2M40 13h1" />
	<path stroke="#ffe8e9" d="M37 6h1M37 7h1M37 8h1M37 10h1" />
	<path stroke="#2c43b3" d="M22 11h2M22 12h2M22 13h2M21 14h2M21 15h2M21 16h2M21 17h1M20 18h2M20 19h1" />
	<path stroke="#1c3095" d="M25 11h1M24 12h1M24 13h1M23 14h2M23 15h2M23 16h1M22 17h2M22 18h2M21 19h3M22 20h1" />
	<path stroke="#5ab100" d="M26 11h2M25 12h3M25 13h2M25 14h2M25 15h2M24 16h2M24 17h2M24 18h1M24 19h1" />
	<path stroke="#50a500" d="M28 11h1M28 12h1M27 13h2M27 14h2M27 15h1M26 16h2M26 17h1M25 18h2M25 19h1" />
	<path stroke="#a91cb4" d="M20 12h2M19 13h1M17 14h3M19 15h1M20 16h1M19 19h1M18 20h1M17 21h1M17 22h1" />
	<path stroke="#ffbd00" d="M29 12h1M29 13h2M29 14h1M28 15h2M28 16h2M27 17h2M27 18h2M26 19h2M26 20h2M27 21h1" />
	<path stroke="#db59e3" d="M20 13h2M20 14h1M20 15h1M20 17h1" />
	<path stroke="#68159b" d="M16 14h1M15 15h1M15 22h2M15 23h2M14 24h3" />
	<path stroke="#fdad00" d="M30 14h1M30 15h1M30 16h1M29 17h2M29 18h1M28 19h2M28 20h2" />
	<path stroke="#dd3d01" d="M31 14h3M31 15h1M30 18h1M30 19h2M30 20h3M31 21h2" />
	<path stroke="#707070" d="M16 16h3M32 16h3M16 17h1M34 17h1M16 18h1M34 18h1M16 19h1M34 19h1M16 20h1M34 20h1M19 21h3M23 21h2M19 22h8M28 22h3M18 23h1M23 23h5M18 24h2M22 24h7M31 24h2M17 25h7M27 25h7M16 26h2M20 26h4M27 26h4M33 26h2M16 27h19M17 28h17M17 29h17M20 30h9M31 30h1M21 31h2M27 31h1M15 33h2M15 34h2M30 34h1M16 35h2M21 35h1M27 35h1M29 35h3M17 36h1M19 36h3M24 36h1M27 36h5M19 37h13M20 38h1M22 38h1M24 38h3M28 38h1M30 38h1" />
	<path stroke="#e2c6c0" d="M17 17h3M31 17h3M17 18h2M32 18h2M17 19h1M33 19h1" />
	<path stroke="#b30013" d="M36 17h1M36 18h1M36 19h1M36 20h1M36 21h1M35 22h2M33 23h3" />
	<path stroke="#7e24b5" d="M14 18h1M14 19h1M13 20h2M12 21h3M12 22h3M13 23h2" />
	<path stroke="#ab0009" d="M37 19h1M37 20h1M37 21h1M37 22h1M36 23h1M34 24h2" />
	<path stroke="#c02c00" d="M33 21h1M32 22h2" />
	<path stroke="#980008" d="M24 25h3M24 26h3" />
	<path stroke="#ffb0a1" d="M18 26h2M31 26h2" />
	<path stroke="#f29f00" d="M18 30h2M29 30h2M17 31h1M20 31h1M28 31h1M31 31h1M17 32h1M21 32h7M32 32h1M18 33h1M30 33h2M18 34h1M21 34h1M27 34h1M29 34h1M19 35h2M24 35h1M28 35h1M22 36h2M25 36h2" />
	<path stroke="#ffba00" d="M18 31h2M29 31h2M18 32h3M28 32h4M19 33h11M19 34h2M22 34h5M28 34h1M22 35h2M25 35h2" />
	<path stroke="#ffffff" d="M23 31h4" />
</svg>