<svg xml:space="preserve" style="enable-background:new 0 0 2000 2000;" viewBox="0 0 2000 2000" y="0px" x="0px" xmlns:xlink="http://www.w3.org/1999/xlink" xmlns="http://www.w3.org/2000/svg" version="1.1">
<style type="text/css">
	.st0{fill:#FF3100;}
	.st1{fill:#00B5FF;}
	.st2{fill:#FFFF00;}
	.st3{fill:#FFFFFF;}
	.st4{fill:#FEFEFE;}
	.st5{fill:#E1E1E1;}
	.st6{fill:#040404;}
	.st7{fill:#9E9E9E;}
	.st8{fill:#9D9D9D;}
	.st9{fill:#181818;}
	.st10{fill:#5F5F5F;}
	.st11{fill:#1C1C1C;}
	.st12{fill:#BDBDBD;}
	.st13{fill:#BABABA;}
	.st14{fill:#050505;}
	.st15{fill:#0B0B0B;}
	.st16{fill:#020202;}
	.st17{fill:#5E5E5E;}
	.st18{fill:#4F4F4F;}
	.st19{fill:#F6F6F6;}
	.st20{fill:#9B9B9B;}
	.st21{fill:#7C7C7C;}
	.st22{fill:#838383;}
	.st23{fill:#535353;}
	.st24{fill:#DEDEDE;}
	.st25{fill:#B3B3B3;}
	.st26{fill:#545454;}
	.st27{fill:#8E8E8E;}
	.st28{fill:#030303;}
	.st29{fill:#F7F7F7;}
	.st30{fill:#E0E0E0;}
	.st31{fill:#F3F3F3;}
	.st32{fill:#0C0C0C;}
	.st33{fill:#0F0F0F;}
	.st34{fill:#FAFAFA;}
	.st35{fill:#A9A9A9;}
	.st36{fill:#2F2F2F;}
	.st37{fill:#3B3B3B;}
	.st38{fill:#F0F0F0;}
	.st39{fill:#444444;}
	.st40{fill:#F9F9F9;}
	.st41{fill:#AFAFAF;}
	.st42{fill:#EFEFEF;}
	.st43{fill:#7A7A7A;}
	.st44{fill:#6D6D6D;}
	.st45{fill:#787878;}
	.st46{fill:#747474;}
	.st47{fill:#1E1E1E;}
	.st48{fill:#373737;}
	.st49{fill:#939393;}
	.st50{fill:#121212;}
	.st51{fill:#6A6A6A;}
	.st52{fill:#070707;}
	.st53{fill:#D1D1D1;}
</style>
<g id="レイヤー_1">
	<rect height="2000" width="2000" class="st3"></rect>
</g>
<g id="レイヤー_2">
	<g>
		<rect height="50.7" width="50.7" y="1949.3" x="1481.3"></rect>
		<rect height="50.7" width="50.7" y="1949.3" x="1430.6"></rect>
		<rect height="50.7" width="50.7" y="1949.3" x="1379.9"></rect>
		<rect height="50.7" width="50.7" y="1949.3" x="1329.3"></rect>
		<rect height="50.7" width="50.7" y="1949.3" x="1278.6"></rect>
		<rect height="50.7" width="50.7" y="1949.3" x="1228"></rect>
		<rect height="50.7" width="50.7" y="1949.3" x="1177.3"></rect>
		<rect height="50.7" width="50.7" y="1949.3" x="1126.6"></rect>
		<rect height="50.7" width="50.7" y="1949.3" x="1076"></rect>
		<rect height="50.7" width="50.7" y="1949.3" x="1025.3"></rect>
		<rect height="50.7" width="50.7" y="1949.3" x="974.7"></rect>
		<rect height="50.7" width="50.7" y="1949.3" x="924"></rect>
		<rect height="50.7" width="50.7" y="1949.3" x="873.4"></rect>
		<rect height="50.7" width="50.7" y="1949.3" x="822.7"></rect>
		<rect height="50.7" width="50.7" y="1949.3" x="772"></rect>
		<rect height="50.7" width="50.7" y="1949.3" x="721.4"></rect>
		<rect height="50.7" width="50.7" y="1949.3" x="670.7"></rect>
		<rect height="50.7" width="50.7" y="1949.3" x="620.1"></rect>
		<rect height="50.7" width="50.7" y="1949.3" x="569.4"></rect>
		<rect height="50.7" width="50.7" y="1949.3" x="518.7"></rect>
		<rect height="50.7" width="50.7" y="1898.7" x="1481.3"></rect>
		<rect height="50.7" width="50.7" y="1898.7" x="1430.6"></rect>
		<rect height="50.7" width="50.7" y="1898.7" x="1379.9"></rect>
		<rect height="50.7" width="50.7" y="1898.7" x="1329.3"></rect>
		<rect height="50.7" width="50.7" y="1898.7" x="1278.6"></rect>
		<rect height="50.7" width="50.7" y="1898.7" x="1228"></rect>
		<rect height="50.7" width="50.7" y="1898.7" x="1177.3"></rect>
		<rect height="50.7" width="50.7" y="1898.7" x="1126.6"></rect>
		<rect height="50.7" width="50.7" y="1898.7" x="1076"></rect>
		<rect height="50.7" width="50.7" y="1898.7" x="1025.3"></rect>
		<rect height="50.7" width="50.7" y="1898.7" x="974.7"></rect>
		<rect height="50.7" width="50.7" y="1898.7" x="924"></rect>
		<rect height="50.7" width="50.7" y="1898.7" x="873.4"></rect>
		<rect height="50.7" width="50.7" y="1898.7" x="822.7"></rect>
		<rect height="50.7" width="50.7" y="1898.7" x="772"></rect>
		<rect height="50.7" width="50.7" y="1898.7" x="721.4"></rect>
		<rect height="50.7" width="50.7" y="1898.7" x="670.7"></rect>
		<rect height="50.7" width="50.7" y="1898.7" x="620.1"></rect>
		<rect height="50.7" width="50.7" y="1898.7" x="569.4"></rect>
		<rect height="50.7" width="50.7" y="1898.7" x="518.7"></rect>
		<rect height="50.7" width="50.7" y="1848" x="1481.3"></rect>
		<rect height="50.7" width="50.7" y="1848" x="1430.6"></rect>
		<rect height="50.7" width="50.7" y="1848" x="1379.9"></rect>
		<rect height="50.7" width="50.7" y="1848" x="1329.3"></rect>
		<rect height="50.7" width="50.7" y="1848" x="1278.6"></rect>
		<rect height="50.7" width="50.7" y="1848" x="1228"></rect>
		<rect height="50.7" width="50.7" y="1848" x="772"></rect>
		<rect height="50.7" width="50.7" y="1848" x="721.4"></rect>
		<rect height="50.7" width="50.7" y="1848" x="670.7"></rect>
		<rect height="50.7" width="50.7" y="1848" x="620.1"></rect>
		<rect height="50.7" width="50.7" y="1848" x="569.4"></rect>
		<rect height="50.7" width="50.7" y="1848" x="518.7"></rect>
		<rect height="50.7" width="50.7" y="1797.4" x="1481.3"></rect>
		<rect height="50.7" width="50.7" y="1797.4" x="1430.6"></rect>
		<rect height="50.7" width="50.7" y="1797.4" x="1379.9"></rect>
		<rect height="50.7" width="50.7" y="1797.4" x="1329.3"></rect>
		<rect height="50.7" width="50.7" y="1797.4" x="1278.6"></rect>
		<rect height="50.7" width="50.7" y="1797.4" x="721.4"></rect>
		<rect height="50.7" width="50.7" y="1797.4" x="670.7"></rect>
		<rect height="50.7" width="50.7" y="1797.4" x="620.1"></rect>
		<rect height="50.7" width="50.7" y="1797.4" x="569.4"></rect>
		<rect height="50.7" width="50.7" y="1797.4" x="518.7"></rect>
		<rect height="50.7" width="50.7" y="1746.7" x="1481.3"></rect>
		<rect height="50.7" width="50.7" y="1746.7" x="1430.6"></rect>
		<rect height="50.7" width="50.7" y="1746.7" x="1379.9"></rect>
		<rect height="50.7" width="50.7" y="1746.7" x="1329.3"></rect>
		<rect height="50.7" width="50.7" class="st4" y="1746.7" x="1278.6"></rect>
		<rect height="50.7" width="50.7" y="1746.7" x="670.7"></rect>
		<rect height="50.7" width="50.7" y="1746.7" x="620.1"></rect>
		<rect height="50.7" width="50.7" y="1746.7" x="569.4"></rect>
		<rect height="50.7" width="50.7" y="1746.7" x="518.7"></rect>
		<rect height="50.7" width="50.7" y="1696" x="1481.3"></rect>
		<rect height="50.7" width="50.7" y="1696" x="1430.6"></rect>
		<rect height="50.7" width="50.7" y="1696" x="1379.9"></rect>
		<rect height="50.7" width="50.7" class="st5" y="1696" x="1329.3"></rect>
		<rect height="50.7" width="50.7" y="1696" x="1025.3"></rect>
		<rect height="50.7" width="50.7" y="1696" x="974.7"></rect>
		<rect height="50.7" width="50.7" class="st6" y="1696" x="924"></rect>
		<rect height="50.7" width="50.7" y="1696" x="620.1"></rect>
		<rect height="50.7" width="50.7" y="1696" x="569.4"></rect>
		<rect height="50.7" width="50.7" y="1696" x="518.7"></rect>
		<rect height="50.7" width="50.7" y="1645.4" x="1481.3"></rect>
		<rect height="50.7" width="50.7" y="1645.4" x="1430.6"></rect>
		<rect height="50.7" width="50.7" class="st7" y="1645.4" x="1379.9"></rect>
		<rect height="50.7" width="50.7" y="1645.4" x="569.4"></rect>
		<rect height="50.7" width="50.7" y="1645.4" x="518.7"></rect>
		<rect height="50.7" width="50.7" class="st8" y="1594.7" x="1531.9"></rect>
		<rect height="50.7" width="50.7" y="1594.7" x="1481.3"></rect>
		<rect height="50.7" width="50.7" y="1594.7" x="1430.6"></rect>
		<rect height="50.7" width="50.7" class="st9" y="1594.7" x="1177.3"></rect>
		<rect height="50.7" width="50.7" y="1594.7" x="1126.6"></rect>
		<rect height="50.7" width="50.7" y="1594.7" x="1076"></rect>
		<rect height="50.7" width="50.7" y="1594.7" x="1025.3"></rect>
		<rect height="50.7" width="50.7" y="1594.7" x="974.7"></rect>
		<rect height="50.7" width="50.7" y="1594.7" x="924"></rect>
		<rect height="50.7" width="50.7" y="1594.7" x="873.4"></rect>
		<rect height="50.7" width="50.7" y="1594.7" x="822.7"></rect>
		<rect height="50.7" width="50.7" y="1594.7" x="569.4"></rect>
		<rect height="50.7" width="50.7" y="1594.7" x="518.7"></rect>
		<rect height="50.7" width="50.7" class="st10" y="1594.7" x="468.1"></rect>
		<rect height="50.7" width="50.7" class="st11" y="1544.1" x="1531.9"></rect>
		<rect height="50.7" width="50.7" y="1544.1" x="1481.3"></rect>
		<rect height="50.7" width="50.7" y="1544.1" x="1430.6"></rect>
		<rect height="50.7" width="50.7" y="1544.1" x="1177.3"></rect>
		<rect height="50.7" width="50.7" y="1544.1" x="1126.6"></rect>
		<rect height="50.7" width="50.7" y="1544.1" x="1076"></rect>
		<rect height="50.7" width="50.7" y="1544.1" x="1025.3"></rect>
		<rect height="50.7" width="50.7" y="1544.1" x="974.7"></rect>
		<rect height="50.7" width="50.7" y="1544.1" x="924"></rect>
		<rect height="50.7" width="50.7" y="1544.1" x="873.4"></rect>
		<rect height="50.7" width="50.7" y="1544.1" x="822.7"></rect>
		<rect height="50.7" width="50.7" class="st12" y="1544.1" x="569.4"></rect>
		<rect height="50.7" width="50.7" y="1544.1" x="518.7"></rect>
		<rect height="50.7" width="50.7" y="1544.1" x="468.1"></rect>
		<rect height="50.7" width="50.7" y="1493.4" x="1531.9"></rect>
		<rect height="50.7" width="50.7" y="1493.4" x="1481.3"></rect>
		<rect height="50.7" width="50.7" class="st13" y="1493.4" x="1430.6"></rect>
		<rect height="50.7" width="50.7" y="1493.4" x="1126.6"></rect>
		<rect height="50.7" width="50.7" y="1493.4" x="1076"></rect>
		<rect height="50.7" width="50.7" y="1493.4" x="1025.3"></rect>
		<rect height="50.7" width="50.7" y="1493.4" x="518.7"></rect>
		<rect height="50.7" width="50.7" y="1493.4" x="468.1"></rect>
		<rect height="50.7" width="50.7" y="1442.8" x="1633.2"></rect>
		<rect height="50.7" width="50.7" y="1442.8" x="1582.6"></rect>
		<rect height="50.7" width="50.7" y="1442.8" x="1531.9"></rect>
		<rect height="50.7" width="50.7" y="1442.8" x="1481.3"></rect>
		<rect height="50.7" width="50.7" y="1442.8" x="1177.3"></rect>
		<rect height="50.7" width="50.7" y="1442.8" x="1126.6"></rect>
		<rect height="50.7" width="50.7" y="1442.8" x="1076"></rect>
		<rect height="50.7" width="50.7" y="1442.8" x="1025.3"></rect>
		<rect height="50.7" width="50.7" y="1442.8" x="974.7"></rect>
		<rect height="50.7" width="50.7" y="1442.8" x="924"></rect>
		<rect height="50.7" width="50.7" y="1442.8" x="518.7"></rect>
		<rect height="50.7" width="50.7" y="1442.8" x="468.1"></rect>
		<rect height="50.7" width="50.7" y="1442.8" x="417.4"></rect>
		<rect height="50.7" width="50.7" y="1442.8" x="366.8"></rect>
		<rect height="50.7" width="50.7" y="1392.1" x="1633.2"></rect>
		<rect height="50.7" width="50.7" y="1392.1" x="1582.6"></rect>
		<rect height="50.7" width="50.7" y="1392.1" x="1531.9"></rect>
		<rect height="50.7" width="50.7" y="1392.1" x="1481.3"></rect>
		<rect height="50.7" width="50.7" y="1392.1" x="1228"></rect>
		<rect height="50.7" width="50.7" y="1392.1" x="1177.3"></rect>
		<rect height="50.7" width="50.7" y="1392.1" x="1126.6"></rect>
		<rect height="50.7" width="50.7" y="1392.1" x="1076"></rect>
		<rect height="50.7" width="50.7" y="1392.1" x="1025.3"></rect>
		<rect height="50.7" width="50.7" class="st14" y="1392.1" x="974.7"></rect>
		<rect height="50.7" width="50.7" y="1392.1" x="924"></rect>
		<rect height="50.7" width="50.7" class="st15" y="1392.1" x="873.4"></rect>
		<rect height="50.7" width="50.7" y="1392.1" x="518.7"></rect>
		<rect height="50.7" width="50.7" y="1392.1" x="468.1"></rect>
		<rect height="50.7" width="50.7" class="st16" y="1392.1" x="417.4"></rect>
		<rect height="50.7" width="50.7" y="1392.1" x="366.8"></rect>
		<rect height="50.7" width="50.7" y="1392.1" x="316.1"></rect>
		<rect height="50.7" width="50.7" class="st17" y="1341.4" x="1683.9"></rect>
		<rect height="50.7" width="50.7" y="1341.4" x="1633.2"></rect>
		<rect height="50.7" width="50.7" y="1341.4" x="1531.9"></rect>
		<rect height="50.7" width="50.7" y="1341.4" x="1481.3"></rect>
		<rect height="50.7" width="50.7" y="1341.4" x="1228"></rect>
		<rect height="50.7" width="50.7" y="1341.4" x="1177.3"></rect>
		<rect height="50.7" width="50.7" y="1341.4" x="1126.6"></rect>
		<rect height="50.7" width="50.7" y="1341.4" x="1076"></rect>
		<rect height="50.7" width="50.7" y="1341.4" x="873.4"></rect>
		<rect height="50.7" width="50.7" class="st18" y="1341.4" x="518.7"></rect>
		<rect height="50.7" width="50.7" y="1341.4" x="468.1"></rect>
		<rect height="50.7" width="50.7" y="1341.4" x="417.4"></rect>
		<rect height="50.7" width="50.7" y="1341.4" x="316.1"></rect>
		<rect height="50.7" width="50.7" y="1290.8" x="1683.9"></rect>
		<rect height="50.7" width="50.7" class="st19" y="1290.8" x="1633.2"></rect>
		<rect height="50.7" width="50.7" class="st20" y="1290.8" x="1582.6"></rect>
		<rect height="50.7" width="50.7" y="1290.8" x="1531.9"></rect>
		<rect height="50.7" width="50.7" y="1290.8" x="1481.3"></rect>
		<rect height="50.7" width="50.7" y="1290.8" x="1177.3"></rect>
		<rect height="50.7" width="50.7" y="1290.8" x="1126.6"></rect>
		<rect height="50.7" width="50.7" class="st8" y="1290.8" x="1076"></rect>
		<rect height="50.7" width="50.7" y="1290.8" x="468.1"></rect>
		<rect height="50.7" width="50.7" y="1290.8" x="417.4"></rect>
		<rect height="50.7" width="50.7" y="1290.8" x="316.1"></rect>
		<rect height="50.7" width="50.7" y="1240.1" x="1683.9"></rect>
		<rect height="50.7" width="50.7" y="1240.1" x="1582.6"></rect>
		<rect height="50.7" width="50.7" y="1240.1" x="1531.9"></rect>
		<rect height="50.7" width="50.7" class="st21" y="1240.1" x="1481.3"></rect>
		<rect height="50.7" width="50.7" y="1240.1" x="1177.3"></rect>
		<rect height="50.7" width="50.7" y="1240.1" x="1126.6"></rect>
		<rect height="50.7" width="50.7" y="1240.1" x="1076"></rect>
		<rect height="50.7" width="50.7" y="1240.1" x="468.1"></rect>
		<rect height="50.7" width="50.7" y="1240.1" x="417.4"></rect>
		<rect height="50.7" width="50.7" y="1240.1" x="316.1"></rect>
		<rect height="50.7" width="50.7" y="1240.1" x="265.4"></rect>
		<rect height="50.7" width="50.7" class="st22" y="1189.5" x="1734.6"></rect>
		<rect height="50.7" width="50.7" y="1189.5" x="1683.9"></rect>
		<rect height="50.7" width="50.7" y="1189.5" x="1582.6"></rect>
		<rect height="50.7" width="50.7" y="1189.5" x="1531.9"></rect>
		<rect height="50.7" width="50.7" class="st4" y="1189.5" x="1329.3"></rect>
		<rect height="50.7" width="50.7" y="1189.5" x="1278.6"></rect>
		<rect height="50.7" width="50.7" class="st23" y="1189.5" x="1228"></rect>
		<rect height="50.7" width="50.7" class="st24" y="1189.5" x="1177.3"></rect>
		<rect height="50.7" width="50.7" y="1189.5" x="1126.6"></rect>
		<rect height="50.7" width="50.7" y="1189.5" x="1076"></rect>
		<rect height="50.7" width="50.7" y="1189.5" x="924"></rect>
		<rect height="50.7" width="50.7" class="st25" y="1189.5" x="873.4"></rect>
		<rect height="50.7" width="50.7" class="st4" y="1189.5" x="772"></rect>
		<rect height="50.7" width="50.7" y="1189.5" x="721.4"></rect>
		<rect height="50.7" width="50.7" class="st26" y="1189.5" x="670.7"></rect>
		<rect height="50.7" width="50.7" y="1189.5" x="468.1"></rect>
		<rect height="50.7" width="50.7" y="1189.5" x="417.4"></rect>
		<rect height="50.7" width="50.7" y="1189.5" x="265.4"></rect>
		<rect height="50.7" width="50.7" y="1138.8" x="1734.6"></rect>
		<rect height="50.7" width="50.7" class="st27" y="1138.8" x="1683.9"></rect>
		<rect height="50.7" width="50.7" y="1138.8" x="1582.6"></rect>
		<rect height="50.7" width="50.7" y="1138.8" x="1531.9"></rect>
		<rect height="50.7" width="50.7" y="1138.8" x="1379.9"></rect>
		<rect height="50.7" width="50.7" class="st28" y="1138.8" x="1329.3"></rect>
		<rect height="50.7" width="50.7" class="st29" y="1138.8" x="1228"></rect>
		<rect height="50.7" width="50.7" y="1138.8" x="1177.3"></rect>
		<rect height="50.7" width="50.7" y="1138.8" x="1126.6"></rect>
		<rect height="50.7" width="50.7" y="1138.8" x="1076"></rect>
		<rect height="50.7" width="50.7" y="1138.8" x="924"></rect>
		<rect height="50.7" width="50.7" y="1138.8" x="873.4"></rect>
		<rect height="50.7" width="50.7" y="1138.8" x="822.7"></rect>
		<rect height="50.7" width="50.7" class="st6" y="1138.8" x="772"></rect>
		<rect height="50.7" width="50.7" class="st19" y="1138.8" x="670.7"></rect>
		<rect height="50.7" width="50.7" y="1138.8" x="620.1"></rect>
		<rect height="50.7" width="50.7" y="1138.8" x="468.1"></rect>
		<rect height="50.7" width="50.7" y="1138.8" x="417.4"></rect>
		<rect height="50.7" width="50.7" class="st30" y="1138.8" x="366.8"></rect>
		<rect height="50.7" width="50.7" y="1138.8" x="265.4"></rect>
		<rect height="50.7" width="50.7" y="1088.1" x="1734.6"></rect>
		<rect height="50.7" width="50.7" y="1088.1" x="1582.6"></rect>
		<rect height="50.7" width="50.7" y="1088.1" x="1531.9"></rect>
		<rect height="50.7" width="50.7" class="st31" y="1088.1" x="1430.6"></rect>
		<rect height="50.7" width="50.7" class="st32" y="1088.1" x="1379.9"></rect>
		<rect height="50.7" width="50.7" y="1088.1" x="1126.6"></rect>
		<rect height="50.7" width="50.7" y="1088.1" x="1076"></rect>
		<rect height="50.7" width="50.7" class="st13" y="1088.1" x="924"></rect>
		<rect height="50.7" width="50.7" y="1088.1" x="873.4"></rect>
		<rect height="50.7" width="50.7" class="st33" y="1088.1" x="822.7"></rect>
		<rect height="50.7" width="50.7" y="1088.1" x="569.4"></rect>
		<rect height="50.7" width="50.7" class="st34" y="1088.1" x="468.1"></rect>
		<rect height="50.7" width="50.7" y="1088.1" x="417.4"></rect>
		<rect height="50.7" width="50.7" y="1088.1" x="366.8"></rect>
		<rect height="50.7" width="50.7" y="1088.1" x="265.4"></rect>
		<rect height="50.7" width="50.7" class="st32" y="1088.1" x="214.8"></rect>
		<rect height="50.7" width="50.7" class="st35" y="1037.5" x="1785.2"></rect>
		<rect height="50.7" width="50.7" y="1037.5" x="1734.6"></rect>
		<rect height="50.7" width="50.7" class="st36" y="1037.5" x="1633.2"></rect>
		<rect height="50.7" width="50.7" y="1037.5" x="1582.6"></rect>
		<rect height="50.7" width="50.7" y="1037.5" x="1531.9"></rect>
		<rect height="50.7" width="50.7" y="1037.5" x="1481.3"></rect>
		<rect height="50.7" width="50.7" y="1037.5" x="1430.6"></rect>
		<rect height="50.7" width="50.7" y="1037.5" x="1278.6"></rect>
		<rect height="50.7" width="50.7" y="1037.5" x="1126.6"></rect>
		<rect height="50.7" width="50.7" y="1037.5" x="1076"></rect>
		<rect height="50.7" width="50.7" class="st37" y="1037.5" x="924"></rect>
		<rect height="50.7" width="50.7" y="1037.5" x="873.4"></rect>
		<rect height="50.7" width="50.7" y="1037.5" x="721.4"></rect>
		<rect height="50.7" width="50.7" y="1037.5" x="569.4"></rect>
		<rect height="50.7" width="50.7" y="1037.5" x="518.7"></rect>
		<rect height="50.7" width="50.7" y="1037.5" x="468.1"></rect>
		<rect height="50.7" width="50.7" y="1037.5" x="417.4"></rect>
		<rect height="50.7" width="50.7" y="1037.5" x="366.8"></rect>
		<rect height="50.7" width="50.7" class="st38" y="1037.5" x="316.1"></rect>
		<rect height="50.7" width="50.7" y="1037.5" x="265.4"></rect>
		<rect height="50.7" width="50.7" y="1037.5" x="214.8"></rect>
		<rect height="50.7" width="50.7" y="986.8" x="1734.6"></rect>
		<rect height="50.7" width="50.7" y="986.8" x="1683.9"></rect>
		<rect height="50.7" width="50.7" y="986.8" x="1633.2"></rect>
		<rect height="50.7" width="50.7" y="986.8" x="1582.6"></rect>
		<rect height="50.7" width="50.7" y="986.8" x="1531.9"></rect>
		<rect height="50.7" width="50.7" y="986.8" x="1481.3"></rect>
		<rect height="50.7" width="50.7" y="986.8" x="1430.6"></rect>
		<rect height="50.7" width="50.7" y="986.8" x="1126.6"></rect>
		<rect height="50.7" width="50.7" y="986.8" x="1076"></rect>
		<rect height="50.7" width="50.7" y="986.8" x="1025.3"></rect>
		<rect height="50.7" width="50.7" y="986.8" x="974.7"></rect>
		<rect height="50.7" width="50.7" y="986.8" x="924"></rect>
		<rect height="50.7" width="50.7" y="986.8" x="873.4"></rect>
		<rect height="50.7" width="50.7" y="986.8" x="569.4"></rect>
		<rect height="50.7" width="50.7" y="986.8" x="518.7"></rect>
		<rect height="50.7" width="50.7" y="986.8" x="468.1"></rect>
		<rect height="50.7" width="50.7" y="986.8" x="417.4"></rect>
		<rect height="50.7" width="50.7" y="986.8" x="366.8"></rect>
		<rect height="50.7" width="50.7" y="986.8" x="316.1"></rect>
		<rect height="50.7" width="50.7" y="986.8" x="265.4"></rect>
		<rect height="50.7" width="50.7" class="st39" y="986.8" x="214.8"></rect>
		<rect height="50.7" width="50.7" y="936.2" x="1633.2"></rect>
		<rect height="50.7" width="50.7" y="936.2" x="1582.6"></rect>
		<rect height="50.7" width="50.7" y="936.2" x="1531.9"></rect>
		<rect height="50.7" width="50.7" y="936.2" x="1379.9"></rect>
		<rect height="50.7" width="50.7" class="st40" y="936.2" x="1177.3"></rect>
		<rect height="50.7" width="50.7" y="936.2" x="1126.6"></rect>
		<rect height="50.7" width="50.7" y="936.2" x="1076"></rect>
		<rect height="50.7" width="50.7" y="936.2" x="1025.3"></rect>
		<rect height="50.7" width="50.7" y="936.2" x="974.7"></rect>
		<rect height="50.7" width="50.7" y="936.2" x="924"></rect>
		<rect height="50.7" width="50.7" y="936.2" x="873.4"></rect>
		<rect height="50.7" width="50.7" y="936.2" x="822.7"></rect>
		<rect height="50.7" width="50.7" class="st29" y="936.2" x="620.1"></rect>
		<rect height="50.7" width="50.7" y="936.2" x="569.4"></rect>
		<rect height="50.7" width="50.7" y="936.2" x="468.1"></rect>
		<rect height="50.7" width="50.7" y="936.2" x="417.4"></rect>
		<rect height="50.7" width="50.7" y="936.2" x="366.8"></rect>
		<rect height="50.7" width="50.7" y="885.5" x="1633.2"></rect>
		<rect height="50.7" width="50.7" y="885.5" x="1582.6"></rect>
		<rect height="50.7" width="50.7" y="885.5" x="1531.9"></rect>
		<rect height="50.7" width="50.7" class="st41" y="885.5" x="1379.9"></rect>
		<rect height="50.7" width="50.7" y="885.5" x="1329.3"></rect>
		<rect height="50.7" width="50.7" y="885.5" x="1278.6"></rect>
		<rect height="50.7" width="50.7" y="885.5" x="1228"></rect>
		<rect height="50.7" width="50.7" y="885.5" x="1177.3"></rect>
		<rect height="50.7" width="50.7" class="st35" y="885.5" x="822.7"></rect>
		<rect height="50.7" width="50.7" y="885.5" x="772"></rect>
		<rect height="50.7" width="50.7" y="885.5" x="721.4"></rect>
		<rect height="50.7" width="50.7" y="885.5" x="670.7"></rect>
		<rect height="50.7" width="50.7" y="885.5" x="620.1"></rect>
		<rect height="50.7" width="50.7" y="885.5" x="468.1"></rect>
		<rect height="50.7" width="50.7" y="885.5" x="417.4"></rect>
		<rect height="50.7" width="50.7" y="885.5" x="366.8"></rect>
		<rect height="50.7" width="50.7" class="st42" y="885.5" x="316.1"></rect>
		<rect height="50.7" width="50.7" y="834.8" x="1683.9"></rect>
		<rect height="50.7" width="50.7" y="834.8" x="1633.2"></rect>
		<rect height="50.7" width="50.7" y="834.8" x="1582.6"></rect>
		<rect height="50.7" width="50.7" y="834.8" x="1531.9"></rect>
		<rect height="50.7" width="50.7" y="834.8" x="468.1"></rect>
		<rect height="50.7" width="50.7" y="834.8" x="417.4"></rect>
		<rect height="50.7" width="50.7" y="834.8" x="366.8"></rect>
		<rect height="50.7" width="50.7" y="834.8" x="316.1"></rect>
		<rect height="50.7" width="50.7" y="784.2" x="1683.9"></rect>
		<rect height="50.7" width="50.7" y="784.2" x="1633.2"></rect>
		<rect height="50.7" width="50.7" y="784.2" x="1582.6"></rect>
		<rect height="50.7" width="50.7" y="784.2" x="1531.9"></rect>
		<rect height="50.7" width="50.7" y="784.2" x="1379.9"></rect>
		<rect height="50.7" width="50.7" y="784.2" x="1329.3"></rect>
		<rect height="50.7" width="50.7" y="784.2" x="1278.6"></rect>
		<rect height="50.7" width="50.7" y="784.2" x="1228"></rect>
		<rect height="50.7" width="50.7" y="784.2" x="1177.3"></rect>
		<rect height="50.7" width="50.7" y="784.2" x="822.7"></rect>
		<rect height="50.7" width="50.7" y="784.2" x="772"></rect>
		<rect height="50.7" width="50.7" y="784.2" x="721.4"></rect>
		<rect height="50.7" width="50.7" y="784.2" x="670.7"></rect>
		<rect height="50.7" width="50.7" y="784.2" x="620.1"></rect>
		<rect height="50.7" width="50.7" y="784.2" x="468.1"></rect>
		<rect height="50.7" width="50.7" y="784.2" x="417.4"></rect>
		<rect height="50.7" width="50.7" y="784.2" x="366.8"></rect>
		<rect height="50.7" width="50.7" y="784.2" x="316.1"></rect>
		<rect height="50.7" width="50.7" y="733.5" x="1683.9"></rect>
		<rect height="50.7" width="50.7" y="733.5" x="1633.2"></rect>
		<rect height="50.7" width="50.7" y="733.5" x="1582.6"></rect>
		<rect height="50.7" width="50.7" y="733.5" x="1531.9"></rect>
		<rect height="50.7" width="50.7" y="733.5" x="1481.3"></rect>
		<rect height="50.7" width="50.7" y="733.5" x="518.7"></rect>
		<rect height="50.7" width="50.7" y="733.5" x="468.1"></rect>
		<rect height="50.7" width="50.7" y="733.5" x="417.4"></rect>
		<rect height="50.7" width="50.7" y="733.5" x="366.8"></rect>
		<rect height="50.7" width="50.7" y="733.5" x="316.1"></rect>
		<rect height="50.7" width="50.7" class="st43" y="733.5" x="265.4"></rect>
		<rect height="50.7" width="50.7" y="682.9" x="1683.9"></rect>
		<rect height="50.7" width="50.7" y="682.9" x="1633.2"></rect>
		<rect height="50.7" width="50.7" y="682.9" x="1582.6"></rect>
		<rect height="50.7" width="50.7" y="682.9" x="1531.9"></rect>
		<rect height="50.7" width="50.7" y="682.9" x="1481.3"></rect>
		<rect height="50.7" width="50.7" y="682.9" x="518.7"></rect>
		<rect height="50.7" width="50.7" y="682.9" x="468.1"></rect>
		<rect height="50.7" width="50.7" y="682.9" x="417.4"></rect>
		<rect height="50.7" width="50.7" y="682.9" x="366.8"></rect>
		<rect height="50.7" width="50.7" y="682.9" x="316.1"></rect>
		<rect height="50.7" width="50.7" y="682.9" x="265.4"></rect>
		<rect height="50.7" width="50.7" y="632.2" x="1683.9"></rect>
		<rect height="50.7" width="50.7" y="632.2" x="1633.2"></rect>
		<rect height="50.7" width="50.7" y="632.2" x="1582.6"></rect>
		<rect height="50.7" width="50.7" y="632.2" x="1531.9"></rect>
		<rect height="50.7" width="50.7" y="632.2" x="1481.3"></rect>
		<rect height="50.7" width="50.7" y="632.2" x="518.7"></rect>
		<rect height="50.7" width="50.7" y="632.2" x="468.1"></rect>
		<rect height="50.7" width="50.7" y="632.2" x="417.4"></rect>
		<rect height="50.7" width="50.7" y="632.2" x="366.8"></rect>
		<rect height="50.7" width="50.7" y="632.2" x="316.1"></rect>
		<rect height="50.7" width="50.7" y="632.2" x="265.4"></rect>
		<rect height="50.7" width="50.7" y="581.6" x="1633.2"></rect>
		<rect height="50.7" width="50.7" y="581.6" x="1582.6"></rect>
		<rect height="50.7" width="50.7" y="581.6" x="1531.9"></rect>
		<rect height="50.7" width="50.7" y="581.6" x="1481.3"></rect>
		<rect height="50.7" width="50.7" y="581.6" x="518.7"></rect>
		<rect height="50.7" width="50.7" y="581.6" x="468.1"></rect>
		<rect height="50.7" width="50.7" y="581.6" x="417.4"></rect>
		<rect height="50.7" width="50.7" y="581.6" x="366.8"></rect>
		<rect height="50.7" width="50.7" y="581.6" x="316.1"></rect>
		<rect height="50.7" width="50.7" y="581.6" x="265.4"></rect>
		<rect height="50.7" width="50.7" y="530.9" x="1633.2"></rect>
		<rect height="50.7" width="50.7" y="530.9" x="1582.6"></rect>
		<rect height="50.7" width="50.7" y="530.9" x="1531.9"></rect>
		<rect height="50.7" width="50.7" y="530.9" x="1481.3"></rect>
		<rect height="50.7" width="50.7" y="530.9" x="518.7"></rect>
		<rect height="50.7" width="50.7" y="530.9" x="468.1"></rect>
		<rect height="50.7" width="50.7" y="530.9" x="417.4"></rect>
		<rect height="50.7" width="50.7" y="530.9" x="366.8"></rect>
		<rect height="50.7" width="50.7" y="530.9" x="316.1"></rect>
		<rect height="50.7" width="50.7" class="st44" y="530.9" x="265.4"></rect>
		<rect height="50.7" width="50.7" y="480.2" x="1582.6"></rect>
		<rect height="50.7" width="50.7" y="480.2" x="1531.9"></rect>
		<rect height="50.7" width="50.7" y="480.2" x="1481.3"></rect>
		<rect height="50.7" width="50.7" class="st33" y="480.2" x="569.4"></rect>
		<rect height="50.7" width="50.7" y="480.2" x="518.7"></rect>
		<rect height="50.7" width="50.7" y="480.2" x="468.1"></rect>
		<rect height="50.7" width="50.7" y="480.2" x="417.4"></rect>
		<rect height="50.7" width="50.7" y="480.2" x="366.8"></rect>
		<rect height="50.7" width="50.7" y="480.2" x="316.1"></rect>
		<rect height="50.7" width="50.7" y="429.6" x="1582.6"></rect>
		<rect height="50.7" width="50.7" y="429.6" x="1531.9"></rect>
		<rect height="50.7" width="50.7" y="429.6" x="1481.3"></rect>
		<rect height="50.7" width="50.7" class="st45" y="429.6" x="1430.6"></rect>
		<rect height="50.7" width="50.7" class="st4" y="429.6" x="1076"></rect>
		<rect height="50.7" width="50.7" y="429.6" x="1025.3"></rect>
		<rect height="50.7" width="50.7" class="st46" y="429.6" x="974.7"></rect>
		<rect height="50.7" width="50.7" y="429.6" x="569.4"></rect>
		<rect height="50.7" width="50.7" y="429.6" x="518.7"></rect>
		<rect height="50.7" width="50.7" y="429.6" x="468.1"></rect>
		<rect height="50.7" width="50.7" y="429.6" x="417.4"></rect>
		<rect height="50.7" width="50.7" y="429.6" x="366.8"></rect>
		<rect height="50.7" width="50.7" y="429.6" x="316.1"></rect>
		<rect height="50.7" width="50.7" y="378.9" x="1531.9"></rect>
		<rect height="50.7" width="50.7" y="378.9" x="1481.3"></rect>
		<rect height="50.7" width="50.7" y="378.9" x="1430.6"></rect>
		<rect height="50.7" width="50.7" class="st47" y="378.9" x="1278.6"></rect>
		<rect height="50.7" width="50.7" y="378.9" x="1228"></rect>
		<rect height="50.7" width="50.7" y="378.9" x="1177.3"></rect>
		<rect height="50.7" width="50.7" y="378.9" x="1126.6"></rect>
		<rect height="50.7" width="50.7" y="378.9" x="1076"></rect>
		<rect height="50.7" width="50.7" y="378.9" x="1025.3"></rect>
		<rect height="50.7" width="50.7" y="378.9" x="974.7"></rect>
		<rect height="50.7" width="50.7" y="378.9" x="924"></rect>
		<rect height="50.7" width="50.7" y="378.9" x="873.4"></rect>
		<rect height="50.7" width="50.7" y="378.9" x="822.7"></rect>
		<rect height="50.7" width="50.7" y="378.9" x="772"></rect>
		<rect height="50.7" width="50.7" y="378.9" x="721.4"></rect>
		<rect height="50.7" width="50.7" y="378.9" x="670.7"></rect>
		<rect height="50.7" width="50.7" y="378.9" x="620.1"></rect>
		<rect height="50.7" width="50.7" y="378.9" x="569.4"></rect>
		<rect height="50.7" width="50.7" y="378.9" x="518.7"></rect>
		<rect height="50.7" width="50.7" y="378.9" x="468.1"></rect>
		<rect height="50.7" width="50.7" y="378.9" x="417.4"></rect>
		<rect height="50.7" width="50.7" y="378.9" x="366.8"></rect>
		<rect height="50.7" width="50.7" y="378.9" x="316.1"></rect>
		<rect height="50.7" width="50.7" y="328.3" x="1531.9"></rect>
		<rect height="50.7" width="50.7" y="328.3" x="1481.3"></rect>
		<rect height="50.7" width="50.7" y="328.3" x="1379.9"></rect>
		<rect height="50.7" width="50.7" y="328.3" x="1329.3"></rect>
		<rect height="50.7" width="50.7" y="328.3" x="1278.6"></rect>
		<rect height="50.7" width="50.7" y="328.3" x="1228"></rect>
		<rect height="50.7" width="50.7" y="328.3" x="1177.3"></rect>
		<rect height="50.7" width="50.7" y="328.3" x="1126.6"></rect>
		<rect height="50.7" width="50.7" y="328.3" x="1076"></rect>
		<rect height="50.7" width="50.7" y="328.3" x="1025.3"></rect>
		<rect height="50.7" width="50.7" y="328.3" x="974.7"></rect>
		<rect height="50.7" width="50.7" y="328.3" x="924"></rect>
		<rect height="50.7" width="50.7" y="328.3" x="873.4"></rect>
		<rect height="50.7" width="50.7" y="328.3" x="822.7"></rect>
		<rect height="50.7" width="50.7" y="328.3" x="772"></rect>
		<rect height="50.7" width="50.7" y="328.3" x="721.4"></rect>
		<rect height="50.7" width="50.7" y="328.3" x="670.7"></rect>
		<rect height="50.7" width="50.7" y="328.3" x="620.1"></rect>
		<rect height="50.7" width="50.7" y="328.3" x="569.4"></rect>
		<rect height="50.7" width="50.7" y="328.3" x="518.7"></rect>
		<rect height="50.7" width="50.7" y="328.3" x="468.1"></rect>
		<rect height="50.7" width="50.7" y="328.3" x="417.4"></rect>
		<rect height="50.7" width="50.7" y="328.3" x="366.8"></rect>
		<rect height="50.7" width="50.7" class="st32" y="277.6" x="1481.3"></rect>
		<rect height="50.7" width="50.7" class="st48" y="277.6" x="1430.6"></rect>
		<rect height="50.7" width="50.7" y="277.6" x="1379.9"></rect>
		<rect height="50.7" width="50.7" y="277.6" x="1329.3"></rect>
		<rect height="50.7" width="50.7" y="277.6" x="1278.6"></rect>
		<rect height="50.7" width="50.7" y="277.6" x="1228"></rect>
		<rect height="50.7" width="50.7" y="277.6" x="1177.3"></rect>
		<rect height="50.7" width="50.7" y="277.6" x="1126.6"></rect>
		<rect height="50.7" width="50.7" y="277.6" x="1076"></rect>
		<rect height="50.7" width="50.7" y="277.6" x="1025.3"></rect>
		<rect height="50.7" width="50.7" y="277.6" x="974.7"></rect>
		<rect height="50.7" width="50.7" y="277.6" x="924"></rect>
		<rect height="50.7" width="50.7" y="277.6" x="873.4"></rect>
		<rect height="50.7" width="50.7" y="277.6" x="822.7"></rect>
		<rect height="50.7" width="50.7" y="277.6" x="772"></rect>
		<rect height="50.7" width="50.7" y="277.6" x="721.4"></rect>
		<rect height="50.7" width="50.7" y="277.6" x="670.7"></rect>
		<rect height="50.7" width="50.7" y="277.6" x="620.1"></rect>
		<rect height="50.7" width="50.7" y="277.6" x="569.4"></rect>
		<rect height="50.7" width="50.7" y="277.6" x="518.7"></rect>
		<rect height="50.7" width="50.7" y="277.6" x="468.1"></rect>
		<rect height="50.7" width="50.7" y="277.6" x="417.4"></rect>
		<rect height="50.7" width="50.7" class="st49" y="277.6" x="366.8"></rect>
		<rect height="50.7" width="50.7" class="st4" y="226.9" x="1481.3"></rect>
		<rect height="50.7" width="50.7" y="226.9" x="1430.6"></rect>
		<rect height="50.7" width="50.7" y="226.9" x="1379.9"></rect>
		<rect height="50.7" width="50.7" y="226.9" x="1329.3"></rect>
		<rect height="50.7" width="50.7" y="226.9" x="1278.6"></rect>
		<rect height="50.7" width="50.7" y="226.9" x="1228"></rect>
		<rect height="50.7" width="50.7" y="226.9" x="1177.3"></rect>
		<rect height="50.7" width="50.7" y="226.9" x="1126.6"></rect>
		<rect height="50.7" width="50.7" y="226.9" x="1076"></rect>
		<rect height="50.7" width="50.7" y="226.9" x="1025.3"></rect>
		<rect height="50.7" width="50.7" y="226.9" x="974.7"></rect>
		<rect height="50.7" width="50.7" y="226.9" x="924"></rect>
		<rect height="50.7" width="50.7" y="226.9" x="873.4"></rect>
		<rect height="50.7" width="50.7" y="226.9" x="822.7"></rect>
		<rect height="50.7" width="50.7" y="226.9" x="772"></rect>
		<rect height="50.7" width="50.7" y="226.9" x="721.4"></rect>
		<rect height="50.7" width="50.7" y="226.9" x="670.7"></rect>
		<rect height="50.7" width="50.7" y="226.9" x="620.1"></rect>
		<rect height="50.7" width="50.7" y="226.9" x="569.4"></rect>
		<rect height="50.7" width="50.7" y="226.9" x="518.7"></rect>
		<rect height="50.7" width="50.7" y="226.9" x="468.1"></rect>
		<rect height="50.7" width="50.7" class="st50" y="226.9" x="417.4"></rect>
		<rect height="50.7" width="50.7" y="176.3" x="1379.9"></rect>
		<rect height="50.7" width="50.7" y="176.3" x="1329.3"></rect>
		<rect height="50.7" width="50.7" y="176.3" x="1278.6"></rect>
		<rect height="50.7" width="50.7" y="176.3" x="1228"></rect>
		<rect height="50.7" width="50.7" y="176.3" x="1177.3"></rect>
		<rect height="50.7" width="50.7" y="176.3" x="1126.6"></rect>
		<rect height="50.7" width="50.7" y="176.3" x="1076"></rect>
		<rect height="50.7" width="50.7" y="176.3" x="1025.3"></rect>
		<rect height="50.7" width="50.7" y="176.3" x="974.7"></rect>
		<rect height="50.7" width="50.7" y="176.3" x="924"></rect>
		<rect height="50.7" width="50.7" y="176.3" x="873.4"></rect>
		<rect height="50.7" width="50.7" y="176.3" x="822.7"></rect>
		<rect height="50.7" width="50.7" y="176.3" x="772"></rect>
		<rect height="50.7" width="50.7" y="176.3" x="721.4"></rect>
		<rect height="50.7" width="50.7" y="176.3" x="670.7"></rect>
		<rect height="50.7" width="50.7" y="176.3" x="620.1"></rect>
		<rect height="50.7" width="50.7" y="176.3" x="569.4"></rect>
		<rect height="50.7" width="50.7" y="176.3" x="518.7"></rect>
		<rect height="50.7" width="50.7" class="st51" y="125.6" x="1329.3"></rect>
		<rect height="50.7" width="50.7" y="125.6" x="1278.6"></rect>
		<rect height="50.7" width="50.7" y="125.6" x="1228"></rect>
		<rect height="50.7" width="50.7" y="125.6" x="1177.3"></rect>
		<rect height="50.7" width="50.7" y="125.6" x="1126.6"></rect>
		<rect height="50.7" width="50.7" y="125.6" x="1076"></rect>
		<rect height="50.7" width="50.7" y="125.6" x="1025.3"></rect>
		<rect height="50.7" width="50.7" y="125.6" x="974.7"></rect>
		<rect height="50.7" width="50.7" y="125.6" x="924"></rect>
		<rect height="50.7" width="50.7" y="125.6" x="873.4"></rect>
		<rect height="50.7" width="50.7" y="125.6" x="822.7"></rect>
		<rect height="50.7" width="50.7" y="125.6" x="772"></rect>
		<rect height="50.7" width="50.7" y="125.6" x="721.4"></rect>
		<rect height="50.7" width="50.7" y="125.6" x="670.7"></rect>
		<rect height="50.7" width="50.7" y="125.6" x="620.1"></rect>
		<rect height="50.7" width="50.7" class="st52" y="125.6" x="569.4"></rect>
		<rect height="50.7" width="50.7" y="75" x="1177.3"></rect>
		<rect height="50.7" width="50.7" y="75" x="1126.6"></rect>
		<rect height="50.7" width="50.7" y="75" x="1076"></rect>
		<rect height="50.7" width="50.7" y="75" x="1025.3"></rect>
		<rect height="50.7" width="50.7" y="75" x="974.7"></rect>
		<rect height="50.7" width="50.7" y="75" x="924"></rect>
		<rect height="50.7" width="50.7" y="75" x="873.4"></rect>
		<rect height="50.7" width="50.7" y="75" x="822.7"></rect>
		<rect height="50.7" width="50.7" y="75" x="772"></rect>
		<rect height="50.7" width="50.7" y="75" x="721.4"></rect>
		<rect height="50.7" width="50.7" class="st53" y="75" x="670.7"></rect>
	</g>
</g>
</svg>
