<svg height="320" shape-rendering="crispEdges" viewBox="0 0 320 320" width="320" xmlns="http://www.w3.org/2000/svg"><rect fill="#d5d7e1" height="100%" width="100%"/><g fill="#e9265c"><path d="m90 210h140v10h-140z"/><path d="m90 220h140v10h-140z"/><path d="m90 230h140v10h-140z"/><path d="m90 240h140v10h-140z"/><path d="m90 250h20v10h-20z"/><path d="m120 250h110v10h-110z"/><path d="m90 260h20v10h-20z"/><path d="m120 260h110v10h-110z"/><path d="m90 270h20v10h-20z"/><path d="m120 270h110v10h-110z"/><path d="m90 280h20v10h-20z"/><path d="m120 280h110v10h-110z"/><path d="m90 290h20v10h-20z"/><path d="m120 290h110v10h-110z"/><path d="m90 300h20v10h-20z"/><path d="m120 300h110v10h-110z"/><path d="m90 310h20v10h-20z"/><path d="m120 310h110v10h-110z"/></g><path d="m90 210h140v10h-140z" fill="#ff3a0e"/><path d="m90 220h140v10h-140z" fill="#ff3a0e"/><path d="m90 230h140v10h-140z" fill="#f3322c"/><path d="m90 240h140v10h-140z" fill="#f3322c"/><path d="m90 250h20v10h-20z" fill="#e8705b"/><path d="m120 250h110v10h-110z" fill="#e8705b"/><path d="m90 260h20v10h-20z" fill="#e8705b"/><path d="m120 260h110v10h-110z" fill="#e8705b"/><path d="m90 270h20v10h-20z" fill="#e8705b"/><path d="m120 270h110v10h-110z" fill="#e8705b"/><path d="m90 280h20v10h-20z" fill="#e8705b"/><path d="m120 280h110v10h-110z" fill="#e8705b"/><path d="m90 290h20v10h-20z" fill="#f38b7c"/><path d="m120 290h110v10h-110z" fill="#f38b7c"/><path d="m90 300h20v10h-20z" fill="#f38b7c"/><path d="m120 300h110v10h-110z" fill="#f38b7c"/><path d="m90 310h20v10h-20z" fill="#e4a499"/><path d="m120 310h110v10h-110z" fill="#e4a499"/><path d="m100 30h120v10h-120z" fill="#aaa6a4"/><path d="m100 40h30v10h-30z" fill="#6b3f39"/><path d="m130 40h10v10h-10z" fill="#4d271b"/><path d="m140 40h20v10h-20z" fill="#6b3f39"/><path d="m160 40h10v10h-10z" fill="#4d271b"/><path d="m170 40h20v10h-20z" fill="#85634f"/><path d="m190 40h10v10h-10z" fill="#4d271b"/><path d="m200 40h20v10h-20z" fill="#85634f"/><path d="m90 50h30v10h-30z" fill="#6b3f39"/><path d="m120 50h10v10h-10z" fill="#4d271b"/><path d="m130 50h30v10h-30z" fill="#6b3f39"/><path d="m160 50h10v10h-10z" fill="#4d271b"/><path d="m170 50h30v10h-30z" fill="#85634f"/><path d="m200 50h10v10h-10z" fill="#4d271b"/><path d="m210 50h20v10h-20z" fill="#85634f"/><path d="m90 60h30v10h-30z" fill="#6b3f39"/><path d="m120 60h10v10h-10z" fill="#4d271b"/><path d="m130 60h30v10h-30z" fill="#6b3f39"/><path d="m160 60h10v10h-10z" fill="#4d271b"/><path d="m170 60h30v10h-30z" fill="#85634f"/><path d="m200 60h10v10h-10z" fill="#4d271b"/><path d="m210 60h20v10h-20z" fill="#85634f"/><path d="m80 70h160v10h-160z" fill="#aaa6a4"/><path d="m80 80h160v10h-160z" fill="#aaa6a4"/><path d="m70 90h40v10h-40z" fill="#6b3f39"/><path d="m110 90h10v10h-10z" fill="#4d271b"/><path d="m120 90h40v10h-40z" fill="#6b3f39"/><path d="m160 90h10v10h-10z" fill="#4d271b"/><path d="m170 90h40v10h-40z" fill="#85634f"/><path d="m210 90h10v10h-10z" fill="#4d271b"/><path d="m220 90h30v10h-30z" fill="#85634f"/><path d="m70 100h40v10h-40z" fill="#6b3f39"/><path d="m110 100h10v10h-10z" fill="#4d271b"/><path d="m120 100h40v10h-40z" fill="#6b3f39"/><path d="m160 100h10v10h-10z" fill="#4d271b"/><path d="m170 100h40v10h-40z" fill="#85634f"/><path d="m210 100h10v10h-10z" fill="#4d271b"/><path d="m220 100h30v10h-30z" fill="#85634f"/><path d="m70 110h40v10h-40z" fill="#6b3f39"/><path d="m110 110h10v10h-10z" fill="#4d271b"/><path d="m120 110h40v10h-40z" fill="#6b3f39"/><path d="m160 110h10v10h-10z" fill="#4d271b"/><path d="m170 110h40v10h-40z" fill="#85634f"/><path d="m210 110h10v10h-10z" fill="#4d271b"/><path d="m220 110h30v10h-30z" fill="#85634f"/><path d="m250 110h10v10h-10z" fill="#aaa6a4"/><path d="m70 120h40v10h-40z" fill="#6b3f39"/><path d="m110 120h10v10h-10z" fill="#4d271b"/><path d="m120 120h40v10h-40z" fill="#6b3f39"/><path d="m160 120h10v10h-10z" fill="#4d271b"/><path d="m170 120h40v10h-40z" fill="#85634f"/><path d="m210 120h10v10h-10z" fill="#4d271b"/><path d="m220 120h30v10h-30z" fill="#85634f"/><path d="m250 120h30v10h-30z" fill="#aaa6a4"/><path d="m70 130h40v10h-40z" fill="#6b3f39"/><path d="m110 130h10v10h-10z" fill="#4d271b"/><path d="m120 130h40v10h-40z" fill="#6b3f39"/><path d="m160 130h10v10h-10z" fill="#4d271b"/><path d="m170 130h40v10h-40z" fill="#85634f"/><path d="m210 130h10v10h-10z" fill="#4d271b"/><path d="m220 130h30v10h-30z" fill="#85634f"/><path d="m270 130h10v10h-10z" fill="#b92b3c"/><path d="m70 140h40v10h-40z" fill="#6b3f39"/><path d="m110 140h10v10h-10z" fill="#4d271b"/><path d="m120 140h40v10h-40z" fill="#6b3f39"/><path d="m160 140h10v10h-10z" fill="#4d271b"/><path d="m170 140h40v10h-40z" fill="#85634f"/><path d="m210 140h10v10h-10z" fill="#4d271b"/><path d="m220 140h30v10h-30z" fill="#85634f"/><path d="m270 140h10v10h-10z" fill="#b92b3c"/><path d="m70 150h180v10h-180z" fill="#aaa6a4"/><path d="m270 150h10v10h-10z" fill="#b92b3c"/><path d="m70 160h180v10h-180z" fill="#aaa6a4"/><path d="m270 160h10v10h-10z" fill="#b92b3c"/><path d="m80 170h30v10h-30z" fill="#6b3f39"/><path d="m110 170h10v10h-10z" fill="#4d271b"/><path d="m120 170h40v10h-40z" fill="#6b3f39"/><path d="m160 170h10v10h-10z" fill="#4d271b"/><path d="m170 170h40v10h-40z" fill="#85634f"/><path d="m210 170h10v10h-10z" fill="#4d271b"/><path d="m220 170h20v10h-20z" fill="#85634f"/><path d="m270 170h10v10h-10z" fill="#b92b3c"/><path d="m80 180h30v10h-30z" fill="#85634f"/><path d="m110 180h10v10h-10z" fill="#4d271b"/><path d="m120 180h40v10h-40z" fill="#85634f"/><path d="m160 180h10v10h-10z" fill="#4d271b"/><path d="m170 180h40v10h-40z" fill="#6b3f39"/><path d="m210 180h10v10h-10z" fill="#4d271b"/><path d="m220 180h20v10h-20z" fill="#6b3f39"/><path d="m270 180h10v10h-10z" fill="#b92b3c"/><path d="m90 190h30v10h-30z" fill="#6b3f39"/><path d="m120 190h10v10h-10z" fill="#4d271b"/><path d="m130 190h30v10h-30z" fill="#6b3f39"/><path d="m160 190h10v10h-10z" fill="#4d271b"/><path d="m170 190h30v10h-30z" fill="#85634f"/><path d="m200 190h10v10h-10z" fill="#4d271b"/><path d="m210 190h20v10h-20z" fill="#85634f"/><path d="m270 190h10v10h-10z" fill="#b92b3c"/><path d="m90 200h140v10h-140z" fill="#aaa6a4"/><path d="m270 200h10v10h-10z" fill="#b92b3c"/><path d="m270 210h10v10h-10z" fill="#b92b3c"/><path d="m270 220h10v10h-10z" fill="#b92b3c"/><path d="m270 230h10v10h-10z" fill="#b92b3c"/><path d="m270 240h10v10h-10z" fill="#b92b3c"/><path d="m270 250h10v10h-10z" fill="#b92b3c"/><path d="m270 260h10v10h-10z" fill="#b92b3c"/><path d="m270 270h10v10h-10z" fill="#b92b3c"/><path d="m270 280h10v10h-10z" fill="#b92b3c"/><path d="m270 290h10v10h-10z" fill="#b92b3c"/><path d="m270 300h10v10h-10z" fill="#b92b3c"/><path d="m270 310h10v10h-10z" fill="#b92b3c"/><path d="m100 110h60v10h-60z" fill="#068940"/><path d="m170 110h60v10h-60z" fill="#257ced"/><path d="m100 120h10v10h-10z" fill="#068940"/><path d="m110 120h20v10h-20z" fill="#fff"/><path d="m130 120h20v10h-20z"/><path d="m150 120h10v10h-10z" fill="#068940"/><path d="m170 120h10v10h-10z" fill="#257ced"/><path d="m180 120h20v10h-20z" fill="#fff"/><path d="m200 120h20v10h-20z"/><path d="m220 120h10v10h-10z" fill="#257ced"/><path d="m70 130h30v10h-30z" fill="#257ced"/><path d="m100 130h10v10h-10z" fill="#068940"/><path d="m110 130h20v10h-20z" fill="#fff"/><path d="m130 130h20v10h-20z"/><path d="m150 130h10v10h-10z" fill="#068940"/><path d="m160 130h20v10h-20z" fill="#257ced"/><path d="m180 130h20v10h-20z" fill="#fff"/><path d="m200 130h20v10h-20z"/><path d="m220 130h10v10h-10z" fill="#257ced"/><path d="m70 140h10v10h-10z" fill="#257ced"/><path d="m100 140h10v10h-10z" fill="#068940"/><path d="m110 140h20v10h-20z" fill="#fff"/><path d="m130 140h20v10h-20z"/><path d="m150 140h10v10h-10z" fill="#068940"/><path d="m170 140h10v10h-10z" fill="#257ced"/><path d="m180 140h20v10h-20z" fill="#fff"/><path d="m200 140h20v10h-20z"/><path d="m220 140h10v10h-10z" fill="#257ced"/><path d="m70 150h10v10h-10z" fill="#257ced"/><path d="m100 150h10v10h-10z" fill="#068940"/><path d="m110 150h20v10h-20z" fill="#fff"/><path d="m130 150h20v10h-20z"/><path d="m150 150h10v10h-10z" fill="#068940"/><path d="m170 150h10v10h-10z" fill="#257ced"/><path d="m180 150h20v10h-20z" fill="#fff"/><path d="m200 150h20v10h-20z"/><path d="m220 150h10v10h-10z" fill="#257ced"/><path d="m100 160h60v10h-60z" fill="#068940"/><path d="m170 160h60v10h-60z" fill="#257ced"/></svg>