<svg xmlns="http://www.w3.org/2000/svg" viewBox="0 -0.5 50 50" shape-rendering="crispEdges">
	<title>Bitcoin Pussies #068</title>
	<desc>Bitcoin Pussies are 69 uniquely drawn and inscribed cats on Bitcoin</desc>
	<desc xmlns:meow="https://bitcoinpussies.com/">
		<meow:traits>
			<meow:Skin>Black (Shiny)</meow:Skin>
			<meow:Eyes>Closed</meow:Eyes>
			<meow:Gear>God of Wealth</meow:Gear>
			<meow:Message>Don't bitch, get rich</meow:Message>
		</meow:traits>
	</desc>
	<path stroke="#750003" d="M0 0h25M28 0h22M0 1h26M27 1h23M0 2h50M0 3h5M8 3h42M0 4h4M9 4h41M0 5h3M10 5h40M0 6h3M10 6h26M39 6h11M0 7h3M10 7h26M37 7h1M39 7h8M0 8h4M9 8h7M17 8h19M39 8h7M0 9h5M8 9h7M18 9h27M0 10h16M17 10h28M0 11h45M0 12h46M0 13h16M19 13h13M35 13h12M0 14h7M12 14h3M21 14h9M36 14h3M44 14h6M0 15h7M12 15h3M36 15h3M44 15h6M0 16h7M9 16h1M12 16h3M36 16h3M41 16h1M44 16h6M0 17h7M13 17h2M36 17h2M44 17h6M0 18h7M44 18h6M0 19h10M41 19h9M0 20h12M39 20h11M0 21h15M36 21h14M0 22h15M36 22h4M42 22h8M0 23h15M36 23h3M43 23h7M0 24h6M7 24h8M36 24h2M44 24h6M0 25h5M8 25h7M36 25h1M45 25h5M0 26h6M7 26h8M36 26h1M45 26h5M0 27h15M36 27h2M44 27h6M0 28h16M35 28h2M43 28h7M0 29h16M35 29h1M40 29h10M0 30h17M34 30h1M40 30h3M44 30h6M0 31h16M39 31h3M45 31h5M0 32h11M12 32h4M38 32h5M44 32h6M2 33h8M13 33h2M37 33h13M0 34h1M2 34h8M36 34h14M2 35h9M36 35h14M0 36h12M36 36h14M0 37h14M35 37h15M0 38h17M34 38h16M0 39h16M35 39h15M0 40h17M34 40h16M0 41h19M32 41h18M0 42h11M12 42h38M0 43h10M11 43h1M13 43h32M48 43h2M0 44h11M12 44h32M49 44h1M0 45h43M0 46h29M32 46h11M0 47h29M30 47h1M32 47h11M1 48h28M32 48h12M49 48h1M2 49h43M48 49h2" />
	<path stroke="#ffd500" d="M25 0h3M26 1h1M36 6h3M36 7h1M38 7h1M36 8h3M6 24h1M5 25h3M6 26h1M29 46h3M29 47h1M31 47h1M0 48h1M29 48h3M0 49h2" />
	<path stroke="#ffd710" d="M5 3h3M5 4h2M4 5h1M4 6h1M47 7h3M8 8h1M48 8h2M46 12h1M45 43h3M45 44h2M44 45h1M44 46h1M48 48h1" />
	<path stroke="#efaa00" d="M4 4h1M5 5h3M5 6h3M5 7h3M47 9h3M47 10h3M47 11h3M44 44h1M45 45h3M45 46h3M45 47h3" />
	<path stroke="#ffffff" d="M7 4h1M8 5h1M47 8h1M46 9h1M47 44h1M48 45h1" />
	<path stroke="#ffda34" d="M8 4h1M9 5h1M9 6h1M9 7h1M46 8h1M45 9h1M45 10h1M45 11h1M48 44h1M49 45h1M49 46h1M49 47h1" />
	<path stroke="#af7222" d="M3 5h1M3 6h1M8 6h1M3 7h2M8 7h1M4 8h4M5 9h3M46 10h1M46 11h1M47 12h3M47 13h3M43 45h1M43 46h1M48 46h1M43 47h2M48 47h1M44 48h4M45 49h3" />
	<path stroke="#ffde4d" d="M16 8h1M15 9h3M16 10h1M43 30h1M42 31h3M43 32h1M0 33h2M1 34h1M0 35h2M11 42h1M10 43h1M12 43h1M11 44h1" />
	<path stroke="#000000" d="M16 13h3M32 13h3M7 14h5M15 14h1M19 14h2M30 14h2M35 14h1M39 14h5M7 15h1M11 15h1M15 15h1M20 15h11M35 15h1M39 15h1M43 15h1M7 16h1M11 16h1M15 16h1M18 16h2M31 16h2M35 16h1M39 16h1M43 16h1M7 17h1M11 17h2M15 17h1M17 17h1M23 17h5M33 17h1M35 17h1M38 17h2M43 17h1M7 18h3M13 18h4M23 18h1M27 18h1M34 18h4M41 18h3M10 19h2M16 19h1M23 19h1M27 19h1M34 19h1M39 19h2M12 20h27M15 21h1M35 21h1M15 22h1M17 22h17M35 22h1M40 22h2M15 23h2M34 23h2M39 23h1M42 23h1M15 24h1M20 24h3M28 24h3M35 24h1M38 24h1M43 24h1M15 25h1M25 25h1M35 25h1M37 25h8M15 26h1M24 26h3M35 26h1M37 26h1M44 26h1M15 27h1M35 27h1M38 27h1M43 27h1M16 28h1M34 28h1M37 28h6M16 29h1M34 29h1M36 29h1M39 29h1M17 30h2M32 30h2M35 30h1M37 30h1M39 30h1M16 31h1M19 31h2M30 31h2M34 31h1M38 31h1M11 32h1M16 32h1M24 32h3M37 32h1M10 33h1M12 33h1M15 33h1M36 33h1M10 34h1M13 34h3M35 34h1M11 35h1M15 35h1M35 35h1M12 36h2M15 36h1M35 36h1M14 37h3M34 37h1M17 38h2M22 38h1M24 38h1M26 38h1M28 38h1M32 38h2M19 39h13" />
	<path stroke="#2c2c2c" d="M16 14h3M32 14h3M16 15h1M34 15h1M16 16h1M34 16h1M16 17h1M34 17h1M17 23h17M16 24h4M23 24h5M31 24h4M16 25h9M26 25h9M16 26h2M20 26h2M29 26h2M33 26h2M16 27h6M23 27h5M29 27h6M17 28h5M23 28h1M27 28h1M29 28h5M17 29h5M23 29h2M26 29h2M29 29h5M37 29h2M19 30h6M26 30h6M38 30h1M21 31h9M11 33h1M11 34h2M12 35h3M14 36h1M19 38h3M23 38h1M25 38h1M27 38h1M29 38h3" />
	<path stroke="#fac700" d="M8 15h3M40 15h3M8 16h1M10 16h1M40 16h1M42 16h1M8 17h3M40 17h3M10 18h3M24 18h3M38 18h3M12 19h4M24 19h1M26 19h1M35 19h4M16 21h12M16 22h1M40 24h3M38 26h6M39 27h1M36 30h1M35 31h3M36 32h1M16 35h8M27 35h3M16 36h8M27 36h3" />
	<path stroke="#f5b3a5" d="M17 15h3M31 15h3M17 16h1M33 16h1" />
	<path stroke="#e80522" d="M20 16h1M18 17h3M17 18h3M17 19h3M17 31h2M17 32h2M16 33h2M16 34h2M17 37h2" />
	<path stroke="#d20005" d="M21 16h7M21 17h2M28 17h1M20 18h3M28 18h2M20 19h3M25 19h1M28 19h3M19 32h5M27 32h2M18 33h13M18 34h13M19 37h11" />
	<path stroke="#b40008" d="M28 16h3M29 17h4M30 18h4M31 19h3M32 31h2M29 32h7M31 33h5M31 34h4M30 37h4" />
	<path stroke="#edbb00" d="M28 21h7M34 22h1M30 35h5M30 36h5" />
	<path stroke="#ffda3a" d="M40 23h1M39 24h1" />
	<path stroke="#ffeba3" d="M41 23h1" />
	<path stroke="#e79e8e" d="M18 26h2M31 26h2" />
	<path stroke="#1b1007" d="M22 26h2M27 26h2M22 27h1M28 27h1M22 28h1M24 28h3M28 28h1M22 29h1M25 29h1M28 29h1M25 30h1" />
	<path stroke="#deac00" d="M40 27h3" />
	<path stroke="#47ac43" d="M24 35h3M24 36h3" />
	<path stroke="#3e0104" d="M16 39h3M32 39h3M17 40h17M19 41h13" />
</svg>