<svg height="320" shape-rendering="crispEdges" viewBox="0 0 320 320" width="320" xmlns="http://www.w3.org/2000/svg"><rect fill="#e1d7d5" height="100%" width="100%"/><g fill="#4b4949"><path d="m90 210h140v10h-140z"/><path d="m90 220h140v10h-140z"/><path d="m90 230h140v10h-140z"/><path d="m90 240h140v10h-140z"/><path d="m90 250h20v10h-20z"/><path d="m120 250h110v10h-110z"/><path d="m90 260h20v10h-20z"/><path d="m120 260h110v10h-110z"/><path d="m90 270h20v10h-20z"/><path d="m120 270h110v10h-110z"/><path d="m90 280h20v10h-20z"/><path d="m120 280h110v10h-110z"/><path d="m90 290h20v10h-20z"/><path d="m120 290h110v10h-110z"/><path d="m90 300h20v10h-20z"/><path d="m120 300h110v10h-110z"/><path d="m90 310h20v10h-20z"/><path d="m120 310h110v10h-110z"/></g><path d="m120 210h10v10h-10z" fill="#ffc110"/><path d="m190 210h10v10h-10z" fill="#ffc110"/><path d="m120 220h10v10h-10z" fill="#ffc110"/><path d="m190 220h10v10h-10z" fill="#ffc110"/><path d="m130 230h10v10h-10z" fill="#ffc110"/><path d="m180 230h10v10h-10z" fill="#ffc110"/><path d="m140 240h40v10h-40z" fill="#ffc110"/><path d="m150 250h20v10h-20z" fill="#ffc110"/><path d="m140 260h40v10h-40z" fill="#ffc110"/><path d="m140 270h20v10h-20z" fill="#ffc110"/><path d="m160 280h20v10h-20z" fill="#ffc110"/><path d="m140 290h40v10h-40z" fill="#ffc110"/><path d="m150 300h20v10h-20z" fill="#ffc110"/><path d="m150 20h70v10h-70z" fill="#068940"/><path d="m130 30h30v10h-30z" fill="#068940"/><path d="m160 30h30v10h-30z" fill="#4bea69"/><path d="m190 30h40v10h-40z" fill="#068940"/><path d="m110 40h50v10h-50z" fill="#068940"/><path d="m160 40h30v10h-30z" fill="#4bea69"/><path d="m190 40h10v10h-10z" fill="#068940"/><path d="m200 40h20v10h-20z" fill="#4bea69"/><path d="m220 40h20v10h-20z" fill="#068940"/><path d="m90 50h40v10h-40z" fill="#068940"/><path d="m130 50h10v10h-10z" fill="#4bea69"/><path d="m140 50h20v10h-20z" fill="#068940"/><path d="m160 50h30v10h-30z" fill="#4bea69"/><path d="m190 50h10v10h-10z" fill="#068940"/><path d="m200 50h20v10h-20z" fill="#4bea69"/><path d="m220 50h20v10h-20z" fill="#068940"/><path d="m80 60h160v10h-160z" fill="#068940"/><path d="m90 70h140v10h-140z" fill="#068940"/><path d="m250 70h30v10h-30z" fill="#068940"/><path d="m130 80h80v10h-80z" fill="#068940"/><path d="m240 80h20v10h-20z" fill="#068940"/><path d="m260 80h10v10h-10z" fill="#4bea69"/><path d="m270 80h20v10h-20z" fill="#068940"/><path d="m40 90h70v10h-70z" fill="#068940"/><path d="m170 90h20v10h-20z" fill="#b2958d"/><path d="m220 90h80v10h-80z" fill="#068940"/><path d="m30 100h20v10h-20z" fill="#068940"/><path d="m50 100h20v10h-20z" fill="#4bea69"/><path d="m70 100h60v10h-60z" fill="#068940"/><path d="m170 100h30v10h-30z" fill="#b2958d"/><path d="m200 100h60v10h-60z" fill="#068940"/><path d="m260 100h20v10h-20z" fill="#4bea69"/><path d="m280 100h20v10h-20z" fill="#068940"/><path d="m30 110h20v10h-20z" fill="#068940"/><path d="m50 110h20v10h-20z" fill="#4bea69"/><path d="m70 110h10v10h-10z" fill="#068940"/><path d="m80 110h10v10h-10z" fill="#4bea69"/><path d="m90 110h50v10h-50z" fill="#068940"/><path d="m180 110h10v10h-10z" fill="#b2958d"/><path d="m190 110h70v10h-70z" fill="#068940"/><path d="m260 110h20v10h-20z" fill="#4bea69"/><path d="m280 110h20v10h-20z" fill="#068940"/><path d="m30 120h110v10h-110z" fill="#068940"/><path d="m180 120h30v10h-30z" fill="#b2958d"/><path d="m210 120h80v10h-80z" fill="#068940"/><path d="m30 130h110v10h-110z" fill="#068940"/><path d="m170 130h90v10h-90z" fill="#b2958d"/><path d="m40 140h80v10h-80z" fill="#068940"/><path d="m120 140h80v10h-80z" fill="#b2958d"/><path d="m50 150h30v10h-30z" fill="#068940"/><path d="m80 150h40v10h-40z" fill="#b2958d"/><path d="m150 150h40v10h-40z" fill="#b2958d"/><path d="m130 160h60v10h-60z" fill="#b2958d"/><path d="m120 170h80v10h-80z" fill="#b2958d"/><path d="m70 180h180v10h-180z" fill="#962236"/><path d="m70 190h50v10h-50z" fill="#962236"/><path d="m120 190h130v10h-130z" fill="#1f1d29"/><path d="m70 200h180v10h-180z" fill="#962236"/><path d="m90 210h140v10h-140z" fill="#962236"/><path d="m100 110h60v10h-60z" fill="#d19a54"/><path d="m170 110h60v10h-60z" fill="#d19a54"/><path d="m100 120h10v10h-10z" fill="#d19a54"/><path d="m110 120h20v10h-20z" fill="#fff"/><path d="m130 120h20v10h-20z"/><path d="m150 120h10v10h-10z" fill="#d19a54"/><path d="m170 120h10v10h-10z" fill="#d19a54"/><path d="m180 120h20v10h-20z" fill="#fff"/><path d="m200 120h20v10h-20z"/><path d="m220 120h10v10h-10z" fill="#d19a54"/><path d="m70 130h40v10h-40z" fill="#d19a54"/><path d="m110 130h20v10h-20z" fill="#fff"/><path d="m130 130h20v10h-20z"/><path d="m150 130h30v10h-30z" fill="#d19a54"/><path d="m180 130h20v10h-20z" fill="#fff"/><path d="m200 130h20v10h-20z"/><path d="m220 130h10v10h-10z" fill="#d19a54"/><path d="m70 140h10v10h-10z" fill="#d19a54"/><path d="m100 140h10v10h-10z" fill="#d19a54"/><path d="m110 140h20v10h-20z" fill="#fff"/><path d="m130 140h20v10h-20z"/><path d="m150 140h10v10h-10z" fill="#d19a54"/><path d="m170 140h10v10h-10z" fill="#d19a54"/><path d="m180 140h20v10h-20z" fill="#fff"/><path d="m200 140h20v10h-20z"/><path d="m220 140h10v10h-10z" fill="#d19a54"/><path d="m70 150h10v10h-10z" fill="#d19a54"/><path d="m100 150h10v10h-10z" fill="#d19a54"/><path d="m110 150h20v10h-20z" fill="#fff"/><path d="m130 150h20v10h-20z"/><path d="m150 150h10v10h-10z" fill="#d19a54"/><path d="m170 150h10v10h-10z" fill="#d19a54"/><path d="m180 150h20v10h-20z" fill="#fff"/><path d="m200 150h20v10h-20z"/><path d="m220 150h10v10h-10z" fill="#d19a54"/><path d="m100 160h60v10h-60z" fill="#d19a54"/><path d="m170 160h60v10h-60z" fill="#d19a54"/></svg>