<svg height="320" shape-rendering="crispEdges" viewBox="0 0 320 320" width="320" xmlns="http://www.w3.org/2000/svg"><rect fill="#d5d7e1" height="100%" width="100%"/><g fill="#5a65fa"><path d="m90 210h140v10h-140z"/><path d="m90 220h140v10h-140z"/><path d="m90 230h140v10h-140z"/><path d="m90 240h140v10h-140z"/><path d="m90 250h20v10h-20z"/><path d="m120 250h110v10h-110z"/><path d="m90 260h20v10h-20z"/><path d="m120 260h110v10h-110z"/><path d="m90 270h20v10h-20z"/><path d="m120 270h110v10h-110z"/><path d="m90 280h20v10h-20z"/><path d="m120 280h110v10h-110z"/><path d="m90 290h20v10h-20z"/><path d="m120 290h110v10h-110z"/><path d="m90 300h20v10h-20z"/><path d="m120 300h110v10h-110z"/><path d="m90 310h20v10h-20z"/><path d="m120 310h110v10h-110z"/></g><path d="m120 210h20v10h-20z"/><path d="m180 210h20v10h-20z"/><path d="m120 220h20v10h-20z"/><path d="m180 220h20v10h-20z"/><path d="m90 240h20v10h-20z"/><path d="m150 240h20v10h-20z"/><path d="m210 240h20v10h-20z"/><path d="m90 250h20v10h-20z"/><path d="m150 250h20v10h-20z"/><path d="m210 250h20v10h-20z"/><path d="m120 270h20v10h-20z"/><path d="m180 270h20v10h-20z"/><path d="m120 280h20v10h-20z"/><path d="m180 280h20v10h-20z"/><path d="m90 300h20v10h-20z"/><path d="m150 300h20v10h-20z"/><path d="m210 300h20v10h-20z"/><path d="m90 310h20v10h-20z"/><path d="m150 310h20v10h-20z"/><path d="m210 310h20v10h-20z"/><path d="m110 50h100v10h-100z" fill="#2b83f6"/><path d="m80 60h160v10h-160z" fill="#2b83f6"/><path d="m80 70h160v10h-160z" fill="#2b83f6"/><path d="m70 80h180v10h-180z" fill="#2b83f6"/><path d="m70 90h180v10h-180z" fill="#2b83f6"/><path d="m80 100h160v10h-160z" fill="#f9e8dd"/><path d="m80 110h160v10h-160z" fill="#f9e8dd"/><path d="m80 120h160v10h-160z" fill="#f9e8dd"/><path d="m80 130h160v10h-160z" fill="#f9e8dd"/><path d="m80 140h160v10h-160z" fill="#f9e8dd"/><path d="m80 150h160v10h-160z" fill="#f9e8dd"/><path d="m80 160h160v10h-160z" fill="#f9e8dd"/><path d="m80 170h70v10h-70z" fill="#f9e8dd"/><path d="m150 170h10v10h-10z" fill="#9d8e6e"/><path d="m160 170h10v10h-10z" fill="#f9e8dd"/><path d="m170 170h10v10h-10z" fill="#9d8e6e"/><path d="m180 170h60v10h-60z" fill="#f9e8dd"/><path d="m100 180h120v10h-120z" fill="#f9e8dd"/><path d="m100 190h20v10h-20z" fill="#f9e8dd"/><path d="m120 190h10v10h-10z" fill="#9d8e6e"/><path d="m130 190h10v10h-10z" fill="#f9e8dd"/><path d="m140 190h10v10h-10z" fill="#ffe939"/><path d="m150 190h10v10h-10z" fill="#f9e8dd"/><path d="m160 190h10v10h-10z" fill="#9d8e6e"/><path d="m170 190h10v10h-10z" fill="#f9e8dd"/><path d="m180 190h10v10h-10z" fill="#9d8e6e"/><path d="m190 190h10v10h-10z" fill="#f9e8dd"/><path d="m200 190h10v10h-10z" fill="#9d8e6e"/><path d="m210 190h10v10h-10z" fill="#f9e8dd"/><path d="m100 200h30v10h-30z" fill="#f9e8dd"/><path d="m130 200h10v10h-10z" fill="#9d8e6e"/><path d="m140 200h10v10h-10z" fill="#f9e8dd"/><path d="m150 200h10v10h-10z" fill="#9d8e6e"/><path d="m160 200h10v10h-10z" fill="#f9e8dd"/><path d="m170 200h10v10h-10z" fill="#9d8e6e"/><path d="m180 200h10v10h-10z" fill="#f9e8dd"/><path d="m190 200h10v10h-10z" fill="#9d8e6e"/><path d="m200 200h10v10h-10z" fill="#f9e8dd"/><path d="m210 200h10v10h-10z" fill="#9d8e6e"/><path d="m110 210h110v10h-110z" fill="#f9e8dd"/><path d="m100 110h60v10h-60z" fill="#2b83f6"/><path d="m170 110h60v10h-60z" fill="#2b83f6"/><path d="m100 120h10v10h-10z" fill="#2b83f6"/><path d="m110 120h20v10h-20z" fill="#fff"/><path d="m130 120h20v10h-20z"/><path d="m150 120h10v10h-10z" fill="#2b83f6"/><path d="m170 120h10v10h-10z" fill="#2b83f6"/><path d="m180 120h20v10h-20z" fill="#fff"/><path d="m200 120h20v10h-20z"/><path d="m220 120h10v10h-10z" fill="#2b83f6"/><path d="m70 130h40v10h-40z" fill="#2b83f6"/><path d="m110 130h20v10h-20z" fill="#fff"/><path d="m130 130h20v10h-20z"/><path d="m150 130h30v10h-30z" fill="#2b83f6"/><path d="m180 130h20v10h-20z" fill="#fff"/><path d="m200 130h20v10h-20z"/><path d="m220 130h10v10h-10z" fill="#2b83f6"/><path d="m70 140h10v10h-10z" fill="#2b83f6"/><path d="m100 140h10v10h-10z" fill="#2b83f6"/><path d="m110 140h20v10h-20z" fill="#fff"/><path d="m130 140h20v10h-20z"/><path d="m150 140h10v10h-10z" fill="#2b83f6"/><path d="m170 140h10v10h-10z" fill="#2b83f6"/><path d="m180 140h20v10h-20z" fill="#fff"/><path d="m200 140h20v10h-20z"/><path d="m220 140h10v10h-10z" fill="#2b83f6"/><path d="m70 150h10v10h-10z" fill="#2b83f6"/><path d="m100 150h10v10h-10z" fill="#2b83f6"/><path d="m110 150h20v10h-20z" fill="#fff"/><path d="m130 150h20v10h-20z"/><path d="m150 150h10v10h-10z" fill="#2b83f6"/><path d="m170 150h10v10h-10z" fill="#2b83f6"/><path d="m180 150h20v10h-20z" fill="#fff"/><path d="m200 150h20v10h-20z"/><path d="m220 150h10v10h-10z" fill="#2b83f6"/><path d="m100 160h60v10h-60z" fill="#2b83f6"/><path d="m170 160h60v10h-60z" fill="#2b83f6"/></svg>