<?xml version="1.0" encoding="utf-8"?>
<!-- Generator: Adobe Illustrator 27.6.1, SVG Export Plug-In . SVG Version: 6.00 Build 0)  -->
<svg version="1.1" xmlns="http://www.w3.org/2000/svg" xmlns:xlink="http://www.w3.org/1999/xlink" x="0px" y="0px"
	 viewBox="0 0 1080 1080" style="enable-background:new 0 0 1080 1080;" xml:space="preserve">
<style type="text/css">
	.st0{fill:#FFFFFF;}
	.st1{fill:url(#SVGID_1_);stroke:#000054;stroke-width:13;stroke-miterlimit:10;}
	.st2{fill:#FF3F6F;}
	.st3{fill:#00294E;}
	.st4{fill:#5F0047;}
</style>
<g id="BG_00000049199473064088084310000008836133144443458486_">
	<rect class="st0" width="1080" height="1080"/>
</g>
<g id="face">
	<linearGradient id="SVGID_1_" gradientUnits="userSpaceOnUse" x1="539.367" y1="804.0264" x2="539.367" y2="186.4234">
		<stop  offset="0" style="stop-color:#004E60"/>
		<stop  offset="2.986729e-03" style="stop-color:#004E60"/>
		<stop  offset="0.2952" style="stop-color:#007385"/>
		<stop  offset="0.5678" style="stop-color:#008D9F"/>
		<stop  offset="0.8109" style="stop-color:#009CAF"/>
		<stop  offset="1" style="stop-color:#00A2B5"/>
	</linearGradient>
	<polygon class="st1" points="539.37,186.42 182.79,804.03 895.94,804.03 	"/>
</g>
<g id="BG">
	<polygon class="st0" points="424.14,664.65 462.54,598.13 385.73,598.13 	"/>
	<polygon class="st2" points="395.75,598.13 452.53,598.13 424.14,647.3 	"/>
	<polygon class="st3" points="441.17,598.13 424.14,627.64 407.1,598.13 	"/>
	<polygon class="st0" points="436.89,612.42 428.65,598.14 445.14,598.14 	"/>
	<polygon class="st0" points="654.53,664.17 616.12,597.65 692.94,597.65 	"/>
	<polygon class="st2" points="682.19,597.65 625.41,597.65 653.8,646.82 	"/>
	<polygon class="st3" points="636.7,597.59 653.74,627.1 670.78,597.59 	"/>
	<polygon class="st0" points="666.55,611.93 674.8,597.66 658.31,597.66 	"/>
	<polygon class="st4" points="769.3,597.65 692.94,597.65 731.06,664.55 730.89,664.84 654.44,664.84 692.66,731.05 615.73,730.8 
		653.81,664.84 577.73,664.84 616.12,597.65 577.65,532.14 577.65,532.14 654.44,532.14 616.05,465.64 692.84,465.64 616.05,333 
		577.69,399.44 577.62,399.44 539.26,333 500.9,399.44 500.83,399.44 462.47,333 385.68,465.64 462.47,465.64 462.47,465.64 
		424.08,532.14 500.87,532.14 500.87,532.14 462.54,598.13 500.48,664.84 424.08,664.84 462.39,731.19 385.94,731.19 385.81,730.97 
		424.08,664.69 347.55,664.69 347.42,664.47 385.68,598.19 308.9,598.19 309.11,598.56 194.23,797.55 884.29,797.55 	"/>
	<polygon points="539.37,723 496.07,758 582.67,758 	"/>
</g>
</svg>
