<?xml version="1.0" encoding="utf-8"?>
<!-- Generator: Adobe Illustrator 27.6.1, SVG Export Plug-In . SVG Version: 6.00 Build 0)  -->
<svg version="1.1" id="レイヤー_1" xmlns="http://www.w3.org/2000/svg" xmlns:xlink="http://www.w3.org/1999/xlink" x="0px"
	 y="0px" viewBox="0 0 2000 2000" style="enable-background:new 0 0 2000 2000;" xml:space="preserve">
<style type="text/css">
	.st0{fill:#FFFFFF;}
	.st1{fill-rule:evenodd;clip-rule:evenodd;fill:#231815;}
</style>
<rect x="0" class="st0" width="2000" height="2000"/>
<g>
	<g>
		<path class="st1" d="M769.4,1154c7.8-3.2,23.8,4.3,33.4,6.1c24,4.5,77.6,9.1,104,4.6c13.9-1.5,27.8-3,41.8-4.6
			c26-5.3,50.3-15.4,72.1-24.3c12.3-5,26.1-8.7,35.7-16.7c4.2-3.5,6-9.4,10.6-12.9c0-4.6,0-9.1,0-13.7c-4.5-3.1-13.2-9.6-22.8-6.8
			c-10.9,6.1-21.8,12.2-32.7,18.2c-23.6,10.4-48.3,18-77.5,23.5c-99.3,19-198.5-9.8-253.6-50.1c-44.1-32.3-75.7-75.6-88.1-139.7
			c-0.3-12.1-0.5-24.3-0.8-36.5c-6.2-37.2-1.1-79.8,7.6-110.1c21.2-73.9,93.3-158.4,147.3-201.2c21.9-17.3,74.3-65,104-69.1
			c6.3,28.9,12.7,57.7,19,86.6c6.7,21.7,21,66.6,21.3,90.4c-5.7,3.6-9.2,8.1-12.2,14.4c0.7,11.9,12.3,23.8,27.3,20.5
			c7.6-3.5,15.2-7.1,22.8-10.6c22.6-7.9,89.8-21.9,120.7-16.7c16.2,2.5,32.4,5.1,48.6,7.6c26.3,6.6,48.5,20.1,75.9,28.1
			c31-4.7,18.1-39,24.3-70.6c3.1-15.9,4.9-35.7,4.6-53.9c0-10.9,0-21.8,0-32.7c3-36.2,6.1-72.4,9.1-108.6c0.5-0.5,1-1,1.5-1.5
			c32.7,2.5,57.4,24.2,83.5,34.2c3.4,8.1-8.3,78.9-11.4,91.9c-5.1,55.7-10.1,111.4-15.2,167.1c-4.2,25-10.1,60.8-3.8,82.8
			c6.8,3.5,13.7,7.1,20.5,10.6c25.3,4.9,53.1-8.3,71.4-13.7c42.3-9.4,84.6-18.7,126.8-28.1c0.3,0,0.5,0,0.8,0
			c7.8,17.3-12.7,58.8-15.9,74.4c-17.6,10.6-50.8,8.9-72.9,15.2c-60.7,15.4-121.5,30.9-182.3,46.3c-18.7,5.4-71,9.2-78.2,23.5
			c-6.8,20.5,29,54.8,39.5,69.1c22.6,30.8,48.9,54,90.4,66.1c53.2,15.5,96-18.5,125.3-40.2c4-4.6,8.1-9.1,12.2-13.7
			c6.5-4.5,11.4-4.3,15.9-12.9c-1.3,0.8-2.5,1.5-3.8,2.3c-0.3-0.5-0.5-1-0.8-1.5c20.5-12.5,46.3-60.8,59.2-86.6
			c4.4-8.7,7.1-26.4,15.2-31.1c8.6-1.5,17.2-3,25.8-4.6c27.3-6.4,57.9-5.5,88.1-10.6c9.6-0.3,19.2-0.5,28.9-0.8
			c14.8-2.5,29.6,3.7,41.8-1.5c7.2-3.7,4.3-8.9,12.9-10.6c0.3-0.5,0.5-1,0.8-1.5c-1.3-0.8-2.5-1.5-3.8-2.3c1.4-7.3-1.4-8.4-0.8-14.4
			c-7.7-11.9-33.4-6.9-50.9-6.8c-45.5,0.1-85.2,10.8-126.8,12.2c-0.5-0.8-1-1.5-1.5-2.3c8.4-9,10.7-36.2,13.7-52.4
			c1.1-6.1-1-18.7,3-22c16.2-2.3,32.4-4.6,48.6-6.8c29.3-5.5,72.6-5.3,94.2-19c0-7-4.6-9.9-5.3-17.5c-24-14.3-107.7-0.8-135.9,7.6
			c-8.5-11-7.2-46.7-12.9-61.5c-14.4-37.4-28.8-71.9-48.6-103.3c-20-31.7-49.1-63-78.2-85.8c-9.1-7.1-37.2-25.1-41.8-34.2
			c2-20,4.1-40,6.1-60c5.3-5.8,21.4,7.9,26.6,11.4c24.3,16.6,50,33.4,72.9,51.6c43.2,34.4,76.6,86.1,100.2,139.7
			c6.5,14.8,26,72.4,38,77.5c19.2,8.2,61.5-13.4,77.5-18.2c3.7-4.6,6.8-5.8,6.8-14.4c-19.9-21.6-29-15.7-57-6.8
			c-0.3-0.3-0.5-0.5-0.8-0.8c-6.1-13.2-12.2-26.3-18.2-39.5c13.5-17.2,45-14.3,53.2-37.2c-2.6-38.8-54.5-5.7-69.9-0.8
			c-7.5-6-14.4-21.9-18.2-31.1c12.4-11.8,51-27.2,58.5-38c1-4,2-8.1,3-12.2c-14.3-35.8-67-0.8-83.5,13.7
			c-10.5-2.3-21.2-22.2-28.1-29.6c4-18,39.4-33,47.8-50.1c0-4,0-8.1,0-12.2c-7-7.6-18.4-16.5-34.9-10.6c-5.1,1.8-39.9,35.2-44,41
			c-0.3,0-0.5,0-0.8,0c-13.9-1.9-25.9-18.8-36.5-25.8c-26.9-17.9-56-45.3-89.6-53.9c-16.3-4.2-30.9,0.4-44.8,1.5
			c-1.3,1.8-2.5,3.5-3.8,5.3c1.3,7.5,6.7,8.4,8.4,13.7c-2.3,20.5-4.6,41-6.8,61.5c0,0.5,0,1,0,1.5c-10.6-5.1-21.3-10.1-31.9-15.2
			c-18-6.1-35.9-12.2-53.9-18.2c-6.4-14.3,2-35,2.3-50.1c-8.7-9.4-16.3-11.2-28.9-17.5c-14.4,13.2-14.1,32.7-14.4,58.5
			c-8.8,3.8-60.3-5.3-78.2-5.3c-34.7-0.1-66.3,0.5-95.7,7.6c-11.1,2.5-22.3,5.1-33.4,7.6c-0.3,0-0.5,0-0.8,0
			c-12.8-24.7,5-55.8-35.7-53.9c-2.8,3-5.6,6.1-8.4,9.1c-6.2,16.2,5.7,39.4,6.8,54.7c-17.7,6.8-35.4,13.7-53.2,20.5
			c-6-4.1-5.6-12.4-8.4-19.7c-10-26.5-16.8-83.6-54.7-69.9c-10.1,14,26.2,77.5,26.6,105.6c-20.5,11.4-41,22.8-61.5,34.2
			c-58.4,36.2-108.4,88.3-149.6,142c-19.4,25.2-41.8,52.5-54.7,83.5c-12.5,30.1-18.2,62.1-26.6,96.4c-6.6,26.9-2.3,68.6,2.3,95.7
			c7,41.2,17.6,74.9,36.5,104.8c8.3,13.2,19,19.4,31.1,28.9c33.6,26.2,62.3,57.2,109.4,70.6c8.4,14.4,0.8,43.5,0,60.8
			c-42.5,30.6-111.5,47.4-169.3,60.8c-45.4,10.5-93.5,11.5-126.8,33.4c-34.6,22.8-44.5,73.3-6.1,99.5c0,1,0,2,0,3
			c-65.3,19.1-81.1,136.6,1.5,135.9c0.8,0.8,1.5,1.5,2.3,2.3c-14.8,30.4,6.1,75.3,28.1,84.3c10.1,0.8,20.3,1.5,30.4,2.3
			c8.8,2,16.7,3.6,25.8,0c62.4-24.7,102.9-79.7,137.5-132.9C705.7,1404.2,769.7,1289.3,769.4,1154z M1424.8,980.8
			c-7.4,11.6-11.7,21.8-19,34.2c-15.8,26.8-79.3,75.2-126.1,60.8c-28.1-8.7-51-24.4-66.8-45.6c-6.6-8.9-13.2-17.7-19.7-26.6
			c0-1,0-2,0-3c17.4-9.4,40.8-10.6,60.8-16.7c46.1-14.1,95.5-25.5,142.8-38.7c15.6-4.4,32.9-3.3,46.3-9.9c3.4,0.2,4.1,0.5,6.1,1.5
			C1445.4,953.1,1432.9,968.1,1424.8,980.8z M1515.1,768.2c0.8,0,1.5,0,2.3,0c0,0.8,0,1.5,0,2.3c-0.8,0-1.5,0-2.3,0
			C1515.1,769.7,1515.1,769,1515.1,768.2z M1312.4,749.2c9.6-54,6.6-114.6,16.7-166.3c2.9-14.8,1.7-35.9,7.6-46.3
			c18.2,6.8,33.3,28.5,47.8,40.2c40.1,32.3,70.2,79.3,87.3,134.4c4.9,15.7,18.1,51.6,14.4,69.9c-18.4,9.5-44.5,9.2-66.1,14.4
			c-34.1,8.2-75.8,24.6-112.4,25.8C1304.4,813.4,1310,762.5,1312.4,749.2z M1042,458.4c13.4-1.3,41.1,5.4,54.7-1.5
			c25.6,2.8,51.1,5.6,76.7,8.4c0.5,0.5,1,1,1.5,1.5c-3.2,31.7-5.4,71.3-10.6,104c-3.7,22.7,1.7,50.5-3,70.6
			c-3.6,15.4,3.6,41.9-6.1,50.9c-19.1-9.4-44.3-17.1-69.1-19c-14.6-26.4,16.6-131.3-38-115.4c-3.2,1.6-6.1,5-7.6,8.4
			c0.3,8.6,0.5,17.2,0.8,25.8c1.3,24.8,2.5,49.6,3.8,74.4c-7.2,3.4-31.1,4.4-38.7,2.3c-6.3-41-12.7-82-19-123
			c-5.2-21.5-12.8-45.6-12.9-71.4C987.3,466.2,1024,460.1,1042,458.4z M885.6,504.7c4.9-8.2,38.3-15.2,48.6-20.5c0.8,0,1.5,0,2.3,0
			c0.3,0,0.5,0,0.8,0c8.8,18.4,9.2,58.3,13.7,81.3c6.7,34.2,15.6,72.1,16.7,109.4c-12.9,2.5-25.8,5.1-38.7,7.6
			c-8.2-15.9-8.3-35.9-13.7-54.7c-6.6-23-11.8-46.5-18.2-71.4C894.4,546.2,883.1,513.7,885.6,504.7z M469.4,1316.5
			c29.3-11.9,64-11.8,98-19.7c21.5-5.8,43-11.6,64.5-17.5c12.9-3.5,25.8-7.1,38.7-10.6c1.5,0,3,0,4.6,0c-4.5,14.4-36.9,29.9-50.1,38
			c-35.1,21.3-70.1,36.1-112.4,52.4c-11.6,4.8-23.3,9.6-34.9,14.4c-9.4-1-18.7-2-28.1-3C432.6,1348.1,448.5,1325,469.4,1316.5z
			 M424.6,1498.8c-16.6-14.5-15.7-46.1,2.3-60.8c7.9-6.4,17.9-9.4,28.1-13.7c23.8-10.1,47.6-20.3,71.4-30.4
			c18.8-7.6,38.5-10.7,54.7-20.5c0.8,0.5,1.5,1,2.3,1.5c-27.3,25.1-54.7,50.1-82,75.2c-13.7,13.9-27.3,27.8-41,41.8
			C451.8,1497.4,437.8,1498.9,424.6,1498.8z M557.5,1550.4c-14.8,15.8-49.5,51.1-79.7,31.1c-32.4-21.4,7.4-62.9,22-77.5
			c37.5-34.9,74.9-69.9,112.4-104.8c19-15,35.4-33.1,53.9-47.8c7.3-6.3,14.7-12.7,22-19c0.8,0,1.5,0,2.3,0
			c-7.6,17.7-15.2,35.4-22.8,53.2C640.5,1450.3,601.8,1503,557.5,1550.4z M842.3,763.7c20-8.5,3.9-30.7-12.9-31.9
			c-3,0.5-6.1,1-9.1,1.5c-2.8,5.3-5.6,10.6-8.4,15.9C816.1,757.7,828,771.4,842.3,763.7z M944.1,1032.5
			c75-18.4,157.4-70.7,192.9-129.1c17.1-28,21.1-64.9,34.9-97.2c-1.4-21.6-18.7-16.5-34.9-23.5c-2.3-2-4.6-4.1-6.8-6.1
			c-38.7-17.4-78.2-23.5-129.9-28.9c-6.6,0.3-13.2,0.5-19.7,0.8c-19.5,4.6-39,9.1-58.5,13.7C842.4,795.1,756,899,773.2,1015
			C814.1,1040,887.5,1046.4,944.1,1032.5z M1095.9,811.5c8.1,2,16.2,4.1,24.3,6.1c5,26.7-31.4,93.8-48.6,99.5
			c0.7-43-7.7-73-27.3-98.7c-7.4-9.7-24.6-18.1-29.6-28.9C1047,789.8,1071.7,802.1,1095.9,811.5z M865.8,844.9c0.8,0,1.5,0,2.3,0
			c-10.3,58.6-14.5,90.3,18.2,132.1c6.9,8.8,19.4,10.6,27.3,18.2c0.5,0,1,0,1.5,0c0,1,0,2,0,3c-39.9,5.4-87.8-0.1-109.4-20.5
			C812.2,920.9,839,881.6,865.8,844.9z M796.7,802.4c-2.6-7.5-10.7-11.3-20.5-11.4c-9,4-15.2,5.4-17.5,15.9
			c-3.9,13.1,17.5,19.1,30.4,19C793,821.1,801.5,813,796.7,802.4z M736,854.8c-7.2,3-12,7-12.9,15.9c10.7,11.7,14.6,19.4,34.9,12.9
			c4-6.1,6.5-10.2,6.1-21.3C757.9,856,749.1,854.4,736,854.8z M1652.6,1090.2c-3.7-9.7,10.9-54.5,6.1-77.5
			c-8-37.9-39.8-65.1-87.3-64.5c-15.9,9.9-31.9,11.6-47.1,23.5c-18.4,14.5-29.8,36-43.3,55.4c-9.9,11.9-19.7,23.8-29.6,35.7
			c-7.7,9.5-18.1,15.4-28.1,22.8c-12.7,10.4-25.3,20.8-38,31.1c-17.3,11.8-34.4,17.5-55.4,26.6c-11.4,5.8-22.8,11.6-34.2,17.5
			c-95.8,35.2-219.4,54.3-325.8,78.2c-38.8,8.7-87.4-0.4-120,14.4c-13.7,6.2-14.6,28.7-19,44.8c-4.8,24.3-9.6,48.6-14.4,72.9
			c-6.6,18.2-13.2,36.5-19.7,54.7c-3.4,10.3-16.9,39.5-12.9,50.9c6.7,13.3,28.3,4.9,34.9-1.5c6.9-6.7,32.5-79.1,34.9-92.6
			c4.4-1.8,31.1-0.3,43.3-2.3c19-3.2,82.9-12.8,99.5-2.3c2.8,4.3,5.6,8.6,8.4,12.9c-3.5,31-39.5,26.5-66.1,35.7
			c-12.1,4.2-30.9,19.2-39.5,28.1c-10.9,11.2-19,29.1-8.4,45.6c32.5,50,121.5,21,171.6,9.9c13.4-1.3,26.8-2.5,40.2-3.8
			c44.1-6.8,105.4,16,96.4,60c-9,44.1-66.5,41.7-113.2,49.4c-14.9,2.4-33.5,0.1-50.1,3c-28.3,5.1-62.7-1.1-94.9,3.8
			c-45.6,0.8-91.1,1.5-136.7,2.3c-29.4,0.3-58.7,0.5-88.1,0.8c-11.2-0.1-26.7-2.6-36.5,0.8c-0.5-1.3-1-2.5-1.5-3.8
			c16.5-37.7,32.9-75.4,49.4-113.2c3.6-14.8-15.6-26.3-28.1-22.8c-11.8,4.9-26.8,47.5-31.9,62.3c-7.6,21.9-20.2,42.9-29.6,65.3
			c-2.5,5.9-11.1,18.3-7.6,28.1c1.2,3.4,22.5,21.3,25.8,22.8c12.4,0.3,24.8,0.5,37.2,0.8c15.9,2,25.1-0.6,41-0.8c21,0,42,0,63,0
			c31.7-3.2,74.5-3.7,107.8,0.8c18.5,2.5,49.9,0.2,68.3-3c20,0,40,0,60,0c15.9-2,31.9-4.1,47.8-6.1c24.6-1.5,49.1-3,73.7-4.6
			c17.5-3.5,34.4-11.7,48.6-19.7c6.6-3.7,11.3-13,15.9-19c20.2-26.1,27.5-58.4,7.6-91.9c-15.5-26-51-46.7-85.8-53.2
			c-45.2-8.4-97.6,2.9-133.7,12.9c-23.5,6.5-52.5,16-81.3,7.6c-0.8-1.5-1.5-3-2.3-4.6c31.3-41.3,110.2-10.1,120-88.9
			c1-8.2-6.3-16.4-9.1-22c-19-37.4-53.6-47.3-110.1-38c-20.5,3.4-39.6,0.7-57.7,6.1c-0.8-0.5-1.5-1-2.3-1.5
			c3-16.7,6.1-33.4,9.1-50.1c0.6-0.8,43.3-8.8,49.4-6.8c3.5,2.5,7.1,5.1,10.6,7.6c14.7,4.6,29.4,9.1,44,13.7
			c22,6.3,39.5,4.9,58.5,13.7c32.7,15.2,65.4,37.3,99.5,49.4c27.1,10.9,54.2,21.8,81.3,32.7c32.2,12.7,72,18.6,110.9,25.8
			c12.1,0.5,24.3,1,36.5,1.5c104.8,23.8,292.3,17,322.7-69.9c7.8-22.2,3.6-55.3-3.8-73.7c-2.8-5.8-5.6-11.6-8.4-17.5
			c12.1-15.7,31.8-27.9,39.5-47.8C1735.7,1164.2,1695.4,1096.2,1652.6,1090.2z M1121,1274c-10.4-1-20.8-2-31.1-3
			c-21.6-0.4-48.3,5.7-69.1,0c-2.8,0-5.6,0-8.4,0c0-0.8,0-1.5,0-2.3c32.7-7.3,65.3-14.7,98-22c25.8-4,51.6-8.1,77.5-12.2
			c78.7-18.5,174.9-49.6,230.9-91.1c28.9-21.5,62-45.4,84.3-73.7c24.1-30.7,36.9-63.5,73.7-82c39.8-0.6,51.5,33.7,41.8,74.4
			c-7.9,32.7-26.3,61-49.4,79c-14.2,11.1-28.4,22.3-42.5,33.4c-12.7,5.6-25.3,11.1-38,16.7c-14.2,6.8-28.4,13.7-42.5,20.5
			c-26.3,8.1-52.7,16.2-79,24.3c-51,16.9-106.2,19.3-161.8,30.4C1187.3,1270,1141.6,1277.4,1121,1274z M1574.4,1385.6
			c-114.3,38.3-263.5-6.7-360-34.2c-0.3-1-0.5-2-0.8-3c108.6-0.1,232.2-8.1,325.8-30.4c31.9-7.6,76.4-12.4,99.5-28.9
			c1.3,0,2.5,0,3.8,0c6.6,7.8,9.9,15.5,9.9,30.4C1652.5,1363.1,1607.4,1374.5,1574.4,1385.6z M1679.2,1195
			c-8,18.4-29.6,39.8-45.6,50.9c-14.5,10.1-32.9,13.9-51.6,19.7c-44.9,14.1-95.7,22.3-145.8,31.9c-18.7,1.8-37.5,3.5-56.2,5.3
			c-23.5,0.8-47.1,1.5-70.6,2.3c-24.9,3.8-50.7-0.4-78.2,3.8c-11.5,1.8-34.3,4.5-45.6,0c-0.5,0-1,0-1.5,0c2.1-3.2,42-6,50.1-7.6
			c48.6-9.3,94.7-17.4,144.3-27.3c16.7-5.6,33.4-11.1,50.1-16.7c91.5-32.6,159.8-54.8,207.3-132.1
			C1661.8,1129.2,1693.6,1161.6,1679.2,1195z M1522.7,1555c-5.8,8-16.9,7.1-22,16.7c0.7,15.5,10.5,17.5,19.7,24.3
			c8-1.1,14.6-5,18.2-10.6C1537.9,1574.5,1530.4,1558.7,1522.7,1555z M1442.2,1572.4c-4.4,2.7-13.8,5.2-15.9,9.9
			c-7.4,16.5,16.5,27.3,24.3,30.4c5.6-3.8,14.9-5.3,19-10.6C1476.6,1585.7,1456.9,1571.9,1442.2,1572.4z M1362.5,1591.4
			c-5.4,3.7-12.1,3.6-15.2,9.9c-6.5,14.4,13,24.2,25.8,23.5c3.8-3.2,8.3-4.4,10.6-9.1C1389,1604,1373.2,1591.2,1362.5,1591.4z
			 M1275.9,1599.8c-8.1,4.5-13.9,7.2-20.5,12.2c-1.2,26.8,31.9,30,43.3,13.7C1302.3,1612.1,1286.5,1603,1275.9,1599.8z"/>
	</g>
</g>
</svg>
