<svg xmlns="http://www.w3.org/2000/svg" viewBox="0 -0.5 50 50" shape-rendering="crispEdges">
	<title>Bitcoin Pussies #060</title>
	<desc>Bitcoin Pussies are 69 uniquely drawn and inscribed cats on Bitcoin</desc>
	<desc xmlns:meow="https://bitcoinpussies.com/">
		<meow:traits>
			<meow:Skin>Lightgrey, White (Shiny)</meow:Skin>
			<meow:Eyes>Tired</meow:Eyes>
			<meow:Gear>Rudolf Christmas Costume</meow:Gear>
			<meow:Message>Merry Chirstmas</meow:Message>
		</meow:traits>
	</desc>
	<path stroke="#882f69" d="M0 0h50M0 1h50M0 2h50M0 3h50M0 4h50M0 5h50M0 6h14M18 6h32M0 7h14M18 7h14M35 7h15M0 8h15M20 8h12M35 8h15M0 9h11M14 9h1M21 9h8M35 9h15M7 10h4M14 10h2M21 10h8M34 10h2M37 10h6M9 11h2M20 11h10M34 11h1M37 11h4M10 12h2M22 12h5M37 12h3M10 13h3M22 13h6M35 13h5M11 14h4M21 14h7M33 14h6M11 15h7M22 15h5M31 15h8M11 16h8M22 16h5M30 16h9M11 17h4M23 17h4M30 17h2M35 17h4M11 18h3M36 18h3M11 19h3M36 19h3M11 20h4M36 20h3M11 21h4M36 21h3M11 22h4M36 22h3M11 23h4M36 23h3M11 24h5M35 24h4M11 25h4M36 25h3M11 26h4M36 26h3M11 27h4M36 27h3M11 28h4M36 28h3M11 29h4M36 29h3M11 30h5M35 30h4M0 31h16M35 31h2M38 31h12M0 32h17M34 32h2M39 32h11M0 33h19M32 33h3M39 33h11M0 34h19M32 34h4M40 34h10M0 35h18M33 35h2M39 35h1M41 35h9M0 36h17M33 36h3M38 36h1M43 36h7" />
	<path stroke="#2c2626" d="M14 6h4M14 7h1M17 7h1M32 7h3M15 8h1M18 8h2M32 8h1M34 8h1M11 9h3M15 9h1M20 9h1M29 9h3M34 9h1M11 10h1M13 10h1M16 10h1M20 10h1M29 10h1M33 10h1M36 10h1M11 11h1M14 11h2M19 11h1M30 11h1M33 11h1M35 11h2M12 12h1M19 12h3M27 12h3M34 12h3M13 13h2M21 13h1M28 13h1M33 13h2M15 14h3M20 14h1M28 14h1M31 14h2M18 15h1M21 15h1M27 15h1M30 15h1M19 16h1M21 16h1M27 16h1M29 16h1M15 17h3M19 17h1M22 17h1M27 17h1M29 17h1M33 17h2M14 18h1M18 18h1M20 18h1M22 18h6M29 18h1M31 18h2M35 18h1M14 19h1M19 19h1M29 19h2M35 19h1M15 20h1M22 20h6M34 20h1M16 21h2M20 21h2M28 21h2M33 21h1M17 22h1M19 22h1M30 22h1M32 22h1M17 23h2M31 23h2" />
	<path stroke="#6f442a" d="M15 7h2M16 8h2M33 8h1M16 9h4M32 9h2M12 10h1M17 10h3M30 10h3M12 11h2M16 11h3M31 11h2M13 12h6M30 12h4M15 13h6M29 13h4M18 14h2M29 14h2M19 15h2M28 15h2M20 16h1M28 16h1M20 17h2M28 17h1M21 18h1M28 18h1" />
	<path stroke="#9c0000" d="M0 10h7M43 10h7M1 11h1M6 11h3M41 11h3M48 11h1M1 12h1M8 12h2M40 12h2M48 12h1M1 13h1M9 13h1M40 13h1M48 13h1M1 14h1M9 14h2M39 14h2M48 14h1M1 15h1M10 15h1M39 15h1M48 15h1M1 16h1M10 16h1M39 16h1M48 16h1M0 17h11M39 17h11M1 18h1M10 18h1M39 18h1M48 18h1M1 19h1M10 19h1M39 19h1M48 19h1M1 20h1M10 20h1M39 20h1M48 20h1M1 21h1M10 21h1M39 21h1M48 21h1M1 22h1M10 22h1M39 22h1M48 22h1M1 23h1M10 23h1M39 23h1M48 23h1M1 24h1M10 24h1M39 24h1M48 24h1M1 25h1M10 25h1M39 25h1M48 25h1M1 26h1M10 26h1M39 26h1M48 26h1M1 27h1M10 27h1M39 27h1M48 27h1M1 28h1M10 28h1M39 28h1M48 28h1M1 29h1M9 29h2M39 29h2M48 29h1M0 30h11M39 30h11" />
	<path stroke="#374b7e" d="M0 11h1M3 11h3M44 11h4M49 11h1M0 12h1M2 12h6M42 12h4M47 12h1M0 13h1M2 13h4M7 13h2M41 13h7M49 13h1M0 14h1M2 14h7M41 14h2M44 14h4M49 14h1M0 15h1M3 15h7M40 15h8M49 15h1M0 16h1M2 16h8M40 16h6M47 16h1M49 16h1M0 18h1M2 18h8M40 18h1M42 18h5M0 19h1M2 19h6M9 19h1M42 19h5M49 19h1M0 20h1M3 20h7M40 20h1M42 20h4M49 20h1M0 21h1M2 21h8M40 21h1M43 21h2M47 21h1M49 21h1M8 22h2M41 22h1M43 22h2M46 22h2M49 22h1" />
	<path stroke="#ffffff" d="M2 11h1M46 12h1M49 12h1M6 13h1M43 14h1M2 15h1M46 16h1M49 18h1M8 19h1M2 20h1M22 21h6M0 22h1M2 22h6M16 22h1M20 22h10M40 22h1M0 23h1M2 23h8M19 23h12M33 23h1M40 23h2M46 23h2M49 23h1M0 24h1M2 24h8M17 24h17M49 24h1M0 25h1M2 25h8M16 25h3M23 25h12M40 25h1M47 25h1M49 25h1M0 26h1M2 26h8M16 26h2M24 26h4M32 26h3M40 26h2M0 27h1M2 27h8M16 27h2M24 27h1M26 27h2M30 27h5M40 27h2M0 28h1M2 28h8M16 28h3M23 28h1M27 28h3M32 28h3M40 28h3M45 28h2M0 29h1M2 29h7M16 29h19M41 29h6M17 30h17M17 31h17M19 32h13M21 33h9M20 34h3M28 34h2M20 35h4M27 35h3M20 36h5M26 36h5M17 37h1M24 37h3M29 37h3M25 38h1M27 38h4" />
	<path stroke="#000000" d="M18 17h1M32 17h1M19 18h1M30 18h1M35 20h1M15 21h1M35 21h1M15 22h1M33 22h1M35 22h1M15 23h2M34 23h2M16 24h1M34 24h1M15 25h1M35 25h1M42 25h1M45 25h1M15 26h1M19 26h4M28 26h4M35 26h1M15 27h1M19 27h2M25 27h1M28 27h2M35 27h1M15 28h1M24 28h3M35 28h1M15 29h1M35 29h1M16 30h1M34 30h1M16 31h1M34 31h1M37 31h1M17 32h2M32 32h2M36 32h1M38 32h1M19 33h2M30 33h2M35 33h1M38 33h1M19 34h1M31 34h1M36 34h1M39 34h1M18 35h1M32 35h1M35 35h1M38 35h1M40 35h1M17 36h2M32 36h1M36 36h2M39 36h1M41 36h2M16 37h1M18 37h1M22 37h2M27 37h2M32 37h1M35 37h1M38 37h1M43 37h1M16 38h4M24 38h1M26 38h1M31 38h1M35 38h1M38 38h1M40 38h1M42 38h1M20 39h11M36 39h2M39 39h1M41 39h1" />
	<path stroke="#d69c51" d="M15 18h3M33 18h2M15 19h4M31 19h4M16 20h3M31 20h3M32 21h1" />
	<path stroke="#593420" d="M41 18h1M47 18h1M40 19h2M47 19h1M41 20h1M46 20h2M41 21h2M45 21h2M42 22h1M45 22h1" />
	<path stroke="#b20f16" d="M20 19h9M19 20h3M28 20h3M18 21h2M30 21h2M18 22h1M31 22h1" />
	<path stroke="#a3a3a3" d="M34 21h1M34 22h1M19 25h4M18 26h1M23 26h1M18 27h1M21 27h3M21 28h2M30 34h1M19 35h1M30 35h2M19 36h1M31 36h1M19 37h3M20 38h4" />
	<path stroke="#9c684c" d="M42 23h4M40 24h8M41 25h1M43 25h2M46 25h1M42 26h6M49 26h1M42 27h1M45 27h3M49 27h1M47 28h1M49 28h1M47 29h1M49 29h1" />
	<path stroke="#dd000d" d="M43 27h2M43 28h2M36 37h2M36 38h2" />
	<path stroke="#ffc0b4" d="M19 28h2M30 28h2" />
	<path stroke="#146117" d="M37 32h1M36 33h2M37 34h2M36 35h2M40 36h1M39 37h4M39 38h1M41 38h1" />
	<path stroke="#c6c6c6" d="M23 34h5M24 35h3M25 36h1" />
	<path stroke="#b34a8e" d="M0 37h16M33 37h2M44 37h6M0 38h16M33 38h2M43 38h7M0 39h15M33 39h1M45 39h5M0 40h17M32 40h3M44 40h6M0 41h18M31 41h5M43 41h7M0 42h50M0 43h50M0 44h50M0 45h50M0 46h50M0 47h50M0 48h50M0 49h50" />
	<path stroke="#7b3361" d="M32 38h1M15 39h5M31 39h2M34 39h2M38 39h1M40 39h1M42 39h3M17 40h15M35 40h9M18 41h13M36 41h7" />
</svg>