<?xml version="1.0" encoding="UTF-8"?><svg id="b" xmlns="http://www.w3.org/2000/svg" viewBox="0 0 198.43 340.16"><defs><style>.e{fill:#0a0b00;}.f{opacity:.78;}.f,.g{stroke:#f2f2f2;}.f,.g,.h,.i,.j{fill:none;stroke-miterlimit:10;}.g,.h,.j{stroke-width:.5px;}.h,.i{stroke:#ff0;}.j{stroke:#999;}.k{fill:#999;}.l{fill:#ff0;opacity:.23;}.m{fill:#f2f2f2;}</style></defs><g id="c"><g id="d"><rect class="m" width="198.43" height="340.16" rx="1.34" ry="1.34"/><path class="e" d="m6.93,333.51c-1.16,0-2.1-.87-2.1-1.95V8.6c0-1.08.94-1.95,2.1-1.95h184.56c1.16,0,2.1.87,2.1,1.95v322.96c0,1.08-.94,1.95-2.1,1.95"/><polygon class="i" points="181.31 229.49 108.56 229.49 144.93 167.32 181.31 229.49"/><polygon class="i" points="90 229.53 17.24 229.53 53.62 167.36 90 229.53"/><polygon class="i" points="181.31 172.95 108.56 172.95 144.93 110.78 181.31 172.95"/><line class="f" x1="181.31" y1="141.87" x2="108.56" y2="141.87"/><polygon class="i" points="90 172.48 17.24 172.48 53.62 110.3 90 172.48"/><line class="f" x1="90" y1="141.39" x2="17.24" y2="141.39"/><line class="f" x1="181.31" y1="198.4" x2="108.56" y2="198.4"/><line class="f" x1="90" y1="198.44" x2="17.24" y2="198.44"/><polygon class="l" points="144.93 111.3 144.93 172.74 181.31 172.74 144.93 111.3"/><line class="h" x1="144.93" y1="110.98" x2="144.93" y2="172.68"/><polygon class="l" points="53.62 110.8 53.62 172.24 90 172.24 53.62 110.8"/><line class="h" x1="53.62" y1="110.54" x2="53.62" y2="172.24"/><polygon class="l" points="53.62 167.59 53.62 229.03 90 229.03 53.62 167.59"/><line class="h" x1="53.62" y1="167.59" x2="53.62" y2="229.3"/><polygon class="l" points="144.93 168.1 144.93 229.54 181.31 229.54 144.93 168.1"/><line class="h" x1="144.93" y1="168.1" x2="144.93" y2="229.8"/><path class="m" d="m94.15,20.6v7.43h2.15c.15,0,.26.03.32.09.06.06.1.13.1.23s-.03.16-.1.22-.17.09-.32.09h-4.92c-.15,0-.26-.03-.32-.09s-.1-.13-.1-.22c0-.09.03-.17.1-.23.06-.06.17-.09.32-.09h2.15v-7.43h-2.15c-.15,0-.26-.03-.32-.09-.06-.06-.1-.13-.1-.23s.03-.17.1-.23c.06-.06.17-.09.32-.09h4.92c.15,0,.26.03.32.09.06.06.1.13.1.23s-.03.17-.1.23c-.06.06-.17.09-.32.09h-2.15Z"/><path class="m" d="m103.47,28.65h-.87l-3.16-8.05h-.48c-.11,0-.2-.01-.25-.03-.05-.02-.09-.06-.12-.11s-.05-.11-.05-.17.02-.11.05-.17.07-.09.12-.11c.05-.02.13-.03.25-.03h2.34c.12,0,.2.01.25.03s.09.06.12.11.05.11.05.17-.02.11-.05.17c-.04.05-.08.09-.12.11s-.13.03-.24.03h-1.2l2.91,7.43h.04l2.87-7.43h-1.19c-.12,0-.2-.01-.25-.03s-.09-.06-.12-.11-.05-.11-.05-.17.02-.11.05-.17c.03-.05.08-.09.12-.11s.13-.03.25-.03h2.33c.12,0,.2.01.25.03s.09.06.12.11.05.11.05.17-.02.11-.05.17-.08.09-.12.11c-.05.02-.13.03-.25.03h-.48l-3.1,8.05Z"/><rect class="g" x="7.74" y="9.5" width="182.95" height="321.15" rx="1.34" ry="1.34"/><path class="k" d="m98.54,304.88v1.18h.42c.06,0,.09.01.12.03.02.02.03.05.03.08,0,.03-.01.06-.03.08-.02.02-.06.03-.12.03h-.94c-.05,0-.09-.01-.12-.03-.02-.02-.03-.05-.03-.08,0-.03.01-.06.03-.08.02-.02.06-.03.12-.03h.3v-2.69h-.3c-.05,0-.09-.01-.12-.03-.02-.02-.03-.05-.03-.08s.01-.06.03-.08c.02-.02.06-.03.12-.03h1.36c.28,0,.52.09.71.27.19.18.29.38.29.6,0,.16-.06.31-.18.45-.12.14-.32.26-.6.36.16.11.3.24.41.38.11.14.3.43.55.86h.17c.05,0,.09.01.12.03.02.02.03.05.03.08,0,.03-.01.06-.03.08-.02.02-.06.03-.12.03h-.3c-.28-.5-.49-.83-.65-1-.15-.17-.33-.3-.53-.4h-.72Zm0-.23h.61c.2,0,.38-.04.54-.11.16-.07.28-.16.35-.25s.11-.19.11-.3c0-.15-.08-.29-.23-.43-.15-.14-.33-.2-.55-.2h-.83v1.29Z"/><path class="k" d="m93.12,312.31h-1.48l-.3.82h.43c.05,0,.09.01.12.03.02.02.03.05.03.08,0,.03-.01.06-.03.08-.02.02-.06.03-.12.03h-.84c-.05,0-.09-.01-.12-.03-.02-.02-.03-.05-.03-.08,0-.03.01-.06.03-.08.02-.02.06-.03.12-.03h.17l1-2.69h-.67c-.05,0-.09-.01-.12-.03-.02-.02-.03-.05-.03-.08s.01-.06.03-.08c.02-.02.06-.03.12-.03h1.13l1.1,2.91h.17c.05,0,.09.01.12.03.02.02.03.05.03.08,0,.03-.01.06-.03.08-.02.02-.06.03-.12.03h-.84c-.06,0-.09-.01-.12-.03-.02-.02-.03-.05-.03-.08,0-.03.01-.06.03-.08.02-.02.06-.03.12-.03h.43l-.31-.82Zm-.09-.23l-.62-1.64h-.08l-.6,1.64h1.31Z"/><path class="k" d="m107.78,311.87c0,.3-.06.58-.18.84-.12.26-.29.46-.5.6-.21.14-.44.21-.69.21-.36,0-.68-.15-.96-.46s-.41-.7-.41-1.19.14-.88.41-1.19c.28-.31.6-.46.96-.46.25,0,.47.07.69.21.21.14.38.34.5.6.12.26.18.53.18.84Zm-.23,0c0-.37-.11-.7-.32-.99-.21-.29-.49-.44-.83-.44-.32,0-.59.14-.81.42-.22.28-.34.61-.34,1.01,0,.42.12.76.35,1.03.24.27.5.4.8.4.34,0,.61-.15.83-.44.21-.29.32-.62.32-.99Z"/><path class="k" d="m99.39,317.22v2.69h.58c.05,0,.09.01.12.03.02.02.03.05.03.08,0,.03-.01.06-.03.08-.02.02-.06.03-.12.03h-1.4c-.05,0-.09-.01-.12-.03-.02-.02-.03-.05-.03-.08,0-.03.01-.06.03-.08.02-.02.06-.03.12-.03h.58v-2.69h-.92v.78c0,.06-.01.09-.03.12-.02.02-.05.03-.08.03-.03,0-.06-.01-.08-.03-.02-.02-.03-.06-.03-.12v-1.01h2.52v1.01c0,.06-.01.09-.03.12-.02.02-.05.03-.08.03s-.06-.01-.08-.03c-.02-.02-.03-.06-.03-.12v-.78h-.92Z"/><path class="j" d="m106.41,309.58c-.74-2.52-2.78-4.48-5.33-5.11"/><path class="j" d="m101.08,318.85c2.37-.59,4.28-2.31,5.14-4.55"/><path class="j" d="m92.38,314.3c.84,2.2,2.7,3.89,4.99,4.51"/><path class="j" d="m97.62,304.62c-2.54.67-4.55,2.65-5.25,5.18"/></g></g></svg>