<?xml version="1.0" encoding="UTF-8"?><svg id="b" xmlns="http://www.w3.org/2000/svg" viewBox="0 0 198.43 340.16"><defs><style>.f,.g,.h,.i,.j{fill:none;stroke-miterlimit:10;}.f,.h{stroke:lime;}.k{fill:#0a0b00;}.g{opacity:.78;}.g,.i{stroke:#f2f2f2;}.l{fill:lime;opacity:.33;}.h,.i,.j{stroke-width:.5px;}.j{stroke:#999;}.m{fill:#999;}.n{fill:#ccc;}.o{fill:#f2f2f2;}</style></defs><g id="c"><g id="d"><rect class="o" width="198.43" height="340.16" rx="1.34" ry="1.34"/><g id="e"><path class="k" d="m6.93,333.51c-1.16,0-2.1-.87-2.1-1.95V8.6c0-1.08.94-1.95,2.1-1.95h184.56c1.16,0,2.1.87,2.1,1.95v322.96c0,1.08-.94,1.95-2.1,1.95"/></g><rect class="i" x="7.74" y="9.5" width="182.95" height="321.15" rx="1.34" ry="1.34"/><line class="h" x1="75.76" y1="212.63" x2="75.71" y2="163.17"/><polygon class="l" points="104.26 163.5 75.79 163.5 75.79 212.26 104.26 163.5"/><polygon class="f" points="104.67 163.16 46.79 163.16 75.73 212.63 104.67 163.16"/><line class="h" x1="122.7" y1="212.63" x2="122.75" y2="163.16"/><polygon class="l" points="94.19 163.5 122.67 163.5 122.67 212.26 94.19 163.5"/><polygon class="f" points="93.75 163.16 151.64 163.16 122.7 212.63 93.75 163.16"/><polygon class="f" points="70.27 245.38 128.16 245.38 99.21 294.85 70.27 245.38"/><polygon class="l" points="70.73 203.69 128.18 203.41 99.24 252.87 70.73 203.69"/><polygon class="f" points="70.29 203.35 128.18 203.35 99.24 252.82 70.29 203.35"/><line class="h" x1="99.21" y1="178.84" x2="99.26" y2="145.38"/><polygon class="l" points="70.27 129.37 99.26 145.38 128.16 129.37 70.27 129.37"/><polygon class="f" points="70.27 129.37 128.16 129.37 99.21 178.84 70.27 129.37"/><line class="h" x1="99.26" y1="145.38" x2="128.16" y2="129.37"/><line class="h" x1="99.26" y1="145.38" x2="70.27" y2="129.37"/><line class="h" x1="124.31" y1="152.64" x2="124.36" y2="119.17"/><polygon class="l" points="95.81 103.51 124.36 119.17 124.28 152.27 95.81 103.51"/><polygon class="f" points="95.36 103.17 153.25 103.17 124.31 152.64 95.36 103.17"/><line class="h" x1="124.36" y1="119.17" x2="153.25" y2="103.17"/><line class="h" x1="124.36" y1="119.17" x2="95.36" y2="103.17"/><line class="h" x1="74.14" y1="152.64" x2="74.19" y2="119.17"/><polygon class="l" points="74.14 152.64 74.19 119.17 103.09 103.17 74.14 152.64"/><polygon class="f" points="45.2 103.17 103.09 103.17 74.14 152.64 45.2 103.17"/><line class="h" x1="74.19" y1="119.17" x2="103.09" y2="103.17"/><line class="h" x1="74.19" y1="119.17" x2="45.2" y2="103.17"/><line class="h" x1="60.28" y1="113.51" x2="60.23" y2="80.04"/><polygon class="l" points="89.22 64.04 60.23 80.04 31.34 64.04 89.22 64.04"/><polygon class="f" points="89.22 64.04 31.34 64.04 60.28 113.51 89.22 64.04"/><line class="h" x1="60.23" y1="80.04" x2="31.34" y2="64.04"/><line class="h" x1="60.23" y1="80.04" x2="89.22" y2="64.04"/><line class="g" x1="31.29" y1="88.77" x2="89.17" y2="88.77"/><line class="h" x1="138.19" y1="113.51" x2="138.24" y2="80.04"/><polygon class="l" points="109.69 64.38 138.24 80.04 167.14 64.04 109.69 64.38"/><polygon class="f" points="109.25 64.04 167.14 64.04 138.19 113.51 109.25 64.04"/><line class="h" x1="138.24" y1="80.04" x2="167.14" y2="64.04"/><line class="h" x1="138.24" y1="80.04" x2="109.25" y2="64.04"/><line class="g" x1="167.14" y1="88.77" x2="109.25" y2="88.77"/><line class="h" x1="99.24" y1="94.78" x2="99.29" y2="61.31"/><polygon class="l" points="70.33 45.31 99.29 61.31 128.18 45.31 70.33 45.31"/><polygon class="f" points="70.29 45.31 128.18 45.31 99.24 94.78 70.29 45.31"/><line class="h" x1="99.29" y1="61.31" x2="128.18" y2="45.31"/><line class="h" x1="99.29" y1="61.31" x2="70.29" y2="45.31"/><line class="g" x1="128.16" y1="270.11" x2="70.27" y2="270.11"/><line class="g" x1="128.18" y1="228.11" x2="70.29" y2="228.11"/><line class="g" x1="151.66" y1="187.89" x2="93.78" y2="187.89"/><line class="g" x1="104.67" y1="187.89" x2="46.79" y2="187.89"/><line class="g" x1="128.16" y1="154.11" x2="70.27" y2="154.11"/><line class="g" x1="103.04" y1="127.91" x2="45.15" y2="127.91"/><line class="g" x1="128.18" y1="70.05" x2="70.29" y2="70.05"/><line class="g" x1="153.25" y1="127.91" x2="95.36" y2="127.91"/><path class="n" d="m99.58,24.23l2.96,3.82h.24c.15,0,.25.03.32.09.06.06.1.13.1.23s-.03.16-.1.22c-.06.06-.17.09-.32.09h-2c-.15,0-.25-.03-.32-.09s-.1-.13-.1-.22.03-.17.1-.23.17-.09.32-.09h.99l-2.57-3.31-2.54,3.31h.99c.15,0,.25.03.32.09.06.06.1.13.1.23s-.03.16-.1.22c-.06.06-.17.09-.32.09h-1.99c-.15,0-.25-.03-.32-.09-.06-.06-.1-.13-.1-.22,0-.07.02-.13.06-.18.04-.05.08-.09.13-.1s.2-.02.45-.02l2.92-3.82-2.79-3.61h-.23c-.15,0-.25-.03-.32-.08s-.1-.13-.1-.23.03-.17.1-.23.17-.08.32-.08h1.7c.15,0,.26.03.33.08.06.06.1.13.1.23s-.03.17-.1.23c-.06.06-.17.08-.33.08h-.7l2.4,3.11,2.39-3.11h-.7c-.15,0-.26-.03-.33-.08-.06-.06-.1-.13-.1-.23s.03-.17.1-.23c.06-.06.17-.08.33-.08h1.7c.15,0,.25.03.32.08.06.06.1.13.1.23s-.03.17-.1.23c-.06.06-.17.08-.32.08h-.24l-2.77,3.61Z"/><path class="m" d="m98.48,304.9v1.18h.42c.06,0,.09.01.12.03.02.02.03.05.03.08,0,.03-.01.06-.03.08-.02.02-.06.03-.12.03h-.94c-.05,0-.09-.01-.12-.03-.02-.02-.03-.05-.03-.08,0-.03.01-.06.03-.08.02-.02.06-.03.12-.03h.3v-2.69h-.3c-.05,0-.09-.01-.12-.03-.02-.02-.03-.05-.03-.08s.01-.06.03-.08c.02-.02.06-.03.12-.03h1.36c.28,0,.52.09.71.27.19.18.29.38.29.6,0,.16-.06.31-.18.45-.12.14-.32.26-.6.36.16.11.3.24.41.38.11.14.3.43.55.86h.17c.05,0,.09.01.12.03.02.02.03.05.03.08,0,.03-.01.06-.03.08-.02.02-.06.03-.12.03h-.3c-.28-.5-.49-.83-.65-1-.15-.17-.33-.3-.53-.4h-.72Zm0-.23h.61c.2,0,.38-.04.54-.11.16-.07.28-.16.35-.25s.11-.19.11-.3c0-.15-.08-.29-.23-.43-.15-.14-.33-.2-.55-.2h-.83v1.29Z"/><path class="m" d="m93.05,312.33h-1.48l-.3.82h.43c.05,0,.09.01.12.03.02.02.03.05.03.08,0,.03-.01.06-.03.08-.02.02-.06.03-.12.03h-.84c-.05,0-.09-.01-.12-.03-.02-.02-.03-.05-.03-.08,0-.03.01-.06.03-.08.02-.02.06-.03.12-.03h.17l1-2.69h-.67c-.05,0-.09-.01-.12-.03-.02-.02-.03-.05-.03-.08s.01-.06.03-.08c.02-.02.06-.03.12-.03h1.13l1.1,2.91h.17c.05,0,.09.01.12.03.02.02.03.05.03.08,0,.03-.01.06-.03.08-.02.02-.06.03-.12.03h-.84c-.06,0-.09-.01-.12-.03-.02-.02-.03-.05-.03-.08,0-.03.01-.06.03-.08.02-.02.06-.03.12-.03h.43l-.31-.82Zm-.09-.23l-.62-1.64h-.08l-.6,1.64h1.31Z"/><path class="m" d="m107.72,311.89c0,.3-.06.58-.18.84-.12.26-.29.46-.5.6-.21.14-.44.21-.69.21-.36,0-.68-.15-.96-.46s-.41-.7-.41-1.19.14-.88.41-1.19c.28-.31.6-.46.96-.46.25,0,.47.07.69.21.21.14.38.34.5.6.12.26.18.53.18.84Zm-.23,0c0-.37-.11-.7-.32-.99-.21-.29-.49-.44-.83-.44-.32,0-.59.14-.81.42-.22.28-.34.61-.34,1.01,0,.42.12.76.35,1.03.24.27.5.4.8.4.34,0,.61-.15.83-.44.21-.29.32-.62.32-.99Z"/><path class="m" d="m99.32,317.24v2.69h.58c.05,0,.09.01.12.03.02.02.03.05.03.08,0,.03-.01.06-.03.08-.02.02-.06.03-.12.03h-1.4c-.05,0-.09-.01-.12-.03-.02-.02-.03-.05-.03-.08,0-.03.01-.06.03-.08.02-.02.06-.03.12-.03h.58v-2.69h-.92v.78c0,.06-.01.09-.03.12-.02.02-.05.03-.08.03-.03,0-.06-.01-.08-.03-.02-.02-.03-.06-.03-.12v-1.01h2.52v1.01c0,.06-.01.09-.03.12-.02.02-.05.03-.08.03s-.06-.01-.08-.03c-.02-.02-.03-.06-.03-.12v-.78h-.92Z"/><path class="j" d="m106.34,309.6c-.74-2.52-2.78-4.48-5.33-5.11"/><path class="j" d="m101.02,318.88c2.37-.59,4.28-2.31,5.14-4.55"/><path class="j" d="m92.32,314.33c.84,2.2,2.7,3.89,4.99,4.51"/><path class="j" d="m97.55,304.64c-2.54.67-4.55,2.65-5.25,5.18"/></g></g></svg>