<?xml version="1.0" encoding="UTF-8"?><svg xmlns="http://www.w3.org/2000/svg" viewBox="0 0 198.28 339.62"><defs><style>.p,.q,.r,.s,.t,.u,.v,.w{fill:none;stroke-miterlimit:10;}.p,.q,.r,.u,.v{stroke:lime;}.x{fill:#0a0b00;}.y{isolation:isolate;}.q{opacity:.65;}.r,.s,.t{stroke-width:.5px;}.s,.w{stroke:#f2f2f2;}.z{opacity:.22;}.z,.aa{fill:lime;}.ab{mix-blend-mode:soft-light;}.t{stroke:#999;}.u{opacity:.33;}.ac{fill:#999;}.ad{mix-blend-mode:overlay;}.v{opacity:.78;}.ae{fill:#f2f2f2;}.aa{opacity:.42;}</style></defs><g class="y"><g id="b"><g id="c"><g id="d"><rect class="ae" width="198.28" height="339.62" rx="1.34" ry="1.34"/><g id="e"><path class="x" d="m6.93,332.98c-1.16,0-2.1-.87-2.1-1.95V8.59c0-1.07.94-1.95,2.1-1.95h184.42c1.16,0,2.1.87,2.1,1.95v322.44c0,1.07-.94,1.95-2.1,1.95"/></g><rect class="s" x="7.73" y="9.49" width="182.82" height="320.64" rx="1.34" ry="1.34"/><line id="f" class="w" x1="4.38" y1="296.87" x2="193.9" y2="296.87"/><path class="ae" d="m33.83,316.21l.46-.37c.53.9,1.33,1.31,2.09,1.31,1.52,0,2.18-.8,2.18-2.45v-5.7h-3.97v-.54h4.62v6.3c0,1.64-.69,2.97-2.81,2.97-1.02,0-2.02-.51-2.56-1.51Z"/><path class="ae" d="m42.63,308.47h5.41v.55h-4.77v3.44h4.01v.55h-4.01v4.01h4.91v.55h-5.55v-9.09Z"/><path class="ae" d="m53.03,309.01h-3.18v-.55h7v.55h-3.18v8.54h-.64v-8.54Z"/><path class="ae" d="m58.49,317.17l5.58-8.18h-5.1v-.54h5.88v.38l-5.59,8.17h5.68v.55h-6.44v-.38Z"/><path class="ae" d="m67.33,317.01h2.35v-7.99h-2.35v-.55h5.34v.55h-2.35v7.99h2.35v.55h-5.34v-.55Z"/><path class="ae" d="m75.79,308.47h2.61c1.81,0,3.01.66,3.01,2.4s-1.19,2.51-3.01,2.51h-1.97v4.17h-.64v-9.09Zm2.44,4.38c1.62,0,2.51-.64,2.51-1.98s-.9-1.87-2.51-1.87h-1.8v3.84h1.8Zm.63.17l2.71,4.54h-.74l-2.58-4.36.61-.18Z"/><path class="ae" d="m86.33,308.47h.64l3.22,9.09h-.68l-1.82-5.35c-.37-1.08-.69-2.03-1.01-3.14h-.05c-.32,1.11-.64,2.06-1.01,3.14l-1.85,5.35h-.65l3.22-9.09Zm-1.75,5.44h4.09v.54h-4.09v-.54Z"/><path class="ae" d="m92.04,308.47h.64v3.98h4.58v-3.98h.64v9.09h-.64v-4.55h-4.58v4.55h-.64v-9.09Z"/><path class="ae" d="m111.35,307.21h.56v13.79h-.56v-13.79Z"/><path class="ae" d="m125.88,308.47h5.41v.55h-4.77v3.44h4.01v.55h-4.01v4.01h4.91v.55h-5.55v-9.09Z"/><path class="ae" d="m136.28,308.47h.64l3.22,9.09h-.68l-1.82-5.35c-.37-1.08-.69-2.03-1.01-3.14h-.05c-.32,1.11-.64,2.06-1.01,3.14l-1.85,5.35h-.65l3.22-9.09Zm-1.75,5.44h4.09v.54h-4.09v-.54Z"/><path class="ae" d="m142.39,308.47h2.61c1.81,0,3.01.66,3.01,2.4s-1.19,2.51-3.01,2.51h-1.97v4.17h-.64v-9.09Zm2.44,4.38c1.62,0,2.51-.64,2.51-1.98s-.9-1.87-2.51-1.87h-1.8v3.84h1.8Zm.63.17l2.71,4.54h-.74l-2.58-4.36.61-.18Z"/><path class="ae" d="m152.93,309.01h-3.18v-.55h7v.55h-3.18v8.54h-.64v-8.54Z"/><path class="ae" d="m158.64,308.47h.64v3.98h4.58v-3.98h.64v9.09h-.64v-4.55h-4.58v4.55h-.64v-9.09Z"/><g id="g"><path id="h" class="w" d="m157.86,280.08H40.42v-57.85c8.83,18.92,108.53,19.08,117.43,0v57.85Z"/><path class="ae" d="m105.89,272.8v-13.55c0-1.35.05-2.53.15-3.53.1-1,.22-1.87.35-2.6.13-.73.24-1.34.33-1.81v-.13h-15.8c-.68,0-1.21-.23-1.59-.71-.38-.47-.57-1.25-.57-2.34,0-.38.01-.75.04-1.1.03-.35.1-.77.2-1.26.1-.49.23-1.1.38-1.83h1.19v.44c0,.71.22,1.21.66,1.52s1,.46,1.68.46h15.27c.5,0,.85.1,1.04.31.19.21.29.59.29,1.15v2.96l-1.15.4.57,20.03c-.32.32-.68.61-1.06.86-.38.25-.82.49-1.32.73h-.66Zm-16.33,0v-11.87c0-1,.1-1.75.31-2.25.21-.5.54-.81,1.02-.93l1.41-.4.26.31.04,13.55c-.32.32-.68.61-1.06.86-.38.25-.82.49-1.32.73h-.66Z"/><path id="i" class="w" d="m85.55,101.61s5.32,4.31,13.59,4.31,13.43-4.31,13.43-4.31c20.09,0,43.02,2.4,43.02,2.4.62,0,1.12.86,1.12,1.91,0,0,1.32,9.65,1.27,20.22-.05,10.57-1.27,24.71-1.27,24.71,0,1.15-.59,2.03-1.25,1.9,0,0-25.41-4.75-55.24-4.75s-57.32,4.76-57.32,4.76c-.67.11-1.3-.77-1.3-1.91,0,0-1.24-14.95-1.29-24.66-.05-9.71,1.29-20.27,1.29-20.27,0-1.06.5-1.91,1.12-1.91,0,0,22.91-2.4,43-2.4"/><path id="j" class="ae" d="m102.09,89.99c.62-.76,1.19-1.62,1.72-2.57.53-.95.95-1.96,1.26-3.03.31-1.07.46-2.16.46-3.25,0-1.57-.33-2.78-.98-3.63-.66-.86-1.68-1.28-3.06-1.28h-3.6c-.91,0-1.62-.23-2.13-.68-.51-.45-.77-1.16-.77-2.1v-.22h-1.47c-.18,1.02-.34,1.82-.46,2.4-.13.58-.21,1.07-.25,1.45-.04.38-.05.77-.05,1.17,0,1.42.23,2.43.68,3.03.45.6,1.12.9,1.99.9h4.81c.58,0,.96.16,1.15.46.18.31.27.72.27,1.23,0,.91-.23,1.81-.68,2.7-.46.89-1.34,2.1-2.65,3.63l-1.33,1.6,1.55,2.38,3.55-4.21Z"/><circle id="k" class="w" cx="99.14" cy="83.03" r="22.95"/><line class="v" x1="57.3" y1="132.24" x2="140.97" y2="132.24"/><path class="p" d="m99.23,156.22s-.02,0-.03,0h.07s-.03,0-.04,0c2.68,0,5.21.05,7.61.13l35.92-61.39H55.51l35.92,61.4c2.45-.09,5.04-.14,7.79-.14Z"/><path class="z" d="m99.23,156.22s-.02,0-.03,0h.07s-.03,0-.04,0c2.68,0,5.21.05,7.61.13l35.92-61.39H55.51l35.92,61.4c2.45-.09,5.04-.14,7.79-.14Z"/><g id="l" class="ab"><path class="ae" d="m105.89,142.02v-13.55c0-1.35.05-2.53.15-3.53.1-1,.22-1.87.35-2.6.13-.73.24-1.34.33-1.81v-.13h-15.8c-.68,0-1.21-.24-1.59-.71-.38-.47-.57-1.25-.57-2.34,0-.38.01-.75.04-1.1.03-.35.1-.77.2-1.26.1-.49.23-1.1.38-1.83h1.19v.44c0,.71.22,1.21.66,1.52s1,.46,1.68.46h15.27c.5,0,.85.1,1.04.31.19.21.29.59.29,1.15v2.96l-1.15.4.57,20.03c-.32.32-.68.61-1.06.86-.38.25-.82.49-1.32.73h-.66Zm-16.33,0v-11.87c0-1,.1-1.75.31-2.25.21-.5.54-.81,1.02-.93l1.41-.4.26.31.04,13.55c-.32.32-.68.61-1.06.86-.38.25-.82.49-1.32.73h-.66Z"/></g><path class="r" d="m99.14,235.53c28.25,0,49.07-6.16,50.8-9.64-8.65-3.2-46.67-21.62-48.82-22.61-2.15-.99-27.65-14.58-38.12-22.06-10.46-7.48-10.7-12.4-10.7-12.4,0,0,9.02-8.85,46.84-8.85h-.07c37.82,0,46.91,8.85,46.91,8.85,0,0-.24,4.92-10.7,12.4s-35.96,21.06-38.12,22.06c-2.15.99-40.17,19.41-48.82,22.61,1.72,3.48,25.46,9.64,50.8,9.64h0Z"/><path class="aa" d="m99.14,235.53c28.25,0,49.07-6.16,50.8-9.64-8.65-3.2-46.67-21.62-48.82-22.61-2.15-.99-27.65-14.58-38.12-22.06s-10.7-12.4-10.7-12.4c0,0,9.02-8.85,46.84-8.85h0c37.82,0,46.84,8.85,46.84,8.85,0,0-.24,4.92-10.7,12.4s-35.96,21.06-38.12,22.06c-2.15.99-40.17,19.41-48.82,22.61,1.72,3.48,25.46,9.64,50.8,9.64h0Z"/><path class="q" d="m99.14,231.77c28.25,0,49.07-6.16,50.8-9.64-8.65-3.2-46.67-21.62-48.82-22.61-2.15-.99-27.65-14.58-38.12-22.06-10.46-7.48-10.7-12.4-10.7-12.4,0,0,9.02-8.85,46.84-8.85h-.07c37.82,0,46.91,8.85,46.91,8.85,0,0-.24,4.92-10.7,12.4s-35.96,21.06-38.12,22.06c-2.15.99-40.17,19.41-48.82,22.61,1.72,3.48,25.46,9.64,50.8,9.64h0Z"/><g id="m" class="ad"><path class="ae" d="m97.74,212.33l-1.15-27.11c0-.73-.09-1.24-.27-1.53-.18-.29-.58-.44-1.2-.44h-3.6c-.87,0-1.54-.3-1.99-.9-.46-.6-.68-1.61-.68-3.03,0-.4.02-.81.05-1.23.04-.42.12-.93.25-1.53.13-.6.28-1.36.46-2.27h1.48v.16c0,.87.25,1.57.74,2.08.49.51,1.21.76,2.16.76h3.11c.95,0,1.6.23,1.97.68.36.46.56,1.27.6,2.43l-1.59,31.54"/></g><g id="n" class="ad"><path class="ae" d="m99,212.33l-1.15-27.11c0-.73-.09-1.24-.27-1.53-.18-.29-.58-.44-1.2-.44h-3.6c-.87,0-1.54-.3-1.99-.9-.46-.6-.68-1.61-.68-3.03,0-.4.02-.81.05-1.23.04-.42.12-.93.25-1.53.13-.6.28-1.36.46-2.27h1.48v.16c0,.87.25,1.57.74,2.08.49.51,1.21.76,2.16.76h3.11c.95,0,1.6.23,1.97.68.36.46.56,1.27.6,2.43l-1.59,31.54"/></g><g id="o" class="ad"><path class="ae" d="m100.25,212.33l-1.15-27.11c0-.73-.09-1.24-.27-1.53-.18-.29-.58-.44-1.2-.44h-3.6c-.87,0-1.54-.3-1.99-.9-.46-.6-.68-1.61-.68-3.03,0-.4.02-.81.05-1.23.04-.42.12-.93.25-1.53.13-.6.28-1.36.46-2.27h1.48v.16c0,.87.25,1.57.74,2.08.49.51,1.21.76,2.16.76h3.11c.95,0,1.6.23,1.97.68.36.46.56,1.27.6,2.43l-1.59,31.54"/></g><path class="u" d="m99.14,226.76c28.25,0,49.07-6.16,50.8-9.64-8.65-3.2-46.67-21.62-48.82-22.61-2.15-.99-27.65-14.58-38.12-22.06-10.46-7.48-10.7-12.4-10.7-12.4,0,0,9.02-8.85,46.84-8.85h-.07c37.82,0,46.91,8.85,46.91,8.85,0,0-.24,4.92-10.7,12.4-10.46,7.48-35.96,21.06-38.12,22.06-2.15.99-40.17,19.41-48.82,22.61,1.72,3.48,25.46,9.64,50.8,9.64h0Z"/></g><path class="ac" d="m98.4,21.74v1.18h.42c.06,0,.09.01.12.03.02.02.03.05.03.08,0,.03-.01.06-.03.08-.02.02-.06.03-.12.03h-.94c-.05,0-.09-.01-.12-.03-.02-.02-.03-.05-.03-.08,0-.03.01-.06.03-.08.02-.02.06-.03.12-.03h.3v-2.69h-.3c-.05,0-.09-.01-.12-.03-.02-.02-.03-.05-.03-.08s.01-.06.03-.08c.02-.02.06-.03.12-.03h1.36c.28,0,.52.09.71.27.19.18.29.38.29.6,0,.16-.06.31-.18.45-.12.14-.32.26-.6.36.16.11.3.24.41.38.11.14.3.43.55.86h.17c.05,0,.09.01.12.03.02.02.03.05.03.08,0,.03-.01.06-.03.08-.02.02-.06.03-.12.03h-.3c-.28-.5-.49-.83-.65-1-.15-.17-.33-.3-.53-.4h-.72Zm0-.23h.61c.2,0,.38-.04.54-.11.16-.07.28-.16.35-.25s.11-.19.11-.3c0-.15-.08-.29-.23-.43-.15-.14-.33-.2-.55-.2h-.83v1.29Z"/><path class="ac" d="m92.98,29.17h-1.48l-.3.82h.43c.05,0,.09.01.12.03.02.02.03.05.03.08,0,.03-.01.06-.03.08-.02.02-.06.03-.12.03h-.84c-.05,0-.09-.01-.12-.03-.02-.02-.03-.05-.03-.08,0-.03.01-.06.03-.08.02-.02.06-.03.12-.03h.17l1-2.69h-.67c-.05,0-.09-.01-.12-.03-.02-.02-.03-.05-.03-.08s.01-.06.03-.08c.02-.02.06-.03.12-.03h1.13l1.1,2.91h.17c.05,0,.09.01.12.03.02.02.03.05.03.08,0,.03-.01.06-.03.08-.02.02-.06.03-.12.03h-.84c-.06,0-.09-.01-.12-.03-.02-.02-.03-.05-.03-.08,0-.03.01-.06.03-.08.02-.02.06-.03.12-.03h.43l-.31-.82Zm-.09-.23l-.62-1.64h-.08l-.6,1.64h1.31Z"/><path class="ac" d="m107.64,28.73c0,.3-.06.58-.18.84-.12.26-.29.46-.5.6-.21.14-.44.21-.69.21-.36,0-.68-.15-.96-.46s-.41-.7-.41-1.19.14-.88.41-1.19c.28-.31.6-.46.96-.46.25,0,.47.07.69.21.21.14.38.34.5.6.12.26.18.53.18.84Zm-.23,0c0-.37-.11-.7-.32-.99-.21-.29-.49-.44-.83-.44-.32,0-.59.14-.81.42-.22.28-.34.61-.34,1.01,0,.42.12.76.35,1.03.24.27.5.4.8.4.34,0,.61-.15.83-.44.21-.29.32-.62.32-.99Z"/><path class="ac" d="m99.25,34.08v2.69h.58c.05,0,.09.01.12.03.02.02.03.05.03.08,0,.03-.01.06-.03.08-.02.02-.06.03-.12.03h-1.4c-.05,0-.09-.01-.12-.03-.02-.02-.03-.05-.03-.08,0-.03.01-.06.03-.08.02-.02.06-.03.12-.03h.58v-2.69h-.92v.78c0,.06-.01.09-.03.12-.02.02-.05.03-.08.03-.03,0-.06-.01-.08-.03-.02-.02-.03-.06-.03-.12v-1.01h2.52v1.01c0,.06-.01.09-.03.12-.02.02-.05.03-.08.03s-.06-.01-.08-.03c-.02-.02-.03-.06-.03-.12v-.78h-.92Z"/><path class="t" d="m106.27,26.44c-.74-2.52-2.78-4.48-5.33-5.11"/><path class="t" d="m100.94,35.71c2.37-.59,4.28-2.31,5.14-4.55"/><path class="t" d="m92.24,31.17c.84,2.2,2.7,3.89,4.99,4.51"/><path class="t" d="m97.48,21.48c-2.54.67-4.55,2.65-5.25,5.18"/></g></g></g></g></svg>