<svg height="320" shape-rendering="crispEdges" viewBox="0 0 320 320" width="320" xmlns="http://www.w3.org/2000/svg"><rect fill="#d5d7e1" height="100%" width="100%"/><g fill="#cfc2ab"><path d="m90 210h140v10h-140z"/><path d="m90 220h140v10h-140z"/><path d="m90 230h140v10h-140z"/><path d="m90 240h140v10h-140z"/><path d="m90 250h20v10h-20z"/><path d="m120 250h110v10h-110z"/><path d="m90 260h20v10h-20z"/><path d="m120 260h110v10h-110z"/><path d="m90 270h20v10h-20z"/><path d="m120 270h110v10h-110z"/><path d="m90 280h20v10h-20z"/><path d="m120 280h110v10h-110z"/><path d="m90 290h20v10h-20z"/><path d="m120 290h110v10h-110z"/><path d="m90 300h20v10h-20z"/><path d="m120 300h110v10h-110z"/><path d="m90 310h20v10h-20z"/><path d="m120 310h110v10h-110z"/></g><path d="m130 230h20v10h-20z" fill="#abaaa8"/><path d="m160 230h20v10h-20z" fill="#abaaa8"/><path d="m130 240h10v10h-10z" fill="#abaaa8"/><path d="m160 240h20v10h-20z" fill="#abaaa8"/><path d="m130 250h20v10h-20z" fill="#abaaa8"/><path d="m160 250h20v10h-20z" fill="#abaaa8"/><path d="m130 270h20v10h-20z" fill="#abaaa8"/><path d="m160 270h10v10h-10z" fill="#abaaa8"/><path d="m180 270h10v10h-10z" fill="#abaaa8"/><path d="m130 280h20v10h-20z" fill="#abaaa8"/><path d="m160 280h20v10h-20z" fill="#abaaa8"/><path d="m130 290h10v10h-10z" fill="#abaaa8"/><path d="m160 290h10v10h-10z" fill="#abaaa8"/><path d="m60 70h200v10h-200z" fill="#1f1d29"/><path d="m50 80h20v10h-20z" fill="#1f1d29"/><path d="m70 80h180v10h-180z" fill="#fff"/><path d="m250 80h20v10h-20z" fill="#1f1d29"/><path d="m50 90h20v10h-20z" fill="#1f1d29"/><path d="m70 90h10v10h-10z" fill="#fff"/><path d="m80 90h10v10h-10z" fill="#1f1d29"/><path d="m90 90h160v10h-160z" fill="#fff"/><path d="m250 90h20v10h-20z" fill="#1f1d29"/><path d="m50 100h10v10h-10z" fill="#1f1d29"/><path d="m60 100h10v10h-10z" fill="#fff"/><path d="m70 100h10v10h-10z" fill="#1f1d29"/><path d="m80 100h10v10h-10z" fill="#fff"/><path d="m90 100h10v10h-10z" fill="#1f1d29"/><path d="m100 100h160v10h-160z" fill="#fff"/><path d="m260 100h10v10h-10z" fill="#1f1d29"/><path d="m50 110h10v10h-10z" fill="#1f1d29"/><path d="m60 110h50v10h-50z" fill="#d6c3be"/><path d="m110 110h10v10h-10z" fill="#fff"/><path d="m120 110h30v10h-30z" fill="#d6c3be"/><path d="m150 110h20v10h-20z" fill="#fff"/><path d="m170 110h30v10h-30z" fill="#d6c3be"/><path d="m200 110h10v10h-10z" fill="#fff"/><path d="m210 110h50v10h-50z" fill="#d6c3be"/><path d="m260 110h10v10h-10z" fill="#1f1d29"/><path d="m50 120h10v10h-10z" fill="#1f1d29"/><path d="m60 120h40v10h-40z" fill="#d6c3be"/><path d="m100 120h30v10h-30z" fill="#fff"/><path d="m130 120h30v10h-30z" fill="#d6c3be"/><path d="m160 120h10v10h-10z" fill="#fff"/><path d="m170 120h20v10h-20z" fill="#d6c3be"/><path d="m190 120h30v10h-30z" fill="#fff"/><path d="m220 120h40v10h-40z" fill="#d6c3be"/><path d="m260 120h10v10h-10z" fill="#1f1d29"/><path d="m50 130h10v10h-10z" fill="#1f1d29"/><path d="m60 130h40v10h-40z" fill="#d6c3be"/><path d="m100 130h30v10h-30z" fill="#fff"/><path d="m130 130h30v10h-30z" fill="#d6c3be"/><path d="m160 130h10v10h-10z" fill="#fff"/><path d="m170 130h20v10h-20z" fill="#d6c3be"/><path d="m190 130h30v10h-30z" fill="#fff"/><path d="m220 130h40v10h-40z" fill="#d6c3be"/><path d="m260 130h10v10h-10z" fill="#1f1d29"/><path d="m50 140h10v10h-10z" fill="#1f1d29"/><path d="m60 140h50v10h-50z" fill="#d6c3be"/><path d="m110 140h10v10h-10z" fill="#fff"/><path d="m120 140h30v10h-30z" fill="#d6c3be"/><path d="m150 140h20v10h-20z" fill="#fff"/><path d="m170 140h30v10h-30z" fill="#d6c3be"/><path d="m200 140h10v10h-10z" fill="#fff"/><path d="m210 140h50v10h-50z" fill="#d6c3be"/><path d="m260 140h10v10h-10z" fill="#1f1d29"/><path d="m50 150h10v10h-10z" fill="#1f1d29"/><path d="m60 150h200v10h-200z" fill="#d6c3be"/><path d="m260 150h10v10h-10z" fill="#1f1d29"/><path d="m50 160h10v10h-10z" fill="#1f1d29"/><path d="m60 160h200v10h-200z" fill="#ffc110"/><path d="m260 160h10v10h-10z" fill="#1f1d29"/><path d="m50 170h10v10h-10z" fill="#1f1d29"/><path d="m60 170h200v10h-200z" fill="#ffc110"/><path d="m260 170h10v10h-10z" fill="#1f1d29"/><path d="m50 180h60v10h-60z" fill="#4b4949"/><path d="m110 180h100v10h-100z" fill="#62616d"/><path d="m210 180h60v10h-60z" fill="#4b4949"/><path d="m50 190h50v10h-50z" fill="#4b4949"/><path d="m100 190h20v10h-20z" fill="#62616d"/><path d="m130 190h60v10h-60z" fill="#62616d"/><path d="m200 190h20v10h-20z" fill="#62616d"/><path d="m220 190h50v10h-50z" fill="#4b4949"/><path d="m50 200h40v10h-40z" fill="#4b4949"/><path d="m90 200h140v10h-140z" fill="#62616d"/><path d="m230 200h40v10h-40z" fill="#4b4949"/><path d="m100 110h60v10h-60z" fill="#068940"/><path d="m170 110h60v10h-60z" fill="#257ced"/><path d="m100 120h10v10h-10z" fill="#068940"/><path d="m110 120h20v10h-20z" fill="#fff"/><path d="m130 120h20v10h-20z"/><path d="m150 120h10v10h-10z" fill="#068940"/><path d="m170 120h10v10h-10z" fill="#257ced"/><path d="m180 120h20v10h-20z" fill="#fff"/><path d="m200 120h20v10h-20z"/><path d="m220 120h10v10h-10z" fill="#257ced"/><path d="m70 130h30v10h-30z" fill="#257ced"/><path d="m100 130h10v10h-10z" fill="#068940"/><path d="m110 130h20v10h-20z" fill="#fff"/><path d="m130 130h20v10h-20z"/><path d="m150 130h10v10h-10z" fill="#068940"/><path d="m160 130h20v10h-20z" fill="#257ced"/><path d="m180 130h20v10h-20z" fill="#fff"/><path d="m200 130h20v10h-20z"/><path d="m220 130h10v10h-10z" fill="#257ced"/><path d="m70 140h10v10h-10z" fill="#257ced"/><path d="m100 140h10v10h-10z" fill="#068940"/><path d="m110 140h20v10h-20z" fill="#fff"/><path d="m130 140h20v10h-20z"/><path d="m150 140h10v10h-10z" fill="#068940"/><path d="m170 140h10v10h-10z" fill="#257ced"/><path d="m180 140h20v10h-20z" fill="#fff"/><path d="m200 140h20v10h-20z"/><path d="m220 140h10v10h-10z" fill="#257ced"/><path d="m70 150h10v10h-10z" fill="#257ced"/><path d="m100 150h10v10h-10z" fill="#068940"/><path d="m110 150h20v10h-20z" fill="#fff"/><path d="m130 150h20v10h-20z"/><path d="m150 150h10v10h-10z" fill="#068940"/><path d="m170 150h10v10h-10z" fill="#257ced"/><path d="m180 150h20v10h-20z" fill="#fff"/><path d="m200 150h20v10h-20z"/><path d="m220 150h10v10h-10z" fill="#257ced"/><path d="m100 160h60v10h-60z" fill="#068940"/><path d="m170 160h60v10h-60z" fill="#257ced"/></svg>