<svg xmlns="http://www.w3.org/2000/svg" height="100%" width="100%" viewBox="-360 -360 720 720"><path class="loop-1" d="M -32,0 a32,32 0 1,0 64,0 a32,32 0 1,0 -64,0" fill="none" stroke="none" id="loop-1"></path><path class="loop-2" d="M -64,0 a64,64 0 1,0 128,0 a64,64 0 1,0 -128,0" fill="none" stroke="none" id="loop-2.1"></path><path class="loop-2" d="M 64,0 a64,64 180 1,0 -128,0 a64,64 180 1,0 128,0" fill="none" stroke="none" id="loop-2.2"></path><path class="loop-3" d="M -128,0 a128,128 0 1,0 256,0 a128,128 0 1,0 -256,0" fill="none" stroke="none" id="loop-3.1"></path><path class="loop-3" d="M 0,-128 a128,128 90 1,0 0,256 a128,128 90 1,0 0,-256" fill="none" stroke="none" id="loop-3.2"></path><path class="loop-3" d="M 0,128 a128,128 180 1,0 0,-256 a128,128 180 1,0 0,256" fill="none" stroke="none" id="loop-3.3"></path><path class="loop-3" d="M 128,0 a128,128 270 1,0 -256,0 a128,128 270 1,0 256,0" fill="none" stroke="none" id="loop-3.4"></path><path class="loop-4" d="M -256,0 a256,256 0 1,0 512,0 a256,256 0 1,0 -512,0" fill="none" stroke="none" id="loop-4.1"></path><path class="loop-4" d="M 0,-256 a256,256 90 1,0 0,512 a256,256 90 1,0 0,-512" fill="none" stroke="none" id="loop-4.2"></path><path class="loop-4" d="M 0,256 a256,256 180 1,0 0,-512 a256,256 180 1,0 0,512" fill="none" stroke="none" id="loop-4.3"></path><path class="loop-4" d="M 256,0 a256,256 270 1,0 -512,0 a256,256 270 1,0 512,0" fill="none" stroke="none" id="loop-4.4"></path><animate href="#circle-1" attributeName="fill-opacity" from="0.7" to="0.0" dur="5s" begin="click" fill="freeze" id="circ-anim"></animate><circle id="circle-1" class="loop-circle" cx="0" cy="0" r="4" fill="hsl(46, 90%, 52%)"></circle><circle id="circle-1" class="loop-circle" cx="" cy="" r="8" fill="hsl(136, 90%, 52%)"><animateMotion dur="1s" repeatCount="indefinite"><mpath href="#loop-1"></mpath></animateMotion></circle><circle id="circle-2.2" class="loop-circle" cx="" cy="" r="12.94427191" fill="hsl(226, 90%, 52%)"><animateMotion dur="1.61803398875s" repeatCount="indefinite"><mpath href="#loop-2.2"></mpath></animateMotion></circle><circle id="circle-2.1" class="loop-circle" cx="" cy="" r="12.94427191" fill="hsl(316, 90%, 52%)"><animateMotion dur="1.61803398875s" repeatCount="indefinite"><mpath href="#loop-2.1"></mpath></animateMotion></circle><circle id="circle-3.1" class="loop-circle" cx="" cy="" r="20.94427191" fill="hsl(226, 90%, 52%)"><animateMotion dur="3.2360679775s" repeatCount="indefinite"><mpath href="#loop-3.1"></mpath></animateMotion></circle><circle id="circle-3.2" class="loop-circle" cx="" cy="" r="20.94427191" fill="hsl(316, 90%, 52%)"><animateMotion dur="3.2360679775s" repeatCount="indefinite"><mpath href="#loop-3.2"></mpath></animateMotion></circle><circle id="circle-3.3" class="loop-circle" cx="" cy="" r="20.94427191" fill="hsl(46, 90%, 52%)"><animateMotion dur="3.2360679775s" repeatCount="indefinite"><mpath href="#loop-3.3"></mpath></animateMotion></circle><circle id="circle-3.4" class="loop-circle" cx="" cy="" r="20.94427191" fill="hsl(136, 90%, 52%)"><animateMotion dur="3.2360679775s" repeatCount="indefinite"><mpath href="#loop-3.4"></mpath></animateMotion></circle><circle id="circle-4.1" class="loop-circle" cx="" cy="" r="33.88854382" fill="hsl(46, 90%, 52%)"><animateMotion dur="6.472135955s" repeatCount="indefinite"><mpath href="#loop-4.1"></mpath></animateMotion></circle><circle id="circle-4.2" class="loop-circle" cx="" cy="" r="33.88854382" fill="hsl(316, 90%, 52%)"><animateMotion dur="6.472135955s" repeatCount="indefinite"><mpath href="#loop-4.2"></mpath></animateMotion></circle><circle id="circle-4.3" class="loop-circle" cx="" cy="" r="33.88854382" fill="hsl(226, 90%, 52%)"><animateMotion dur="6.472135955s" repeatCount="indefinite"><mpath href="#loop-4.3"></mpath></animateMotion></circle><circle id="circle-4.4" class="loop-circle" cx="" cy="" r="33.88854382" fill="hsl(136, 90%, 52%)"><animateMotion dur="6.472135955s" repeatCount="indefinite"><mpath href="#loop-4.4"></mpath></animateMotion></circle><g transform="rotate(45 0 0)"><circle id="circle-4.1.2" class="loop-circle" cx="" cy="" r="33.88854382" fill="hsl(136, 90%, 52%)"><animateMotion dur="6.472135955s" repeatCount="indefinite"><mpath href="#loop-4.1"></mpath></animateMotion></circle><circle id="circle-4.2.2" class="loop-circle" cx="" cy="" r="33.88854382" fill="hsl(226, 90%, 52%)"><animateMotion dur="6.472135955s" repeatCount="indefinite"><mpath href="#loop-4.2"></mpath></animateMotion></circle><circle id="circle-4.3.2" class="loop-circle" cx="" cy="" r="33.88854382" fill="hsl(316, 90%, 52%)"><animateMotion dur="6.472135955s" repeatCount="indefinite"><mpath href="#loop-4.3"></mpath></animateMotion></circle><circle id="circle-4.4.2" class="loop-circle" cx="" cy="" r="33.88854382" fill="hsl(46, 90%, 52%)"><animateMotion dur="6.472135955s" repeatCount="indefinite"><mpath href="#loop-4.4"></mpath></animateMotion></circle></g></svg>