<svg xmlns="http://www.w3.org/2000/svg" width="512" height="512" fill="none"><path fill="#F90" d="M0 0h512v512H0z"/><path fill="#DA420F" d="M84 340h344v160H84z"/><g><animateTransform attributeName="transform" dur="0.4s" keyTimes="0;0.5;1" repeatCount="indefinite" type="translate" values="0 0;0 28;0 0"/><path fill="#F15824" d="M196 176h120v296H196z"/><path fill="#DA420F" d="M196 96h120v80H196z"/><path fill="#F15824" d="M250 96h12v36h-12z"><animate attributeName="fill" begin="5s" dur="0.4s" repeatCount="5" values="#F15824; #fff; #F15824"/></path><path fill="#00892F" d="M196 136h160v16H196z"/><path fill="#FEED59" d="M196 96h40v40h-40z"/><path fill="#D22D27" d="M236 96h40v40h-40z"/><path fill="#0032B4" d="M276 96h40v40h-40z"/><path fill="#D22D27" d="M210 72h92v12h-92z"/><path fill="#121212" d="M250 72h12v24h-12z"/><path fill="#FF00B1" d="M204 179h47v48h-47v-48Z"/><path stroke="#121212" stroke-width="6" d="M204 179h47v48h-47v-48Zm0 0h-8M251 188h10"/><path fill="#FF00B1" d="M308 179h-47v48h47v-48Z"/><path stroke="#121212" stroke-width="6" d="M308 179h-47v48h47v-48Zm0 0h8"/><mask id="a" width="41" height="42" x="207" y="182" maskUnits="userSpaceOnUse" style="mask-type:alpha"><path fill="#121212" d="M207 182h41v42h-41v-42Z"/></mask><g mask="url(#a)"><path fill="#FFF" d="M215.112 182h8.77l-10.524 43.235h-8.77L215.112 182Z"><animateTransform attributeName="transform" dur="4s" keyTimes="0;0.1;0.3;1" repeatCount="indefinite" type="translate" values="-32 0;-32 0;48 0;48 0"/></path></g><mask id="b" width="41" height="42" x="264" y="182" maskUnits="userSpaceOnUse" style="mask-type:alpha"><path fill="#121212" d="M264 182h41v42h-41v-42Z"/></mask><g mask="url(#b)"><path fill="#FFF" d="M271.112 182h8.77l-10.524 43.235h-8.77L271.112 182Z"><animateTransform attributeName="transform" dur="4s" keyTimes="0;0.1;0.3;1" repeatCount="indefinite" type="translate" values="-32 0;-32 0;48 0;48 0"/></path></g><path stroke="#121212" stroke-width="6" d="M230.711 343H280"/><path fill="#D22D27" stroke="#121212" stroke-width="6" d="M279.001 343.001s88.882 65.5 94.19 68.5l12-20.501-106.19-47.999Z"/><path fill="#00FF94" stroke="#121212" stroke-width="6" d="m276.75 342.826 65.473 46.815 18.255-9.619-83.728-37.196Z"/><path fill="#00A8FF" d="m279.5 343.001 45.471 34.304 14.83-6.469-60.301-27.835Z"/><path fill="#121212" d="m324.971 377.305-1.807 2.395 1.4 1.056 1.607-.701-1.2-2.75ZM279.5 343.001l1.257-2.724a3 3 0 0 0-3.064 5.119l1.807-2.395Zm60.301 27.835 1.2 2.749 6.126-2.672-6.068-2.801-1.258 2.724Zm-13.023 4.074-45.471-34.304-3.614 4.79 45.471 34.304 3.614-4.79Zm-48.535-29.185 60.301 27.834 2.515-5.447-60.302-27.835-2.514 5.448Zm47.928 34.33 14.83-6.47-2.399-5.499-14.83 6.469 2.399 5.5Z"/><rect width="21" height="37.703" x="391.396" y="376" fill="#FFB74A" stroke="#121212" stroke-width="6" rx="10.5" transform="rotate(42.343 391.396 376)"/><path fill="#FFB74A" stroke="#121212" stroke-width="6" d="M390 404.001a9.996 9.996 0 0 1-10 10c-5.523 0-10-4.477-10-10s4.477-10 10-10 10 4.477 10 10Z"/></g></svg>