<svg xmlns="http://www.w3.org/2000/svg" viewBox="0 -0.5 50 50" shape-rendering="crispEdges">
	<title>Bitcoin Pussies #013</title>
	<desc>Bitcoin Pussies are 69 uniquely drawn and inscribed cats on Bitcoin</desc>
	<desc xmlns:meow="https://bitcoinpussies.com/">
		<meow:traits>
			<meow:Skin>White</meow:Skin>
			<meow:Eyes>Open</meow:Eyes>
			<meow:Gear>None</meow:Gear>
			<meow:Message>Treat?</meow:Message>
		</meow:traits>
	</desc>
	<path stroke="#c19cff" d="M0 0h50M0 1h50M0 2h50M0 3h50M0 4h50M0 5h50M0 6h50M0 7h50M0 8h50M0 9h50M0 10h50M0 11h50M0 12h50M0 13h50M0 14h50M0 15h16M19 15h13M35 15h15M0 16h15M21 16h9M36 16h14M0 17h15M36 17h14M0 18h15M36 18h14M0 19h15M36 19h14M0 20h15M36 20h14M0 21h15M36 21h14M0 22h16M35 22h15M0 23h15M36 23h14M0 24h15M36 24h14M0 25h15M36 25h14M0 26h15M36 26h14M0 27h15M36 27h14M0 28h16M35 28h15M0 29h16M35 29h15M0 30h17M34 30h16M0 31h16M35 31h15M0 32h16M35 32h15M0 33h15M36 33h14M0 34h15M36 34h14M0 35h15M36 35h14M0 36h13M36 36h14M0 37h13M35 37h15M0 38h13M34 38h16M0 39h19M32 39h18M0 40h50M0 41h50M0 42h50M0 43h50M0 44h50M0 45h50M0 46h50M0 47h50M0 48h50M0 49h50" />
	<path stroke="#000000" d="M16 15h3M32 15h3M15 16h1M19 16h2M30 16h2M35 16h1M15 17h1M21 17h9M35 17h1M15 18h1M19 18h2M30 18h2M35 18h1M15 19h1M18 19h1M32 19h1M35 19h1M15 20h1M17 20h1M33 20h1M35 20h1M15 21h2M34 21h2M16 22h1M34 22h1M15 23h1M20 23h2M29 23h2M35 23h1M15 24h1M20 24h2M29 24h2M35 24h1M15 25h1M35 25h1M15 26h1M23 26h1M25 26h1M27 26h1M35 26h1M15 27h1M24 27h1M26 27h1M35 27h1M16 28h1M34 28h1M16 29h1M34 29h1M17 30h2M32 30h2M16 31h1M19 31h2M30 31h2M34 31h1M16 32h1M24 32h3M34 32h1M15 33h1M35 33h1M15 34h1M35 34h1M15 35h1M35 35h1M13 36h3M35 36h1M13 37h1M16 37h1M34 37h1M13 38h6M22 38h1M24 38h1M26 38h1M28 38h1M32 38h2M19 39h13" />
	<path stroke="#ffffff" d="M16 16h3M32 16h3M16 17h1M20 17h1M30 17h1M34 17h1M16 18h1M21 18h9M34 18h1M16 19h1M19 19h13M34 19h1M16 20h1M18 20h15M34 20h1M17 21h17M17 22h3M22 22h7M31 22h3M16 23h3M23 23h5M32 23h3M16 24h3M23 24h5M32 24h3M16 25h4M22 25h7M31 25h4M16 26h2M20 26h3M24 26h1M26 26h1M28 26h3M33 26h2M16 27h8M25 27h1M27 27h8M17 28h17M17 29h17M19 30h13M17 31h2M21 31h9M32 31h2M17 32h7M27 32h7M16 33h19M16 34h19M16 35h19M16 36h19M14 37h2M17 37h17M19 38h3M23 38h1M25 38h1M27 38h1M29 38h3" />
	<path stroke="#ffcdc3" d="M17 17h3M31 17h3M17 18h2M32 18h2M17 19h1M33 19h1" />
	<path stroke="#ffd142" d="M20 22h2M29 22h2M19 23h1M22 23h1M28 23h1M31 23h1M19 24h1M22 24h1M28 24h1M31 24h1M20 25h2M29 25h2" />
	<path stroke="#ffb5a5" d="M18 26h2M31 26h2" />
</svg>