<svg xmlns="http://www.w3.org/2000/svg" viewBox="0 -0.5 50 50" shape-rendering="crispEdges">
	<title>Bitcoin Pussies #015</title>
	<desc>Bitcoin Pussies are 69 uniquely drawn and inscribed cats on Bitcoin</desc>
	<desc xmlns:meow="https://bitcoinpussies.com/">
		<meow:traits>
			<meow:Skin>White</meow:Skin>
			<meow:Eyes>Wink</meow:Eyes>
			<meow:Gear>Monocle</meow:Gear>
			<meow:Message>A touch of quantitative easing to keep the economy running smoothly makes me purrrrr while the printer brrrrr</meow:Message>
		</meow:traits>
	</desc>
	<path stroke="#785d8c" d="M0 0h50M0 1h50M0 2h50M0 3h50M0 4h50M0 5h50M0 6h50M0 7h50M0 8h50M0 9h50M0 10h50M0 11h50M0 12h50M0 13h50M0 14h50M0 15h50M0 16h50M0 17h14M20 17h1M30 17h1M37 17h13M0 18h14M37 18h13M0 19h14M37 19h13M0 20h14M37 20h13M0 21h15M36 21h14M0 22h16M35 22h15M0 23h15M36 23h14M0 24h15M36 24h14M0 25h15M36 25h14M0 26h14M37 26h13M0 27h15M36 27h14M0 28h14M37 28h13M0 29h15M36 29h14M0 30h16M35 30h15M0 31h19M33 31h1M35 31h15M0 32h20M31 32h2M34 32h16M0 33h19M32 33h18M0 34h19M32 34h18M0 35h18M33 35h17M0 36h17M33 36h17M0 37h16M33 37h17M0 38h17M32 38h18M0 39h20M31 39h19M0 40h50M0 41h50M0 42h50M0 43h50M0 44h50M0 45h50M0 46h50M0 47h50M0 48h50M0 49h50" />
	<path stroke="#000000" d="M14 17h6M21 17h9M31 17h6M14 18h1M19 18h2M30 18h2M36 18h1M14 19h1M18 19h1M32 19h1M36 19h1M14 20h1M17 20h1M33 20h1M36 20h1M15 21h2M34 21h2M16 22h1M34 22h1M15 23h1M20 23h2M35 23h1M15 24h1M20 24h2M35 24h1M15 25h1M25 25h1M35 25h1M14 26h1M24 26h1M26 26h1M36 26h1M15 27h1M35 27h1M14 28h1M36 28h1M15 29h1M35 29h1M16 30h3M32 30h2M19 31h2M30 31h2M20 32h1M30 32h1M19 33h1M31 33h1M19 34h1M31 34h1M18 35h1M32 35h1M17 36h2M32 36h1M16 37h1M18 37h1M32 37h1M17 38h3M21 38h1M23 38h1M27 38h1M29 38h1M31 38h1M20 39h11" />
	<path stroke="#ffffff" d="M15 18h4M21 18h9M32 18h4M15 19h1M19 19h13M35 19h1M15 20h1M18 20h15M35 20h1M17 21h12M32 21h2M17 22h3M22 22h6M30 22h2M33 22h1M16 23h3M23 23h4M31 23h1M34 23h1M16 24h3M23 24h4M34 24h1M16 25h4M22 25h3M26 25h2M31 25h1M33 25h2M15 26h3M20 26h4M25 26h1M27 26h2M34 26h2M16 27h18M15 28h19M35 28h1M16 29h18M19 30h13M21 31h9M21 32h9M20 33h11M20 34h11M19 35h13M19 36h13M17 37h1M19 37h13M20 38h1M22 38h1M24 38h3M28 38h1M30 38h1" />
	<path stroke="#ffa69b" d="M16 19h2M33 19h2M16 20h1M34 20h1" />
	<path stroke="#ffdd00" d="M29 21h2M28 22h1M27 23h1M27 24h1M28 25h1M29 26h3M33 26h1M34 27h1M34 28h1M34 29h1M34 30h1M32 31h1M34 31h1M33 32h1" />
	<path stroke="#ffcb34" d="M31 21h1M32 22h1M33 23h1M33 24h1M32 25h1" />
	<path stroke="#3dd587" d="M20 22h2M19 23h1M22 23h1M19 24h1M22 24h1M20 25h2" />
	<path stroke="#e4fffd" d="M29 22h1M28 23h2M32 23h1M28 24h1M30 24h1M32 24h1M29 25h2" />
	<path stroke="#2a4846" d="M30 23h1M29 24h1M31 24h1" />
	<path stroke="#ffbaa9" d="M18 26h2M32 26h1" />
</svg>