<svg xmlns="http://www.w3.org/2000/svg" viewBox="0 0 50 50"><defs><style>.cls-2{fill:#231815}.cls-3,.cls-4,.cls-5,.cls-6,.cls-7{fill:none;stroke:#231815;stroke-linecap:round}.cls-3,.cls-5{stroke-width:.43px}.cls-3,.cls-6{stroke-miterlimit:10}.cls-4{stroke-width:.23px}.cls-4,.cls-5,.cls-7{stroke-linejoin:round}.cls-6{stroke-width:.71px}.cls-7{stroke-width:.28px}</style></defs><path style="fill:#fff" d="M0 0h50v50H0z" id="_背景"/><g id="_ライン_太_"><circle class="cls-2" cx="28.55" cy="17.45" r=".4"/><path class="cls-6" d="M29.8 16.7c0 .08.33 1.23.46 1.72.03.11-.02.22-.11.29l-.35.24M29.15 19.35s-.21 1.31-1.16 2.04c-.62.47-1.48.43-2.08-.06l-1.45-1.18M23.05 32.85l1.8 6.1M25.65 39.35s3.3.9 6-2.3M31.01 38.68l.3.5M26.75 40.25s1.1 3.5 3.2 4.1M34.15 40.8c-1.42 1.81-2.78 3.36-3.43 3.55M28.65 44.65l.2 4.9M19.85 20.85l-.8 1.3M20.65 20.95s3.37.55 4.9 2.42M19.75 22.55s1.84.39 3.45.88M11.87 48.91c-.03.21-.06.42-.08.64M18.75 22.75s-1.09 2.29-2.47 6.51M25.15 21.65v.36M21.35 20.05l-.1.3M23.96 15.61c-1.18-.43-1.08 1.84-.36 2.24"/><path class="cls-6" d="M27.65 19.35s.1.3.4.45M40.09 22.63l.33-.54M40.9 23.91l.51-.17M41.26 25.43l.47.25M15.05 29.65l3.4.1M18.05 22.55s-2.4 3.1-3.3 6.4M24.45 39.65s-1.8 3.8-2.3 4.5M25.65 40.25s-2.6 5.81-3.7 7.4M12.85 30.05s-3.1.8-3.6 7.9M13.65 29.95s5.1.3 4.2 11.2M17.74 41.9l-.09 6.35M15.35 49.25s4.07-.2 5.7-1.1M7.85 40.05s-.9 3.6 0 6.1M14.95 42.95s-.7 2.66 0 5.58M8.32 46.86s2.99 1.7 6.06 2.18M9.85 38.55l7.1 2.2M8.65 40.15l6.3 2M15.62 41.9l1.03-.45M8.02 39.3l1.03-.45M19.05 30.27c.8.68 1.31 1.75 1.55 2.61.4 1.5.77 3.12.85 4.66.18 3.31 0 7.1-.23 9.9M25.95 25.05c-.65-.21-1.56.37-1.98.8-.77.8-1.29 1.81-1.64 2.85-.43 1.31-.75 2.69-.98 4.05"/><path class="cls-6" d="M25.75 24.25c-1.1-.5-2.14-.29-2.77.14-1.89 1.31-2.38 3.59-3.01 5.66M26.57 25.5c1.26 1.96 4.1 6.64 5.48 10.85M27.65 14.02s-.9 1.43-2.65 1.54M29.55 14.25s-.6 1.3-2.4 1.6M30.35 14.35s.23.9-.2 1.7M22.95 18.35s-.4.6-1.27 1M20.45 14.95c-.07.78.01 1.58.23 2.33.14.49.42.96.47 1.47M20.85 13.25l-.3.9M30.55 11.65s2.6 2.3.1 5.1M30.05 11.05c-1.12-.86-2.63-1.38-4.05-1.27-1.29.1-2.47.73-3.43 1.59-.42.37-.79.79-1.13 1.23M20.55 12.55c-.47-.34-1.09-.34-1.6-.09-.57.28-.93.8-1.15 1.38-.26.69-.3 1.41-.39 2.14-.08.57-.1 1.15-.32 1.69-.24.58-.64 1.02-1.1 1.43M19.85 14.44c-.14.07-.2.23-.24.38-.18.73-.13 1.5-.16 2.25-.06 1.31-.81 2.72-2.25 2.88-.33.04-.72.01-1.01-.15M29.8 27l-.25 1.88M33.83 27.94c-.2 1.77-.73 3.53-.92 5.3-.06.51-.14 1.05.14 1.51M29.85 22.55s-1.4 1.2-.05 3.7M34.65 22.65c1.84.57 1.72 3.5.2 4.37a2 2 0 0 1-.8.23M30.41 22.16l-.05-.66M31.31 22.16l-.05-.66M30.15 20.85c-.08-.31.03-.68.38-.75.39-.07.78.25.73.65M33.21 22.16l-.05-.66M34.11 22.16l-.05-.66M32.95 20.85c-.08-.31.03-.68.38-.75.39-.07.78.25.73.65M31.95 22.05s.3-.1.7 0M31.95 37.85l.3.5M32.35 39.05c.06.36.27.74.6.91.37.19.92.24 1.3.09.72-.29 1.29-1.06 1.22-1.89-.02-.27-.12-.55-.27-.78-.11-.15-.26-.29-.45-.34M36.18 37.88c.16.01.33-.01.47-.07.38-.16.77-.56.9-.94.24-.74 0-1.67-.67-2.15-.22-.15-.5-.26-.77-.29a.823.823 0 0 0-.55.13M33.35 35.45s.4.9.9 1.1M33.65 34.15s.7.8 1.3.9M28.45 24.15s-.7.7-1 1.2M28.67 25.19s-.52.62-.74 1.13M36.77 24.95s1.28 1.5 1.48 2.6M36.55 26.15s.7.9.9 1.8M38.95 27.9c.2.07.39.16.54.3.04.04.07.09.07.14 0 .07-.07.13-.13.16-.08.04-.17.06-.26.06M37.65 28.65c0 .16 0 .33.03.49.03.2.11.44.28.57.22.16.54.1.74-.06.13-.1.22-.24.25-.39"/></g><g id="_ライン_細_"><path class="cls-3" d="M25.4 38.4s3.59.77 5.8-2.2M8.3 41.9l5.85 1.85M14 30.7c-.45-.13-.92.07-1.29.32-.92.65-1.51 1.64-1.87 2.69-.26.77-.41 1.56-.55 2.36-.12.67-.19 1.25-.19 1.93M18.75 40.05l1.93-.4"/><circle class="cls-2" cx="19.8" cy="40.5" r=".1"/><circle class="cls-2" cx="19.9" cy="40.8" r=".1"/><circle class="cls-2" cx="19.9" cy="41.1" r=".1"/><circle class="cls-2" cx="19.9" cy="41.4" r=".1"/><circle class="cls-2" cx="19.8" cy="41.7" r=".1"/><circle class="cls-2" cx="19.4" cy="41.5" r=".1"/><circle class="cls-2" cx="19.5" cy="41.8" r=".1"/><circle class="cls-2" cx="19.3" cy="41.2" r=".1"/><circle class="cls-2" cx="19.3" cy="40.9" r=".1"/><circle class="cls-2" cx="19.4" cy="40.6" r=".1"/><circle class="cls-2" cx="19.5" cy="40.3" r=".1"/><path class="cls-7" d="M33.44 23.97c.14.13.28.29.37.46.04.07.06.16.02.23-.08.17-.34.17-.48.09"/><path class="cls-4" d="M33.34 25.09v.2"/><path class="cls-7" d="m32.85 25.52.85.08M32.8 25.8c0 .16.03.29.16.39.28.21.56-.01.64-.29M33.9 23.24s.28-.14.61.02M32.3 23.17s.27-.16.61-.03"/><circle class="cls-2" cx="32.7" cy="23.8" r=".3"/><circle class="cls-2" cx="34.2" cy="23.9" r=".3"/><path class="cls-4" d="M19.46 42.17v2.84M19.87 42.11v2.84M19.56 42.06l.18-.03M19.56 45.16l.18-.03M19.46 45.37l-.21.43.3.69M19.86 45.31l.2.38-.3.77"/></g><g id="_窓"><path class="cls-5" d="M37.8 19.1h6.9M45.5 19.6V8.2M36.9 19.6V8.2M37.4 19.9H45M37.7 18.5V8.2M38.2 8.15h2.6V5.8M44.7 18.5V8.2M41.6 5.8v2.35h2.6M44.2 11.8h-2.6V8.95h2.6M38.2 11.8h2.6V8.95h-2.6M44.2 15.45h-2.6V12.6h2.6M38.2 15.45h2.6V12.6h-2.6M41.6 18.5v-2.25h2.6M38.2 16.25h2.6v2.25M37.7 7.7s.7-2.4 3.3-2.4M44.7 7.7s-.7-2.4-3.3-2.4"/><path class="cls-5" d="M36.9 7.7s.6-3.05 4.1-3.1M45.5 7.7s-.6-3.05-4.1-3.1M5.8 8.15h2.6V5.8M9.2 5.8v2.35h2.6M5.3 7.7S6 5.3 8.6 5.3M12.3 7.7S11.6 5.3 9 5.3"/><path class="cls-5" d="M4.5 7.7s.6-3.05 4.1-3.1M13.1 7.7S12.5 4.65 9 4.6M5.4 19.1h6.9M13.1 19.6V8.2M4.5 19.6V8.2M5 19.9h7.6M5.3 18.5V8.2M12.3 18.5V8.2M11.8 11.8H9.2V8.95h2.6M5.8 11.8h2.6V8.95H5.8M11.8 15.45H9.2V12.6h2.6M5.8 15.45h2.6V12.6H5.8M9.2 18.5v-2.25h2.6M5.8 16.25h2.6v2.25"/></g></svg>