<svg xmlns="http://www.w3.org/2000/svg" width="512" height="512" fill="none"><path fill="#F90" d="M0 0h512v512H0z"/><path fill="#0097D8" d="M84 340h344v160H84z"/><path fill="#2C71A3" d="m388 407 40-32v12l-40 20ZM124 407l-40-32v12l40 20ZM124 430l-40 36v-16l40-20ZM388 430l40 36v-16l-40-20Z"/><g><animateTransform attributeName="transform" dur="0.4s" keyTimes="0;0.5;1" repeatCount="indefinite" type="translate" values="0 0;0 28;0 0"/><path fill="#00B2FF" d="M196 176h120v296H196z"/><path fill="#2C71A3" d="m227 400-31 31v-16l31-15ZM222 336l-26 8v-16l26 8ZM276 347l40 36v-16l-40-20ZM276 324l40-32v12l-40 20Z"/><path fill="#0097D8" d="M196 96h120v80H196z"/><path fill="#00B2FF" d="M250 96h12v36h-12z"><animate attributeName="fill" begin="5s" dur="0.4s" repeatCount="5" values="#00B2FF; #fff; #00B2FF"/></path><path fill="#121212" d="M316 149h12v55h-12zM184 149h12v55h-12zM184 52l144 45.024V149H184V52Z"/><path fill="#121212" d="M196 176h50.667l5.333 5.333L241 211l-45-13v-22ZM316 176h-50.667L260 181.333 271 211l45-13v-22Z"/><path fill="#121212" d="M246.666 176h18.667v8h-18.667z"/><mask id="a" width="55" height="27" x="196" y="184" maskUnits="userSpaceOnUse" style="mask-type:alpha"><path fill="#121212" d="M196 184h55l-10 27-45-13v-14Z"/></mask><g mask="url(#a)"><path fill="#FFF" d="M204.112 180h8.77l-10.524 43.235h-8.77L204.112 180Z"><animateTransform attributeName="transform" dur="4s" keyTimes="0;0.1;0.3;1" repeatCount="indefinite" type="translate" values="-32 0;-32 0;48 0;48 0"/></path></g><mask id="b" width="55" height="27" x="261" y="184" maskUnits="userSpaceOnUse" style="mask-type:alpha"><path fill="#121212" d="M316 184h-55l10 27 45-13v-14Z"/></mask><g mask="url(#b)"><path fill="#FFF" d="M269.641 180h8.77l-10.524 43.235h-8.77L269.641 180Z"><animateTransform attributeName="transform" dur="4s" keyTimes="0;0.1;0.3;1" repeatCount="indefinite" type="translate" values="-32 0;-32 0;48 0;48 0"/></path></g><path stroke="#121212" stroke-width="6" d="M246 327.391s12.823-5.38 16 0c3.153 5.341-7.5 14-7.5 14s13.132-4.082 16 1.5c3.219 6.265-12.5 13-12.5 13"/></g></svg>