<svg xmlns="http://www.w3.org/2000/svg" xmlns:xlink="http://www.w3.org/1999/xlink" width="2474" height="1394" viewBox="0 0 2474 1394">
  <defs>
    <linearGradient id="linear-gradient" x1="0.144" y1="0.408" x2="0.859" y2="0.574" gradientUnits="objectBoundingBox">
      <stop offset="0" stop-color="#ff933a"/>
      <stop offset="1" stop-color="#ff672b"/>
    </linearGradient>
  </defs>
  <g id="club" transform="translate(-14877 -775)">
    <g id="组_7026" data-name="组 7026" transform="translate(5861 -400)">
      <path id="路径_8272" data-name="路径 8272" d="M76,0H2398a76,76,0,0,1,76,76V1318a76,76,0,0,1-76,76H76a76,76,0,0,1-76-76V76A76,76,0,0,1,76,0Z" transform="translate(9016 1175)" fill="#050402"/>
      <g id="组_7040" data-name="组 7040" transform="translate(-5861.5 401.969)">
        <path id="路径_8318" data-name="路径 8318" d="M14213.269,1020.53l633.585-633.584h178.586l-812.171,812.171Z" transform="translate(701 425)" fill="#150b08"/>
        <path id="路径_8322" data-name="路径 8322" d="M15025.44,565.532l-633.585,633.584h-178.587l812.172-812.171Z" transform="translate(2289.292 929)" fill="#150b08"/>
        <path id="路径_8320" data-name="路径 8320" d="M15140.082,384.945l-925.692,925.693v104.308l1030-1030Z" transform="translate(699.879 427)" fill="#150b08"/>
        <path id="路径_8321" data-name="路径 8321" d="M14318.7,1414.946l925.693-925.693V384.945l-1030,1030Z" transform="translate(2070.341 713.171)" fill="#150b08"/>
      </g>
      <path id="减去_21" data-name="减去 21" d="M2398,1394H76a75.647,75.647,0,0,1-42.492-12.979,76.215,76.215,0,0,1-27.535-33.438A75.523,75.523,0,0,1,0,1318V76A75.649,75.649,0,0,1,12.98,33.508,76.218,76.218,0,0,1,46.417,5.973,75.522,75.522,0,0,1,76,0H2398a75.651,75.651,0,0,1,42.493,12.979,76.225,76.225,0,0,1,27.535,33.438A75.522,75.522,0,0,1,2474,76V1318a75.645,75.645,0,0,1-12.98,42.493,76.217,76.217,0,0,1-33.438,27.535A75.523,75.523,0,0,1,2398,1394ZM99,34A62.07,62.07,0,0,0,37,96V1298a62.07,62.07,0,0,0,62,62H2375a62.07,62.07,0,0,0,62-62V96a62.07,62.07,0,0,0-62-62Z" transform="translate(9016 1175)" fill="#d26834"/>
    </g>
    <path id="交叉_20" data-name="交叉 20" d="M1953.419,946c-70.421,0-104.091-45.921-104.091-102.309V577.328l74.75-22.96V681.932h148.491c70.421,0,104.092,46.183,104.092,102.31v59.449c0,56.128-33.681,102.309-104.092,102.309Zm-29.342-115.828c0,41.331,32.15,45.417,58.171,45.417h61.483c26.282-.009,58.18-4.086,58.18-45.417v-32.15c0-41.583-31.889-45.67-58.171-45.67H1924.078ZM1586.522,946c-70.421,0-104.092-45.921-104.092-102.309V681.932h74.759V830.163c0,41.331,31.889,45.417,58.171,45.417h85.217V681.932h74.759V946Zm-252.282,0V577.328l74.506-22.96V946Zm-255.946,0C982.871,946,937.2,883.49,937.2,807.463V767.149h-.009V726.836c0-76.027,45.669-138.536,141.092-138.536h200.794l-35.462,70.42H1112.992c-45.669,0-101.031,7.146-101.031,80.114v56.632c0,72.967,55.615,80.114,101.031,80.114h130.634L1279.088,946Z" transform="translate(14558 705)" fill="url(#linear-gradient)"/>
    <text id="iDclub" transform="translate(15959 2025)" fill="#ff602b" font-size="87" font-family="AlternoxBold, Alternox"><tspan x="0" y="0">iDclub</tspan></text>
  </g>
</svg>
