<svg height="320" shape-rendering="crispEdges" viewBox="0 0 320 320" width="320" xmlns="http://www.w3.org/2000/svg"><rect fill="#e1d7d5" height="100%" width="100%"/><g fill="#5a65fa"><path d="m90 210h140v10h-140z"/><path d="m90 220h140v10h-140z"/><path d="m90 230h140v10h-140z"/><path d="m90 240h140v10h-140z"/><path d="m90 250h20v10h-20z"/><path d="m120 250h110v10h-110z"/><path d="m90 260h20v10h-20z"/><path d="m120 260h110v10h-110z"/><path d="m90 270h20v10h-20z"/><path d="m120 270h110v10h-110z"/><path d="m90 280h20v10h-20z"/><path d="m120 280h110v10h-110z"/><path d="m90 290h20v10h-20z"/><path d="m120 290h110v10h-110z"/><path d="m90 300h20v10h-20z"/><path d="m120 300h110v10h-110z"/><path d="m90 310h20v10h-20z"/><path d="m120 310h110v10h-110z"/></g><path d="m140 230h10v10h-10z" fill="#c4da53"/><path d="m160 230h10v10h-10z" fill="#c4da53"/><path d="m130 250h20v10h-20z" fill="#c4da53"/><path d="m160 250h20v10h-20z" fill="#c4da53"/><path d="m130 270h20v10h-20z" fill="#c4da53"/><path d="m160 270h20v10h-20z" fill="#c4da53"/><path d="m130 290h20v10h-20z" fill="#c4da53"/><path d="m160 290h10v10h-10z" fill="#c4da53"/><path d="m140 300h10v10h-10z" fill="#c4da53"/><path d="m160 30h40v10h-40z" fill="#909b0e"/><path d="m160 40h50v10h-50z" fill="#909b0e"/><path d="m70 50h40v10h-40z" fill="#909b0e"/><path d="m160 50h50v10h-50z" fill="#909b0e"/><path d="m70 60h40v10h-40z" fill="#909b0e"/><path d="m130 60h20v10h-20z" fill="#909b0e"/><path d="m160 60h50v10h-50z" fill="#909b0e"/><path d="m70 70h40v10h-40z" fill="#909b0e"/><path d="m130 70h20v10h-20z" fill="#909b0e"/><path d="m160 70h50v10h-50z" fill="#909b0e"/><path d="m40 80h20v10h-20z" fill="#909b0e"/><path d="m70 80h40v10h-40z" fill="#909b0e"/><path d="m130 80h20v10h-20z" fill="#909b0e"/><path d="m160 80h50v10h-50z" fill="#909b0e"/><path d="m40 90h20v10h-20z" fill="#909b0e"/><path d="m70 90h40v10h-40z" fill="#909b0e"/><path d="m130 90h10v10h-10z" fill="#909b0e"/><path d="m140 90h20v10h-20z" fill="#6b7212"/><path d="m160 90h50v10h-50z" fill="#909b0e"/><path d="m230 90h20v10h-20z" fill="#909b0e"/><path d="m260 90h20v10h-20z" fill="#909b0e"/><path d="m50 100h10v10h-10z" fill="#909b0e"/><path d="m60 100h10v10h-10z" fill="#6b7212"/><path d="m70 100h40v10h-40z" fill="#909b0e"/><path d="m160 100h50v10h-50z" fill="#909b0e"/><path d="m230 100h20v10h-20z" fill="#909b0e"/><path d="m260 100h20v10h-20z" fill="#909b0e"/><path d="m70 110h40v10h-40z" fill="#909b0e"/><path d="m160 110h50v10h-50z" fill="#909b0e"/><path d="m220 110h30v10h-30z" fill="#909b0e"/><path d="m260 110h20v10h-20z" fill="#909b0e"/><path d="m80 120h30v10h-30z" fill="#909b0e"/><path d="m160 120h40v10h-40z" fill="#909b0e"/><path d="m220 120h30v10h-30z" fill="#909b0e"/><path d="m250 120h10v10h-10z" fill="#6b7212"/><path d="m260 120h10v10h-10z" fill="#909b0e"/><path d="m40 130h20v10h-20z" fill="#909b0e"/><path d="m80 130h40v10h-40z" fill="#909b0e"/><path d="m140 130h10v10h-10z" fill="#909b0e"/><path d="m160 130h40v10h-40z" fill="#909b0e"/><path d="m220 130h30v10h-30z" fill="#909b0e"/><path d="m40 140h20v10h-20z" fill="#909b0e"/><path d="m80 140h40v10h-40z" fill="#909b0e"/><path d="m140 140h10v10h-10z" fill="#909b0e"/><path d="m160 140h40v10h-40z" fill="#909b0e"/><path d="m220 140h20v10h-20z" fill="#909b0e"/><path d="m40 150h20v10h-20z" fill="#909b0e"/><path d="m80 150h40v10h-40z" fill="#909b0e"/><path d="m140 150h10v10h-10z" fill="#909b0e"/><path d="m150 150h10v10h-10z" fill="#6b7212"/><path d="m160 150h40v10h-40z" fill="#909b0e"/><path d="m220 150h20v10h-20z" fill="#909b0e"/><path d="m40 160h30v10h-30z" fill="#909b0e"/><path d="m80 160h40v10h-40z" fill="#909b0e"/><path d="m150 160h10v10h-10z" fill="#6b7212"/><path d="m160 160h40v10h-40z" fill="#909b0e"/><path d="m210 160h30v10h-30z" fill="#909b0e"/><path d="m50 170h20v10h-20z" fill="#909b0e"/><path d="m70 170h10v10h-10z" fill="#6b7212"/><path d="m80 170h40v10h-40z" fill="#909b0e"/><path d="m120 170h40v10h-40z" fill="#6b7212"/><path d="m160 170h40v10h-40z" fill="#909b0e"/><path d="m210 170h30v10h-30z" fill="#909b0e"/><path d="m60 180h10v10h-10z" fill="#909b0e"/><path d="m70 180h10v10h-10z" fill="#6b7212"/><path d="m80 180h70v10h-70z" fill="#909b0e"/><path d="m150 180h20v10h-20z" fill="#6b7212"/><path d="m170 180h30v10h-30z" fill="#909b0e"/><path d="m210 180h20v10h-20z" fill="#909b0e"/><path d="m80 190h20v10h-20z" fill="#909b0e"/><path d="m100 190h30v10h-30z"/><path d="m130 190h30v10h-30z" fill="#909b0e"/><path d="m160 190h10v10h-10z" fill="#6b7212"/><path d="m170 190h30v10h-30z" fill="#909b0e"/><path d="m200 190h10v10h-10z" fill="#6b7212"/><path d="m210 190h20v10h-20z" fill="#909b0e"/><path d="m90 200h70v10h-70z" fill="#909b0e"/><path d="m160 200h10v10h-10z" fill="#6b7212"/><path d="m170 200h30v10h-30z" fill="#909b0e"/><path d="m200 200h10v10h-10z" fill="#6b7212"/><path d="m210 200h20v10h-20z" fill="#909b0e"/><path d="m100 110h60v10h-60z" fill="#00a556"/><path d="m170 110h60v10h-60z" fill="#00a556"/><path d="m100 120h10v10h-10z" fill="#00a556"/><path d="m110 120h20v10h-20z" fill="#fff"/><path d="m130 120h20v10h-20z"/><path d="m150 120h10v10h-10z" fill="#00a556"/><path d="m170 120h10v10h-10z" fill="#00a556"/><path d="m180 120h20v10h-20z" fill="#fff"/><path d="m200 120h20v10h-20z"/><path d="m220 120h10v10h-10z" fill="#00a556"/><path d="m70 130h40v10h-40z" fill="#00a556"/><path d="m110 130h20v10h-20z" fill="#fff"/><path d="m130 130h20v10h-20z"/><path d="m150 130h30v10h-30z" fill="#00a556"/><path d="m180 130h20v10h-20z" fill="#fff"/><path d="m200 130h20v10h-20z"/><path d="m220 130h10v10h-10z" fill="#00a556"/><path d="m70 140h10v10h-10z" fill="#00a556"/><path d="m100 140h10v10h-10z" fill="#00a556"/><path d="m110 140h20v10h-20z" fill="#fff"/><path d="m130 140h20v10h-20z"/><path d="m150 140h10v10h-10z" fill="#00a556"/><path d="m170 140h10v10h-10z" fill="#00a556"/><path d="m180 140h20v10h-20z" fill="#fff"/><path d="m200 140h20v10h-20z"/><path d="m220 140h10v10h-10z" fill="#00a556"/><path d="m70 150h10v10h-10z" fill="#00a556"/><path d="m100 150h10v10h-10z" fill="#00a556"/><path d="m110 150h20v10h-20z" fill="#fff"/><path d="m130 150h20v10h-20z"/><path d="m150 150h10v10h-10z" fill="#00a556"/><path d="m170 150h10v10h-10z" fill="#00a556"/><path d="m180 150h20v10h-20z" fill="#fff"/><path d="m200 150h20v10h-20z"/><path d="m220 150h10v10h-10z" fill="#00a556"/><path d="m100 160h60v10h-60z" fill="#00a556"/><path d="m170 160h60v10h-60z" fill="#00a556"/></svg>