<svg viewBox="0 0 500 500" xmlns:xlink="http://www.w3.org/1999/xlink" height="500" width="500" xmlns="http://www.w3.org/2000/svg">
  <defs>
    <style>
      .c, .d, .e {
        fill: none;
      }

      .d {
        isolation: isolate;
      }

      .f {
        fill: #fff;
      }

      .g {
        fill: #ffd3d8;
      }

      .h, .i, .j {
        fill: #b89f99;
      }

      .k, .l {
        fill: #dcf8ea;
      }

      .m, .n {
        fill: #6092bd;
      }

      .o {
        fill: #49dbe6;
      }

      .o, .n, .l, .p, .i {
        mix-blend-mode: multiply;
      }

      .p {
        fill: #9fd7fc;
      }

      .e {
        clip-path: url(#b);
      }

      .q {
        fill: #ed7faf;
        opacity: .8;
      }

      .j {
        opacity: .3;
      }
    </style>
    <clipPath id="b">
      <rect height="500" width="500" class="c"></rect>
    </clipPath>
  </defs>
  <g class="d">
    <g data-name="レイヤー 1" id="a">
      <g class="e">
        <rect height="500" width="500" class="g"></rect>
        <polygon points="297.2 23.8 35.1 23.8 35.1 177.4 297.2 23.8" class="j"></polygon>
        <polygon points="297.2 23.8 35.1 23.8 150.4 107.5 297.2 23.8" class="h"></polygon>
        <circle r="136.9" cy="175.5" cx="238.2" class="f"></circle>
        <polygon points="382.9 23.8 220.3 23.8 220.3 119.1 382.9 23.8" class="i"></polygon>
        <g>
          <polygon points="318 338 35.1 338 35.1 500 318 338" class="m"></polygon>
          <polygon points="499.2 338 216.3 338 216.3 500 499.2 338" class="n"></polygon>
        </g>
        <polygon points="314.8 290.4 437.4 542.8 494.8 542.8 394.4 290.4 314.8 290.4" class="f"></polygon>
        <g>
          <circle r="22.8" cy="199.5" cx="461.8" class="o"></circle>
          <circle r="22.8" cy="228.4" cx="406.4" class="q"></circle>
          <circle r="22.8" cy="257.4" cx="351" class="l"></circle>
        </g>
        <g>
          <rect transform="translate(-12.7 184) rotate(-30.1)" ry="22.2" rx="22.2" height="44.4" width="145.4" y="93.5" x="263.2" class="p"></rect>
          <rect transform="translate(5.9 217.2) rotate(-30.1)" ry="22.2" rx="22.2" height="44.4" width="97.3" y="75.3" x="358.3" class="p"></rect>
          <rect transform="translate(-23.4 156) rotate(-30.1)" ry="22.2" rx="22.2" height="44.4" width="97.3" y="99.4" x="229.8" class="p"></rect>
        </g>
        <g>
          <circle r="23.2" cy="281.4" cx="14.9" class="l"></circle>
          <circle r="23.2" cy="250.8" cx="70.8" class="o"></circle>
          <circle r="23.2" cy="220.2" cx="126.7" class="q"></circle>
          <circle r="23.2" cy="189.6" cx="182.6" class="k"></circle>
        </g>
      </g>
    </g>
  </g>
</svg>