<?xml version="1.0" encoding="UTF-8"?><svg xmlns="http://www.w3.org/2000/svg" viewBox="0 0 198.3 340.15"><defs><style>.k,.l,.m,.n,.o{fill:none;stroke-miterlimit:10;}.k,.n{stroke:lime;}.p{fill:#0a0b00;}.q{isolation:isolate;}.l,.m{stroke-width:.5px;}.l,.o{stroke:#f2f2f2;}.r{opacity:.22;}.r,.s{fill:lime;}.s{opacity:.11;}.t{mix-blend-mode:soft-light;}.m{stroke:#999;}.u{fill:#999;}.v{mix-blend-mode:overlay;}.n{opacity:.78;}.w{fill:#f2f2f2;}</style></defs><g class="q"><g id="b"><g id="c"><g id="d"><rect class="w" width="198.3" height="340.15" rx="1.34" ry="1.34"/><g id="e"><path class="p" d="m6.93,333.5c-1.16,0-2.1-.87-2.1-1.95V8.6c0-1.08.94-1.95,2.1-1.95h184.44c1.16,0,2.1.87,2.1,1.95v322.95c0,1.08-.94,1.95-2.1,1.95"/></g><rect class="l" x="7.73" y="9.5" width="182.83" height="321.14" rx="1.34" ry="1.34"/><line id="f" class="o" x1="4.07" y1="297.39" x2="194.23" y2="297.39"/><path class="w" d="m44.71,309.24h.64l3.22,9.09h-.68l-1.82-5.35c-.37-1.08-.69-2.03-1.01-3.14h-.05c-.32,1.11-.64,2.06-1.01,3.14l-1.85,5.35h-.65l3.22-9.09Zm-1.75,5.44h4.09v.54h-4.09v-.54Z"/><path class="w" d="m50.25,317.12l.41-.44c.69.75,1.7,1.23,2.82,1.23,1.47,0,2.39-.74,2.39-1.81,0-1.15-.81-1.5-1.77-1.91l-1.39-.62c-.85-.35-1.99-.91-1.99-2.26s1.19-2.24,2.79-2.24c1.16,0,2.1.5,2.68,1.09l-.37.42c-.57-.56-1.34-.93-2.32-.93-1.28,0-2.14.64-2.14,1.62,0,1.06.99,1.46,1.71,1.75l1.38.62c1.09.45,2.06,1.02,2.06,2.4s-1.2,2.45-3.06,2.45c-1.39,0-2.47-.56-3.22-1.37Z"/><path class="w" d="m58.58,317.12l.41-.44c.69.75,1.7,1.23,2.82,1.23,1.47,0,2.39-.74,2.39-1.81,0-1.15-.81-1.5-1.77-1.91l-1.39-.62c-.85-.35-1.99-.91-1.99-2.26s1.19-2.24,2.79-2.24c1.16,0,2.1.5,2.68,1.09l-.37.42c-.57-.56-1.34-.93-2.32-.93-1.28,0-2.14.64-2.14,1.62,0,1.06.99,1.46,1.71,1.75l1.38.62c1.09.45,2.06,1.02,2.06,2.4s-1.2,2.45-3.06,2.45c-1.39,0-2.47-.56-3.22-1.37Z"/><path class="w" d="m67.33,317.78h2.35v-7.99h-2.35v-.55h5.34v.55h-2.35v7.99h2.35v.55h-5.34v-.55Z"/><path class="w" d="m78.01,309.24h.64l3.22,9.09h-.68l-1.82-5.35c-.37-1.08-.69-2.03-1.01-3.14h-.05c-.32,1.11-.64,2.06-1.01,3.14l-1.85,5.35h-.65l3.22-9.09Zm-1.75,5.44h4.09v.54h-4.09v-.54Z"/><path class="w" d="m83.72,309.24h.64v3.98h4.58v-3.98h.64v9.09h-.64v-4.55h-4.58v4.55h-.64v-9.09Z"/><path class="w" d="m103.03,307.98h.56v13.79h-.56v-13.79Z"/><path class="w" d="m117.56,309.24h5.41v.55h-4.77v3.44h4.01v.55h-4.01v4.01h4.91v.55h-5.55v-9.09Z"/><path class="w" d="m127.96,309.24h.64l3.22,9.09h-.68l-1.82-5.35c-.37-1.08-.69-2.03-1.01-3.14h-.05c-.32,1.11-.64,2.06-1.01,3.14l-1.85,5.35h-.65l3.22-9.09Zm-1.75,5.44h4.09v.54h-4.09v-.54Z"/><path class="w" d="m134.08,309.24h2.61c1.81,0,3.01.66,3.01,2.4s-1.19,2.51-3.01,2.51h-1.97v4.17h-.64v-9.09Zm2.44,4.38c1.62,0,2.51-.64,2.51-1.98s-.9-1.87-2.51-1.87h-1.8v3.84h1.8Zm.63.17l2.71,4.54h-.74l-2.58-4.36.61-.18Z"/><path class="w" d="m144.62,309.78h-3.18v-.55h7v.55h-3.18v8.54h-.64v-8.54Z"/><path class="w" d="m150.33,309.24h.64v3.98h4.58v-3.98h.64v9.09h-.64v-4.55h-4.58v4.55h-.64v-9.09Z"/><path class="w" d="m102.1,89.98c.62-.76,1.19-1.62,1.72-2.57.53-.95.95-1.96,1.26-3.03.31-1.07.46-2.16.46-3.25,0-1.57-.33-2.78-.98-3.63-.66-.86-1.68-1.28-3.06-1.28h-3.61c-.91,0-1.62-.23-2.13-.68-.51-.46-.77-1.16-.77-2.1v-.22h-1.47c-.18,1.02-.34,1.82-.46,2.4-.13.58-.21,1.07-.25,1.45-.04.38-.05.77-.05,1.17,0,1.42.23,2.43.68,3.03.45.6,1.12.9,1.99.9h4.81c.58,0,.96.16,1.15.46.18.31.27.72.27,1.23,0,.91-.23,1.81-.68,2.7-.46.89-1.34,2.1-2.65,3.63l-1.69,1.97,1.91,2.02,3.55-4.21Z"/><path id="g" class="o" d="m85.73,100.42s5.15,4.31,13.42,4.31,13.43-4.31,13.43-4.31c20.1,0,43.02,2.4,43.02,2.4.62,0,1.12.86,1.12,1.91,0,0,1.32,9.65,1.27,20.22-.05,10.57-1.27,24.71-1.27,24.71,0,1.15-.59,2.03-1.25,1.9,0,0-25.41-4.75-55.24-4.75s-57.33,4.76-57.33,4.76c-.67.11-1.3-.77-1.3-1.91,0,0-1.24-14.95-1.29-24.66-.05-9.71,1.29-20.27,1.29-20.27,0-1.06.5-1.91,1.12-1.91,0,0,22.91-2.4,43.01-2.4"/><circle id="h" class="o" cx="99.15" cy="81.83" r="22.95"/><path class="w" d="m105.9,139.28v-13.55c0-1.35.05-2.53.15-3.53.1-1,.22-1.87.35-2.6.13-.73.24-1.34.33-1.81v-.13h-15.8c-.68,0-1.21-.24-1.59-.71-.38-.47-.57-1.25-.57-2.34,0-.38.01-.75.04-1.1.03-.35.1-.77.2-1.26.1-.49.23-1.1.38-1.83h1.19v.44c0,.71.22,1.21.66,1.52s1,.46,1.68.46h15.27c.5,0,.85.1,1.04.31.19.21.29.59.29,1.15v2.96l-1.15.4.57,20.03c-.32.32-.68.61-1.06.86-.38.25-.82.49-1.32.73h-.66Zm-16.33,0v-11.87c0-1,.1-1.75.31-2.25.21-.5.54-.81,1.02-.93l1.41-.4.26.31.04,13.55c-.32.32-.68.61-1.06.86-.38.25-.82.49-1.32.73h-.66Z"/><path class="o" d="m98.87,232.59c28.25,0,49.08-7.42,50.8-10.9-8.65-3.2-46.67-21.62-48.82-22.61-2.15-.99-27.66-14.58-38.12-22.06-10.46-7.48-10.71-12.4-10.71-12.4,0,0,9.02-8.85,46.84-8.85h0c37.83,0,46.85,8.85,46.85,8.85,0,0-.24,4.92-10.71,12.4-10.46,7.48-35.97,21.06-38.12,22.06-2.15.99-40.18,19.41-48.82,22.61,1.72,3.48,25.46,10.9,50.8,10.9h0Z"/><polygon class="k" points="59.56 164.49 138.17 164.49 98.87 231.67 59.56 164.49"/><path class="r" d="m157.85,281.28H40.4v-57.86c8.83,18.92,108.54,19.08,117.45,0v57.86Z"/><path class="k" d="m157.97,281.28H40.53v-57.86c8.83,18.92,108.54,19.08,117.45,0v57.86Z"/><g id="i" class="t"><path class="w" d="m105.87,272.1v-13.55c0-1.35.05-2.53.15-3.53.1-1,.22-1.87.35-2.6.13-.73.24-1.34.33-1.81v-.13h-15.8c-.68,0-1.21-.24-1.59-.71-.38-.47-.57-1.25-.57-2.34,0-.38.01-.75.04-1.1.03-.35.1-.77.2-1.26.1-.49.23-1.1.38-1.83h1.19v.44c0,.71.22,1.21.66,1.52s1,.46,1.68.46h15.27c.5,0,.85.1,1.04.31.19.21.29.59.29,1.15v2.96l-1.15.4.57,20.03c-.32.32-.68.61-1.06.86-.38.25-.82.49-1.32.73h-.66Zm-16.33,0v-11.87c0-1,.1-1.75.31-2.25.21-.5.54-.81,1.02-.93l1.41-.4.26.31.04,13.55c-.32.32-.68.61-1.06.86-.38.25-.82.49-1.32.73h-.66Z"/></g><g id="j" class="v"><path class="w" d="m105.87,272.1v-13.55c0-1.35.05-2.53.15-3.53.1-1,.22-1.87.35-2.6.13-.73.24-1.34.33-1.81v-.13h-15.8c-.68,0-1.21-.24-1.59-.71-.38-.47-.57-1.25-.57-2.34,0-.38.01-.75.04-1.1.03-.35.1-.77.2-1.26.1-.49.23-1.1.38-1.83h1.19v.44c0,.71.22,1.21.66,1.52s1,.46,1.68.46h15.27c.5,0,.85.1,1.04.31.19.21.29.59.29,1.15v2.96l-1.15.4.57,20.03c-.32.32-.68.61-1.06.86-.38.25-.82.49-1.32.73h-.66Zm-16.33,0v-11.87c0-1,.1-1.75.31-2.25.21-.5.54-.81,1.02-.93l1.41-.4.26.31.04,13.55c-.32.32-.68.61-1.06.86-.38.25-.82.49-1.32.73h-.66Z"/></g><line class="n" x1="61.46" y1="198.08" x2="136.84" y2="198.08"/><polygon class="s" points="59.56 164.49 138.17 164.49 98.87 231.67 59.56 164.49"/><path class="u" d="m98.41,21.74v1.18h.42c.06,0,.09.01.12.03.02.02.03.05.03.08,0,.03-.01.06-.03.08-.02.02-.06.03-.12.03h-.94c-.05,0-.09-.01-.12-.03-.02-.02-.03-.05-.03-.08,0-.03.01-.06.03-.08.02-.02.06-.03.12-.03h.3v-2.69h-.3c-.05,0-.09-.01-.12-.03-.02-.02-.03-.05-.03-.08s.01-.06.03-.08c.02-.02.06-.03.12-.03h1.36c.28,0,.52.09.71.27.19.18.29.38.29.6,0,.16-.06.31-.18.45-.12.14-.32.26-.6.36.16.11.3.24.41.38.11.14.3.43.55.86h.17c.05,0,.09.01.12.03.02.02.03.05.03.08,0,.03-.01.06-.03.08-.02.02-.06.03-.12.03h-.3c-.28-.5-.49-.83-.65-1-.15-.17-.33-.3-.53-.4h-.72Zm0-.23h.61c.2,0,.38-.04.54-.11.16-.07.28-.16.35-.25s.11-.19.11-.3c0-.15-.08-.29-.23-.43-.15-.14-.33-.2-.55-.2h-.83v1.29Z"/><path class="u" d="m92.99,29.17h-1.48l-.3.82h.43c.05,0,.09.01.12.03.02.02.03.05.03.08,0,.03-.01.06-.03.08-.02.02-.06.03-.12.03h-.84c-.05,0-.09-.01-.12-.03-.02-.02-.03-.05-.03-.08,0-.03.01-.06.03-.08.02-.02.06-.03.12-.03h.17l1-2.69h-.67c-.05,0-.09-.01-.12-.03-.02-.02-.03-.05-.03-.08s.01-.06.03-.08c.02-.02.06-.03.12-.03h1.13l1.1,2.91h.17c.05,0,.09.01.12.03.02.02.03.05.03.08,0,.03-.01.06-.03.08-.02.02-.06.03-.12.03h-.84c-.06,0-.09-.01-.12-.03-.02-.02-.03-.05-.03-.08,0-.03.01-.06.03-.08.02-.02.06-.03.12-.03h.43l-.31-.82Zm-.09-.23l-.62-1.64h-.08l-.6,1.64h1.31Z"/><path class="u" d="m107.65,28.73c0,.3-.06.58-.18.84-.12.26-.29.46-.5.6-.21.14-.44.21-.69.21-.36,0-.68-.15-.96-.46s-.41-.7-.41-1.19.14-.88.41-1.19c.28-.31.6-.46.96-.46.25,0,.47.07.69.21.21.14.38.34.5.6.12.26.18.53.18.84Zm-.23,0c0-.37-.11-.7-.32-.99-.21-.29-.49-.44-.83-.44-.32,0-.59.14-.81.42-.22.28-.34.61-.34,1.01,0,.42.12.76.35,1.03.24.27.5.4.8.4.34,0,.61-.15.83-.44.21-.29.32-.62.32-.99Z"/><path class="u" d="m99.26,34.08v2.69h.58c.05,0,.09.01.12.03.02.02.03.05.03.08,0,.03-.01.06-.03.08-.02.02-.06.03-.12.03h-1.4c-.05,0-.09-.01-.12-.03-.02-.02-.03-.05-.03-.08,0-.03.01-.06.03-.08.02-.02.06-.03.12-.03h.58v-2.69h-.92v.78c0,.06-.01.09-.03.12-.02.02-.05.03-.08.03-.03,0-.06-.01-.08-.03-.02-.02-.03-.06-.03-.12v-1.01h2.52v1.01c0,.06-.01.09-.03.12-.02.02-.05.03-.08.03s-.06-.01-.08-.03c-.02-.02-.03-.06-.03-.12v-.78h-.92Z"/><path class="m" d="m106.28,26.44c-.74-2.52-2.78-4.48-5.33-5.11"/><path class="m" d="m100.95,35.71c2.37-.59,4.28-2.31,5.14-4.55"/><path class="m" d="m92.25,31.17c.84,2.2,2.7,3.89,4.99,4.51"/><path class="m" d="m97.49,21.48c-2.54.67-4.55,2.65-5.25,5.18"/></g></g></g></g></svg>