<svg height="320" shape-rendering="crispEdges" viewBox="0 0 320 320" width="320" xmlns="http://www.w3.org/2000/svg"><rect fill="#e1d7d5" height="100%" width="100%"/><path d="m90 210h140v10h-140z" fill="#caeff9"/><path d="m90 220h140v10h-140z" fill="#caeff9"/><path d="m90 230h140v10h-140z" fill="#caeff9"/><path d="m90 240h140v10h-140z" fill="#caeff9"/><path d="m90 250h20v10h-20z" fill="#caeff9"/><path d="m120 250h110v10h-110z" fill="#caeff9"/><path d="m90 260h20v10h-20z" fill="#caeff9"/><path d="m120 260h110v10h-110z" fill="#caeff9"/><path d="m90 270h20v10h-20z" fill="#caeff9"/><path d="m120 270h110v10h-110z" fill="#caeff9"/><path d="m90 280h20v10h-20z" fill="#caeff9"/><path d="m120 280h110v10h-110z" fill="#caeff9"/><path d="m90 290h20v10h-20z" fill="#caeff9"/><path d="m120 290h110v10h-110z" fill="#caeff9"/><path d="m90 300h20v10h-20z" fill="#caeff9"/><path d="m120 300h110v10h-110z" fill="#caeff9"/><path d="m90 310h20v10h-20z" fill="#caeff9"/><path d="m120 310h110v10h-110z" fill="#caeff9"/><g fill="#5648ed"><path d="m130 210h30v10h-30z"/><path d="m170 210h30v10h-30z"/><path d="m210 210h20v10h-20z"/><path d="m90 220h30v10h-30z"/><path d="m130 220h30v10h-30z"/><path d="m170 220h30v10h-30z"/><path d="m90 230h30v10h-30z"/><path d="m130 230h30v10h-30z"/><path d="m90 240h30v10h-30z"/><path d="m190 240h30v10h-30z"/><path d="m150 250h30v10h-30z"/><path d="m190 250h30v10h-30z"/><path d="m120 260h20v10h-20z"/><path d="m150 260h30v10h-30z"/><path d="m190 260h30v10h-30z"/><path d="m90 270h10v10h-10z"/><path d="m120 270h20v10h-20z"/><path d="m150 270h30v10h-30z"/><path d="m90 280h10v10h-10z"/><path d="m120 280h20v10h-20z"/><path d="m210 280h20v10h-20z"/><path d="m90 290h10v10h-10z"/><path d="m170 290h30v10h-30z"/><path d="m210 290h20v10h-20z"/><path d="m130 300h30v10h-30z"/><path d="m170 300h30v10h-30z"/><path d="m210 300h20v10h-20z"/><path d="m90 310h20v10h-20z"/><path d="m130 310h30v10h-30z"/><path d="m170 310h30v10h-30z"/></g><path d="m140 10h40v10h-40z" fill="#fff"/><path d="m120 20h20v10h-20z" fill="#fff"/><path d="m140 20h20v10h-20z" fill="#f9e8dd"/><path d="m160 20h40v10h-40z" fill="#fff"/><path d="m110 30h10v10h-10z" fill="#fff"/><path d="m120 30h10v10h-10z" fill="#f9e8dd"/><path d="m130 30h10v10h-10z" fill="#fff"/><path d="m140 30h20v10h-20z" fill="#f9e8dd"/><path d="m160 30h20v10h-20z" fill="#fff"/><path d="m180 30h20v10h-20z" fill="#f9e8dd"/><path d="m200 30h10v10h-10z" fill="#fff"/><path d="m100 40h120v10h-120z" fill="#fff"/><path d="m90 50h10v10h-10z" fill="#fff"/><path d="m100 50h10v10h-10z" fill="#f9e8dd"/><path d="m110 50h20v10h-20z" fill="#fff"/><path d="m130 50h10v10h-10z" fill="#f9e8dd"/><path d="m140 50h20v10h-20z" fill="#fff"/><path d="m160 50h10v10h-10z" fill="#f9e8dd"/><path d="m170 50h60v10h-60z" fill="#fff"/><path d="m90 60h10v10h-10z" fill="#fff"/><path d="m100 60h10v10h-10z" fill="#f9e8dd"/><path d="m110 60h60v10h-60z" fill="#fff"/><path d="m170 60h20v10h-20z" fill="#f9e8dd"/><path d="m190 60h20v10h-20z" fill="#fff"/><path d="m210 60h10v10h-10z" fill="#f9e8dd"/><path d="m220 60h10v10h-10z" fill="#fff"/><path d="m80 70h10v10h-10z" fill="#fff"/><path d="m90 70h10v10h-10z" fill="#f9e8dd"/><path d="m100 70h20v10h-20z" fill="#fff"/><path d="m120 70h10v10h-10z" fill="#f9e8dd"/><path d="m130 70h40v10h-40z" fill="#fff"/><path d="m170 70h20v10h-20z" fill="#f9e8dd"/><path d="m190 70h30v10h-30z" fill="#fff"/><path d="m220 70h10v10h-10z" fill="#f9e8dd"/><path d="m230 70h10v10h-10z" fill="#fff"/><path d="m80 80h10v10h-10z" fill="#fff"/><path d="m90 80h10v10h-10z" fill="#f9e8dd"/><path d="m100 80h120v10h-120z" fill="#fff"/><path d="m220 80h10v10h-10z" fill="#f9e8dd"/><path d="m230 80h10v10h-10z" fill="#fff"/><path d="m80 90h10v10h-10z" fill="#fff"/><path d="m90 90h10v10h-10z" fill="#f9e8dd"/><path d="m100 90h110v10h-110z" fill="#fff"/><path d="m210 90h10v10h-10z" fill="#f9e8dd"/><path d="m220 90h20v10h-20z" fill="#fff"/><path d="m70 100h160v10h-160z" fill="#fff"/><path d="m230 100h10v10h-10z" fill="#f9e8dd"/><path d="m240 100h10v10h-10z" fill="#fff"/><path d="m70 110h50v10h-50z" fill="#fff"/><path d="m120 110h10v10h-10z" fill="#f9e8dd"/><path d="m130 110h100v10h-100z" fill="#fff"/><path d="m230 110h10v10h-10z" fill="#f9e8dd"/><path d="m240 110h10v10h-10z" fill="#fff"/><path d="m70 120h20v10h-20z" fill="#fff"/><path d="m90 120h10v10h-10z" fill="#f9e8dd"/><path d="m100 120h100v10h-100z" fill="#fff"/><path d="m200 120h10v10h-10z" fill="#f9e8dd"/><path d="m210 120h20v10h-20z" fill="#fff"/><path d="m230 120h10v10h-10z" fill="#f9e8dd"/><path d="m240 120h10v10h-10z" fill="#fff"/><path d="m70 130h20v10h-20z" fill="#fff"/><path d="m90 130h10v10h-10z" fill="#f9e8dd"/><path d="m100 130h100v10h-100z" fill="#fff"/><path d="m200 130h10v10h-10z" fill="#f9e8dd"/><path d="m210 130h20v10h-20z" fill="#fff"/><path d="m230 130h10v10h-10z" fill="#f9e8dd"/><path d="m240 130h10v10h-10z" fill="#fff"/><path d="m70 140h180v10h-180z" fill="#fff"/><path d="m70 150h180v10h-180z" fill="#fff"/><path d="m70 160h140v10h-140z" fill="#fff"/><path d="m210 160h20v10h-20z" fill="#f9e8dd"/><path d="m230 160h20v10h-20z" fill="#fff"/><path d="m80 170h160v10h-160z" fill="#fff"/><path d="m80 180h30v10h-30z" fill="#fff"/><path d="m110 180h10v10h-10z" fill="#f9e8dd"/><path d="m120 180h80v10h-80z" fill="#fff"/><path d="m200 180h10v10h-10z" fill="#f9e8dd"/><path d="m210 180h30v10h-30z" fill="#fff"/><path d="m90 190h50v10h-50z" fill="#fff"/><path d="m140 190h20v10h-20z" fill="#eed811"/><path d="m160 190h70v10h-70z" fill="#fff"/><path d="m100 200h120v10h-120z" fill="#fff"/><path d="m120 210h50v10h-50z" fill="#fff"/><path d="m170 210h10v10h-10z" fill="#f9e8dd"/><path d="m180 210h20v10h-20z" fill="#fff"/><path d="m100 110h60v10h-60z" fill="#ffc110"/><path d="m170 110h60v10h-60z" fill="#f98f30"/><path d="m100 120h10v10h-10z" fill="#ffc110"/><path d="m110 120h20v10h-20z" fill="#fff"/><path d="m130 120h20v10h-20z"/><path d="m150 120h10v10h-10z" fill="#ffc110"/><path d="m170 120h10v10h-10z" fill="#f98f30"/><path d="m180 120h20v10h-20z" fill="#fff"/><path d="m200 120h20v10h-20z"/><path d="m220 120h10v10h-10z" fill="#f98f30"/><path d="m70 130h30v10h-30z" fill="#f98f30"/><path d="m100 130h10v10h-10z" fill="#ffc110"/><path d="m110 130h20v10h-20z" fill="#fff"/><path d="m130 130h20v10h-20z"/><path d="m150 130h10v10h-10z" fill="#ffc110"/><path d="m160 130h20v10h-20z" fill="#f98f30"/><path d="m180 130h20v10h-20z" fill="#fff"/><path d="m200 130h20v10h-20z"/><path d="m220 130h10v10h-10z" fill="#f98f30"/><path d="m70 140h10v10h-10z" fill="#f98f30"/><path d="m100 140h10v10h-10z" fill="#ffc110"/><path d="m110 140h20v10h-20z" fill="#fff"/><path d="m130 140h20v10h-20z"/><path d="m150 140h10v10h-10z" fill="#ffc110"/><path d="m170 140h10v10h-10z" fill="#f98f30"/><path d="m180 140h20v10h-20z" fill="#fff"/><path d="m200 140h20v10h-20z"/><path d="m220 140h10v10h-10z" fill="#f98f30"/><path d="m70 150h10v10h-10z" fill="#f98f30"/><path d="m100 150h10v10h-10z" fill="#ffc110"/><path d="m110 150h20v10h-20z" fill="#fff"/><path d="m130 150h20v10h-20z"/><path d="m150 150h10v10h-10z" fill="#ffc110"/><path d="m170 150h10v10h-10z" fill="#f98f30"/><path d="m180 150h20v10h-20z" fill="#fff"/><path d="m200 150h20v10h-20z"/><path d="m220 150h10v10h-10z" fill="#f98f30"/><path d="m100 160h60v10h-60z" fill="#ffc110"/><path d="m170 160h60v10h-60z" fill="#f98f30"/></svg>