<svg xmlns="http://www.w3.org/2000/svg" viewBox="0 -0.5 50 50" shape-rendering="crispEdges">
	<title>Bitcoin Pussies #044</title>
	<desc>Bitcoin Pussies are 69 uniquely drawn and inscribed cats on Bitcoin</desc>
	<desc xmlns:meow="https://bitcoinpussies.com/">
		<meow:traits>
			<meow:Skin>Orange, White</meow:Skin>
			<meow:Eyes>Wink</meow:Eyes>
			<meow:Gear>None</meow:Gear>
			<meow:Message>Meow</meow:Message>
		</meow:traits>
	</desc>
	<path stroke="#635950" d="M0 0h50M0 1h50M0 2h50M0 3h50M0 4h50M0 5h50M0 6h50M0 7h50M0 8h50M0 9h50M0 10h50M0 11h50M0 12h50M0 13h50M0 14h50M0 15h50M0 16h20M31 16h19M0 17h18M33 17h17M0 18h17M34 18h16M0 19h15M36 19h14M0 20h14M37 20h13M0 21h13M38 21h12M0 22h14M37 22h13M0 23h15M36 23h14M0 24h15M36 24h14M0 25h15M36 25h14M0 26h14M37 26h13M0 27h13M38 27h12M0 28h14M37 28h13M0 29h14M37 29h13M0 30h15M36 30h14M0 31h16M35 31h15M0 32h18M33 32h17M0 33h20M31 33h19M0 34h19M32 34h18M0 35h19M32 35h18M0 36h18M33 36h17M0 37h16M33 37h17M0 38h16M33 38h17M0 39h16M32 39h18M0 40h20M31 40h19M0 41h50M0 42h50M0 43h50M0 44h50M0 45h50M0 46h50M0 47h50M0 48h50M0 49h50" />
	<path stroke="#000000" d="M20 16h11M18 17h2M31 17h2M17 18h1M33 18h1M15 19h2M34 19h2M14 20h1M36 20h1M13 21h1M17 21h1M33 21h1M37 21h1M14 22h3M29 22h3M34 22h3M15 23h1M20 23h2M28 23h1M32 23h1M35 23h1M15 24h1M19 24h1M22 24h1M35 24h1M15 25h1M25 25h1M35 25h1M14 26h1M24 26h3M36 26h1M13 27h1M37 27h1M14 28h1M36 28h1M14 29h1M36 29h1M15 30h1M35 30h1M16 31h2M33 31h2M18 32h3M30 32h3M20 33h1M30 33h1M19 34h1M31 34h1M19 35h1M31 35h1M18 36h1M32 36h1M16 37h3M32 37h1M16 38h1M18 38h1M32 38h1M16 39h4M21 39h1M23 39h1M27 39h1M29 39h1M31 39h1M20 40h11" />
	<path stroke="#fe9800" d="M20 17h6M18 18h8M17 19h9M15 20h10M18 21h6M17 22h7M16 23h4M22 23h1M16 24h3M20 24h2M16 25h6M15 26h3M20 26h1M14 27h6M15 28h3M31 29h1M29 30h5M29 31h4M20 34h1M20 35h2M19 36h3M19 37h3M19 38h2M27 38h2M26 39h1M28 39h1" />
	<path stroke="#ffffff" d="M26 17h5M26 18h7M26 19h8M25 20h11M24 21h5M32 21h1M24 22h4M33 22h1M23 23h5M30 23h1M33 23h2M23 24h5M33 24h2M22 25h3M26 25h2M33 25h2M21 26h3M27 26h2M33 26h3M20 27h17M18 28h18M15 29h16M32 29h4M16 30h13M34 30h1M18 31h11M21 32h9M21 33h5M28 33h2M21 34h5M29 34h2M22 35h3M30 35h1M22 36h6M30 36h2M22 37h10M17 38h1M21 38h6M29 38h3M20 39h1M22 39h1M24 39h2M30 39h1" />
	<path stroke="#ffc8ca" d="M14 21h3M34 21h3" />
	<path stroke="#504b48" d="M29 21h3M28 22h1M32 22h1M28 24h1M32 24h1M28 25h1M32 25h1M29 26h2M26 33h2M26 34h3M25 35h5M28 36h2" />
	<path stroke="#d07c27" d="M29 23h1M31 23h1M29 24h3" />
	<path stroke="#f2a255" d="M29 25h3" />
	<path stroke="#ffa1a4" d="M18 26h2M31 26h2" />
</svg>