<svg xmlns="http://www.w3.org/2000/svg" viewBox="0 -0.5 50 50" shape-rendering="crispEdges">
	<title>Bitcoin Pussies #027</title>
	<desc>Bitcoin Pussies are 69 uniquely drawn and inscribed cats on Bitcoin</desc>
	<desc xmlns:meow="https://bitcoinpussies.com/">
		<meow:traits>
			<meow:Skin>Black, White</meow:Skin>
			<meow:Eyes>Wink</meow:Eyes>
			<meow:Gear>Bitcoin</meow:Gear>
			<meow:Message>The Bitcoin Pussy</meow:Message>
		</meow:traits>
	</desc>
	<path stroke="#ff8200" d="M0 0h50M0 1h50M0 2h50M0 3h50M0 4h50M0 5h50M0 6h50M0 7h50M0 8h50M0 9h23M29 9h21M0 10h22M30 10h20M0 11h21M31 11h19M0 12h20M32 12h18M0 13h20M32 13h18M0 14h20M32 14h18M0 15h20M32 15h18M0 16h20M32 16h18M0 17h18M33 17h17M0 18h17M34 18h16M0 19h15M36 19h14M0 20h14M37 20h13M0 21h13M38 21h12M0 22h14M37 22h13M0 23h15M36 23h14M0 24h15M36 24h14M0 25h15M36 25h14M0 26h14M37 26h13M0 27h13M38 27h12M0 28h14M37 28h13M0 29h14M37 29h13M0 30h15M36 30h14M0 31h16M35 31h15M0 32h18M33 32h17M0 33h20M31 33h19M0 34h19M32 34h18M0 35h13M15 35h4M32 35h18M0 36h13M16 36h2M33 36h17M0 37h13M33 37h17M0 38h14M33 38h17M0 39h15M32 39h18M0 40h20M31 40h19M0 41h50M0 42h50M0 43h50M0 44h50M0 45h50M0 46h50M0 47h50M0 48h50M0 49h50" />
	<path stroke="#000000" d="M23 9h6M22 10h1M29 10h1M21 11h1M30 11h1M20 12h1M31 12h1M20 13h1M31 13h1M20 14h1M31 14h1M20 15h1M31 15h1M20 16h1M31 16h1M18 17h4M30 17h3M17 18h1M22 18h1M29 18h1M33 18h1M15 19h2M23 19h6M34 19h2M14 20h1M36 20h1M13 21h1M17 21h1M33 21h1M37 21h1M14 22h3M29 22h3M34 22h3M15 23h1M20 23h2M28 23h1M32 23h1M35 23h1M15 24h1M19 24h1M22 24h1M35 24h1M15 25h1M25 25h1M35 25h1M14 26h1M24 26h3M36 26h1M13 27h1M37 27h1M14 28h1M36 28h1M14 29h1M36 29h1M15 30h1M35 30h1M16 31h2M33 31h2M18 32h3M30 32h3M20 33h1M30 33h1M19 34h1M31 34h1M13 35h2M19 35h1M31 35h1M13 36h1M15 36h1M18 36h1M32 36h1M13 37h1M16 37h3M32 37h1M14 38h1M18 38h1M32 38h1M15 39h5M21 39h1M23 39h1M27 39h1M29 39h1M31 39h1M20 40h11" />
	<path stroke="#ffe12c" d="M23 10h6M22 11h1M21 12h1M21 13h1M21 14h1M21 15h1M21 16h1M22 17h1" />
	<path stroke="#f7cb0d" d="M23 11h1M25 11h1M27 11h2M22 12h1M28 12h2M22 13h2M25 13h3M29 13h1M22 14h2M28 14h2M22 15h2M25 15h3M29 15h1M22 16h1M28 16h2M23 17h1M25 17h1M27 17h2" />
	<path stroke="#b47500" d="M24 11h1M26 11h1M23 12h5M24 13h1M28 13h1M24 14h4M24 15h1M28 15h1M23 16h5M24 17h1M26 17h1" />
	<path stroke="#dc9500" d="M29 11h1M30 12h1M30 13h1M30 14h1M30 15h1M30 16h1M29 17h1M23 18h6" />
	<path stroke="#2c2c2c" d="M18 18h4M30 18h3M17 19h6M29 19h5M15 20h21M18 21h15M17 22h12M32 22h2M16 23h4M22 23h6M33 23h2M16 24h3M20 24h2M23 24h6M32 24h3M16 25h9M26 25h3M32 25h3M15 26h3M20 26h4M27 26h4M33 26h3M14 27h23M15 28h21M15 29h21M16 30h19M18 31h15M21 32h9M21 33h3M27 33h3M20 34h3M28 34h3M20 35h4M27 35h4M14 36h1M19 36h6M26 36h6M14 37h2M19 37h13M15 38h3M19 38h13M24 39h3" />
	<path stroke="#ffc8ca" d="M14 21h3M34 21h3" />
	<path stroke="#d48c00" d="M29 23h1M31 23h1M29 24h3" />
	<path stroke="#ffffff" d="M30 23h1M24 33h3M23 34h5M24 35h3M25 36h1M20 39h1M22 39h1M28 39h1M30 39h1" />
	<path stroke="#f3b732" d="M29 25h3" />
	<path stroke="#ffa1a4" d="M18 26h2M31 26h2" />
</svg>