<?xml version="1.0" encoding="UTF-8"?><svg xmlns="http://www.w3.org/2000/svg" viewBox="0 0 198.43 340.12"><defs><style>.l{isolation:isolate;}.m,.n,.o,.p{fill:none;stroke-miterlimit:10;}.m,.o{stroke-width:.5px;}.m,.p{stroke:#f2f2f2;}.n{stroke:red;}.q{mix-blend-mode:hard-light;}.o{stroke:#999;}.r{fill:#999;}.s{opacity:.22;}.s,.t{fill:red;}.u{fill:#140016;}.t{opacity:.95;}.v{fill:#f2f2f2;}</style></defs><g class="l"><g id="b"><g id="c"><g id="d"><rect class="v" width="198.43" height="340.12" rx="1.34" ry="1.34"/><path class="u" d="m6.93,333.47c-1.16,0-2.1-.87-2.1-1.95V8.6c0-1.08.94-1.95,2.1-1.95h184.56c1.16,0,2.1.87,2.1,1.95v322.92c0,1.08-.94,1.95-2.1,1.95"/><rect class="m" x="7.74" y="9.5" width="182.95" height="321.11" rx="1.34" ry="1.34"/><line id="e" class="p" x1="4.39" y1="296.99" x2="194.5" y2="296.99"/><g class="q"><path class="v" d="m40.94,309.17h.64l3.21,9.07h-.68l-1.82-5.34c-.37-1.08-.69-2.03-1.01-3.13h-.06c-.32,1.11-.64,2.06-1.01,3.13l-1.85,5.34h-.65l3.21-9.07Zm-1.74,5.42h4.09v.53h-4.09v-.53Z"/><path class="v" d="m49.25,309.72h-3.18v-.55h7v.55h-3.18v8.52h-.64v-8.52Z"/><path class="v" d="m54.7,317.86l5.57-8.17h-5.1v-.54h5.87v.38l-5.59,8.16h5.67v.55h-6.44v-.38Z"/><path class="v" d="m63.53,317.7h2.35v-7.98h-2.35v-.55h5.34v.55h-2.35v7.98h2.35v.55h-5.34v-.55Z"/><path class="v" d="m72.43,309.17h.62v8.52h4.77v.55h-5.39v-9.07Z"/><path class="v" d="m79.89,314.85v-5.68h.64v5.6c0,2.33,1.07,3.05,2.29,3.05s2.32-.72,2.32-3.05v-5.6h.61v5.68c0,2.75-1.4,3.56-2.93,3.56s-2.93-.81-2.93-3.56Z"/><path class="v" d="m90.81,309.72h-3.18v-.55h7v.55h-3.18v8.52h-.64v-8.52Z"/><path class="v" d="m96.51,309.17h.64v3.97h4.58v-3.97h.64v9.07h-.64v-4.54h-4.58v4.54h-.64v-9.07Z"/><path class="v" d="m115.79,307.92h.56v13.76h-.56v-13.76Z"/><path class="v" d="m130.61,309.17h5.33v.55h-4.69v3.61h3.95v.55h-3.95v4.36h-.64v-9.07Z"/><path class="v" d="m138.33,317.7h2.35v-7.98h-2.35v-.55h5.34v.55h-2.35v7.98h2.35v.55h-5.34v-.55Z"/><path class="v" d="m146.78,309.17h2.61c1.81,0,3.01.66,3.01,2.4s-1.19,2.51-3.01,2.51h-1.97v4.16h-.64v-9.07Zm2.44,4.37c1.61,0,2.51-.64,2.51-1.97s-.9-1.86-2.51-1.86h-1.8v3.84h1.8Zm.63.16l2.71,4.53h-.74l-2.58-4.35.61-.18Z"/><path class="v" d="m155.23,309.17h5.4v.55h-4.76v3.43h4.01v.55h-4.01v4h4.9v.55h-5.54v-9.07Z"/></g><path class="p" d="m157.84,289.73H40.67v-57.73c8.81,18.88,108.29,19.04,117.18,0v57.73Z"/><path class="v" d="m106,282.49v-13.52c0-1.35.05-2.53.15-3.52.1-1,.22-1.86.35-2.6.13-.73.24-1.34.33-1.81v-.13h-15.77c-.68,0-1.2-.23-1.59-.71-.38-.47-.57-1.25-.57-2.33,0-.38.01-.75.04-1.1.03-.35.1-.77.2-1.26.1-.48.23-1.09.37-1.83h1.19v.44c0,.7.22,1.21.66,1.52.44.31,1,.46,1.67.46h15.24c.5,0,.84.1,1.04.31.19.21.29.59.29,1.15v2.95l-1.15.4.57,20c-.32.32-.68.61-1.06.86-.38.25-.82.49-1.32.73h-.66Zm-16.3,0v-11.85c0-1,.1-1.75.31-2.25.21-.5.54-.81,1.01-.93l1.41-.4.26.31.04,13.52c-.32.32-.68.61-1.06.86-.38.25-.82.49-1.32.73h-.66Z"/><path id="f" class="v" d="m106.72,153.27v-13.52c0-1.35.05-2.53.15-3.52.1-1,.22-1.86.35-2.6.13-.73.24-1.34.33-1.81v-.13h-15.77c-.68,0-1.2-.23-1.59-.71-.38-.47-.57-1.25-.57-2.33,0-.38.01-.75.04-1.1.03-.35.1-.77.2-1.26.1-.48.23-1.09.37-1.83h1.19v.44c0,.7.22,1.21.66,1.52.44.31,1,.46,1.67.46h15.24c.5,0,.84.1,1.04.31.19.21.29.59.29,1.15v2.95l-1.15.4.57,20c-.32.32-.68.61-1.06.86-.38.25-.82.49-1.32.73h-.66Zm-16.3,0v-11.85c0-1,.1-1.75.31-2.25.21-.5.54-.81,1.01-.93l1.41-.4.26.31.04,13.52c-.32.32-.68.61-1.06.86-.38.25-.82.49-1.32.73h-.66Z"/><path id="g" class="p" d="m85.81,112.31s5.14,4.31,13.4,4.31,13.4-4.31,13.4-4.31c20.06,0,42.95,2.39,42.95,2.39.62,0,1.12.85,1.12,1.91,0,0,1.32,9.63,1.27,20.19-.05,10.56-1.27,24.67-1.27,24.67,0,1.14-.59,2.03-1.25,1.9,0,0-25.37-4.74-55.15-4.74s-57.23,4.75-57.23,4.75c-.67.11-1.29-.76-1.29-1.91,0,0-1.24-14.93-1.29-24.62-.05-9.69,1.29-20.24,1.29-20.24,0-1.05.5-1.91,1.12-1.91,0,0,22.87-2.39,42.93-2.39Z"/><g id="h"><path class="v" d="m99.03,221.12l-1.14-27.07c0-.73-.09-1.24-.27-1.53-.18-.29-.58-.44-1.2-.44h-3.6c-.87,0-1.54-.3-1.99-.9-.46-.6-.68-1.61-.68-3.03,0-.4.02-.81.05-1.23.04-.42.12-.93.24-1.53.13-.6.28-1.35.46-2.26h1.47v.16c0,.87.24,1.56.74,2.07.49.51,1.21.76,2.15.76h3.11c.94,0,1.6.23,1.96.68.36.46.56,1.26.6,2.43l-1.59,31.49"/><path class="p" d="m99.21,242.41c28.2,0,49-6.15,50.72-9.62-8.63-3.2-46.59-21.58-48.74-22.58-2.15-.99-27.61-14.56-38.05-22.02-10.44-7.47-10.69-12.38-10.69-12.38,0,0,9.01-8.83,46.77-8.83h0c37.76,0,46.77,8.83,46.77,8.83,0,0-.24,4.91-10.69,12.38s-35.91,21.03-38.05,22.02-40.11,19.38-48.74,22.58c1.72,3.47,25.42,9.62,50.72,9.62h0Z"/></g><circle id="i" class="t" cx="99.21" cy="93.13" r="22.91"/><path id="j" class="u" d="m98.65,103.78l-1.91-2.02,1.69-1.96c1.31-1.53,2.19-2.73,2.64-3.63.45-.89.68-1.79.68-2.7,0-.51-.09-.92-.27-1.23-.18-.31-.56-.46-1.14-.46h-4.8c-.87,0-1.54-.3-1.99-.9-.46-.6-.68-1.61-.68-3.03,0-.4.02-.79.05-1.17.04-.38.12-.86.25-1.44.13-.58.28-1.38.46-2.4h1.47v.22c0,.95.25,1.65.76,2.1.51.45,1.22.68,2.13.68h3.6c1.38,0,2.4.43,3.05,1.28.65.85.98,2.06.98,3.63,0,1.09-.16,2.17-.46,3.24-.31,1.07-.73,2.08-1.25,3.03-.53.95-1.1,1.8-1.72,2.56l-3.54,4.2Z"/><path id="k" class="n" d="m99.21,70.24c-12.64,0-22.92,10.25-22.9,22.9.03,12.58,10.28,22.83,22.9,22.9,12.64.06,22.9-10.25,22.9-22.9s-10.25-22.9-22.9-22.9"/><path class="n" d="m85.81,111.68s2.3,1.91,6.28,3.19h1.67c-10.03-2.44-17.48-11.47-17.48-22.26,0-2.4.37-4.72,1.06-6.9,2.89-9.34,11.6-16.12,21.89-16.12,12.65,0,22.91,10.26,22.91,22.91,0,2.4-.37,4.72-1.06,6.9-2.37,7.64-8.63,13.57-16.46,15.47h1.73c3.98-1.28,6.28-3.19,6.28-3.19,10.02,0,20.75.6,28.98,1.2l-42.39-72.45-42.39,72.45c8.23-.6,18.96-1.2,28.99-1.2Z"/><path class="s" d="m85.81,111.68s2.3,1.91,6.28,3.19h1.67c-10.03-2.44-17.48-11.47-17.48-22.26,0-2.4.37-4.72,1.06-6.9,2.89-9.34,11.6-16.12,21.89-16.12,12.65,0,22.91,10.26,22.91,22.91,0,2.4-.37,4.72-1.06,6.9-2.37,7.64-8.63,13.57-16.46,15.47h1.73c3.98-1.28,6.28-3.19,6.28-3.19,10.02,0,20.75.6,28.98,1.2l-42.39-72.45-42.39,72.45c8.23-.6,18.96-1.2,28.99-1.2Z"/><path class="r" d="m98.47,21.74v1.18h.42c.06,0,.09.01.12.03.02.02.03.05.03.08,0,.03-.01.06-.03.08-.02.02-.06.03-.12.03h-.94c-.05,0-.09-.01-.12-.03-.02-.02-.03-.05-.03-.08,0-.03.01-.06.03-.08.02-.02.06-.03.12-.03h.3v-2.69h-.3c-.05,0-.09-.01-.12-.03-.02-.02-.03-.05-.03-.08s.01-.06.03-.08c.02-.02.06-.03.12-.03h1.36c.28,0,.52.09.71.27.19.18.29.38.29.6,0,.16-.06.31-.18.45-.12.14-.32.26-.6.36.16.11.3.24.41.38.11.14.3.43.55.86h.17c.05,0,.09.01.12.03.02.02.03.05.03.08,0,.03-.01.06-.03.08-.02.02-.06.03-.12.03h-.3c-.28-.5-.49-.83-.65-1-.15-.17-.33-.3-.53-.4h-.72Zm0-.23h.61c.2,0,.38-.04.54-.11.16-.07.28-.16.35-.25s.11-.19.11-.3c0-.15-.08-.29-.23-.43-.15-.14-.33-.2-.55-.2h-.83v1.29Z"/><path class="r" d="m93.05,29.17h-1.48l-.3.82h.43c.05,0,.09.01.12.03.02.02.03.05.03.08,0,.03-.01.06-.03.08-.02.02-.06.03-.12.03h-.84c-.05,0-.09-.01-.12-.03-.02-.02-.03-.05-.03-.08,0-.03.01-.06.03-.08.02-.02.06-.03.12-.03h.17l1-2.69h-.67c-.05,0-.09-.01-.12-.03-.02-.02-.03-.05-.03-.08s.01-.06.03-.08c.02-.02.06-.03.12-.03h1.13l1.1,2.91h.17c.05,0,.09.01.12.03.02.02.03.05.03.08,0,.03-.01.06-.03.08-.02.02-.06.03-.12.03h-.84c-.06,0-.09-.01-.12-.03-.02-.02-.03-.05-.03-.08,0-.03.01-.06.03-.08.02-.02.06-.03.12-.03h.43l-.31-.82Zm-.09-.23l-.62-1.64h-.08l-.6,1.64h1.31Z"/><path class="r" d="m107.71,28.73c0,.3-.06.58-.18.84-.12.26-.29.46-.5.6-.21.14-.44.21-.69.21-.36,0-.68-.15-.96-.46s-.41-.7-.41-1.19.14-.88.41-1.19c.28-.31.6-.46.96-.46.25,0,.47.07.69.21.21.14.38.34.5.6.12.26.18.53.18.84Zm-.23,0c0-.37-.11-.7-.32-.99-.21-.29-.49-.44-.83-.44-.32,0-.59.14-.81.42-.22.28-.34.61-.34,1.01,0,.42.12.76.35,1.03.24.27.5.4.8.4.34,0,.61-.15.83-.44.21-.29.32-.62.32-.99Z"/><path class="r" d="m99.31,34.08v2.69h.58c.05,0,.09.01.12.03.02.02.03.05.03.08,0,.03-.01.06-.03.08-.02.02-.06.03-.12.03h-1.4c-.05,0-.09-.01-.12-.03-.02-.02-.03-.05-.03-.08,0-.03.01-.06.03-.08.02-.02.06-.03.12-.03h.58v-2.69h-.92v.78c0,.06-.01.09-.03.12-.02.02-.05.03-.08.03-.03,0-.06-.01-.08-.03-.02-.02-.03-.06-.03-.12v-1.01h2.52v1.01c0,.06-.01.09-.03.12-.02.02-.05.03-.08.03s-.06-.01-.08-.03c-.02-.02-.03-.06-.03-.12v-.78h-.92Z"/><path class="o" d="m106.34,26.44c-.74-2.52-2.78-4.48-5.33-5.11"/><path class="o" d="m101.01,35.71c2.37-.59,4.28-2.31,5.14-4.55"/><path class="o" d="m92.31,31.17c.84,2.2,2.7,3.89,4.99,4.51"/><path class="o" d="m97.54,21.48c-2.54.67-4.55,2.65-5.25,5.18"/></g></g></g></g></svg>