<svg height="320" shape-rendering="crispEdges" viewBox="0 0 320 320" width="320" xmlns="http://www.w3.org/2000/svg"><rect fill="#d5d7e1" height="100%" width="100%"/><g fill="#5a65fa"><path d="m90 210h140v10h-140z"/><path d="m90 220h140v10h-140z"/><path d="m90 230h140v10h-140z"/><path d="m90 240h140v10h-140z"/><path d="m90 250h20v10h-20z"/><path d="m120 250h110v10h-110z"/><path d="m90 260h20v10h-20z"/><path d="m120 260h110v10h-110z"/><path d="m90 270h20v10h-20z"/><path d="m120 270h110v10h-110z"/><path d="m90 280h20v10h-20z"/><path d="m120 280h110v10h-110z"/><path d="m90 290h20v10h-20z"/><path d="m120 290h110v10h-110z"/><path d="m90 300h20v10h-20z"/><path d="m120 300h110v10h-110z"/><path d="m90 310h20v10h-20z"/><path d="m120 310h110v10h-110z"/></g><path d="m140 230h10v10h-10z" fill="#ffc110"/><path d="m150 230h10v10h-10z" fill="#b87b11"/><path d="m160 230h10v10h-10z" fill="#ffc110"/><path d="m170 230h10v10h-10z" fill="#b87b11"/><path d="m180 230h10v10h-10z" fill="#ffc110"/><path d="m140 240h10v10h-10z" fill="#ffc110"/><path d="m150 240h10v10h-10z" fill="#b87b11"/><path d="m160 240h10v10h-10z" fill="#ffc110"/><path d="m170 240h10v10h-10z" fill="#b87b11"/><path d="m180 240h10v10h-10z" fill="#ffc110"/><path d="m140 250h50v10h-50z" fill="#e11833"/><path d="m140 260h10v10h-10z" fill="#e11833"/><path d="m150 260h30v10h-30z" fill="#ffc110"/><path d="m180 260h10v10h-10z" fill="#e11833"/><path d="m140 270h10v10h-10z" fill="#e11833"/><path d="m150 270h20v10h-20z" fill="#ffc110"/><path d="m170 270h20v10h-20z" fill="#e11833"/><path d="m140 280h10v10h-10z" fill="#e11833"/><path d="m150 280h10v10h-10z" fill="#ffc110"/><path d="m160 280h30v10h-30z" fill="#e11833"/><path d="m140 290h50v10h-50z" fill="#e11833"/><path d="m90 90h30v10h-30z" fill="#ff638d"/><path d="m90 100h10v10h-10z" fill="#ff638d"/><path d="m100 100h10v10h-10z" fill="#e9265c"/><path d="m110 100h60v10h-60z" fill="#ff638d"/><path d="m90 110h30v10h-30z" fill="#ff638d"/><path d="m120 110h10v10h-10z" fill="#e9265c"/><path d="m130 110h60v10h-60z" fill="#ff638d"/><path d="m80 120h50v10h-50z" fill="#ff638d"/><path d="m130 120h10v10h-10z" fill="#e9265c"/><path d="m140 120h20v10h-20z" fill="#ff638d"/><path d="m160 120h10v10h-10z" fill="#e9265c"/><path d="m170 120h40v10h-40z" fill="#ff638d"/><path d="m80 130h90v10h-90z" fill="#ff638d"/><path d="m170 130h10v10h-10z" fill="#e9265c"/><path d="m180 130h60v10h-60z" fill="#ff638d"/><path d="m80 140h20v10h-20z" fill="#ff638d"/><path d="m100 140h10v10h-10z" fill="#e9265c"/><path d="m110 140h30v10h-30z" fill="#ff638d"/><path d="m140 140h10v10h-10z" fill="#e9265c"/><path d="m150 140h60v10h-60z" fill="#ff638d"/><path d="m210 140h10v10h-10z" fill="#e9265c"/><path d="m220 140h30v10h-30z" fill="#ff638d"/><path d="m70 150h20v10h-20z" fill="#ff638d"/><path d="m90 150h20v10h-20z" fill="#e9265c"/><path d="m110 150h30v10h-30z" fill="#ff638d"/><path d="m140 150h10v10h-10z" fill="#e9265c"/><path d="m150 150h30v10h-30z" fill="#ff638d"/><path d="m180 150h20v10h-20z" fill="#e9265c"/><path d="m200 150h10v10h-10z" fill="#ff638d"/><path d="m210 150h30v10h-30z" fill="#e9265c"/><path d="m240 150h10v10h-10z" fill="#ff638d"/><path d="m70 160h20v10h-20z" fill="#ff638d"/><path d="m90 160h150v10h-150z" fill="#e9265c"/><path d="m240 160h20v10h-20z" fill="#ff638d"/><path d="m60 170h20v10h-20z" fill="#ff638d"/><path d="m80 170h170v10h-170z" fill="#e9265c"/><path d="m250 170h10v10h-10z" fill="#ff638d"/><path d="m60 180h10v10h-10z" fill="#ff638d"/><path d="m70 180h30v10h-30z" fill="#e9265c"/><path d="m100 180h40v10h-40z" fill="#d6c3be"/><path d="m140 180h10v10h-10z" fill="#e9265c"/><path d="m150 180h40v10h-40z" fill="#d6c3be"/><path d="m190 180h10v10h-10z" fill="#e9265c"/><path d="m200 180h40v10h-40z" fill="#d6c3be"/><path d="m240 180h10v10h-10z" fill="#e9265c"/><path d="m250 180h20v10h-20z" fill="#ff638d"/><path d="m270 180h20v10h-20z" fill="#d6c3be"/><path d="m50 190h20v10h-20z" fill="#ff638d"/><path d="m70 190h20v10h-20z" fill="#e9265c"/><path d="m90 190h10v10h-10z" fill="#ff638d"/><path d="m100 190h10v10h-10z" fill="#d6c3be"/><path d="m110 190h10v10h-10z" fill="#ff638d"/><path d="m120 190h10v10h-10z" fill="#e9265c"/><path d="m130 190h10v10h-10z" fill="#d6c3be"/><path d="m140 190h10v10h-10z" fill="#e9265c"/><path d="m150 190h10v10h-10z" fill="#d6c3be"/><path d="m160 190h20v10h-20z" fill="#e9265c"/><path d="m180 190h10v10h-10z" fill="#d6c3be"/><path d="m190 190h10v10h-10z" fill="#e9265c"/><path d="m200 190h10v10h-10z" fill="#d6c3be"/><path d="m210 190h10v10h-10z" fill="#e9265c"/><path d="m220 190h10v10h-10z" fill="#ff638d"/><path d="m230 190h10v10h-10z" fill="#d6c3be"/><path d="m240 190h30v10h-30z" fill="#ff638d"/><path d="m280 190h10v10h-10z" fill="#d6c3be"/><path d="m50 200h50v10h-50z" fill="#ff638d"/><path d="m100 200h10v10h-10z" fill="#d6c3be"/><path d="m110 200h20v10h-20z" fill="#ff638d"/><path d="m130 200h30v10h-30z" fill="#d6c3be"/><path d="m160 200h20v10h-20z" fill="#ff638d"/><path d="m180 200h30v10h-30z" fill="#d6c3be"/><path d="m210 200h20v10h-20z" fill="#ff638d"/><path d="m230 200h60v10h-60z" fill="#d6c3be"/><path d="m80 210h30v10h-30z" fill="#d6c3be"/><path d="m100 110h60v10h-60z" fill="#068940"/><path d="m170 110h60v10h-60z" fill="#257ced"/><path d="m100 120h10v10h-10z" fill="#068940"/><path d="m110 120h20v10h-20z" fill="#fff"/><path d="m130 120h20v10h-20z"/><path d="m150 120h10v10h-10z" fill="#068940"/><path d="m170 120h10v10h-10z" fill="#257ced"/><path d="m180 120h20v10h-20z" fill="#fff"/><path d="m200 120h20v10h-20z"/><path d="m220 120h10v10h-10z" fill="#257ced"/><path d="m70 130h30v10h-30z" fill="#257ced"/><path d="m100 130h10v10h-10z" fill="#068940"/><path d="m110 130h20v10h-20z" fill="#fff"/><path d="m130 130h20v10h-20z"/><path d="m150 130h10v10h-10z" fill="#068940"/><path d="m160 130h20v10h-20z" fill="#257ced"/><path d="m180 130h20v10h-20z" fill="#fff"/><path d="m200 130h20v10h-20z"/><path d="m220 130h10v10h-10z" fill="#257ced"/><path d="m70 140h10v10h-10z" fill="#257ced"/><path d="m100 140h10v10h-10z" fill="#068940"/><path d="m110 140h20v10h-20z" fill="#fff"/><path d="m130 140h20v10h-20z"/><path d="m150 140h10v10h-10z" fill="#068940"/><path d="m170 140h10v10h-10z" fill="#257ced"/><path d="m180 140h20v10h-20z" fill="#fff"/><path d="m200 140h20v10h-20z"/><path d="m220 140h10v10h-10z" fill="#257ced"/><path d="m70 150h10v10h-10z" fill="#257ced"/><path d="m100 150h10v10h-10z" fill="#068940"/><path d="m110 150h20v10h-20z" fill="#fff"/><path d="m130 150h20v10h-20z"/><path d="m150 150h10v10h-10z" fill="#068940"/><path d="m170 150h10v10h-10z" fill="#257ced"/><path d="m180 150h20v10h-20z" fill="#fff"/><path d="m200 150h20v10h-20z"/><path d="m220 150h10v10h-10z" fill="#257ced"/><path d="m100 160h60v10h-60z" fill="#068940"/><path d="m170 160h60v10h-60z" fill="#257ced"/></svg>