<svg height="320" shape-rendering="crispEdges" viewBox="0 0 320 320" width="320" xmlns="http://www.w3.org/2000/svg"><rect fill="#e1d7d5" height="100%" width="100%"/><g fill="#5a423f"><path d="m90 210h140v10h-140z"/><path d="m90 220h140v10h-140z"/><path d="m90 230h140v10h-140z"/><path d="m90 240h140v10h-140z"/><path d="m90 250h20v10h-20z"/><path d="m120 250h110v10h-110z"/><path d="m90 260h20v10h-20z"/><path d="m120 260h110v10h-110z"/><path d="m90 270h20v10h-20z"/><path d="m120 270h110v10h-110z"/><path d="m90 280h20v10h-20z"/><path d="m120 280h110v10h-110z"/><path d="m90 290h20v10h-20z"/><path d="m120 290h110v10h-110z"/><path d="m90 300h20v10h-20z"/><path d="m120 300h110v10h-110z"/><path d="m90 310h20v10h-20z"/><path d="m120 310h110v10h-110z"/></g><path d="m90 210h140v10h-140z" fill="#505a5c"/><path d="m90 220h20v10h-20z" fill="#ff1a0b"/><path d="m110 220h60v10h-60z" fill="#505a5c"/><path d="m170 220h30v10h-30z" fill="#ff1a0b"/><path d="m200 220h30v10h-30z" fill="#505a5c"/><path d="m90 230h20v10h-20z" fill="#f78a18"/><path d="m110 230h110v10h-110z" fill="#505a5c"/><path d="m220 230h10v10h-10z" fill="#f78a18"/><path d="m90 240h10v10h-10z" fill="#f78a18"/><path d="m100 240h90v10h-90z" fill="#505a5c"/><path d="m190 240h10v10h-10z" fill="#f78a18"/><path d="m200 240h20v10h-20z" fill="#505a5c"/><path d="m220 240h10v10h-10z" fill="#f78a18"/><path d="m90 250h20v10h-20z" fill="#505a5c"/><path d="m120 250h10v10h-10z" fill="#505a5c"/><path d="m130 250h10v10h-10z" fill="#fff449"/><path d="m140 250h30v10h-30z" fill="#505a5c"/><path d="m170 250h20v10h-20z" fill="#fff449"/><path d="m190 250h40v10h-40z" fill="#505a5c"/><path d="m90 260h20v10h-20z" fill="#505a5c"/><path d="m120 260h80v10h-80z" fill="#505a5c"/><path d="m200 260h30v10h-30z" fill="#fff449"/><path d="m90 270h10v10h-10z" fill="#505a5c"/><path d="m100 270h10v10h-10z" fill="#068940"/><path d="m120 270h10v10h-10z" fill="#505a5c"/><path d="m130 270h20v10h-20z" fill="#068940"/><path d="m150 270h30v10h-30z" fill="#505a5c"/><path d="m180 270h50v10h-50z" fill="#068940"/><path d="m90 280h20v10h-20z" fill="#068940"/><path d="m120 280h80v10h-80z" fill="#505a5c"/><path d="m200 280h30v10h-30z" fill="#068940"/><path d="m90 290h20v10h-20z" fill="#2b83f6"/><path d="m120 290h10v10h-10z" fill="#505a5c"/><path d="m130 290h40v10h-40z" fill="#2b83f6"/><path d="m170 290h20v10h-20z" fill="#505a5c"/><path d="m190 290h10v10h-10z" fill="#2b83f6"/><path d="m200 290h20v10h-20z" fill="#505a5c"/><path d="m220 290h10v10h-10z" fill="#2b83f6"/><path d="m90 300h10v10h-10z" fill="#2b83f6"/><path d="m100 300h10v10h-10z" fill="#505a5c"/><path d="m120 300h110v10h-110z" fill="#505a5c"/><path d="m90 310h20v10h-20z" fill="#9f21a0"/><path d="m120 310h110v10h-110z" fill="#505a5c"/><path d="m90 30h50v10h-50z" fill="#34ac80"/><path d="m80 40h50v10h-50z" fill="#34ac80"/><path d="m130 40h20v10h-20z" fill="#f3322c"/><path d="m70 50h50v10h-50z" fill="#34ac80"/><path d="m120 50h10v10h-10z" fill="#f3322c"/><path d="m130 50h10v10h-10z" fill="#d22209"/><path d="m140 50h20v10h-20z" fill="#f3322c"/><path d="m70 60h40v10h-40z" fill="#34ac80"/><path d="m110 60h20v10h-20z" fill="#f3322c"/><path d="m130 60h10v10h-10z"/><path d="m140 60h30v10h-30z" fill="#f3322c"/><path d="m60 70h40v10h-40z" fill="#34ac80"/><path d="m100 70h80v10h-80z" fill="#f3322c"/><path d="m60 80h30v10h-30z" fill="#34ac80"/><path d="m90 80h60v10h-60z" fill="#f3322c"/><path d="m150 80h10v10h-10z"/><path d="m160 80h10v10h-10z" fill="#d22209"/><path d="m170 80h20v10h-20z" fill="#f3322c"/><path d="m50 90h40v10h-40z" fill="#34ac80"/><path d="m90 90h20v10h-20z" fill="#f3322c"/><path d="m110 90h10v10h-10z"/><path d="m120 90h10v10h-10z" fill="#d22209"/><path d="m130 90h70v10h-70z" fill="#f3322c"/><path d="m50 100h30v10h-30z" fill="#34ac80"/><path d="m80 100h130v10h-130z" fill="#f3322c"/><path d="m50 110h30v10h-30z" fill="#34ac80"/><path d="m80 110h140v10h-140z" fill="#f3322c"/><path d="m50 120h30v10h-30z" fill="#34ac80"/><path d="m80 120h150v10h-150z" fill="#f3322c"/><path d="m50 130h30v10h-30z" fill="#34ac80"/><path d="m80 130h160v10h-160z" fill="#f3322c"/><path d="m50 140h30v10h-30z" fill="#34ac80"/><path d="m80 140h170v10h-170z" fill="#f3322c"/><path d="m60 150h20v10h-20z" fill="#34ac80"/><path d="m80 150h180v10h-180z" fill="#f3322c"/><path d="m60 160h30v10h-30z" fill="#34ac80"/><path d="m90 160h170v10h-170z" fill="#f3322c"/><path d="m260 160h10v10h-10z" fill="#34ac80"/><path d="m70 170h20v10h-20z" fill="#34ac80"/><path d="m90 170h160v10h-160z" fill="#f3322c"/><path d="m250 170h10v10h-10z" fill="#34ac80"/><path d="m80 180h20v10h-20z" fill="#34ac80"/><path d="m100 180h40v10h-40z" fill="#f3322c"/><path d="m140 180h10v10h-10z"/><path d="m150 180h10v10h-10z" fill="#d22209"/><path d="m160 180h10v10h-10z"/><path d="m170 180h10v10h-10z" fill="#d22209"/><path d="m180 180h60v10h-60z" fill="#f3322c"/><path d="m240 180h10v10h-10z" fill="#34ac80"/><path d="m90 190h30v10h-30z" fill="#34ac80"/><path d="m120 190h100v10h-100z" fill="#f3322c"/><path d="m220 190h20v10h-20z" fill="#34ac80"/><path d="m100 200h40v10h-40z" fill="#34ac80"/><path d="m140 200h60v10h-60z" fill="#f3322c"/><path d="m200 200h20v10h-20z" fill="#34ac80"/><path d="m130 210h70v10h-70z" fill="#34ac80"/><path d="m100 110h60v10h-60z" fill="#8dd122"/><path d="m170 110h60v10h-60z" fill="#8dd122"/><path d="m100 120h10v10h-10z" fill="#8dd122"/><path d="m110 120h20v10h-20z" fill="#fff"/><path d="m130 120h20v10h-20z"/><path d="m150 120h10v10h-10z" fill="#8dd122"/><path d="m170 120h10v10h-10z" fill="#8dd122"/><path d="m180 120h20v10h-20z" fill="#fff"/><path d="m200 120h20v10h-20z"/><path d="m220 120h10v10h-10z" fill="#8dd122"/><path d="m70 130h40v10h-40z" fill="#8dd122"/><path d="m110 130h20v10h-20z" fill="#fff"/><path d="m130 130h20v10h-20z"/><path d="m150 130h30v10h-30z" fill="#8dd122"/><path d="m180 130h20v10h-20z" fill="#fff"/><path d="m200 130h20v10h-20z"/><path d="m220 130h10v10h-10z" fill="#8dd122"/><path d="m70 140h10v10h-10z" fill="#8dd122"/><path d="m100 140h10v10h-10z" fill="#8dd122"/><path d="m110 140h20v10h-20z" fill="#fff"/><path d="m130 140h20v10h-20z"/><path d="m150 140h10v10h-10z" fill="#8dd122"/><path d="m170 140h10v10h-10z" fill="#8dd122"/><path d="m180 140h20v10h-20z" fill="#fff"/><path d="m200 140h20v10h-20z"/><path d="m220 140h10v10h-10z" fill="#8dd122"/><path d="m70 150h10v10h-10z" fill="#8dd122"/><path d="m100 150h10v10h-10z" fill="#8dd122"/><path d="m110 150h20v10h-20z" fill="#fff"/><path d="m130 150h20v10h-20z"/><path d="m150 150h10v10h-10z" fill="#8dd122"/><path d="m170 150h10v10h-10z" fill="#8dd122"/><path d="m180 150h20v10h-20z" fill="#fff"/><path d="m200 150h20v10h-20z"/><path d="m220 150h10v10h-10z" fill="#8dd122"/><path d="m100 160h60v10h-60z" fill="#8dd122"/><path d="m170 160h60v10h-60z" fill="#8dd122"/></svg>