<svg height="320" shape-rendering="crispEdges" viewBox="0 0 320 320" width="320" xmlns="http://www.w3.org/2000/svg"><rect fill="#e1d7d5" height="100%" width="100%"/><g fill="#e9265c"><path d="m90 210h140v10h-140z"/><path d="m90 220h140v10h-140z"/><path d="m90 230h140v10h-140z"/><path d="m90 240h140v10h-140z"/><path d="m90 250h20v10h-20z"/><path d="m120 250h110v10h-110z"/><path d="m90 260h20v10h-20z"/><path d="m120 260h110v10h-110z"/><path d="m90 270h20v10h-20z"/><path d="m120 270h110v10h-110z"/><path d="m90 280h20v10h-20z"/><path d="m120 280h110v10h-110z"/><path d="m90 290h20v10h-20z"/><path d="m120 290h110v10h-110z"/><path d="m90 300h20v10h-20z"/><path d="m120 300h110v10h-110z"/><path d="m90 310h20v10h-20z"/><path d="m120 310h110v10h-110z"/></g><path d="m90 210h140v10h-140z" fill="#ffc925"/><path d="m90 220h140v10h-140z" fill="#ffc925"/><path d="m90 230h140v10h-140z" fill="#ffc925"/><path d="m90 240h140v10h-140z" fill="#ffae1a"/><path d="m90 250h20v10h-20z" fill="#f78a18"/><path d="m120 250h110v10h-110z" fill="#f78a18"/><path d="m90 260h20v10h-20z" fill="#fe500c"/><path d="m120 260h110v10h-110z" fill="#fe500c"/><path d="m90 270h20v10h-20z" fill="#d9391f"/><path d="m120 270h110v10h-110z" fill="#d9391f"/><path d="m90 280h20v10h-20z" fill="#d9391f"/><path d="m120 280h110v10h-110z" fill="#d9391f"/><path d="m90 290h20v10h-20z" fill="#bd2d24"/><path d="m120 290h110v10h-110z" fill="#bd2d24"/><path d="m90 300h20v10h-20z" fill="#bd2d24"/><path d="m120 300h110v10h-110z" fill="#bd2d24"/><path d="m90 310h20v10h-20z" fill="#bd2d24"/><path d="m120 310h110v10h-110z" fill="#bd2d24"/><path d="m150 30h20v10h-20z" fill="#f3322c"/><path d="m150 40h20v10h-20z" fill="#f3322c"/><path d="m140 50h40v10h-40z" fill="#f3322c"/><path d="m140 60h40v10h-40z" fill="#f3322c"/><path d="m140 70h40v10h-40z" fill="#f3322c"/><path d="m130 80h60v10h-60z" fill="#f3322c"/><path d="m130 90h60v10h-60z" fill="#f9e8dd"/><path d="m130 100h60v10h-60z" fill="#f9e8dd"/><path d="m120 110h80v10h-80z" fill="#f9e8dd"/><path d="m120 120h80v10h-80z" fill="#f3322c"/><path d="m120 130h80v10h-80z" fill="#f3322c"/><path d="m110 140h100v10h-100z" fill="#f3322c"/><path d="m110 150h100v10h-100z" fill="#f9e8dd"/><path d="m110 160h100v10h-100z" fill="#f9e8dd"/><path d="m100 170h120v10h-120z" fill="#f9e8dd"/><path d="m100 180h120v10h-120z" fill="#f3322c"/><path d="m70 190h40v10h-40z" fill="#f3322c"/><path d="m110 190h120v10h-120z" fill="#bd2d24"/><path d="m230 190h20v10h-20z" fill="#f3322c"/><path d="m70 200h180v10h-180z" fill="#f3322c"/><path d="m100 110h60v10h-60z"/><path d="m170 110h60v10h-60z"/><path d="m100 120h10v10h-10z"/><path d="m110 120h20v10h-20z" fill="#fff"/><path d="m130 120h20v10h-20z" fill="#ff0e0e"/><path d="m150 120h10v10h-10z"/><path d="m170 120h10v10h-10z"/><path d="m180 120h20v10h-20z" fill="#fff"/><path d="m200 120h20v10h-20z" fill="#ff0e0e"/><path d="m220 120h10v10h-10z"/><path d="m70 130h40v10h-40z"/><path d="m110 130h20v10h-20z" fill="#fff"/><path d="m130 130h20v10h-20z" fill="#ff0e0e"/><path d="m150 130h30v10h-30z"/><path d="m180 130h20v10h-20z" fill="#fff"/><path d="m200 130h20v10h-20z" fill="#ff0e0e"/><path d="m220 130h10v10h-10z"/><path d="m70 140h10v10h-10z"/><path d="m100 140h10v10h-10z"/><path d="m110 140h20v10h-20z" fill="#fff"/><path d="m130 140h20v10h-20z" fill="#ff0e0e"/><path d="m150 140h10v10h-10z"/><path d="m170 140h10v10h-10z"/><path d="m180 140h20v10h-20z" fill="#fff"/><path d="m200 140h20v10h-20z" fill="#ff0e0e"/><path d="m220 140h10v10h-10z"/><path d="m70 150h10v10h-10z"/><path d="m100 150h10v10h-10z"/><path d="m110 150h20v10h-20z" fill="#fff"/><path d="m130 150h20v10h-20z" fill="#ff0e0e"/><path d="m150 150h10v10h-10z"/><path d="m170 150h10v10h-10z"/><path d="m180 150h20v10h-20z" fill="#fff"/><path d="m200 150h20v10h-20z" fill="#ff0e0e"/><path d="m220 150h10v10h-10z"/><path d="m100 160h60v10h-60z"/><path d="m170 160h60v10h-60z"/></svg>