<svg height="320" shape-rendering="crispEdges" viewBox="0 0 320 320" width="320" xmlns="http://www.w3.org/2000/svg"><rect fill="#e1d7d5" height="100%" width="100%"/><g fill="#b87b11"><path d="m90 210h140v10h-140z"/><path d="m90 220h140v10h-140z"/><path d="m90 230h140v10h-140z"/><path d="m90 240h140v10h-140z"/><path d="m90 250h20v10h-20z"/><path d="m120 250h110v10h-110z"/><path d="m90 260h20v10h-20z"/><path d="m120 260h110v10h-110z"/><path d="m90 270h20v10h-20z"/><path d="m120 270h110v10h-110z"/><path d="m90 280h20v10h-20z"/><path d="m120 280h110v10h-110z"/><path d="m90 290h20v10h-20z"/><path d="m120 290h110v10h-110z"/><path d="m90 300h20v10h-20z"/><path d="m120 300h110v10h-110z"/><path d="m90 310h20v10h-20z"/><path d="m120 310h110v10h-110z"/></g><path d="m120 210h10v10h-10z" fill="#ffc110"/><path d="m190 210h10v10h-10z" fill="#ffc110"/><path d="m130 220h10v10h-10z" fill="#ffc110"/><path d="m180 220h10v10h-10z" fill="#ffc110"/><path d="m140 230h10v10h-10z" fill="#ffc110"/><path d="m170 230h10v10h-10z" fill="#ffc110"/><path d="m150 240h20v10h-20z" fill="#ffc110"/><path d="m130 250h60v10h-60z" fill="#fff671"/><path d="m130 260h40v10h-40z" fill="#ffc110"/><path d="m170 260h20v10h-20z" fill="#fff671"/><path d="m130 270h40v10h-40z" fill="#ffc110"/><path d="m170 270h20v10h-20z" fill="#fff671"/><path d="m90 40h80v10h-80z" fill="#1f1d29"/><path d="m120 50h70v10h-70z" fill="#1f1d29"/><path d="m90 60h120v10h-120z" fill="#1f1d29"/><path d="m100 70h120v10h-120z" fill="#1f1d29"/><path d="m90 80h140v10h-140z" fill="#1f1d29"/><path d="m90 90h140v10h-140z" fill="#1f1d29"/><path d="m90 100h150v10h-150z" fill="#1f1d29"/><path d="m80 110h160v10h-160z" fill="#1f1d29"/><path d="m80 120h160v10h-160z" fill="#1f1d29"/><path d="m80 130h160v10h-160z" fill="#1f1d29"/><path d="m80 140h160v10h-160z" fill="#1f1d29"/><path d="m80 150h90v10h-90z" fill="#1f1d29"/><path d="m170 150h70v10h-70z" fill="#343235"/><path d="m80 160h80v10h-80z" fill="#1f1d29"/><path d="m160 160h120v10h-120z" fill="#343235"/><path d="m80 170h70v10h-70z" fill="#1f1d29"/><path d="m150 170h150v10h-150z" fill="#343235"/><path d="m80 180h70v10h-70z" fill="#1f1d29"/><path d="m150 180h150v10h-150z" fill="#343235"/><path d="m80 190h70v10h-70z" fill="#1f1d29"/><path d="m150 190h130v10h-130z" fill="#343235"/><path d="m80 200h80v10h-80z" fill="#1f1d29"/><path d="m160 200h90v10h-90z" fill="#343235"/><path d="m100 110h60v10h-60z" fill="#ffc110"/><path d="m170 110h60v10h-60z" fill="#f98f30"/><path d="m100 120h10v10h-10z" fill="#ffc110"/><path d="m110 120h20v10h-20z" fill="#fff"/><path d="m130 120h20v10h-20z"/><path d="m150 120h10v10h-10z" fill="#ffc110"/><path d="m170 120h10v10h-10z" fill="#f98f30"/><path d="m180 120h20v10h-20z" fill="#fff"/><path d="m200 120h20v10h-20z"/><path d="m220 120h10v10h-10z" fill="#f98f30"/><path d="m70 130h30v10h-30z" fill="#f98f30"/><path d="m100 130h10v10h-10z" fill="#ffc110"/><path d="m110 130h20v10h-20z" fill="#fff"/><path d="m130 130h20v10h-20z"/><path d="m150 130h10v10h-10z" fill="#ffc110"/><path d="m160 130h20v10h-20z" fill="#f98f30"/><path d="m180 130h20v10h-20z" fill="#fff"/><path d="m200 130h20v10h-20z"/><path d="m220 130h10v10h-10z" fill="#f98f30"/><path d="m70 140h10v10h-10z" fill="#f98f30"/><path d="m100 140h10v10h-10z" fill="#ffc110"/><path d="m110 140h20v10h-20z" fill="#fff"/><path d="m130 140h20v10h-20z"/><path d="m150 140h10v10h-10z" fill="#ffc110"/><path d="m170 140h10v10h-10z" fill="#f98f30"/><path d="m180 140h20v10h-20z" fill="#fff"/><path d="m200 140h20v10h-20z"/><path d="m220 140h10v10h-10z" fill="#f98f30"/><path d="m70 150h10v10h-10z" fill="#f98f30"/><path d="m100 150h10v10h-10z" fill="#ffc110"/><path d="m110 150h20v10h-20z" fill="#fff"/><path d="m130 150h20v10h-20z"/><path d="m150 150h10v10h-10z" fill="#ffc110"/><path d="m170 150h10v10h-10z" fill="#f98f30"/><path d="m180 150h20v10h-20z" fill="#fff"/><path d="m200 150h20v10h-20z"/><path d="m220 150h10v10h-10z" fill="#f98f30"/><path d="m100 160h60v10h-60z" fill="#ffc110"/><path d="m170 160h60v10h-60z" fill="#f98f30"/></svg>