<svg xmlns="http://www.w3.org/2000/svg" viewBox="0 -0.5 50 50" shape-rendering="crispEdges">
	<title>Bitcoin Pussies #030</title>
	<desc>Bitcoin Pussies are 69 uniquely drawn and inscribed cats on Bitcoin</desc>
	<desc xmlns:meow="https://bitcoinpussies.com/">
		<meow:traits>
			<meow:Skin>Black, White</meow:Skin>
			<meow:Eyes>Closed</meow:Eyes>
			<meow:Gear>None</meow:Gear>
			<meow:Message>The Yin Yang Pussy</meow:Message>
		</meow:traits>
	</desc>
	<path stroke="#9bf6ff" d="M0 0h50M0 1h50M0 2h50M0 3h50M0 4h50M0 5h50M0 6h50M0 7h50M0 8h50M0 9h50M0 10h50M0 11h50M0 12h50M0 13h50M0 14h50M0 15h50M0 16h50M0 17h16M19 17h13M35 17h15M0 18h15M21 18h9M36 18h14M0 19h15M36 19h14M0 20h15M36 20h14M0 21h15M36 21h14M0 22h15M36 22h14M0 23h15M36 23h14M0 24h16M35 24h15M0 25h15M36 25h14M0 26h15M36 26h14M0 27h15M36 27h14M0 28h15M36 28h14M0 29h15M36 29h14M0 30h16M35 30h15M0 31h16M35 31h15M0 32h17M34 32h16M0 33h19M32 33h18M0 34h19M32 34h18M0 35h12M13 35h5M33 35h17M0 36h11M14 36h4M33 36h17M0 37h11M33 37h17M0 38h11M32 38h18M0 39h12M19 39h1M31 39h19M0 40h50M0 41h50M0 42h50M0 43h50M0 44h50M0 45h50M0 46h50M0 47h50M0 48h50M0 49h50" />
	<path stroke="#000000" d="M16 17h3M32 17h3M15 18h1M19 18h2M30 18h2M35 18h1M15 19h1M21 19h9M35 19h1M15 20h1M19 20h2M30 20h2M35 20h1M15 21h1M18 21h1M32 21h1M35 21h1M15 22h1M17 22h1M33 22h1M35 22h1M15 23h2M34 23h2M16 24h1M19 24h3M29 24h3M34 24h1M15 25h1M21 25h2M28 25h2M35 25h1M15 26h1M22 26h1M28 26h1M35 26h1M15 27h1M25 27h1M35 27h1M15 28h1M24 28h3M35 28h1M15 29h1M24 29h1M26 29h1M35 29h1M16 30h1M34 30h1M16 31h1M34 31h1M17 32h2M32 32h2M19 33h2M30 33h2M19 34h1M31 34h1M12 35h1M18 35h1M32 35h1M11 36h1M13 36h1M18 36h1M32 36h1M11 37h1M13 37h6M22 37h2M27 37h2M32 37h1M11 38h1M18 38h2M24 38h1M26 38h1M31 38h1M12 39h7M20 39h11" />
	<path stroke="#ffffff" d="M16 18h3M16 19h1M16 20h1M21 20h5M16 21h1M19 21h7M16 22h1M18 22h8M17 23h9M17 24h2M22 24h4M16 25h5M23 25h3M16 26h6M23 26h3M16 27h9M16 28h2M20 28h4M16 29h8M17 30h9M17 31h9M19 32h7M21 33h5M20 34h6M19 35h7M19 36h7M19 37h3M24 37h2M20 38h4M25 38h1" />
	<path stroke="#2c2c2c" d="M32 18h3M20 19h1M30 19h1M34 19h1M26 20h4M34 20h1M26 21h6M34 21h1M26 22h7M34 22h1M26 23h8M26 24h3M32 24h2M26 25h2M30 25h5M26 26h2M29 26h6M26 27h9M27 28h4M33 28h2M27 29h8M26 30h8M26 31h8M26 32h6M26 33h4M26 34h5M26 35h6M12 36h1M26 36h6M12 37h1M26 37h1M29 37h3M12 38h6M27 38h4" />
	<path stroke="#ecbaaf" d="M17 19h3M31 19h3M17 20h2M32 20h2M17 21h1M33 21h1" />
	<path stroke="#ffbbbc" d="M18 28h2M31 28h2" />
	<path stroke="#ff9b9e" d="M25 29h1" />
</svg>