<?xml version="1.0" encoding="UTF-8"?><svg xmlns="http://www.w3.org/2000/svg" viewBox="0 0 198.43 340.07"><defs><style>.e{mix-blend-mode:soft-light;}.e,.f{fill:red;}.g{isolation:isolate;}.h{stroke:#f2f2f2;}.h,.i,.j,.k{fill:none;stroke-miterlimit:10;}.h,.i,.k{stroke-width:.5px;}.i,.j{stroke:red;}.k{stroke:#999;}.l{fill:#999;}.m{fill:#ccc;}.f{opacity:.22;}.n{fill:#140016;}.o{fill:#f2f2f2;}</style></defs><g class="g"><g id="b"><g id="c"><g id="d"><rect class="o" width="198.43" height="340.07" rx="1.34" ry="1.34"/><path class="n" d="m6.93,333.42c-1.16,0-2.1-.87-2.1-1.95V8.6c0-1.08.94-1.95,2.1-1.95h184.56c1.16,0,2.1.87,2.1,1.95v322.88c0,1.08-.94,1.95-2.1,1.95"/><rect class="h" x="7.74" y="9.5" width="182.95" height="321.07" rx="1.34" ry="1.34"/><polygon class="j" points="159.7 146.54 73.92 146.54 116.81 73.23 159.7 146.54"/><polygon class="e" points="116.81 73.79 116.81 146.54 159.7 146.54 116.81 73.79"/><line class="i" x1="116.81" y1="73.79" x2="116.81" y2="146.54"/><polygon class="j" points="38.72 206.77 124.51 206.77 81.62 133.46 38.72 206.77"/><polyline class="i" points="81.62 133.87 81.62 170.16 38.72 206.77"/><line class="i" x1="81.62" y1="170.16" x2="124.51" y2="206.77"/><polygon class="e" points="81.62 133.46 81.62 170.16 38.72 206.77 81.62 133.46"/><polygon class="j" points="159.7 266.93 73.92 266.93 116.81 193.61 159.7 266.93"/><polyline class="i" points="116.81 194.03 116.81 230.32 159.7 266.93"/><line class="i" x1="116.81" y1="230.32" x2="73.92" y2="266.93"/><polygon class="e" points="116.81 193.61 116.81 230.32 159.7 266.93 116.81 193.61"/><polygon class="j" points="159.7 146.54 73.92 146.54 116.81 73.23 159.7 146.54"/><polygon class="f" points="116.81 73.79 116.81 146.54 159.7 146.54 116.81 73.79"/><line class="i" x1="116.81" y1="73.79" x2="116.81" y2="146.54"/><polygon class="f" points="81.62 133.46 81.62 170.16 38.72 206.77 81.62 133.46"/><polygon class="f" points="116.81 193.61 116.81 230.32 159.7 266.93 116.81 193.61"/><path class="m" d="m90.41,20.62v7.43h2.14c.15,0,.25.03.32.08.06.06.1.13.1.23s-.03.16-.1.22-.17.09-.32.09h-4.89c-.15,0-.25-.03-.32-.09s-.1-.13-.1-.22c0-.09.03-.17.1-.23.06-.06.17-.08.32-.08h2.14v-7.43h-2.14c-.15,0-.25-.03-.32-.08-.06-.06-.1-.13-.1-.23s.03-.17.1-.23c.06-.06.17-.08.32-.08h4.89c.15,0,.25.03.32.08.06.06.1.13.1.23s-.03.17-.1.23c-.06.06-.17.08-.32.08h-2.14Z"/><path class="m" d="m99.52,20.62v7.43h2.14c.15,0,.25.03.32.08.06.06.1.13.1.23s-.03.16-.1.22-.17.09-.32.09h-4.89c-.15,0-.25-.03-.32-.09s-.1-.13-.1-.22c0-.09.03-.17.1-.23.06-.06.17-.08.32-.08h2.14v-7.43h-2.14c-.15,0-.25-.03-.32-.08-.06-.06-.1-.13-.1-.23s.03-.17.1-.23c.06-.06.17-.08.32-.08h4.89c.15,0,.25.03.32.08.06.06.1.13.1.23s-.03.17-.1.23c-.06.06-.17.08-.32.08h-2.14Z"/><path class="m" d="m108.64,20.62v7.43h2.14c.15,0,.25.03.32.08.06.06.1.13.1.23s-.03.16-.1.22-.17.09-.32.09h-4.89c-.15,0-.25-.03-.32-.09s-.1-.13-.1-.22c0-.09.03-.17.1-.23.06-.06.17-.08.32-.08h2.14v-7.43h-2.14c-.15,0-.25-.03-.32-.08-.06-.06-.1-.13-.1-.23s.03-.17.1-.23c.06-.06.17-.08.32-.08h4.89c.15,0,.25.03.32.08.06.06.1.13.1.23s-.03.17-.1.23c-.06.06-.17.08-.32.08h-2.14Z"/><path class="l" d="m98.48,304.9v1.18h.42c.06,0,.09.01.12.03.02.02.03.05.03.08,0,.03-.01.06-.03.08-.02.02-.06.03-.12.03h-.94c-.05,0-.09-.01-.12-.03-.02-.02-.03-.05-.03-.08,0-.03.01-.06.03-.08.02-.02.06-.03.12-.03h.3v-2.69h-.3c-.05,0-.09-.01-.12-.03-.02-.02-.03-.05-.03-.08s.01-.06.03-.08c.02-.02.06-.03.12-.03h1.36c.28,0,.52.09.71.27.19.18.29.38.29.6,0,.16-.06.31-.18.45-.12.14-.32.26-.6.36.16.11.3.24.41.38.11.14.3.43.55.86h.17c.05,0,.09.01.12.03.02.02.03.05.03.08,0,.03-.01.06-.03.08-.02.02-.06.03-.12.03h-.3c-.28-.5-.49-.83-.65-1-.15-.17-.33-.3-.53-.4h-.72Zm0-.23h.61c.2,0,.38-.04.54-.11.16-.07.28-.16.35-.25s.11-.19.11-.3c0-.15-.08-.29-.23-.43-.15-.14-.33-.2-.55-.2h-.83v1.29Z"/><path class="l" d="m93.05,312.33h-1.48l-.3.82h.43c.05,0,.09.01.12.03.02.02.03.05.03.08,0,.03-.01.06-.03.08-.02.02-.06.03-.12.03h-.84c-.05,0-.09-.01-.12-.03-.02-.02-.03-.05-.03-.08,0-.03.01-.06.03-.08.02-.02.06-.03.12-.03h.17l1-2.69h-.67c-.05,0-.09-.01-.12-.03-.02-.02-.03-.05-.03-.08s.01-.06.03-.08c.02-.02.06-.03.12-.03h1.13l1.1,2.91h.17c.05,0,.09.01.12.03.02.02.03.05.03.08,0,.03-.01.06-.03.08-.02.02-.06.03-.12.03h-.84c-.06,0-.09-.01-.12-.03-.02-.02-.03-.05-.03-.08,0-.03.01-.06.03-.08.02-.02.06-.03.12-.03h.43l-.31-.82Zm-.09-.23l-.62-1.64h-.08l-.6,1.64h1.31Z"/><path class="l" d="m107.72,311.89c0,.3-.06.58-.18.84-.12.26-.29.46-.5.6-.21.14-.44.21-.69.21-.36,0-.68-.15-.96-.46s-.41-.7-.41-1.19.14-.88.41-1.19c.28-.31.6-.46.96-.46.25,0,.47.07.69.21.21.14.38.34.5.6.12.26.18.53.18.84Zm-.23,0c0-.37-.11-.7-.32-.99-.21-.29-.49-.44-.83-.44-.32,0-.59.14-.81.42-.22.28-.34.61-.34,1.01,0,.42.12.76.35,1.03.24.27.5.4.8.4.34,0,.61-.15.83-.44.21-.29.32-.62.32-.99Z"/><path class="l" d="m99.32,317.24v2.69h.58c.05,0,.09.01.12.03.02.02.03.05.03.08,0,.03-.01.06-.03.08-.02.02-.06.03-.12.03h-1.4c-.05,0-.09-.01-.12-.03-.02-.02-.03-.05-.03-.08,0-.03.01-.06.03-.08.02-.02.06-.03.12-.03h.58v-2.69h-.92v.78c0,.06-.01.09-.03.12-.02.02-.05.03-.08.03-.03,0-.06-.01-.08-.03-.02-.02-.03-.06-.03-.12v-1.01h2.52v1.01c0,.06-.01.09-.03.12-.02.02-.05.03-.08.03s-.06-.01-.08-.03c-.02-.02-.03-.06-.03-.12v-.78h-.92Z"/><path class="k" d="m106.34,309.6c-.74-2.52-2.78-4.48-5.33-5.11"/><path class="k" d="m101.02,318.88c2.37-.59,4.28-2.31,5.14-4.55"/><path class="k" d="m92.32,314.33c.84,2.2,2.7,3.89,4.99,4.51"/><path class="k" d="m97.55,304.64c-2.54.67-4.55,2.65-5.25,5.18"/></g></g></g></g></svg>