<svg id="svg" xmlns="http://www.w3.org/2000/svg" xmlns:xlink="http://www.w3.org/1999/xlink" viewBox="0 0 160 176" height="100%" width="100%" style="max-width: 480px; margin: auto; display: block"><defs><path id="a" d="M48 1h8v8h-8z"></path><path id="b" d="M59.2 1h8v8h-8z"></path><path id="c" d="M70.4 1h8v8h-8z"></path><path id="d" d="M81.6 1h8v8h-8z"></path><path id="e" d="M92.8 1h8v8h-8z"></path><path id="f" d="M104 1h8v8h-8z"></path></defs><g fill="none" fill-rule="evenodd"><path fill="#FFF" d="M15 121h5v15h-5zm5 15h5v10h-5zm10 15h5v5h-5zm-5-5h5v5h-5zm10 10h5v5h-5zm5 5h5v5h-5zm5 5h10v5H45zm10 5h50v5H55zm50-5h10v5h-10zm15-10h5v5h-5zm-5 5h5v5h-5zm10-10h5v5h-5zm5-5h5v5h-5zm5-10h5v10h-5zm5-15h5v15h-5zm5-45h5v45h-5zm-5-15h5v15h-5zm-5-10h5v10h-5zM55 16h50v5H55zM40 26h5v5h-5zm5-5h10v5H45zm60 0h10v5h-10zm10 5h5v5h-5zm5 5h5v5h-5zm5 5h5v5h-5zm5 5h5v10h-5zM35 31h5v5h-5zm-5 5h5v5h-5zm-5 5h5v10h-5zm-5 10h5v10h-5zm-5 10h5v15h-5zm-5 15h5v45h-5z"></path><path fill="#000" d="M20 121h5v15h-5zm5 15h5v10h-5zm5 10h5v5h-5zm5 5h5v5h-5zm5 5h5v5h-5zm5 5h10v5H45zm10 5h50v5H55zm50-5h10v5h-10zm10-5h5v5h-5zm5-5h5v5h-5zm5-5h5v5h-5zm5-10h5v10h-5zm5-15h5v15h-5zm5-45h5v45h-5zm-5-15h5v15h-5zm-5-10h5v10h-5zM55 21h50v5H55zm-10 5h10v5H45zm60 0h10v5h-10zm10 5h5v5h-5zm5 5h5v5h-5zm5 5h5v10h-5zM40 31h5v5h-5zm-5 5h5v5h-5zm-5 5h5v10h-5zm-5 10h5v10h-5zm-5 10h5v15h-5zm-5 15h5v45h-5z"></path><path fill="#CDD4CA" d="M44 51h72v65H44z"></path><path fill="#98A693" d="M45 51h70v5H45zm0 5h5v5h-5zm65 0h5v5h-5z"></path><image xlink:href="/content/830660fb7c4146b077c44ec15824f687a5ff9869b71144f7bcac71565056adaci0" href="/content/830660fb7c4146b077c44ec15824f687a5ff9869b71144f7bcac71565056adaci0" id="ordinals" width="70" height="70" x="44.875" y="48.5" style="image-rendering: pixelated; image-rendering: -moz-crisp-edges; image-rendering: crisp-edges"></image><g id="frame" fill="#fff700"><path d="M35 76h6v25h-6zm84 5h6v15h-6zM45 46h70v5H45zm0 70h70v5H45z"></path><path d="M55 41h15v6H55zm20 79h15v6H75zm15-79h20v6H90zM40 51h5v65h-5zm75 0h5v65h-5z"></path></g><path id="frame-shadow" fill="#cdc500" d="M90 121h5v5h-5zm-20 0h5v5h-5zm-35-20h5v5h-5zm0-30h5v5h-5zm85 5h5v5h-5zm0 20h5v5h-5z"></path><g id="left-button" fill="#000" style="cursor:pointer"><path d="M40 136h20v10H40z"></path><path d="M45 131h10v20H45z"></path><path id="left-button-shadow" fill="#323232" d="M45 136h5v5h-5z"></path></g><g id="center-button" fill="#000" style="cursor:pointer"><path d="M75 136h10v20H75z"></path><path d="M70 141h20v10H70z"></path><path id="center-button-shadow" fill="#323232" d="M75 141h5v5h-5z"></path></g><g id="right-button" fill="#000" style="cursor:pointer"><path d="M100 136h20v10h-20z"></path><path d="M105 131h10v20h-10z"></path><path id="right-button-shadow" fill="#323232" d="M105 136h5v5h-5z"></path></g><path id="base-light-shadow" fill="#ff8486" d="M45 121h25v5H45zm25 5h25v5H70zm25-5h20v5H95zm20-5h5v5h-5zM40 36h5v5h-5zm5-5h10v5H45zm60 0h10v5h-10zm10 5h5v5h-5zM55 26h50v5H55zm-15 90h5v5h-5z"></path><g id="base" fill="#ff5254"><path d="M55 31h50v5H55zm-10 5h10v5H45zm65 0h5v5h-5zm10 9h5v31h-5zm5 6h5v40h-5zm-5 50h5v40h-5z"></path><path d="M123 101h7v30h-7z"></path><path d="M128 96h7v25h-7z"></path><path d="M125 96h5v25h-5zm3-35h7v30h-7zm-13-20h10v5h-10zm-45-6h20v6H70zm25 91h27v5H95zm-35 5h31v5H60zm-30-5h31v5H30z"></path><path d="M30 121h15v8H30zm85 0h8v8h-8zm-17 30h7v5h-7zm-43 0h7v5h-7zm-20-21h5v11h-5z"></path><path d="M90 131h10v25H90zm-30-5h10v30H60zM25 61h10v30H25z"></path><path d="M30 51h10v20H30z"></path><path d="M35 41h5v11h-5zm5 0h5v5h-5zm-10 65h10v23H30z"></path><path d="M25 96h10v25H25z"></path></g><g id="base-dark-shadow" fill="#cd2022"><path d="M40 46h5v5h-5zm70-5h5v5h-5zm5 5h5v5h-5zm20 30h5v45h-5z"></path><path d="M125 91h11v5h-11zm5 30h5v15h-5zm-5 10h5v15h-5zm-5 10h5v10h-5zm-5 5h5v10h-5zm0-15h5v5h-5zm-15 0h5v5h-5zm0 15h5v5h-5zm-15 5h5v5h-5zm-15-15h5v5h-5zm15 0h5v5h-5zm-15 15h5v5h-5zm-15-5h5v5h-5zm0-15h5v5h-5zm-15 0h5v5h-5zm5 20h10v10H45zm-5-5h5v10h-5zm-5-5h5v10h-5zm-5-10h5v15h-5zm-5-10h5v15h-5zm-5-45h5v45h-5z"></path><path d="M24 91h11v5H24zm81 60h10v10h-10zm-50 5h50v10H55zM45 41h10v5H45zm10-5h15v5H55zm15 5h20v5H70zm20-5h20v5H90z"></path></g><g id="lifes" fill="#4ED85F"><path stroke="#000" data-timer="0" stroke-linejoin="square" stroke-width="2" d="M49 2h6v6h-6z"></path><path stroke="#000" data-timer="10" stroke-linejoin="square" stroke-width="2" d="M60.2 2h6v6h-6z"></path><path stroke="#000" data-timer="20" stroke-linejoin="square" stroke-width="2" d="M71.4 2h6v6h-6z"></path><path stroke="#000" data-timer="30" stroke-linejoin="square" stroke-width="2" d="M82.6 2h6v6h-6z"></path><path stroke="#000" data-timer="40" stroke-linejoin="square" stroke-width="2" d="M93.8 2h6v6h-6z"></path><path stroke="#000" data-timer="50" stroke-linejoin="square" stroke-width="2" d="M105 2h6v6h-6z"></path></g><use xlink:href="#a" stroke="#FFF"></use><use xlink:href="#b" stroke="#FFF"></use><use xlink:href="#c" stroke="#FFF"></use><use xlink:href="#d" stroke="#FFF"></use><use xlink:href="#e" stroke="#FFF"></use><use xlink:href="#f" stroke="#FFF"></use></g><script><![CDATA[ let t,e=60;const l=()=>{document.getElementById("ordinals").style.transform="translateY(-20px)",setTimeout((()=>{document.getElementById("ordinals").style.transform="translateY(0px)"}),250),e+=10,e>60&&(e=60),t||(t=setInterval((()=>{e--,e>=40&&document.getElementById("lifes").setAttribute("fill","#4ED85F"),e<40&&document.getElementById("lifes").setAttribute("fill","#FF811A"),e<20&&document.getElementById("lifes").setAttribute("fill","#E92525"),document.querySelectorAll("#lifes [data-timer]").forEach((t=>{const l=parseInt(t.getAttribute("data-timer"));e<=l?t.setAttribute("fill","#ffffff"):t.removeAttribute("fill")}));const l=document.querySelectorAll("#lifes [data-timer]:not([fill])");if(l.length){const t=l[l.length-1];t.setAttribute("fill","#ffffff"),setTimeout((()=>{t.removeAttribute("fill")}),500)}if(e<=0)return clearInterval(t),void(t=null)}),1e3))};document.getElementById("right-button").addEventListener("click",l),document.getElementById("left-button").addEventListener("click",l),document.getElementById("center-button").addEventListener("click",l); ]]></script></svg>