<svg id="em8UvLjBOTQ1" xmlns="http://www.w3.org/2000/svg" xmlns:xlink="http://www.w3.org/1999/xlink" viewBox="0 0 1080 1080" shape-rendering="geometricPrecision" text-rendering="geometricPrecision" width="1080" height="1080">
<style><![CDATA[
#em8UvLjBOTQ18_to {animation: em8UvLjBOTQ18_to__to 1000ms linear infinite normal forwards}@keyframes em8UvLjBOTQ18_to__to { 0% {transform: translate(736.508881px,908.493286px)} 100% {transform: translate(202.909701px,908.493286px)}} #em8UvLjBOTQ50_to {animation: em8UvLjBOTQ50_to__to 1000ms linear infinite normal forwards}@keyframes em8UvLjBOTQ50_to__to { 0% {transform: translate(602.151994px,719.004097px)} 100% {transform: translate(68.552814px,719.004097px)}} #em8UvLjBOTQ56_to {animation: em8UvLjBOTQ56_to__to 1000ms linear infinite normal forwards}@keyframes em8UvLjBOTQ56_to__to { 0% {transform: translate(779.228089px,962.986938px)} 100% {transform: translate(245.628909px,962.986938px)}} #em8UvLjBOTQ81_to {animation: em8UvLjBOTQ81_to__to 1000ms linear infinite normal forwards}@keyframes em8UvLjBOTQ81_to__to { 0% {transform: translate(787.89802px,833.130736px)} 100% {transform: translate(254.29884px,833.130736px)}} #em8UvLjBOTQ87_tr {animation: em8UvLjBOTQ87_tr__tr 1000ms linear infinite normal forwards}@keyframes em8UvLjBOTQ87_tr__tr { 0% {transform: translate(467.299198px,611.219344px) rotate(0deg)} 32% {transform: translate(467.299198px,611.219344px) rotate(3deg)} 56% {transform: translate(467.299198px,611.219344px) rotate(0deg)} 80% {transform: translate(467.299198px,611.219344px) rotate(3deg)} 100% {transform: translate(467.299198px,611.219344px) rotate(0deg)}}
]]></style>
<g clip-path="url(#em8UvLjBOTQ126)"><g transform="translate(.000001 0.000001)"><rect width="1080" height="1080" rx="0" ry="0" fill="#9bbbc2" stroke-width="0"/><g id="em8UvLjBOTQ18_to" transform="translate(736.508881,908.493286)"><g transform="translate(-736.508881,-908.493286)"><g transform="translate(1664.325653 732.164685)"><rect width="30.2" height="342" rx="1.2" ry="1.2" transform="translate(8.9 9.5)" fill="#77695d"/><path d="M44,1.3c1.1,6.5-.2,24.8-.2,32c0,6.2-1.2,13.4-.9,20.2c0,10,1,21,.7,30c0,16.4,0,34.5.6,49.3.9,19.8.5,39.5.6,59.2c0,7.3,1,19.4.3,29.2-1.3,3.7,1.3,125.5-1.4,128h-4.7c-.2-8.7-.3-129.4-.2-138c.2-29.3,0-58.5-.3-87.7-.3-1-1.2-1.2-1.7-2c0-15.3-1.8-35.2-1.8-45.4v-65.4L18.7,11l.2,19.8c.4.9,1.1,1.2,1.5,2c.7,25,.9,47.4.3,71.3-.5,21.4,1.4,45.6,1,65.4-.5,1.4-2.6.2-3.5-.3-3.5-27.8-2.3-56.5-1.8-80.6.456797-20.669671.189967-41.348997-.8-62-.2-5.2-.2-10.3,0-15.5-1-.3-4.9,0-6.5,0-.2,36,.4,73.1.8,109.7.5,13-.4,25.2.1,37.3c0,1.3-1,4.7,1.7,4c.7,12.8.9,37.3.4,52.7-1,1.8-1.3,2.3-.4,3.4c1.1,6-.5,124.7,0,131h-8c.3-7-.2-125.8-1.3-132.6.2-3,.3-7,0-11.8c0-1.4-.6-1.9-1.6-1.5l.3-31.4c2.6-6,3.3-11.2,1.3-20.3.6-13.2.6-26.4,0-39.5.2-22.9.3-42.5.1-63.8.4-16.3-.2-31.8-.2-46c12.3-1.7,31.4-1,41.7-1Z" fill="#332020"/><path d="M34.1,282c.2,8-3,10-3.1,0-.2-10-.7-85-1-104.9.2-2.2,1.4-2.9,2.4-1.4.2,4.5.7,8.7.8,13c.3,16.1.8,85.2,1,93.3ZM19.4,190.1c1.4-.9,2.7-1,3.4.4-.1,3.9-.3,7.5-.6,11-.6,2-1.8,2.6-2.8,1-.4-2.3-1.7-10.7,0-12.4ZM21,263.2c-2.2-24.7-3.5-31.6-1.1-32.4c2.3-.7,3.6,45.8,5.5,80c.5,5.3-2.3,34.1-5,32.9-2.8-1.3,2.9-56,.7-80.5Z" fill="#332020"/></g><g transform="translate(1390.7 732.98036)"><rect width="32.1" height="342.6" rx="0" ry="0" transform="translate(7.4 6.4)" fill="#77695d"/><path d="M47.3,1.4v7.5c-.5.7-1.2,1-1.6,1.4-.7,5.6.6,9.5,1.3,14.8-1.7,1.5-1.7,2.9-1.2,4.5-.6,3.6-.5,7.2.1,10.8L43.8,62c-1,2.2-1.8,6.9,0,10.8.5,19.2-.2,38.5,1.5,57.5.1,14,0,28-.2,42c.3,2,.3,3.3.4,4.7l-1.9,46.8-.1,124.5h-7.3c-.3-8-.2-129,.4-137.1c1.73028-5.69547,2.308202-11.678653,1.7-17.6c1.2-25,.4-46.8-.4-71.6c0-1.4-1-2-1.5-3-1.7-22-2.2-34.2-1.1-54c.6-12,.8-23.8,1.1-35c1.6,0,3-1.7,1.3-2.3-1.8-.7-2.1-2.1-.9-4.4c2.4,1.5,1.3-9.7,1-15.2L8.5,8c.1,21.9,1.1,45-1,65c.5,51.7-.6,100.1,2,144.8v130.5h-6c-.2-9-.7-131.1-1.6-140.2c1.8-24.9-1-50.8.4-74.5.1-2.1.3-4.7-2-4.5l.3-43.8c3.2-1.5,1.3-5.5,1-6.8C4,51.8,1.2,26,1.5,1.1c9.8,0,35.4.4,45.7.3Z" fill="#332020"/><path d="M18.8,13.7c-.6,2-.9,5.3,1.2,5.1.6,2.2-.9,2-1.6,3.1-.2,3.1-.7,6.2-1.4,9.2-1,4.2-1.7,4.2-2-.1-.3-5.4,0-10.7,1.2-16c.3-1.3,1.2-1.8,2.6-1.3Zm8.5,142.6c1,0,1.2-.4,1.5-1c.8-23.5,1.8-49.2.2-70.2.209657-3.205105.07556-6.423446-.4-9.6-.3-.7-1-1-1.5-1.4-.6-11-.8-22-.8-32.9.4-2.7,2-4,4.5-2c0,1.4-.4,3-.4,4.4c0,13.7.5,27.5,1.7,41.2c2.6,35.5-.7,74-.8,105.4-2,11.8.5,29.2-1.4,42-1.3,1.2-3.3.8-4-.5-.9-26.6.6-56,1.4-75.4ZM18.6,56.4l-.3,20l.2,14.7c.3,1,.7,1,1.5,1.2c1.1,3,.7,5.4-1.9,5-2.5-.6-2.5-34.7-2.2-40.7.6-1.8,1.9-1.3,2.7-.2ZM18,338c0-6.6-.5-65.2-.4-71.8c1.1-8.8-4.2-45.5-1-44.8s6.3,69.8,4.5,105.3c-.4,4,1,13.8-3,11.4Z" fill="#332020"/><ellipse rx="1.7" ry="8.4" transform="matrix(.99794-.06417 0.0893 0.996 27.51808 258.783772)" fill="#332020"/></g><g transform="translate(1118.525653 732.164685)"><rect width="30.2" height="342" rx="1.2" ry="1.2" transform="translate(8.9 9.5)" fill="#77695d"/><path d="M44,1.3c1.1,6.5-.2,24.8-.2,32c0,6.2-1.2,13.4-.9,20.2c0,10,1,21,.7,30c0,16.4,0,34.5.6,49.3.9,19.8.5,39.5.6,59.2c0,7.3,1,19.4.3,29.2-1.3,3.7,1.3,125.5-1.4,128h-4.7c-.2-8.7-.3-129.4-.2-138c.2-29.3,0-58.5-.3-87.7-.3-1-1.2-1.2-1.7-2c0-15.3-1.8-35.2-1.8-45.4v-65.4L18.7,11l.2,19.8c.4.9,1.1,1.2,1.5,2c.7,25,.9,47.4.3,71.3-.5,21.4,1.4,45.6,1,65.4-.5,1.4-2.6.2-3.5-.3-3.5-27.8-2.3-56.5-1.8-80.6.456797-20.669671.189967-41.348997-.8-62-.2-5.2-.2-10.3,0-15.5-1-.3-4.9,0-6.5,0-.2,36,.4,73.1.8,109.7.5,13-.4,25.2.1,37.3c0,1.3-1,4.7,1.7,4c.7,12.8.9,37.3.4,52.7-1,1.8-1.3,2.3-.4,3.4c1.1,6-.5,124.7,0,131h-8c.3-7-.2-125.8-1.3-132.6.2-3,.3-7,0-11.8c0-1.4-.6-1.9-1.6-1.5l.3-31.4c2.6-6,3.3-11.2,1.3-20.3.6-13.2.6-26.4,0-39.5.2-22.9.3-42.5.1-63.8.4-16.3-.2-31.8-.2-46c12.3-1.7,31.4-1,41.7-1Z" fill="#332020"/><path d="M34.1,282c.2,8-3,10-3.1,0-.2-10-.7-85-1-104.9.2-2.2,1.4-2.9,2.4-1.4.2,4.5.7,8.7.8,13c.3,16.1.8,85.2,1,93.3ZM19.4,190.1c1.4-.9,2.7-1,3.4.4-.1,3.9-.3,7.5-.6,11-.6,2-1.8,2.6-2.8,1-.4-2.3-1.7-10.7,0-12.4ZM21,263.2c-2.2-24.7-3.5-31.6-1.1-32.4c2.3-.7,3.6,45.8,5.5,80c.5,5.3-2.3,34.1-5,32.9-2.8-1.3,2.9-56,.7-80.5Z" fill="#332020"/></g><g transform="translate(844.930233 732.98036)"><rect width="32.1" height="342.6" rx="0" ry="0" transform="translate(7.4 6.4)" fill="#77695d"/><path d="M47.3,1.4v7.5c-.5.7-1.2,1-1.6,1.4-.7,5.6.6,9.5,1.3,14.8-1.7,1.5-1.7,2.9-1.2,4.5-.6,3.6-.5,7.2.1,10.8L43.8,62c-1,2.2-1.8,6.9,0,10.8.5,19.2-.2,38.5,1.5,57.5.1,14,0,28-.2,42c.3,2,.3,3.3.4,4.7l-1.9,46.8-.1,124.5h-7.3c-.3-8-.2-129,.4-137.1c1.73028-5.69547,2.308202-11.678653,1.7-17.6c1.2-25,.4-46.8-.4-71.6c0-1.4-1-2-1.5-3-1.7-22-2.2-34.2-1.1-54c.6-12,.8-23.8,1.1-35c1.6,0,3-1.7,1.3-2.3-1.8-.7-2.1-2.1-.9-4.4c2.4,1.5,1.3-9.7,1-15.2L8.5,8c.1,21.9,1.1,45-1,65c.5,51.7-.6,100.1,2,144.8v130.5h-6c-.2-9-.7-131.1-1.6-140.2c1.8-24.9-1-50.8.4-74.5.1-2.1.3-4.7-2-4.5l.3-43.8c3.2-1.5,1.3-5.5,1-6.8C4,51.8,1.2,26,1.5,1.1c9.8,0,35.4.4,45.7.3Z" fill="#332020"/><path d="M18.8,13.7c-.6,2-.9,5.3,1.2,5.1.6,2.2-.9,2-1.6,3.1-.2,3.1-.7,6.2-1.4,9.2-1,4.2-1.7,4.2-2-.1-.3-5.4,0-10.7,1.2-16c.3-1.3,1.2-1.8,2.6-1.3Zm8.5,142.6c1,0,1.2-.4,1.5-1c.8-23.5,1.8-49.2.2-70.2.209657-3.205105.07556-6.423446-.4-9.6-.3-.7-1-1-1.5-1.4-.6-11-.8-22-.8-32.9.4-2.7,2-4,4.5-2c0,1.4-.4,3-.4,4.4c0,13.7.5,27.5,1.7,41.2c2.6,35.5-.7,74-.8,105.4-2,11.8.5,29.2-1.4,42-1.3,1.2-3.3.8-4-.5-.9-26.6.6-56,1.4-75.4ZM18.6,56.4l-.3,20l.2,14.7c.3,1,.7,1,1.5,1.2c1.1,3,.7,5.4-1.9,5-2.5-.6-2.5-34.7-2.2-40.7.6-1.8,1.9-1.3,2.7-.2ZM18,338c0-6.6-.5-65.2-.4-71.8c1.1-8.8-4.2-45.5-1-44.8s6.3,69.8,4.5,105.3c-.4,4,1,13.8-3,11.4Z" fill="#332020"/><ellipse rx="1.7" ry="8.4" transform="matrix(.99794-.06417 0.0893 0.996 27.51808 258.783772)" fill="#332020"/></g><g transform="translate(572.778222 732.164685)"><rect width="30.2" height="342" rx="1.2" ry="1.2" transform="translate(8.9 9.5)" fill="#77695d"/><path d="M44,1.3c1.1,6.5-.2,24.8-.2,32c0,6.2-1.2,13.4-.9,20.2c0,10,1,21,.7,30c0,16.4,0,34.5.6,49.3.9,19.8.5,39.5.6,59.2c0,7.3,1,19.4.3,29.2-1.3,3.7,1.3,125.5-1.4,128h-4.7c-.2-8.7-.3-129.4-.2-138c.2-29.3,0-58.5-.3-87.7-.3-1-1.2-1.2-1.7-2c0-15.3-1.8-35.2-1.8-45.4v-65.4L18.7,11l.2,19.8c.4.9,1.1,1.2,1.5,2c.7,25,.9,47.4.3,71.3-.5,21.4,1.4,45.6,1,65.4-.5,1.4-2.6.2-3.5-.3-3.5-27.8-2.3-56.5-1.8-80.6.456797-20.669671.189967-41.348997-.8-62-.2-5.2-.2-10.3,0-15.5-1-.3-4.9,0-6.5,0-.2,36,.4,73.1.8,109.7.5,13-.4,25.2.1,37.3c0,1.3-1,4.7,1.7,4c.7,12.8.9,37.3.4,52.7-1,1.8-1.3,2.3-.4,3.4c1.1,6-.5,124.7,0,131h-8c.3-7-.2-125.8-1.3-132.6.2-3,.3-7,0-11.8c0-1.4-.6-1.9-1.6-1.5l.3-31.4c2.6-6,3.3-11.2,1.3-20.3.6-13.2.6-26.4,0-39.5.2-22.9.3-42.5.1-63.8.4-16.3-.2-31.8-.2-46c12.3-1.7,31.4-1,41.7-1Z" fill="#332020"/><path d="M34.1,282c.2,8-3,10-3.1,0-.2-10-.7-85-1-104.9.2-2.2,1.4-2.9,2.4-1.4.2,4.5.7,8.7.8,13c.3,16.1.8,85.2,1,93.3ZM19.4,190.1c1.4-.9,2.7-1,3.4.4-.1,3.9-.3,7.5-.6,11-.6,2-1.8,2.6-2.8,1-.4-2.3-1.7-10.7,0-12.4ZM21,263.2c-2.2-24.7-3.5-31.6-1.1-32.4c2.3-.7,3.6,45.8,5.5,80c.5,5.3-2.3,34.1-5,32.9-2.8-1.3,2.9-56,.7-80.5Z" fill="#332020"/></g><g transform="translate(304.169245 732.98036)"><rect width="32.1" height="342.6" rx="0" ry="0" transform="translate(7.4 6.4)" fill="#77695d"/><path d="M47.3,1.4v7.5c-.5.7-1.2,1-1.6,1.4-.7,5.6.6,9.5,1.3,14.8-1.7,1.5-1.7,2.9-1.2,4.5-.6,3.6-.5,7.2.1,10.8L43.8,62c-1,2.2-1.8,6.9,0,10.8.5,19.2-.2,38.5,1.5,57.5.1,14,0,28-.2,42c.3,2,.3,3.3.4,4.7l-1.9,46.8-.1,124.5h-7.3c-.3-8-.2-129,.4-137.1c1.73028-5.69547,2.308202-11.678653,1.7-17.6c1.2-25,.4-46.8-.4-71.6c0-1.4-1-2-1.5-3-1.7-22-2.2-34.2-1.1-54c.6-12,.8-23.8,1.1-35c1.6,0,3-1.7,1.3-2.3-1.8-.7-2.1-2.1-.9-4.4c2.4,1.5,1.3-9.7,1-15.2L8.5,8c.1,21.9,1.1,45-1,65c.5,51.7-.6,100.1,2,144.8v130.5h-6c-.2-9-.7-131.1-1.6-140.2c1.8-24.9-1-50.8.4-74.5.1-2.1.3-4.7-2-4.5l.3-43.8c3.2-1.5,1.3-5.5,1-6.8C4,51.8,1.2,26,1.5,1.1c9.8,0,35.4.4,45.7.3Z" fill="#332020"/><path d="M18.8,13.7c-.6,2-.9,5.3,1.2,5.1.6,2.2-.9,2-1.6,3.1-.2,3.1-.7,6.2-1.4,9.2-1,4.2-1.7,4.2-2-.1-.3-5.4,0-10.7,1.2-16c.3-1.3,1.2-1.8,2.6-1.3Zm8.5,142.6c1,0,1.2-.4,1.5-1c.8-23.5,1.8-49.2.2-70.2.209657-3.205105.07556-6.423446-.4-9.6-.3-.7-1-1-1.5-1.4-.6-11-.8-22-.8-32.9.4-2.7,2-4,4.5-2c0,1.4-.4,3-.4,4.4c0,13.7.5,27.5,1.7,41.2c2.6,35.5-.7,74-.8,105.4-2,11.8.5,29.2-1.4,42-1.3,1.2-3.3.8-4-.5-.9-26.6.6-56,1.4-75.4ZM18.6,56.4l-.3,20l.2,14.7c.3,1,.7,1,1.5,1.2c1.1,3,.7,5.4-1.9,5-2.5-.6-2.5-34.7-2.2-40.7.6-1.8,1.9-1.3,2.7-.2ZM18,338c0-6.6-.5-65.2-.4-71.8c1.1-8.8-4.2-45.5-1-44.8s6.3,69.8,4.5,105.3c-.4,4,1,13.8-3,11.4Z" fill="#332020"/><ellipse rx="1.7" ry="8.4" transform="matrix(.99794-.06417 0.0893 0.996 27.51808 258.783772)" fill="#332020"/></g><g transform="translate(34.21773 732.164685)"><rect width="30.2" height="342" rx="1.2" ry="1.2" transform="translate(8.9 9.5)" fill="#77695d"/><path d="M44,1.3c1.1,6.5-.2,24.8-.2,32c0,6.2-1.2,13.4-.9,20.2c0,10,1,21,.7,30c0,16.4,0,34.5.6,49.3.9,19.8.5,39.5.6,59.2c0,7.3,1,19.4.3,29.2-1.3,3.7,1.3,125.5-1.4,128h-4.7c-.2-8.7-.3-129.4-.2-138c.2-29.3,0-58.5-.3-87.7-.3-1-1.2-1.2-1.7-2c0-15.3-1.8-35.2-1.8-45.4v-65.4L18.7,11l.2,19.8c.4.9,1.1,1.2,1.5,2c.7,25,.9,47.4.3,71.3-.5,21.4,1.4,45.6,1,65.4-.5,1.4-2.6.2-3.5-.3-3.5-27.8-2.3-56.5-1.8-80.6.456797-20.669671.189967-41.348997-.8-62-.2-5.2-.2-10.3,0-15.5-1-.3-4.9,0-6.5,0-.2,36,.4,73.1.8,109.7.5,13-.4,25.2.1,37.3c0,1.3-1,4.7,1.7,4c.7,12.8.9,37.3.4,52.7-1,1.8-1.3,2.3-.4,3.4c1.1,6-.5,124.7,0,131h-8c.3-7-.2-125.8-1.3-132.6.2-3,.3-7,0-11.8c0-1.4-.6-1.9-1.6-1.5l.3-31.4c2.6-6,3.3-11.2,1.3-20.3.6-13.2.6-26.4,0-39.5.2-22.9.3-42.5.1-63.8.4-16.3-.2-31.8-.2-46c12.3-1.7,31.4-1,41.7-1Z" fill="#332020"/><path d="M34.1,282c.2,8-3,10-3.1,0-.2-10-.7-85-1-104.9.2-2.2,1.4-2.9,2.4-1.4.2,4.5.7,8.7.8,13c.3,16.1.8,85.2,1,93.3ZM19.4,190.1c1.4-.9,2.7-1,3.4.4-.1,3.9-.3,7.5-.6,11-.6,2-1.8,2.6-2.8,1-.4-2.3-1.7-10.7,0-12.4ZM21,263.2c-2.2-24.7-3.5-31.6-1.1-32.4c2.3-.7,3.6,45.8,5.5,80c.5,5.3-2.3,34.1-5,32.9-2.8-1.3,2.9-56,.7-80.5Z" fill="#332020"/></g></g></g><g id="em8UvLjBOTQ50_to" transform="translate(602.151994,719.004097)"><g transform="translate(-787.549988,-25.691674)"><g transform="translate(538.713949 0.532124)"><rect width="1575" height="32.5" rx="0" ry="0" transform="translate(.1 7.6)" fill="#77695d"/><path d="M469.5,3.3c2.5.7,5,.7,7.5,0c32-.7,74.7,2,93.8,1.5c21-.8,44.6-.8,58.2.2c14.1,0,49.5,1.3,58-1c28.6,2.5,63,1.8,82,.3c1.7.8,3.3.8,5,0c29.4,1.8,71.1,1,83,.3c30,.7,57.4,1,84-.1c20.1.6,51.8.6,56.7-1c20.5,2.2,67.5,3,77.7.1c6,3,12.4.5,17.5.6c10,.5,20,.4,29.8-.2c11.2,2.6,24-.4,34.3.2c52,1.3,150.2,2.4,153,0c24.8.4,53.1.9,75.8,0c2.5-.8,5.1-1,7.7-.5c11.829027,1.700644,23.827985,1.868696,35.7.5c19,1.4,48-1,57,1c7.3-1.7,43-1.2,61.5-2c3.1.8,6.2.8,9.3,0c6,0,12,.2,18,1.1v6c-8.7-.6-19.5.2-26,.2-7.2,0-16,1-23-1-12.411165.963267-24.851937,1.496919-37.3,1.6-21.5.2-43.3.2-64.8,1.6-8.4,1.4-47,1.1-66.2.9-24.9-1.6-51.8-1.3-74.5-1.3-8.8,0-19.7-.7-29.7-.6-3.2.1-6,1.7-9.9,0-8.9,2.3-57.1.7-79.9.3-11.2-1.2-18.2-.2-27.7-.2-43.5-2-102.5,1.3-111.7-1.9-11.5.8-23.9.6-34.5.6-.4,0-1.5-.3-3.3-1-32.738365,1.748667-65.515179,2.682289-98.3,2.8-2.4,0-5.8,1-8.7,1-23,.2-45.8,1.1-68.8-.1-27.7-1.5-57.4-1-77.2-1-8,.5-27.8-.4-33,0-10.8.6-21.3.2-32,.3-15.3.2-34.3-.1-56.9-1-2.8-.5-4.8-.2-7.7.1L491.3,10.2c-13.7-.1-28,.6-41,.2-3.7-1.6-7.6,0-11.3,0-30.5.5-62.3,1.1-90.3,2-3.4.2-7.2,1-10.8,1-22.4.1-44.7,1.1-67.4-.2-23.6-1-47.1-1.2-71.2-1-8.5-.4-17.7-.2-25.3-.5-4-.2-6,1.9-10.2,0-12.2,1.4-25,.8-37.6.9-18.6,0-42.4.8-55.1-1-2.5-1.2-5,0-7.2,0-21.310211.433148-42.629208-.033935-63.9-1.4v-5.8c4.4,1.4,9.4,1.3,13.5.2c14.8.4,25.7-1.1,38.8.2c9.8.1,19.2-1,28.4-.4c29.2-.2,72,.7,83-.1c17.7,1.3,36,.6,53.8,0c28.7,0,77.7,2.7,86.7-.3c19.7,0,37.2.3,54.6,0l13,.1c3,1.9,11.1,0,14.7.2c6,.8,11.9.8,17.8-.2c23.4.2,52.2,1.2,65.2-.8ZM1386,34c11.3,4.3,76-1,77.6,1.6c35.6,2.6,71.7,1,111.4,2.6v6.8c-6.3,0-28,1-34.5.1-2.6-3.3-22.6-3.2-25-.2h-45.2c-1.9-2.7-14.7-2-19.8-1.4-10.187377-.624528-20.397657-.791363-30.6-.5-8.7,1-16.6-1.3-24.7-.8-9,.6-17.8,1-26.7,1.2-2.4-.6-5.7,0-7,1-7.9,1.9-36.8-2.4-38.5.1-18.864603,1.708098-37.847917,1.641137-56.7-.2-10.619652-1.257353-21.335524-1.491763-32-.7-1.3-1-2.6-1-3.8.3-16,2.9-38.7,1.6-49.3,1.4-7,1.5-17,.3-20.4,1.3-1.4-1.1-2.3-1-2.8.6-6.4,1.2-30.3-1.8-33.8,1-13.338915-1.057625-26.727066-1.358107-40.1-.9-3.2-2.7-20.9-1.3-29.5-2-18-1.4-39.7,1.7-55.6-.2.6-1.2,0-1.8-1.7-1.8-9.6-.3-17.3-.3-23.2,0-1.2.2-.7,1-.3,1.6-7.6-.2-15.1-.8-22.1-.4-11.438087.678199-22.913219.377102-34.3-.9-8.6-.8-17.2-.7-26.1-1.3-9.5-.2-42.8,2.1-47.6,1.3-11.4.3-21.6-1.4-32.5-.4-1.6,3.7,6.7,2.6-17.4,3-22.1-.2-38.8-1.6-64-1.4-5,.5-9.2-.2-12.8-1.4-7.1,2.5-47,3.5-68.6,2-40,1-81.3,2.4-118.1,1-13.4-.5-26.7-.7-40-.6-5.4-1-13-1-18.3,0l-12.5-.7c.4-1,0-1.6-1-1.7-5-.3-12.3-.5-21.6-.4-1.4,0-1.5.8-.9,1.9-6.6.2-13.7-.2-19.7-.2-9.3.2-18.7.1-28,0-1.3-2.6-11.2-1.7-13.6-1-15.597794,1.472828-31.318136,1.002562-46.8-1.4-14.7,1-29.5,1.3-44.3,1.4-32.4,3.6-42.8,3.8-93.4,1.5.2-1-.3-1.6-1.4-1.6-10.911983-.868932-21.870072-1.002568-32.8-.4-1.8.1-4.5-1.5-4.7,1.7-15.277176,1.12263-30.613621,1.189455-45.9.2-11.641437.034114-23.279521.40093-34.9,1.1-8,.5-18.6.2-28,1.7-14-2.1-29.7-1-42.5-1v-7c14.3-.3,28.7-.7,43-1.2c3.2-.1,6.3.6,9.3.3c19.2-1.5,37.7-.5,56.4-1.9c25.4-2,49.3,0,75.6.2c15.5.1,31.5,1.5,46.2,1.3c16.5-.3,34.4-.9,53.7-1.8c3.7,0,6.4-.8,8.7-2.7h55.2c9.6.1,23.7-.3,35.7.1c5.5,3,40.1,3.1,56.3,2.8c6,0,13.7.4,20.5.2c12-.2,24.2.3,36.3,1c9,.5,18.2.2,27,.7c19.223626.941121,38.48336.874363,57.7-.2c19,1.4,39.4-2.8,57.4-.8c22.920401-1.880143,45.946131-2.114077,68.9-.7c33.6,1.6,66.1,2,98.3.3c7.2,0,23.8-.5,25.8-3c22.1-1.9,46.3-.4,66-.5c6.6,1.4,26.8-2.4,28.5,1.7c21.6,1.5,43,1.2,64.6,1.4c20.7.1,33.4.3,38,.7c9.4.7,19,1,28.4.8c5.7,0,13.6,1,20.1,1c21-.8,39,.1,58.4-.8c12.4-.7,25-.7,37.3-1c18.3-.5,37.5-2.1,56-1.4c39,.4,79.5,2.5,116.6,1.2c7.5-1.7,35.4.4,40.1-3.7ZM285,17.9c.8.3,1,.9.7,1.6-.124567.398257-.483334.677298-.9.7-22.2,1.4-41.7,0-62.5,2-13,1.2-26,.8-39,1.8-1.5,0-2.5-.3-3.2-1.1-.8-1-.5-1.6.7-1.6c8.4-.6,16.7-1,25-1.3c9.4-.3,20.4-2,30.7-2h5.7c14.4-2.3,23.2-.2,42.8-.1Zm506.2-.2h33.8c5,3.9-13.4,2.8-15.5,2.8q-7.3-.2-40.5,1c-5.4.3-11.7,1.5-16.8,1.4q-14.6,0-29.2,1-2,.2-3-1-1.1-1.5.8-1.7q14.6-.9,29.3-1.3c5.4-.2,11.5-1.6,17.5-1.6q4.4,0,8.9-.3h3.8l10.9-.3Zm543.6,0h1.5l28.7.3c4.4,2.8-7.3,2.4-7.4,2.4q-26.3.1-52.6,1.4c-3.3.2-6.6,1-9.7,1q-16.4.2-32.8,1-1.3,0-2-.4l-.6-.6c-.173796-.299343-.180433-.667275-.017545-.97269s.472135-.504877.817545-.52731q15.2-1,30.4-1.5q3.2,0,6.7-.7c6.5-1.2,12.4-.5,18.7-1.1l18.3-.3ZM260,27q3.3.5,5.3-2c6.4-.8,12.3-1.4,19-1c9.4.5,19.8,1,28.4.9q4.3,0,10.5-.5q16-1,37.1,1c1.4.1,1.6,1.1,2.8,1.3c7.8.9,16-.2,22.8,0l10.4.7c4,.3,3.5,3,0,2.9-11.9-.5-23.7.3-35.6-.7q-18.1-1.5-36.2-.7c-13.4.5-25.4,0-38-.5-10.7-.4-21.2,1.1-31.8,1-.482761.009736-.903526-.326877-1-.8v-.3c0-.552285.447715-1,1-1L260,27Zm637-1.9q2.6,2.8,6.8,1.6q6.4.9,13,.3l13.4-.4q3.6.7,7.5,1.1c2.3.3,1.8,2.2,0,2.4-4.4.4-9.4-.1-13,0-7.9,0-15.3.3-23.5-.5q-21.1-1.8-42.3-.4-6.9.5-35.1-.9c-8-.3-19.3,1.6-29.2,1.1-.263769-.003757-.51537-.111586-.7-.3-2.3-2.8,7.7-2.3,8.6-2.3.151905.003076.296967-.063085.394234-.179805s.136184-.271335.105766-.420195v-.2c-.004868-.24138.163438-.451763.4-.5q12-2.3,19.5-1.7c13,1,26,1.8,39.9.6q12.3-1.2,34.1.8Zm545,1.6q6.8.8,14.7.2q10.3-.7,21.4,1c.290719.044195.54725.214106.701366.464544s.190192.556014.098634.835456q-.4,1.1-2.5,1c-11.2-.4-23.5.3-35.5-.6-25.1-2-47.2.3-75.3-1.2-10.3-.5-20.5,1.5-31,1-.181819-.019692-.354757-.088867-.5-.2-3-2.4,3.6-2.2,5.2-2.2.333467-.022504.633646-.210116.8-.5l.5-.7c.188854-.251806.485243-.4.8-.4c6.4-.4,13-1.7,19.2-1.5c9,.3,18,1,27.1.8c3.3,0,6.2.7,9.4.2c8.6-1.1,17.2-.4,25.9-.6q5-.2,18.6,1c.172967-.016256.336651.080995.405086.240677s.025973.345282-.105086.459323l-.1.2c-.076589.084961-.098199.206082-.055717.312287s.141662.17901.255717.187713ZM474.2,26l.1-.9c.051542-.512901.484522-.902583,1-.9q14.6,1.5,19.4,1.1c10-.7,19.8-.3,29.9-.7q6.3-.2,12.6,0c.303809-.006152.593934.12617.788467.359611s.27237.54267.211533.840389l-.2,1.7c0,.552285-.447715,1-1,1-12,.2-23.9-.2-36.1.7q-12.1,1-25.4-.7-2.4-.3-1.4-2.1l.1-.4Zm570.6-.9c2.9-1,7.8-.3,10.9-.2c6.7.1,14.2-.7,21.5-.1.333467.022504.633646.210116.8.5c1,2-.1,3-2.2,3.1-11.8.3-23.4,0-35.5.9q-12.8,1-25.6-1c-.473123-.096474-.809736-.517239-.8-1l.4-2.3c.100934-.513362.580514-.862147,1.1-.8q13.6,1.7,27.3.6l1.5.3c.195285.061414.404715.061414.6,0ZM1575,26.6v3q-10.1,0-20.2-1c-.2861-.022716-.548649-.167262-.72085-.396863s-.237451-.52212-.17915-.803137l.4-2.3c.096474-.473123.517239-.809736,1-.8l14,1c2,.1,3.8-1,5.7,1.3ZM687.2,28.9c-.135747.433309-.5464.720766-1,.7l-49.7,1.6c-10.4.4-31.5,2-47.3,2s-30.5.4-46.4.2c-.314757,0-.611146-.148194-.8-.4-2.8-4.4,14.6-3.5,16.3-3.5c12.4.1,24.8,0,37.2,0c4.4,0,9.2-1,14-1c7.6,0,14,.2,20.8-.8c2.1-.3,4,.2,6,0c5.4-.6,10.6,0,16-.6c10.7-1,22.3,0,33,.4c1,0,2.8-1.3,2,1.4ZM1081.8,31c.124567-.398257.483334-.677298.9-.7c9.6-1,18.7-.2,28.2-.7c10.9-.4,21.6.4,32.5-.8c4.9-.5,10.2,0,14.5-.3q35.9-2.2,51.8-1.6q12.3.4,16.7.3c.552285,0,1,.447715,1,1q0,1.5-2,1.5-40,.8-47.7,1.3c-34.4,2.4-62.5,2.3-93.9,2.5q-2.6,0-2-2.5ZM29.2,29.6c11.2,0,22.6.5,33.7-.7c8.5-.9,18,.1,25.7-.8c4.6-.6,8.2-.5,12.9-.8q15.1-.9,44.8.1c.378772,0,.725035.214002.894427.552786s.132836.744196-.094427,1.047214q-.6.9-2.3.9-30.7.1-61.3,2C57,33.6,31,33.3,4.4,33.6c-1.014849.030478-1.995384-.368999-2.7-1.1-1-1,1-2.3,2.2-2.4c8.5-.9,18.8-.4,25.3-.5Z" fill="#332020"/></g><rect width="1575" height="32.5" rx="0" ry="0" transform="translate(.1 7.6)" fill="#77695d"/><path d="M469.5,3.3c2.5.7,5,.7,7.5,0c32-.7,74.7,2,93.8,1.5c21-.8,44.6-.8,58.2.2c14.1,0,49.5,1.3,58-1c28.6,2.5,63,1.8,82,.3c1.7.8,3.3.8,5,0c29.4,1.8,71.1,1,83,.3c30,.7,57.4,1,84-.1c20.1.6,51.8.6,56.7-1c20.5,2.2,67.5,3,77.7.1c6,3,12.4.5,17.5.6c10,.5,20,.4,29.8-.2c11.2,2.6,24-.4,34.3.2c52,1.3,150.2,2.4,153,0c24.8.4,53.1.9,75.8,0c2.5-.8,5.1-1,7.7-.5c11.829027,1.700644,23.827985,1.868696,35.7.5c19,1.4,48-1,57,1c7.3-1.7,43-1.2,61.5-2c3.1.8,6.2.8,9.3,0c6,0,12,.2,18,1.1v6c-8.7-.6-19.5.2-26,.2-7.2,0-16,1-23-1-12.411165.963267-24.851937,1.496919-37.3,1.6-21.5.2-43.3.2-64.8,1.6-8.4,1.4-47,1.1-66.2.9-24.9-1.6-51.8-1.3-74.5-1.3-8.8,0-19.7-.7-29.7-.6-3.2.1-6,1.7-9.9,0-8.9,2.3-57.1.7-79.9.3-11.2-1.2-18.2-.2-27.7-.2-43.5-2-102.5,1.3-111.7-1.9-11.5.8-23.9.6-34.5.6-.4,0-1.5-.3-3.3-1-32.738365,1.748667-65.515179,2.682289-98.3,2.8-2.4,0-5.8,1-8.7,1-23,.2-45.8,1.1-68.8-.1-27.7-1.5-57.4-1-77.2-1-8,.5-27.8-.4-33,0-10.8.6-21.3.2-32,.3-15.3.2-34.3-.1-56.9-1-2.8-.5-4.8-.2-7.7.1L491.3,10.2c-13.7-.1-28,.6-41,.2-3.7-1.6-7.6,0-11.3,0-30.5.5-62.3,1.1-90.3,2-3.4.2-7.2,1-10.8,1-22.4.1-44.7,1.1-67.4-.2-23.6-1-47.1-1.2-71.2-1-8.5-.4-17.7-.2-25.3-.5-4-.2-6,1.9-10.2,0-12.2,1.4-25,.8-37.6.9-18.6,0-42.4.8-55.1-1-2.5-1.2-5,0-7.2,0-21.310211.433148-42.629208-.033935-63.9-1.4v-5.8c4.4,1.4,9.4,1.3,13.5.2c14.8.4,25.7-1.1,38.8.2c9.8.1,19.2-1,28.4-.4c29.2-.2,72,.7,83-.1c17.7,1.3,36,.6,53.8,0c28.7,0,77.7,2.7,86.7-.3c19.7,0,37.2.3,54.6,0l13,.1c3,1.9,11.1,0,14.7.2c6,.8,11.9.8,17.8-.2c23.4.2,52.2,1.2,65.2-.8ZM1386,34c11.3,4.3,76-1,77.6,1.6c35.6,2.6,71.7,1,111.4,2.6v6.8c-6.3,0-28,1-34.5.1-2.6-3.3-22.6-3.2-25-.2h-45.2c-1.9-2.7-14.7-2-19.8-1.4-10.187377-.624528-20.397657-.791363-30.6-.5-8.7,1-16.6-1.3-24.7-.8-9,.6-17.8,1-26.7,1.2-2.4-.6-5.7,0-7,1-7.9,1.9-36.8-2.4-38.5.1-18.864603,1.708098-37.847917,1.641137-56.7-.2-10.619652-1.257353-21.335524-1.491763-32-.7-1.3-1-2.6-1-3.8.3-16,2.9-38.7,1.6-49.3,1.4-7,1.5-17,.3-20.4,1.3-1.4-1.1-2.3-1-2.8.6-6.4,1.2-30.3-1.8-33.8,1-13.338915-1.057625-26.727066-1.358107-40.1-.9-3.2-2.7-20.9-1.3-29.5-2-18-1.4-39.7,1.7-55.6-.2.6-1.2,0-1.8-1.7-1.8-9.6-.3-17.3-.3-23.2,0-1.2.2-.7,1-.3,1.6-7.6-.2-15.1-.8-22.1-.4-11.438087.678199-22.913219.377102-34.3-.9-8.6-.8-17.2-.7-26.1-1.3-9.5-.2-42.8,2.1-47.6,1.3-11.4.3-21.6-1.4-32.5-.4-1.6,3.7,6.7,2.6-17.4,3-22.1-.2-38.8-1.6-64-1.4-5,.5-9.2-.2-12.8-1.4-7.1,2.5-47,3.5-68.6,2-40,1-81.3,2.4-118.1,1-13.4-.5-26.7-.7-40-.6-5.4-1-13-1-18.3,0l-12.5-.7c.4-1,0-1.6-1-1.7-5-.3-12.3-.5-21.6-.4-1.4,0-1.5.8-.9,1.9-6.6.2-13.7-.2-19.7-.2-9.3.2-18.7.1-28,0-1.3-2.6-11.2-1.7-13.6-1-15.597794,1.472828-31.318136,1.002562-46.8-1.4-14.7,1-29.5,1.3-44.3,1.4-32.4,3.6-42.8,3.8-93.4,1.5.2-1-.3-1.6-1.4-1.6-10.911983-.868932-21.870072-1.002568-32.8-.4-1.8.1-4.5-1.5-4.7,1.7-15.277176,1.12263-30.613621,1.189455-45.9.2-11.641437.034114-23.279521.40093-34.9,1.1-8,.5-18.6.2-28,1.7-14-2.1-29.7-1-42.5-1v-7c14.3-.3,28.7-.7,43-1.2c3.2-.1,6.3.6,9.3.3c19.2-1.5,37.7-.5,56.4-1.9c25.4-2,49.3,0,75.6.2c15.5.1,31.5,1.5,46.2,1.3c16.5-.3,34.4-.9,53.7-1.8c3.7,0,6.4-.8,8.7-2.7h55.2c9.6.1,23.7-.3,35.7.1c5.5,3,40.1,3.1,56.3,2.8c6,0,13.7.4,20.5.2c12-.2,24.2.3,36.3,1c9,.5,18.2.2,27,.7c19.223626.941121,38.48336.874363,57.7-.2c19,1.4,39.4-2.8,57.4-.8c22.920401-1.880143,45.946131-2.114077,68.9-.7c33.6,1.6,66.1,2,98.3.3c7.2,0,23.8-.5,25.8-3c22.1-1.9,46.3-.4,66-.5c6.6,1.4,26.8-2.4,28.5,1.7c21.6,1.5,43,1.2,64.6,1.4c20.7.1,33.4.3,38,.7c9.4.7,19,1,28.4.8c5.7,0,13.6,1,20.1,1c21-.8,39,.1,58.4-.8c12.4-.7,25-.7,37.3-1c18.3-.5,37.5-2.1,56-1.4c39,.4,79.5,2.5,116.6,1.2c7.5-1.7,35.4.4,40.1-3.7ZM285,17.9c.8.3,1,.9.7,1.6-.124567.398257-.483334.677298-.9.7-22.2,1.4-41.7,0-62.5,2-13,1.2-26,.8-39,1.8-1.5,0-2.5-.3-3.2-1.1-.8-1-.5-1.6.7-1.6c8.4-.6,16.7-1,25-1.3c9.4-.3,20.4-2,30.7-2h5.7c14.4-2.3,23.2-.2,42.8-.1Zm506.2-.2h33.8c5,3.9-13.4,2.8-15.5,2.8q-7.3-.2-40.5,1c-5.4.3-11.7,1.5-16.8,1.4q-14.6,0-29.2,1-2,.2-3-1-1.1-1.5.8-1.7q14.6-.9,29.3-1.3c5.4-.2,11.5-1.6,17.5-1.6q4.4,0,8.9-.3h3.8l10.9-.3Zm543.6,0h1.5l28.7.3c4.4,2.8-7.3,2.4-7.4,2.4q-26.3.1-52.6,1.4c-3.3.2-6.6,1-9.7,1q-16.4.2-32.8,1-1.3,0-2-.4l-.6-.6c-.173796-.299343-.180433-.667275-.017545-.97269s.472135-.504877.817545-.52731q15.2-1,30.4-1.5q3.2,0,6.7-.7c6.5-1.2,12.4-.5,18.7-1.1l18.3-.3ZM260,27q3.3.5,5.3-2c6.4-.8,12.3-1.4,19-1c9.4.5,19.8,1,28.4.9q4.3,0,10.5-.5q16-1,37.1,1c1.4.1,1.6,1.1,2.8,1.3c7.8.9,16-.2,22.8,0l10.4.7c4,.3,3.5,3,0,2.9-11.9-.5-23.7.3-35.6-.7q-18.1-1.5-36.2-.7c-13.4.5-25.4,0-38-.5-10.7-.4-21.2,1.1-31.8,1-.482761.009736-.903526-.326877-1-.8v-.3c0-.552285.447715-1,1-1L260,27Zm637-1.9q2.6,2.8,6.8,1.6q6.4.9,13,.3l13.4-.4q3.6.7,7.5,1.1c2.3.3,1.8,2.2,0,2.4-4.4.4-9.4-.1-13,0-7.9,0-15.3.3-23.5-.5q-21.1-1.8-42.3-.4-6.9.5-35.1-.9c-8-.3-19.3,1.6-29.2,1.1-.263769-.003757-.51537-.111586-.7-.3-2.3-2.8,7.7-2.3,8.6-2.3.151905.003076.296967-.063085.394234-.179805s.136184-.271335.105766-.420195v-.2c-.004868-.24138.163438-.451763.4-.5q12-2.3,19.5-1.7c13,1,26,1.8,39.9.6q12.3-1.2,34.1.8Zm545,1.6q6.8.8,14.7.2q10.3-.7,21.4,1c.290719.044195.54725.214106.701366.464544s.190192.556014.098634.835456q-.4,1.1-2.5,1c-11.2-.4-23.5.3-35.5-.6-25.1-2-47.2.3-75.3-1.2-10.3-.5-20.5,1.5-31,1-.181819-.019692-.354757-.088867-.5-.2-3-2.4,3.6-2.2,5.2-2.2.333467-.022504.633646-.210116.8-.5l.5-.7c.188854-.251806.485243-.4.8-.4c6.4-.4,13-1.7,19.2-1.5c9,.3,18,1,27.1.8c3.3,0,6.2.7,9.4.2c8.6-1.1,17.2-.4,25.9-.6q5-.2,18.6,1c.172967-.016256.336651.080995.405086.240677s.025973.345282-.105086.459323l-.1.2c-.076589.084961-.098199.206082-.055717.312287s.141662.17901.255717.187713ZM474.2,26l.1-.9c.051542-.512901.484522-.902583,1-.9q14.6,1.5,19.4,1.1c10-.7,19.8-.3,29.9-.7q6.3-.2,12.6,0c.303809-.006152.593934.12617.788467.359611s.27237.54267.211533.840389l-.2,1.7c0,.552285-.447715,1-1,1-12,.2-23.9-.2-36.1.7q-12.1,1-25.4-.7-2.4-.3-1.4-2.1l.1-.4Zm570.6-.9c2.9-1,7.8-.3,10.9-.2c6.7.1,14.2-.7,21.5-.1.333467.022504.633646.210116.8.5c1,2-.1,3-2.2,3.1-11.8.3-23.4,0-35.5.9q-12.8,1-25.6-1c-.473123-.096474-.809736-.517239-.8-1l.4-2.3c.100934-.513362.580514-.862147,1.1-.8q13.6,1.7,27.3.6l1.5.3c.195285.061414.404715.061414.6,0ZM1575,26.6v3q-10.1,0-20.2-1c-.2861-.022716-.548649-.167262-.72085-.396863s-.237451-.52212-.17915-.803137l.4-2.3c.096474-.473123.517239-.809736,1-.8l14,1c2,.1,3.8-1,5.7,1.3ZM687.2,28.9c-.135747.433309-.5464.720766-1,.7l-49.7,1.6c-10.4.4-31.5,2-47.3,2s-30.5.4-46.4.2c-.314757,0-.611146-.148194-.8-.4-2.8-4.4,14.6-3.5,16.3-3.5c12.4.1,24.8,0,37.2,0c4.4,0,9.2-1,14-1c7.6,0,14,.2,20.8-.8c2.1-.3,4,.2,6,0c5.4-.6,10.6,0,16-.6c10.7-1,22.3,0,33,.4c1,0,2.8-1.3,2,1.4ZM1081.8,31c.124567-.398257.483334-.677298.9-.7c9.6-1,18.7-.2,28.2-.7c10.9-.4,21.6.4,32.5-.8c4.9-.5,10.2,0,14.5-.3q35.9-2.2,51.8-1.6q12.3.4,16.7.3c.552285,0,1,.447715,1,1q0,1.5-2,1.5-40,.8-47.7,1.3c-34.4,2.4-62.5,2.3-93.9,2.5q-2.6,0-2-2.5ZM29.2,29.6c11.2,0,22.6.5,33.7-.7c8.5-.9,18,.1,25.7-.8c4.6-.6,8.2-.5,12.9-.8q15.1-.9,44.8.1c.378772,0,.725035.214002.894427.552786s.132836.744196-.094427,1.047214q-.6.9-2.3.9-30.7.1-61.3,2C57,33.6,31,33.3,4.4,33.6c-1.014849.030478-1.995384-.368999-2.7-1.1-1-1,1-2.3,2.2-2.4c8.5-.9,18.8-.4,25.3-.5Z" fill="#332020"/></g></g><g id="em8UvLjBOTQ56_to" transform="translate(779.228089,962.986938)"><g transform="translate(-288.87613,-962.986938)"><g transform="translate(1099.65 845.113559)"><rect width="32.1" height="230" rx="0" ry="0" transform="translate(8.1 6)" fill="#887b6c"/><path d="M48,1v7.6c-.5.7-1.2,1-1.6,1.4-.7,5.6.6,9.4,1.3,14.8-1.7,1.5-1.8,2.8-1.2,4.5-.6,3.6-.5,7.1,0,10.7l-2,21.7c-1,2.2-1.8,6.8,0,10.8.5,19.1-.2,38.4,1.5,57.5.1,14,0,28-.2,42c.3,1.9.3,3.3.4,4.6l-1.9,46.9-.1,11.5h-7.3c-.3-8-.2-16.1.4-24.2c1.73028-5.69547,2.308202-11.678653,1.7-17.6c1.2-24.9.4-46.7-.4-71.5c0-1.5-1-2-1.5-3-1.7-22-2.2-34.2-1.1-54c.6-12,.7-23.9,1.1-35c1.6,0,3-1.8,1.3-2.4-1.8-.6-2.1-2-.9-4.3c2.4,1.4,1.3-9.8.9-15.2l-29-.2c0,22,1,45-1.1,65c.5,51.8-.6,100.2,2,144.9v17.5h-6.1c-.2-9.1-.7-18.2-1.7-27.2c1.9-25-1-50.9.5-74.5c0-2.2.3-4.7-2-4.6L1.3,85c3.2-1.5,1.3-5.6,1-6.8C4.7,51.4,2,25.5,2.2,0.7c9.8,0,35.4.5,45.7.3Z" fill="#332020"/><path d="M19.5,13.3c-.6,2-.9,5.3,1.2,5.2.6,2.1-.9,1.9-1.6,3-.2,3.2-.7,6.3-1.4,9.3-1,4.2-1.7,4.1-2-.2-.34695-5.330046.057001-10.682403,1.2-15.9.3-1.4,1.2-1.8,2.6-1.4ZM28,156c1,0,1.2-.4,1.5-1.1.8-23.5,1.8-49.1.2-70.2.202535-3.171907.068453-6.356345-.4-9.5-.3-.7-1-1-1.5-1.4-.6-11-.9-22-.9-33c.5-2.7,2.1-4,4.6-2c0,1.5-.4,3-.4,4.4c0,13.8.5,27.5,1.7,41.2c2.6,35.5-.7,74-.8,105.5-2,11.7.5,29.1-1.4,41.9-1.4,1.3-3.3.9-4-.4-.9-26.6.6-56,1.4-75.4ZM19.3,56c0,6.7-.2,13.3-.3,20l.2,14.8c.3.9.7,1,1.5,1.2c1.1,2.9.7,5.4-1.9,4.9s-2.5-34.6-2.2-40.6c.6-1.8,1.9-1.4,2.6-.3Z" fill="#332020"/></g><g transform="translate(808.147976 843.712642)"><rect width="30.2" height="228.4" rx="1.2" ry="1.2" transform="translate(8.1 8.4)" fill="#887b6c"/><path d="M43.3,0.2c1,6.5-.3,24.8-.3,32c0,6.2-1.1,13.4-.8,20.3c0,10,1,21,.6,29.9c0,16.5,0,34.5.6,49.4.9,19.7.5,39.4.6,59c0,7.4,1,19.5.3,29.3-1.3,3.8,1.3,13.4-1.4,15.9h-4.7c-.2-8.7-.3-17.3-.2-26c.2-29.2,0-58.4-.2-87.6-.4-1-1.3-1.2-1.8-2c.1-15.3-1.8-35.2-1.8-45.4v-65.4L18,10l.3,19.8c.4,1,1,1.2,1.4,2c.7,25,.9,47.4.3,71.3-.5,21.4,1.4,45.6,1,65.4-.4,1.4-2.5.3-3.5-.3-3.5-27.8-2.2-56.5-1.7-80.5.459133-20.702988.192302-41.41571-.8-62.1-.3-5.1-.3-10.3,0-15.4-1.1-.4-5-.1-6.6-.1C8,46,8.8,83,9,119.8c.5,12.9-.3,25.1.1,37.2.1,1.3-1,4.7,1.8,4c.6,12.8.8,37.3.4,52.7-1.2,1.8-1.4,2.3-.5,3.4c1.1,6-.4,12.6,0,18.9h-8c.3-6.9-.1-13.7-1.3-20.5.3-3,.3-7,0-11.8c0-1.4-.6-1.9-1.6-1.5l.3-31.4c2.7-5.9,3.4-11.2,1.3-20.3.6-13.2.6-26.3,0-39.5.2-22.9.4-42.5.2-63.8.4-16.3-.3-31.8-.3-46c12.4-1.6,31.6-.9,41.9-.9Z" fill="#332020"/><path d="M33.4,236h-3.2l-1-60c.2-2.2,1.4-2.8,2.5-1.4c0,4.5.7,8.7.7,13l1,48.4ZM18.6,189c1.5-.8,2.7-1,3.4.4c0,3.9-.3,7.5-.6,11-.6,2-1.7,2.6-2.8,1-.4-2.2-1.7-10.7,0-12.4Z" fill="#332020"/></g><g transform="translate(538.988845 845.113559)"><rect width="32.1" height="230" rx="0" ry="0" transform="translate(8.1 6)" fill="#887b6c"/><path d="M48,1v7.6c-.5.7-1.2,1-1.6,1.4-.7,5.6.6,9.4,1.3,14.8-1.7,1.5-1.8,2.8-1.2,4.5-.6,3.6-.5,7.1,0,10.7l-2,21.7c-1,2.2-1.8,6.8,0,10.8.5,19.1-.2,38.4,1.5,57.5.1,14,0,28-.2,42c.3,1.9.3,3.3.4,4.6l-1.9,46.9-.1,11.5h-7.3c-.3-8-.2-16.1.4-24.2c1.73028-5.69547,2.308202-11.678653,1.7-17.6c1.2-24.9.4-46.7-.4-71.5c0-1.5-1-2-1.5-3-1.7-22-2.2-34.2-1.1-54c.6-12,.7-23.9,1.1-35c1.6,0,3-1.8,1.3-2.4-1.8-.6-2.1-2-.9-4.3c2.4,1.4,1.3-9.8.9-15.2l-29-.2c0,22,1,45-1.1,65c.5,51.8-.6,100.2,2,144.9v17.5h-6.1c-.2-9.1-.7-18.2-1.7-27.2c1.9-25-1-50.9.5-74.5c0-2.2.3-4.7-2-4.6L1.3,85c3.2-1.5,1.3-5.6,1-6.8C4.7,51.4,2,25.5,2.2,0.7c9.8,0,35.4.5,45.7.3Z" fill="#332020"/><path d="M19.5,13.3c-.6,2-.9,5.3,1.2,5.2.6,2.1-.9,1.9-1.6,3-.2,3.2-.7,6.3-1.4,9.3-1,4.2-1.7,4.1-2-.2-.34695-5.330046.057001-10.682403,1.2-15.9.3-1.4,1.2-1.8,2.6-1.4ZM28,156c1,0,1.2-.4,1.5-1.1.8-23.5,1.8-49.1.2-70.2.202535-3.171907.068453-6.356345-.4-9.5-.3-.7-1-1-1.5-1.4-.6-11-.9-22-.9-33c.5-2.7,2.1-4,4.6-2c0,1.5-.4,3-.4,4.4c0,13.8.5,27.5,1.7,41.2c2.6,35.5-.7,74-.8,105.5-2,11.7.5,29.1-1.4,41.9-1.4,1.3-3.3.9-4-.4-.9-26.6.6-56,1.4-75.4ZM19.3,56c0,6.7-.2,13.3-.3,20l.2,14.8c.3.9.7,1,1.5,1.2c1.1,2.9.7,5.4-1.9,4.9s-2.5-34.6-2.2-40.6c.6-1.8,1.9-1.4,2.6-.3Z" fill="#332020"/></g><g transform="translate(268.71267 843.712642)"><rect width="30.2" height="228.4" rx="1.2" ry="1.2" transform="translate(8.1 8.4)" fill="#887b6c"/><path d="M43.3,0.2c1,6.5-.3,24.8-.3,32c0,6.2-1.1,13.4-.8,20.3c0,10,1,21,.6,29.9c0,16.5,0,34.5.6,49.4.9,19.7.5,39.4.6,59c0,7.4,1,19.5.3,29.3-1.3,3.8,1.3,13.4-1.4,15.9h-4.7c-.2-8.7-.3-17.3-.2-26c.2-29.2,0-58.4-.2-87.6-.4-1-1.3-1.2-1.8-2c.1-15.3-1.8-35.2-1.8-45.4v-65.4L18,10l.3,19.8c.4,1,1,1.2,1.4,2c.7,25,.9,47.4.3,71.3-.5,21.4,1.4,45.6,1,65.4-.4,1.4-2.5.3-3.5-.3-3.5-27.8-2.2-56.5-1.7-80.5.459133-20.702988.192302-41.41571-.8-62.1-.3-5.1-.3-10.3,0-15.4-1.1-.4-5-.1-6.6-.1C8,46,8.8,83,9,119.8c.5,12.9-.3,25.1.1,37.2.1,1.3-1,4.7,1.8,4c.6,12.8.8,37.3.4,52.7-1.2,1.8-1.4,2.3-.5,3.4c1.1,6-.4,12.6,0,18.9h-8c.3-6.9-.1-13.7-1.3-20.5.3-3,.3-7,0-11.8c0-1.4-.6-1.9-1.6-1.5l.3-31.4c2.7-5.9,3.4-11.2,1.3-20.3.6-13.2.6-26.3,0-39.5.2-22.9.4-42.5.2-63.8.4-16.3-.3-31.8-.3-46c12.4-1.6,31.6-.9,41.9-.9Z" fill="#332020"/><path d="M33.4,236h-3.2l-1-60c.2-2.2,1.4-2.8,2.5-1.4c0,4.5.7,8.7.7,13l1,48.4ZM18.6,189c1.5-.8,2.7-1,3.4.4c0,3.9-.3,7.5-.6,11-.6,2-1.7,2.6-2.8,1-.4-2.2-1.7-10.7,0-12.4Z" fill="#332020"/></g><g transform="translate(-.337742 846.113559)"><rect width="32.1" height="230" rx="0" ry="0" transform="translate(8.1 6)" fill="#887b6c"/><path d="M48,1v7.6c-.5.7-1.2,1-1.6,1.4-.7,5.6.6,9.4,1.3,14.8-1.7,1.5-1.8,2.8-1.2,4.5-.6,3.6-.5,7.1,0,10.7l-2,21.7c-1,2.2-1.8,6.8,0,10.8.5,19.1-.2,38.4,1.5,57.5.1,14,0,28-.2,42c.3,1.9.3,3.3.4,4.6l-1.9,46.9-.1,11.5h-7.3c-.3-8-.2-16.1.4-24.2c1.73028-5.69547,2.308202-11.678653,1.7-17.6c1.2-24.9.4-46.7-.4-71.5c0-1.5-1-2-1.5-3-1.7-22-2.2-34.2-1.1-54c.6-12,.7-23.9,1.1-35c1.6,0,3-1.8,1.3-2.4-1.8-.6-2.1-2-.9-4.3c2.4,1.4,1.3-9.8.9-15.2l-29-.2c0,22,1,45-1.1,65c.5,51.8-.6,100.2,2,144.9v17.5h-6.1c-.2-9.1-.7-18.2-1.7-27.2c1.9-25-1-50.9.5-74.5c0-2.2.3-4.7-2-4.6L1.3,85c3.2-1.5,1.3-5.6,1-6.8C4.7,51.4,2,25.5,2.2,0.7c9.8,0,35.4.5,45.7.3Z" fill="#332020"/><path d="M19.5,13.3c-.6,2-.9,5.3,1.2,5.2.6,2.1-.9,1.9-1.6,3-.2,3.2-.7,6.3-1.4,9.3-1,4.2-1.7,4.1-2-.2-.34695-5.330046.057001-10.682403,1.2-15.9.3-1.4,1.2-1.8,2.6-1.4ZM28,156c1,0,1.2-.4,1.5-1.1.8-23.5,1.8-49.1.2-70.2.202535-3.171907.068453-6.356345-.4-9.5-.3-.7-1-1-1.5-1.4-.6-11-.9-22-.9-33c.5-2.7,2.1-4,4.6-2c0,1.5-.4,3-.4,4.4c0,13.8.5,27.5,1.7,41.2c2.6,35.5-.7,74-.8,105.5-2,11.7.5,29.1-1.4,41.9-1.4,1.3-3.3.9-4-.4-.9-26.6.6-56,1.4-75.4ZM19.3,56c0,6.7-.2,13.3-.3,20l.2,14.8c.3.9.7,1,1.5,1.2c1.1,2.9.7,5.4-1.9,4.9s-2.5-34.6-2.2-40.6c.6-1.8,1.9-1.4,2.6-.3Z" fill="#332020"/></g><g transform="translate(-269.844348 844.712642)"><rect width="30.2" height="228.4" rx="1.2" ry="1.2" transform="translate(8.1 8.4)" fill="#887b6c"/><path d="M43.3,0.2c1,6.5-.3,24.8-.3,32c0,6.2-1.1,13.4-.8,20.3c0,10,1,21,.6,29.9c0,16.5,0,34.5.6,49.4.9,19.7.5,39.4.6,59c0,7.4,1,19.5.3,29.3-1.3,3.8,1.3,13.4-1.4,15.9h-4.7c-.2-8.7-.3-17.3-.2-26c.2-29.2,0-58.4-.2-87.6-.4-1-1.3-1.2-1.8-2c.1-15.3-1.8-35.2-1.8-45.4v-65.4L18,10l.3,19.8c.4,1,1,1.2,1.4,2c.7,25,.9,47.4.3,71.3-.5,21.4,1.4,45.6,1,65.4-.4,1.4-2.5.3-3.5-.3-3.5-27.8-2.2-56.5-1.7-80.5.459133-20.702988.192302-41.41571-.8-62.1-.3-5.1-.3-10.3,0-15.4-1.1-.4-5-.1-6.6-.1C8,46,8.8,83,9,119.8c.5,12.9-.3,25.1.1,37.2.1,1.3-1,4.7,1.8,4c.6,12.8.8,37.3.4,52.7-1.2,1.8-1.4,2.3-.5,3.4c1.1,6-.4,12.6,0,18.9h-8c.3-6.9-.1-13.7-1.3-20.5.3-3,.3-7,0-11.8c0-1.4-.6-1.9-1.6-1.5l.3-31.4c2.7-5.9,3.4-11.2,1.3-20.3.6-13.2.6-26.3,0-39.5.2-22.9.4-42.5.2-63.8.4-16.3-.3-31.8-.3-46c12.4-1.6,31.6-.9,41.9-.9Z" fill="#332020"/><path d="M33.4,236h-3.2l-1-60c.2-2.2,1.4-2.8,2.5-1.4c0,4.5.7,8.7.7,13l1,48.4ZM18.6,189c1.5-.8,2.7-1,3.4.4c0,3.9-.3,7.5-.6,11-.6,2-1.7,2.6-2.8,1-.4-2.2-1.7-10.7,0-12.4Z" fill="#332020"/></g></g></g><g id="em8UvLjBOTQ81_to" transform="translate(787.89802,833.130736)"><g transform="translate(-787.549988,-25.691674)"><g transform="translate(538.760012 0)"><rect width="1575" height="32.5" rx="0" ry="0" transform="translate(.1 7.6)" fill="#887b6c"/><path d="M469.5,3.3c2.5.7,5,.7,7.5,0c32-.7,74.7,2,93.8,1.5c21-.8,44.6-.8,58.2.2c14.1,0,49.5,1.3,58-1c28.6,2.5,63,1.8,82,.3c1.7.8,3.3.8,5,0c29.4,1.8,71.1,1,83,.3c30,.7,57.4,1,84-.1c20.1.6,51.8.6,56.7-1c20.5,2.2,67.5,3,77.7.1c6,3,12.4.5,17.5.6c10,.5,20,.4,29.8-.2c11.2,2.6,24-.4,34.3.2c52,1.3,150.2,2.4,153,0c24.8.4,53.1.9,75.8,0c2.5-.8,5.1-1,7.7-.5c11.829027,1.700644,23.827985,1.868696,35.7.5c19,1.4,48-1,57,1c7.3-1.7,43-1.2,61.5-2c3.1.8,6.2.8,9.3,0c6,0,12,.2,18,1.1v6c-8.7-.6-19.5.2-26,.2-7.2,0-16,1-23-1-12.411165.963267-24.851937,1.496919-37.3,1.6-21.5.2-43.3.2-64.8,1.6-8.4,1.4-47,1.1-66.2.9-24.9-1.6-51.8-1.3-74.5-1.3-8.8,0-19.7-.7-29.7-.6-3.2.1-6,1.7-9.9,0-8.9,2.3-57.1.7-79.9.3-11.2-1.2-18.2-.2-27.7-.2-43.5-2-102.5,1.3-111.7-1.9-11.5.8-23.9.6-34.5.6-.4,0-1.5-.3-3.3-1-32.738365,1.748667-65.515179,2.682289-98.3,2.8-2.4,0-5.8,1-8.7,1-23,.2-45.8,1.1-68.8-.1-27.7-1.5-57.4-1-77.2-1-8,.5-27.8-.4-33,0-10.8.6-21.3.2-32,.3-15.3.2-34.3-.1-56.9-1-2.8-.5-4.8-.2-7.7.1L491.3,10.2c-13.7-.1-28,.6-41,.2-3.7-1.6-7.6,0-11.3,0-30.5.5-62.3,1.1-90.3,2-3.4.2-7.2,1-10.8,1-22.4.1-44.7,1.1-67.4-.2-23.6-1-47.1-1.2-71.2-1-8.5-.4-17.7-.2-25.3-.5-4-.2-6,1.9-10.2,0-12.2,1.4-25,.8-37.6.9-18.6,0-42.4.8-55.1-1-2.5-1.2-5,0-7.2,0-21.310211.433148-42.629208-.033935-63.9-1.4v-5.8c4.4,1.4,9.4,1.3,13.5.2c14.8.4,25.7-1.1,38.8.2c9.8.1,19.2-1,28.4-.4c29.2-.2,72,.7,83-.1c17.7,1.3,36,.6,53.8,0c28.7,0,77.7,2.7,86.7-.3c19.7,0,37.2.3,54.6,0l13,.1c3,1.9,11.1,0,14.7.2c6,.8,11.9.8,17.8-.2c23.4.2,52.2,1.2,65.2-.8ZM1386,34c11.3,4.3,76-1,77.6,1.6c35.6,2.6,71.7,1,111.4,2.6v6.8c-6.3,0-28,1-34.5.1-2.6-3.3-22.6-3.2-25-.2h-45.2c-1.9-2.7-14.7-2-19.8-1.4-10.187377-.624528-20.397657-.791363-30.6-.5-8.7,1-16.6-1.3-24.7-.8-9,.6-17.8,1-26.7,1.2-2.4-.6-5.7,0-7,1-7.9,1.9-36.8-2.4-38.5.1-18.864603,1.708098-37.847917,1.641137-56.7-.2-10.619652-1.257353-21.335524-1.491763-32-.7-1.3-1-2.6-1-3.8.3-16,2.9-38.7,1.6-49.3,1.4-7,1.5-17,.3-20.4,1.3-1.4-1.1-2.3-1-2.8.6-6.4,1.2-30.3-1.8-33.8,1-13.338915-1.057625-26.727066-1.358107-40.1-.9-3.2-2.7-20.9-1.3-29.5-2-18-1.4-39.7,1.7-55.6-.2.6-1.2,0-1.8-1.7-1.8-9.6-.3-17.3-.3-23.2,0-1.2.2-.7,1-.3,1.6-7.6-.2-15.1-.8-22.1-.4-11.438087.678199-22.913219.377102-34.3-.9-8.6-.8-17.2-.7-26.1-1.3-9.5-.2-42.8,2.1-47.6,1.3-11.4.3-21.6-1.4-32.5-.4-1.6,3.7,6.7,2.6-17.4,3-22.1-.2-38.8-1.6-64-1.4-5,.5-9.2-.2-12.8-1.4-7.1,2.5-47,3.5-68.6,2-40,1-81.3,2.4-118.1,1-13.4-.5-26.7-.7-40-.6-5.4-1-13-1-18.3,0l-12.5-.7c.4-1,0-1.6-1-1.7-5-.3-12.3-.5-21.6-.4-1.4,0-1.5.8-.9,1.9-6.6.2-13.7-.2-19.7-.2-9.3.2-18.7.1-28,0-1.3-2.6-11.2-1.7-13.6-1-15.597794,1.472828-31.318136,1.002562-46.8-1.4-14.7,1-29.5,1.3-44.3,1.4-32.4,3.6-42.8,3.8-93.4,1.5.2-1-.3-1.6-1.4-1.6-10.911983-.868932-21.870072-1.002568-32.8-.4-1.8.1-4.5-1.5-4.7,1.7-15.277176,1.12263-30.613621,1.189455-45.9.2-11.641437.034114-23.279521.40093-34.9,1.1-8,.5-18.6.2-28,1.7-14-2.1-29.7-1-42.5-1v-7c14.3-.3,28.7-.7,43-1.2c3.2-.1,6.3.6,9.3.3c19.2-1.5,37.7-.5,56.4-1.9c25.4-2,49.3,0,75.6.2c15.5.1,31.5,1.5,46.2,1.3c16.5-.3,34.4-.9,53.7-1.8c3.7,0,6.4-.8,8.7-2.7h55.2c9.6.1,23.7-.3,35.7.1c5.5,3,40.1,3.1,56.3,2.8c6,0,13.7.4,20.5.2c12-.2,24.2.3,36.3,1c9,.5,18.2.2,27,.7c19.223626.941121,38.48336.874363,57.7-.2c19,1.4,39.4-2.8,57.4-.8c22.920401-1.880143,45.946131-2.114077,68.9-.7c33.6,1.6,66.1,2,98.3.3c7.2,0,23.8-.5,25.8-3c22.1-1.9,46.3-.4,66-.5c6.6,1.4,26.8-2.4,28.5,1.7c21.6,1.5,43,1.2,64.6,1.4c20.7.1,33.4.3,38,.7c9.4.7,19,1,28.4.8c5.7,0,13.6,1,20.1,1c21-.8,39,.1,58.4-.8c12.4-.7,25-.7,37.3-1c18.3-.5,37.5-2.1,56-1.4c39,.4,79.5,2.5,116.6,1.2c7.5-1.7,35.4.4,40.1-3.7ZM285,17.9c.8.3,1,.9.7,1.6-.124567.398257-.483334.677298-.9.7-22.2,1.4-41.7,0-62.5,2-13,1.2-26,.8-39,1.8-1.5,0-2.5-.3-3.2-1.1-.8-1-.5-1.6.7-1.6c8.4-.6,16.7-1,25-1.3c9.4-.3,20.4-2,30.7-2h5.7c14.4-2.3,23.2-.2,42.8-.1Zm506.2-.2h33.8c5,3.9-13.4,2.8-15.5,2.8q-7.3-.2-40.5,1c-5.4.3-11.7,1.5-16.8,1.4q-14.6,0-29.2,1-2,.2-3-1-1.1-1.5.8-1.7q14.6-.9,29.3-1.3c5.4-.2,11.5-1.6,17.5-1.6q4.4,0,8.9-.3h3.8l10.9-.3Zm543.6,0h1.5l28.7.3c4.4,2.8-7.3,2.4-7.4,2.4q-26.3.1-52.6,1.4c-3.3.2-6.6,1-9.7,1q-16.4.2-32.8,1-1.3,0-2-.4l-.6-.6c-.173796-.299343-.180433-.667275-.017545-.97269s.472135-.504877.817545-.52731q15.2-1,30.4-1.5q3.2,0,6.7-.7c6.5-1.2,12.4-.5,18.7-1.1l18.3-.3ZM260,27q3.3.5,5.3-2c6.4-.8,12.3-1.4,19-1c9.4.5,19.8,1,28.4.9q4.3,0,10.5-.5q16-1,37.1,1c1.4.1,1.6,1.1,2.8,1.3c7.8.9,16-.2,22.8,0l10.4.7c4,.3,3.5,3,0,2.9-11.9-.5-23.7.3-35.6-.7q-18.1-1.5-36.2-.7c-13.4.5-25.4,0-38-.5-10.7-.4-21.2,1.1-31.8,1-.482761.009736-.903526-.326877-1-.8v-.3c0-.552285.447715-1,1-1L260,27Zm637-1.9q2.6,2.8,6.8,1.6q6.4.9,13,.3l13.4-.4q3.6.7,7.5,1.1c2.3.3,1.8,2.2,0,2.4-4.4.4-9.4-.1-13,0-7.9,0-15.3.3-23.5-.5q-21.1-1.8-42.3-.4-6.9.5-35.1-.9c-8-.3-19.3,1.6-29.2,1.1-.263769-.003757-.51537-.111586-.7-.3-2.3-2.8,7.7-2.3,8.6-2.3.151905.003076.296967-.063085.394234-.179805s.136184-.271335.105766-.420195v-.2c-.004868-.24138.163438-.451763.4-.5q12-2.3,19.5-1.7c13,1,26,1.8,39.9.6q12.3-1.2,34.1.8Zm545,1.6q6.8.8,14.7.2q10.3-.7,21.4,1c.290719.044195.54725.214106.701366.464544s.190192.556014.098634.835456q-.4,1.1-2.5,1c-11.2-.4-23.5.3-35.5-.6-25.1-2-47.2.3-75.3-1.2-10.3-.5-20.5,1.5-31,1-.181819-.019692-.354757-.088867-.5-.2-3-2.4,3.6-2.2,5.2-2.2.333467-.022504.633646-.210116.8-.5l.5-.7c.188854-.251806.485243-.4.8-.4c6.4-.4,13-1.7,19.2-1.5c9,.3,18,1,27.1.8c3.3,0,6.2.7,9.4.2c8.6-1.1,17.2-.4,25.9-.6q5-.2,18.6,1c.172967-.016256.336651.080995.405086.240677s.025973.345282-.105086.459323l-.1.2c-.076589.084961-.098199.206082-.055717.312287s.141662.17901.255717.187713ZM474.2,26l.1-.9c.051542-.512901.484522-.902583,1-.9q14.6,1.5,19.4,1.1c10-.7,19.8-.3,29.9-.7q6.3-.2,12.6,0c.303809-.006152.593934.12617.788467.359611s.27237.54267.211533.840389l-.2,1.7c0,.552285-.447715,1-1,1-12,.2-23.9-.2-36.1.7q-12.1,1-25.4-.7-2.4-.3-1.4-2.1l.1-.4Zm570.6-.9c2.9-1,7.8-.3,10.9-.2c6.7.1,14.2-.7,21.5-.1.333467.022504.633646.210116.8.5c1,2-.1,3-2.2,3.1-11.8.3-23.4,0-35.5.9q-12.8,1-25.6-1c-.473123-.096474-.809736-.517239-.8-1l.4-2.3c.100934-.513362.580514-.862147,1.1-.8q13.6,1.7,27.3.6l1.5.3c.195285.061414.404715.061414.6,0ZM1575,26.6v3q-10.1,0-20.2-1c-.2861-.022716-.548649-.167262-.72085-.396863s-.237451-.52212-.17915-.803137l.4-2.3c.096474-.473123.517239-.809736,1-.8l14,1c2,.1,3.8-1,5.7,1.3ZM687.2,28.9c-.135747.433309-.5464.720766-1,.7l-49.7,1.6c-10.4.4-31.5,2-47.3,2s-30.5.4-46.4.2c-.314757,0-.611146-.148194-.8-.4-2.8-4.4,14.6-3.5,16.3-3.5c12.4.1,24.8,0,37.2,0c4.4,0,9.2-1,14-1c7.6,0,14,.2,20.8-.8c2.1-.3,4,.2,6,0c5.4-.6,10.6,0,16-.6c10.7-1,22.3,0,33,.4c1,0,2.8-1.3,2,1.4ZM1081.8,31c.124567-.398257.483334-.677298.9-.7c9.6-1,18.7-.2,28.2-.7c10.9-.4,21.6.4,32.5-.8c4.9-.5,10.2,0,14.5-.3q35.9-2.2,51.8-1.6q12.3.4,16.7.3c.552285,0,1,.447715,1,1q0,1.5-2,1.5-40,.8-47.7,1.3c-34.4,2.4-62.5,2.3-93.9,2.5q-2.6,0-2-2.5ZM29.2,29.6c11.2,0,22.6.5,33.7-.7c8.5-.9,18,.1,25.7-.8c4.6-.6,8.2-.5,12.9-.8q15.1-.9,44.8.1c.378772,0,.725035.214002.894427.552786s.132836.744196-.094427,1.047214q-.6.9-2.3.9-30.7.1-61.3,2C57,33.6,31,33.3,4.4,33.6c-1.014849.030478-1.995384-.368999-2.7-1.1-1-1,1-2.3,2.2-2.4c8.5-.9,18.8-.4,25.3-.5Z" fill="#332020"/></g><rect width="1575" height="32.5" rx="0" ry="0" transform="translate(.1 7.6)" fill="#887b6c"/><path d="M469.5,3.3c2.5.7,5,.7,7.5,0c32-.7,74.7,2,93.8,1.5c21-.8,44.6-.8,58.2.2c14.1,0,49.5,1.3,58-1c28.6,2.5,63,1.8,82,.3c1.7.8,3.3.8,5,0c29.4,1.8,71.1,1,83,.3c30,.7,57.4,1,84-.1c20.1.6,51.8.6,56.7-1c20.5,2.2,67.5,3,77.7.1c6,3,12.4.5,17.5.6c10,.5,20,.4,29.8-.2c11.2,2.6,24-.4,34.3.2c52,1.3,150.2,2.4,153,0c24.8.4,53.1.9,75.8,0c2.5-.8,5.1-1,7.7-.5c11.829027,1.700644,23.827985,1.868696,35.7.5c19,1.4,48-1,57,1c7.3-1.7,43-1.2,61.5-2c3.1.8,6.2.8,9.3,0c6,0,12,.2,18,1.1v6c-8.7-.6-19.5.2-26,.2-7.2,0-16,1-23-1-12.411165.963267-24.851937,1.496919-37.3,1.6-21.5.2-43.3.2-64.8,1.6-8.4,1.4-47,1.1-66.2.9-24.9-1.6-51.8-1.3-74.5-1.3-8.8,0-19.7-.7-29.7-.6-3.2.1-6,1.7-9.9,0-8.9,2.3-57.1.7-79.9.3-11.2-1.2-18.2-.2-27.7-.2-43.5-2-102.5,1.3-111.7-1.9-11.5.8-23.9.6-34.5.6-.4,0-1.5-.3-3.3-1-32.738365,1.748667-65.515179,2.682289-98.3,2.8-2.4,0-5.8,1-8.7,1-23,.2-45.8,1.1-68.8-.1-27.7-1.5-57.4-1-77.2-1-8,.5-27.8-.4-33,0-10.8.6-21.3.2-32,.3-15.3.2-34.3-.1-56.9-1-2.8-.5-4.8-.2-7.7.1L491.3,10.2c-13.7-.1-28,.6-41,.2-3.7-1.6-7.6,0-11.3,0-30.5.5-62.3,1.1-90.3,2-3.4.2-7.2,1-10.8,1-22.4.1-44.7,1.1-67.4-.2-23.6-1-47.1-1.2-71.2-1-8.5-.4-17.7-.2-25.3-.5-4-.2-6,1.9-10.2,0-12.2,1.4-25,.8-37.6.9-18.6,0-42.4.8-55.1-1-2.5-1.2-5,0-7.2,0-21.310211.433148-42.629208-.033935-63.9-1.4v-5.8c4.4,1.4,9.4,1.3,13.5.2c14.8.4,25.7-1.1,38.8.2c9.8.1,19.2-1,28.4-.4c29.2-.2,72,.7,83-.1c17.7,1.3,36,.6,53.8,0c28.7,0,77.7,2.7,86.7-.3c19.7,0,37.2.3,54.6,0l13,.1c3,1.9,11.1,0,14.7.2c6,.8,11.9.8,17.8-.2c23.4.2,52.2,1.2,65.2-.8ZM1386,34c11.3,4.3,76-1,77.6,1.6c35.6,2.6,71.7,1,111.4,2.6v6.8c-6.3,0-28,1-34.5.1-2.6-3.3-22.6-3.2-25-.2h-45.2c-1.9-2.7-14.7-2-19.8-1.4-10.187377-.624528-20.397657-.791363-30.6-.5-8.7,1-16.6-1.3-24.7-.8-9,.6-17.8,1-26.7,1.2-2.4-.6-5.7,0-7,1-7.9,1.9-36.8-2.4-38.5.1-18.864603,1.708098-37.847917,1.641137-56.7-.2-10.619652-1.257353-21.335524-1.491763-32-.7-1.3-1-2.6-1-3.8.3-16,2.9-38.7,1.6-49.3,1.4-7,1.5-17,.3-20.4,1.3-1.4-1.1-2.3-1-2.8.6-6.4,1.2-30.3-1.8-33.8,1-13.338915-1.057625-26.727066-1.358107-40.1-.9-3.2-2.7-20.9-1.3-29.5-2-18-1.4-39.7,1.7-55.6-.2.6-1.2,0-1.8-1.7-1.8-9.6-.3-17.3-.3-23.2,0-1.2.2-.7,1-.3,1.6-7.6-.2-15.1-.8-22.1-.4-11.438087.678199-22.913219.377102-34.3-.9-8.6-.8-17.2-.7-26.1-1.3-9.5-.2-42.8,2.1-47.6,1.3-11.4.3-21.6-1.4-32.5-.4-1.6,3.7,6.7,2.6-17.4,3-22.1-.2-38.8-1.6-64-1.4-5,.5-9.2-.2-12.8-1.4-7.1,2.5-47,3.5-68.6,2-40,1-81.3,2.4-118.1,1-13.4-.5-26.7-.7-40-.6-5.4-1-13-1-18.3,0l-12.5-.7c.4-1,0-1.6-1-1.7-5-.3-12.3-.5-21.6-.4-1.4,0-1.5.8-.9,1.9-6.6.2-13.7-.2-19.7-.2-9.3.2-18.7.1-28,0-1.3-2.6-11.2-1.7-13.6-1-15.597794,1.472828-31.318136,1.002562-46.8-1.4-14.7,1-29.5,1.3-44.3,1.4-32.4,3.6-42.8,3.8-93.4,1.5.2-1-.3-1.6-1.4-1.6-10.911983-.868932-21.870072-1.002568-32.8-.4-1.8.1-4.5-1.5-4.7,1.7-15.277176,1.12263-30.613621,1.189455-45.9.2-11.641437.034114-23.279521.40093-34.9,1.1-8,.5-18.6.2-28,1.7-14-2.1-29.7-1-42.5-1v-7c14.3-.3,28.7-.7,43-1.2c3.2-.1,6.3.6,9.3.3c19.2-1.5,37.7-.5,56.4-1.9c25.4-2,49.3,0,75.6.2c15.5.1,31.5,1.5,46.2,1.3c16.5-.3,34.4-.9,53.7-1.8c3.7,0,6.4-.8,8.7-2.7h55.2c9.6.1,23.7-.3,35.7.1c5.5,3,40.1,3.1,56.3,2.8c6,0,13.7.4,20.5.2c12-.2,24.2.3,36.3,1c9,.5,18.2.2,27,.7c19.223626.941121,38.48336.874363,57.7-.2c19,1.4,39.4-2.8,57.4-.8c22.920401-1.880143,45.946131-2.114077,68.9-.7c33.6,1.6,66.1,2,98.3.3c7.2,0,23.8-.5,25.8-3c22.1-1.9,46.3-.4,66-.5c6.6,1.4,26.8-2.4,28.5,1.7c21.6,1.5,43,1.2,64.6,1.4c20.7.1,33.4.3,38,.7c9.4.7,19,1,28.4.8c5.7,0,13.6,1,20.1,1c21-.8,39,.1,58.4-.8c12.4-.7,25-.7,37.3-1c18.3-.5,37.5-2.1,56-1.4c39,.4,79.5,2.5,116.6,1.2c7.5-1.7,35.4.4,40.1-3.7ZM285,17.9c.8.3,1,.9.7,1.6-.124567.398257-.483334.677298-.9.7-22.2,1.4-41.7,0-62.5,2-13,1.2-26,.8-39,1.8-1.5,0-2.5-.3-3.2-1.1-.8-1-.5-1.6.7-1.6c8.4-.6,16.7-1,25-1.3c9.4-.3,20.4-2,30.7-2h5.7c14.4-2.3,23.2-.2,42.8-.1Zm506.2-.2h33.8c5,3.9-13.4,2.8-15.5,2.8q-7.3-.2-40.5,1c-5.4.3-11.7,1.5-16.8,1.4q-14.6,0-29.2,1-2,.2-3-1-1.1-1.5.8-1.7q14.6-.9,29.3-1.3c5.4-.2,11.5-1.6,17.5-1.6q4.4,0,8.9-.3h3.8l10.9-.3Zm543.6,0h1.5l28.7.3c4.4,2.8-7.3,2.4-7.4,2.4q-26.3.1-52.6,1.4c-3.3.2-6.6,1-9.7,1q-16.4.2-32.8,1-1.3,0-2-.4l-.6-.6c-.173796-.299343-.180433-.667275-.017545-.97269s.472135-.504877.817545-.52731q15.2-1,30.4-1.5q3.2,0,6.7-.7c6.5-1.2,12.4-.5,18.7-1.1l18.3-.3ZM260,27q3.3.5,5.3-2c6.4-.8,12.3-1.4,19-1c9.4.5,19.8,1,28.4.9q4.3,0,10.5-.5q16-1,37.1,1c1.4.1,1.6,1.1,2.8,1.3c7.8.9,16-.2,22.8,0l10.4.7c4,.3,3.5,3,0,2.9-11.9-.5-23.7.3-35.6-.7q-18.1-1.5-36.2-.7c-13.4.5-25.4,0-38-.5-10.7-.4-21.2,1.1-31.8,1-.482761.009736-.903526-.326877-1-.8v-.3c0-.552285.447715-1,1-1L260,27Zm637-1.9q2.6,2.8,6.8,1.6q6.4.9,13,.3l13.4-.4q3.6.7,7.5,1.1c2.3.3,1.8,2.2,0,2.4-4.4.4-9.4-.1-13,0-7.9,0-15.3.3-23.5-.5q-21.1-1.8-42.3-.4-6.9.5-35.1-.9c-8-.3-19.3,1.6-29.2,1.1-.263769-.003757-.51537-.111586-.7-.3-2.3-2.8,7.7-2.3,8.6-2.3.151905.003076.296967-.063085.394234-.179805s.136184-.271335.105766-.420195v-.2c-.004868-.24138.163438-.451763.4-.5q12-2.3,19.5-1.7c13,1,26,1.8,39.9.6q12.3-1.2,34.1.8Zm545,1.6q6.8.8,14.7.2q10.3-.7,21.4,1c.290719.044195.54725.214106.701366.464544s.190192.556014.098634.835456q-.4,1.1-2.5,1c-11.2-.4-23.5.3-35.5-.6-25.1-2-47.2.3-75.3-1.2-10.3-.5-20.5,1.5-31,1-.181819-.019692-.354757-.088867-.5-.2-3-2.4,3.6-2.2,5.2-2.2.333467-.022504.633646-.210116.8-.5l.5-.7c.188854-.251806.485243-.4.8-.4c6.4-.4,13-1.7,19.2-1.5c9,.3,18,1,27.1.8c3.3,0,6.2.7,9.4.2c8.6-1.1,17.2-.4,25.9-.6q5-.2,18.6,1c.172967-.016256.336651.080995.405086.240677s.025973.345282-.105086.459323l-.1.2c-.076589.084961-.098199.206082-.055717.312287s.141662.17901.255717.187713ZM474.2,26l.1-.9c.051542-.512901.484522-.902583,1-.9q14.6,1.5,19.4,1.1c10-.7,19.8-.3,29.9-.7q6.3-.2,12.6,0c.303809-.006152.593934.12617.788467.359611s.27237.54267.211533.840389l-.2,1.7c0,.552285-.447715,1-1,1-12,.2-23.9-.2-36.1.7q-12.1,1-25.4-.7-2.4-.3-1.4-2.1l.1-.4Zm570.6-.9c2.9-1,7.8-.3,10.9-.2c6.7.1,14.2-.7,21.5-.1.333467.022504.633646.210116.8.5c1,2-.1,3-2.2,3.1-11.8.3-23.4,0-35.5.9q-12.8,1-25.6-1c-.473123-.096474-.809736-.517239-.8-1l.4-2.3c.100934-.513362.580514-.862147,1.1-.8q13.6,1.7,27.3.6l1.5.3c.195285.061414.404715.061414.6,0ZM1575,26.6v3q-10.1,0-20.2-1c-.2861-.022716-.548649-.167262-.72085-.396863s-.237451-.52212-.17915-.803137l.4-2.3c.096474-.473123.517239-.809736,1-.8l14,1c2,.1,3.8-1,5.7,1.3ZM687.2,28.9c-.135747.433309-.5464.720766-1,.7l-49.7,1.6c-10.4.4-31.5,2-47.3,2s-30.5.4-46.4.2c-.314757,0-.611146-.148194-.8-.4-2.8-4.4,14.6-3.5,16.3-3.5c12.4.1,24.8,0,37.2,0c4.4,0,9.2-1,14-1c7.6,0,14,.2,20.8-.8c2.1-.3,4,.2,6,0c5.4-.6,10.6,0,16-.6c10.7-1,22.3,0,33,.4c1,0,2.8-1.3,2,1.4ZM1081.8,31c.124567-.398257.483334-.677298.9-.7c9.6-1,18.7-.2,28.2-.7c10.9-.4,21.6.4,32.5-.8c4.9-.5,10.2,0,14.5-.3q35.9-2.2,51.8-1.6q12.3.4,16.7.3c.552285,0,1,.447715,1,1q0,1.5-2,1.5-40,.8-47.7,1.3c-34.4,2.4-62.5,2.3-93.9,2.5q-2.6,0-2-2.5ZM29.2,29.6c11.2,0,22.6.5,33.7-.7c8.5-.9,18,.1,25.7-.8c4.6-.6,8.2-.5,12.9-.8q15.1-.9,44.8.1c.378772,0,.725035.214002.894427.552786s.132836.744196-.094427,1.047214q-.6.9-2.3.9-30.7.1-61.3,2C57,33.6,31,33.3,4.4,33.6c-1.014849.030478-1.995384-.368999-2.7-1.1-1-1,1-2.3,2.2-2.4c8.5-.9,18.8-.4,25.3-.5Z" fill="#332020"/></g></g><g id="em8UvLjBOTQ87_tr" transform="translate(467.299198,611.219344) rotate(0)"><g transform="scale(1.13,1.13) translate(-217.494784,-380.036278)"><path d="M266.8,39.3c2.3,4.3-9.6-37.6,1.7-36-1.9,11.4,7.3,49.1,5.5,17.5c9.8,1.2,4.5,15.6,2.6,22.4-1.8,6.9-2,9.1,8.2,22.7c7.3,9.8,20.2,83.8,22.6,127.6-3,28,1.8,64.4,11.5,90.2c24.6-.2,59-12.8,65.8-29.7.6-14,.3-40,4.1-43s64-1.7,69.3.9c5.2,2.5,46,104,73.7,157.1c13,5.3,22,9.5,25.2,12.1s2.4,9.7,3,20.7c-24.5,32.5-82.4,101-116,126.8-10.2,2-55.6.6-71,1.6-6.6,27.6-38.8,35.3-57.5,25.4-18.8-9.9-12.8-14.8-19.8-27.7-24.5,2.6-81.8,1.6-106.4,2.7-7.7,20.6-24.9,42.9-52.7,33.5-27.9-9.4-22.7-25-33-31-25.8.9-69.4,2.3-93.6-.8-25-20.4,4.4-31.4,18.3-45c11.3-6,18-11,26.2-21.1c5.2-46.3-16.6-122.4-27.8-168.4c3.6-11.7,72.9-49.5,103.3-74.6-4.2-29.3-14.5-59.3-9.2-89.5c5-30.8-11.8-43.7-9-68.3c10-32,2.6,14.9,8.5,20.9-1-12.6,5.6-45.5,14.2-39.5-8.4,6-12,45.4-.6,17.7c7.9-20.6,10.8-10,2.3,4.1-6.7,10.4-2.7,38.6,3.4,12.9c5-28.5,11.8,21-7.2,22-9.00086,37.923779-7.2696,77.604252,5,114.6c10.9-7.5,11.5-6.2,12.4-11.3c3.2-13.4,11.4-50,20.7-59.8c24.6-17.2,63.1-29.9,88-6.3c21.5,17,29.3,45.7,38.8,70.3c3.7,13.8,3.6-25.3,2.2-30.2-1.9-38-5.8-76.7-21.3-111.7-7-24-41.3-31-30.1-62c6.2,8.8.6,24.5,11.8,31.2-9-10.5-.8-56.3-.1-22.3c1.186101,8.066137,3.54434,15.915704,7,23.3Z" fill="#332020"/><path d="M62.4,505c14.8-76.6.3-124.3-19.9-195.2c15-1.4,30.5-6,46-5.8c19.343656-.617023,38.481514,4.124183,55.3,13.7c33.3,15.6,15.3,52.7,34.3,87c19,34.2,69.9,36.4,95.2,29.4c83.7-26.1,60.2-96,46-141.1c21.2-.6,31.7-3.1,31.7-3.1c18.8,68.6,44.5,139.4,55.7,204.3c7.7,14-22.3,3.3-30.3,6.6-57.2-2.6-113.6,1.7-166.8,1.2-52.6,2.6-99-.3-147.2,3ZM356.3,287.7c24-8,96.8-70.9,99.4-70.1c2.5.7,70.4,154,69.7,156.9-.6,2.8-106,118.8-109.3,117.7-3.2-1-59.8-204.5-59.8-204.5Z" fill="#db2e2e"/><path d="M417.5,216.8c0,5,.7,9.8,2.1,14.5-.3,2.4-5.3,6.6-5.3,3.2v-17.5c-.2-2,3-.7,3.2-.2Zm-12.8,4.6c.2-1.2-.1-2.3-1-3.3.8-1.4,4-2.4,5.1-1.4c1,7.5,1.7,15,2,22.6-.5,1.7-3.2,4.8-4.9,3.6-3.2-5-1.9-15.7-1.2-21.5Zm18.6,7.1c-1.5-4-.5-8.9-.8-11.9c1.4-.2,8.1-1.2,5.8,1.8-.7,1.8.6,4.2,1,6-.6,1.7-4.5,4.2-6,4.1Zm10.1-8.8c-1-1.5.7-3.5,2.5-2.5.3,2-.8,3.5-2.5,2.5Zm-38.1,2.9c.3-2.7,2.5-2.4,3.2-.1.2,8.6,1.5,16,3.9,22.6-.6,1.8-5.1,6.1-6.7,4.7-1.028812-9.031366-1.162796-18.142287-.4-27.2Z" fill="#6b4949"/><g><path d="M145.5,235.5c0,3.2-2.2,2-3.5.5-1.2-1.6-1.5-4.4-2.1-6.5.5-1.9,4.7-5,5.7-3.7v9.7Zm-9.5,5c0,0,4,7.8,2.5,8.8-1.5.9-18.8-3.5-20.2-5.5c6.4-3.5,13.5-7.3,17.6-3.3Z" fill="#6b4949"/><rect width="1.1" height="5.4" rx="0.5" ry="2.3" transform="matrix(.93358-.358368 0.358368 0.93358 143.848832 243.309707)" fill="#6b4949"/><path d="M138.3,255.7c1.4,3.2,3.5,5,5.7,7c2.1,4.5,3.9,11,1.8,12.3-2,1.2-11.3-6.4-12.9-7.4-7.4-4.8-13.4-5-20.2-7.5-2.1-1.7-15.5.8-15.8-.7s13.2-9.3,13.2-9.3c5.9-.7,24.3.5,28.2,5.6Z" fill="#6b4949"/><path d="M71.4,280.4c-4.8,0,11.8-10.5,13.5-11.7c6.3-3.2,15.6-3.2,20.5-3.9c4.8-.7,11.2,1.8,15.8,3.6s11,2.2,21.2,12c5,4.4,5.5,10.6,6.1,16.6.1.9-.2,1-.8.6-4-2.7-7.4-5.5-11.6-7.6-5.5-3.4-11.7-5-17.2-7.3-15.305458-5.200113-31.763733-5.99704-47.5-2.3Z" fill="#6b4949"/><path d="M72.4,293.8c-1.7-.7-22.4,3-18.5.1c19.8-14,46.1-14.3,67.9-5.3c6.6-.6,7.7,4.5,12,5.2c5.33109,2.650813,10.276497,6.015035,14.7,10c2.5,2.6,1.7,4.7.4,6.2-8.94628-6.841475-19.348742-11.529426-30.4-13.7-4.3-.6-9-2.9-13-2.8-11,.3-21,1-33,.3Z" fill="#6b4949"/></g><path d="M290.3,416.3c-6.5,6-15.5,9.7-24.4,11-9,1.3-19,.8-27-3.6-7.8-4-12.2-12.8-17.2-20-13.8-22.4-20-48.2-26-73.6-6.8-24.5-10-50-11-75.5-.5-12.4.6-24.6,1.9-37c3-12,2.8-24.8,7-36.8c4.5-14,9.2-30.5,23.8-37.4c12-8.5,28.3-2.3,38.2,6.7c17.8,17.7,25,42.8,33.8,65.6c4.2,10.2,6.3,20.8,8.8,31.4c3.2,13.4,5.8,27,7.9,40.6c2,13,4.6,26,4.5,39-.4,24.4-2.8,49.3-10.6,72.5-2.6,6.3-4.8,12.7-9.6,17Z" fill="#e8830c"/><path d="M477.433307,429.380521c-4.457265,2.080057-10.778163,4.149119-18.720513,8.914529-3.0588,1.83528-9.657407,7.2802-1.931481,7.725926c4.308689-1.485755,7.056347-3.381226,10.997557-5.351836c9.85924-4.92962,22.10909-8.45501,32.68035-11.33808c7.40108-2.01848,15.273256-3.962078,22.883916-3.962078c9.954559.297151,9.657408-3.109537,9.657408-3.714387c0-7.82493-31.925989.916968-35.063818,1.33718s-16.046154,4.308689-20.503419,6.388746Z" transform="translate(-255.660515-218.435161)" fill="#332020" stroke-width="2.16"/><path d="M248.3,167.8c4,3.7,4.7,17.6-2.4,19.7-11.6,1.6-9.8-16.6-8-19c2-2.3,6.4-4.3,10.4-.7Zm-25.1,4.7c6.4,7.5,3.2,18.5-4,24-10.6,4.6-16.5-12.2-13.4-18.6c3-6,11.4-12.4,17.4-5.4Zm40.6,29" transform="translate(-.304119 0.005307)" fill="#332020"/><path d="M211.6,286.3c-.7-5.2-7.2-12-1-16c5.3-1.7,11-11,16-6c1.9,3,3.6,6.1,5.3,9.2c6,2,2.4-5.4,1.9-8.6c1.8-6.7,8.3-11,15-13.4c8.8-1,7.6,14.8,16,15c8.6,0,14.5,6.8,17.9,13.5c3.578423,10.953962,2.71669,22.874601-2.4,33.2c3.7,5.1,11.3,8,13.4,14.6c4.419695,6.836815,5.381952,15.349086,2.6,23-2.3,6.6-6,12.5-10.5,17.6.4,7,7.7,13.1,6.4,20-1,5-2.6,9-9.3,11.8-6.7,3-7.8-2.4-10.3-7.2-2.6-4.7-7.6-7-6.6-1c.9,4.7,4,7.6,2.4,13.4-1.6,6-10.7,8.1-16.4,7.3-4-.7-3.6-5.4-5.1-8.3-1-6.7-8.8-.6-13-3.3-5.1-4.9-8.8-14.4-6.3-21.4c5.6-3.3,9.5-8.4,7.8-15.3-1.2-16-8.7-30.5-15-45-2-4-6.5-2.6-10-3-6.5-3.8-7-14-8.5-21c1.3-4.4,6.7-6.3,9.7-9Z" fill="#332020"/><path d="M246.6,275.8c3.8-5.3-7.2-12-1.7-15.6c5.6-3.6,7.2-1,7.6,3.3c1.8,6,4,9.3,12.2,9.7c8,.5,14.9,11.2,14,20.2.091022,8.721499-3.124686,17.153799-9,23.6-.3,3.4,3.4,6.3,6.9,5.6c5.7-.4,11,4.8,13,10c5,11.1-.1,24-8.6,32-7,4,.4,9.7,2.4,15c1.9,5.2,2.6,8.5-3,9.8-6.3,1.5-4.4-11.6-11-10.8-5,1.2-16,2.4-11.4,10.2c1,4,6.8,11.8,1.6,14-6.3,3.4-5.4-9.3-8.8-12.2-4-.8-8,2-12,2.2-3.3-1-3.3-5.5-3.8-8.4.5-5.4,8.9-8,10.7-12.8-.8-7-4.5-13.4-5.7-20.4-2.2-6.3-3.7-13-5.7-19-2-5.5-3.1-11.2-5.1-16.6-2.7-5.5-9.1-8-15-8.7-3.3-2.3-4-8.5-4-12.3c3.6-1.6,12.3-4.2,10.7-8.3-1.2-4.5-5.6-10.6-3-14.5c2.6-2.8,6.4-2.4,7,1.7c1.5,2.6,2,5.8,4,8c4.4-.5,8.4-2.7,12.6-4l5-1.7Z" fill="#edd6b5"/><path d="M245.9,324c-1.7-1-2.2-2.5-2.8-5-.7-2.7-2.5-6.4-3.6-9.7l-2.3-6.7c.2-2,2.7-2,4.2-2.3c2.5-.4,4.8-1.2,7-2.2c4-1.5,8.4-2.7,12.6-1.4c2.8,1,4.5,3.7,5,6.6.7,3.4,0,7.1-2.2,9.8-4.053047,4.664911-9.209958,8.240369-15,10.4-1,.3-2,1.1-3,.5Z" fill="#332020"/><path d="M248.4,317c-6.7-8.5,4.7-16.8,10.8-8.3.279475.420384.279475.853239,0,1q-3.6,5.4-10,7.6c-.269173-.017829-.570573-.206204-.8-.5Z" fill="#e8830c"/><path d="M258.4,366.2c-3.1-2.4-2.4-6.6-4-10-1.8-3.6-2.3-6.7-3.5-10.3-.246618-.72641-.005751-1.529301.6-2c8.8-7,25-8.3,28,5.8.5,2.8-1,7-3.4,8.4q-7.2,4.4-14.8,8.4-1.5.8-3-.3Z" fill="#332020"/><path d="M268.3,349.6c1.6.2,2.8,1.3,3.5,2.7.9.8.4,2-.7,2.3l-9,4.8c-1,.3-1.5,0-1.8-1.5-.433843-2.057562-1.360334-3.979174-2.7-5.6-.2-1,.9-1.6,1.5-2c2.4-1.5,5.3-1.3,8-1Zm-91-196.7c7.8-5.8,16-9.3,25.4-12-.1,5-4.1,4.5-6.6,5.5-2.8,1.1-19,8.4-19.2,8.2-.3-.2.1-1.4.4-1.7Zm-3.1,6.9c7-2,13.6-4.7,20-8.1c2.5-.5,1.7,3.7-.4,4.4-7.6,2.5-15,6.4-22.3,9.8-1.8-.7,1.2-5.2,2.7-6.2Zm16,6.8c-6.6,0-15.4,4-21.3,6.9-2.2-.3,0-2.6,1-2.8c7-1.7,13.3-5.3,20.1-7.6c1.6.4,1.4,3,.2,3.5Zm-6.5,14.1c-6.9,2.2-14.9,5-20.1,7-.115677-2.133884.296484-4.263379,1.2-6.2c1.9-2.9,22.7-10.7,23.3-8.7s-.9,6.4-2.6,8.2l-1.8-.3ZM166.3,202c-.8,1.3-5.2,2.4-6.8,3-.7-1.7.9-6.4,1.1-8.3.7-5,4-5.5,8-7.2c4.4-2,14.6-4.6,15.2-3.6.7,1-1.6,7-2.6,10.4-4.8,2.1-11.5,2.3-14.9,5.7Zm.2,3.6c2.1-.3,12.9-4.7,14-3.8.1,3.4-1.3,10.9-1.8,14.5-3.4.9-19.8,8.1-20.9,7s-.2-8.7.5-13.7c2.6-2.5,4,.8,8.2-4Zm10.1,28.2c-3.9,1.2-15.7,6.6-18.5,6.2l-.3-10.2c5.2-3.8,13.8-7,19.4-8.4c1,2.9-.3,8.8-.6,12.4Zm-1.4,21.6c-1.9.2-21.4,4.2-15.7,8.8c5.4-1.6,12.1-4.5,17.3-5.4.8,2.9,3,11.3.7,13.8l-17,4.6c-1.4-.4-2-2.8-2.7-4c1-8.4-1.5-20.5-.2-27.3c2.2-2,17.2-8.7,19-6.6.6,5.3.9,10.8.7,16.2-.3,2.2-1.3.2-2.1-.1Zm4.8,35.3c.6,3-8.5,3.6-9.2,3.2l-8.3-12.6c2-1.6,14.6-5.4,16-3.8l1.5,13.2Zm-4.2,7.3c1.8-.1,4.6-2.1,5.8-.7l.8,13c-4,1.5-16.3,5-17.6,3.7-1.3-1.2-2.3-8.4-2.6-12.4.3-1.5,2.3-1.5,3-1c1,3,.8,6.7,2.6,8.7c4.2,2.8,9.4,2.3,11.1-1.6c1.6-3.8-3.3-8-3-9.7Zm8.2,18.3l2,13.5c-.1,3.4-11.5,5.2-12.5,4.3-2.3-4-7-9.3-7-14c2.3-1.4,15.4-7,17.5-3.8Zm-8.3,39c-.8-5-.1-10.2-.4-15.5c2.5-1.2,9.5-4.6,12-3c2,5,3.5,10.3,4.5,15.7-6.2.7-13.4,6-16,2.8ZM198.3,373L183,377.5c-3.2-2.8-4-12-4.6-15.7c4.2-2,11.3-3.1,15-3.4c1,3.4,3.8,10,5,14.5Zm9.2,19.2c-5.5,1.3-15.5,4.8-17.2,4.6-1.7-.3-3-7.5-4.5-11.2-.6-1.6-3.2-3.5.5-4.3c4.2-1,9.8-2,14.6-3c2.4,2.4,4.7,9.6,6.6,14Zm-9,19.1c-3-1.7-3.9-6.8-5.3-10c1.4-1.4,5.4-1.6,7.4-2.1c3.3-.3,7.7-1.8,10.3-.8.4,2.5,5.3,7.3,3.8,9.3Zm5,2.8c3.4-1,7.3-.5,11-.9c2,0,4-.6,5.7,0c1,1.3,3.3,4.1,1,4.8l-9,2.2c-4,2-15.8-4.7-8.7-6Zm22.5,7.5c.6,0,3.1,3.2,2.4,3-.8-.1-7.4-.7-7.6-1c1.650032-.942225,3.438846-1.61725,5.3-2Z" fill="#e8830c"/><g><ellipse rx="3" ry="2.2" transform="matrix(.984503 0.175367-.175367 0.984503 85.0572 319.067)" fill="#332020"/><path d="M58.5,342.9c-2.6-1.7-6.3-15-9.2-22.2.7-3.9,5.7-2.3,6.1,1.4.4,3.6.5,6.8,2,10c1.8,2.8,1.6,6.4,3.7,8.9c2,2.5,0,3.5-2.6,1.9Zm6.2-8.6c-3.4-1-6.1-8.9-6-14.5c1.6-2,4.7.3,3.4,2.6.8,3.6,6.9,10.7,2.6,11.9Zm12.2-7.6c-3.2,3.1-7-4.5-5.8-5.8c3.3-1.1,5.3,3.4,5.8,5.8Z" fill="#332020"/></g><path d="M515,370.8c-5.6,2-18.1-36-16.5-37.3c1.7-1.3,15,28,17.7,33.4.9,1.5.5,3.3-1.2,3.9Zm-7.6,6.5c-2.2-1.5-4.2-12-2.5-11.7c1.6.2,4.2,5,5.4,7.3c1.2,2.4,1.3,6-2.9,4.4Zm-5,6.1c-1.5-.6-.7-2.5-.9-3.7-.4-1.2.2-3.3,1.7-2.3c1,.9,1.4,2.3,1.8,3.6.4,1.5-1.3,2.5-2.6,2.4Z" fill="#332020"/><g><path d="M408,432c.5-1.4,1.3,1.5,1.6,2c4.5,11.7,7.9,24,10.7,35.3c1.4,2,3.2,6.3.4,8-2.8,1.5-4.8-6-5.8-13.1-1-7.2-5.3-22.4-6.8-32.2Zm17.4,34.2c-4.2-5.8-5.1-13-6.7-19.8-.5-1.2-.9-5.2,1.2-4c1.6,5.2,3.1,10.7,5.8,15.6c1,2.2,2.4,4.3,2.9,6.7-.2,1.3-2.1,2.7-3.2,1.5Z" fill="#332020"/><ellipse rx="3.2" ry="1.1" transform="matrix(.447759 0.894154-.894154 0.447759 439.573 446.27)" fill="#332020"/><path d="M431.3,457.4c-1.173386-1.900114-1.173386-4.299886,0-6.2c2.2-.7,2.4,2.2,3,3.6.8,1.5-1.7,4.3-3,2.6Z" fill="#332020"/></g><path d="M396,494.4c-.6-3.2-11.6-35.1-5-34.6c2.4.7,3.1,12.5,4.4,17.5s5,11.4,4.8,16c-.3,4.6-3.8,4.3-4.3,1.1Zm-9.2-2.7c-.7-4.2-5.6-14.2-2.6-15.7s5,11.4,6.1,14.6c1,3.1-2.9,5.4-3.5,1.1Zm-6,1.3c-1.6,2.4-6,.5-3.9-2.6.4-3.2-3.6-10.2.6-10.3c1.6.8,4,8.9,3.3,12.8Zm-8.8-1.5c-3.6,2.6-6.5-6.1-1.4-6.1c1.5,1.2,2.6,4.6,1.5,6.1Z" fill="#332020"/><g><path d="M70.7,498.8c-.6-.5-.8-1.3-.5-2c1.4-2.4,2.4-5.3,2.8-8.6c1.7-5.4,3.1-28.6,5.9-27.1-.9,15.9-1.4,26-1.5,30.1c0,3-2.1,10.6-6.7,7.6Zm9.6-.8c-.259604-.099528-.448918-.326704-.5-.6-1.294709-8.6654-.187893-17.519926,3.2-25.6.7-1,1-.5,1.2.2-.4,2.7-.1,5.3-.2,7.8-.195954,4.764653-.195954,9.535347,0,14.3.2,2.7-.2,5.3-3.7,3.9Zm10.5-.5c-.9-1.2.4-8.6,2-12.2c2.5-5.6,2,4,2,4.1.1,3,1.6,5.8-.3,9-1.5,1.4-2.4.8-3.7-.9Zm13.5-.1c-3-2.4,2.8-12,3.3-5.7l-.2,4.7c-.6,1.4-1.8,1-3.1,1Z" fill="#332020"/><rect width="5.9" height="3.2" rx="1.4" ry="1.4" transform="matrix(.993768 0.111469-.111469 0.993768 114.435047 493.316564)" fill="#332020"/></g><path d="M56.4,479.5c-9.178187,4.926963-17.709958,10.9731-25.4,18c0,1.5,20-.1,24-.9.347035-.99605.516277-2.045351.5-3.1-2.2-1-9.3-2-9.3-3.3c0-1.2,7.8-1.7,9.2-3c0,0,1.3-6.4,1-7.7ZM27.1,502.3c-1.3.3-9.3,4.7-9.2,5.8.2,1,34-1.9,34.6-2.8s-.5-3-1.3-3.7c-.8-.6-22.7.3-24,.7ZM531.5,375.4l-2.6,3.3c4.3,1,12,3.2,11.8,4.5-.3,1.3-11.4,1.8-16.9,2L520,390c5.2.2,16.1,1,16,2.4c0,1.4-13.6,2.6-20.4,3.1l-8,9c4.3.1,10.2.5,10.1,1.9c0,1.5-9.5,3.1-15.3,4L492.2,422L466,449.3l-21.5,21.4-1.6,2c4,.2,15,1,15,2.9s-15.3,2.4-19.8,2.6l-2.5,2.9c4.4,0,15.3.3,15.4,2.6s-14.9,3.2-20.6,3.5l-2,2.3c4.8,0,13.7,0,13.8,1.5.1,1.7-14,3.4-18.4,3.8l-.2.3c3.3.4,13.8,1.8,13.7,3.6-.2,1.5-12.1,1.7-18.3,1.6l-.4.5l17.9,1.5L467.2,469l11.3-8c10.6-11.6,20.5-23.8,30.7-35.7-1.4-1-3.1-2.3-5-1.6-2.8,1-7.7,1.9-7.3-.6.5-2.4,4-3.3,6.4-3.2c2.9.4,6.1,1.2,8.3,2.6l37.8-40.8Z" fill="#6b4949"/><path d="M447.8,501.6c22.3-21.4,27.8-28,49.7-51.4c15.7-15.4,44.5-51.5,55.2-58.8c5.7,9.1-1.6,13.1-6,18.4-26.8,30.5-40.8,45.6-59.7,66.8-16.7,16.2-28.9,29.6-43.8,43-.5-19.4,4.8-9.8,4.6-18Zm-145.4,4.9c30.3-1.6,61.5,1.3,90.6,1c14.5.7,29.2-1.8,43.4,1.3.8,2.7-.2,11.7-3.7,11.7-20-.5-40.4-.8-61.2-1-9.7-.5-43.3-2.5-52.2-2.6-24.8-.2-41.7,1.4-69.5,3.2-46.7,0-86.7,1.8-129.7,3.3-5.2.2-10.5-1.2-15.6-.6-28.9,1.2-58.3,3.7-84.8,2-2.3-.2-3-1.3-1.8-3.5.2-.2.2-.6,0-.8-1.5-2.2-5-2.5-5-5.1-.1-.3.1-.5.4-.6c26-2.3,65.3-6.4,115.4-5.3c35.4.2,73.4-1.5,105.8-2c22.7,0,46-.4,67.8-1Z" fill="#edd6b5"/><g><path d="M313.2,542c-4.7-4.1-4.4-9.4-4.4-14.7c1.7-.8,3.7-1,5.3-1c.1,9.3,5.6,20.7,16.3,21c9.556981.838083,18.877693-3.275106,24.7-10.9c2-3,2.4-7.2,2.3-9.6c2,.2,3.4.1,5.3.6c3.6,8.6-10.3,20.3-16.6,23.2-10.6,5-23.7,1.6-33-8.5Z" fill="#6b4949"/><path d="M337.8,539c-5.5,2.5-20-11.6-13.8-12.3c7.7-.6,17-1,23,1c1.1,6.5-3.6,8.8-9.2,11.3Z" fill="#6b4949"/></g><g><path d="M138.6,555.9c-9.7-2-19.4-13.1-21.9-22.6h4.5c3,6.6,14.3,18.3,25.2,17.2c11-1.2,23-6.7,24.9-18.8c2.6,0,4.1-.7,6-.2-1.72051,9.215979-7.43219,17.197686-15.6,21.8-6.6,4.3-15.7,4-23.1,2.6Z" fill="#6b4949"/><path d="M132.9,532.4c2.5,5.5,8.5,13.2,14.6,11.8c6.2-1.4,16.7-4.6,17-13-8,.4-23.2.6-31.6,1.2Z" fill="#6b4949"/></g></g></g></g><clipPath id="em8UvLjBOTQ126"><rect width="1080" height="1080" rx="0" ry="0" fill="#d2dbed" stroke-width="0"/></clipPath></g></svg>
