<svg height="320" shape-rendering="crispEdges" viewBox="0 0 320 320" width="320" xmlns="http://www.w3.org/2000/svg"><rect fill="#e1d7d5" height="100%" width="100%"/><path d="m90 210h140v10h-140z" fill="#caeff9"/><path d="m90 220h140v10h-140z" fill="#caeff9"/><path d="m90 230h140v10h-140z" fill="#caeff9"/><path d="m90 240h140v10h-140z" fill="#caeff9"/><path d="m90 250h20v10h-20z" fill="#caeff9"/><path d="m120 250h110v10h-110z" fill="#caeff9"/><path d="m90 260h20v10h-20z" fill="#caeff9"/><path d="m120 260h110v10h-110z" fill="#caeff9"/><path d="m90 270h20v10h-20z" fill="#caeff9"/><path d="m120 270h110v10h-110z" fill="#caeff9"/><path d="m90 280h20v10h-20z" fill="#caeff9"/><path d="m120 280h110v10h-110z" fill="#caeff9"/><path d="m90 290h20v10h-20z" fill="#caeff9"/><path d="m120 290h110v10h-110z" fill="#caeff9"/><path d="m90 300h20v10h-20z" fill="#caeff9"/><path d="m120 300h110v10h-110z" fill="#caeff9"/><path d="m90 310h20v10h-20z" fill="#caeff9"/><path d="m120 310h110v10h-110z" fill="#caeff9"/><g fill="#fff0be"><path d="m90 220h10v10h-10z"/><path d="m110 220h10v10h-10z"/><path d="m130 220h10v10h-10z"/><path d="m150 220h10v10h-10z"/><path d="m170 220h10v10h-10z"/><path d="m190 220h10v10h-10z"/><path d="m210 220h10v10h-10z"/><path d="m100 240h10v10h-10z"/><path d="m120 240h10v10h-10z"/><path d="m140 240h10v10h-10z"/><path d="m160 240h10v10h-10z"/><path d="m180 240h10v10h-10z"/><path d="m200 240h10v10h-10z"/><path d="m220 240h10v10h-10z"/><path d="m90 260h10v10h-10z"/><path d="m130 260h10v10h-10z"/><path d="m150 260h10v10h-10z"/><path d="m170 260h10v10h-10z"/><path d="m190 260h10v10h-10z"/><path d="m210 260h10v10h-10z"/><path d="m100 280h10v10h-10z"/><path d="m120 280h10v10h-10z"/><path d="m140 280h10v10h-10z"/><path d="m160 280h10v10h-10z"/><path d="m180 280h10v10h-10z"/><path d="m200 280h10v10h-10z"/><path d="m220 280h10v10h-10z"/><path d="m90 300h10v10h-10z"/><path d="m130 300h10v10h-10z"/><path d="m150 300h10v10h-10z"/><path d="m170 300h10v10h-10z"/><path d="m190 300h10v10h-10z"/><path d="m210 300h10v10h-10z"/></g><path d="m150 20h20v10h-20z" fill="#eab118"/><path d="m140 30h10v10h-10z" fill="#eab118"/><path d="m150 30h10v10h-10z" fill="#d22209"/><path d="m160 30h10v10h-10z" fill="#ff1a0b"/><path d="m170 30h10v10h-10z" fill="#eab118"/><path d="m140 40h10v10h-10z" fill="#eab118"/><path d="m150 40h10v10h-10z" fill="#ff1a0b"/><path d="m160 40h10v10h-10z" fill="#d22209"/><path d="m170 40h10v10h-10z" fill="#eab118"/><path d="m100 50h30v10h-30z" fill="#eab118"/><path d="m150 50h20v10h-20z" fill="#eab118"/><path d="m190 50h30v10h-30z" fill="#eab118"/><path d="m90 60h10v10h-10z" fill="#eab118"/><path d="m130 60h10v10h-10z" fill="#eab118"/><path d="m150 60h20v10h-20z" fill="#eab118"/><path d="m180 60h10v10h-10z" fill="#eab118"/><path d="m220 60h10v10h-10z" fill="#eab118"/><path d="m60 70h30v10h-30z" fill="#eab118"/><path d="m140 70h40v10h-40z" fill="#eab118"/><path d="m230 70h30v10h-30z" fill="#eab118"/><path d="m50 80h10v10h-10z" fill="#eab118"/><path d="m80 80h10v10h-10z" fill="#eab118"/><path d="m120 80h20v10h-20z" fill="#ff1a0b"/><path d="m140 80h10v10h-10z" fill="#eab118"/><path d="m150 80h10v10h-10z" fill="#257ced"/><path d="m160 80h10v10h-10z" fill="#00499c"/><path d="m170 80h10v10h-10z" fill="#eab118"/><path d="m180 80h20v10h-20z" fill="#ff1a0b"/><path d="m230 80h10v10h-10z" fill="#eab118"/><path d="m260 80h10v10h-10z" fill="#eab118"/><path d="m50 90h10v10h-10z" fill="#eab118"/><path d="m80 90h10v10h-10z" fill="#eab118"/><path d="m100 90h40v10h-40z" fill="#ff1a0b"/><path d="m140 90h10v10h-10z" fill="#eab118"/><path d="m150 90h20v10h-20z" fill="#00499c"/><path d="m170 90h10v10h-10z" fill="#eab118"/><path d="m180 90h40v10h-40z" fill="#ff1a0b"/><path d="m230 90h10v10h-10z" fill="#eab118"/><path d="m260 90h10v10h-10z" fill="#eab118"/><path d="m50 100h10v10h-10z" fill="#eab118"/><path d="m70 100h10v10h-10z" fill="#ff1a0b"/><path d="m80 100h10v10h-10z" fill="#eab118"/><path d="m90 100h50v10h-50z" fill="#ff1a0b"/><path d="m140 100h10v10h-10z" fill="#eab118"/><path d="m150 100h10v10h-10z" fill="#00499c"/><path d="m160 100h10v10h-10z" fill="#257ced"/><path d="m170 100h10v10h-10z" fill="#eab118"/><path d="m180 100h50v10h-50z" fill="#ff1a0b"/><path d="m230 100h10v10h-10z" fill="#eab118"/><path d="m240 100h10v10h-10z" fill="#ff1a0b"/><path d="m260 100h10v10h-10z" fill="#eab118"/><path d="m60 110h10v10h-10z" fill="#eab118"/><path d="m70 110h10v10h-10z" fill="#ff1a0b"/><path d="m80 110h10v10h-10z" fill="#eab118"/><path d="m90 110h50v10h-50z" fill="#ff1a0b"/><path d="m140 110h40v10h-40z" fill="#eab118"/><path d="m180 110h50v10h-50z" fill="#ff1a0b"/><path d="m230 110h10v10h-10z" fill="#eab118"/><path d="m240 110h10v10h-10z" fill="#ff1a0b"/><path d="m250 110h10v10h-10z" fill="#eab118"/><path d="m60 120h10v10h-10z" fill="#eab118"/><path d="m70 120h10v10h-10z" fill="#ff1a0b"/><path d="m80 120h10v10h-10z" fill="#eab118"/><path d="m90 120h60v10h-60z" fill="#ff1a0b"/><path d="m150 120h20v10h-20z" fill="#eab118"/><path d="m170 120h60v10h-60z" fill="#ff1a0b"/><path d="m230 120h10v10h-10z" fill="#eab118"/><path d="m240 120h10v10h-10z" fill="#ff1a0b"/><path d="m250 120h10v10h-10z" fill="#eab118"/><path d="m60 130h10v10h-10z" fill="#eab118"/><path d="m70 130h20v10h-20z" fill="#ff1a0b"/><path d="m90 130h10v10h-10z" fill="#eab118"/><path d="m100 130h40v10h-40z" fill="#ff1a0b"/><path d="m140 130h40v10h-40z" fill="#eab118"/><path d="m180 130h40v10h-40z" fill="#ff1a0b"/><path d="m220 130h10v10h-10z" fill="#eab118"/><path d="m230 130h20v10h-20z" fill="#ff1a0b"/><path d="m250 130h10v10h-10z" fill="#eab118"/><path d="m70 140h10v10h-10z" fill="#eab118"/><path d="m80 140h20v10h-20z" fill="#ff1a0b"/><path d="m100 140h10v10h-10z" fill="#eab118"/><path d="m110 140h30v10h-30z" fill="#ff1a0b"/><path d="m140 140h10v10h-10z" fill="#eab118"/><path d="m150 140h20v10h-20z" fill="#d08b11"/><path d="m170 140h10v10h-10z" fill="#eab118"/><path d="m180 140h30v10h-30z" fill="#ff1a0b"/><path d="m210 140h10v10h-10z" fill="#eab118"/><path d="m220 140h20v10h-20z" fill="#ff1a0b"/><path d="m240 140h10v10h-10z" fill="#eab118"/><path d="m70 150h10v10h-10z" fill="#eab118"/><path d="m80 150h20v10h-20z" fill="#ff1a0b"/><path d="m100 150h10v10h-10z" fill="#eab118"/><path d="m110 150h30v10h-30z" fill="#ff1a0b"/><path d="m140 150h10v10h-10z" fill="#eab118"/><path d="m150 150h20v10h-20z" fill="#d08b11"/><path d="m170 150h10v10h-10z" fill="#eab118"/><path d="m180 150h30v10h-30z" fill="#ff1a0b"/><path d="m210 150h10v10h-10z" fill="#eab118"/><path d="m220 150h20v10h-20z" fill="#ff1a0b"/><path d="m240 150h10v10h-10z" fill="#eab118"/><path d="m60 160h20v10h-20z" fill="#eab118"/><path d="m80 160h10v10h-10z" fill="#ff1a0b"/><path d="m90 160h30v10h-30z" fill="#eab118"/><path d="m120 160h20v10h-20z" fill="#ff1a0b"/><path d="m140 160h10v10h-10z" fill="#eab118"/><path d="m150 160h20v10h-20z" fill="#d08b11"/><path d="m170 160h10v10h-10z" fill="#eab118"/><path d="m180 160h20v10h-20z" fill="#ff1a0b"/><path d="m200 160h30v10h-30z" fill="#eab118"/><path d="m230 160h10v10h-10z" fill="#ff1a0b"/><path d="m240 160h20v10h-20z" fill="#eab118"/><path d="m70 170h180v10h-180z" fill="#eab118"/><path d="m80 180h160v10h-160z" fill="#6e3206"/><path d="m70 190h50v10h-50z" fill="#eab118"/><path d="m120 190h80v10h-80z" fill="#ff1a0b"/><path d="m200 190h50v10h-50z" fill="#eab118"/><path d="m70 200h180v10h-180z" fill="#eab118"/><path d="m100 110h60v10h-60z" fill="#ffef16"/><path d="m170 110h60v10h-60z" fill="#ffef16"/><path d="m100 120h10v10h-10z" fill="#ffef16"/><path d="m110 120h20v10h-20z" fill="#fff"/><path d="m130 120h20v10h-20z"/><path d="m150 120h10v10h-10z" fill="#ffef16"/><path d="m170 120h10v10h-10z" fill="#ffef16"/><path d="m180 120h20v10h-20z" fill="#fff"/><path d="m200 120h20v10h-20z"/><path d="m220 120h10v10h-10z" fill="#ffef16"/><path d="m70 130h40v10h-40z" fill="#ffef16"/><path d="m110 130h20v10h-20z" fill="#fff"/><path d="m130 130h20v10h-20z"/><path d="m150 130h30v10h-30z" fill="#ffef16"/><path d="m180 130h20v10h-20z" fill="#fff"/><path d="m200 130h20v10h-20z"/><path d="m220 130h10v10h-10z" fill="#ffef16"/><path d="m70 140h10v10h-10z" fill="#ffef16"/><path d="m100 140h10v10h-10z" fill="#ffef16"/><path d="m110 140h20v10h-20z" fill="#fff"/><path d="m130 140h20v10h-20z"/><path d="m150 140h10v10h-10z" fill="#ffef16"/><path d="m170 140h10v10h-10z" fill="#ffef16"/><path d="m180 140h20v10h-20z" fill="#fff"/><path d="m200 140h20v10h-20z"/><path d="m220 140h10v10h-10z" fill="#ffef16"/><path d="m70 150h10v10h-10z" fill="#ffef16"/><path d="m100 150h10v10h-10z" fill="#ffef16"/><path d="m110 150h20v10h-20z" fill="#fff"/><path d="m130 150h20v10h-20z"/><path d="m150 150h10v10h-10z" fill="#ffef16"/><path d="m170 150h10v10h-10z" fill="#ffef16"/><path d="m180 150h20v10h-20z" fill="#fff"/><path d="m200 150h20v10h-20z"/><path d="m220 150h10v10h-10z" fill="#ffef16"/><path d="m100 160h60v10h-60z" fill="#ffef16"/><path d="m170 160h60v10h-60z" fill="#ffef16"/></svg>