<svg xmlns="http://www.w3.org/2000/svg" width="512" height="512" fill="none"><path fill="#F90" d="M0 0h512v512H0z"/><path fill="#36CF00" d="M84 340h344v160H84z"/><g><animateTransform attributeName="transform" dur="0.4s" keyTimes="0;0.5;1" repeatCount="indefinite" type="translate" values="0 0;0 28;0 0"/><path fill="#3BE200" d="M196 176h120v296H196z"/><path fill="#36CF00" d="M196 96h120v80H196z"/><path fill="#3BE200" d="M250 96h12v36h-12z"><animate attributeName="fill" begin="5s" dur="0.4s" repeatCount="5" values="#3BE200; #fff; #3BE200"/></path><path fill="#121212" d="M234 130.25 196 119V96h120v36l-39-21.5v19.75l-43-19.75v19.75Z"/><path fill="#121212" d="M204 179h47v48h-47v-48Z"/><path stroke="#121212" stroke-width="6" d="M204 179h47m-47 0v48h47v-48m-47 0h-8m55 0h65"/><path stroke="#121212" stroke-width="6" d="M246 327.391s12.823-5.38 16 0c3.153 5.341-7.5 14-7.5 14s13.132-4.082 16 1.5c3.219 6.265-12.5 13-12.5 13"/></g></svg>