<?xml version="1.0" encoding="UTF-8"?><svg id="_レイヤー_2" xmlns="http://www.w3.org/2000/svg" viewBox="0 0 833.33 833.33"><defs><style>.cls-1{fill:#369fba;}.cls-2{fill:#43b0a6;}.cls-3{fill:#1a1a26;}.cls-4{fill:#955eff;}.cls-5{fill:#5a6de6;}.cls-6{fill:#24b67f;}.cls-7{fill:#3c7ac2;}</style></defs><g id="_レイヤー_1-2"><rect class="cls-3" width="833.33" height="833.33"/><rect class="cls-6" x="399.83" y="254" width="12.83" height="12.83"/><rect class="cls-6" x="399.83" y="274.83" width="12.83" height="12.83"/><rect class="cls-6" x="420.67" y="254" width="12.83" height="12.83"/><rect class="cls-6" x="441.5" y="254" width="12.83" height="12.83"/><rect class="cls-6" x="462.33" y="254" width="12.83" height="12.83"/><rect class="cls-6" x="462.33" y="274.83" width="12.83" height="12.83"/><rect class="cls-6" x="483.17" y="254" width="12.83" height="12.83"/><rect class="cls-6" x="483.17" y="274.83" width="12.83" height="12.83"/><rect class="cls-2" x="337.33" y="316.5" width="12.83" height="12.83"/><rect class="cls-6" x="399.83" y="295.67" width="12.83" height="12.83"/><rect class="cls-2" x="441.5" y="316.5" width="12.83" height="12.83"/><rect class="cls-2" x="337.33" y="337.33" width="12.83" height="12.83"/><rect class="cls-2" x="337.33" y="358.17" width="12.83" height="12.83"/><rect class="cls-2" x="441.5" y="337.33" width="12.83" height="12.83"/><rect class="cls-1" x="441.5" y="358.17" width="12.83" height="12.83"/><rect class="cls-2" x="462.33" y="358.17" width="12.83" height="12.83"/><rect class="cls-1" x="483.17" y="358.17" width="12.83" height="12.83"/><rect class="cls-2" x="337.33" y="379" width="12.83" height="12.83"/><rect class="cls-1" x="358.17" y="399.83" width="12.83" height="12.83"/><rect class="cls-1" x="379" y="399.83" width="12.83" height="12.83"/><rect class="cls-1" x="399.83" y="399.83" width="12.83" height="12.83"/><rect class="cls-1" x="420.67" y="399.83" width="12.83" height="12.83"/><rect class="cls-1" x="483.17" y="379" width="12.83" height="12.83"/><rect class="cls-1" x="483.17" y="399.83" width="12.83" height="12.83"/><rect class="cls-1" x="399.83" y="420.67" width="12.83" height="12.83"/><rect class="cls-7" x="399.83" y="441.5" width="12.83" height="12.83"/><rect class="cls-1" x="462.33" y="420.67" width="12.83" height="12.83"/><rect class="cls-1" x="462.33" y="441.5" width="12.83" height="12.83"/><rect class="cls-1" x="483.17" y="420.67" width="12.83" height="12.83"/><rect class="cls-7" x="483.17" y="441.5" width="12.83" height="12.83"/><rect class="cls-7" x="379" y="462.33" width="12.83" height="12.83"/><rect class="cls-7" x="399.83" y="462.33" width="12.83" height="12.83"/><rect class="cls-7" x="420.67" y="462.33" width="12.83" height="12.83"/><rect class="cls-5" x="337.33" y="504" width="12.83" height="12.83"/><rect class="cls-4" x="337.33" y="524.83" width="12.83" height="12.83"/><rect class="cls-5" x="358.17" y="504" width="12.83" height="12.83"/><rect class="cls-4" x="358.17" y="524.83" width="12.83" height="12.83"/><rect class="cls-2" x="295.67" y="337.33" width="12.83" height="12.83"/><rect class="cls-2" x="316.5" y="337.33" width="12.83" height="12.83"/><rect class="cls-2" x="316.5" y="358.17" width="12.83" height="12.83"/><rect class="cls-2" x="316.5" y="379" width="12.83" height="12.83"/><rect class="cls-7" x="295.67" y="462.33" width="12.83" height="12.83"/><rect class="cls-5" x="295.67" y="483.17" width="12.83" height="12.83"/><rect class="cls-7" x="316.5" y="462.33" width="12.83" height="12.83"/><rect class="cls-5" x="316.5" y="483.17" width="12.83" height="12.83"/><rect class="cls-6" x="254" y="337.33" width="12.83" height="12.83"/><rect class="cls-2" x="254" y="358.17" width="12.83" height="12.83"/><rect class="cls-2" x="274.83" y="337.33" width="12.83" height="12.83"/><rect class="cls-1" x="254" y="379" width="12.83" height="12.83"/><rect class="cls-7" x="254" y="441.5" width="12.83" height="12.83"/><rect class="cls-7" x="274.83" y="441.5" width="12.83" height="12.83"/><rect class="cls-5" x="295.67" y="504" width="12.83" height="12.83"/><rect class="cls-4" x="316.5" y="504" width="12.83" height="12.83"/><rect class="cls-5" x="212.33" y="504" width="12.83" height="12.83"/><rect class="cls-5" x="212.33" y="524.83" width="12.83" height="12.83"/><rect class="cls-5" x="233.17" y="504" width="12.83" height="12.83"/><rect class="cls-4" x="233.17" y="524.83" width="12.83" height="12.83"/><rect class="cls-4" x="441.5" y="524.83" width="12.83" height="12.83"/><rect class="cls-4" x="295.67" y="566.5" width="12.83" height="12.83"/><rect class="cls-4" x="316.5" y="566.5" width="12.83" height="12.83"/><rect class="cls-5" x="462.33" y="524.83" width="12.83" height="12.83"/><rect class="cls-5" x="483.17" y="524.83" width="12.83" height="12.83"/><rect class="cls-6" x="524.83" y="295.67" width="12.83" height="12.83"/><rect class="cls-2" x="524.83" y="316.5" width="12.83" height="12.83"/><rect class="cls-2" x="524.83" y="337.33" width="12.83" height="12.83"/><rect class="cls-1" x="504" y="420.67" width="12.83" height="12.83"/><rect class="cls-7" x="504" y="441.5" width="12.83" height="12.83"/><rect class="cls-1" x="524.83" y="420.67" width="12.83" height="12.83"/><rect class="cls-7" x="504" y="462.33" width="12.83" height="12.83"/><rect class="cls-5" x="504" y="483.17" width="12.83" height="12.83"/><rect class="cls-2" x="545.67" y="337.33" width="12.83" height="12.83"/><rect class="cls-2" x="566.5" y="337.33" width="12.83" height="12.83"/><rect class="cls-2" x="566.5" y="358.17" width="12.83" height="12.83"/><rect class="cls-2" x="566.5" y="379" width="12.83" height="12.83"/><rect class="cls-1" x="566.5" y="399.83" width="12.83" height="12.83"/><rect class="cls-1" x="545.67" y="420.67" width="12.83" height="12.83"/><rect class="cls-1" x="566.5" y="420.67" width="12.83" height="12.83"/><rect class="cls-5" x="504" y="504" width="12.83" height="12.83"/><rect class="cls-5" x="504" y="524.83" width="12.83" height="12.83"/><rect class="cls-5" x="524.83" y="504" width="12.83" height="12.83"/><rect class="cls-5" x="524.83" y="524.83" width="12.83" height="12.83"/><rect class="cls-1" x="295.67" y="399.83" width="54.5" height="54.5"/><rect class="cls-6" x="337.33" y="254" width="54.5" height="54.5"/><rect class="cls-2" x="358.17" y="316.5" width="75.33" height="75.33"/><rect class="cls-2" x="462.33" y="295.67" width="54.5" height="54.5"/><rect class="cls-2" x="504" y="358.17" width="54.5" height="54.5"/><rect class="cls-7" x="441.5" y="462.33" width="54.5" height="54.5"/><rect class="cls-5" x="379" y="483.17" width="54.5" height="54.5"/><rect class="cls-7" x="524.83" y="441.5" width="54.5" height="54.5"/><rect class="cls-1" x="358.17" y="420.67" width="33.67" height="33.67"/><rect class="cls-2" x="274.83" y="358.17" width="33.67" height="33.67"/><rect class="cls-2" x="420.67" y="274.83" width="33.67" height="33.67"/><rect class="cls-7" x="337.33" y="462.33" width="33.67" height="33.67"/><rect class="cls-4" x="420.67" y="545.67" width="33.67" height="33.67"/><rect class="cls-4" x="295.67" y="524.83" width="33.67" height="33.67"/><rect class="cls-7" x="254" y="462.33" width="33.67" height="33.67"/><rect class="cls-1" x="254" y="399.83" width="33.67" height="33.67"/><rect class="cls-1" x="420.67" y="420.67" width="33.67" height="33.67"/><rect class="cls-1" x="441.5" y="379" width="33.67" height="33.67"/><rect class="cls-6" x="295.67" y="295.67" width="33.67" height="33.67"/><rect class="cls-7" x="587.33" y="462.33" width="33.67" height="33.67"/></g></svg>