<?xml version="1.0" encoding="UTF-8"?><svg xmlns="http://www.w3.org/2000/svg" viewBox="0 0 198.43 340.16"><defs><style>.e{mix-blend-mode:lighten;}.f{isolation:isolate;}.g{stroke:#f2f2f2;}.g,.h,.i,.j{fill:none;stroke-miterlimit:10;}.g,.h,.j{stroke-width:.5px;}.h,.i{stroke:red;}.j{stroke:#999;}.k{fill:#999;}.l{fill:#ccc;}.m{fill:red;opacity:.22;}.n{fill:#140016;}.o{fill:#f2f2f2;}</style></defs><g class="f"><g id="b"><g id="c"><g id="d"><rect class="o" width="198.43" height="340.16" rx="1.34" ry="1.34"/><path class="n" d="m6.93,333.51c-1.16,0-2.1-.87-2.1-1.95V8.6c0-1.08.94-1.95,2.1-1.95h184.56c1.16,0,2.1.87,2.1,1.95v322.96c0,1.08-.94,1.95-2.1,1.95"/><rect class="g" x="7.74" y="9.5" width="182.95" height="321.15" rx="1.34" ry="1.34"/><path class="l" d="m106.22,20.62c.15,0,.25-.03.32-.08.06-.06.1-.13.1-.23s-.03-.17-.1-.23c-.06-.06-.17-.08-.32-.08h-4.89c-.15,0-.25.03-.32.08-.06.06-.1.13-.1.23s.03.17.1.23c.06.06.17.08.32.08h2.14v7.43h-2.14c-.15,0-.25.03-.32.08-.06.06-.1.13-.1.23s.03.16.1.22.17.09.32.09h4.89c.15,0,.25-.03.32-.09s.1-.13.1-.22c0-.09-.03-.17-.1-.23-.06-.06-.17-.08-.32-.08h-2.14v-7.43h2.14Zm-9.11,0c.15,0,.25-.03.32-.08.06-.06.1-.13.1-.23s-.03-.17-.1-.23c-.06-.06-.17-.08-.32-.08h-4.89c-.15,0-.25.03-.32.08-.06.06-.1.13-.1.23s.03.17.1.23c.06.06.17.08.32.08h2.14v7.43h-2.14c-.15,0-.25.03-.32.08-.06.06-.1.13-.1.23s.03.16.1.22.17.09.32.09h4.89c.15,0,.25-.03.32-.09s.1-.13.1-.22c0-.09-.03-.17-.1-.23-.06-.06-.17-.08-.32-.08h-2.14v-7.43h2.14Z"/><g class="e"><polygon class="m" points="119.21 220.72 119.21 170.25 60.08 119.64 119.21 220.72"/><polyline class="h" points="119.21 220.59 119.21 170.25 59.84 119.51"/><line class="h" x1="119.21" y1="170.25" x2="178.59" y2="119.51"/><polygon class="i" points="60.08 119.58 178.35 119.58 119.21 220.65 60.08 119.58"/><polygon class="i" points="20.08 119.58 138.35 119.58 79.21 220.65 20.08 119.58"/><polygon class="m" points="79.21 220.65 79.21 170.18 138.35 119.58 79.21 220.65"/><polyline class="h" points="79.21 220.52 79.21 170.18 138.59 119.44"/><line class="h" x1="79.21" y1="170.18" x2="19.84" y2="119.44"/></g><path class="k" d="m98.48,304.9v1.18h.42c.06,0,.09.01.12.03.02.02.03.05.03.08,0,.03-.01.06-.03.08-.02.02-.06.03-.12.03h-.94c-.05,0-.09-.01-.12-.03-.02-.02-.03-.05-.03-.08,0-.03.01-.06.03-.08.02-.02.06-.03.12-.03h.3v-2.69h-.3c-.05,0-.09-.01-.12-.03-.02-.02-.03-.05-.03-.08s.01-.06.03-.08c.02-.02.06-.03.12-.03h1.36c.28,0,.52.09.71.27.19.18.29.38.29.6,0,.16-.06.31-.18.45-.12.14-.32.26-.6.36.16.11.3.24.41.38.11.14.3.43.55.86h.17c.05,0,.09.01.12.03.02.02.03.05.03.08,0,.03-.01.06-.03.08-.02.02-.06.03-.12.03h-.3c-.28-.5-.49-.83-.65-1-.15-.17-.33-.3-.53-.4h-.72Zm0-.23h.61c.2,0,.38-.04.54-.11.16-.07.28-.16.35-.25s.11-.19.11-.3c0-.15-.08-.29-.23-.43-.15-.14-.33-.2-.55-.2h-.83v1.29Z"/><path class="k" d="m93.05,312.33h-1.48l-.3.82h.43c.05,0,.09.01.12.03.02.02.03.05.03.08,0,.03-.01.06-.03.08-.02.02-.06.03-.12.03h-.84c-.05,0-.09-.01-.12-.03-.02-.02-.03-.05-.03-.08,0-.03.01-.06.03-.08.02-.02.06-.03.12-.03h.17l1-2.69h-.67c-.05,0-.09-.01-.12-.03-.02-.02-.03-.05-.03-.08s.01-.06.03-.08c.02-.02.06-.03.12-.03h1.13l1.1,2.91h.17c.05,0,.09.01.12.03.02.02.03.05.03.08,0,.03-.01.06-.03.08-.02.02-.06.03-.12.03h-.84c-.06,0-.09-.01-.12-.03-.02-.02-.03-.05-.03-.08,0-.03.01-.06.03-.08.02-.02.06-.03.12-.03h.43l-.31-.82Zm-.09-.23l-.62-1.64h-.08l-.6,1.64h1.31Z"/><path class="k" d="m107.72,311.89c0,.3-.06.58-.18.84-.12.26-.29.46-.5.6-.21.14-.44.21-.69.21-.36,0-.68-.15-.96-.46s-.41-.7-.41-1.19.14-.88.41-1.19c.28-.31.6-.46.96-.46.25,0,.47.07.69.21.21.14.38.34.5.6.12.26.18.53.18.84Zm-.23,0c0-.37-.11-.7-.32-.99-.21-.29-.49-.44-.83-.44-.32,0-.59.14-.81.42-.22.28-.34.61-.34,1.01,0,.42.12.76.35,1.03.24.27.5.4.8.4.34,0,.61-.15.83-.44.21-.29.32-.62.32-.99Z"/><path class="k" d="m99.32,317.24v2.69h.58c.05,0,.09.01.12.03.02.02.03.05.03.08,0,.03-.01.06-.03.08-.02.02-.06.03-.12.03h-1.4c-.05,0-.09-.01-.12-.03-.02-.02-.03-.05-.03-.08,0-.03.01-.06.03-.08.02-.02.06-.03.12-.03h.58v-2.69h-.92v.78c0,.06-.01.09-.03.12-.02.02-.05.03-.08.03-.03,0-.06-.01-.08-.03-.02-.02-.03-.06-.03-.12v-1.01h2.52v1.01c0,.06-.01.09-.03.12-.02.02-.05.03-.08.03s-.06-.01-.08-.03c-.02-.02-.03-.06-.03-.12v-.78h-.92Z"/><path class="j" d="m106.34,309.6c-.74-2.52-2.78-4.48-5.33-5.11"/><path class="j" d="m101.02,318.88c2.37-.59,4.28-2.31,5.14-4.55"/><path class="j" d="m92.32,314.33c.84,2.2,2.7,3.89,4.99,4.51"/><path class="j" d="m97.55,304.64c-2.54.67-4.55,2.65-5.25,5.18"/></g></g></g></g></svg>