<svg xmlns="http://www.w3.org/2000/svg" viewBox="0 -0.5 50 50" shape-rendering="crispEdges">
	<title>Bitcoin Pussies #032</title>
	<desc>Bitcoin Pussies are 69 uniquely drawn and inscribed cats on Bitcoin</desc>
	<desc xmlns:meow="https://bitcoinpussies.com/">
		<meow:traits>
			<meow:Skin>Black, White</meow:Skin>
			<meow:Eyes>Wink</meow:Eyes>
			<meow:Gear>Pencil and beret</meow:Gear>
			<meow:Message>A creative little pussy</meow:Message>
		</meow:traits>
	</desc>
	<path stroke="#51445a" d="M0 0h50M0 1h50M0 2h50M0 3h50M0 4h50M0 5h50M0 6h50M0 7h50M0 8h50M0 9h50M0 10h50M0 11h50M0 12h50M0 13h31M32 13h18M0 14h15M18 14h12M31 14h1M35 14h15M0 15h14M20 15h5M36 15h14M0 16h14M36 16h14M0 17h14M36 17h14M0 18h14M36 18h14M0 19h14M36 19h14M0 20h15M35 20h15M0 21h15M35 21h15M0 22h14M36 22h14M0 23h14M36 23h14M0 24h13M37 24h13M0 25h12M38 25h12M0 26h13M37 26h13M0 27h12M38 27h12M0 28h13M37 28h13M0 29h14M36 29h14M0 30h15M35 30h15M0 31h17M33 31h17M0 32h14M16 32h3M31 32h19M0 33h13M17 33h1M32 33h18M0 34h13M33 34h17M0 35h14M35 35h15M0 36h15M35 36h15M0 37h16M33 37h17M0 38h17M32 38h18M0 39h19M31 39h19M0 40h50M0 41h50M0 42h50M0 43h50M0 44h50M0 45h50M0 46h50M0 47h50M0 48h50M0 49h50" />
	<path stroke="#000000" d="M31 13h1M15 14h3M30 14h1M32 14h3M14 15h1M18 15h2M25 15h7M35 15h1M14 16h1M20 16h6M31 16h1M35 16h1M14 17h1M18 17h2M24 17h1M32 17h1M35 17h1M14 18h1M17 18h1M25 18h2M33 18h1M35 18h1M14 19h1M16 19h1M27 19h3M34 19h2M15 20h1M30 20h5M15 21h1M34 21h1M14 22h1M29 22h3M35 22h1M14 23h1M19 23h2M28 23h1M32 23h1M35 23h1M13 24h1M18 24h1M21 24h1M36 24h1M12 25h1M24 25h1M26 25h1M37 25h1M13 26h1M25 26h1M36 26h1M12 27h1M37 27h1M13 28h1M36 28h1M14 29h1M35 29h1M15 30h2M33 30h2M17 31h3M30 31h3M14 32h2M19 32h1M30 32h1M13 33h1M16 33h1M18 33h1M20 33h1M23 33h1M26 33h1M29 33h1M31 33h1M13 34h1M16 34h5M23 34h4M29 34h4M14 35h2M20 35h1M23 35h1M26 35h1M29 35h1M33 35h2M15 36h1M21 36h2M27 36h2M33 36h2M16 37h17M17 38h2M20 38h1M22 38h1M27 38h1M29 38h1M31 38h1M19 39h12" />
	<path stroke="#2c2c2c" d="M15 15h3M15 16h1M19 16h1M15 17h1M20 17h4M15 18h1M18 18h4M15 19h1M17 19h4M16 20h4M16 21h3M15 22h2M35 24h1M35 25h2M35 26h1M34 27h3M32 28h4M32 29h3M17 30h4M30 30h3M20 31h2M29 31h1M20 32h4M28 32h2M14 33h2M19 33h1M21 33h2M24 33h2M27 33h2M30 33h1M14 34h2M21 34h2M27 34h2M21 35h2M27 35h2M19 38h1M24 38h2M30 38h1" />
	<path stroke="#ffffff" d="M32 15h3M34 16h1M34 17h1M22 18h3M34 18h1M21 19h6M20 20h10M19 21h15M17 22h12M32 22h3M15 23h4M21 23h7M30 23h1M33 23h2M14 24h4M19 24h2M22 24h7M32 24h3M13 25h11M25 25h1M27 25h2M32 25h3M14 26h4M20 26h5M26 26h5M33 26h2M13 27h21M14 28h18M15 29h17M21 30h9M22 31h7M24 32h4M18 35h1M18 36h1M21 38h1M23 38h1M26 38h1M28 38h1" />
	<path stroke="#ffd4c6" d="M16 16h3M32 16h2M16 17h2M33 17h1M16 18h1" />
	<path stroke="#9d3032" d="M26 16h5M25 17h7M27 18h6M30 19h4" />
	<path stroke="#4aadff" d="M29 23h1M31 23h1M29 24h3" />
	<path stroke="#72beff" d="M29 25h3" />
	<path stroke="#ffadaf" d="M18 26h2M31 26h2" />
	<path stroke="#c72831" d="M16 35h2M16 36h2" />
	<path stroke="#ffc32f" d="M19 35h1M24 35h2M30 35h2M19 36h2M23 36h4M29 36h3" />
	<path stroke="#efb97c" d="M32 35h1M32 36h1" />
</svg>