<svg height="320" shape-rendering="crispEdges" viewBox="0 0 320 320" width="320" xmlns="http://www.w3.org/2000/svg"><rect fill="#d5d7e1" height="100%" width="100%"/><g fill="#63a0f9"><path d="m90 210h140v10h-140z"/><path d="m90 220h140v10h-140z"/><path d="m90 230h140v10h-140z"/><path d="m90 240h140v10h-140z"/><path d="m90 250h20v10h-20z"/><path d="m120 250h110v10h-110z"/><path d="m90 260h20v10h-20z"/><path d="m120 260h110v10h-110z"/><path d="m90 270h20v10h-20z"/><path d="m120 270h110v10h-110z"/><path d="m90 280h20v10h-20z"/><path d="m120 280h110v10h-110z"/><path d="m90 290h20v10h-20z"/><path d="m120 290h110v10h-110z"/><path d="m90 300h20v10h-20z"/><path d="m120 300h110v10h-110z"/><path d="m90 310h20v10h-20z"/><path d="m120 310h110v10h-110z"/></g><path d="m90 210h140v10h-140z" fill="#e9265c"/><path d="m90 220h140v10h-140z" fill="#ffc110"/><path d="m90 230h140v10h-140z" fill="#f78a18"/><path d="m30 90h40v10h-40z" fill="#2b83f6"/><path d="m250 90h40v10h-40z" fill="#e11833"/><path d="m40 100h10v10h-10z" fill="#ffc110"/><path d="m60 100h40v10h-40z" fill="#2b83f6"/><path d="m220 100h40v10h-40z" fill="#e11833"/><path d="m270 100h10v10h-10z" fill="#fff0ee"/><path d="m40 110h10v10h-10z" fill="#ffc110"/><path d="m60 110h10v10h-10z" fill="#e11833"/><path d="m80 110h40v10h-40z" fill="#2b83f6"/><path d="m200 110h30v10h-30z" fill="#e11833"/><path d="m230 110h10v10h-10z" fill="#2b83f6"/><path d="m250 110h10v10h-10z" fill="#ffc110"/><path d="m270 110h10v10h-10z" fill="#fff0ee"/><path d="m40 120h10v10h-10z" fill="#ffc110"/><path d="m60 120h10v10h-10z" fill="#e11833"/><path d="m80 120h10v10h-10z" fill="#2b83f6"/><path d="m100 120h10v10h-10z" fill="#fff0ee"/><path d="m110 120h20v10h-20z" fill="#2b83f6"/><path d="m190 120h20v10h-20z" fill="#e11833"/><path d="m210 120h10v10h-10z" fill="#2b83f6"/><path d="m230 120h10v10h-10z" fill="#2b83f6"/><path d="m250 120h10v10h-10z" fill="#ffc110"/><path d="m270 120h10v10h-10z" fill="#fff0ee"/><path d="m40 130h10v10h-10z" fill="#ffc110"/><path d="m60 130h10v10h-10z" fill="#e11833"/><path d="m80 130h10v10h-10z" fill="#2b83f6"/><path d="m100 130h10v10h-10z" fill="#fff0ee"/><path d="m120 130h20v10h-20z" fill="#2b83f6"/><path d="m180 130h20v10h-20z" fill="#e11833"/><path d="m210 130h10v10h-10z" fill="#2b83f6"/><path d="m230 130h10v10h-10z" fill="#2b83f6"/><path d="m250 130h10v10h-10z" fill="#ffc110"/><path d="m270 130h10v10h-10z" fill="#fff0ee"/><path d="m40 140h10v10h-10z" fill="#ffc110"/><path d="m60 140h10v10h-10z" fill="#e11833"/><path d="m80 140h10v10h-10z" fill="#2b83f6"/><path d="m100 140h10v10h-10z" fill="#fff0ee"/><path d="m120 140h30v10h-30z" fill="#2b83f6"/><path d="m170 140h20v10h-20z" fill="#e11833"/><path d="m190 140h10v10h-10z" fill="#2b83f6"/><path d="m210 140h10v10h-10z" fill="#2b83f6"/><path d="m230 140h10v10h-10z" fill="#2b83f6"/><path d="m250 140h10v10h-10z" fill="#ffc110"/><path d="m270 140h10v10h-10z" fill="#fff0ee"/><path d="m40 150h10v10h-10z" fill="#ffc110"/><path d="m60 150h10v10h-10z" fill="#e11833"/><path d="m80 150h10v10h-10z" fill="#2b83f6"/><path d="m100 150h10v10h-10z" fill="#fff0ee"/><path d="m120 150h10v10h-10z" fill="#2b83f6"/><path d="m140 150h20v10h-20z" fill="#2b83f6"/><path d="m160 150h20v10h-20z" fill="#e11833"/><path d="m190 150h10v10h-10z" fill="#2b83f6"/><path d="m210 150h10v10h-10z" fill="#2b83f6"/><path d="m230 150h10v10h-10z" fill="#2b83f6"/><path d="m250 150h10v10h-10z" fill="#ffc110"/><path d="m270 150h10v10h-10z" fill="#fff0ee"/><path d="m40 160h10v10h-10z" fill="#2b83f6"/><path d="m60 160h10v10h-10z" fill="#fff0ee"/><path d="m80 160h10v10h-10z" fill="#ffc110"/><path d="m100 160h10v10h-10z" fill="#e11833"/><path d="m120 160h10v10h-10z" fill="#2b83f6"/><path d="m150 160h20v10h-20z" fill="#e11833"/><path d="m190 160h10v10h-10z" fill="#2b83f6"/><path d="m210 160h10v10h-10z" fill="#2b83f6"/><path d="m230 160h10v10h-10z" fill="#e11833"/><path d="m250 160h10v10h-10z" fill="#2b83f6"/><path d="m270 160h10v10h-10z" fill="#e11833"/><path d="m40 170h10v10h-10z" fill="#2b83f6"/><path d="m60 170h10v10h-10z" fill="#fff0ee"/><path d="m80 170h10v10h-10z" fill="#ffc110"/><path d="m100 170h10v10h-10z" fill="#e11833"/><path d="m120 170h10v10h-10z" fill="#2b83f6"/><path d="m140 170h20v10h-20z" fill="#e11833"/><path d="m160 170h20v10h-20z" fill="#2b83f6"/><path d="m190 170h10v10h-10z" fill="#2b83f6"/><path d="m210 170h10v10h-10z" fill="#2b83f6"/><path d="m230 170h10v10h-10z" fill="#e11833"/><path d="m250 170h10v10h-10z" fill="#2b83f6"/><path d="m270 170h10v10h-10z" fill="#e11833"/><path d="m40 180h10v10h-10z" fill="#2b83f6"/><path d="m60 180h10v10h-10z" fill="#fff0ee"/><path d="m80 180h10v10h-10z" fill="#ffc110"/><path d="m100 180h10v10h-10z" fill="#e11833"/><path d="m120 180h10v10h-10z" fill="#2b83f6"/><path d="m130 180h20v10h-20z" fill="#e11833"/><path d="m170 180h30v10h-30z" fill="#2b83f6"/><path d="m210 180h10v10h-10z" fill="#2b83f6"/><path d="m230 180h10v10h-10z" fill="#e11833"/><path d="m250 180h10v10h-10z" fill="#2b83f6"/><path d="m270 180h10v10h-10z" fill="#e11833"/><path d="m40 190h10v10h-10z" fill="#2b83f6"/><path d="m60 190h10v10h-10z" fill="#fff0ee"/><path d="m80 190h10v10h-10z" fill="#ffc110"/><path d="m100 190h10v10h-10z" fill="#e11833"/><path d="m120 190h20v10h-20z" fill="#e11833"/><path d="m180 190h20v10h-20z" fill="#2b83f6"/><path d="m210 190h10v10h-10z" fill="#2b83f6"/><path d="m230 190h10v10h-10z" fill="#e11833"/><path d="m250 190h10v10h-10z" fill="#2b83f6"/><path d="m270 190h10v10h-10z" fill="#e11833"/><path d="m40 200h10v10h-10z" fill="#2b83f6"/><path d="m60 200h10v10h-10z" fill="#fff0ee"/><path d="m80 200h10v10h-10z" fill="#ffc110"/><path d="m100 200h30v10h-30z" fill="#e11833"/><path d="m190 200h30v10h-30z" fill="#2b83f6"/><path d="m230 200h10v10h-10z" fill="#e11833"/><path d="m250 200h10v10h-10z" fill="#2b83f6"/><path d="m270 200h10v10h-10z" fill="#e11833"/><path d="m40 210h10v10h-10z" fill="#2b83f6"/><path d="m60 210h50v10h-50z" fill="#e11833"/><path d="m210 210h50v10h-50z" fill="#2b83f6"/><path d="m270 210h10v10h-10z" fill="#e11833"/><path d="m30 220h50v10h-50z" fill="#e11833"/><path d="m240 220h50v10h-50z" fill="#2b83f6"/><path d="m100 110h60v10h-60z" fill="#ffc110"/><path d="m170 110h60v10h-60z" fill="#f98f30"/><path d="m100 120h10v10h-10z" fill="#ffc110"/><path d="m110 120h20v10h-20z" fill="#fff"/><path d="m130 120h20v10h-20z"/><path d="m150 120h10v10h-10z" fill="#ffc110"/><path d="m170 120h10v10h-10z" fill="#f98f30"/><path d="m180 120h20v10h-20z" fill="#fff"/><path d="m200 120h20v10h-20z"/><path d="m220 120h10v10h-10z" fill="#f98f30"/><path d="m70 130h30v10h-30z" fill="#f98f30"/><path d="m100 130h10v10h-10z" fill="#ffc110"/><path d="m110 130h20v10h-20z" fill="#fff"/><path d="m130 130h20v10h-20z"/><path d="m150 130h10v10h-10z" fill="#ffc110"/><path d="m160 130h20v10h-20z" fill="#f98f30"/><path d="m180 130h20v10h-20z" fill="#fff"/><path d="m200 130h20v10h-20z"/><path d="m220 130h10v10h-10z" fill="#f98f30"/><path d="m70 140h10v10h-10z" fill="#f98f30"/><path d="m100 140h10v10h-10z" fill="#ffc110"/><path d="m110 140h20v10h-20z" fill="#fff"/><path d="m130 140h20v10h-20z"/><path d="m150 140h10v10h-10z" fill="#ffc110"/><path d="m170 140h10v10h-10z" fill="#f98f30"/><path d="m180 140h20v10h-20z" fill="#fff"/><path d="m200 140h20v10h-20z"/><path d="m220 140h10v10h-10z" fill="#f98f30"/><path d="m70 150h10v10h-10z" fill="#f98f30"/><path d="m100 150h10v10h-10z" fill="#ffc110"/><path d="m110 150h20v10h-20z" fill="#fff"/><path d="m130 150h20v10h-20z"/><path d="m150 150h10v10h-10z" fill="#ffc110"/><path d="m170 150h10v10h-10z" fill="#f98f30"/><path d="m180 150h20v10h-20z" fill="#fff"/><path d="m200 150h20v10h-20z"/><path d="m220 150h10v10h-10z" fill="#f98f30"/><path d="m100 160h60v10h-60z" fill="#ffc110"/><path d="m170 160h60v10h-60z" fill="#f98f30"/></svg>