<svg xmlns="http://www.w3.org/2000/svg" width="512" height="512" fill="none"><path fill="#F90" d="M0 0h512v512H0z"/><path fill="#DA420F" d="M84 340h344v160H84z"/><path fill="#1D1D1D" d="m108 400-24-8v16l24-8ZM404 400l24-8v16l-24-8ZM116 432l-32-8v16l32-8ZM396 432l32-8v16l-32-8ZM132 464l-48-8v16l48-8ZM380 464l48-8v16l-48-8ZM125 340h-16l8 24 8-24ZM387 340h16l-8 24-8-24ZM342 340h16l-8 32-8-32ZM170 340h-16l8 32 8-32Z"/><g><animateTransform attributeName="transform" dur="0.4s" keyTimes="0;0.5;1" repeatCount="indefinite" type="translate" values="0 0;0 28;0 0"/><path fill="#F15824" d="M196 176h120v296H196z"/><path fill="#1D1D1D" d="m292 276 24-8v16l-24-8ZM292 244l24-8v16l-24-8ZM220 276l-24-8v16l24-8ZM228 308l-32-8v16l32-8ZM284 308l32-8v16l-32-8ZM220 244l-24-8v16l24-8Z"/><path fill="#DA420F" d="M196 96h120v80H196z"/><path fill="#F15824" d="M250 96h12v36h-12z"><animate attributeName="fill" begin="5s" dur="0.4s" repeatCount="5" values="#F15824; #fff; #F15824"/></path><path fill="#AD00FF" d="M316 135.5H196v-40L240 5h77l-45 22v42l44 26.5v40ZM156 135.5h200v16H156z"/><path fill="#FFB039" d="M196 119.5h120v16H196zM257 11.5l2.694 8.292h8.719l-7.054 5.124 2.694 8.292L257 28.084l-7.053 5.124 2.694-8.292-7.054-5.124h8.719L257 11.5ZM236 46.5l2.694 8.292h8.719l-7.054 5.124 2.694 8.292L236 63.084l-7.053 5.124 2.694-8.292-7.054-5.124h8.719L236 46.5ZM251 79.5l2.694 8.292h8.719l-7.054 5.124 2.694 8.292L251 96.084l-7.053 5.124 2.694-8.292-7.054-5.124h8.719L251 79.5ZM207 88.5l2.694 8.292h8.719l-7.054 5.124 2.694 8.292-7.053-5.124-7.053 5.124 2.694-8.292-7.054-5.124h8.719L207 88.5ZM294 91.5l2.694 8.292h8.719l-7.054 5.124 2.694 8.292-7.053-5.124-7.053 5.124 2.694-8.292-7.054-5.124h8.719L294 91.5Z"/><path fill="#121212" d="M196 176h50.667l5.333 5.333L241 211l-45-13v-22ZM316 176h-50.667L260 181.333 271 211l45-13v-22Z"/><path fill="#121212" d="M246.666 176h18.667v8h-18.667z"/><mask id="a" width="55" height="27" x="196" y="184" maskUnits="userSpaceOnUse" style="mask-type:alpha"><path fill="#121212" d="M196 184h55l-10 27-45-13v-14Z"/></mask><g mask="url(#a)"><path fill="#FFF" d="M204.112 180h8.77l-10.524 43.235h-8.77L204.112 180Z"><animateTransform attributeName="transform" dur="4s" keyTimes="0;0.1;0.3;1" repeatCount="indefinite" type="translate" values="-32 0;-32 0;48 0;48 0"/></path></g><mask id="b" width="55" height="27" x="261" y="184" maskUnits="userSpaceOnUse" style="mask-type:alpha"><path fill="#121212" d="M316 184h-55l10 27 45-13v-14Z"/></mask><g mask="url(#b)"><path fill="#FFF" d="M269.641 180h8.77l-10.524 43.235h-8.77L269.641 180Z"><animateTransform attributeName="transform" dur="4s" keyTimes="0;0.1;0.3;1" repeatCount="indefinite" type="translate" values="-32 0;-32 0;48 0;48 0"/></path></g><path fill="#fff" d="M296 340h-80s0 40 40 40 40-40 40-40Z"/></g></svg>