<svg xmlns="http://www.w3.org/2000/svg" viewBox="0 0 50 50"><defs><style>.cls-2{fill:#231815}.cls-3{stroke-width:.43px}.cls-3,.cls-4,.cls-5,.cls-6,.cls-7,.cls-8{fill:none;stroke:#231815;stroke-linecap:round;stroke-miterlimit:10}.cls-4{stroke-width:.64px}.cls-5{stroke-width:.67px}.cls-6{stroke-width:.51px}.cls-7,.cls-8{stroke-width:.71px}</style></defs><path style="fill:#fff" d="M0 0h50v50H0z" id="_背景"/><g id="_ライン_太_"><circle class="cls-2" cx="28.55" cy="17.45" r=".4"/><path class="cls-8" d="M29.85 16.93c.1.38.31 1.12.4 1.49.03.11-.02.22-.11.29l-.35.24M29.15 19.35s-.21 1.31-1.16 2.04c-.62.47-1.48.43-2.08-.06l-1.45-1.18M25.95 24.55s4.3 6.3 6.1 11.8M18.15 20.95l.9 1.2M25.75 23.65c-1.4-2.1-5.1-2.7-5.1-2.7l-1.7-.3M19.75 22.55s4.3.9 5.5 1.7M12.36 45.6c-.21 1.27-.4 2.59-.58 3.95M18.75 22.75s-1.58 3.32-3.33 9.31M25.15 21.65v.36M28.85 22.45v.06M32.35 21.25v.06M21.35 20.05l-.1.3M23.96 15.61c-1.18-.43-1.08 1.84-.36 2.24"/><path class="cls-8" d="M27.65 19.35s.1.3.4.45M34.49 19.02l.34-.53M35.3 20.3l.51-.16M35.65 21.83l.48.26"/><path class="cls-7" d="m31.97 30.8-.29 1.23M34.13 31.19c-.02.52-.04 1.03-.07 1.55-.01.27-.03.54-.04.82M34.13 30.37l1.32-2.92M35.45 26.65l-1.21-1.04a.72.72 0 0 0-.44-.18l-.85.12M31.85 30.15s-.4-1.01 0-2.26l.04-1.63c0-.23.26-.39.46-.26.14.09.29.3.4.75.3 1.2.42 1 .42 1M31.45 25.85s-1.13.26-1.03.55 1.13.45 1.13.45M31.37 27.14s-.75.27-.65.56.77.36.77.36M32.95 26.85s.7-.1.3.8"/><path class="cls-8" d="M22.73 33.02c-.02 1.39 0 2.77-.03 4.15-.03 1.22-.24 2.66.23 3.84.38.97 1.5 1.42 2.38 1.83M23.65 42.84s1.87 6.21 3.88 6.71M28.3 49.55s6.15-3.8 8.95-9.4M31.35 32.65c.15.03 5.2 2.8 6.2 6.7"/><path class="cls-7" d="M14.35 32.55s3.2.9 3.5 1.2M13.67 32.55s-3.92 2.4-5.12 6.8M17.35 34.35s-2.7 3.7-2.8 6.4M9.25 39.75s2-.5 4.5.8M18.26 34.35s-2.31 4.3-1.51 11.1M10.05 40.45s-1.3 2.5-1.6 3.9M9.05 44.95c.72.15 1.39-.1 2.1-.27.66-.16 1.32 0 1.87.38.9.6 1.92 1.08 3.03.8"/><path class="cls-8" d="M19.05 34.65s1.2-.5 3-.6M18.45 35.85s1.4.58 3.5.7M17.65 39.35s2.1 1.3 4.4 1.5M17.35 42.75s2.5.4 4.9-1.2M17.45 44.55s2.15.9 6.07.3M26.85 9.25s3.2-.6 4.6 3.2M31.75 13.15c1.23.88.47 3.2-.9 3.5M27.85 14.58s-.9 1.17-3.1.87M29.47 14.9s-.32.95-2.22 1.15M30.95 14.75s-.3 1.2-1.7 1.7M22.15 18.85s.5-.3.8-.6M25 8.75s1.55.5 2.15 2.9M17.95 12.05s-.4 1.9.2 3.3M18.85 15.65c.39.14.79-.16 1.06-.41.33-.31.63-.69.84-1.09M21.85 13.65c.64.11 1.37.22 2.02.18 1.12-.06 2.48-.45 3.08-1.48M22.65 6.75s1.4.9 1.7 1.6M21.8 9.22s-.15-1.47.15-2.27M18.15 8.66s-.27 1.61-.2 2.59M18.85 8.65s1 .7 1.4 1.3M20.85 9.65c.12-.09.26-.16.4-.2M18.95 16.51c-.78.73-.8 1.98 0 2.64.41.33.98.45 1.49.36.39-.07.79-.32.96-.68M31.55 24.85l.34 1M29.25 23.05c.16 1.31 1.8 1.69 2.72.87.57-.51.62-1.33.29-1.99"/><path class="cls-2" d="M22.11 11.79c-.04-.05-.02-.13.01-.2.35-.81 1.18-1.19 2.02-.98.11.03.37.07.27.24-.11.19-.4.29-.59.37-.27.12-.53.24-.79.37-.24.12-.47.26-.75.26-.04 0-.08 0-.12-.02a.102.102 0 0 1-.06-.05ZM20.26 13.27c-.03-.16.1-.26.22-.35.2-.14.43-.2.66-.25.16-.03.4-.06.49.11.19.33-.06.76-.35.94-.38.24-.94-.01-1.03-.45ZM19.97 12.64s-.04-.08-.08-.11c-.22-.19-.55-.22-.83-.16-.19.04-.38.11-.53.24-.1.09-.21.22-.23.35-.02.15.12.2.24.2.45.02 1-.12 1.35-.4a.16.16 0 0 0 .07-.09v-.03ZM22.49 9.34s-.02-.03-.02-.05v-.07c.03-.26.03-.53.05-.79 0-.11.02-.55.08-.63.08-.1.23.03.3.1.26.26.53.5.68.83.04.08.02.14-.04.2-.21.19-.5.33-.77.43-.08.03-.22.07-.28-.02ZM18.74 11.27s-.02-.03-.02-.05v-.07c.02-.26 0-.53 0-.79 0-.11-.02-.55.04-.63.08-.1.23.01.31.08.28.24.46.57.64.89.05.08.03.14-.03.2-.05.05-.11.09-.17.13-.12.08-.25.15-.38.2-.08.03-.29.13-.37.04Z"/><path class="cls-8" d="M28.67 21.91s1.36-1.25 3.36-1.22"/></g><g id="_ライン_細_"><path class="cls-3" d="M25.3 25s-3.5.9-2.33 7.15M23.8 12.3c.36.04.73-.03 1.07-.17.35-.15.64-.39.93-.63M24.85 12.79s.65-.09 1.25-.69M19.7 13.7c-.16.12-.32.25-.51.33s-.41.09-.62.09M18.7 14.7s.6.1.9-.2M29.5 22.3s.7-.8 2.2-.8"/><circle class="cls-2" cx="25.9" cy="32" r=".3"/><path class="cls-8" d="M26.74 33.12c.09.76-1.15 1-1.45.36-.02-.04-.06-.07-.11-.06-.11.02-.3.02-.32.02-.56-.08-.87-.89-.35-1.24.01 0 .01-.02 0-.03-.69-.51-.11-1.76.74-1.35M28.4 48.43c-.11-.33-.05-.72.26-.91.04-.02.06-.07.05-.12-.03-.11-.05-.3-.05-.31.03-.56.8-.95 1.2-.47 0 .01.03.01.03 0 .29-.47.93-.45 1.26-.14M26.23 30.52c.07-.05.21-.12.22-.13.43-.14.95.33.7.77 0 0 0 .02.01.02.68.12.72 1.23-.04 1.24"/><circle class="cls-2" cx="33.8" cy="40.3" r=".3"/><path class="cls-8" d="M32.56 39.81c-.51-.58.36-1.48.98-1.13.04.02.09.02.13-.01.08-.08.24-.19.25-.2.51-.25 1.22.23 1 .82 0 .01 0 .03.02.03.86.02 1.11 1.38.17 1.53M34.48 41.37c-.02.09-.07.23-.07.25-.21.4-.91.42-1.04-.07 0-.01-.01-.02-.02-.01-.57.38-1.37-.39-.82-.92"/><circle class="cls-2" cx="20.7" cy="17" r=".3"/><path class="cls-6" d="M21.42 17.72c.06.55-.82.72-1.04.26a.068.068 0 0 0-.08-.04c-.08.01-.22.01-.23.01-.4-.06-.62-.64-.25-.89v-.02c-.49-.37-.08-1.27.53-.97M20.89 15.94s.14-.11.15-.11c.29-.14.7.14.57.48v.02c.5.02.63.81.08.88"/><ellipse class="cls-2" cx="20.14" cy="27.66" rx=".29" ry=".25" transform="rotate(-73.94 20.135 27.664)"/><path class="cls-4" d="M20.65 28.74c.01.74-1.03.96-1.23.35-.01-.04-.05-.07-.09-.06-.09.02-.25.02-.26.02-.46-.08-.65-.86-.19-1.2.01 0 .01-.02 0-.03-.53-.5.05-1.7.72-1.3M20.44 26.24c.06-.05.18-.12.19-.12.37-.14.76.31.52.74v.02c.55.11.5 1.19-.13 1.19"/><path class="cls-8" d="M25.63 39.74c-.05-.07-.13-.2-.14-.22-.16-.43.29-.96.74-.73 0 0 .02 0 .02-.01.09-.69 1.2-.77 1.24 0"/><circle class="cls-2" cx="27.1" cy="40.2" r=".3"/><path class="cls-8" d="M28.15 39.25c.77-.05.94 1.2.29 1.47-.04.02-.07.06-.07.11.01.11 0 .3 0 .32-.11.55-.93.82-1.26.28 0-.01-.02-.01-.03 0-.55.66-1.77.02-1.31-.81"/><path class="cls-5" d="M17.35 47.34c-.04-.07-.09-.2-.09-.22-.09-.43.37-.96.74-.73 0 0 .02 0 .02-.01.16-.68 1.14-.77 1.09 0"/><ellipse class="cls-2" cx="18.59" cy="47.8" rx=".31" ry=".26" transform="rotate(-65.61 18.584 47.806)"/><path class="cls-5" d="M19.62 46.85c.68-.05.69 1.19.08 1.47-.04.02-.07.06-.07.11 0 .11-.03.3-.04.32-.16.55-.92.82-1.14.28 0-.01-.02-.01-.03 0-.56.66-1.56.02-1.06-.8"/></g><g id="_花火"><circle class="cls-2" cx="8.6" cy="3.5" r=".3"/><circle class="cls-2" cx="9.6" cy="4.3" r=".3"/><circle class="cls-2" cx="35.7" cy="5.4" r=".3"/><circle class="cls-2" cx="7.6" cy="4.3" r=".3"/><path class="cls-3" d="M8.6 9V4.3"/><circle class="cls-2" cx="3.12" cy="6.37" r=".3"/><circle class="cls-2" cx="4.31" cy="5.9" r=".3"/><circle class="cls-2" cx="3.31" cy="7.64" r=".3"/><path class="cls-3" d="M7.88 9.12 3.81 6.77"/><circle class="cls-2" cx="14.08" cy="6.37" r=".3"/><circle class="cls-2" cx="12.89" cy="5.9" r=".3"/><circle class="cls-2" cx="13.89" cy="7.64" r=".3"/><path class="cls-3" d="m9.32 9.12 4.07-2.35M42.72 21.13v-3.68M41.94 20.08l-.69-1.2"/><circle class="cls-2" cx="8.6" cy="15.42" r=".3"/><circle class="cls-2" cx="9.6" cy="14.62" r=".3"/><circle class="cls-2" cx="7.6" cy="14.62" r=".3"/><path class="cls-3" d="M8.6 9.92v4.7"/><circle class="cls-2" cx="3.12" cy="12.55" r=".3"/><circle class="cls-2" cx="4.31" cy="13.02" r=".3"/><circle class="cls-2" cx="3.31" cy="11.28" r=".3"/><path class="cls-3" d="m7.88 9.8-4.07 2.35"/><circle class="cls-2" cx="14.08" cy="12.55" r=".3"/><circle class="cls-2" cx="12.89" cy="13.02" r=".3"/><circle class="cls-2" cx="13.89" cy="11.28" r=".3"/><path class="cls-3" d="m9.32 9.8 4.07 2.35M38 5.2v2.79M10.6 20.1v2.79M9.19 20.82l.51.88M36.22 5.91l.67.67"/><circle class="cls-2" cx="34.12" cy="8.54" r=".3"/><path class="cls-3" d="m34.99 6.8 2.42 1.39"/><circle class="cls-2" cx="40.32" cy="5.4" r=".3"/><circle class="cls-2" cx="10.6" cy="19.4" r=".3"/><path class="cls-3" d="m7.61 21.66 2.42 1.39"/><circle class="cls-2" cx="7.01" cy="21.31" r=".3"/><path class="cls-3" d="m12.02 20.82-.51.88M13.78 23.26h-1.03M8.38 23.26H7.35M13.59 21.66l-2.41 1.39"/><circle class="cls-2" cx="14.2" cy="21.31" r=".3"/><path class="cls-3" d="M10.6 26.55v-2.79M9.19 25.84l.51-.89"/><circle class="cls-2" cx="10.6" cy="27.25" r=".3"/><path class="cls-3" d="m7.61 25 2.42-1.4"/><circle class="cls-2" cx="7.01" cy="25.35" r=".3"/><path class="cls-3" d="m12.02 25.84-.51-.89M13.59 25l-2.41-1.4"/><circle class="cls-2" cx="14.2" cy="25.35" r=".3"/><path class="cls-3" d="m39.8 5.91-.67.67"/><circle class="cls-2" cx="41.9" cy="8.54" r=".3"/><path class="cls-3" d="m41.03 6.8-2.42 1.39"/><circle class="cls-2" cx="35.7" cy="11.64" r=".3"/><path class="cls-3" d="M38 11.84V9.05M36.22 11.13l.67-.67M34.85 8.5h.94M34.99 10.24l2.42-1.39"/><circle class="cls-2" cx="40.32" cy="11.64" r=".3"/><circle class="cls-2" cx="40.9" cy="18.3" r=".3"/><path class="cls-3" d="m39.8 11.13-.67-.67M41.17 8.5h-.95M41.03 10.24l-2.42-1.39"/><path class="cls-2" d="M42.73 17.13c.04 0 .07-.05.09-.07.05-.05.1-.1.14-.16.04-.06.1-.14.08-.22v-.02a.163.163 0 0 0-.13-.11c-.03 0-.06 0-.09.02s-.05.04-.07.07h-.02l-.02-.02c-.03-.05-.08-.07-.14-.07-.06 0-.11.03-.13.09-.03.06 0 .14.03.2.06.11.16.19.24.28.01.01.02.02.04.02Z"/><path class="cls-3" d="m42.11 21.19-3.19-1.84"/><path class="cls-2" d="M38.65 19.18c.01-.04 0-.08-.02-.11-.02-.07-.04-.13-.07-.2-.03-.07-.07-.15-.15-.18h-.02c-.06-.01-.13.01-.16.06-.02.03-.03.06-.03.09s.01.06.02.09v.01s0 .01-.01.02h-.03c-.06 0-.1.03-.13.09-.03.05-.02.11 0 .16.04.06.12.07.18.07.12 0 .24-.04.36-.07.01 0 .03 0 .04-.02Z"/><path class="cls-3" d="m43.52 20.08.7-1.2"/><circle class="cls-2" cx="44.56" cy="18.3" r=".3"/><path class="cls-3" d="M44.29 21.58h1.39"/><circle class="cls-2" cx="46.36" cy="21.59" r=".3"/><path class="cls-3" d="M41.36 21.58h-1.39"/><circle class="cls-2" cx="39.29" cy="21.59" r=".3"/><path class="cls-3" d="m43.36 21.19 3.18-1.84"/><path class="cls-2" d="M46.85 19.21c.12.03.24.07.36.07.07 0 .14-.02.18-.07.03-.05.03-.11 0-.16a.176.176 0 0 0-.13-.09h-.03s-.01 0-.01-.02v-.01c0-.03.02-.06.02-.09s0-.06-.03-.09c-.04-.05-.1-.08-.16-.06h-.02c-.08.03-.12.11-.15.18-.03.06-.05.13-.07.2 0 .03-.03.08-.02.11 0 .01.02.02.04.02Z"/><path class="cls-3" d="M42.72 21.91v3.68M41.94 22.96l-.69 1.2"/><circle class="cls-2" cx="40.9" cy="24.74" r=".3"/><path class="cls-2" d="M42.69 25.92c-.09.09-.18.17-.24.28-.03.06-.06.13-.03.2.02.05.08.08.13.09.06 0 .11-.02.14-.07 0 0 .01-.02.02-.02h.02c.02.02.04.05.07.07s.06.02.09.02c.06 0 .12-.05.13-.11v-.02c.01-.08-.04-.16-.08-.22a1.07 1.07 0 0 0-.14-.16c-.02-.02-.05-.06-.09-.07-.01 0-.03 0-.04.02Z"/><path class="cls-3" d="m42.11 21.85-3.19 1.84"/><path class="cls-2" d="M38.61 23.83c-.12-.03-.24-.07-.36-.07-.07 0-.14.02-.18.07-.03.05-.03.11 0 .16s.07.08.13.09h.03s.01 0 .01.02v.01c0 .03-.02.06-.02.09s0 .06.03.09c.04.05.1.08.16.06h.02c.08-.03.12-.11.15-.18.03-.06.05-.13.07-.2 0-.03.03-.08.02-.11 0-.01-.02-.02-.04-.02Z"/><path class="cls-3" d="m43.52 22.96.7 1.2"/><circle class="cls-2" cx="44.56" cy="24.74" r=".3"/><path class="cls-3" d="m43.36 21.85 3.18 1.84"/><path class="cls-2" d="M46.81 23.85c-.01.04 0 .08.02.11.02.07.04.13.07.2.03.07.07.15.15.18h.02c.06.01.13-.01.16-.06.02-.03.03-.06.03-.09s-.01-.06-.02-.09v-.01s0-.01.01-.02h.03c.06 0 .1-.03.13-.09.03-.05.02-.11 0-.16-.04-.06-.12-.07-.18-.07-.12 0-.24.04-.36.07-.01 0-.03 0-.04.02Z"/></g></svg>