<svg height="320" shape-rendering="crispEdges" viewBox="0 0 320 320" width="320" xmlns="http://www.w3.org/2000/svg"><rect fill="#e1d7d5" height="100%" width="100%"/><g fill="#d26451"><path d="m90 210h140v10h-140z"/><path d="m90 220h140v10h-140z"/><path d="m90 230h140v10h-140z"/><path d="m90 240h140v10h-140z"/><path d="m90 250h20v10h-20z"/><path d="m120 250h110v10h-110z"/><path d="m90 260h20v10h-20z"/><path d="m120 260h110v10h-110z"/><path d="m90 270h20v10h-20z"/><path d="m120 270h110v10h-110z"/><path d="m90 280h20v10h-20z"/><path d="m120 280h110v10h-110z"/><path d="m90 290h20v10h-20z"/><path d="m120 290h110v10h-110z"/><path d="m90 300h20v10h-20z"/><path d="m120 300h110v10h-110z"/><path d="m90 310h20v10h-20z"/><path d="m120 310h110v10h-110z"/></g><path d="m180 220h20v10h-20z" fill="#e9265c"/><path d="m150 230h10v10h-10z" fill="#e9265c"/><path d="m170 230h40v10h-40z" fill="#e9265c"/><path d="m170 240h40v10h-40z" fill="#e9265c"/><path d="m180 250h20v10h-20z" fill="#e9265c"/><path d="m130 260h10v10h-10z" fill="#e9265c"/><path d="m150 260h20v10h-20z" fill="#e9265c"/><path d="m150 270h20v10h-20z" fill="#e9265c"/><path d="m140 290h10v10h-10z" fill="#e9265c"/><path d="m60 50h80v10h-80z" fill="#fff"/><path d="m180 50h80v10h-80z" fill="#fff"/><path d="m50 60h10v10h-10z" fill="#254efb"/><path d="m60 60h10v10h-10z" fill="#fff"/><path d="m70 60h30v10h-30z" fill="#abaaa8"/><path d="m100 60h10v10h-10z" fill="#fff"/><path d="m110 60h30v10h-30z" fill="#abaaa8"/><path d="m140 60h10v10h-10z" fill="#fff"/><path d="m170 60h10v10h-10z" fill="#fff"/><path d="m180 60h30v10h-30z" fill="#abaaa8"/><path d="m210 60h10v10h-10z" fill="#fff"/><path d="m220 60h30v10h-30z" fill="#abaaa8"/><path d="m250 60h10v10h-10z" fill="#fff"/><path d="m260 60h10v10h-10z" fill="#254efb"/><path d="m50 70h10v10h-10z" fill="#254efb"/><path d="m60 70h200v10h-200z" fill="#fff"/><path d="m260 70h10v10h-10z" fill="#254efb"/><path d="m50 80h10v10h-10z" fill="#254efb"/><path d="m60 80h10v10h-10z" fill="#fff"/><path d="m70 80h30v10h-30z" fill="#abaaa8"/><path d="m100 80h10v10h-10z" fill="#fff"/><path d="m110 80h30v10h-30z" fill="#abaaa8"/><path d="m140 80h40v10h-40z" fill="#fff"/><path d="m180 80h30v10h-30z" fill="#abaaa8"/><path d="m210 80h10v10h-10z" fill="#fff"/><path d="m220 80h30v10h-30z" fill="#abaaa8"/><path d="m250 80h10v10h-10z" fill="#fff"/><path d="m260 80h10v10h-10z" fill="#254efb"/><path d="m50 90h10v10h-10z" fill="#254efb"/><path d="m60 90h200v10h-200z" fill="#fff"/><path d="m260 90h10v10h-10z" fill="#254efb"/><path d="m50 100h10v10h-10z" fill="#254efb"/><path d="m60 100h10v10h-10z" fill="#fff"/><path d="m70 100h30v10h-30z" fill="#abaaa8"/><path d="m100 100h10v10h-10z" fill="#fff"/><path d="m110 100h30v10h-30z" fill="#abaaa8"/><path d="m140 100h40v10h-40z" fill="#fff"/><path d="m180 100h30v10h-30z" fill="#abaaa8"/><path d="m210 100h10v10h-10z" fill="#fff"/><path d="m220 100h30v10h-30z" fill="#abaaa8"/><path d="m250 100h10v10h-10z" fill="#fff"/><path d="m260 100h10v10h-10z" fill="#254efb"/><path d="m50 110h10v10h-10z" fill="#254efb"/><path d="m60 110h200v10h-200z" fill="#fff"/><path d="m260 110h10v10h-10z" fill="#254efb"/><path d="m50 120h10v10h-10z" fill="#254efb"/><path d="m60 120h10v10h-10z" fill="#fff"/><path d="m70 120h30v10h-30z" fill="#abaaa8"/><path d="m100 120h130v10h-130z" fill="#fff"/><path d="m230 120h20v10h-20z" fill="#abaaa8"/><path d="m250 120h10v10h-10z" fill="#fff"/><path d="m260 120h10v10h-10z" fill="#254efb"/><path d="m50 130h10v10h-10z" fill="#254efb"/><path d="m60 130h200v10h-200z" fill="#fff"/><path d="m260 130h10v10h-10z" fill="#254efb"/><path d="m50 140h10v10h-10z" fill="#254efb"/><path d="m60 140h10v10h-10z" fill="#fff"/><path d="m70 140h30v10h-30z" fill="#abaaa8"/><path d="m100 140h130v10h-130z" fill="#fff"/><path d="m230 140h20v10h-20z" fill="#abaaa8"/><path d="m250 140h10v10h-10z" fill="#fff"/><path d="m260 140h10v10h-10z" fill="#254efb"/><path d="m50 150h10v10h-10z" fill="#254efb"/><path d="m60 150h200v10h-200z" fill="#fff"/><path d="m260 150h10v10h-10z" fill="#254efb"/><path d="m50 160h10v10h-10z" fill="#254efb"/><path d="m60 160h10v10h-10z" fill="#fff"/><path d="m70 160h30v10h-30z" fill="#abaaa8"/><path d="m100 160h130v10h-130z" fill="#fff"/><path d="m230 160h20v10h-20z" fill="#abaaa8"/><path d="m250 160h10v10h-10z" fill="#fff"/><path d="m260 160h10v10h-10z" fill="#254efb"/><path d="m50 170h10v10h-10z" fill="#254efb"/><path d="m60 170h70v10h-70z" fill="#fff"/><path d="m130 170h60v10h-60z" fill="#ff1a0b"/><path d="m190 170h70v10h-70z" fill="#fff"/><path d="m260 170h10v10h-10z" fill="#254efb"/><path d="m50 180h10v10h-10z" fill="#254efb"/><path d="m60 180h200v10h-200z" fill="#fff"/><path d="m260 180h10v10h-10z" fill="#254efb"/><path d="m50 190h10v10h-10z" fill="#254efb"/><path d="m60 190h200v10h-200z" fill="#fff"/><path d="m260 190h10v10h-10z" fill="#254efb"/><path d="m50 200h100v10h-100z" fill="#254efb"/><path d="m150 200h20v10h-20z" fill="#fff"/><path d="m170 200h100v10h-100z" fill="#254efb"/><path d="m140 210h40v10h-40z" fill="#254efb"/><path d="m100 110h60v10h-60z" fill="#ffc110"/><path d="m170 110h60v10h-60z" fill="#f98f30"/><path d="m100 120h10v10h-10z" fill="#ffc110"/><path d="m110 120h20v10h-20z" fill="#fff"/><path d="m130 120h20v10h-20z"/><path d="m150 120h10v10h-10z" fill="#ffc110"/><path d="m170 120h10v10h-10z" fill="#f98f30"/><path d="m180 120h20v10h-20z" fill="#fff"/><path d="m200 120h20v10h-20z"/><path d="m220 120h10v10h-10z" fill="#f98f30"/><path d="m70 130h30v10h-30z" fill="#f98f30"/><path d="m100 130h10v10h-10z" fill="#ffc110"/><path d="m110 130h20v10h-20z" fill="#fff"/><path d="m130 130h20v10h-20z"/><path d="m150 130h10v10h-10z" fill="#ffc110"/><path d="m160 130h20v10h-20z" fill="#f98f30"/><path d="m180 130h20v10h-20z" fill="#fff"/><path d="m200 130h20v10h-20z"/><path d="m220 130h10v10h-10z" fill="#f98f30"/><path d="m70 140h10v10h-10z" fill="#f98f30"/><path d="m100 140h10v10h-10z" fill="#ffc110"/><path d="m110 140h20v10h-20z" fill="#fff"/><path d="m130 140h20v10h-20z"/><path d="m150 140h10v10h-10z" fill="#ffc110"/><path d="m170 140h10v10h-10z" fill="#f98f30"/><path d="m180 140h20v10h-20z" fill="#fff"/><path d="m200 140h20v10h-20z"/><path d="m220 140h10v10h-10z" fill="#f98f30"/><path d="m70 150h10v10h-10z" fill="#f98f30"/><path d="m100 150h10v10h-10z" fill="#ffc110"/><path d="m110 150h20v10h-20z" fill="#fff"/><path d="m130 150h20v10h-20z"/><path d="m150 150h10v10h-10z" fill="#ffc110"/><path d="m170 150h10v10h-10z" fill="#f98f30"/><path d="m180 150h20v10h-20z" fill="#fff"/><path d="m200 150h20v10h-20z"/><path d="m220 150h10v10h-10z" fill="#f98f30"/><path d="m100 160h60v10h-60z" fill="#ffc110"/><path d="m170 160h60v10h-60z" fill="#f98f30"/></svg>