<svg xmlns="http://www.w3.org/2000/svg" viewBox="0 -0.5 50 50" shape-rendering="crispEdges">
	<title>Bitcoin Pussies #007</title>
	<desc>Bitcoin Pussies are 69 uniquely drawn and inscribed cats on Bitcoin</desc>
	<desc xmlns:meow="https://bitcoinpussies.com/">
		<meow:traits>
			<meow:Skin>Grey</meow:Skin>
			<meow:Eyes>Wink</meow:Eyes>
			<meow:Gear>None</meow:Gear>
			<meow:Message>Meeeeooowwwwww</meow:Message>
		</meow:traits>
	</desc>
	<path stroke="#6cffa6" d="M0 0h50M0 1h50M0 2h50M0 3h50M0 4h50M0 5h50M0 6h50M0 7h50M0 8h50M0 9h50M0 10h50M0 11h50M0 12h50M0 13h50M0 14h50M0 15h16M19 15h13M35 15h15M0 16h15M21 16h9M36 16h14M0 17h15M36 17h14M0 18h15M36 18h14M0 19h15M36 19h14M0 20h15M36 20h14M0 21h15M36 21h14M0 22h16M35 22h15M0 23h15M36 23h14M0 24h15M36 24h14M0 25h15M36 25h14M0 26h15M36 26h14M0 27h15M36 27h14M0 28h16M38 28h12M0 29h16M38 29h12M0 30h17M38 30h12M0 31h16M37 31h13M0 32h16M36 32h14M0 33h15M36 33h14M0 34h15M36 34h14M0 35h13M36 35h14M0 36h13M36 36h14M0 37h13M35 37h15M0 38h17M34 38h16M0 39h19M32 39h18M0 40h50M0 41h50M0 42h50M0 43h50M0 44h50M0 45h50M0 46h50M0 47h50M0 48h50M0 49h50" />
	<path stroke="#000000" d="M16 15h3M32 15h3M15 16h1M19 16h2M30 16h2M35 16h1M15 17h1M21 17h9M35 17h1M15 18h1M19 18h2M30 18h2M35 18h1M15 19h1M18 19h1M32 19h1M35 19h1M15 20h1M17 20h1M33 20h1M35 20h1M15 21h2M34 21h2M16 22h1M34 22h1M15 23h1M20 23h2M29 23h1M35 23h1M15 24h1M20 24h2M28 24h1M30 24h1M35 24h1M15 25h1M35 25h1M15 26h1M24 26h1M26 26h1M35 26h1M15 27h1M25 27h1M35 27h1M16 28h1M34 28h4M16 29h1M34 29h1M37 29h1M17 30h2M32 30h2M37 30h1M16 31h1M19 31h2M30 31h2M36 31h1M16 32h1M24 32h3M35 32h1M15 33h1M34 33h2M15 34h1M35 34h1M13 35h3M35 35h1M13 36h1M15 36h1M35 36h1M13 37h4M34 37h1M17 38h2M22 38h1M24 38h1M26 38h1M28 38h1M32 38h2M19 39h13" />
	<path stroke="#707070" d="M16 16h3M32 16h3M16 17h1M20 17h1M30 17h1M34 17h1M16 18h1M21 18h9M34 18h1M16 19h1M19 19h13M34 19h1M16 20h1M18 20h15M34 20h1M17 21h17M17 22h3M22 22h12M16 23h3M23 23h6M30 23h5M17 24h2M23 24h5M29 24h1M31 24h3M16 25h4M22 25h13M17 26h1M20 26h4M27 26h4M33 26h1M16 27h9M26 27h9M17 28h17M17 29h17M35 29h2M19 30h13M34 30h3M17 31h2M21 31h9M32 31h4M17 32h7M27 32h8M16 33h18M18 34h15M16 35h19M14 36h1M19 36h13M17 37h17M19 38h3M23 38h1M25 38h1M27 38h1M29 38h3" />
	<path stroke="#f5b3a5" d="M17 17h3M31 17h3M17 18h2M32 18h2M17 19h1M33 19h1M25 26h1" />
	<path stroke="#b3d57f" d="M20 22h2M19 23h1M22 23h1M19 24h1M22 24h1M20 25h2" />
	<path stroke="#363636" d="M16 24h1M34 24h1M16 26h1M34 26h1M16 34h2M33 34h2M16 36h3M32 36h3" />
	<path stroke="#e79e8e" d="M18 26h2M31 26h2" />
</svg>