<?xml version="1.0" encoding="UTF-8"?><svg id="b" xmlns="http://www.w3.org/2000/svg" viewBox="0 0 198.43 340.16"><defs><style>.f{stroke:#f2f2f2;}.f,.g,.h,.i{fill:none;stroke-miterlimit:10;}.f,.g,.i{stroke-width:.5px;}.g,.h{stroke:red;}.i{stroke:#999;}.j{fill:#999;}.k{fill:#ccc;}.l{fill:red;opacity:.22;}.m{fill:#140016;}.n{fill:#f2f2f2;}</style></defs><g id="c"><g id="d"><rect class="n" width="198.43" height="340.16" rx="1.34" ry="1.34"/><g id="e"><path class="m" d="m6.93,333.51c-1.16,0-2.1-.87-2.1-1.95V8.6c0-1.08.94-1.95,2.1-1.95h184.56c1.16,0,2.1.87,2.1,1.95v322.96c0,1.08-.94,1.95-2.1,1.95"/></g><rect class="f" x="7.74" y="9.5" width="182.95" height="321.15" rx="1.34" ry="1.34"/><path class="k" d="m95.35,20.57v6.75h1.94c.13,0,.23.03.29.08.06.05.09.12.09.21s-.03.15-.09.2c-.06.05-.16.08-.29.08h-4.45c-.13,0-.23-.03-.29-.08-.06-.05-.09-.12-.09-.2s.03-.15.09-.21c.06-.05.16-.08.29-.08h1.94v-6.75h-1.94c-.13,0-.23-.03-.29-.08s-.09-.12-.09-.21.03-.15.09-.21c.06-.05.16-.08.29-.08h4.45c.13,0,.23.03.29.08.06.05.09.12.09.21s-.03.15-.09.21c-.06.05-.16.08-.29.08h-1.94Z"/><path class="k" d="m103.68,23.85l2.69,3.47h.22c.13,0,.23.03.29.08.06.05.09.12.09.21s-.03.15-.09.2c-.06.05-.16.08-.29.08h-1.82c-.13,0-.23-.03-.29-.08-.06-.05-.09-.12-.09-.2s.03-.15.09-.21c.06-.05.16-.08.29-.08h.9l-2.34-3.01-2.31,3.01h.9c.13,0,.23.03.29.08.06.05.09.12.09.21s-.03.15-.09.2c-.06.05-.16.08-.29.08h-1.81c-.13,0-.23-.03-.29-.08-.06-.05-.09-.12-.09-.2,0-.06.02-.12.05-.17.04-.05.08-.08.12-.09s.18-.02.41-.02l2.66-3.47-2.53-3.28h-.21c-.14,0-.23-.03-.29-.08s-.09-.12-.09-.21.03-.15.09-.21c.06-.05.15-.08.29-.08h1.54c.14,0,.24.03.3.08.06.05.09.12.09.21s-.03.15-.09.21c-.06.05-.16.08-.3.08h-.63l2.18,2.82,2.17-2.82h-.63c-.14,0-.24-.03-.3-.08-.06-.05-.09-.12-.09-.21s.03-.15.09-.21c.06-.05.16-.08.3-.08h1.55c.13,0,.23.03.29.08.06.05.09.12.09.21s-.03.15-.09.21c-.06.05-.16.08-.29.08h-.22l-2.52,3.28Z"/><line class="g" x1="72.17" y1="177.21" x2="72.13" y2="207.36"/><polygon class="l" points="72.17 177.21 72.13 207.36 46.1 221.77 72.17 177.21"/><polygon class="h" points="98.25 221.77 46.1 221.77 72.17 177.21 98.25 221.77"/><line class="g" x1="72.13" y1="207.36" x2="46.1" y2="221.77"/><line class="g" x1="72.13" y1="207.36" x2="98.25" y2="221.77"/><line class="g" x1="98.52" y1="138.49" x2="98.57" y2="168.64"/><polygon class="l" points="72.84 182.75 98.57 168.64 124.6 183.05 72.84 182.75"/><polygon class="h" points="72.45 183.05 124.6 183.05 98.52 138.49 72.45 183.05"/><line class="g" x1="98.57" y1="168.64" x2="124.6" y2="183.05"/><line class="g" x1="98.57" y1="168.64" x2="72.45" y2="183.05"/><line class="g" x1="72.03" y1="99.23" x2="71.98" y2="143.79"/><polygon class="l" points="97.7 143.49 72.05 143.49 72.05 99.56 97.7 143.49"/><polygon class="h" points="98.1 143.79 45.95 143.79 72.03 99.23 98.1 143.79"/><line class="g" x1="148.71" y1="138.54" x2="148.76" y2="183.11"/><polygon class="l" points="123.03 182.8 148.69 182.8 148.69 138.87 123.03 182.8"/><polygon class="h" points="122.64 183.11 174.79 183.11 148.71 138.54 122.64 183.11"/><line class="g" x1="98.52" y1="210.1" x2="98.57" y2="240.25"/><polygon class="l" points="72.84 254.36 98.57 240.25 124.6 254.66 72.84 254.36"/><polygon class="h" points="72.45 254.66 124.6 254.66 98.52 210.1 72.45 254.66"/><line class="g" x1="98.57" y1="240.25" x2="124.6" y2="254.66"/><line class="g" x1="98.57" y1="240.25" x2="72.45" y2="254.66"/><line class="g" x1="48.33" y1="138.71" x2="48.29" y2="183.28"/><polygon class="l" points="74.01 182.97 48.36 182.97 48.36 139.04 74.01 182.97"/><polygon class="h" points="74.41 183.28 22.26 183.28 48.33 138.71 74.41 183.28"/><line class="g" x1="124.87" y1="177.21" x2="124.83" y2="207.36"/><polygon class="l" points="150.55 221.47 124.83 207.36 124.89 177.54 150.55 221.47"/><polygon class="h" points="150.95 221.77 98.8 221.77 124.87 177.21 150.95 221.77"/><line class="g" x1="124.83" y1="207.36" x2="98.8" y2="221.77"/><line class="g" x1="124.83" y1="207.36" x2="150.95" y2="221.77"/><line class="g" x1="125.01" y1="99.23" x2="125.06" y2="143.79"/><polygon class="l" points="99.33 143.49 124.99 143.49 124.99 99.56 99.33 143.49"/><polygon class="h" points="98.94 143.79 151.09 143.79 125.01 99.23 98.94 143.79"/><line class="g" x1="98.52" y1="67.79" x2="98.57" y2="97.93"/><polygon class="l" points="72.84 112.05 98.57 97.93 124.6 112.35 72.84 112.05"/><polygon class="h" points="72.45 112.35 124.6 112.35 98.52 67.79 72.45 112.35"/><line class="g" x1="98.57" y1="97.93" x2="124.6" y2="112.35"/><line class="g" x1="98.57" y1="97.93" x2="72.45" y2="112.35"/><path class="j" d="m98.48,304.9v1.18h.42c.06,0,.09.01.12.03.02.02.03.05.03.08,0,.03-.01.06-.03.08-.02.02-.06.03-.12.03h-.94c-.05,0-.09-.01-.12-.03-.02-.02-.03-.05-.03-.08,0-.03.01-.06.03-.08.02-.02.06-.03.12-.03h.3v-2.69h-.3c-.05,0-.09-.01-.12-.03-.02-.02-.03-.05-.03-.08s.01-.06.03-.08c.02-.02.06-.03.12-.03h1.36c.28,0,.52.09.71.27.19.18.29.38.29.6,0,.16-.06.31-.18.45-.12.14-.32.26-.6.36.16.11.3.24.41.38.11.14.3.43.55.86h.17c.05,0,.09.01.12.03.02.02.03.05.03.08,0,.03-.01.06-.03.08-.02.02-.06.03-.12.03h-.3c-.28-.5-.49-.83-.65-1-.15-.17-.33-.3-.53-.4h-.72Zm0-.23h.61c.2,0,.38-.04.54-.11.16-.07.28-.16.35-.25s.11-.19.11-.3c0-.15-.08-.29-.23-.43-.15-.14-.33-.2-.55-.2h-.83v1.29Z"/><path class="j" d="m93.05,312.33h-1.48l-.3.82h.43c.05,0,.09.01.12.03.02.02.03.05.03.08,0,.03-.01.06-.03.08-.02.02-.06.03-.12.03h-.84c-.05,0-.09-.01-.12-.03-.02-.02-.03-.05-.03-.08,0-.03.01-.06.03-.08.02-.02.06-.03.12-.03h.17l1-2.69h-.67c-.05,0-.09-.01-.12-.03-.02-.02-.03-.05-.03-.08s.01-.06.03-.08c.02-.02.06-.03.12-.03h1.13l1.1,2.91h.17c.05,0,.09.01.12.03.02.02.03.05.03.08,0,.03-.01.06-.03.08-.02.02-.06.03-.12.03h-.84c-.06,0-.09-.01-.12-.03-.02-.02-.03-.05-.03-.08,0-.03.01-.06.03-.08.02-.02.06-.03.12-.03h.43l-.31-.82Zm-.09-.23l-.62-1.64h-.08l-.6,1.64h1.31Z"/><path class="j" d="m107.72,311.89c0,.3-.06.58-.18.84-.12.26-.29.46-.5.6-.21.14-.44.21-.69.21-.36,0-.68-.15-.96-.46s-.41-.7-.41-1.19.14-.88.41-1.19c.28-.31.6-.46.96-.46.25,0,.47.07.69.21.21.14.38.34.5.6.12.26.18.53.18.84Zm-.23,0c0-.37-.11-.7-.32-.99-.21-.29-.49-.44-.83-.44-.32,0-.59.14-.81.42-.22.28-.34.61-.34,1.01,0,.42.12.76.35,1.03.24.27.5.4.8.4.34,0,.61-.15.83-.44.21-.29.32-.62.32-.99Z"/><path class="j" d="m99.32,317.24v2.69h.58c.05,0,.09.01.12.03.02.02.03.05.03.08,0,.03-.01.06-.03.08-.02.02-.06.03-.12.03h-1.4c-.05,0-.09-.01-.12-.03-.02-.02-.03-.05-.03-.08,0-.03.01-.06.03-.08.02-.02.06-.03.12-.03h.58v-2.69h-.92v.78c0,.06-.01.09-.03.12-.02.02-.05.03-.08.03-.03,0-.06-.01-.08-.03-.02-.02-.03-.06-.03-.12v-1.01h2.52v1.01c0,.06-.01.09-.03.12-.02.02-.05.03-.08.03s-.06-.01-.08-.03c-.02-.02-.03-.06-.03-.12v-.78h-.92Z"/><path class="i" d="m106.34,309.6c-.74-2.52-2.78-4.48-5.33-5.11"/><path class="i" d="m101.02,318.88c2.37-.59,4.28-2.31,5.14-4.55"/><path class="i" d="m92.32,314.33c.84,2.2,2.7,3.89,4.99,4.51"/><path class="i" d="m97.55,304.64c-2.54.67-4.55,2.65-5.25,5.18"/></g></g></svg>