<svg version="1.1" id="レイヤー_2_00000171679113116662150000000018169187549589952959_" xmlns="http://www.w3.org/2000/svg" x="0" y="0" viewBox="0 0 500 500" style="enable-background:new 0 0 500 500" xml:space="preserve"><style>.st1{fill:none;stroke:#000;stroke-width:1.3;stroke-linecap:round;stroke-linejoin:round;stroke-miterlimit:10}.st2{fill:#5286ac}</style><path style="fill:#fff" d="M0 0h500v500H0z"/><path class="st1" d="M188.1 176c-4.7 7.4-9.4 15-12.3 23.3-2.8 8.3-3.6 17.7-.3 25.8 1.6 4 5 8 9.3 7.5"/><path class="st1" d="M196.2 171.2c-6.7 10.9-10.9 22.1-13.9 34.6-1.1 4.4-1.9 9.1-.7 13.5s4.7 8.5 9.2 9c5 .5 10.4-3.3 14.8-.8 2.4 1.4 3.5 4.4 3.5 7.1-.1 2.8-1.1 5.4-2.2 8"/><path class="st1" d="M202 214.7c-.6 2.7.6 5.6 2.9 7.2 1.5 1 3.4 1.4 4.9 2.4 1.8 1.2 2.9 3.3 3.3 5.4.4 2.1.3 4.3.1 6.5M209.4 191.3c.5 3.3.7 5.6 1 8.4s.6 6.7 3.2 7.6c1.4.5 14.3-1.3 18.5-2 1.4-.2 3-.4 4.2.3 1.5 1 1.6 2.1 1.3 3.9-.3 1.8-1 3.5-.7 5.3M217.6 142.3c5.4 24 21.2 45.5 42.6 57.6"/><path class="st1" d="M240.6 176.8c4 4.2 9.3 7.2 15 8.6M218.3 147c-1.3 2.3-3.6 8.6-3.6 9.3M260.2 173.3c.3 4.9 3.9 9 7.7 12.2 3.8 3.2 8.2 6 10.4 10.4 1.3 2.5 1.5 9.7.3 12.3M282.1 194.4c3 5.9 1.6 11.7-.6 16.2M214.7 129.1c-13.9 8.5-24.6 21.4-33.4 35.2-5.7 9-10.9 18.8-11 29.5-.1 4.1.9 8.7 4.2 11.2M217.8 127.3c.6-.3 1.1-.6 1.7-.9M223.9 124.4c18.8-8 42-4.5 57.6 8.7s22.8 35.5 17.9 55.4M297.5 205.8c-1.1 2.3-2.3 4.7-2.7 7.3-.4 2.6-.1 5.4 1.5 7.4 2.2 2.9 6.4 3.6 9.9 2.8s6.6-3 9.6-5c10.4-7.1 17.7-13 30.2-14.3 3.6-.4 10 .1 12.7 1.9s5.3 3.6 5.1 6.9M321.4 236.7c5.1-.9 7.6-2.4 11.6-5.7 4-3.4 5.8-6.9 9.5-9.3 2.7-1.8 8.7-3.8 13.2-1.1"/><path d="M206.9 500c-16.6-19.7-29.5-41.7-35.6-66.7s-4.2-52.5 8.4-75c5.6-10 13.1-18.8 18.5-29 5.4-10.1 8.4-22.4 4.2-33-2.9-7.4-9.1-13.5-10.6-21.3-1.7-8.9 3-17.7 8.3-25 15.2-20.7 37.2-36.2 61.8-43.6 3.9-1.2 8-2.2 12-1.5s7.9 3.4 8.8 7.4c.8 3.5-.9 7.2-.9 10.8s2.3 4 6.6 5.3c22.6 6.4 46 10 69.4 10.7 10.2.3 21 .3 29.8 5.5 4.4 2.6 8.1 6.4 12.4 9.2 9.8 6.3 22.2 7.8 33.8 6.7 30.8-2.9 53.4 5.7 66.2 6.3V500H206.9z"/><path class="st2" d="M336.8 112.7c-.6-3.6.3-7.3 2.5-10.2.6-.8 1.4-1.6 2.4-2 1.9-.6 3.8.7 5.1 2.1 1.5 1.6 2.8 3.6 3.3 5.7s.1 4.6-1.3 6.4c-1.5 1.7-4.1 2.4-6.1 1.4 1.3.4 2.4 1.7 2.5 3.1s-.8 2.8-2.1 3.2c-1.3.4-3-.4-3.4-1.7 1.1.7 1.2 2.6.2 3.5s-2.7.8-3.7-.1-1.4-2.4-1.1-3.7c.3 1.9-1.2 3.9-3.1 4.4s-4-.1-5.5-1.4-2.5-3-3.3-4.8c-1.1-2.5-1.7-5.2-2-7.9-.1-1.5 0-3.2 1.1-4.1 1.1-.8 2.6-.6 3.9-.3 4.1 1.3 8 3.6 10.6 6.4zM373.1 210.5c-1.2-5.8.1-12.1 3.6-17 1-1.4 2.3-2.7 3.9-2.8 1.4-.1 2.7.8 3.7 1.8 2.3 2.1 4.2 4.7 5.5 7.5 1 2.2 1.7 4.7 1.4 7.1-.3 2.4-1.6 4.8-3.8 5.9-2.2 1.1-7.9.9-10.1.5 1.3 1.1 4.8 1.7 5.3 3.8.4 1.9-.5 2.6-2.4 2.2-1.9-.5-3.1-2.1-4.3-3.7.6 1.2.9 2.8 1.1 4.1s-.1 2.7-1.4 2.9c-2.8.4-2.9-3.1-2.7-5.9-.3 2.5-1.4 5.8-2.7 8-1.3 2.2-3.8 3.8-6.2 3.3-2.5-.6-4-3.1-5-5.4-1.7-4.1-2.9-8.4-3.3-12.8-.2-1.8 0-4.1 1.6-4.9 1.1-.6 2.5-.2 3.7.2 4.4 1.4 8.6 3.3 12.1 5.2zM429.1 127.5c.4-2 1.4-3.9 2.8-5.3.4-.4.9-.8 1.4-.7.7.1 1.1.8 1.3 1.5.6 1.7 1.1 3.4 1.4 5.1.2 1.1.3 2.3-.4 3.2-.8.9-2.2 1-3.3.5s-1.9-1.4-2.8-2.3c-.2 1.4-.5 2.8-1.4 3.9-.9 1.1-2.6 1.7-3.7.9-.6-.4-1-1.1-1.2-1.8-.5-1.3-1-2.6-1.2-3.9-.3-1.3-.4-2.8.7-3.6 1-.9 2.6-.4 3.7.4s1.7 1.9 2.7 2.1zM221.4 170.3c1.8-7.6 6.2-14.6 12.3-19.4 2.7-2.1 6.4-3.9 9.4-2.4 2.9 1.4 3.9 5 4.5 8.2.8 4.6 1.6 9.4.8 14s-3.5 9.2-7.9 11c-3.9 1.6-11.2 0-15.2-1.3 1.8 2.3 4.2 4.6 2.9 6.3-1.3 1.6-2.5 1.6-4.3.7-1.9-.9-3.1-2.7-3.8-4.7.5 2.9-2.5 5.5-4.9 4.9-2.9-.7-.6-4.3 1.5-7.2-2.5 2.6-8 5.7-10.3 6.7s-5.2.8-7.2-.8c-2.8-2.3-3-6.4-3-10 0-8.3.1-17.1 4.4-24.2 1.1-1.8 2.6-3.6 4.7-3.8 2.4-.3 4.6 1.5 6.2 3.3 4.9 5.4 8.5 12 9.9 18.7zM408.6 380.2c1-6.5 3.4-12.7 6.9-18.3 1.3-2 3-4 5.4-4.1 2.3-.1 4.1 1.9 5.5 3.7 4.1 5.5 7.3 11.9 9.1 18.5.5 1.7.8 3.5.3 5.1-1 2.9-4.5 4-7.5 3.8s-6-1.3-9-1.2c1.9 1.1 3.8 2.3 5 4.2 1.1 1.9 1.1 4.6-.6 6-1.4 1.1-3.4.9-5 .1-1.5-.9-2.7-2.3-3.8-3.6.7 2.6.6 5.4-.2 7.9-.3 1.1-.9 2.2-1.9 2.6-2 1-4.2-1.3-4.7-3.6s0-4.6-1-6.7c-.5 3.6-1 7.3-3 10.3s-5.9 5.1-9.3 3.8c-2.5-1-4-3.4-5.2-5.8-4.1-8.3-5.6-17.8-4.4-27 .4-2.9 1.5-6.3 4.3-7 1.8-.5 3.7.3 5.4 1.1 5.2 2.8 10.1 6.3 13.7 10.2zM55.6 297.3c.5-2.1 1.1-4.3 2.5-6s3.7-2.8 5.8-2c1.9.7 2.8 2.7 3.6 4.6.6 1.6 1.2 3.3 1.2 5s-.7 3.6-2.1 4.5c-1.4 1-3.7.7-4.6-.7 1.5.9 1.5 3.4 0 4.3s-3.7-.1-3.9-1.8c.1 1.1 0 2.2-.7 3s-1.9 1.3-2.8.9c-1-.4-1.4-1.8-.8-2.7-.6 1.1-1.3 2.3-2.3 3.1-1 .9-2.3 1.4-3.6 1.1-2.2-.6-3-3.2-3.2-5.5-.3-2.6-.2-5.2.1-7.8.2-1.3.4-2.7 1.3-3.7 1.4-1.5 3.8-1.4 5.5-.4 1.6 1 2.8 2.7 4 4.1zM144.8 322c-.3-2.7-.7-5.4.2-7.9s3.4-4.7 6.1-4.2c1.8.3 3.2 1.7 4.3 3.2 2 2.7 3.5 5.7 4.4 8.9.4 1.3.6 2.7 0 3.9-.7 1.3-2.3 2-3.8 1.9s-2.9-.7-4.3-1.3c1.2.7 2.6 1.4 3.2 2.6.7 1.2.4 3.1-.9 3.6-1 .4-2.2-.2-3-.9-.8-.7-1.6-1.6-2.6-2-.4 1.3.3 2.6.4 4 .1 1.3-.7 3.1-2 2.9-1-.1-1.5-1.3-1.7-2.3s-.3-2.1-1-2.8c-.1 1.5-.2 3-.9 4.4-.7 1.3-2.1 2.4-3.5 2.3-1.7-.1-2.9-1.7-3.7-3.2-2.1-3.8-3.4-8.1-3.7-12.5-.1-1.5 0-3.1.8-4.4 1.4-2 4.4-2.2 6.5-1.2 2.2 1.3 3.7 3.3 5.2 5zM159.1 260.4c-.2-2 .1-4 .8-5.8.3-.7.6-1.4 1.3-1.6 1.1-.3 2 .8 2.6 1.8.7 1.2 1.5 2.5 1.6 3.9s-.5 3-1.9 3.5c-1.2.4-2.5-.2-3.7-.8.2 1.1.3 2.3 0 3.4s-1.5 2-2.6 1.7c-.7-.2-1.3-.8-1.7-1.4-1.2-1.8-2.1-3.8-2.6-6-.1-.7-.2-1.5.4-1.9.4-.3 1-.1 1.5.1 1.6.6 3.2 1.7 4.3 3.1zM310.5 307.8c.4-3.8 1.6-7.5 3.6-10.8.8-1.2 1.8-2.6 3.3-2.6 1.7 0 2.9 1.8 3.7 3.3 1.2 2.3 2.3 4.6 2.8 7.2.4 2.5.1 5.3-1.6 7.3s-4.8 2.7-6.9 1.2c2 .6 2.5 3.7.9 5s-4.5-.1-4.6-2.2c.6 1.4-.4 3.2-1.9 3.4-1.5.1-2.9-1.6-2.3-3 0 1.4-1.5 2.6-2.9 2.6s-2.8-.9-3.6-2.1c-.8-1.2-1.2-2.6-1.5-4-.5-2.6-.7-5.3-.7-8 .1-1.6.3-3.4 1.6-4.3 1.9-1.4 4.6 0 6.1 1.8s2.5 4.1 4 5.2zM83.8 133.1c-.3-3.9.5-7.9 2.3-11.3.8-1.5 2-3.2 3.8-3.2 1.9 0 3.1 1.8 4.1 3.4 1.4 2.3 2.7 4.7 3.3 7.3.6 2.6.2 5.6-1.5 7.6-1.8 2-5.2 2.6-7.2.9 1.5.4 2 2.7.7 3.7-1.3.9-3.4-.3-3.2-1.8.5.8.7 1.8.4 2.7-.3.9-1.3 1.6-2.2 1.4-.9-.2-1.6-1.4-1.1-2.2.4 1.8-1 3.8-2.8 4.3-1.8.6-3.8 0-5.3-1.2s-2.5-2.8-3.4-4.5c-1.3-2.6-2.3-5.4-2.8-8.3-.3-1.8-.3-4.1 1.3-5 1.1-.6 2.5-.2 3.8.3 3.6 1.6 7.2 3.6 9.8 5.9z"/><path class="st1" d="m212.8 195.1.9.3"/></svg>