<svg height="320" shape-rendering="crispEdges" viewBox="0 0 320 320" width="320" xmlns="http://www.w3.org/2000/svg"><rect fill="#d5d7e1" height="100%" width="100%"/><g fill="#5648ed"><path d="m90 210h140v10h-140z"/><path d="m90 220h140v10h-140z"/><path d="m90 230h140v10h-140z"/><path d="m90 240h140v10h-140z"/><path d="m90 250h20v10h-20z"/><path d="m120 250h110v10h-110z"/><path d="m90 260h20v10h-20z"/><path d="m120 260h110v10h-110z"/><path d="m90 270h20v10h-20z"/><path d="m120 270h110v10h-110z"/><path d="m90 280h20v10h-20z"/><path d="m120 280h110v10h-110z"/><path d="m90 290h20v10h-20z"/><path d="m120 290h110v10h-110z"/><path d="m90 300h20v10h-20z"/><path d="m120 300h110v10h-110z"/><path d="m90 310h20v10h-20z"/><path d="m120 310h110v10h-110z"/></g><path d="m140 230h10v10h-10z" fill="#62616d"/><path d="m130 240h20v10h-20z" fill="#62616d"/><path d="m140 250h10v10h-10z" fill="#62616d"/><path d="m180 250h10v10h-10z" fill="#62616d"/><path d="m140 260h10v10h-10z" fill="#62616d"/><path d="m170 260h10v10h-10z" fill="#62616d"/><path d="m160 270h10v10h-10z" fill="#62616d"/><path d="m150 280h10v10h-10z" fill="#62616d"/><path d="m180 280h20v10h-20z" fill="#62616d"/><path d="m140 290h10v10h-10z" fill="#62616d"/><path d="m170 290h10v10h-10z" fill="#62616d"/><path d="m190 290h10v10h-10z" fill="#62616d"/><path d="m170 300h10v10h-10z" fill="#62616d"/><path d="m190 300h10v10h-10z" fill="#62616d"/><path d="m50 50h10v10h-10z"/><path d="m80 50h10v10h-10z"/><path d="m110 50h10v10h-10z"/><path d="m140 50h10v10h-10z"/><path d="m170 50h10v10h-10z"/><path d="m200 50h10v10h-10z"/><path d="m230 50h10v10h-10z"/><path d="m260 50h10v10h-10z"/><path d="m50 80h10v10h-10z"/><path d="m260 80h10v10h-10z"/><path d="m50 110h10v10h-10z"/><path d="m260 110h10v10h-10z"/><path d="m50 140h10v10h-10z"/><path d="m260 140h10v10h-10z"/><path d="m50 170h10v10h-10z"/><path d="m260 170h10v10h-10z"/><path d="m50 200h10v10h-10z"/><path d="m80 200h10v10h-10z"/><path d="m110 200h10v10h-10z"/><path d="m140 200h10v10h-10z"/><path d="m170 200h10v10h-10z"/><path d="m200 200h10v10h-10z"/><path d="m230 200h10v10h-10z"/><path d="m260 200h10v10h-10z"/><path d="m100 110h60v10h-60z"/><path d="m170 110h60v10h-60z"/><path d="m100 120h30v10h-30z"/><path d="m130 120h10v10h-10z" fill="#ff0e0e"/><path d="m140 120h20v10h-20z"/><path d="m170 120h30v10h-30z"/><path d="m200 120h10v10h-10z" fill="#ff0e0e"/><path d="m210 120h20v10h-20z"/><path d="m70 130h160v10h-160z"/><path d="m70 140h10v10h-10z"/><path d="m100 140h10v10h-10z"/><path d="m110 140h10v10h-10z" fill="#0adc4d"/><path d="m120 140h20v10h-20z"/><path d="m140 140h10v10h-10z" fill="#1929f4"/><path d="m150 140h10v10h-10z"/><path d="m170 140h10v10h-10z"/><path d="m180 140h10v10h-10z" fill="#0adc4d"/><path d="m190 140h20v10h-20z"/><path d="m210 140h10v10h-10z" fill="#1929f4"/><path d="m220 140h10v10h-10z"/><path d="m70 150h10v10h-10z"/><path d="m100 150h60v10h-60z"/><path d="m170 150h60v10h-60z"/><path d="m100 160h60v10h-60z"/><path d="m170 160h60v10h-60z"/></svg>