<svg height="320" shape-rendering="crispEdges" viewBox="0 0 320 320" width="320" xmlns="http://www.w3.org/2000/svg"><rect fill="#e1d7d5" height="100%" width="100%"/><g fill="#4b4949"><path d="m90 210h140v10h-140z"/><path d="m90 220h140v10h-140z"/><path d="m90 230h140v10h-140z"/><path d="m90 240h140v10h-140z"/><path d="m90 250h20v10h-20z"/><path d="m120 250h110v10h-110z"/><path d="m90 260h20v10h-20z"/><path d="m120 260h110v10h-110z"/><path d="m90 270h20v10h-20z"/><path d="m120 270h110v10h-110z"/><path d="m90 280h20v10h-20z"/><path d="m120 280h110v10h-110z"/><path d="m90 290h20v10h-20z"/><path d="m120 290h110v10h-110z"/><path d="m90 300h20v10h-20z"/><path d="m120 300h110v10h-110z"/><path d="m90 310h20v10h-20z"/><path d="m120 310h110v10h-110z"/></g><path d="m130 220h20v10h-20z" fill="#648df9"/><path d="m160 220h10v10h-10z" fill="#fa6fe2"/><path d="m190 220h10v10h-10z" fill="#fa6fe2"/><path d="m110 230h10v10h-10z" fill="#648df9"/><path d="m130 230h30v10h-30z" fill="#648df9"/><path d="m180 230h10v10h-10z" fill="#fa6fe2"/><path d="m120 240h10v10h-10z" fill="#648df9"/><path d="m160 240h10v10h-10z" fill="#648df9"/><path d="m190 240h20v10h-20z" fill="#fa6fe2"/><path d="m140 250h20v10h-20z" fill="#ffe939"/><path d="m170 250h10v10h-10z" fill="#648df9"/><path d="m190 250h20v10h-20z" fill="#fa6fe2"/><path d="m130 260h10v10h-10z" fill="#ffe939"/><path d="m150 260h10v10h-10z" fill="#4bea69"/><path d="m160 260h10v10h-10z" fill="#ffe939"/><path d="m170 260h10v10h-10z" fill="#648df9"/><path d="m190 260h10v10h-10z" fill="#fa6fe2"/><path d="m120 270h10v10h-10z" fill="#ffe939"/><path d="m140 270h10v10h-10z" fill="#4bea69"/><path d="m150 270h10v10h-10z" fill="#fa6fe2"/><path d="m160 270h10v10h-10z" fill="#648df9"/><path d="m180 270h10v10h-10z" fill="#fa6fe2"/><path d="m200 270h10v10h-10z" fill="#4bea69"/><path d="m120 280h10v10h-10z" fill="#ffe939"/><path d="m140 280h10v10h-10z" fill="#4bea69"/><path d="m160 280h20v10h-20z" fill="#fa6fe2"/><path d="m120 290h10v10h-10z" fill="#ffe939"/><path d="m150 290h10v10h-10z" fill="#4bea69"/><path d="m190 290h10v10h-10z" fill="#4bea69"/><path d="m130 300h10v10h-10z" fill="#ffe939"/><path d="m160 300h30v10h-30z" fill="#4bea69"/><path d="m200 300h10v10h-10z" fill="#4bea69"/><path d="m120 310h10v10h-10z" fill="#ffe939"/><path d="m150 310h10v10h-10z" fill="#ffe939"/><path d="m170 310h20v10h-20z" fill="#4bea69"/><path d="m60 30h150v10h-150z" fill="#cbc1bc"/><path d="m60 40h20v10h-20z" fill="#cbc1bc"/><path d="m80 40h10v10h-10z" fill="#abaaa8"/><path d="m90 40h10v10h-10z" fill="#cbc1bc"/><path d="m100 40h10v10h-10z" fill="#abaaa8"/><path d="m110 40h10v10h-10z" fill="#cbc1bc"/><path d="m120 40h10v10h-10z" fill="#a19c9a"/><path d="m130 40h10v10h-10z" fill="#cbc1bc"/><path d="m140 40h10v10h-10z" fill="#abaaa8"/><path d="m150 40h10v10h-10z" fill="#cbc1bc"/><path d="m160 40h10v10h-10z" fill="#fff0ee"/><path d="m170 40h10v10h-10z" fill="#cbc1bc"/><path d="m180 40h10v10h-10z" fill="#e11833"/><path d="m190 40h10v10h-10z" fill="#a19c9a"/><path d="m200 40h20v10h-20z" fill="#cbc1bc"/><path d="m60 50h20v10h-20z" fill="#cbc1bc"/><path d="m80 50h10v10h-10z" fill="#a19c9a"/><path d="m90 50h10v10h-10z" fill="#cbc1bc"/><path d="m100 50h10v10h-10z" fill="#a19c9a"/><path d="m110 50h10v10h-10z" fill="#cbc1bc"/><path d="m120 50h10v10h-10z" fill="#abaaa8"/><path d="m130 50h10v10h-10z" fill="#cbc1bc"/><path d="m140 50h10v10h-10z" fill="#a19c9a"/><path d="m150 50h30v10h-30z" fill="#cbc1bc"/><path d="m180 50h10v10h-10z" fill="#2b83f6"/><path d="m190 50h10v10h-10z" fill="#a19c9a"/><path d="m200 50h20v10h-20z" fill="#cbc1bc"/><path d="m60 60h30v10h-30z" fill="#abaaa8"/><path d="m90 60h160v10h-160z" fill="#fff0ee"/><path d="m60 70h30v10h-30z" fill="#abaaa8"/><path d="m90 70h60v10h-60z" fill="#fff0ee"/><path d="m150 70h40v10h-40z" fill="#abaaa8"/><path d="m190 70h60v10h-60z" fill="#fff0ee"/><path d="m60 80h30v10h-30z" fill="#abaaa8"/><path d="m90 80h40v10h-40z" fill="#fff0ee"/><path d="m130 80h20v10h-20z" fill="#abaaa8"/><path d="m150 80h40v10h-40z" fill="#58565c"/><path d="m190 80h20v10h-20z" fill="#abaaa8"/><path d="m210 80h40v10h-40z" fill="#fff0ee"/><path d="m60 90h30v10h-30z" fill="#abaaa8"/><path d="m90 90h30v10h-30z" fill="#fff0ee"/><path d="m120 90h10v10h-10z" fill="#abaaa8"/><path d="m130 90h80v10h-80z" fill="#58565c"/><path d="m210 90h10v10h-10z" fill="#abaaa8"/><path d="m220 90h30v10h-30z" fill="#fff0ee"/><path d="m60 100h30v10h-30z" fill="#abaaa8"/><path d="m90 100h30v10h-30z" fill="#fff0ee"/><path d="m120 100h10v10h-10z" fill="#abaaa8"/><path d="m130 100h80v10h-80z" fill="#58565c"/><path d="m210 100h10v10h-10z" fill="#abaaa8"/><path d="m220 100h30v10h-30z" fill="#fff0ee"/><path d="m60 110h30v10h-30z" fill="#abaaa8"/><path d="m90 110h20v10h-20z" fill="#fff0ee"/><path d="m110 110h10v10h-10z" fill="#abaaa8"/><path d="m120 110h100v10h-100z" fill="#58565c"/><path d="m220 110h10v10h-10z" fill="#abaaa8"/><path d="m230 110h20v10h-20z" fill="#fff0ee"/><path d="m60 120h30v10h-30z" fill="#abaaa8"/><path d="m90 120h20v10h-20z" fill="#fff0ee"/><path d="m110 120h10v10h-10z" fill="#abaaa8"/><path d="m120 120h100v10h-100z" fill="#58565c"/><path d="m220 120h10v10h-10z" fill="#abaaa8"/><path d="m230 120h20v10h-20z" fill="#fff0ee"/><path d="m60 130h30v10h-30z" fill="#abaaa8"/><path d="m90 130h20v10h-20z" fill="#fff0ee"/><path d="m110 130h10v10h-10z" fill="#abaaa8"/><path d="m120 130h100v10h-100z" fill="#58565c"/><path d="m220 130h10v10h-10z" fill="#abaaa8"/><path d="m230 130h20v10h-20z" fill="#fff0ee"/><path d="m60 140h30v10h-30z" fill="#abaaa8"/><path d="m90 140h20v10h-20z" fill="#fff0ee"/><path d="m110 140h10v10h-10z" fill="#abaaa8"/><path d="m120 140h100v10h-100z" fill="#58565c"/><path d="m220 140h10v10h-10z" fill="#abaaa8"/><path d="m230 140h20v10h-20z" fill="#fff0ee"/><path d="m60 150h30v10h-30z" fill="#abaaa8"/><path d="m90 150h30v10h-30z" fill="#fff0ee"/><path d="m120 150h10v10h-10z" fill="#abaaa8"/><path d="m130 150h80v10h-80z" fill="#58565c"/><path d="m210 150h10v10h-10z" fill="#abaaa8"/><path d="m220 150h30v10h-30z" fill="#fff0ee"/><path d="m60 160h30v10h-30z" fill="#abaaa8"/><path d="m90 160h30v10h-30z" fill="#fff0ee"/><path d="m120 160h10v10h-10z" fill="#abaaa8"/><path d="m130 160h80v10h-80z" fill="#58565c"/><path d="m210 160h10v10h-10z" fill="#abaaa8"/><path d="m220 160h30v10h-30z" fill="#fff0ee"/><path d="m60 170h30v10h-30z" fill="#abaaa8"/><path d="m90 170h40v10h-40z" fill="#fff0ee"/><path d="m130 170h20v10h-20z" fill="#abaaa8"/><path d="m150 170h40v10h-40z" fill="#58565c"/><path d="m190 170h20v10h-20z" fill="#abaaa8"/><path d="m210 170h40v10h-40z" fill="#fff0ee"/><path d="m40 180h20v10h-20z"/><path d="m60 180h30v10h-30z" fill="#abaaa8"/><path d="m90 180h10v10h-10z" fill="#fff0ee"/><path d="m100 180h20v10h-20z" fill="#2b83f6"/><path d="m120 180h30v10h-30z" fill="#fff0ee"/><path d="m150 180h40v10h-40z" fill="#abaaa8"/><path d="m190 180h60v10h-60z" fill="#fff0ee"/><path d="m40 190h10v10h-10z"/><path d="m60 190h30v10h-30z" fill="#abaaa8"/><path d="m90 190h160v10h-160z" fill="#fff0ee"/><path d="m40 200h10v10h-10z"/><path d="m60 200h30v10h-30z" fill="#abaaa8"/><path d="m90 200h160v10h-160z" fill="#fff0ee"/><path d="m40 210h10v10h-10z"/><path d="m40 220h10v10h-10z"/><path d="m40 230h10v10h-10z"/><path d="m40 240h10v10h-10z"/><path d="m40 250h10v10h-10z"/><path d="m40 260h10v10h-10z"/><path d="m40 270h10v10h-10z"/><path d="m40 280h10v10h-10z"/><path d="m40 290h10v10h-10z"/><path d="m40 300h10v10h-10z"/><path d="m40 310h10v10h-10z"/><path d="m100 110h60v10h-60z" fill="#4bea69"/><path d="m170 110h60v10h-60z" fill="#4bea69"/><path d="m100 120h10v10h-10z" fill="#4bea69"/><path d="m110 120h20v10h-20z" fill="#fff"/><path d="m130 120h20v10h-20z"/><path d="m150 120h10v10h-10z" fill="#4bea69"/><path d="m170 120h10v10h-10z" fill="#4bea69"/><path d="m180 120h20v10h-20z" fill="#fff"/><path d="m200 120h20v10h-20z"/><path d="m220 120h10v10h-10z" fill="#4bea69"/><path d="m70 130h40v10h-40z" fill="#4bea69"/><path d="m110 130h20v10h-20z" fill="#fff"/><path d="m130 130h20v10h-20z"/><path d="m150 130h30v10h-30z" fill="#4bea69"/><path d="m180 130h20v10h-20z" fill="#fff"/><path d="m200 130h20v10h-20z"/><path d="m220 130h10v10h-10z" fill="#4bea69"/><path d="m70 140h10v10h-10z" fill="#4bea69"/><path d="m100 140h10v10h-10z" fill="#4bea69"/><path d="m110 140h20v10h-20z" fill="#fff"/><path d="m130 140h20v10h-20z"/><path d="m150 140h10v10h-10z" fill="#4bea69"/><path d="m170 140h10v10h-10z" fill="#4bea69"/><path d="m180 140h20v10h-20z" fill="#fff"/><path d="m200 140h20v10h-20z"/><path d="m220 140h10v10h-10z" fill="#4bea69"/><path d="m70 150h10v10h-10z" fill="#4bea69"/><path d="m100 150h10v10h-10z" fill="#4bea69"/><path d="m110 150h20v10h-20z" fill="#fff"/><path d="m130 150h20v10h-20z"/><path d="m150 150h10v10h-10z" fill="#4bea69"/><path d="m170 150h10v10h-10z" fill="#4bea69"/><path d="m180 150h20v10h-20z" fill="#fff"/><path d="m200 150h20v10h-20z"/><path d="m220 150h10v10h-10z" fill="#4bea69"/><path d="m100 160h60v10h-60z" fill="#4bea69"/><path d="m170 160h60v10h-60z" fill="#4bea69"/></svg>