<?xml version="1.0" encoding="UTF-8"?><svg id="b" xmlns="http://www.w3.org/2000/svg" viewBox="0 0 198.43 340.16"><defs><style>.f{stroke:#f2f2f2;}.f,.g,.h,.i{fill:none;stroke-miterlimit:10;}.f,.g,.i{stroke-width:.5px;}.g,.h{stroke:red;}.i{stroke:#999;}.j{fill:#999;}.k{fill:red;opacity:.22;}.l{fill:#140016;}.m{fill:#f2f2f2;}</style></defs><g id="c"><g id="d"><rect class="m" width="198.43" height="340.16" rx="1.34" ry="1.34"/><g id="e"><path class="l" d="m6.93,333.51c-1.16,0-2.1-.87-2.1-1.95V8.6c0-1.08.94-1.95,2.1-1.95h184.56c1.16,0,2.1.87,2.1,1.95v322.96c0,1.08-.94,1.95-2.1,1.95"/></g><rect class="f" x="7.74" y="9.5" width="182.95" height="321.15" rx="1.34" ry="1.34"/><path class="m" d="m90.56,28.68h-.87l-3.14-8.05h-.48c-.11,0-.2-.01-.25-.03-.05-.02-.09-.06-.12-.11-.03-.05-.05-.11-.05-.17s.02-.12.05-.17.07-.09.12-.11c.05-.02.13-.03.25-.03h2.32c.12,0,.2.01.25.03s.09.06.12.11.05.11.05.17-.02.11-.05.17c-.04.05-.08.09-.12.11-.05.02-.13.03-.24.03h-1.19l2.89,7.43h.04l2.86-7.43h-1.19c-.12,0-.2-.01-.25-.03-.05-.02-.09-.06-.12-.11-.03-.05-.05-.11-.05-.17s.02-.12.05-.17c.04-.05.08-.09.12-.11.05-.02.13-.03.25-.03h2.31c.12,0,.2.01.25.03.05.02.09.06.12.11s.05.11.05.17-.02.11-.05.17c-.03.05-.08.09-.12.11-.05.02-.13.03-.25.03h-.47l-3.08,8.05Z"/><path class="m" d="m99.53,20.62v7.43h2.14c.15,0,.25.03.32.09s.1.13.1.23c0,.09-.03.16-.1.22-.06.06-.17.09-.32.09h-4.89c-.15,0-.25-.03-.32-.09-.06-.06-.1-.13-.1-.22,0-.09.03-.17.1-.23s.17-.09.32-.09h2.14v-7.43h-2.14c-.15,0-.25-.03-.32-.08s-.1-.13-.1-.23.03-.17.1-.23c.06-.06.17-.08.32-.08h4.89c.15,0,.25.03.32.08.06.06.1.13.1.23s-.03.17-.1.23-.17.08-.32.08h-2.14Z"/><path class="m" d="m108.64,20.62v7.43h2.14c.15,0,.25.03.32.09s.1.13.1.23c0,.09-.03.16-.1.22-.06.06-.17.09-.32.09h-4.89c-.15,0-.25-.03-.32-.09-.06-.06-.1-.13-.1-.22,0-.09.03-.17.1-.23s.17-.09.32-.09h2.14v-7.43h-2.14c-.15,0-.25-.03-.32-.08s-.1-.13-.1-.23.03-.17.1-.23c.06-.06.17-.08.32-.08h4.89c.15,0,.25.03.32.08.06.06.1.13.1.23s-.03.17-.1.23-.17.08-.32.08h-2.14Z"/><line class="g" x1="51.61" y1="128.41" x2="51.57" y2="169.01"/><polygon class="k" points="75 168.73 51.63 168.73 51.63 128.72 75 168.73"/><polygon class="h" points="75.36 169.01 27.85 169.01 51.61 128.41 75.36 169.01"/><line class="g" x1="146.62" y1="128.41" x2="146.58" y2="169.01"/><polygon class="k" points="170.01 168.73 146.64 168.73 146.64 128.72 170.01 168.73"/><polygon class="h" points="170.37 169.01 122.86 169.01 146.62 128.41 170.37 169.01"/><line class="g" x1="75.36" y1="169.01" x2="75.32" y2="196.48"/><polygon class="k" points="98.75 209.33 75.32 196.48 75.38 169.32 98.75 209.33"/><polygon class="h" points="99.11 209.61 51.61 209.61 75.36 169.01 99.11 209.61"/><line class="g" x1="75.32" y1="196.48" x2="51.61" y2="209.61"/><line class="g" x1="75.32" y1="196.48" x2="99.11" y2="209.61"/><line class="g" x1="122.86" y1="169.01" x2="122.82" y2="196.48"/><polygon class="k" points="146.25 209.33 122.82 196.48 122.88 169.32 146.25 209.33"/><polygon class="h" points="146.62 209.61 99.11 209.61 122.86 169.01 146.62 209.61"/><line class="g" x1="122.82" y1="196.48" x2="99.11" y2="209.61"/><line class="g" x1="122.82" y1="196.48" x2="146.62" y2="209.61"/><line class="g" x1="99.11" y1="207.91" x2="99.07" y2="235.37"/><polygon class="k" points="122.5 248.23 99.07 235.37 99.13 208.21 122.5 248.23"/><polygon class="h" points="122.86 248.5 75.36 248.5 99.11 207.91 122.86 248.5"/><line class="g" x1="99.07" y1="235.37" x2="75.36" y2="248.5"/><line class="g" x1="99.07" y1="235.37" x2="122.86" y2="248.5"/><line class="g" x1="161.96" y1="91.65" x2="161.92" y2="132.25"/><polygon class="k" points="185.35 131.97 161.98 131.97 161.98 91.96 185.35 131.97"/><polygon class="h" points="185.72 132.25 138.21 132.25 161.96 91.65 185.72 132.25"/><line class="g" x1="36.46" y1="91.67" x2="36.42" y2="132.26"/><polygon class="k" points="59.85 131.99 36.48 131.99 36.48 91.97 59.85 131.99"/><polygon class="h" points="60.21 132.26 12.71 132.26 36.46 91.67 60.21 132.26"/><path class="j" d="m98.48,304.9v1.18h.42c.06,0,.09.01.12.03.02.02.03.05.03.08,0,.03-.01.06-.03.08-.02.02-.06.03-.12.03h-.94c-.05,0-.09-.01-.12-.03-.02-.02-.03-.05-.03-.08,0-.03.01-.06.03-.08.02-.02.06-.03.12-.03h.3v-2.69h-.3c-.05,0-.09-.01-.12-.03-.02-.02-.03-.05-.03-.08s.01-.06.03-.08c.02-.02.06-.03.12-.03h1.36c.28,0,.52.09.71.27.19.18.29.38.29.6,0,.16-.06.31-.18.45-.12.14-.32.26-.6.36.16.11.3.24.41.38.11.14.3.43.55.86h.17c.05,0,.09.01.12.03.02.02.03.05.03.08,0,.03-.01.06-.03.08-.02.02-.06.03-.12.03h-.3c-.28-.5-.49-.83-.65-1-.15-.17-.33-.3-.53-.4h-.72Zm0-.23h.61c.2,0,.38-.04.54-.11.16-.07.28-.16.35-.25s.11-.19.11-.3c0-.15-.08-.29-.23-.43-.15-.14-.33-.2-.55-.2h-.83v1.29Z"/><path class="j" d="m93.05,312.33h-1.48l-.3.82h.43c.05,0,.09.01.12.03.02.02.03.05.03.08,0,.03-.01.06-.03.08-.02.02-.06.03-.12.03h-.84c-.05,0-.09-.01-.12-.03-.02-.02-.03-.05-.03-.08,0-.03.01-.06.03-.08.02-.02.06-.03.12-.03h.17l1-2.69h-.67c-.05,0-.09-.01-.12-.03-.02-.02-.03-.05-.03-.08s.01-.06.03-.08c.02-.02.06-.03.12-.03h1.13l1.1,2.91h.17c.05,0,.09.01.12.03.02.02.03.05.03.08,0,.03-.01.06-.03.08-.02.02-.06.03-.12.03h-.84c-.06,0-.09-.01-.12-.03-.02-.02-.03-.05-.03-.08,0-.03.01-.06.03-.08.02-.02.06-.03.12-.03h.43l-.31-.82Zm-.09-.23l-.62-1.64h-.08l-.6,1.64h1.31Z"/><path class="j" d="m107.72,311.89c0,.3-.06.58-.18.84-.12.26-.29.46-.5.6-.21.14-.44.21-.69.21-.36,0-.68-.15-.96-.46s-.41-.7-.41-1.19.14-.88.41-1.19c.28-.31.6-.46.96-.46.25,0,.47.07.69.21.21.14.38.34.5.6.12.26.18.53.18.84Zm-.23,0c0-.37-.11-.7-.32-.99-.21-.29-.49-.44-.83-.44-.32,0-.59.14-.81.42-.22.28-.34.61-.34,1.01,0,.42.12.76.35,1.03.24.27.5.4.8.4.34,0,.61-.15.83-.44.21-.29.32-.62.32-.99Z"/><path class="j" d="m99.32,317.24v2.69h.58c.05,0,.09.01.12.03.02.02.03.05.03.08,0,.03-.01.06-.03.08-.02.02-.06.03-.12.03h-1.4c-.05,0-.09-.01-.12-.03-.02-.02-.03-.05-.03-.08,0-.03.01-.06.03-.08.02-.02.06-.03.12-.03h.58v-2.69h-.92v.78c0,.06-.01.09-.03.12-.02.02-.05.03-.08.03-.03,0-.06-.01-.08-.03-.02-.02-.03-.06-.03-.12v-1.01h2.52v1.01c0,.06-.01.09-.03.12-.02.02-.05.03-.08.03s-.06-.01-.08-.03c-.02-.02-.03-.06-.03-.12v-.78h-.92Z"/><path class="i" d="m106.34,309.6c-.74-2.52-2.78-4.48-5.33-5.11"/><path class="i" d="m101.02,318.88c2.37-.59,4.28-2.31,5.14-4.55"/><path class="i" d="m92.32,314.33c.84,2.2,2.7,3.89,4.99,4.51"/><path class="i" d="m97.55,304.64c-2.54.67-4.55,2.65-5.25,5.18"/></g></g></svg>