<?xml version="1.0" encoding="UTF-8"?><svg id="b" xmlns="http://www.w3.org/2000/svg" viewBox="0 0 198.52 340.16"><defs><style>.g{fill:#0a0b00;}.h{opacity:.78;}.h,.i{stroke:#f2f2f2;}.h,.i,.j,.k,.l{fill:none;stroke-miterlimit:10;}.i,.j,.l{stroke-width:.5px;}.j,.k{stroke:#ff0;}.l{stroke:#999;}.m{fill:#999;}.n{fill:#ccc;}.o{fill:#ff0;opacity:.23;}.p{fill:#f2f2f2;}</style></defs><g id="c"><g id="d"><rect class="p" width="198.52" height="340.16" rx="1.34" ry="1.34"/><g id="e"><path class="g" d="m6.94,333.51c-1.16,0-2.1-.87-2.1-1.95V8.6c0-1.08.94-1.95,2.1-1.95h184.65c1.16,0,2.1.87,2.1,1.95v322.96c0,1.08-.94,1.95-2.1,1.95"/></g><rect class="i" x="7.74" y="9.5" width="183.04" height="321.15" rx="1.34" ry="1.34"/><path class="n" d="m94.89,20.57v6.76h1.94c.13,0,.23.03.29.08.06.05.09.12.09.21s-.03.15-.09.2c-.06.05-.16.08-.29.08h-4.45c-.13,0-.23-.03-.29-.08-.06-.05-.09-.12-.09-.2s.03-.15.09-.21c.06-.05.15-.08.29-.08h1.94v-6.76h-1.94c-.13,0-.23-.03-.29-.08-.06-.05-.09-.12-.09-.21s.03-.15.09-.21c.06-.05.15-.08.29-.08h4.45c.13,0,.23.03.29.08.06.05.09.12.09.21s-.03.15-.09.21c-.06.05-.16.08-.29.08h-1.94Z"/><path class="n" d="m103.23,23.85l2.69,3.47h.22c.13,0,.23.03.29.08.06.05.09.12.09.21s-.03.15-.09.2-.15.08-.29.08h-1.82c-.13,0-.23-.03-.29-.08s-.09-.12-.09-.2.03-.15.09-.21c.06-.05.16-.08.29-.08h.9l-2.34-3.01-2.31,3.01h.9c.13,0,.23.03.29.08.06.05.09.12.09.21s-.03.15-.09.2-.15.08-.29.08h-1.81c-.13,0-.23-.03-.29-.08s-.09-.12-.09-.2c0-.06.02-.12.05-.17.04-.05.08-.08.12-.09s.18-.02.41-.02l2.66-3.47-2.54-3.28h-.21c-.13,0-.23-.03-.29-.08-.06-.05-.09-.12-.09-.21s.03-.15.09-.21c.06-.05.16-.08.29-.08h1.54c.14,0,.24.03.3.08.06.05.09.12.09.21s-.03.15-.09.21c-.06.05-.16.08-.3.08h-.63l2.18,2.83,2.17-2.83h-.63c-.14,0-.24-.03-.3-.08-.06-.05-.09-.12-.09-.21s.03-.15.09-.21c.06-.05.16-.08.3-.08h1.55c.13,0,.23.03.29.08.06.05.09.12.09.21s-.03.15-.09.21c-.06.05-.15.08-.29.08h-.22l-2.52,3.28Z"/><g id="f"><line class="j" x1="79.17" y1="100.06" x2="79.22" y2="144.65"/><polygon class="o" points="53.48 144.35 79.15 144.35 79.15 100.4 53.48 144.35"/><polygon class="k" points="53.09 144.65 105.26 144.65 79.17 100.06 53.09 144.65"/><line class="j" x1="99.26" y1="227.93" x2="99.3" y2="258.09"/><polygon class="o" points="73.57 272.21 99.3 258.09 125.35 272.52 73.57 272.21"/><polygon class="k" points="73.17 272.52 125.35 272.52 99.26 227.93 73.17 272.52"/><line class="j" x1="99.3" y1="258.09" x2="125.35" y2="272.52"/><line class="j" x1="99.3" y1="258.09" x2="73.17" y2="272.52"/><line class="j" x1="119.34" y1="100.06" x2="119.29" y2="144.65"/><polygon class="o" points="145.03 144.35 119.36 144.35 119.36 100.4 145.03 144.35"/><polygon class="k" points="145.43 144.65 93.25 144.65 119.34 100.06 145.43 144.65"/><line class="j" x1="99.26" y1="51.57" x2="99.3" y2="81.73"/><polygon class="o" points="73.57 95.85 99.3 81.73 125.35 96.16 73.57 95.85"/><polygon class="k" points="73.17 96.16 125.35 96.16 99.26 51.57 73.17 96.16"/><line class="j" x1="99.3" y1="81.73" x2="125.35" y2="96.16"/><line class="j" x1="99.3" y1="81.73" x2="73.17" y2="96.16"/><line class="h" x1="125.35" y1="75.75" x2="73.17" y2="75.75"/><line class="h" x1="145.43" y1="122.36" x2="93.25" y2="122.36"/><line class="h" x1="105.66" y1="122.37" x2="53.48" y2="122.37"/><line class="j" x1="99.26" y1="141.65" x2="99.3" y2="171.81"/><polygon class="o" points="73.57 185.93 99.3 171.81 125.35 186.24 73.57 185.93"/><polygon class="k" points="73.17 186.24 125.35 186.24 99.26 141.65 73.17 186.24"/><line class="j" x1="99.3" y1="171.81" x2="125.35" y2="186.24"/><line class="j" x1="99.3" y1="171.81" x2="73.17" y2="186.24"/><line class="h" x1="125.35" y1="163.94" x2="73.17" y2="163.94"/><line class="j" x1="61.6" y1="141.65" x2="61.55" y2="186.24"/><polygon class="o" points="87.29 185.93 61.62 185.93 61.62 141.99 87.29 185.93"/><polygon class="k" points="87.69 186.24 35.51 186.24 61.6 141.65 87.69 186.24"/><line class="h" x1="35.51" y1="163.94" x2="87.69" y2="163.94"/><line class="j" x1="136.92" y1="141.65" x2="136.96" y2="186.24"/><polygon class="o" points="111.23 185.93 136.9 185.93 136.9 141.99 111.23 185.93"/><polygon class="k" points="110.83 186.24 163.01 186.24 136.92 141.65 110.83 186.24"/><line class="h" x1="110.83" y1="163.94" x2="163.01" y2="163.94"/><line class="j" x1="124.37" y1="187.51" x2="124.41" y2="217.67"/><polygon class="o" points="98.68 231.79 124.41 217.67 124.34 187.84 98.68 231.79"/><polygon class="k" points="98.28 232.1 150.45 232.1 124.37 187.51 98.28 232.1"/><line class="j" x1="124.41" y1="217.67" x2="150.45" y2="232.1"/><line class="j" x1="124.41" y1="217.67" x2="98.28" y2="232.1"/><line class="h" x1="98.28" y1="209.8" x2="150.45" y2="209.8"/><line class="j" x1="74.15" y1="187.51" x2="74.2" y2="217.67"/><polygon class="o" points="74.15 187.51 74.2 217.67 100.24 232.1 74.15 187.51"/><polygon class="k" points="48.07 232.1 100.24 232.1 74.15 187.51 48.07 232.1"/><line class="j" x1="74.2" y1="217.67" x2="100.24" y2="232.1"/><line class="j" x1="74.2" y1="217.67" x2="48.07" y2="232.1"/><line class="h" x1="48.07" y1="209.8" x2="100.24" y2="209.8"/><line class="h" x1="125.35" y1="250.23" x2="73.17" y2="250.23"/></g><path class="m" d="m98.52,304.9v1.18h.42c.06,0,.09.01.12.03.02.02.03.05.03.08,0,.03-.01.06-.03.08-.02.02-.06.03-.12.03h-.94c-.05,0-.09-.01-.12-.03-.02-.02-.03-.05-.03-.08,0-.03.01-.06.03-.08.02-.02.06-.03.12-.03h.3v-2.69h-.3c-.05,0-.09-.01-.12-.03-.02-.02-.03-.05-.03-.08s.01-.06.03-.08c.02-.02.06-.03.12-.03h1.36c.28,0,.52.09.71.27.19.18.29.38.29.6,0,.16-.06.31-.18.45-.12.14-.32.26-.6.36.16.11.3.24.41.38.11.14.3.43.55.86h.17c.05,0,.09.01.12.03.02.02.03.05.03.08,0,.03-.01.06-.03.08-.02.02-.06.03-.12.03h-.3c-.28-.5-.49-.83-.65-1-.15-.17-.33-.3-.53-.4h-.72Zm0-.23h.61c.2,0,.38-.04.54-.11.16-.07.28-.16.35-.25s.11-.19.11-.3c0-.15-.08-.29-.23-.43-.15-.14-.33-.2-.55-.2h-.83v1.29Z"/><path class="m" d="m93.1,312.33h-1.48l-.3.82h.43c.05,0,.09.01.12.03.02.02.03.05.03.08,0,.03-.01.06-.03.08-.02.02-.06.03-.12.03h-.84c-.05,0-.09-.01-.12-.03-.02-.02-.03-.05-.03-.08,0-.03.01-.06.03-.08.02-.02.06-.03.12-.03h.17l1-2.69h-.67c-.05,0-.09-.01-.12-.03-.02-.02-.03-.05-.03-.08s.01-.06.03-.08c.02-.02.06-.03.12-.03h1.13l1.1,2.91h.17c.05,0,.09.01.12.03.02.02.03.05.03.08,0,.03-.01.06-.03.08-.02.02-.06.03-.12.03h-.84c-.06,0-.09-.01-.12-.03-.02-.02-.03-.05-.03-.08,0-.03.01-.06.03-.08.02-.02.06-.03.12-.03h.43l-.31-.82Zm-.09-.23l-.62-1.64h-.08l-.6,1.64h1.31Z"/><path class="m" d="m107.76,311.89c0,.3-.06.58-.18.84-.12.26-.29.46-.5.6-.21.14-.44.21-.69.21-.36,0-.68-.15-.96-.46s-.41-.7-.41-1.19.14-.88.41-1.19c.28-.31.6-.46.96-.46.25,0,.47.07.69.21.21.14.38.34.5.6.12.26.18.53.18.84Zm-.23,0c0-.37-.11-.7-.32-.99-.21-.29-.49-.44-.83-.44-.32,0-.59.14-.81.42-.22.28-.34.61-.34,1.01,0,.42.12.76.35,1.03.24.27.5.4.8.4.34,0,.61-.15.83-.44.21-.29.32-.62.32-.99Z"/><path class="m" d="m99.37,317.24v2.69h.58c.05,0,.09.01.12.03.02.02.03.05.03.08,0,.03-.01.06-.03.08-.02.02-.06.03-.12.03h-1.4c-.05,0-.09-.01-.12-.03-.02-.02-.03-.05-.03-.08,0-.03.01-.06.03-.08.02-.02.06-.03.12-.03h.58v-2.69h-.92v.78c0,.06-.01.09-.03.12-.02.02-.05.03-.08.03-.03,0-.06-.01-.08-.03-.02-.02-.03-.06-.03-.12v-1.01h2.52v1.01c0,.06-.01.09-.03.12-.02.02-.05.03-.08.03s-.06-.01-.08-.03c-.02-.02-.03-.06-.03-.12v-.78h-.92Z"/><path class="l" d="m106.39,309.6c-.74-2.52-2.78-4.48-5.33-5.11"/><path class="l" d="m101.06,318.88c2.37-.59,4.28-2.31,5.14-4.55"/><path class="l" d="m92.36,314.33c.84,2.2,2.7,3.89,4.99,4.51"/><path class="l" d="m97.6,304.64c-2.54.67-4.55,2.65-5.25,5.18"/></g></g></svg>