<svg xmlns="http://www.w3.org/2000/svg" width="512" height="512" fill="none"><path fill="#F90" d="M0 0h512v512H0z"/><path fill="#DA420F" d="M84 340h344v160H84z"/><g><animateTransform attributeName="transform" dur="0.4s" keyTimes="0;0.5;1" repeatCount="indefinite" type="translate" values="0 0;0 28;0 0"/><path fill="#F15824" d="M196 176h120v296H196z"/><path fill="#DA420F" d="M196 96h120v80H196z"/><path fill="#F15824" d="M250 96h12v36h-12z"><animate attributeName="fill" begin="5s" dur="0.4s" repeatCount="5" values="#F15824; #fff; #F15824"/></path><path fill="#165B32" d="M196 78.21 256 58l60 20.21V122H196V78.21Z"/><path fill="#FEED59" d="m256 78 4.702 9.528 10.515 1.528-7.609 7.416 1.797 10.472L256 102l-9.405 4.944 1.797-10.472-7.609-7.416 10.515-1.528L256 78ZM196 122h120v16H196z"/><path fill="#0C4122" d="M196 138h120v10.667L256 162l-60-13.333V138Z"/><path fill="#fff" d="M204 179h47v48h-47v-48Z"/><path stroke="#BBB" stroke-width="6" d="M204 179h47v48h-47v-48Zm0 0h-8M251 188h10"/><path fill="#fff" d="M308 179h-47v48h47v-48Z"/><path stroke="#BBB" stroke-width="6" d="M308 179h-47v48h47v-48Zm0 0h8"/><mask id="a" width="41" height="42" x="207" y="182" maskUnits="userSpaceOnUse" style="mask-type:alpha"><path fill="#121212" d="M207 182h41v42h-41v-42Z"/></mask><g mask="url(#a)"><path fill="#D9D9D9" d="M215.112 182h8.77l-10.524 43.235h-8.77L215.112 182Z"><animateTransform attributeName="transform" dur="4s" keyTimes="0;0.1;0.3;1" repeatCount="indefinite" type="translate" values="-32 0;-32 0;48 0;48 0"/></path></g><mask id="b" width="41" height="42" x="264" y="182" maskUnits="userSpaceOnUse" style="mask-type:alpha"><path fill="#121212" d="M264 182h41v42h-41v-42Z"/></mask><g mask="url(#b)"><path fill="#D9D9D9" d="M271.112 182h8.77l-10.524 43.235h-8.77L271.112 182Z"><animateTransform attributeName="transform" dur="4s" keyTimes="0;0.1;0.3;1" repeatCount="indefinite" type="translate" values="-32 0;-32 0;48 0;48 0"/></path></g><path fill="#fff" d="M292 340h-72l72-26v26Z"/></g></svg>