<svg height="320" shape-rendering="crispEdges" viewBox="0 0 320 320" width="320" xmlns="http://www.w3.org/2000/svg"><rect fill="#e1d7d5" height="100%" width="100%"/><g fill="#fd8b5b"><path d="m90 210h140v10h-140z"/><path d="m90 220h140v10h-140z"/><path d="m90 230h140v10h-140z"/><path d="m90 240h140v10h-140z"/><path d="m90 250h20v10h-20z"/><path d="m120 250h110v10h-110z"/><path d="m90 260h20v10h-20z"/><path d="m120 260h110v10h-110z"/><path d="m90 270h20v10h-20z"/><path d="m120 270h110v10h-110z"/><path d="m90 280h20v10h-20z"/><path d="m120 280h110v10h-110z"/><path d="m90 290h20v10h-20z"/><path d="m120 290h110v10h-110z"/><path d="m90 300h20v10h-20z"/><path d="m120 300h110v10h-110z"/><path d="m90 310h20v10h-20z"/><path d="m120 310h110v10h-110z"/></g><path d="m180 230h10v10h-10z" fill="#fff"/><path d="m160 240h50v10h-50z" fill="#ffc110"/><path d="m160 250h50v10h-50z" fill="#fff"/><path d="m160 260h50v10h-50z" fill="#fff"/><path d="m150 20h20v10h-20z" fill="#d4a015"/><path d="m110 30h10v10h-10z" fill="#fff671"/><path d="m140 30h10v10h-10z" fill="#d4a015"/><path d="m150 30h20v10h-20z" fill="#fff671"/><path d="m170 30h10v10h-10z" fill="#d4a015"/><path d="m140 40h10v10h-10z" fill="#d4a015"/><path d="m150 40h20v10h-20z" fill="#fff671"/><path d="m170 40h10v10h-10z" fill="#d4a015"/><path d="m130 50h10v10h-10z" fill="#d4a015"/><path d="m140 50h40v10h-40z" fill="#fff671"/><path d="m180 50h10v10h-10z" fill="#d4a015"/><path d="m220 50h10v10h-10z" fill="#fff671"/><path d="m240 50h10v10h-10z" fill="#fff671"/><path d="m80 60h10v10h-10z" fill="#fff671"/><path d="m130 60h10v10h-10z" fill="#d4a015"/><path d="m140 60h40v10h-40z" fill="#fff671"/><path d="m180 60h10v10h-10z" fill="#d4a015"/><path d="m230 60h10v10h-10z" fill="#fff671"/><path d="m70 70h30v10h-30z" fill="#fff671"/><path d="m120 70h10v10h-10z" fill="#d4a015"/><path d="m130 70h60v10h-60z" fill="#fff671"/><path d="m190 70h10v10h-10z" fill="#d4a015"/><path d="m220 70h10v10h-10z" fill="#fff671"/><path d="m240 70h10v10h-10z" fill="#fff671"/><path d="m80 80h10v10h-10z" fill="#fff671"/><path d="m120 80h10v10h-10z" fill="#d4a015"/><path d="m130 80h60v10h-60z" fill="#fff671"/><path d="m190 80h10v10h-10z" fill="#d4a015"/><path d="m100 90h20v10h-20z" fill="#d4a015"/><path d="m120 90h80v10h-80z" fill="#fff671"/><path d="m200 90h20v10h-20z" fill="#d4a015"/><path d="m80 100h20v10h-20z" fill="#d4a015"/><path d="m100 100h120v10h-120z" fill="#fff671"/><path d="m220 100h20v10h-20z" fill="#d4a015"/><path d="m60 110h20v10h-20z" fill="#d4a015"/><path d="m80 110h160v10h-160z" fill="#fff671"/><path d="m240 110h20v10h-20z" fill="#d4a015"/><path d="m50 120h10v10h-10z" fill="#d4a015"/><path d="m60 120h200v10h-200z" fill="#fff671"/><path d="m260 120h10v10h-10z" fill="#d4a015"/><path d="m50 130h10v10h-10z" fill="#d4a015"/><path d="m60 130h200v10h-200z" fill="#fff671"/><path d="m260 130h10v10h-10z" fill="#d4a015"/><path d="m60 140h20v10h-20z" fill="#d4a015"/><path d="m80 140h160v10h-160z" fill="#fff671"/><path d="m240 140h20v10h-20z" fill="#d4a015"/><path d="m80 150h20v10h-20z" fill="#d4a015"/><path d="m100 150h120v10h-120z" fill="#fff671"/><path d="m220 150h20v10h-20z" fill="#d4a015"/><path d="m100 160h10v10h-10z" fill="#d4a015"/><path d="m110 160h100v10h-100z" fill="#fff671"/><path d="m210 160h10v10h-10z" fill="#d4a015"/><path d="m100 170h10v10h-10z" fill="#d4a015"/><path d="m110 170h100v10h-100z" fill="#fff671"/><path d="m210 170h10v10h-10z" fill="#d4a015"/><path d="m60 180h10v10h-10z" fill="#fff671"/><path d="m90 180h10v10h-10z" fill="#d4a015"/><path d="m100 180h70v10h-70z" fill="#fff671"/><path d="m170 180h30v10h-30z" fill="#d4a015"/><path d="m200 180h20v10h-20z" fill="#fff671"/><path d="m220 180h10v10h-10z" fill="#d4a015"/><path d="m90 190h10v10h-10z" fill="#d4a015"/><path d="m100 190h120v10h-120z" fill="#fff671"/><path d="m220 190h10v10h-10z" fill="#d4a015"/><path d="m80 200h10v10h-10z" fill="#d4a015"/><path d="m90 200h60v10h-60z" fill="#fff671"/><path d="m150 200h20v10h-20z" fill="#d4a015"/><path d="m170 200h60v10h-60z" fill="#fff671"/><path d="m230 200h10v10h-10z" fill="#d4a015"/><path d="m80 210h10v10h-10z" fill="#d4a015"/><path d="m90 210h40v10h-40z" fill="#fff671"/><path d="m130 210h20v10h-20z" fill="#d4a015"/><path d="m170 210h20v10h-20z" fill="#d4a015"/><path d="m190 210h40v10h-40z" fill="#fff671"/><path d="m230 210h10v10h-10z" fill="#d4a015"/><path d="m80 220h10v10h-10z" fill="#d4a015"/><path d="m90 220h20v10h-20z" fill="#fff671"/><path d="m110 220h20v10h-20z" fill="#d4a015"/><path d="m190 220h20v10h-20z" fill="#d4a015"/><path d="m210 220h20v10h-20z" fill="#fff671"/><path d="m230 220h10v10h-10z" fill="#d4a015"/><path d="m90 230h20v10h-20z" fill="#d4a015"/><path d="m210 230h20v10h-20z" fill="#d4a015"/><path d="m100 110h60v10h-60z" fill="#4bea69"/><path d="m170 110h60v10h-60z" fill="#4bea69"/><path d="m100 120h10v10h-10z" fill="#4bea69"/><path d="m110 120h20v10h-20z" fill="#fff"/><path d="m130 120h20v10h-20z"/><path d="m150 120h10v10h-10z" fill="#4bea69"/><path d="m170 120h10v10h-10z" fill="#4bea69"/><path d="m180 120h20v10h-20z" fill="#fff"/><path d="m200 120h20v10h-20z"/><path d="m220 120h10v10h-10z" fill="#4bea69"/><path d="m70 130h40v10h-40z" fill="#4bea69"/><path d="m110 130h20v10h-20z" fill="#fff"/><path d="m130 130h20v10h-20z"/><path d="m150 130h30v10h-30z" fill="#4bea69"/><path d="m180 130h20v10h-20z" fill="#fff"/><path d="m200 130h20v10h-20z"/><path d="m220 130h10v10h-10z" fill="#4bea69"/><path d="m70 140h10v10h-10z" fill="#4bea69"/><path d="m100 140h10v10h-10z" fill="#4bea69"/><path d="m110 140h20v10h-20z" fill="#fff"/><path d="m130 140h20v10h-20z"/><path d="m150 140h10v10h-10z" fill="#4bea69"/><path d="m170 140h10v10h-10z" fill="#4bea69"/><path d="m180 140h20v10h-20z" fill="#fff"/><path d="m200 140h20v10h-20z"/><path d="m220 140h10v10h-10z" fill="#4bea69"/><path d="m70 150h10v10h-10z" fill="#4bea69"/><path d="m100 150h10v10h-10z" fill="#4bea69"/><path d="m110 150h20v10h-20z" fill="#fff"/><path d="m130 150h20v10h-20z"/><path d="m150 150h10v10h-10z" fill="#4bea69"/><path d="m170 150h10v10h-10z" fill="#4bea69"/><path d="m180 150h20v10h-20z" fill="#fff"/><path d="m200 150h20v10h-20z"/><path d="m220 150h10v10h-10z" fill="#4bea69"/><path d="m100 160h60v10h-60z" fill="#4bea69"/><path d="m170 160h60v10h-60z" fill="#4bea69"/></svg>