<?xml version="1.0" encoding="utf-8"?>
<!-- Generator: Adobe Illustrator 27.6.1, SVG Export Plug-In . SVG Version: 6.00 Build 0)  -->
<svg version="1.1" id="レイヤー_1" xmlns="http://www.w3.org/2000/svg" xmlns:xlink="http://www.w3.org/1999/xlink" x="0px"
	 y="0px" viewBox="0 0 2000 2000" style="enable-background:new 0 0 2000 2000;" xml:space="preserve">
<style type="text/css">
	.st0{fill:#FFFFFF;}
	.st1{fill-rule:evenodd;clip-rule:evenodd;fill:#231815;}
</style>
<rect x="0" class="st0" width="2000" height="2000"/>
<g>
	<g>
		<path class="st1" d="M891.6,605c4.5,14.5,7.5,38.5,22.4,42.4c-0.3-1-0.5-2.1-0.8-3.1c3.9,1,7.7,2.1,11.6,3.1
			c17.5-12.5,15.8-25,27-42.4c15.1-23.7,44.2-52,70.2-64c1.8-0.8,23.2,42.4,30.9,48.6c19.1,15.5,36.9,27.1,64.8,34.7
			c14.1,3.9,31.8-4.1,44-5.4c23.8,49.3,29.1,77.6,73.3,108c0,0.8,0,1.5,0,2.3c-29.4,41.2-67,78.8-102.6,114.2
			c-15.4,14.1-30.9,28.3-46.3,42.4c-3.3,6.2-2.9,11.3-6.2,16.2c4.8,4.3,19.7,9.7,21.6,12.3c19.8-5.6,36.2-30.9,50.2-44
			c25.4-23.9,48.6-47.9,71.8-74.1c8.7-8.5,17.5-17,26.2-25.5c9.5-13.1,19-26.2,28.6-39.4c-2.7-20-19.6-29.7-36.3-40.1
			c-14-8.8-45.3-65.6-46.3-87.2c35-21.3,65.6-61.9,79.5-104.2c10-30.4-11-66.2-32.4-72.5c-22.2-6.6-45.6,10.2-55.6,20.1
			c-39.2,39.1-40.1,70.9-36.3,140.4c-66.2,14.2-80.8-24.9-95.7-70.2c6.3-11.7,24.2-21.8,34-30.9c25.3-23.6,49-54.6,60.2-91.8
			c13.1-43.5-22.1-74.7-59.4-74.1c-14.1,10.7-31.8,15.4-42.4,29.3c-30.4,39.9-35.9,90.1-34,152.8c-10.4,13.5-28.9,22-42.4,32.4
			c-19.3,14.8-31.4,34.1-47.8,51.7c-6.5-7.4-7.7-23.8-10.8-34c-9.5-31.5-33.2-104.7-64-111.9c-3.9,2.6-7.7,5.1-11.6,7.7
			c-5.3,17.1,9.6,30.7,15.4,44.8C867.1,529.3,879.6,566.5,891.6,605z M1185.6,536.3c6.4-38.4,13.7-56.3,38.6-74.8
			c7.7,0.5,10.2,3.5,14.7,6.9c7.7,35.4-32,87.3-53.2,99.5C1181.3,561.9,1184.4,543.5,1185.6,536.3z M1049,444.5
			c9.1-49.6,13.7-63.8,46.3-89.5c18.6,3.8,22.6,24.5,15.4,43.2c-7.2,18.7-38.1,64.5-55.6,71c-2.8,2.8-5.7,5.7-8.5,8.5
			C1043.4,469.1,1047.3,454,1049,444.5z M1586.9,730.8c-22.8-32.1-46.8-63.6-77.9-87.2c-8-6-18.5-20-32.4-17
			c-1.8-0.8-3.6-1.5-5.4-2.3c4.6-11.6,9.3-23.1,13.9-34.7c15.4-43.3,52.4-117.3,3.1-150.5c-8.8-5.9-10.8-11.9-27-11.6
			c-3.9,1.3-7.7,2.6-11.6,3.9c-29.6,20.8-43.2,102.6-32.4,152c3.3,14.9,6.7,29.8,10,44.8c-11.6,21.6-23.1,43.2-34.7,64.8
			c-51.4,80-121.4,147.4-196,204.5c-25.6,19.6-48.2,43.5-74.1,63.3c-11.8,11.3-23.7,22.6-35.5,34c-41.8,30.6-76.4,68.5-116.5,100.3
			c-16.5,13-45.6,38.4-54,57.9c-14.4,2.3-28.8,4.6-43.2,6.9c-13.4,3.4-29,9.4-43.2,12.3c-30.1,6.3-105,0-117.3-15.4
			c-9.9-12.4-8.8-34.1-8.5-54.8c14.8-7.7,41.8-8.1,58.6-10c21-2.4,47.2-10.8,67.1-16.2c25.5-6.9,44.3,0.7,62.5-16.2
			c-1.3-5.6-1.9-7.6-1.5-14.7c-6-4.5-12-11.5-19.3-14.7c-13-5.6-48.5,4.4-59.4,6.9c-36.2,8.6-92.7,24.4-131.2,22.4
			c-27.5-1.4-48.1,9.8-70.2-6.2c-4-37.1,77.8-42.9,107.3-54c9.4-30.5-14.2-75.2-9.3-113.4c5.6-43.2,5.9-87.7,22.4-121.1
			c6.8-13.8,24.5-30.2,17-45.5c3.7-1.4,4.5-2.9,6.2-6.2c-12.4-24.7-36.7-40-40.9-73.3c-3.9-1.3-7.7-2.6-11.6-3.9
			c-5.1,4.3-13.8,7.9-17,13.9c-7.9,15,36.5,58.3,34,68.7c-4.6,6.9-9.3,13.9-13.9,20.8c-9.3,18-17.4,38.6-22.4,60.2
			c-6.8,29.4-12.8,72.8-8.5,104.9c2.6,21.1,5.1,42.2,7.7,63.3c-13.9,8.8-31.4,10.3-49.4,17c-13.9,5.2-25.5,16.2-36.3,24.7
			c-3.6,2.6-7.2,5.1-10.8,7.7c-31.9,46.4,30.4,103.5,84.9,88c0.3,9.3,0.5,18.5,0.8,27.8c2.5,13.3,6.2,27.8,13.1,37
			c34.2,45.4,143.3,46.5,203.7,23.1c0.3,0.5,0.5,1,0.8,1.5c-3.1,11.1-6.2,22.1-9.3,33.2c0.3,12.6,0.5,25.2,0.8,37.8
			c2.8,22.7-1.6,43.4,3.9,65.6c11.5,47.2,46.2,91.1,89.5,107.3c0.5-0.2,41,6.1,47.8,7.7c19.8,4.7,44.8,4.7,64-0.8
			c25.5-7.2,45.7-23.2,60.2-41.7c4.5-5.8,9.1-25.5,17-27c0-0.3,0-0.5,0-0.8c-1.5-0.8-3.1-1.5-4.6-2.3
			c16.1-52.5-47.8-157.9-103.4-138.9c-2.7,4.1-4.1,8.1-3.9,15.4c6.8,6.9,15.5,8.3,23.9,13.9c15.9,10.6,39.6,47.3,46.3,67.1
			c3,8.9,6.9,37.4,1.5,47.1c-31.3,56.2-102.4,43.5-156.6,20.8c-11.5-4.8-25.2-26.4-31.6-37c-5.7-12.3-11.3-24.7-17-37
			c-3.8-16-1.6-32.7-2.3-50.9c-3-80.3,37.5-118.3,82.6-154.3c29.4-23.5,54.2-54,84.1-77.2c11.8-9.1,28-17.6,37-29.3
			c0.8,0,1.5,0,2.3,0c12,20.9,22.2,57,43.2,68.7c9.5,4,16.7-4.6,22.4-7.7c0.8-3.6,1.5-7.2,2.3-10.8c-0.1-0.7-29.3-53.4-32.4-57.9
			c-3.1-4.4-8.7-10-15.4-10.8c-0.3-0.5-0.5-1-0.8-1.5c12.6-10.3,25.2-20.6,37.8-30.9c1.8-1.8,3.6-3.6,5.4-5.4
			c5.4,12.3,10.8,24.7,16.2,37c5.7,10,11.3,20.1,17,30.1c7.3,1.1,22.6,0.6,28.6-6.2c5.8-7.8-1.7-16.6-5.4-23.1
			c-11.1-20-20.8-38.2-28.5-61.7c5.7-4.9,11.3-9.8,17-14.7c13.6,13.3,19.6,37,28.5,54.8c10,18,20.1,36,30.1,54
			c1,0.8,2.1,1.5,3.1,2.3c0-1,0-2.1,0-3.1c9.5,6.5,20.1-0.6,29.3-4.6c3.1-20.2-13.1-37.4-22.4-52.5c-5.7-11.8-11.3-23.7-17-35.5
			c-7.5-12.1-14.9-24.2-22.4-36.3c-0.5-0.5-1-1-1.5-1.5c8.2-7.2,17.3-18.1,27.8-22.4c1-1,2.1-2.1,3.1-3.1c14.7,13.8,38.4,61,47.8,81
			c3.6,7.7,5.8,15.5,11.6,20.8c9.8,2,22-0.5,28.6-4.6c9.2-6.4,0.3-22.9-3.1-28.5c-16.2-27.3-32.4-54.5-48.6-81.8
			c-21.3-15.4,1.5-21.7,13.1-36.3c1,0,2.1,0,3.1,0c6.3,19.3,43.8,85.2,61,91.1c1.8,0,3.6,0,5.4,0c-0.1-2,0.1-0.9-0.8-3.1
			c2.3,0.8,4.6,1.5,6.9,2.3c3.1-1.5,6.2-3.1,9.3-4.6c7.6-25.9-25.5-66.2-39.4-85.6c-7-9.8-8.6-21.8-17.7-29.3c0-0.5,0-1,0-1.5
			c24.3-31.9,61.9-66.1,77.2-106.5c0.5-0.3,1-0.5,1.5-0.8c8.5,21.5,11.9,43.9,17,67.1c33.9,154.9-32.8,288.8-108.8,361.1
			c-23.9,22.8-52,43.4-88.7,53.2c-7.6,2-25.3,9.7-33.2,5.4c-9.2-5.7-16.3-32.4-25.5-41.7c-15.6-3.2-18.2,2.1-27,7.7
			c0.3,34.5,30.4,61.1,38.6,91.8c13.5,3,18,2.9,30.1-0.8c4.7-8,3.7-15.4,0-23.9c8.4-2.9,17.3-2.1,27.8-4.6
			c16.6-4.1,32.8-11.1,46.3-19.3c44.7-27.1,70.5-57.7,101.1-98.8c6.5-8.7,17.9-15.5,23.9-23.9c42.5-60.1,71.5-177.5,54.8-270.8
			c-4.5-25.1-4.2-47.2-12.3-69.4c0-0.8,0-1.5,0-2.3c0.5,0,1,0,1.5,0c5.9,25.8,25.1,55.1,34.7,79.5c10.6,27.1,13.8,57.4,19.3,90.3
			c7.3,43.9-9.5,99.3-19.3,130.4c-31.1,98.3-74.8,176.4-140.4,241.5c-21,20.8-44.7,47.1-74.8,57.9c-9.1-10.7-11.4-17.3-29.3-20.1
			c-2.6,1.5-5.1,3.1-7.7,4.6c-11.4,19.5,19.8,69.5,30.9,84.1c9.6,0.4,19.2-0.1,26.2-5.4c2.3-1.6,5.3-7.2,6.2-10
			c-3.6-6.9-7.2-13.9-10.8-20.8c8-3.9,15.9-7.7,23.9-11.6c20.8-13.1,41.9-28.1,59.4-44.8c76.4-73,131.2-166.9,160.5-287
			c10.3-42.4,19.7-98.6,10.8-147.4c-5.3-28.9-9.9-57.2-20.1-81.8c-5.7-13.7-16.2-26.1-19.3-41.7c0.3,0,0.5,0,0.8,0
			c18.2,14.4,27.3,42.7,39.4,63.3c58.9,100.8,72.5,253.4,25.5,377.3c-13.9,36.7-33.7,64.8-54,94.1c-26.6,38.3-57,73.5-95.7,99.5
			c-34.4,23.1-74.7,34.5-116.5,50.9c-77.5,30.4-170.9,46-268.5,55.6c-66.6,6.5-130.6-9.5-185.2-23.9c-17.5-2.8-35-5.7-52.5-8.5
			c0-0.5,0-1,0-1.5c0.5-6.7,1-13.4,1.5-20.1c-1.8-8.7-3.6-17.5-5.4-26.2c-10.1-34.3-24.8-46.4-51.7-63.3c-3.3-2.6-6.7-5.1-10-7.7
			c-7.2,0.8-14.4,1.5-21.6,2.3c-3.6,6-4.3,21.1,0,27.8c6.2,9.7,26.4,17.6,34,28.5c8.6,12.4,11.2,34.4,14.7,50.9c0,0.3,0,0.5,0,0.8
			c-11.5,6.9-36.4-5-50.9-3.1c-13.9-1-27.8-2.1-41.7-3.1c-30.3-5-84.1-5-111.9,0.8c-22.9,4.8-50.4,8.5-70.2,18.5
			c-71.3,35.9-120.1,101-147.4,180.6c-7.9,22.9-18.1,113.9-1.5,135c1.7,2.2,8.7,4.2,12.3,6.2c5.7-3.3,12-7.5,20.1-8.5
			c0.3,0.5,0.5,1,0.8,1.5c-0.8,1.3-1.5,2.6-2.3,3.9c8.8,12,28.5-28.7,32.4-33.2c5.4-6.2,11.9-11.8,17-18.5
			c35.2-46.1,70.7-79.6,125.8-106.5c22.3-10.9,53-23,74.8-6.2c0,0.8,0,1.5,0,2.3c-11.5,11.5-33.9,16.1-46.3,28.5
			c-28.5,28.5-36.3,100.4,10,115.7c53.2,17.6,88.1-38.6,94.9-77.2c-1-14.1-2.1-28.3-3.1-42.4c15.4-8.5,30.9-17,46.3-25.5
			c28-20.9,74.8-80.4,77.2-125c12-5.8,51.5,9.3,62.5,12.3c11.4-3.4,31.8,6.3,44.8,9.3c28.6,6.5,65.4,12.8,100.3,8.5
			c11.3,0,22.6,0,34,0c36.9-6.7,74.7-4.7,110.3-13.1c31.9-6.4,63.8-12.9,95.7-19.3c68.4-19.2,136-40.1,190.6-73.3
			c6.3-3.8,9.9-2.2,15.4-4.6c14-6.2,52.6-42.6,58.6-54.8c4.6-3.6,9.3-7.2,13.9-10.8c8.7-11.1,17.5-22.1,26.2-33.2
			c31.9-47.8,55.6-97.7,74.8-159.7c6-19.3,4.2-37,8.5-58.6C1691.2,944.5,1642.1,808.7,1586.9,730.8z M1451.1,569.5
			c-0.3,0.5-0.5,1-0.8,1.5c-13.8-32.8,0.3-91.5,19.3-105.7c1,0,2.1,0,3.1,0C1482,485.8,1460.7,559.5,1451.1,569.5z M632.4,1711.5
			c-31.3-45.5,9.3-51.9,34-71.8c1.3,0,2.6,0,3.9,0C675,1670.4,660.7,1709.7,632.4,1711.5z M776.7,1504.7
			c-20.3,41.3-44.6,61.4-86.4,81c-7.3-2.2-12.1-14-17-19.3c-6.6-7.2-22.4-13.9-33.2-16.2c-29.1-6.1-57.5,10.2-77.9,17.7
			c-50.9,18.8-91.5,52.2-120.4,93.4c-10.2,14.6-32.9,35.4-38.6,52.5c-0.3,0-0.5,0-0.8,0s-0.5,0-0.8,0c-4.3-87.6,27.7-131.4,64-179.8
			c14-18.6,29.6-36.9,49.4-49.4c19.4-12.3,45.3-18.8,70.2-24.7c10.8-1,21.6-2.1,32.4-3.1c30.3,0.8,60.7,1.5,91.1,2.3
			c26.5,2.6,53,5.1,79.5,7.7C792.2,1477.3,780.9,1496.1,776.7,1504.7z M1478.8,1393.6c2.8-2.3,5.7-4.6,8.5-6.9
			C1489,1387.6,1481.1,1392.9,1478.8,1393.6z M1494.3,1382c1.3-1.3,2.6-2.6,3.9-3.9C1498.9,1379.9,1498.2,1380.8,1494.3,1382z
			 M836.8,662.1c0-1,0-2.1,0-3.1c0.5-0.5,1-1,1.5-1.5c1.3,1.5,2.6,3.1,3.9,4.6c0.8-1.3,1.5-2.6,2.3-3.9c4.1,1.4,3.6,3.2,7.7,4.6
			c1.4-8.3,7.2-8,8.5-17c1.8-9.6-13.7-28.6-17.7-37.8c-15.2-35.5-30.4-71-45.5-106.5c-6.7-2.8-13.4-5.7-20.1-8.5
			c-7,5.5-11.4,6.7-15.4,15.4c15.4,34.7,30.9,69.4,46.3,104.2C816.6,629.9,820.6,652.8,836.8,662.1z M776.7,697.6
			c3.9,3.2,8.6-0.5,11.6-3.1c1.8,1.5,3.6,3.1,5.4,4.6c1.1-4.3,3.2-6.1,7.7-6.9c0.5,0.8,1,1.5,1.5,2.3c-5.5-34-24.5-61.9-39.4-91.8
			c-4.9-11.1-9.8-22.1-14.7-33.2c-4.6-4.7-14.1-6-20.1-7.7c-3,3.7-7.1,8.6-11.6,10.8c-2.5,19.5,32.7,79.7,41.7,97.2
			C763.6,678.8,767.1,693.4,776.7,697.6z M1107.7,726.9c-16.5-38-114.9-57.6-174.4-56.3c-8.2,1.5-16.5,3.1-24.7,4.6
			c-12.1,4.1-24.2,8.2-36.3,12.3c-31.4,13.1-72.3,55.5-88,84.9c-8.9,16.7-13.2,34.4-19.3,54c-5.1,16.4-17.4,70.7-6.2,88
			c3.3,5.1,15.7,13.3,20.8,16.2c13.4,4.4,26.8,8.7,40.1,13.1c114.9,34.3,213.5-47.1,253.9-115
			C1081.8,815.3,1115.8,745.6,1107.7,726.9z M795.2,897.4c-4-3.1-3.7-25-2.3-32.4c5.9-31.7,19.1-55.8,27-81.8
			c5.7,7.8,0.1,20.8,3.1,31.6c3.1,8.2,6.2,16.5,9.3,24.7c16.3,40.8,29.7,46.1,61,70.2c0.5,0,1,0,1.5,0
			C879,924.9,807.3,904.7,795.2,897.4z M1017.4,838c6.8-44.7,3.4-77.2-17-105.7c-8.2-7.7-16.5-15.4-24.7-23.1
			c25.8,5.1,76.5,11.9,91.8,28.6C1055.3,774.6,1044.9,816.4,1017.4,838z M1403.2,774.8c-9.9,6-20.1,16.1-12.3,32.4
			c12.4,18.9,39.4,6.4,37.8-22.4C1420.6,779.4,1417.9,774.4,1403.2,774.8z M843.8,885.1c-0.3,1-0.5,2.1-0.8,3.1c0.8,0,1.5,0,2.3,0
			C844.6,885.4,845.4,886.6,843.8,885.1z M1069.1,956.1c22.8-5.4,19.5-41.5-8.5-40.1C1035.6,928.1,1043,962.3,1069.1,956.1z
			 M1015.9,954.5c-4.6,2.1-10.2,3.2-13.1,6.9c-10.3,13.1-0.9,38.2,19.3,34C1045.2,990.6,1043.4,954,1015.9,954.5z"/>
	</g>
</g>
</svg>
