<?xml version="1.0" encoding="UTF-8"?><svg id="b" xmlns="http://www.w3.org/2000/svg" viewBox="0 0 198.33 340.28"><defs><style>.f{stroke:#f2f2f2;}.f,.g,.h,.i{fill:none;stroke-miterlimit:10;}.f,.h,.i{stroke-width:.5px;}.g,.i{stroke:blue;}.j{fill:blue;opacity:.33;}.h{stroke:#999;}.k{fill:#999;}.l{fill:#ccc;}.m{fill:#140016;}.n{fill:#f2f2f2;}</style></defs><g id="c"><g id="d"><rect class="n" width="198.33" height="340.28" rx="1.34" ry="1.34"/><g id="e"><path class="m" d="m6.93,333.63c-1.16,0-2.1-.87-2.1-1.95V8.6c0-1.08.94-1.95,2.1-1.95h184.47c1.16,0,2.1.87,2.1,1.95v323.07c0,1.08-.94,1.95-2.1,1.95"/></g><rect class="f" x="7.73" y="9.51" width="182.87" height="321.27" rx="1.34" ry="1.34"/><polygon class="g" points="70.58 250.73 128.44 250.73 99.51 300.18 70.58 250.73"/><line class="i" x1="51.47" y1="107.52" x2="51.42" y2="74.07"/><polygon class="j" points="51.47 107.52 51.42 74.07 22.54 58.07 51.47 107.52"/><polygon class="g" points="80.4 58.07 22.54 58.07 51.47 107.52 80.4 58.07"/><line class="i" x1="51.42" y1="74.07" x2="22.54" y2="58.07"/><line class="i" x1="51.42" y1="74.07" x2="80.4" y2="58.07"/><line class="i" x1="99.51" y1="170.32" x2="99.56" y2="136.87"/><polygon class="j" points="70.58 120.87 99.56 136.87 128.44 120.87 70.58 120.87"/><polygon class="g" points="70.58 120.87 128.44 120.87 99.51 170.32 70.58 120.87"/><line class="i" x1="99.56" y1="136.87" x2="128.44" y2="120.87"/><line class="i" x1="99.56" y1="136.87" x2="70.58" y2="120.87"/><line class="i" x1="82.31" y1="216.63" x2="82.26" y2="167.18"/><polygon class="j" points="110.8 167.52 82.34 167.52 82.34 216.26 110.8 167.52"/><polygon class="g" points="111.24 167.18 53.38 167.18 82.31 216.63 111.24 167.18"/><line class="i" x1="116.7" y1="216.63" x2="116.75" y2="167.18"/><polygon class="j" points="88.21 167.52 116.68 167.52 116.68 216.26 88.21 167.52"/><polygon class="g" points="87.77 167.18 145.63 167.18 116.7 216.63 87.77 167.18"/><line class="i" x1="146.95" y1="107.52" x2="146.91" y2="74.07"/><polygon class="j" points="175.44 58.41 146.91 74.07 146.98 107.15 175.44 58.41"/><polygon class="g" points="175.88 58.07 118.03 58.07 146.95 107.52 175.88 58.07"/><line class="i" x1="146.91" y1="74.07" x2="118.03" y2="58.07"/><line class="i" x1="146.91" y1="74.07" x2="175.88" y2="58.07"/><polygon class="j" points="70.58 213.55 128.44 213.55 99.51 263 70.58 213.55"/><line class="i" x1="99.21" y1="89.43" x2="99.26" y2="55.98"/><polygon class="j" points="70.32 39.98 99.26 55.98 128.14 39.98 70.32 39.98"/><polygon class="g" points="70.28 39.98 128.14 39.98 99.21 89.43 70.28 39.98"/><line class="i" x1="99.26" y1="55.98" x2="128.14" y2="39.98"/><line class="i" x1="99.26" y1="55.98" x2="70.28" y2="39.98"/><line class="i" x1="69.21" y1="137.85" x2="69.16" y2="104.4"/><polygon class="j" points="69.21 137.85 69.16 104.4 40.28 88.4 69.21 137.85"/><polygon class="g" points="98.14 88.4 40.28 88.4 69.21 137.85 98.14 88.4"/><line class="i" x1="69.16" y1="104.4" x2="40.28" y2="88.4"/><line class="i" x1="69.16" y1="104.4" x2="98.14" y2="88.4"/><line class="i" x1="129.2" y1="137.85" x2="129.15" y2="104.4"/><polygon class="j" points="157.69 88.74 129.15 104.4 129.22 137.48 157.69 88.74"/><polygon class="g" points="158.13 88.4 100.27 88.4 129.2 137.85 158.13 88.4"/><line class="i" x1="129.15" y1="104.4" x2="100.27" y2="88.4"/><line class="i" x1="129.15" y1="104.4" x2="158.13" y2="88.4"/><polygon class="g" points="70.61 213.55 128.46 213.55 99.53 263 70.61 213.55"/><path class="k" d="m98.81,304.9v1.18h.42c.06,0,.09.01.12.03.02.02.03.05.03.08,0,.03-.01.06-.03.08-.02.02-.06.03-.12.03h-.94c-.05,0-.09-.01-.12-.03-.02-.02-.03-.05-.03-.08,0-.03.01-.06.03-.08.02-.02.06-.03.12-.03h.3v-2.69h-.3c-.05,0-.09-.01-.12-.03-.02-.02-.03-.05-.03-.08s.01-.06.03-.08c.02-.02.06-.03.12-.03h1.36c.28,0,.52.09.71.27.19.18.29.38.29.6,0,.16-.06.31-.18.45-.12.14-.32.26-.6.36.16.11.3.24.41.38.11.14.3.43.55.86h.17c.05,0,.09.01.12.03.02.02.03.05.03.08,0,.03-.01.06-.03.08-.02.02-.06.03-.12.03h-.3c-.28-.5-.49-.83-.65-1-.15-.17-.33-.3-.53-.4h-.72Zm0-.23h.61c.2,0,.38-.04.54-.11.16-.07.28-.16.35-.25s.11-.19.11-.3c0-.15-.08-.29-.23-.43-.15-.14-.33-.2-.55-.2h-.83v1.29Z"/><path class="k" d="m93.39,312.33h-1.48l-.3.82h.43c.05,0,.09.01.12.03.02.02.03.05.03.08,0,.03-.01.06-.03.08-.02.02-.06.03-.12.03h-.84c-.05,0-.09-.01-.12-.03-.02-.02-.03-.05-.03-.08,0-.03.01-.06.03-.08.02-.02.06-.03.12-.03h.17l1-2.69h-.67c-.05,0-.09-.01-.12-.03-.02-.02-.03-.05-.03-.08s.01-.06.03-.08c.02-.02.06-.03.12-.03h1.13l1.1,2.91h.17c.05,0,.09.01.12.03.02.02.03.05.03.08,0,.03-.01.06-.03.08-.02.02-.06.03-.12.03h-.84c-.06,0-.09-.01-.12-.03-.02-.02-.03-.05-.03-.08,0-.03.01-.06.03-.08.02-.02.06-.03.12-.03h.43l-.31-.82Zm-.09-.23l-.62-1.64h-.08l-.6,1.64h1.31Z"/><path class="k" d="m108.05,311.89c0,.3-.06.58-.18.84-.12.26-.29.46-.5.6-.21.14-.44.21-.69.21-.36,0-.68-.15-.96-.46s-.41-.7-.41-1.19.14-.88.41-1.19c.28-.31.6-.46.96-.46.25,0,.47.07.69.21.21.14.38.34.5.6.12.26.18.53.18.84Zm-.23,0c0-.37-.11-.7-.32-.99-.21-.29-.49-.44-.83-.44-.32,0-.59.14-.81.42-.22.28-.34.61-.34,1.01,0,.42.12.76.35,1.03.24.27.5.4.8.4.34,0,.61-.15.83-.44.21-.29.32-.62.32-.99Z"/><path class="k" d="m99.66,317.24v2.69h.58c.05,0,.09.01.12.03.02.02.03.05.03.08,0,.03-.01.06-.03.08-.02.02-.06.03-.12.03h-1.4c-.05,0-.09-.01-.12-.03-.02-.02-.03-.05-.03-.08,0-.03.01-.06.03-.08.02-.02.06-.03.12-.03h.58v-2.69h-.92v.78c0,.06-.01.09-.03.12-.02.02-.05.03-.08.03-.03,0-.06-.01-.08-.03-.02-.02-.03-.06-.03-.12v-1.01h2.52v1.01c0,.06-.01.09-.03.12-.02.02-.05.03-.08.03s-.06-.01-.08-.03c-.02-.02-.03-.06-.03-.12v-.78h-.92Z"/><path class="h" d="m106.68,309.6c-.74-2.52-2.78-4.48-5.33-5.11"/><path class="h" d="m101.35,318.88c2.37-.59,4.28-2.31,5.14-4.55"/><path class="h" d="m92.65,314.33c.84,2.2,2.7,3.89,4.99,4.51"/><path class="h" d="m97.89,304.64c-2.54.67-4.55,2.65-5.25,5.18"/><path class="l" d="m99.58,24.23l2.96,3.82h.24c.15,0,.25.03.32.08.06.06.1.13.1.23s-.03.16-.1.22-.17.09-.32.09h-2c-.15,0-.25-.03-.32-.09s-.1-.13-.1-.22c0-.09.03-.17.1-.23.06-.06.17-.08.32-.08h.99l-2.57-3.31-2.54,3.31h.99c.15,0,.25.03.32.08.06.06.1.13.1.23s-.03.16-.1.22-.17.09-.32.09h-1.99c-.15,0-.25-.03-.32-.09s-.1-.13-.1-.22c0-.07.02-.13.06-.19s.08-.09.13-.1.2-.02.45-.02l2.92-3.82-2.79-3.61h-.23c-.15,0-.25-.03-.32-.09-.06-.06-.1-.13-.1-.23s.03-.17.1-.23c.06-.06.17-.08.32-.08h1.7c.15,0,.26.03.33.08.06.06.1.13.1.23s-.03.17-.1.23c-.06.06-.17.09-.33.09h-.7l2.4,3.11,2.39-3.11h-.7c-.15,0-.26-.03-.33-.09-.06-.06-.1-.13-.1-.23s.03-.17.1-.23c.06-.06.17-.08.33-.08h1.71c.15,0,.25.03.32.08.06.06.1.13.1.23s-.03.17-.1.23c-.06.06-.17.09-.32.09h-.24l-2.77,3.61Z"/></g></g></svg>