<svg xmlns="http://www.w3.org/2000/svg" width="512" height="512" fill="none"><path fill="#F90" d="M0 0h512v512H0z"/><path fill="#56C399" d="M84 340h344v160H84z"/><g><animateTransform attributeName="transform" dur="0.4s" keyTimes="0;0.5;1" repeatCount="indefinite" type="translate" values="0 0;0 28;0 0"/><path fill="#82DCB9" d="M196 176h120v296H196z"/><path fill="#D22D27" d="m264 403 52 12v10l-52-22Z"/><path fill="#fff" d="m283 401 3.625 1.69-6.762 14.501-3.625-1.69zM301 408l3.864 1.035-4.141 15.455-3.864-1.035z"/><path fill="#56C399" d="m196 300 120-16v4l-120 16v-4Z"/><path fill="#fff" d="m212 292 3.985-.349 1.394 15.94-3.985.348zM240 288l3.985-.349 1.394 15.94-3.985.348zM268 284l3.985-.349 1.394 15.94-3.985.348zM296 280l3.985-.349 1.394 15.94-3.985.348z"/><path fill="#56C399" d="M196 96h120v80H196z"/><path fill="#82DCB9" d="M250 96h12v36h-12z"><animate attributeName="fill" begin="5s" dur="0.4s" repeatCount="5" values="#82DCB9; #fff; #82DCB9"/></path><path fill="#121212" d="m224 238-16-104V96h-12v142h28ZM288 238l16-104V96h12v142h-28Z"/><path fill="#8B634A" d="M166 136h180v16H166zM330 112h16v24h-16zM166 112h16v24h-16z"/><path fill="#77492D" d="M196 108h120v28H196z"/><path fill="#8B634A" d="M196 44h120v64H196z"/><path stroke="#121212" stroke-width="6" d="M250 202h12M178.027 179.789l24 22"/><circle cx="226" cy="203" r="24" stroke="#121212" stroke-width="6"/><path stroke="#121212" stroke-width="6" d="m333.973 179.789-24 22"/><circle cx="27" cy="27" r="24" stroke="#121212" stroke-width="6" transform="matrix(-1 0 0 1 313 176)"/><mask id="a" width="42" height="42" x="265" y="182" maskUnits="userSpaceOnUse" style="mask-type:alpha"><circle cx="286" cy="203" r="21" fill="#D9D9D9"/></mask><g mask="url(#a)"><path fill="#D9D9D9" d="M272.179 182h8.782l-10.539 42h-8.781l10.538-42Z"><animateTransform attributeName="transform" dur="4s" keyTimes="0;0.1;0.3;1" repeatCount="indefinite" type="translate" values="-32 0;-32 0;48 0;48 0"/></path></g><mask id="b" width="42" height="42" x="205" y="182" maskUnits="userSpaceOnUse" style="mask-type:alpha"><circle cx="226" cy="203" r="21" fill="#D9D9D9"/></mask><g mask="url(#b)"><path fill="#D9D9D9" d="M212.179 182h8.782l-10.539 42h-8.781l10.538-42Z"><animateTransform attributeName="transform" dur="4s" keyTimes="0;0.1;0.3;1" repeatCount="indefinite" type="translate" values="-32 0;-32 0;48 0;48 0"/></path></g><path stroke="#121212" stroke-width="6" d="M230.711 344H280"/><path fill="#fff" d="m368.922 415.44-38.548-34.957-32.47-18.932-17.49-17.491h-13.5l38.126 46.324 16.85 18.878 31.606 24.563 15.426-18.385Z"/><path stroke="#121212" stroke-width="6" d="m321.89 409.262 31.606 24.563 15.426-18.385-38.548-34.957m-8.484 28.779 8.484-28.779m-8.484 28.779-16.85-18.878m25.334-9.901-32.47-18.932m7.136 28.833-38.126-46.324h13.5l17.49 17.491m7.136 28.833-7.136-28.833"/><path fill="#2D2D2D" stroke="#121212" stroke-width="6" d="m368.922 415.44-15.427 18.385-8.495-6.602 16-18.967 7.922 7.184Z"><animate attributeName="fill" dur="4s" keyTimes="0;0.8;1" repeatCount="indefinite" values="#2d2d2d;red;#2d2d2d"/></path><path stroke="#fff" stroke-width="6" d="M383 432c28.5 7 59-4.5 66-46.5S393 313 424 267"><animate attributeName="stroke" dur="4s" keyTimes="0;0.8;1" repeatCount="indefinite" values="white;transparent;white"/></path></g></svg>