<svg xmlns="http://www.w3.org/2000/svg" viewBox="0 -0.5 50 50" shape-rendering="crispEdges">
	<title>Bitcoin Pussies #058</title>
	<desc>Bitcoin Pussies are 69 uniquely drawn and inscribed cats on Bitcoin</desc>
	<desc xmlns:meow="https://bitcoinpussies.com/">
		<meow:traits>
			<meow:Skin>White (Shiny)</meow:Skin>
			<meow:Eyes>Open</meow:Eyes>
			<meow:Gear>Spacesuit</meow:Gear>
			<meow:Message>To the moon</meow:Message>
		</meow:traits>
	</desc>
	<path stroke="#343b5a" d="M0 0h50M0 1h50M0 2h43M46 2h4M0 3h42M43 3h3M47 3h3M0 4h5M6 4h35M44 4h3M48 4h2M0 5h34M35 5h6M44 5h3M48 5h2M0 6h15M16 6h25M45 6h2M48 6h2M0 7h42M47 7h3M0 8h8M9 8h34M46 8h4M0 9h7M10 9h10M31 9h19M0 10h8M9 10h9M33 10h17M0 11h15M36 11h14M0 12h14M37 12h13M0 13h13M38 13h12M0 14h13M38 14h12M0 15h12M39 15h11M0 16h12M39 16h11M0 17h12M39 17h11M0 18h12M39 18h11M0 19h11M40 19h10M0 20h9M10 20h1M40 20h5M46 20h4M0 21h11M40 21h4M47 21h3M0 22h11M40 22h5M46 22h4M0 23h3M4 23h7M40 23h10M0 24h4M5 24h1M7 24h4M40 24h10M0 25h5M6 25h6M39 25h11M0 26h4M5 26h1M7 26h5M39 26h11M0 27h7M8 27h4M39 27h7M47 27h3M0 28h13M38 28h12M0 29h14M37 29h13M0 30h16M35 30h15M0 31h12M14 31h2M35 31h15M0 32h11M15 32h1M35 32h8M44 32h6M0 33h11M36 33h14M0 34h12M36 34h14M0 35h13M36 35h14M0 36h5M6 36h8M36 36h13M0 37h15M35 37h13M49 37h1M0 38h16M34 38h16M0 39h14M35 39h15M0 40h12M37 40h13M0 41h11M38 41h12M0 42h10M39 42h11M0 43h9M40 43h10M0 44h8M41 44h9M0 45h8M42 45h8M0 46h7M42 46h8M0 47h7M43 47h7M0 48h6M43 48h7M0 49h6M43 49h7" />
	<path stroke="#969aaa" d="M43 2h3M42 3h1M46 3h1M5 4h1M41 4h3M47 4h1M34 5h1M41 5h3M47 5h1M41 6h4M47 6h1M42 7h5M43 8h3M9 20h1M45 20h1M44 21h3M45 22h1M43 32h1" />
	<path stroke="#fff5ce" d="M15 6h1M8 8h1M7 9h3M8 10h1M3 23h1M4 24h1M6 24h1M5 25h1M4 26h1M6 26h1M7 27h1M46 27h1M5 36h1M49 36h1M48 37h1" />
	<path stroke="#000000" d="M20 9h11M18 10h2M31 10h2M15 11h3M33 11h3M14 12h1M36 12h1M13 13h1M18 13h15M37 13h1M13 14h1M17 14h1M33 14h1M37 14h1M12 15h1M16 15h1M34 15h1M38 15h1M12 16h1M15 16h1M35 16h1M38 16h1M12 17h1M15 17h1M35 17h1M38 17h1M12 18h1M15 18h1M35 18h1M38 18h1M11 19h1M15 19h1M35 19h1M39 19h1M11 20h1M14 20h1M36 20h1M39 20h1M11 21h1M14 21h1M36 21h1M39 21h1M11 22h1M14 22h1M36 22h1M39 22h1M11 23h1M15 23h1M35 23h1M39 23h1M11 24h1M15 24h1M35 24h1M39 24h1M12 25h1M15 25h1M35 25h1M38 25h1M12 26h1M15 26h1M35 26h1M38 26h1M12 27h1M16 27h1M34 27h1M38 27h1M13 28h1M17 28h1M33 28h1M37 28h1M14 29h2M18 29h15M35 29h2M16 30h1M34 30h1M12 31h2M16 31h19M11 32h1M14 32h1M16 32h1M28 32h1M30 32h1M34 32h1M11 33h1M14 33h2M27 33h1M29 33h1M31 33h1M35 33h1M12 34h1M15 34h1M27 34h1M29 34h1M31 34h1M35 34h1M13 35h1M15 35h1M27 35h1M29 35h1M31 35h1M35 35h1M14 36h2M28 36h1M30 36h1M35 36h1M15 37h2M34 37h1M16 38h3M22 38h1M24 38h1M26 38h1M28 38h1M32 38h2M19 39h13" />
	<path stroke="#ffffff" d="M20 10h3M18 11h3M15 12h5M14 13h4M14 14h1M13 15h2M13 16h2M13 17h2M13 18h1M12 19h2M12 20h2M12 21h2M12 22h2M12 23h2M12 24h2M13 25h1M13 26h2M13 27h2M14 28h2M16 29h2M17 30h3M17 32h5M17 33h7M17 34h9M17 35h8M17 36h8M19 37h5M21 38h1M18 41h1M16 42h5M15 43h4M14 44h3M14 45h1M10 46h1M13 46h1M17 46h1M17 47h1M15 48h3M11 49h7" />
	<path stroke="#dcdcdc" d="M23 10h5M21 11h6M20 12h5M15 14h2M15 15h1M14 18h1M14 19h1M14 23h1M14 24h1M14 25h1M15 27h1M16 28h1M20 30h7M22 32h3M16 33h1M24 33h3M16 34h1M26 34h1M16 35h1M25 35h2M16 36h1M25 36h3M29 36h1M17 37h2M24 37h6M19 38h2M23 38h1M25 38h1M27 38h1" />
	<path stroke="#bababa" d="M28 10h3M27 11h6M25 12h9M33 13h3M34 14h3M35 15h2M36 16h1M36 17h2M36 18h2M36 19h2M37 20h2M37 21h2M37 22h1M37 23h1M36 24h2M36 25h2M36 26h2M35 27h3M34 28h3M33 29h2M27 30h7M25 32h3M29 32h1M32 33h1M32 34h2M32 35h2M31 36h2M30 37h3M29 38h1" />
	<path stroke="#8f8f8f" d="M34 12h2M36 13h1M37 15h1M37 16h1M38 19h1M38 22h1M36 23h1M38 23h1M38 24h1M31 32h3M33 33h2M34 34h1M34 35h1M33 36h2M33 37h1M30 38h2" />
	<path stroke="#d0f7ff" d="M18 14h8M19 15h7M21 16h5M15 22h1" />
	<path stroke="#b0f3ff" d="M26 14h7M26 15h6M26 16h4M35 22h1" />
	<path stroke="#527a82" d="M17 15h2M19 16h2M21 17h5M19 18h2M15 20h1M17 20h1M15 21h2M16 22h1M19 22h3M18 23h1M22 23h1M24 26h1" />
	<path stroke="#2c7683" d="M32 15h2M30 16h2M26 17h4M30 18h2M32 19h1M33 20h1M35 20h1M34 21h2M29 22h3M34 22h1M28 23h1M32 23h1M25 25h1M25 26h2" />
	<path stroke="#c1e0dd" d="M16 16h3M16 17h1M20 17h1M16 18h1M21 18h3M25 18h1M16 19h1M19 19h4M24 19h1M16 20h1M19 20h3M23 20h3M17 21h1M19 21h6M17 22h1M22 22h3M16 23h2M23 23h2M17 24h1M22 24h1M16 25h3M22 25h2M17 26h1M20 26h4M17 27h8M18 28h7" />
	<path stroke="#a1dcde" d="M32 16h3M30 17h1M34 17h1M27 18h3M34 18h1M26 19h1M28 19h4M34 19h1M26 20h2M29 20h4M34 20h1M25 21h9M25 22h4M32 22h2M25 23h3M33 23h2M28 24h1M32 24h2M27 25h2M32 25h3M27 26h4M33 26h1M26 27h8M25 28h8" />
	<path stroke="#d7e0e2" d="M17 17h3M17 18h1M17 19h1" />
	<path stroke="#b8dce3" d="M31 17h3M32 18h2M33 19h1" />
	<path stroke="#ffe6e1" d="M18 18h1" />
	<path stroke="#7d988d" d="M24 18h1M23 19h1M25 19h1M22 20h1M16 24h1M16 26h1" />
	<path stroke="#5b938e" d="M26 18h1M27 19h1M28 20h1M34 24h1M34 26h1" />
	<path stroke="#818181" d="M18 19h1" />
	<path stroke="#eee7dc" d="M18 20h1M18 21h1M18 22h1M18 24h1" />
	<path stroke="#6fdaf1" d="M19 23h1M21 23h1M19 24h3" />
	<path stroke="#d1f9ff" d="M20 23h1" />
	<path stroke="#41d5f2" d="M29 23h1M31 23h1M29 24h3" />
	<path stroke="#b1f4ff" d="M30 23h1" />
	<path stroke="#adbba1" d="M23 24h2M24 25h1" />
	<path stroke="#8db7a2" d="M25 24h3M26 25h1M25 27h1" />
	<path stroke="#65c7dd" d="M19 25h3" />
	<path stroke="#36c3dd" d="M29 25h3" />
	<path stroke="#dad5d5" d="M18 26h2" />
	<path stroke="#bbd1d6" d="M31 26h2" />
	<path stroke="#523a14" d="M12 32h2M12 33h2M13 34h1" />
	<path stroke="#ffe1e1" d="M28 33h1M30 35h1" />
	<path stroke="#d1454a" d="M30 33h1M28 34h1" />
	<path stroke="#decdb8" d="M14 34h1M14 35h1" />
	<path stroke="#d7b9f4" d="M30 34h1M28 35h1" />
	<path stroke="#262626" d="M14 39h2M33 39h2M12 40h2M34 40h3M11 41h1M36 41h2M10 42h1M37 42h2M9 43h1M34 43h1M38 43h2M8 44h1M25 44h3M33 44h1M35 44h1M39 44h2M8 45h1M13 45h1M24 45h1M28 45h1M33 45h1M35 45h1M40 45h2M7 46h1M12 46h1M14 46h1M24 46h1M28 46h1M34 46h1M41 46h1M7 47h1M12 47h1M14 47h1M25 47h3M41 47h2M6 48h1M13 48h1M42 48h1M6 49h1M18 49h3M42 49h1" />
	<path stroke="#87929c" d="M16 39h3M32 39h1M14 40h3M12 41h6M11 42h5M21 42h7M33 42h1M10 43h5M19 43h8M31 43h1M9 44h5M17 44h8M31 44h1M9 45h4M15 45h9M27 45h1M8 46h2M11 46h1M15 46h2M18 46h6M35 46h1M8 47h4M13 47h1M15 47h2M18 47h5M7 48h6M14 48h1M18 48h5M39 48h1M7 49h4M21 49h2M30 49h3M39 49h1" />
	<path stroke="#3e4042" d="M17 40h2M26 40h6M23 41h7" />
	<path stroke="#5a5a5a" d="M19 40h7M19 41h4" />
	<path stroke="#333333" d="M32 40h2M30 41h2" />
	<path stroke="#5c5c5c" d="M32 41h4M28 42h5M34 42h3M27 43h4M32 43h2M35 43h3M28 44h3M32 44h1M34 44h1M36 44h3M25 45h2M29 45h4M34 45h1M36 45h4M25 46h3M29 46h5M36 46h5M23 47h2M28 47h13M23 48h16M40 48h2M23 49h7M33 49h6M40 49h2" />
</svg>