<svg xmlns="http://www.w3.org/2000/svg" viewBox="0 -0.5 50 50" shape-rendering="crispEdges">
	<title>Bitcoin Pussies #038</title>
	<desc>Bitcoin Pussies are 69 uniquely drawn and inscribed cats on Bitcoin</desc>
	<desc xmlns:meow="https://bitcoinpussies.com/">
		<meow:traits>
			<meow:Skin>Orange</meow:Skin>
			<meow:Eyes>Closed</meow:Eyes>
			<meow:Gear>Ice cream with cherry on top</meow:Gear>
			<meow:Message>Meeeeooowwwwww</meow:Message>
		</meow:traits>
	</desc>
	<path stroke="#e59aa8" d="M0 0h50M0 1h50M0 2h50M0 3h50M0 4h27M29 4h21M0 5h26M27 5h23M0 6h25M27 6h23M0 7h24M28 7h22M0 8h23M29 8h21M0 9h23M29 9h21M0 10h22M29 10h21M0 11h21M30 11h20M0 12h20M31 12h19M0 13h19M32 13h18M0 14h19M32 14h18M0 15h16M35 15h15M0 16h15M36 16h14M0 17h15M36 17h14M0 18h15M36 18h14M0 19h15M36 19h14M0 20h15M36 20h14M0 21h15M36 21h14M0 22h16M35 22h15M0 23h15M36 23h14M0 24h15M36 24h14M0 25h15M36 25h14M0 26h15M36 26h14M0 27h15M36 27h14M0 28h16M35 28h15M0 29h16M35 29h15M0 30h17M34 30h16M0 31h19M32 31h18M0 32h15M17 32h3M31 32h19M0 33h14M18 33h1M32 33h18M0 34h14M18 34h1M32 34h18M0 35h15M33 35h17M0 36h16M33 36h17M0 37h17M33 37h17M0 38h18M32 38h18M0 39h20M31 39h19M0 40h50M0 41h50M0 42h50M0 43h50M0 44h50M0 45h50M0 46h50M0 47h50M0 48h50M0 49h50" />
	<path stroke="#4b240f" d="M27 4h2M26 5h1" />
	<path stroke="#87201f" d="M25 6h2M24 7h1M27 7h1M23 8h1M28 8h1M23 9h1M28 9h1M24 10h1M27 10h1M25 11h2" />
	<path stroke="#b3191a" d="M25 7h2M24 8h3M24 9h4M25 10h2" />
	<path stroke="#e9e9e9" d="M27 8h1" />
	<path stroke="#5d3723" d="M22 10h2M21 11h4M20 12h2M23 12h4M19 13h3M24 13h1M26 13h2M19 14h9M20 15h2M24 15h3M20 16h1M25 16h2M25 17h1" />
	<path stroke="#502e1c" d="M28 10h1M27 11h3M27 12h4M28 13h4M28 14h4M28 15h4M29 16h1" />
	<path stroke="#89573c" d="M22 12h1M22 13h2M25 13h1" />
	<path stroke="#000000" d="M16 15h3M32 15h3M15 16h1M35 16h1M15 17h1M35 17h1M15 18h1M35 18h1M15 19h1M18 19h1M32 19h1M35 19h1M15 20h1M17 20h1M33 20h1M35 20h1M15 21h2M34 21h2M16 22h1M34 22h1M15 23h1M20 23h2M29 23h2M35 23h1M15 24h1M19 24h1M22 24h1M28 24h1M31 24h1M35 24h1M15 25h1M35 25h1M15 26h1M23 26h1M25 26h1M27 26h1M35 26h1M15 27h1M24 27h1M26 27h1M35 27h1M16 28h1M25 28h1M34 28h1M16 29h1M34 29h1M17 30h2M32 30h2M19 31h2M30 31h2M15 32h2M20 32h1M30 32h1M14 33h1M17 33h1M19 33h1M31 33h1M14 34h1M17 34h1M19 34h1M31 34h1M15 35h1M18 35h1M32 35h1M16 36h1M18 36h1M32 36h1M17 37h2M32 37h1M18 38h2M21 38h1M23 38h1M27 38h1M29 38h1M31 38h1M20 39h11" />
	<path stroke="#e38b89" d="M19 15h1M19 16h1M31 16h1M19 17h1M31 17h1M19 18h1M31 18h1M20 19h1M30 19h1M20 20h2M29 20h1M22 21h7" />
	<path stroke="#f4adab" d="M22 15h2M27 15h1M21 16h4M27 16h2M30 16h1M20 17h5M26 17h5M20 18h11M21 19h9M22 20h7" />
	<path stroke="#dd7f00" d="M16 16h3M32 16h3M16 17h1M34 17h1M16 18h1M34 18h1M16 19h1M19 19h1M31 19h1M34 19h1M16 20h1M18 20h2M32 20h1M34 20h1M17 21h2M33 21h1M17 22h1M33 22h1M16 23h1M34 23h1M16 24h1M34 24h1M24 32h3M16 33h1M20 33h2M23 33h5M29 33h2M16 34h1M23 34h5M17 35h1M19 35h2M23 35h5M30 35h2M23 36h5M24 37h3" />
	<path stroke="#ffd0d1" d="M17 17h2M32 17h2M17 18h2M32 18h2M17 19h1M33 19h1" />
	<path stroke="#fe9800" d="M30 20h2M19 21h3M29 21h4M18 22h15M17 23h3M22 23h7M31 23h3M17 24h2M20 24h2M23 24h5M29 24h2M32 24h2M16 25h2M20 25h11M33 25h2M16 26h7M24 26h1M26 26h1M28 26h7M16 27h8M27 27h8M17 28h8M26 28h8M17 29h17M19 30h13M21 31h9M21 32h3M27 32h3M15 33h1M22 33h1M28 33h1M15 34h1M20 34h3M28 34h3M16 35h1M21 35h2M28 35h2M17 36h1M19 36h4M28 36h4M19 37h5M27 37h5M20 38h1M22 38h1M24 38h3M28 38h1M30 38h1" />
	<path stroke="#ffacae" d="M18 25h2M31 25h2" />
	<path stroke="#dfb3a9" d="M25 27h1" />
</svg>