<?xml version="1.0" encoding="utf-8"?>
<!-- Generator: Adobe Illustrator 27.6.1, SVG Export Plug-In . SVG Version: 6.00 Build 0)  -->
<svg version="1.1" id="レイヤー_1" xmlns="http://www.w3.org/2000/svg" xmlns:xlink="http://www.w3.org/1999/xlink" x="0px"
	 y="0px" viewBox="0 0 2000 2000" style="enable-background:new 0 0 2000 2000;" xml:space="preserve">
<style type="text/css">
	.st0{fill:#FFFFFF;}
	.st1{fill-rule:evenodd;clip-rule:evenodd;fill:#231815;}
</style>
<rect x="0" class="st0" width="2000" height="2000"/>
<g>
	<g>
		<path class="st1" d="M1368.7,622c10.4-3.6,20.7-7.3,31.1-10.9c0.8,0.4,1.6,0.8,2.4,1.2c2,42-18.5,85.4-20.5,128.3
			c22,23.2,33.5,11.3,56.9,8.1c35.2-4.8,90.5-20.2,124.9-15.6c2.2,7-29.4,66.1-35.2,77.6c4.9,8.8,9.7,10.7,20.4,16.2
			c3.3-1.3,6.6-2.6,9.8-3.9c17-33.7,34-67.4,51-101.1c0.3-20.6-32.7-21.3-45.9-20.2c-27.2,2.7-54.5,5.3-81.7,8
			c-19.4,3-39.8,12.5-60.5,10.8c-0.3-0.1-0.5-0.3-0.8-0.4c-0.1-29.7,8.7-61.7,14.9-91.8c2.9-14.3,11.8-32.5,4.1-43.2
			c-3.4-15.8-20.3-14.2-31-10.7c-16.6,5.7-33.3,11.4-49.9,17.1c-10.2,4.7-20.5,9.4-30.7,14c-0.3-0.1-0.5-0.3-0.8-0.4
			c3.2-8.2,6.3-16.5,9.5-24.7c10.8-39.1,29-84.2,35-120c-2.5-4.8-7.4-11.4-14.5-16.2c-1.6-0.1-3.1-0.3-4.7-0.4
			c-12.9,8.3-19.8,32.5-23.7,49c-7.4,31-22.1,66.9-31.4,97.3c-5.4,15.9-10.9,31.9-16.3,47.9c5.5,4.7,11,9.5,16.4,14.2
			C1321.9,653.8,1347.6,631.7,1368.7,622z M720.1,808.1c-41.5-9.4-35.1-78.8-10.2-106.5c26-28.9,51-24.2,91.5-11.8
			c2.9-1.2,5.8-2.3,8.7-3.5c0.1-0.9,0.3-1.8,0.4-2.7c-1-21.9-43.5-36.3-62.7-33.6c-47.9,6.7-94.8,49.2-91.1,110.4
			c1.3,21.5,3,38.7,19.4,55c25.1,25,66.8,26.4,89.1,16.4c61-27.3,129.4-104.4,170.3-189.5c12.5-1.1,33.8,12.4,49,15.9
			c18.1,4.1,36.6,3.1,53.4,1.4c23.6-6.5,47.2-12.9,70.8-19.4c11.2-5.2,22.4-14,35-14.8c38,42.6,77.8,82.7,127.6,123.4
			c27.5,22.4,63.6,38.9,89.3,58.8c29.7,23,73.7,42.7,63.7,78.4c-16.3,5.3-43.4-6.3-64.7-17.9c-5.9-3.3-11.8-6.6-17.6-9.9
			c-32.2-8.4-65.7-7.8-86.5,17.4c-16.5,19.9-8.5,45.7-0.2,58.9c31.8,50.7,125.6,83.8,183.4,96.5c7.2,20.1-39.1,57.3-48.1,60.3
			c-54.2,18.3-133.7-39.2-186.5-16.4c-44.5,19.3-52.3,62.1-18,94.2c-0.6,7.1-6.1,8.9-9.9,15.7c-9.2,16.5-4.8,37.9,1.4,49.9
			c11.7,22.9,51,25.9,69.4,20.3c50.2-15.2,123.9-49.8,162.9-94.8c22.2-25.6,35.1-67.6,55.3-94.1c4.6-10.5,9.2-20.9,13.9-31.4
			c14.4-0.6,28.8-1.2,43.2-1.8c26-2.6,87.4-23.8,99.6-62.9c12.3-39.2-4.6-107.9-62.9-99.6c-39,5.6-68.5,35.7-86.3,89.2
			c-4.4,13-14.4,25.3-16.6,36.9c-22,13.7-118.3-27.2-149.8-52c-9.1-9.8-18.3-19.7-27.4-29.6c-4.2-32.5,32.6-27.5,53.1-23.4
			c10.4,2.1,19.5,12.2,30.6,15.4c40.6,11.8,91.4,37.7,97.9-18.5c-0.1-7.6-0.2-15.2-0.3-22.8c-3.4-19.8-22.2-35.1-38.3-50.8
			c-50.5-49.5-135.6-94.3-189.6-140.9c-15.4-13.3-56.6-49.7-58.7-65c40.8-29.2,122.5-84.4,103-151.6c-5.2-18-19.4-34.9-43.4-46.5
			c-57.7-1.5-107,50.5-113.9,120.5c-2.2,22-4.5,41.2,4.5,59.3c-16.1,18.4-102.2,35.7-128.2,35.7c-8.9,0-34.7-4.7-42-12.3
			c-3.2-6.8,21.6-46.1,24.9-57.2c12.8-42.7,44.7-132.1-13.6-144.6c-30.7-6.6-70.1,29.4-83.1,73.1c-13.1,44.2-11.1,101.9,23.9,130.1
			c-0.7,21.3-26.1,48.6-36,65.5C843.2,726.5,761.4,817.5,720.1,808.1z M1191.3,1133.4c-1.3-16.1,17.3-22.8,27.2-24.6
			c14.1-2.6,31.8-3.5,47.9,0.6c16.5,4.2,29.9,12.1,45.5,13.1c0.8,1.1,1.6,2.1,2.3,3.2c-19.6,9.5-45.9,9.8-67.2,14.3
			c-11.1,4.5-22.3,9.1-33.4,13.6C1202.2,1155.4,1192,1141.3,1191.3,1133.4z M1342,1172c-32.2,20.2-60.9,39.7-95.6,51.1
			c-11.1,3.6-44.2,8-43.9-14.3c1.7-14.9,29.5-25.2,39-28.5c42.9-14.9,91.1-15.2,132.1-35.7c0.3,0.1,0.5,0.3,0.8,0.4
			C1370.8,1158.4,1351.2,1166.3,1342,1172z M1507.3,969.2c10.1-31,27.9-58,52.1-62.3c6.1,0.8,12.3,1.6,18.4,2.4
			c25.2,12.8,16.1,44.1-2.6,63.6c-20.3,21.2-50.9,21.3-77.1,26c-1-0.5-2.1-1.1-3.1-1.6C1496.5,988.8,1504,979.4,1507.3,969.2z
			 M1153,548.5c2.7-46.8,32.8-102.9,78.1-100.3c1.8,0.9,3.7,1.8,5.5,2.8c3.1,8.4,8.1,16.1,6.6,25.9c-5.3,33.9-69.9,92.4-89.1,96.7
			C1150.5,566.1,1152.5,557.5,1153,548.5z M958.2,445.3c16.6,23.4-16.1,101.8-34.7,140.9c-0.9-0.1-1.8-0.3-2.7-0.4
			C900.6,555.2,907.6,464.7,958.2,445.3z M778.4,544.4c24.2-15.3,14-46,11.2-61.2c-6.2-33.8-42.7-100.4-24.6-136.4
			c0.5-0.4,1.1-0.8,1.6-1.2c34.6,10.5,39.8,84.7,51.8,109.8c10.6,0.6,25.7,9.7,34.6-2.2c5.6-7.5-4.3-30.9-6.5-37.7
			c-9.9-31-16.4-75.3-56.2-95.2c-16.6-1.2-30-4.3-43.6,2.6c-14.2,7.2-20.2,30.3-20.2,43.9c0,37.4,15.1,73.6,26.3,107.7
			c4,12.1,16.2,37.6,3.3,51.8c-21.6,14.6-47.6-46.5-52.8-57.1c-22.7-50.5-45.5-101-68.2-151.4c-11.1-24-12.1-56.6-39-74.8
			c-4.3,0.5-6.5,1.7-11.8,0c-6.2,3.8-6.2,7-9.5,14.9c41.7,80.7,64.9,170,109.8,250.2C706,546.1,736.5,570.8,778.4,544.4z M623.3,534
			c5.5,11.3,10.9,22.6,16.4,33.8c3,1.8,6,3.7,9,5.5c1.7-2.1,3.4-4.2,5.1-6.3c8.2,0.9,13.5,2.3,18.5-7.4c-4.8-25.9-25.6-52.9-37-76.7
			c-21.1-43.9-41.8-88.3-63.9-132.6c-10.5-21-15.6-42.5-34-59.4c-8.3,2.8-15.1,5.2-21.6,13.7c6.1,34.3,39.5,84.7,55.7,117.6
			C589.5,459,605.1,496.9,623.3,534z M1249.5,799.8c-1.4-15.9-47.1-45.7-68.9-56.4c-9.3-4.4-18.6-8.7-27.8-13.1
			c-17.9-4.8-35.8-9.6-53.7-14.3c-69.6-10.4-122.5,6.9-172.2,56.7c-20,20-58.1,75.4-44.7,102.3c5.1,10.2,15,17.9,23.9,26.8
			c52.1,52,110.4,57.5,167.9,53.2c18.3-1.3,36.9-0.4,53-7.7c19.1-8.6,38.7-21.6,55.5-35.9C1208.9,888.7,1253.1,841.1,1249.5,799.8z
			 M917.4,869.3c-7.3-42.9,53.2-91.5,77-105.8c2.2,9-13.1,28.1-15.1,37.6c-8.8,43.8-4.7,89.6,40,115.6c0.1,1,0.3,2.1,0.4,3.1
			C978.7,922.4,943.4,895.2,917.4,869.3z M1159.6,880.4c-1,0.1-2.1,0.3-3.1,0.4c12.1-24.5,18.5-52.2,14.8-72.2
			c-2.2-11.8-21.6-34-18.3-43.7c24.2,12.3,41.7,25.4,60,37.1C1216.2,828.8,1173,866.6,1159.6,880.4z M1526,1534.4
			c-31.3-59.1-132.8-76.8-182.4-67.4c-13.6,2.6-38.8,0.9-48.7,12.8c-3.1,4-1,10.6-2.4,16.5c4.3,3.8,8.6,7.6,12.9,11.4
			c31.5-10,70.3-16.2,107.2-7.9c15,5.3,30.1,10.6,45.1,15.9c40.3,12.6,47.9,44.9,46.1,72.4c-0.3,4.6,1.8,10.9-2.4,16.5
			c-9.4,12.5-54.7,21-70.4,20.6c-53.8-56.3-182.8-141.9-270-147.1c-23.6-1.4-46,5.9-66.8,13.5c-2.2,7.7,0.3,13.7,0.3,20.8
			c4.7,2.4,9.4,4.7,14.1,7.1c19.3-3.6,39.1-9.6,60.1-8c68.9,5.2,199.1,84.1,234.4,132c6,8.1,13.9,7.7,21.9,15
			c9.4,8.5,24,52.6,16.3,65.2c-5.3,8.6-20.3,15.2-28.3,19.1c-30.5,14.9-103.5-25-133.3-51.5c-42.9-38.1-81.5-77.3-128-112.8
			c-60-45.8-143.6-70.2-205.5-87.9c-34-9.7-63.7-87.2-91.7-58.1c1.1,11,16.9,26.6,25.8,34.7c0.1,1,0.3,2.1,0.4,3.1
			c-12.7-2.8-25.4-5.6-38.1-8.4c-31-6.9-63.8-19.5-96.5-29c-13.2-5.7-26.4-11.4-39.6-17c-84.4-26-156.6-79.9-208.4-130.7
			c-28.6-28.1-53.5-50.9-77.1-79.2c-24.5-29.4-39.9-63.8-55.8-96c-10.4-21.1-22.3-40.3-32-61.4c-20.1-43.8-23.8-114.7-23.8-165.4
			c0-135.5,127.8-303.1,227.8-336.5c14.9,11.6,18.2,56.2,36.7,59.8c7.1-0.8,8.1-6.1,16.9-4.3c3.5-1.8,5.9-2.2,6.7-7.4
			c0.3-13.4-13-31-18.7-42.9c-14.7-30.6-28.2-61.5-42.9-92.4c-4.1-11.3-8.3-22.5-12.4-33.8c-4.2-2.8-8.4-5.5-12.5-8.3
			c-0.9,2.5-1.9,5-2.8,7.5c-1.4-1.7-2.9-3.4-4.3-5.1c-2.9,1.5-9.1,6.3-11.8,9.8c-0.1,30.4,23.8,58.7,33.1,86.5
			c-0.1,0.3-0.3,0.5-0.4,0.8c-44.7,15.4-83.8,47-121.6,83.2c-82.7,79-128.6,203.8-122.8,300c2.5,41.6,2.9,83.4,12.9,122.6
			c6.6,25.7,19.3,49.4,30.8,73.5c51.6,108.8,110.9,177.8,222.9,267.8c54.3,43.7,131.2,73.8,196,95c22.3,7.3,42.5,19.1,65.1,25
			c17,4.4,93.5,17.7,103.6,28.6c23.5,25.5,32.6,81.4,42,113.6c14.3,49.1,32.7,94.7,65.1,138.1c31.8,42.5,91.7,62.1,131,40.5
			c19.7-10.8,29.6-39.6,31.6-60.8c3.8-39.7-26.5-101.1-84.8-116.5c-16.2-4.3-53.5,11.2-59.4,32c-4.2,14.6,5.2,43.1,14.3,53.5
			c6.1,6.4,18.7,8.4,25.5,9.9c2.9-2,4.7-3.7,7.1-8.2c-5.2-16.1-20.5-36.3-2.2-50.3c5-3.8,10.2-6,16.9-4.3
			c26.3,6.8,51.4,56.3,48.4,75.6c-2.7,17.5-15.7,41.4-30.8,43.5c-34.8,4.7-70.1-26-85.8-50.2c-28.2-43.5-38.8-92.1-54.5-139.6
			c-6.1-18.5-10.4-47.6-24.5-62.5c0.1-0.9,0.3-1.8,0.4-2.7c0.1-0.3,0.3-0.5,0.4-0.8c20.9,7.3,41.8,14.6,62.8,21.8
			c102,30.8,166.2,97.3,226.8,152.8c26.2,23.9,54.6,42,85.4,64.7c6.9,2.5,13.9,5,20.8,7.5c44.6,13,70.5,19.3,101.7-6.7
			c7.7-6.4,18.8-17.4,22.1-32.1c5.8-25.7-4.2-49.3-15.1-69.6c0.3-0.5,0.5-1,0.8-1.6c19.7-8.1,40.6-8.5,58.2-23.7
			c21.7-18.8,18.6-49.4,16-68.7C1530.3,1556.5,1531.3,1544.4,1526,1534.4z M757.8,575.4c-7.2-0.5-13.4-2.1-19.2,1.1
			c-16.3,8.9-15.6,36,1.4,42C767,628.1,786.5,589.7,757.8,575.4z M673.7,590c-27.7,1.5-39.9,36.7-12.7,44.7
			C688.3,642.7,706.3,604.2,673.7,590z M1681.3,1263.6c59.8-39.1,62.4-114.9-6.1-147.7c-20.8-1.6-36.2-8.2-54.6-6.9
			c-108.9,7.6-203.7,86.5-283.4,181.6c-35.8,42.8-57.9,128.1-100.7,150.8c-14.9,7.9-26.5-18.2-27.4-27.6c1.9-8.9,3.7-17.8,5.6-26.7
			c5.6-33.6,12.2-58.8-12.3-82.9c-5.1-5-10-11.8-19.6-13.8c-20.8-4.5-39.2-3.9-52.7,12.8c-24,29.7-21.9,107-67.9,95.6
			c-38.4-9.5,9.1-98.7,17.7-128.7c22.6-78.1,25-149.3,13.3-215.5c-4-22.7-7.6-54.5-41-61c-1.9,1.3-7.6,4.5-7.9,9.8
			c3.1,4.9,6.2,9.7,9.4,14.6c6.2,12.9,16.3,56.7,13.1,71.5c-25.2,17.4-50.4,34.9-75.6,52.3c-9.1,5.7-20.6,20.2-31.9,18.3
			c1.1-8.5,23.8-85.2,30.2-91c4.7-4.3,10.2-2.1,15.7-9.8c-1.6-11.8-0.8-21.2-14.8-29.1c-23.9,7.3-46.3,18-70,25.7
			c-17.4,5.6-41.9,8.7-56.6,20.6c-5.4,1.6-10.7,3.1-16.1,4.7c-3-14.5,19.2-70.2,24.7-91.8c1.2-7.6,2.4-15.2,3.6-22.8
			c-16.2-26.8-32.6-15.9-56.9-12c-27.3,4.4-53,10.5-79.8,15.8c-16.8,3.3-34.2,15.5-51.9,15.1c-0.8,0.3-1.6,0.5-2.4,0.8
			c-1.6-5.7,3.8-12.5,6-19.6c11.5-37.2,36.6-61,15.6-89.5c-21.4-8.7-98.3,10.1-121.4,14.5c-7.6,1.5-14.5,6.9-23.2,5
			c-16.2-51.7-28.3-111.3-92.2-142.9c-2.5,1-5,2.1-7.5,3.1c-0.8,1.6-1.6,3.1-2.4,4.7c2.3,24.3,37.6,39.5,50,60.7
			c15.6,26.7,24.6,65.1,29.5,95.5c4.4,27.2,2.3,57.2,0.9,86c-0.4,27.4-0.7,54.7-1.1,82.1c-3.1,29.5-22.4,46.2-13.6,73.8
			c25.7,18.1,86.3-30.7,118.3-29.8c0.3,0.1,0.5,0.3,0.8,0.4c-6.2,30.8-45.2,84.4-19.2,104.4c10,8.8,31.9,1.2,41.2-1.8
			c20.4-6.7,40.1-11.6,61.3-16.3c11.2-2.5,20.8-10.9,33.4-9.7c0.1,0.4,0.3,0.8,0.4,1.2c-1.9,12.8-3.8,25.6-5.6,38.5
			c-1.9,25.3-11.2,86.8-2,107.2c3,6.7,9.3,10,15.7,15.8c24.1-0.4,93.8-47.5,119.2-60.8c13.5-7.1,32.4-7,42.5-23.8
			c-1.7-7.1-3.4-14.2-5-21.2c-15.6-5.7-28.9,6.7-40.9,12.8c-32.9,16.8-67.2,33.8-100.3,50.7c-0.5-0.3-1-0.5-1.6-0.8
			c-3.5-10.9,1.7-25.9,2.5-38.1c1.3-21.2,0.4-42.6,4.6-65.6c3.4-10.7,6.9-21.4,10.3-32.2c-0.5-3.8-5.8-4.1-7-7.5
			c-1.3-3.6,1.4-7.3-0.4-11c-9.9-9.6-30.1,1.2-39.3,3.8c-18.2,4.3-36.4,8.5-54.6,12.8c-14,4.4-28,8.8-42.1,13.2
			c-0.8,0.3-1.6,0.5-2.4,0.8c-2.4-8.2,20.7-61.7,26.6-74.1c3.3-4.6,6.6-9.1,9.9-13.7c2-7.8-5.2-17.4-7.4-24.4
			c-16.8-4.5-101.8,20.2-114.4,29.8c-1.4-0.4-2.9-0.8-4.3-1.2c4.4-46.9,3.6-88.6,6-134.7c0.8-15.7-8.2-37.1-2.2-52.2
			c17.9-8.9,78.7-18.5,100.2-19.3c2.2,38.1-48.8,80-20.8,113.4c13,11.6,39.9-3.5,52.3-6.1c37.8-8,95.2-33.1,133.2-30.1
			c0.4,0.5,0.8,1.1,1.2,1.6c-7.5,33.5-37.3,106.8-18.1,129.5c9.4,10.3,27.2,0.4,35-3c31.3-11.4,62.7-22.8,94-34.2
			c0.5,0.3,1,0.5,1.6,0.8c0.3,0.1,0.5,0.3,0.8,0.4c-7.2,23.3-14.3,46.6-21.5,69.8c-5.7,13.2-11.4,26.4-17,39.6
			c2.3,5.8,4.7,11.5,7,17.3c11.3,12.8,29.5,1.1,38.5-2.2c14.4-5.4,26-18.8,39.4-27.3c21.2-13.6,50.7-27.6,68.1-47.3
			c1-0.1,2.1-0.3,3.1-0.4c4,10.4-1.5,26.2-2.5,38.1c-2.2,25.1-7.8,53.1-14.8,80.1c-12.8,48.8-40.2,93.4-32.3,134.2
			c11.3,58.4,89.6,38.7,114.3,7.5c12.2-15.4,10.8-34.5,14.7-48.6c3.6-13.1,12-21.8,18.2-30.2c15.2-1.8,21.8,15.6,23.1,26.4
			c5,42-26.6,73.2,4.7,109.6c37.3,43.4,77.3,9,102.6-24c13.9-18.2,20.4-45.8,34.4-60.4c4.6,0.5,44.5,26.9,54.5,34.4
			c57.4,42.7,220.8,155,246.9,42.9c-0.6-13.1-1.2-26.2-1.8-39.3c14.3-4.3,28.6-8.5,42.9-12.8c39.1-27.7,37.9-80.7,24-109.9
			C1690.7,1276.2,1686,1269.9,1681.3,1263.6z M1361.1,1315.5c-0.3-0.1-0.5-0.3-0.8-0.4c16.2-16.4,32.3-32.9,48.5-49.3
			c66.5-69.4,135.8-120,223.1-124.5c11.2-0.6,20.9,4,33,4.8c50.4,28.4,27.9,76.4-12.9,95.8c-25.3,12-55.6,13.9-83.3,18.9
			c-33.7,6.1-67,16.1-101,22.8c-24.8,6.8-49.5,13.7-74.3,20.5C1382.6,1307.9,1371.8,1311.7,1361.1,1315.5z M1558.1,1457.1
			c-38,1.3-115.1-60.9-148.2-80.6c0-0.7,0-1.3,0-2c59.4,2.3,129.4,44.1,185.2,34.4c1.2,0.9,2.3,1.8,3.5,2.8
			C1617.1,1438.8,1574.9,1456.6,1558.1,1457.1z M1666.5,1341.7c-3.8,5.6-7.6,11.2-11.4,16.8c-9.6,3.4-19.1,6.7-28.7,10.1
			c-46.8,9.9-90.3-4.2-146-16.6c-23.2-4.8-46.3-9.6-69.5-14.4c-0.3-0.8-0.5-1.6-0.8-2.4c13.8-6.8,31.3-9,46.4-12
			c27.3-5.5,53.9-14.3,81.8-19.7c22.4-4.4,45-9.5,68-13.9c9-2.3,18.1-4.6,27.1-7c8.9,0.4,15.1,5.9,23.9,5.2
			C1680.4,1300.2,1683.3,1318.6,1666.5,1341.7z M583.3,632.9c-17.8,8-20.7,38.6,4.2,44.4c25.9,6,37.6-31.6,12.7-44.7
			C594.5,632.6,588.2,630.6,583.3,632.9z M528.1,691.6c-32.5,1.1-39.7,40-9.2,45.5C544.4,741.7,556.7,704.2,528.1,691.6z"/>
	</g>
</g>
</svg>
