<svg height="320" shape-rendering="crispEdges" viewBox="0 0 320 320" width="320" xmlns="http://www.w3.org/2000/svg"><rect fill="#d5d7e1" height="100%" width="100%"/><g fill="#343235"><path d="m90 210h140v10h-140z"/><path d="m90 220h140v10h-140z"/><path d="m90 230h140v10h-140z"/><path d="m90 240h140v10h-140z"/><path d="m90 250h20v10h-20z"/><path d="m120 250h110v10h-110z"/><path d="m90 260h20v10h-20z"/><path d="m120 260h110v10h-110z"/><path d="m90 270h20v10h-20z"/><path d="m120 270h110v10h-110z"/><path d="m90 280h20v10h-20z"/><path d="m120 280h110v10h-110z"/><path d="m90 290h20v10h-20z"/><path d="m120 290h110v10h-110z"/><path d="m90 300h20v10h-20z"/><path d="m120 300h110v10h-110z"/><path d="m90 310h20v10h-20z"/><path d="m120 310h110v10h-110z"/></g><path d="m140 240h50v10h-50z" fill="#62616d"/><path d="m130 250h10v10h-10z" fill="#62616d"/><path d="m150 250h10v10h-10z" fill="#62616d"/><path d="m170 250h10v10h-10z" fill="#62616d"/><path d="m150 260h10v10h-10z" fill="#62616d"/><path d="m170 260h10v10h-10z" fill="#62616d"/><path d="m150 270h10v10h-10z" fill="#62616d"/><path d="m180 270h10v10h-10z" fill="#62616d"/><path d="m220 40h10v10h-10z" fill="#343235"/><path d="m130 50h60v10h-60z" fill="#343235"/><path d="m210 50h30v10h-30z" fill="#343235"/><path d="m240 50h20v10h-20z" fill="#cd916d"/><path d="m110 60h40v10h-40z" fill="#343235"/><path d="m150 60h10v10h-10z" fill="#abaaa8"/><path d="m160 60h90v10h-90z" fill="#343235"/><path d="m260 60h10v10h-10z" fill="#cd916d"/><path d="m100 70h20v10h-20z" fill="#343235"/><path d="m120 70h20v10h-20z" fill="#abaaa8"/><path d="m140 70h100v10h-100z" fill="#343235"/><path d="m270 70h10v10h-10z" fill="#cd916d"/><path d="m90 80h30v10h-30z" fill="#343235"/><path d="m120 80h20v10h-20z" fill="#abaaa8"/><path d="m140 80h90v10h-90z" fill="#343235"/><path d="m270 80h10v10h-10z" fill="#cd916d"/><path d="m80 90h160v10h-160z" fill="#343235"/><path d="m270 90h10v10h-10z" fill="#cd916d"/><path d="m80 100h160v10h-160z" fill="#343235"/><path d="m270 100h10v10h-10z" fill="#ffd067"/><path d="m70 110h180v10h-180z" fill="#343235"/><path d="m270 110h10v10h-10z" fill="#ff1a0b"/><path d="m70 120h180v10h-180z" fill="#343235"/><path d="m70 130h180v10h-180z" fill="#343235"/><path d="m70 140h180v10h-180z" fill="#343235"/><path d="m70 150h180v10h-180z" fill="#343235"/><path d="m70 160h180v10h-180z" fill="#343235"/><path d="m80 170h160v10h-160z" fill="#343235"/><path d="m80 180h160v10h-160z" fill="#343235"/><path d="m90 190h60v10h-60z" fill="#343235"/><path d="m150 190h50v10h-50z" fill="#abaaa8"/><path d="m200 190h30v10h-30z" fill="#343235"/><path d="m100 200h120v10h-120z" fill="#343235"/><path d="m110 210h100v10h-100z" fill="#343235"/><path d="m130 220h60v10h-60z" fill="#343235"/><path d="m100 110h60v10h-60z" fill="#ff638d"/><path d="m170 110h60v10h-60z" fill="#cc0595"/><path d="m100 120h10v10h-10z" fill="#ff638d"/><path d="m110 120h20v10h-20z" fill="#fff"/><path d="m130 120h20v10h-20z"/><path d="m150 120h10v10h-10z" fill="#ff638d"/><path d="m170 120h10v10h-10z" fill="#cc0595"/><path d="m180 120h20v10h-20z" fill="#fff"/><path d="m200 120h20v10h-20z"/><path d="m220 120h10v10h-10z" fill="#cc0595"/><path d="m70 130h30v10h-30z" fill="#cc0595"/><path d="m100 130h10v10h-10z" fill="#ff638d"/><path d="m110 130h20v10h-20z" fill="#fff"/><path d="m130 130h20v10h-20z"/><path d="m150 130h10v10h-10z" fill="#ff638d"/><path d="m160 130h20v10h-20z" fill="#cc0595"/><path d="m180 130h20v10h-20z" fill="#fff"/><path d="m200 130h20v10h-20z"/><path d="m220 130h10v10h-10z" fill="#cc0595"/><path d="m70 140h10v10h-10z" fill="#cc0595"/><path d="m100 140h10v10h-10z" fill="#ff638d"/><path d="m110 140h20v10h-20z" fill="#fff"/><path d="m130 140h20v10h-20z"/><path d="m150 140h10v10h-10z" fill="#ff638d"/><path d="m170 140h10v10h-10z" fill="#cc0595"/><path d="m180 140h20v10h-20z" fill="#fff"/><path d="m200 140h20v10h-20z"/><path d="m220 140h10v10h-10z" fill="#cc0595"/><path d="m70 150h10v10h-10z" fill="#cc0595"/><path d="m100 150h10v10h-10z" fill="#ff638d"/><path d="m110 150h20v10h-20z" fill="#fff"/><path d="m130 150h20v10h-20z"/><path d="m150 150h10v10h-10z" fill="#ff638d"/><path d="m170 150h10v10h-10z" fill="#cc0595"/><path d="m180 150h20v10h-20z" fill="#fff"/><path d="m200 150h20v10h-20z"/><path d="m220 150h10v10h-10z" fill="#cc0595"/><path d="m100 160h60v10h-60z" fill="#ff638d"/><path d="m170 160h60v10h-60z" fill="#cc0595"/></svg>