<svg xmlns="http://www.w3.org/2000/svg" viewBox="0 -0.5 50 50" shape-rendering="crispEdges">
	<title>Bitcoin Pussies #041</title>
	<desc>Bitcoin Pussies are 69 uniquely drawn and inscribed cats on Bitcoin</desc>
	<desc xmlns:meow="https://bitcoinpussies.com/">
		<meow:traits>
			<meow:Skin>Orange, White</meow:Skin>
			<meow:Eyes>Open</meow:Eyes>
			<meow:Gear>Trainer Cap and Ball</meow:Gear>
			<meow:Message>Gotta catch em all - all the sats I mean</meow:Message>
		</meow:traits>
	</desc>
	<path stroke="#ab7778" d="M0 0h50M0 1h50M0 2h50M0 3h50M0 4h50M0 5h50M0 6h50M0 7h50M0 8h50M0 9h50M0 10h23M28 10h22M0 11h22M29 11h21M0 12h21M30 12h20M0 13h20M31 13h19M0 14h15M18 14h2M31 14h1M35 14h15M0 15h14M36 15h14M0 16h14M36 16h14M0 17h14M36 17h14M0 18h14M36 18h14M0 19h14M36 19h14M0 20h15M35 20h15M0 21h15M35 21h15M0 22h14M36 22h14M0 23h14M36 23h14M0 24h13M37 24h13M0 25h12M38 25h12M0 26h13M37 26h13M0 27h11M38 27h12M0 28h11M37 28h13M0 29h11M36 29h14M0 30h11M35 30h15M0 31h11M33 31h17M0 32h12M31 32h19M0 33h13M17 33h1M32 33h18M0 34h13M17 34h1M32 34h18M0 35h14M33 35h17M0 36h15M33 36h17M0 37h16M33 37h17M0 38h17M32 38h18M0 39h19M31 39h19M0 40h50M0 41h50M0 42h50M0 43h50M0 44h50M0 45h50M0 46h50M0 47h50M0 48h50M0 49h50" />
	<path stroke="#000000" d="M23 10h5M22 11h1M28 11h1M21 12h1M29 12h1M20 13h1M30 13h1M15 14h3M20 14h1M30 14h1M32 14h3M14 15h1M18 15h2M30 15h2M35 15h1M14 16h1M18 16h1M30 16h1M35 16h1M14 17h1M17 17h1M21 17h2M30 17h2M35 17h1M14 18h1M17 18h4M23 18h3M28 18h2M32 18h1M35 18h1M14 19h1M16 19h1M26 19h2M33 19h1M35 19h1M15 20h1M34 20h1M15 21h1M34 21h1M14 22h1M19 22h3M29 22h3M35 22h1M14 23h3M18 23h1M22 23h1M28 23h1M32 23h1M35 23h1M13 24h2M17 24h1M36 24h1M12 25h2M15 25h2M18 25h1M24 25h1M26 25h1M37 25h1M13 26h1M15 26h2M18 26h1M25 26h1M36 26h1M11 27h2M14 27h1M17 27h1M37 27h1M11 28h1M13 28h1M15 28h3M36 28h1M11 29h1M14 29h2M18 29h1M35 29h1M11 30h1M15 30h1M19 30h1M33 30h2M11 31h2M16 31h1M20 31h1M30 31h3M12 32h1M17 32h1M30 32h1M13 33h1M16 33h1M18 33h1M31 33h1M13 34h1M16 34h1M18 34h1M31 34h1M14 35h1M17 35h1M32 35h1M15 36h1M17 36h1M32 36h1M16 37h2M32 37h1M17 38h2M20 38h1M22 38h1M27 38h1M29 38h1M31 38h1M19 39h12" />
	<path stroke="#ffffff" d="M23 11h5M22 12h2M26 12h2M21 13h2M24 13h5M21 14h3M26 14h3M15 15h3M21 15h1M25 15h4M15 16h1M28 16h1M15 17h1M15 18h1M21 18h1M15 19h1M17 19h4M16 20h4M16 21h3M15 22h2M20 23h1M30 23h1M35 24h1M35 25h2M14 26h1M17 26h1M22 26h1M35 26h1M15 27h2M21 27h3M34 27h3M22 28h3M32 28h4M32 29h3M30 30h3M29 31h1M29 32h1M30 33h1M30 34h1M30 35h2M31 36h1M31 37h1M30 38h1" />
	<path stroke="#3b7400" d="M24 12h2M23 13h1M24 14h2" />
	<path stroke="#d6131b" d="M28 12h1M29 13h1M29 14h1M20 15h1M22 15h3M29 15h1M19 16h9M29 16h1M18 17h3M23 17h7M26 18h2M15 24h2M14 25h1M17 25h1M12 28h1M12 29h2M12 30h2M13 31h1M13 32h1M16 32h1" />
	<path stroke="#ef8e3f" d="M32 15h3M34 16h1M34 17h1M22 18h1M30 18h2M34 18h1M21 19h5M28 19h5M34 19h1M20 20h14M19 21h15M17 22h2M22 22h7M32 22h3M17 23h1M23 23h5M33 23h2M18 24h1M22 24h7M32 24h3M22 25h2M25 25h1M27 25h2M32 25h3M20 26h2M23 26h2M26 26h5M33 26h2M13 27h1M18 27h3M24 27h10M14 28h1M18 28h4M25 28h7M17 29h1M19 29h13M16 30h3M20 30h10M17 31h3M21 31h8M18 32h11M14 33h1M19 33h11M14 34h2M19 34h11M15 35h2M18 35h12M16 36h1M18 36h13M18 37h13M19 38h1M21 38h1M23 38h4M28 38h1" />
	<path stroke="#ffbda7" d="M16 16h2M31 16h3M16 17h1M32 17h2M16 18h1M33 18h1" />
	<path stroke="#aaa600" d="M19 23h1M21 23h1M29 23h1M31 23h1M19 24h3M29 24h3" />
	<path stroke="#a09c00" d="M19 25h3M29 25h3" />
	<path stroke="#ffadaf" d="M19 26h1M31 26h2" />
	<path stroke="#ffa785" d="M16 29h1" />
	<path stroke="#ff9400" d="M14 30h1M15 31h1" />
	<path stroke="#ffe500" d="M14 31h1M14 32h2M15 33h1" />
</svg>