<?xml version="1.0" encoding="UTF-8"?><svg id="_レイヤー_2" xmlns="http://www.w3.org/2000/svg" viewBox="0 0 833.33 833.33"><defs><style>.cls-1{fill:#fff324;}.cls-2{fill:#ff5f38;}.cls-3{fill:#8d38ff;}.cls-4{fill:#5a6de6;}.cls-5{fill:#2b60cf;}.cls-6{fill:#263687;}</style></defs><g id="_レイヤー_1-2"><rect class="cls-4" width="833.33" height="833.33"/><polygon class="cls-6" points="500 333.33 500 291.67 333.33 291.67 333.33 333.33 291.67 333.33 291.67 500 541.67 500 541.67 333.33 500 333.33"/><path d="m291.67,333.33h-31.67c-5.52,0-10,4.48-10,10v156.67h41.67v-166.67Z"/><path d="m500,291.67v-31.67c0-5.52-4.48-10-10-10h-146.67c-5.52,0-10,4.48-10,10v31.67h166.67Z"/><path d="m208.33,510c-.53,33.9-2.17,32.18,31.67,31.67,5.52,0,10-4.48,10-10v-31.67h-31.67c-5.52,0-10,4.48-10,10Z"/><path d="m291.67,500v73.33c0,5.52,4.48,10,10,10h21.67c5.52,0,10-4.48,10-10v-31.67h83.33v31.67c0,5.52,4.48,10,10,10h21.67c5.52,0,10-4.48,10-10v-31.67h73.33c5.52,0,10-4.48,10-10v-31.67h-250Z"/><path d="m615,458.33h-31.67v-115c0-5.52-4.48-10-10-10h-31.67v166.67h73.33c5.52,0,10-4.48,10-10-1.09-8.67,4.76-31.88-10-31.67Z"/><path d="m333.33,291.67c-47.49-.06-41.68-5.66-41.67,41.67h41.67v-41.67Z"/><path d="m541.67,333.33c.06-47.49,5.66-41.68-41.67-41.67v41.67h41.67Z"/><path class="cls-2" d="m375,395.83v41.67h20.83v-62.5h-20.83v20.83Z"/><path class="cls-2" d="m458.33,375v62.5h20.83v-62.5h-20.83Z"/><path class="cls-1" d="m395.83,395.83v41.67h20.83v-62.5h-20.83v20.83Z"/><path class="cls-1" d="m479.17,375v62.5h20.83v-62.5h-20.83Z"/><path class="cls-5" d="m416.67,395.83v41.67h20.83v-62.5h-20.83v20.83Z"/><path class="cls-5" d="m500,375v62.5h20.83v-62.5h-20.83Z"/><path d="m395.83,375h145.83v-20.83c-40.72,0-84.31,0-125,0-10.37,0-31.3,0-41.67,0-19.07-.88-21.76,1.55-20.83,20.83h41.67Z"/><path d="m364.17,458.33h177.5v-20.83h-187.5c-.17,8.07-1.51,20.65,10,20.83Z"/><path d="m354.17,395.83v-20.83c-19.12-.94-21.77,1.74-20.83,20.83.02,7.09-.01,24.8,0,31.67.17,11.49,12.78,10.17,20.83,10v-41.67Z"/><path class="cls-3" d="m354.17,395.83v41.67h20.83v-62.5h-20.83v20.83Z"/><path class="cls-3" d="m437.5,395.83v41.67h20.83v-62.5h-20.83v20.83Z"/><path class="cls-3" d="m520.83,375v62.5h20.83v-62.5h-20.83Z"/><path d="m125,416.67c0-18.57,0-43.94,0-62.5.95-19.07-1.73-21.79-20.83-20.83.95-19.12-1.75-21.77-20.83-20.83-10.38,0-31.29,0-41.67,0,.16-8.07,1.52-20.65-10-20.83-6.84-.01-24.62,0-31.67,0v20.83h20.83v20.83H0v20.83c7.15-.02,24.75.02,31.67,0,11.51-.18,10.17-12.78,10-20.83,18.56,0,43.94,0,62.5,0,0,18.57,0,43.94,0,62.5.01,4.73,0,22.95,0,27.34-1.39,15.41,9.16,14.71,20.83,14.33v-20.83Z"/><path d="m229.17,437.5h-104.17c-.15,8.08-1.53,20.64,10,20.83,6.75,0,24.68,0,31.67,0,26.11,0,57.23,0,83.33,0v-20.83h-20.83Z"/></g></svg>