<svg xmlns="http://www.w3.org/2000/svg" op="pixels" viewBox="0 0 17 17"><path d="M6 7h1v1h-1M7 7h1v1h-1M8 7h1v1h-1M9 7h1v1h-1M10 7h1v1h-1M10 8h1v1h-1M9 8h1v1h-1M9 9h1v1h-1M8 9h1v1h-1M7 9h1v1h-1M6 9h1v1h-1M6 8h1v1h-1M7 8h1v1h-1M10 9h1v1h-1" fill="#006400" /><path d="M5 6h1v1h-1M6 6h1v1h-1M7 6h1v1h-1M8 6h1v1h-1M9 6h1v1h-1M10 6h1v1h-1M11 6h1v1h-1M11 7h1v1h-1M11 8h1v1h-1M11 9h1v1h-1M11 10h1v1h-1M10 10h1v1h-1M9 10h1v1h-1M8 10h1v1h-1M7 10h1v1h-1M6 10h1v1h-1M5 10h1v1h-1M5 9h1v1h-1M5 8h1v1h-1M5 7h1v1h-1" fill="#8B0000" /><path d="M8 8h1v1h-1" fill="#FFFFFF" /></svg>