<svg height="320" shape-rendering="crispEdges" viewBox="0 0 320 320" width="320" xmlns="http://www.w3.org/2000/svg"><rect fill="#e1d7d5" height="100%" width="100%"/><g fill="#9f21a0"><path d="m90 210h140v10h-140z"/><path d="m90 220h140v10h-140z"/><path d="m90 230h140v10h-140z"/><path d="m90 240h140v10h-140z"/><path d="m90 250h20v10h-20z"/><path d="m120 250h110v10h-110z"/><path d="m90 260h20v10h-20z"/><path d="m120 260h110v10h-110z"/><path d="m90 270h20v10h-20z"/><path d="m120 270h110v10h-110z"/><path d="m90 280h20v10h-20z"/><path d="m120 280h110v10h-110z"/><path d="m90 290h20v10h-20z"/><path d="m120 290h110v10h-110z"/><path d="m90 300h20v10h-20z"/><path d="m120 300h110v10h-110z"/><path d="m90 310h20v10h-20z"/><path d="m120 310h110v10h-110z"/></g><path d="m120 210h10v10h-10z" fill="#ffc110"/><path d="m190 210h10v10h-10z" fill="#ffc110"/><path d="m130 220h10v10h-10z" fill="#ffc110"/><path d="m180 220h10v10h-10z" fill="#ffc110"/><path d="m140 230h10v10h-10z" fill="#ffc110"/><path d="m170 230h10v10h-10z" fill="#ffc110"/><path d="m150 240h20v10h-20z" fill="#ffc110"/><path d="m130 250h60v10h-60z" fill="#fff671"/><path d="m130 260h40v10h-40z" fill="#ffc110"/><path d="m170 260h20v10h-20z" fill="#fff671"/><path d="m130 270h40v10h-40z" fill="#ffc110"/><path d="m170 270h20v10h-20z" fill="#fff671"/><path d="m140 70h40v10h-40z" fill="#9f21a0"/><path d="m50 80h90v10h-90z" fill="#da42cb"/><path d="m140 80h40v10h-40z" fill="#9f21a0"/><path d="m180 80h90v10h-90z" fill="#da42cb"/><path d="m50 90h80v10h-80z" fill="#da42cb"/><path d="m130 90h10v10h-10z" fill="#eab118"/><path d="m140 90h40v10h-40z" fill="#9f21a0"/><path d="m180 90h10v10h-10z" fill="#eab118"/><path d="m190 90h80v10h-80z" fill="#da42cb"/><path d="m50 100h80v10h-80z" fill="#da42cb"/><path d="m130 100h60v10h-60z" fill="#eab118"/><path d="m190 100h80v10h-80z" fill="#da42cb"/><path d="m50 110h80v10h-80z" fill="#9f21a0"/><path d="m130 110h10v10h-10z" fill="#eab118"/><path d="m140 110h40v10h-40z" fill="#d4a015"/><path d="m180 110h10v10h-10z" fill="#eab118"/><path d="m190 110h80v10h-80z" fill="#9f21a0"/><path d="m40 120h10v10h-10z" fill="#9f21a0"/><path d="m50 120h80v10h-80z" fill="#da42cb"/><path d="m130 120h10v10h-10z" fill="#eab118"/><path d="m140 120h40v10h-40z" fill="#9f21a0"/><path d="m180 120h10v10h-10z" fill="#eab118"/><path d="m190 120h80v10h-80z" fill="#da42cb"/><path d="m40 130h10v10h-10z" fill="#9f21a0"/><path d="m50 130h90v10h-90z" fill="#da42cb"/><path d="m140 130h40v10h-40z" fill="#9f21a0"/><path d="m180 130h90v10h-90z" fill="#da42cb"/><path d="m30 140h10v10h-10z" fill="#eab118"/><path d="m50 140h90v10h-90z" fill="#da42cb"/><path d="m140 140h40v10h-40z" fill="#9f21a0"/><path d="m180 140h90v10h-90z" fill="#da42cb"/><path d="m30 150h10v10h-10z" fill="#eab118"/><path d="m50 150h90v10h-90z" fill="#da42cb"/><path d="m140 150h40v10h-40z" fill="#9f21a0"/><path d="m180 150h90v10h-90z" fill="#da42cb"/><path d="m50 160h90v10h-90z" fill="#da42cb"/><path d="m140 160h40v10h-40z" fill="#9f21a0"/><path d="m180 160h90v10h-90z" fill="#da42cb"/><path d="m50 170h90v10h-90z" fill="#da42cb"/><path d="m140 170h40v10h-40z" fill="#9f21a0"/><path d="m180 170h90v10h-90z" fill="#da42cb"/><path d="m50 180h90v10h-90z" fill="#da42cb"/><path d="m140 180h10v10h-10z" fill="#fff"/><path d="m150 180h10v10h-10z"/><path d="m160 180h10v10h-10z" fill="#fff"/><path d="m170 180h10v10h-10z"/><path d="m180 180h10v10h-10z" fill="#fff"/><path d="m190 180h80v10h-80z" fill="#da42cb"/><path d="m50 190h90v10h-90z" fill="#da42cb"/><path d="m140 190h40v10h-40z" fill="#9f21a0"/><path d="m180 190h90v10h-90z" fill="#da42cb"/><path d="m50 200h90v10h-90z" fill="#da42cb"/><path d="m140 200h40v10h-40z" fill="#9f21a0"/><path d="m180 200h90v10h-90z" fill="#da42cb"/><path d="m100 110h60v10h-60z" fill="#068940"/><path d="m170 110h60v10h-60z" fill="#257ced"/><path d="m100 120h10v10h-10z" fill="#068940"/><path d="m110 120h20v10h-20z" fill="#fff"/><path d="m130 120h20v10h-20z"/><path d="m150 120h10v10h-10z" fill="#068940"/><path d="m170 120h10v10h-10z" fill="#257ced"/><path d="m180 120h20v10h-20z" fill="#fff"/><path d="m200 120h20v10h-20z"/><path d="m220 120h10v10h-10z" fill="#257ced"/><path d="m70 130h30v10h-30z" fill="#257ced"/><path d="m100 130h10v10h-10z" fill="#068940"/><path d="m110 130h20v10h-20z" fill="#fff"/><path d="m130 130h20v10h-20z"/><path d="m150 130h10v10h-10z" fill="#068940"/><path d="m160 130h20v10h-20z" fill="#257ced"/><path d="m180 130h20v10h-20z" fill="#fff"/><path d="m200 130h20v10h-20z"/><path d="m220 130h10v10h-10z" fill="#257ced"/><path d="m70 140h10v10h-10z" fill="#257ced"/><path d="m100 140h10v10h-10z" fill="#068940"/><path d="m110 140h20v10h-20z" fill="#fff"/><path d="m130 140h20v10h-20z"/><path d="m150 140h10v10h-10z" fill="#068940"/><path d="m170 140h10v10h-10z" fill="#257ced"/><path d="m180 140h20v10h-20z" fill="#fff"/><path d="m200 140h20v10h-20z"/><path d="m220 140h10v10h-10z" fill="#257ced"/><path d="m70 150h10v10h-10z" fill="#257ced"/><path d="m100 150h10v10h-10z" fill="#068940"/><path d="m110 150h20v10h-20z" fill="#fff"/><path d="m130 150h20v10h-20z"/><path d="m150 150h10v10h-10z" fill="#068940"/><path d="m170 150h10v10h-10z" fill="#257ced"/><path d="m180 150h20v10h-20z" fill="#fff"/><path d="m200 150h20v10h-20z"/><path d="m220 150h10v10h-10z" fill="#257ced"/><path d="m100 160h60v10h-60z" fill="#068940"/><path d="m170 160h60v10h-60z" fill="#257ced"/></svg>