<svg xmlns="http://www.w3.org/2000/svg" viewBox="0 -0.5 50 50" shape-rendering="crispEdges">
	<title>Bitcoin Pussies #045</title>
	<desc>Bitcoin Pussies are 69 uniquely drawn and inscribed cats on Bitcoin</desc>
	<desc xmlns:meow="https://bitcoinpussies.com/">
		<meow:traits>
			<meow:Skin>Orange, White</meow:Skin>
			<meow:Eyes>Open</meow:Eyes>
			<meow:Gear>Pink costume and a sword</meow:Gear>
			<meow:Message>Poyo!</meow:Message>
		</meow:traits>
	</desc>
	<path stroke="#d3bcef" d="M0 0h50M0 1h50M0 2h50M0 3h50M0 4h50M0 5h50M0 6h50M0 7h50M0 8h50M0 9h50M0 10h3M4 10h46M0 11h3M6 11h44M0 12h3M7 12h16M24 12h3M28 12h22M0 13h3M9 13h13M29 13h21M0 14h3M10 14h11M30 14h20M0 15h3M11 15h5M35 15h15M0 16h4M11 16h4M36 16h14M0 17h4M12 17h3M36 17h14M0 18h4M12 18h3M36 18h14M0 19h5M12 19h3M36 19h14M0 20h6M13 20h1M37 20h13M0 21h7M13 21h1M37 21h13M0 22h7M38 22h12M0 23h8M38 23h12M0 24h9M38 24h12M0 25h10M38 25h12M0 26h10M37 26h13M0 27h11M37 27h13M0 28h12M36 28h14M0 29h11M35 29h15M0 30h10M34 30h16M0 31h10M33 31h17M0 32h11M14 32h3M32 32h18M0 33h18M32 33h18M0 34h19M32 34h18M0 35h18M33 35h17M0 36h17M33 36h17M0 37h16M33 37h17M0 38h17M32 38h18M0 39h20M31 39h19M0 40h50M0 41h50M0 42h50M0 43h50M0 44h50M0 45h50M0 46h50M0 47h50M0 48h50M0 49h50" />
	<path stroke="#4d79cf" d="M3 10h1M3 11h2M3 12h1M6 12h1M7 13h1M9 14h1M10 15h1M4 16h1M10 16h1M11 17h1M5 18h1M11 18h1M11 19h1M12 20h1M12 21h1M8 22h1M12 22h1M13 23h1M13 24h1M13 25h1M11 26h1M17 26h1M16 27h2M16 28h1M12 29h1M15 29h1M11 30h4" />
	<path stroke="#88aef8" d="M5 11h1M5 12h1M4 13h1M8 13h1M4 14h1M8 14h1M6 18h3M8 20h2M11 21h1M10 22h1M11 24h2" />
	<path stroke="#a1c0ff" d="M4 12h1M5 13h2M5 14h1M7 14h1M8 15h2M5 16h1M9 16h1M5 17h1M10 17h1M8 19h2M10 20h2M10 21h1M11 22h1M11 23h2M12 25h1" />
	<path stroke="#000000" d="M23 12h1M27 12h1M22 13h1M24 13h3M28 13h1M21 14h4M26 14h4M16 15h5M22 15h1M24 15h1M26 15h1M28 15h1M30 15h5M15 16h1M18 16h1M22 16h1M24 16h1M26 16h1M28 16h1M32 16h1M35 16h1M15 17h3M23 17h1M27 17h1M33 17h3M4 18h1M15 18h2M34 18h2M5 19h1M15 19h1M22 19h7M35 19h1M6 20h1M14 20h1M20 20h2M29 20h2M36 20h1M14 21h1M19 21h1M31 21h1M36 21h1M7 22h1M13 22h1M18 22h1M32 22h1M37 22h1M8 23h1M17 23h1M20 23h2M29 23h2M33 23h1M37 23h1M9 24h1M16 24h2M20 24h2M29 24h2M34 24h1M37 24h1M16 25h1M18 25h1M25 25h1M34 25h1M37 25h1M10 26h1M14 26h2M18 26h1M24 26h1M26 26h1M34 26h1M36 26h1M11 27h1M18 27h1M33 27h1M36 27h1M18 28h1M32 28h1M35 28h1M11 29h1M17 29h3M31 29h1M34 29h1M10 30h1M16 30h2M20 30h2M29 30h2M33 30h1M10 31h1M14 31h3M18 31h1M22 31h7M32 31h1M11 32h3M17 32h1M19 32h2M30 32h2M18 33h1M21 33h9M31 33h1M19 34h1M28 34h1M31 34h1M18 35h1M28 35h1M31 35h2M17 36h2M29 36h2M32 36h1M16 37h1M18 37h1M32 37h1M17 38h3M21 38h1M29 38h1M31 38h1M20 39h11" />
	<path stroke="#1f52b0" d="M3 13h1M3 14h1M3 15h1M4 17h1M7 21h1M10 25h1M17 25h1M16 26h1M12 27h1M15 27h1M12 28h1M15 28h1M17 28h1M13 29h2M16 29h1M15 30h1M11 31h3" />
	<path stroke="#ffffff" d="M23 13h1M27 13h1M17 31h1M22 34h6M23 35h4M17 37h1M22 38h1M28 38h1" />
	<path stroke="#e2ecff" d="M6 14h1M5 15h3M6 16h3M6 17h4M9 18h2M10 19h1" />
	<path stroke="#ff7ea5" d="M25 14h1M21 15h1M25 15h1M29 15h1M19 16h3M25 16h1M29 16h3M18 17h2M22 17h1M24 17h3M28 17h1M31 17h2M17 18h17M16 19h6M29 19h6M15 20h5M31 20h5M15 21h4M32 21h4M14 22h4M33 22h4M14 23h3M34 23h3M14 24h2M35 24h2M14 25h2M35 25h2M35 26h1M34 27h2M33 28h2M32 29h2M18 30h2M31 30h2M19 31h3M29 31h3M21 32h9" />
	<path stroke="#6993e6" d="M4 15h1M6 19h2M7 20h1M8 21h2M9 22h1M9 23h2M10 24h1M11 25h1M12 26h2" />
	<path stroke="#3188bd" d="M23 15h1M27 15h1M23 16h1M27 16h1" />
	<path stroke="#fe9800" d="M16 16h2M22 20h7M20 21h11M19 22h1M22 22h7M31 22h1M18 23h1M23 23h5M32 23h1M18 24h1M23 24h5M32 24h2M19 25h1M22 25h3M26 25h3M31 25h3M20 26h4M27 26h4M33 26h1M19 27h6M26 27h7M19 28h13M20 29h11M22 30h7M18 32h1M19 33h2M30 33h1M20 34h2M29 34h2M19 35h4M19 36h10M31 36h1M19 37h13M20 38h1M23 38h5M30 38h1" />
	<path stroke="#fffdfb" d="M33 16h2M27 35h1M29 35h2" />
	<path stroke="#d3426a" d="M20 17h2M29 17h2" />
	<path stroke="#63b55c" d="M20 22h2M29 22h2M19 23h1M22 23h1M28 23h1M31 23h1M19 24h1M22 24h1M28 24h1M31 24h1M20 25h2M29 25h2" />
	<path stroke="#ffb29d" d="M19 26h1M31 26h2" />
	<path stroke="#fdc3a2" d="M25 26h1M25 27h1" />
	<path stroke="#fccb00" d="M13 27h2M13 28h2" />
</svg>