<svg xmlns="http://www.w3.org/2000/svg" width="512" height="512" fill="none"><path fill="#F90" d="M0 0h512v512H0z"/><path fill="#2D2D2D" d="M84 340h344v160H84z"/><g><animateTransform attributeName="transform" dur="0.4s" keyTimes="0;0.5;1" repeatCount="indefinite" type="translate" values="0 0;0 28;0 0"/><path fill="#E3E3E3" d="M196 176h120v296H196z"/><path fill="#2D2D2D" d="M196 96h120v80H196z"/><path fill="#E3E3E3" d="M250 96h12v36h-12z"><animate attributeName="fill" begin="5s" dur="0.4s" repeatCount="5" values="#E3E3E3; #fff; #E3E3E3"/></path><path fill="#121212" d="m208.24 129.465 22.691-27.102-59.817-48.908L120 104.569l38.024 38.023 21.817-21.817-17.766 1.559-16.83-16.83 23.064-23.064 39.931 47.025ZM301.896 129.465l-22.69-27.102 59.817-48.908 51.114 51.114-38.024 38.023-21.817-21.817 17.765 1.559 16.831-16.83-23.064-23.064-39.932 47.025Z"/><path fill="#121212" d="M204 179h47v48h-47v-48Z"/><path stroke="#121212" stroke-width="6" d="M204 179h47v48h-47v-48Zm0 0h-8M251 188h10"/><path fill="#121212" d="M308 179h-47v48h47v-48Z"/><path stroke="#121212" stroke-width="6" d="M308 179h-47v48h47v-48Zm0 0h8"/><mask id="a" width="41" height="42" x="207" y="182" maskUnits="userSpaceOnUse" style="mask-type:alpha"><path fill="#121212" d="M207 182h41v42h-41v-42Z"/></mask><g mask="url(#a)"><path fill="#FFF" d="M215.112 182h8.77l-10.524 43.235h-8.77L215.112 182Z"><animateTransform attributeName="transform" dur="4s" keyTimes="0;0.1;0.3;1" repeatCount="indefinite" type="translate" values="-32 0;-32 0;48 0;48 0"/></path></g><mask id="b" width="41" height="42" x="264" y="182" maskUnits="userSpaceOnUse" style="mask-type:alpha"><path fill="#121212" d="M264 182h41v42h-41v-42Z"/></mask><g mask="url(#b)"><path fill="#FFF" d="M271.112 182h8.77l-10.524 43.235h-8.77L271.112 182Z"><animateTransform attributeName="transform" dur="4s" keyTimes="0;0.1;0.3;1" repeatCount="indefinite" type="translate" values="-32 0;-32 0;48 0;48 0"/></path></g><path fill="#fff" d="M298.785 326.892 220 313s-6.946 39.392 32.474 46.343c39.421 6.951 46.311-32.451 46.311-32.451Z"/></g></svg>