<svg height="320" shape-rendering="crispEdges" viewBox="0 0 320 320" width="320" xmlns="http://www.w3.org/2000/svg"><rect fill="#e1d7d5" height="100%" width="100%"/><g fill="#63a0f9"><path d="m90 210h140v10h-140z"/><path d="m90 220h140v10h-140z"/><path d="m90 230h140v10h-140z"/><path d="m90 240h140v10h-140z"/><path d="m90 250h20v10h-20z"/><path d="m120 250h110v10h-110z"/><path d="m90 260h20v10h-20z"/><path d="m120 260h110v10h-110z"/><path d="m90 270h20v10h-20z"/><path d="m120 270h110v10h-110z"/><path d="m90 280h20v10h-20z"/><path d="m120 280h110v10h-110z"/><path d="m90 290h20v10h-20z"/><path d="m120 290h110v10h-110z"/><path d="m90 300h20v10h-20z"/><path d="m120 300h110v10h-110z"/><path d="m90 310h20v10h-20z"/><path d="m120 310h110v10h-110z"/></g><path d="m120 240h20v10h-20z"/><path d="m160 240h10v10h-10z"/><path d="m190 240h10v10h-10z"/><path d="m120 250h10v10h-10z"/><path d="m140 250h20v10h-20z"/><path d="m170 250h20v10h-20z"/><path d="m200 250h10v10h-10z"/><path d="m120 260h10v10h-10z"/><path d="m140 260h50v10h-50z"/><path d="m200 260h10v10h-10z"/><path d="m120 270h20v10h-20z"/><path d="m150 270h10v10h-10z"/><path d="m170 270h10v10h-10z"/><path d="m190 270h10v10h-10z"/><path d="m80 60h60v10h-60z" fill="#7e5243"/><path d="m170 60h20v10h-20z" fill="#7e5243"/><path d="m80 70h60v10h-60z" fill="#7e5243"/><path d="m140 70h20v10h-20z" fill="#5a423f"/><path d="m170 70h10v10h-10z" fill="#7e5243"/><path d="m180 70h10v10h-10z" fill="#a86f60"/><path d="m80 80h70v10h-70z" fill="#7e5243"/><path d="m150 80h20v10h-20z" fill="#5a423f"/><path d="m170 80h10v10h-10z" fill="#7e5243"/><path d="m180 80h10v10h-10z" fill="#a86f60"/><path d="m80 90h80v10h-80z" fill="#7e5243"/><path d="m160 90h10v10h-10z" fill="#5a423f"/><path d="m170 90h10v10h-10z" fill="#7e5243"/><path d="m180 90h10v10h-10z" fill="#a86f60"/><path d="m80 100h110v10h-110z" fill="#7e5243"/><path d="m80 110h110v10h-110z" fill="#7e5243"/><path d="m80 120h110v10h-110z" fill="#7e5243"/><path d="m70 130h130v10h-130z" fill="#7e5243"/><path d="m70 140h140v10h-140z" fill="#7e5243"/><path d="m70 150h200v10h-200z" fill="#7e5243"/><path d="m70 160h210v10h-210z" fill="#7e5243"/><path d="m70 170h210v10h-210z" fill="#7e5243"/><path d="m70 180h40v10h-40z" fill="#7e5243"/><path d="m110 180h30v10h-30z" fill="#ffc110"/><path d="m140 180h140v10h-140z" fill="#7e5243"/><path d="m70 190h210v10h-210z" fill="#7e5243"/><path d="m80 200h190v10h-190z" fill="#cd916d"/><path d="m100 110h60v10h-60z" fill="#fe500c"/><path d="m170 110h60v10h-60z" fill="#fe500c"/><path d="m100 120h10v10h-10z" fill="#fe500c"/><path d="m110 120h20v10h-20z" fill="#fff"/><path d="m130 120h20v10h-20z"/><path d="m150 120h10v10h-10z" fill="#fe500c"/><path d="m170 120h10v10h-10z" fill="#fe500c"/><path d="m180 120h20v10h-20z" fill="#fff"/><path d="m200 120h20v10h-20z"/><path d="m220 120h10v10h-10z" fill="#fe500c"/><path d="m70 130h40v10h-40z" fill="#fe500c"/><path d="m110 130h20v10h-20z" fill="#fff"/><path d="m130 130h20v10h-20z"/><path d="m150 130h30v10h-30z" fill="#fe500c"/><path d="m180 130h20v10h-20z" fill="#fff"/><path d="m200 130h20v10h-20z"/><path d="m220 130h10v10h-10z" fill="#fe500c"/><path d="m70 140h10v10h-10z" fill="#fe500c"/><path d="m100 140h10v10h-10z" fill="#fe500c"/><path d="m110 140h20v10h-20z" fill="#fff"/><path d="m130 140h20v10h-20z"/><path d="m150 140h10v10h-10z" fill="#fe500c"/><path d="m170 140h10v10h-10z" fill="#fe500c"/><path d="m180 140h20v10h-20z" fill="#fff"/><path d="m200 140h20v10h-20z"/><path d="m220 140h10v10h-10z" fill="#fe500c"/><path d="m70 150h10v10h-10z" fill="#fe500c"/><path d="m100 150h10v10h-10z" fill="#fe500c"/><path d="m110 150h20v10h-20z" fill="#fff"/><path d="m130 150h20v10h-20z"/><path d="m150 150h10v10h-10z" fill="#fe500c"/><path d="m170 150h10v10h-10z" fill="#fe500c"/><path d="m180 150h20v10h-20z" fill="#fff"/><path d="m200 150h20v10h-20z"/><path d="m220 150h10v10h-10z" fill="#fe500c"/><path d="m100 160h60v10h-60z" fill="#fe500c"/><path d="m170 160h60v10h-60z" fill="#fe500c"/></svg>