<svg height="320" shape-rendering="crispEdges" viewBox="0 0 320 320" width="320" xmlns="http://www.w3.org/2000/svg"><rect fill="#d5d7e1" height="100%" width="100%"/><g fill="#c5b9a1"><path d="m90 210h140v10h-140z"/><path d="m90 220h140v10h-140z"/><path d="m90 230h140v10h-140z"/><path d="m90 240h140v10h-140z"/><path d="m90 250h20v10h-20z"/><path d="m120 250h110v10h-110z"/><path d="m90 260h20v10h-20z"/><path d="m120 260h110v10h-110z"/><path d="m90 270h20v10h-20z"/><path d="m120 270h110v10h-110z"/><path d="m90 280h20v10h-20z"/><path d="m120 280h110v10h-110z"/><path d="m90 290h20v10h-20z"/><path d="m120 290h110v10h-110z"/><path d="m90 300h20v10h-20z"/><path d="m120 300h110v10h-110z"/><path d="m90 310h20v10h-20z"/><path d="m120 310h110v10h-110z"/></g><path d="m160 240h40v10h-40z" fill="#0b5027"/><path d="m150 250h50v10h-50z" fill="#0b5027"/><path d="m150 260h50v10h-50z" fill="#0b5027"/><path d="m150 270h50v10h-50z" fill="#0b5027"/><path d="m150 280h40v10h-40z" fill="#0b5027"/><path d="m130 290h20v10h-20z" fill="#0b5027"/><path d="m140 40h120v10h-120z" fill="#d22209"/><path d="m130 50h130v10h-130z" fill="#d22209"/><path d="m120 60h30v10h-30z" fill="#d22209"/><path d="m150 60h110v10h-110z" fill="#fe500c"/><path d="m110 70h40v10h-40z" fill="#d22209"/><path d="m150 70h110v10h-110z" fill="#fe500c"/><path d="m100 80h20v10h-20z" fill="#d22209"/><path d="m120 80h30v10h-30z" fill="#fe500c"/><path d="m150 80h110v10h-110z" fill="#ffc925"/><path d="m90 90h30v10h-30z" fill="#d22209"/><path d="m120 90h30v10h-30z" fill="#fe500c"/><path d="m150 90h110v10h-110z" fill="#ffc925"/><path d="m80 100h10v10h-10z" fill="#d22209"/><path d="m90 100h30v10h-30z" fill="#fe500c"/><path d="m120 100h30v10h-30z" fill="#ffc925"/><path d="m150 100h110v10h-110z" fill="#068940"/><path d="m70 110h20v10h-20z" fill="#d22209"/><path d="m90 110h30v10h-30z" fill="#fe500c"/><path d="m120 110h30v10h-30z" fill="#ffc925"/><path d="m150 110h110v10h-110z" fill="#068940"/><path d="m60 120h30v10h-30z" fill="#d22209"/><path d="m90 120h30v10h-30z" fill="#fe500c"/><path d="m120 120h30v10h-30z" fill="#ffc925"/><path d="m150 120h30v10h-30z" fill="#068940"/><path d="m180 120h80v10h-80z" fill="#00499c"/><path d="m60 130h30v10h-30z" fill="#d22209"/><path d="m90 130h30v10h-30z" fill="#fe500c"/><path d="m120 130h30v10h-30z" fill="#ffc925"/><path d="m150 130h30v10h-30z" fill="#068940"/><path d="m180 130h80v10h-80z" fill="#00499c"/><path d="m60 140h30v10h-30z" fill="#d22209"/><path d="m90 140h30v10h-30z" fill="#fe500c"/><path d="m120 140h30v10h-30z" fill="#ffc925"/><path d="m150 140h30v10h-30z" fill="#068940"/><path d="m180 140h30v10h-30z" fill="#00499c"/><path d="m210 140h50v10h-50z" fill="#9f21a0"/><path d="m60 150h30v10h-30z" fill="#d22209"/><path d="m90 150h30v10h-30z" fill="#fe500c"/><path d="m120 150h30v10h-30z" fill="#ffc925"/><path d="m150 150h30v10h-30z" fill="#068940"/><path d="m180 150h30v10h-30z" fill="#00499c"/><path d="m210 150h50v10h-50z" fill="#9f21a0"/><path d="m60 160h30v10h-30z" fill="#d22209"/><path d="m90 160h30v10h-30z" fill="#fe500c"/><path d="m120 160h30v10h-30z" fill="#ffc925"/><path d="m150 160h30v10h-30z" fill="#068940"/><path d="m180 160h30v10h-30z" fill="#00499c"/><path d="m210 160h30v10h-30z" fill="#9f21a0"/><path d="m60 170h30v10h-30z" fill="#d22209"/><path d="m90 170h30v10h-30z" fill="#fe500c"/><path d="m120 170h30v10h-30z" fill="#ffc925"/><path d="m150 170h30v10h-30z" fill="#068940"/><path d="m180 170h30v10h-30z" fill="#00499c"/><path d="m210 170h30v10h-30z" fill="#9f21a0"/><path d="m60 180h30v10h-30z" fill="#d22209"/><path d="m90 180h30v10h-30z" fill="#fe500c"/><path d="m120 180h30v10h-30z" fill="#ffc925"/><path d="m150 180h30v10h-30z" fill="#068940"/><path d="m180 180h30v10h-30z"/><path d="m210 180h30v10h-30z" fill="#9f21a0"/><path d="m60 190h30v10h-30z" fill="#d22209"/><path d="m90 190h30v10h-30z" fill="#fe500c"/><path d="m120 190h30v10h-30z" fill="#ffc925"/><path d="m150 190h30v10h-30z" fill="#068940"/><path d="m180 190h30v10h-30z" fill="#00499c"/><path d="m210 190h30v10h-30z" fill="#9f21a0"/><path d="m60 200h30v10h-30z" fill="#d22209"/><path d="m90 200h30v10h-30z" fill="#fe500c"/><path d="m120 200h30v10h-30z" fill="#ffc925"/><path d="m150 200h30v10h-30z" fill="#068940"/><path d="m180 200h30v10h-30z" fill="#00499c"/><path d="m210 200h30v10h-30z" fill="#9f21a0"/><path d="m100 110h60v10h-60z" fill="#4bea69"/><path d="m170 110h60v10h-60z" fill="#4bea69"/><path d="m100 120h10v10h-10z" fill="#4bea69"/><path d="m110 120h20v10h-20z" fill="#fff"/><path d="m130 120h20v10h-20z"/><path d="m150 120h10v10h-10z" fill="#4bea69"/><path d="m170 120h10v10h-10z" fill="#4bea69"/><path d="m180 120h20v10h-20z" fill="#fff"/><path d="m200 120h20v10h-20z"/><path d="m220 120h10v10h-10z" fill="#4bea69"/><path d="m70 130h40v10h-40z" fill="#4bea69"/><path d="m110 130h20v10h-20z" fill="#fff"/><path d="m130 130h20v10h-20z"/><path d="m150 130h30v10h-30z" fill="#4bea69"/><path d="m180 130h20v10h-20z" fill="#fff"/><path d="m200 130h20v10h-20z"/><path d="m220 130h10v10h-10z" fill="#4bea69"/><path d="m70 140h10v10h-10z" fill="#4bea69"/><path d="m100 140h10v10h-10z" fill="#4bea69"/><path d="m110 140h20v10h-20z" fill="#fff"/><path d="m130 140h20v10h-20z"/><path d="m150 140h10v10h-10z" fill="#4bea69"/><path d="m170 140h10v10h-10z" fill="#4bea69"/><path d="m180 140h20v10h-20z" fill="#fff"/><path d="m200 140h20v10h-20z"/><path d="m220 140h10v10h-10z" fill="#4bea69"/><path d="m70 150h10v10h-10z" fill="#4bea69"/><path d="m100 150h10v10h-10z" fill="#4bea69"/><path d="m110 150h20v10h-20z" fill="#fff"/><path d="m130 150h20v10h-20z"/><path d="m150 150h10v10h-10z" fill="#4bea69"/><path d="m170 150h10v10h-10z" fill="#4bea69"/><path d="m180 150h20v10h-20z" fill="#fff"/><path d="m200 150h20v10h-20z"/><path d="m220 150h10v10h-10z" fill="#4bea69"/><path d="m100 160h60v10h-60z" fill="#4bea69"/><path d="m170 160h60v10h-60z" fill="#4bea69"/></svg>