<svg xmlns="http://www.w3.org/2000/svg" width="100%" height="100%" style="background-color:#232323"  viewBox="-360 -360 720 720"><defs><linearGradient id="comp1" x1="0" y1="0" x2="100%" y2="0"><stop offset="0" stop-color="hsl(216, 66%, 49%)"><animate attributeName="stop-color" values="hsl(216, 66%, 49%); hsl(306, 66%, 49%); hsl(36, 66%, 49%); hsl(126, 66%, 49%); hsl(216, 66%, 49%);" dur="8s" repeatCount="indefinite"></animate></stop><stop offset="50" stop-color="hsl(216, 66%, 49%)"><animate attributeName="stop-color" values="hsl(306, 66%, 49%); hsl(36, 66%, 49%); hsl(126, 66%, 49%); hsl(216, 66%, 49%); hsl(306, 66%, 49%);" dur="8s" repeatCount="indefinite"></animate></stop></linearGradient><linearGradient id="comp2" x1="0" y1="0" x2="100%" y2="0"><stop offset="0" stop-color="hsl(216, 66%, 49%)"><animate attributeName="stop-color" values="hsl(306, 66%, 49%); hsl(36, 66%, 49%); hsl(126, 66%, 49%); hsl(216, 66%, 49%); hsl(306, 66%, 49%);" dur="8s" repeatCount="indefinite"></animate></stop><stop offset="50" stop-color="hsl(216, 66%, 49%)"><animate attributeName="stop-color" values="hsl(36, 66%, 49%); hsl(126, 66%, 49%); hsl(216, 66%, 49%); hsl(306, 66%, 49%); hsl(36, 66%, 49%);" dur="8s" repeatCount="indefinite"></animate></stop></linearGradient><linearGradient id="comp3" x1="0" y1="0" x2="100%" y2="0"><stop offset="0" stop-color="hsl(306, 66%, 49%)"><animate attributeName="stop-color" values="hsl(36, 66%, 49%); hsl(126, 66%, 49%); hsl(216, 66%, 49%); hsl(306, 66%, 49%); hsl(36, 66%, 49%);" dur="8s" repeatCount="indefinite"></animate></stop><stop offset="50" stop-color="hsl(306, 66%, 49%)"><animate attributeName="stop-color" values="hsl(126, 66%, 49%); hsl(216, 66%, 49%); hsl(306, 66%, 49%); hsl(36, 66%, 49%); hsl(126, 66%, 49%);" dur="8s" repeatCount="indefinite"></animate></stop></linearGradient><linearGradient id="comp4" x1="0" y1="0" x2="100%" y2="0"><stop offset="0" stop-color="hsl(36, 66%, 49%)"><animate attributeName="stop-color" values="hsl(126, 66%, 49%); hsl(216, 66%, 49%); hsl(306, 66%, 49%); hsl(36, 66%, 49%); hsl(126, 66%, 49%);" dur="8s" repeatCount="indefinite"></animate></stop><stop offset="50" stop-color="hsl(36, 66%, 49%)"><animate attributeName="stop-color" values="hsl(36, 66%, 49%); hsl(306, 66%, 49%); hsl(126, 66%, 49%); hsl(216, 66%, 49%); hsl(36, 66%, 49%);" dur="8s" repeatCount="indefinite"></animate></stop></linearGradient><linearGradient id="comp5" x1="0" y1="0" x2="100%" y2="0"><stop offset="0" stop-color="hsl(126, 66%, 49%)"><animate attributeName="stop-color" values="hsl(36, 66%, 49%); hsl(306, 66%, 49%); hsl(126, 66%, 49%); hsl(216, 66%, 49%); hsl(36, 66%, 49%);" dur="8s" repeatCount="indefinite"></animate></stop><stop offset="50" stop-color="hsl(126, 66%, 49%)"><animate attributeName="stop-color" values="hsl(216, 66%, 49%); hsl(306, 66%, 49%); hsl(36, 66%, 49%); hsl(126, 66%, 49%); hsl(216, 66%, 49%);" dur="8s" repeatCount="indefinite"></animate></stop></linearGradient></defs><g><g><path class="loop-1-0" d="
                M  0 -181.6180339887499 
                a  2.6180339887498922 2.6180339887498922  180  1 1  0 5.2360679774997845
                a  2.6180339887498922 2.6180339887498922  180  1 1  0 -5.2360679774997845" fill="none" stroke="url(#comp1)" id="loop-1-0"></path><path class="loop-1-1" d="
                M  0 -183.2360679774998 
                a  5.2360679774997845 5.2360679774997845  180  1 1  0 10.472135954999569
                a  5.2360679774997845 5.2360679774997845  180  1 1  0 -10.472135954999569" fill="none" stroke="url(#comp2)" id="loop-1-1"></path><path class="loop-1-2" d="
                M  0 -184.8541019662497 
                a  7.854101966249677 7.854101966249677  180  1 1  0 15.708203932499353
                a  7.854101966249677 7.854101966249677  180  1 1  0 -15.708203932499353" fill="none" stroke="url(#comp3)" id="loop-1-2"></path><path class="loop-1-3" d="
                M  0 -186.47213595499957 
                a  10.472135954999569 10.472135954999569  180  1 1  0 20.944271909999138
                a  10.472135954999569 10.472135954999569  180  1 1  0 -20.944271909999138" fill="none" stroke="url(#comp4)" id="loop-1-3"></path><path class="loop-1-4" d="
                M  0 -188.09016994374946 
                a  13.090169943749459 13.090169943749459  180  1 1  0 26.180339887498917
                a  13.090169943749459 13.090169943749459  180  1 1  0 -26.180339887498917" fill="none" stroke="url(#comp1)" id="loop-1-4"></path><path class="loop-1-5" d="
                M  0 -189.70820393249937 
                a  15.708203932499353 15.708203932499353  180  1 1  0 31.416407864998707
                a  15.708203932499353 15.708203932499353  180  1 1  0 -31.416407864998707" fill="none" stroke="url(#comp2)" id="loop-1-5"></path><path class="loop-1-6" d="
                M  0 -191.32623792124926 
                a  18.326237921249245 18.326237921249245  180  1 1  0 36.65247584249849
                a  18.326237921249245 18.326237921249245  180  1 1  0 -36.65247584249849" fill="none" stroke="url(#comp3)" id="loop-1-6"></path><path class="loop-1-7" d="
                M  0 -192.94427190999915 
                a  20.944271909999138 20.944271909999138  180  1 1  0 41.888543819998276
                a  20.944271909999138 20.944271909999138  180  1 1  0 -41.888543819998276" fill="none" stroke="url(#comp4)" id="loop-1-7"></path><path class="loop-1-8" d="
                M  0 -194.56230589874906 
                a  23.562305898749027 23.562305898749027  180  1 1  0 47.124611797498055
                a  23.562305898749027 23.562305898749027  180  1 1  0 -47.124611797498055" fill="none" stroke="url(#comp1)" id="loop-1-8"></path><path class="loop-1-9" d="
                M  0 -196.18033988749895 
                a  26.180339887498917 26.180339887498917  180  1 1  0 52.360679774997834
                a  26.180339887498917 26.180339887498917  180  1 1  0 -52.360679774997834" fill="none" stroke="url(#comp2)" id="loop-1-9"></path><path class="loop-1-10" d="
                M  0 -197.79837387624883 
                a  28.798373876248814 28.798373876248814  180  1 1  0 57.59674775249763
                a  28.798373876248814 28.798373876248814  180  1 1  0 -57.59674775249763" fill="none" stroke="url(#comp3)" id="loop-1-10"></path><path class="loop-1-11" d="
                M  0 -199.41640786499872 
                a  31.416407864998707 31.416407864998707  180  1 1  0 62.832815729997414
                a  31.416407864998707 31.416407864998707  180  1 1  0 -62.832815729997414" fill="none" stroke="url(#comp4)" id="loop-1-11"></path><path class="loop-1-12" d="
                M  0 -201.03444185374863 
                a  34.034441853748596 34.034441853748596  180  1 1  0 68.06888370749719
                a  34.034441853748596 34.034441853748596  180  1 1  0 -68.06888370749719" fill="none" stroke="url(#comp1)" id="loop-1-12"></path><path class="loop-1-13" d="
                M  0 -202.65247584249852 
                a  36.65247584249849 36.65247584249849  180  1 1  0 73.30495168499698
                a  36.65247584249849 36.65247584249849  180  1 1  0 -73.30495168499698" fill="none" stroke="url(#comp2)" id="loop-1-13"></path><path class="loop-1-14" d="
                M  0 -204.2705098312484 
                a  39.27050983124838 39.27050983124838  180  1 1  0 78.54101966249677
                a  39.27050983124838 39.27050983124838  180  1 1  0 -78.54101966249677" fill="none" stroke="url(#comp3)" id="loop-1-14"></path><path class="loop-1-15" d="
                M  0 -205.8885438199983 
                a  41.888543819998276 41.888543819998276  180  1 1  0 83.77708763999655
                a  41.888543819998276 41.888543819998276  180  1 1  0 -83.77708763999655" fill="none" stroke="url(#comp4)" id="loop-1-15"></path><path class="loop-1-16" d="
                M  0 -207.5065778087482 
                a  44.50657780874816 44.50657780874816  180  1 1  0 89.01315561749632
                a  44.50657780874816 44.50657780874816  180  1 1  0 -89.01315561749632" fill="none" stroke="url(#comp1)" id="loop-1-16"></path><path class="loop-1-17" d="
                M  0 -209.1246117974981 
                a  47.124611797498055 47.124611797498055  180  1 1  0 94.24922359499611
                a  47.124611797498055 47.124611797498055  180  1 1  0 -94.24922359499611" fill="none" stroke="url(#comp2)" id="loop-1-17"></path><path class="loop-1-18" d="
                M  0 -210.74264578624798 
                a  49.742645786247955 49.742645786247955  180  1 1  0 99.48529157249591
                a  49.742645786247955 49.742645786247955  180  1 1  0 -99.48529157249591" fill="none" stroke="url(#comp3)" id="loop-1-18"></path><path class="loop-1-19" d="
                M  0 -212.3606797749979 
                a  52.360679774997834 52.360679774997834  180  1 1  0 104.72135954999567
                a  52.360679774997834 52.360679774997834  180  1 1  0 -104.72135954999567" fill="none" stroke="url(#comp4)" id="loop-1-19"></path><path class="loop-1-20" d="
                M  0 -213.97871376374778 
                a  54.97871376374774 54.97871376374774  180  1 1  0 109.95742752749548
                a  54.97871376374774 54.97871376374774  180  1 1  0 -109.95742752749548" fill="none" stroke="url(#comp1)" id="loop-1-20"></path><path class="loop-1-21" d="
                M  0 -215.59674775249766 
                a  57.59674775249763 57.59674775249763  180  1 1  0 115.19349550499525
                a  57.59674775249763 57.59674775249763  180  1 1  0 -115.19349550499525" fill="none" stroke="url(#comp2)" id="loop-1-21"></path><path class="loop-1-22" d="
                M  0 -217.21478174124758 
                a  60.21478174124752 60.21478174124752  180  1 1  0 120.42956348249504
                a  60.21478174124752 60.21478174124752  180  1 1  0 -120.42956348249504" fill="none" stroke="url(#comp3)" id="loop-1-22"></path><path class="loop-1-23" d="
                M  0 -218.83281572999746 
                a  62.832815729997414 62.832815729997414  180  1 1  0 125.66563145999483
                a  62.832815729997414 62.832815729997414  180  1 1  0 -125.66563145999483" fill="none" stroke="url(#comp4)" id="loop-1-23"></path><path class="loop-1-24" d="
                M  0 -220.45084971874735 
                a  65.4508497187473 65.4508497187473  180  1 1  0 130.9016994374946
                a  65.4508497187473 65.4508497187473  180  1 1  0 -130.9016994374946" fill="none" stroke="url(#comp1)" id="loop-1-24"></path><path class="loop-1-25" d="
                M  0 -222.06888370749724 
                a  68.06888370749719 68.06888370749719  180  1 1  0 136.13776741499439
                a  68.06888370749719 68.06888370749719  180  1 1  0 -136.13776741499439" fill="none" stroke="url(#comp2)" id="loop-1-25"></path><path class="loop-1-26" d="
                M  0 -223.68691769624712 
                a  70.68691769624708 70.68691769624708  180  1 1  0 141.37383539249416
                a  70.68691769624708 70.68691769624708  180  1 1  0 -141.37383539249416" fill="none" stroke="url(#comp3)" id="loop-1-26"></path><path class="loop-1-27" d="
                M  0 -225.30495168499704 
                a  73.30495168499698 73.30495168499698  180  1 1  0 146.60990336999396
                a  73.30495168499698 73.30495168499698  180  1 1  0 -146.60990336999396" fill="none" stroke="url(#comp4)" id="loop-1-27"></path><path class="loop-1-28" d="
                M  0 -226.92298567374692 
                a  75.92298567374688 75.92298567374688  180  1 1  0 151.84597134749376
                a  75.92298567374688 75.92298567374688  180  1 1  0 -151.84597134749376" fill="none" stroke="url(#comp1)" id="loop-1-28"></path><path class="loop-1-29" d="
                M  0 -228.5410196624968 
                a  78.54101966249677 78.54101966249677  180  1 1  0 157.08203932499353
                a  78.54101966249677 78.54101966249677  180  1 1  0 -157.08203932499353" fill="none" stroke="url(#comp2)" id="loop-1-29"></path><path class="loop-1-30" d="
                M  0 -230.15905365124672 
                a  81.15905365124665 81.15905365124665  180  1 1  0 162.3181073024933
                a  81.15905365124665 81.15905365124665  180  1 1  0 -162.3181073024933" fill="none" stroke="url(#comp3)" id="loop-1-30"></path><path class="loop-1-31" d="
                M  0 -231.7770876399966 
                a  83.77708763999655 83.77708763999655  180  1 1  0 167.5541752799931
                a  83.77708763999655 83.77708763999655  180  1 1  0 -167.5541752799931" fill="none" stroke="url(#comp4)" id="loop-1-31"></path><path class="loop-1-32" d="
                M  0 -233.3951216287465 
                a  86.39512162874644 86.39512162874644  180  1 1  0 172.79024325749288
                a  86.39512162874644 86.39512162874644  180  1 1  0 -172.79024325749288" fill="none" stroke="url(#comp1)" id="loop-1-32"></path><path class="loop-1-33" d="
                M  0 -235.0131556174964 
                a  89.01315561749632 89.01315561749632  180  1 1  0 178.02631123499265
                a  89.01315561749632 89.01315561749632  180  1 1  0 -178.02631123499265" fill="none" stroke="url(#comp2)" id="loop-1-33"></path><path class="loop-1-34" d="
                M  0 -236.6311896062463 
                a  91.63118960624622 91.63118960624622  180  1 1  0 183.26237921249245
                a  91.63118960624622 91.63118960624622  180  1 1  0 -183.26237921249245" fill="none" stroke="url(#comp3)" id="loop-1-34"></path><path class="loop-1-35" d="
                M  0 -238.24922359499618 
                a  94.24922359499611 94.24922359499611  180  1 1  0 188.49844718999222
                a  94.24922359499611 94.24922359499611  180  1 1  0 -188.49844718999222" fill="none" stroke="url(#comp4)" id="loop-1-35"></path><path class="loop-1-36" d="
                M  0 -239.8672575837461 
                a  96.86725758374601 96.86725758374601  180  1 1  0 193.73451516749202
                a  96.86725758374601 96.86725758374601  180  1 1  0 -193.73451516749202" fill="none" stroke="url(#comp1)" id="loop-1-36"></path><path class="loop-1-37" d="
                M  0 -241.48529157249598 
                a  99.48529157249591 99.48529157249591  180  1 1  0 198.97058314499182
                a  99.48529157249591 99.48529157249591  180  1 1  0 -198.97058314499182" fill="none" stroke="url(#comp2)" id="loop-1-37"></path><path class="loop-1-38" d="
                M  0 -243.10332556124587 
                a  102.1033255612458 102.1033255612458  180  1 1  0 204.2066511224916
                a  102.1033255612458 102.1033255612458  180  1 1  0 -204.2066511224916" fill="none" stroke="url(#comp3)" id="loop-1-38"></path><path class="loop-1-39" d="
                M  0 -244.72135954999575 
                a  104.72135954999567 104.72135954999567  180  1 1  0 209.44271909999134
                a  104.72135954999567 104.72135954999567  180  1 1  0 -209.44271909999134" fill="none" stroke="url(#comp4)" id="loop-1-39"></path><path class="loop-1-40" d="
                M  0 -246.33939353874564 
                a  107.33939353874558 107.33939353874558  180  1 1  0 214.67878707749117
                a  107.33939353874558 107.33939353874558  180  1 1  0 -214.67878707749117" fill="none" stroke="url(#comp1)" id="loop-1-40"></path><path class="loop-1-41" d="
                M  0 -247.95742752749555 
                a  109.95742752749548 109.95742752749548  180  1 1  0 219.91485505499097
                a  109.95742752749548 109.95742752749548  180  1 1  0 -219.91485505499097" fill="none" stroke="url(#comp2)" id="loop-1-41"></path><path class="loop-1-42" d="
                M  0 -249.57546151624544 
                a  112.57546151624535 112.57546151624535  180  1 1  0 225.1509230324907
                a  112.57546151624535 112.57546151624535  180  1 1  0 -225.1509230324907" fill="none" stroke="url(#comp3)" id="loop-1-42"></path><path class="loop-1-43" d="
                M  0 -251.19349550499533 
                a  115.19349550499525 115.19349550499525  180  1 1  0 230.3869910099905
                a  115.19349550499525 115.19349550499525  180  1 1  0 -230.3869910099905" fill="none" stroke="url(#comp4)" id="loop-1-43"></path><path class="loop-1-44" d="
                M  0 -252.81152949374524 
                a  117.81152949374514 117.81152949374514  180  1 1  0 235.62305898749028
                a  117.81152949374514 117.81152949374514  180  1 1  0 -235.62305898749028" fill="none" stroke="url(#comp1)" id="loop-1-44"></path><path class="loop-1-45" d="
                M  0 -254.42956348249513 
                a  120.42956348249504 120.42956348249504  180  1 1  0 240.85912696499008
                a  120.42956348249504 120.42956348249504  180  1 1  0 -240.85912696499008" fill="none" stroke="url(#comp2)" id="loop-1-45"></path><path class="loop-1-46" d="
                M  0 -256.047597471245 
                a  123.04759747124493 123.04759747124493  180  1 1  0 246.09519494248985
                a  123.04759747124493 123.04759747124493  180  1 1  0 -246.09519494248985" fill="none" stroke="url(#comp3)" id="loop-1-46"></path><path class="loop-1-47" d="
                M  0 -257.6656314599949 
                a  125.66563145999483 125.66563145999483  180  1 1  0 251.33126291998965
                a  125.66563145999483 125.66563145999483  180  1 1  0 -251.33126291998965" fill="none" stroke="url(#comp4)" id="loop-1-47"></path><path class="loop-1-48" d="
                M  0 -259.28366544874484 
                a  128.28366544874473 128.28366544874473  180  1 1  0 256.56733089748946
                a  128.28366544874473 128.28366544874473  180  1 1  0 -256.56733089748946" fill="none" stroke="url(#comp1)" id="loop-1-48"></path><path class="loop-1-49" d="
                M  0 -260.9016994374947 
                a  130.9016994374946 130.9016994374946  180  1 1  0 261.8033988749892
                a  130.9016994374946 130.9016994374946  180  1 1  0 -261.8033988749892" fill="none" stroke="url(#comp2)" id="loop-1-49"></path><path class="loop-1-50" d="
                M  0 -262.5197334262446 
                a  133.5197334262445 133.5197334262445  180  1 1  0 267.039466852489
                a  133.5197334262445 133.5197334262445  180  1 1  0 -267.039466852489" fill="none" stroke="url(#comp3)" id="loop-1-50"></path><path class="loop-1-51" d="
                M  0 -264.13776741499447 
                a  136.13776741499439 136.13776741499439  180  1 1  0 272.27553482998877
                a  136.13776741499439 136.13776741499439  180  1 1  0 -272.27553482998877" fill="none" stroke="url(#comp4)" id="loop-1-51"></path><path class="loop-1-52" d="
                M  0 -265.7558014037444 
                a  138.7558014037443 138.7558014037443  180  1 1  0 277.5116028074886
                a  138.7558014037443 138.7558014037443  180  1 1  0 -277.5116028074886" fill="none" stroke="url(#comp1)" id="loop-1-52"></path><path class="loop-1-53" d="
                M  0 -267.37383539249424 
                a  141.37383539249416 141.37383539249416  180  1 1  0 282.7476707849883
                a  141.37383539249416 141.37383539249416  180  1 1  0 -282.7476707849883" fill="none" stroke="url(#comp2)" id="loop-1-53"></path><path class="loop-1-54" d="
                M  0 -268.99186938124416 
                a  143.99186938124407 143.99186938124407  180  1 1  0 287.98373876248814
                a  143.99186938124407 143.99186938124407  180  1 1  0 -287.98373876248814" fill="none" stroke="url(#comp3)" id="loop-1-54"></path><path class="loop-1-55" d="
                M  0 -270.6099033699941 
                a  146.60990336999396 146.60990336999396  180  1 1  0 293.2198067399879
                a  146.60990336999396 146.60990336999396  180  1 1  0 -293.2198067399879" fill="none" stroke="url(#comp4)" id="loop-1-55"></path><path class="loop-1-56" d="
                M  0 -272.22793735874393 
                a  149.22793735874384 149.22793735874384  180  1 1  0 298.4558747174877
                a  149.22793735874384 149.22793735874384  180  1 1  0 -298.4558747174877" fill="none" stroke="url(#comp1)" id="loop-1-56"></path><path class="loop-1-57" d="
                M  0 -273.84597134749384 
                a  151.84597134749376 151.84597134749376  180  1 1  0 303.6919426949875
                a  151.84597134749376 151.84597134749376  180  1 1  0 -303.6919426949875" fill="none" stroke="url(#comp2)" id="loop-1-57"></path><path class="loop-1-58" d="
                M  0 -275.46400533624376 
                a  154.46400533624364 154.46400533624364  180  1 1  0 308.9280106724873
                a  154.46400533624364 154.46400533624364  180  1 1  0 -308.9280106724873" fill="none" stroke="url(#comp3)" id="loop-1-58"></path><path class="loop-1-59" d="
                M  0 -277.0820393249936 
                a  157.08203932499353 157.08203932499353  180  1 1  0 314.16407864998706
                a  157.08203932499353 157.08203932499353  180  1 1  0 -314.16407864998706" fill="none" stroke="url(#comp4)" id="loop-1-59"></path><path class="loop-1-60" d="
                M  0 -278.70007331374353 
                a  159.70007331374342 159.70007331374342  180  1 1  0 319.40014662748683
                a  159.70007331374342 159.70007331374342  180  1 1  0 -319.40014662748683" fill="none" stroke="url(#comp1)" id="loop-1-60"></path><path class="loop-1-61" d="
                M  0 -280.31810730249344 
                a  162.3181073024933 162.3181073024933  180  1 1  0 324.6362146049866
                a  162.3181073024933 162.3181073024933  180  1 1  0 -324.6362146049866" fill="none" stroke="url(#comp2)" id="loop-1-61"></path><path class="loop-1-62" d="
                M  0 -281.9361412912433 
                a  164.9361412912432 164.9361412912432  180  1 1  0 329.8722825824864
                a  164.9361412912432 164.9361412912432  180  1 1  0 -329.8722825824864" fill="none" stroke="url(#comp3)" id="loop-1-62"></path><path class="loop-1-63" d="
                M  0 -283.5541752799932 
                a  167.5541752799931 167.5541752799931  180  1 1  0 335.1083505599862
                a  167.5541752799931 167.5541752799931  180  1 1  0 -335.1083505599862" fill="none" stroke="url(#comp4)" id="loop-1-63"></path><animateTransform attributeType="xml" attributeName="transform" type="rotate" from="180 0,-115" to="0 0,-115" dur="5s" additive="sum" repeatCount="indefinite"></animateTransform></g><g transform="translate(0 -230) rotate(180 0 0)"><path class="loop-2-0" d="
                M  0 -181.6180339887499 
                a  2.6180339887498922 2.6180339887498922  180  1 1  0 5.2360679774997845
                a  2.6180339887498922 2.6180339887498922  180  1 1  0 -5.2360679774997845" fill="none" stroke="url(#comp1)" id="loop-2-0"></path><path class="loop-2-1" d="
                M  0 -183.2360679774998 
                a  5.2360679774997845 5.2360679774997845  180  1 1  0 10.472135954999569
                a  5.2360679774997845 5.2360679774997845  180  1 1  0 -10.472135954999569" fill="none" stroke="url(#comp2)" id="loop-2-1"></path><path class="loop-2-2" d="
                M  0 -184.8541019662497 
                a  7.854101966249677 7.854101966249677  180  1 1  0 15.708203932499353
                a  7.854101966249677 7.854101966249677  180  1 1  0 -15.708203932499353" fill="none" stroke="url(#comp3)" id="loop-2-2"></path><path class="loop-2-3" d="
                M  0 -186.47213595499957 
                a  10.472135954999569 10.472135954999569  180  1 1  0 20.944271909999138
                a  10.472135954999569 10.472135954999569  180  1 1  0 -20.944271909999138" fill="none" stroke="url(#comp4)" id="loop-2-3"></path><path class="loop-2-4" d="
                M  0 -188.09016994374946 
                a  13.090169943749459 13.090169943749459  180  1 1  0 26.180339887498917
                a  13.090169943749459 13.090169943749459  180  1 1  0 -26.180339887498917" fill="none" stroke="url(#comp1)" id="loop-2-4"></path><path class="loop-2-5" d="
                M  0 -189.70820393249937 
                a  15.708203932499353 15.708203932499353  180  1 1  0 31.416407864998707
                a  15.708203932499353 15.708203932499353  180  1 1  0 -31.416407864998707" fill="none" stroke="url(#comp2)" id="loop-2-5"></path><path class="loop-2-6" d="
                M  0 -191.32623792124926 
                a  18.326237921249245 18.326237921249245  180  1 1  0 36.65247584249849
                a  18.326237921249245 18.326237921249245  180  1 1  0 -36.65247584249849" fill="none" stroke="url(#comp3)" id="loop-2-6"></path><path class="loop-2-7" d="
                M  0 -192.94427190999915 
                a  20.944271909999138 20.944271909999138  180  1 1  0 41.888543819998276
                a  20.944271909999138 20.944271909999138  180  1 1  0 -41.888543819998276" fill="none" stroke="url(#comp4)" id="loop-2-7"></path><path class="loop-2-8" d="
                M  0 -194.56230589874906 
                a  23.562305898749027 23.562305898749027  180  1 1  0 47.124611797498055
                a  23.562305898749027 23.562305898749027  180  1 1  0 -47.124611797498055" fill="none" stroke="url(#comp1)" id="loop-2-8"></path><path class="loop-2-9" d="
                M  0 -196.18033988749895 
                a  26.180339887498917 26.180339887498917  180  1 1  0 52.360679774997834
                a  26.180339887498917 26.180339887498917  180  1 1  0 -52.360679774997834" fill="none" stroke="url(#comp2)" id="loop-2-9"></path><path class="loop-2-10" d="
                M  0 -197.79837387624883 
                a  28.798373876248814 28.798373876248814  180  1 1  0 57.59674775249763
                a  28.798373876248814 28.798373876248814  180  1 1  0 -57.59674775249763" fill="none" stroke="url(#comp3)" id="loop-2-10"></path><path class="loop-2-11" d="
                M  0 -199.41640786499872 
                a  31.416407864998707 31.416407864998707  180  1 1  0 62.832815729997414
                a  31.416407864998707 31.416407864998707  180  1 1  0 -62.832815729997414" fill="none" stroke="url(#comp4)" id="loop-2-11"></path><path class="loop-2-12" d="
                M  0 -201.03444185374863 
                a  34.034441853748596 34.034441853748596  180  1 1  0 68.06888370749719
                a  34.034441853748596 34.034441853748596  180  1 1  0 -68.06888370749719" fill="none" stroke="url(#comp1)" id="loop-2-12"></path><path class="loop-2-13" d="
                M  0 -202.65247584249852 
                a  36.65247584249849 36.65247584249849  180  1 1  0 73.30495168499698
                a  36.65247584249849 36.65247584249849  180  1 1  0 -73.30495168499698" fill="none" stroke="url(#comp2)" id="loop-2-13"></path><path class="loop-2-14" d="
                M  0 -204.2705098312484 
                a  39.27050983124838 39.27050983124838  180  1 1  0 78.54101966249677
                a  39.27050983124838 39.27050983124838  180  1 1  0 -78.54101966249677" fill="none" stroke="url(#comp3)" id="loop-2-14"></path><path class="loop-2-15" d="
                M  0 -205.8885438199983 
                a  41.888543819998276 41.888543819998276  180  1 1  0 83.77708763999655
                a  41.888543819998276 41.888543819998276  180  1 1  0 -83.77708763999655" fill="none" stroke="url(#comp4)" id="loop-2-15"></path><path class="loop-2-16" d="
                M  0 -207.5065778087482 
                a  44.50657780874816 44.50657780874816  180  1 1  0 89.01315561749632
                a  44.50657780874816 44.50657780874816  180  1 1  0 -89.01315561749632" fill="none" stroke="url(#comp1)" id="loop-2-16"></path><path class="loop-2-17" d="
                M  0 -209.1246117974981 
                a  47.124611797498055 47.124611797498055  180  1 1  0 94.24922359499611
                a  47.124611797498055 47.124611797498055  180  1 1  0 -94.24922359499611" fill="none" stroke="url(#comp2)" id="loop-2-17"></path><path class="loop-2-18" d="
                M  0 -210.74264578624798 
                a  49.742645786247955 49.742645786247955  180  1 1  0 99.48529157249591
                a  49.742645786247955 49.742645786247955  180  1 1  0 -99.48529157249591" fill="none" stroke="url(#comp3)" id="loop-2-18"></path><path class="loop-2-19" d="
                M  0 -212.3606797749979 
                a  52.360679774997834 52.360679774997834  180  1 1  0 104.72135954999567
                a  52.360679774997834 52.360679774997834  180  1 1  0 -104.72135954999567" fill="none" stroke="url(#comp4)" id="loop-2-19"></path><path class="loop-2-20" d="
                M  0 -213.97871376374778 
                a  54.97871376374774 54.97871376374774  180  1 1  0 109.95742752749548
                a  54.97871376374774 54.97871376374774  180  1 1  0 -109.95742752749548" fill="none" stroke="url(#comp1)" id="loop-2-20"></path><path class="loop-2-21" d="
                M  0 -215.59674775249766 
                a  57.59674775249763 57.59674775249763  180  1 1  0 115.19349550499525
                a  57.59674775249763 57.59674775249763  180  1 1  0 -115.19349550499525" fill="none" stroke="url(#comp2)" id="loop-2-21"></path><path class="loop-2-22" d="
                M  0 -217.21478174124758 
                a  60.21478174124752 60.21478174124752  180  1 1  0 120.42956348249504
                a  60.21478174124752 60.21478174124752  180  1 1  0 -120.42956348249504" fill="none" stroke="url(#comp3)" id="loop-2-22"></path><path class="loop-2-23" d="
                M  0 -218.83281572999746 
                a  62.832815729997414 62.832815729997414  180  1 1  0 125.66563145999483
                a  62.832815729997414 62.832815729997414  180  1 1  0 -125.66563145999483" fill="none" stroke="url(#comp4)" id="loop-2-23"></path><path class="loop-2-24" d="
                M  0 -220.45084971874735 
                a  65.4508497187473 65.4508497187473  180  1 1  0 130.9016994374946
                a  65.4508497187473 65.4508497187473  180  1 1  0 -130.9016994374946" fill="none" stroke="url(#comp1)" id="loop-2-24"></path><path class="loop-2-25" d="
                M  0 -222.06888370749724 
                a  68.06888370749719 68.06888370749719  180  1 1  0 136.13776741499439
                a  68.06888370749719 68.06888370749719  180  1 1  0 -136.13776741499439" fill="none" stroke="url(#comp2)" id="loop-2-25"></path><path class="loop-2-26" d="
                M  0 -223.68691769624712 
                a  70.68691769624708 70.68691769624708  180  1 1  0 141.37383539249416
                a  70.68691769624708 70.68691769624708  180  1 1  0 -141.37383539249416" fill="none" stroke="url(#comp3)" id="loop-2-26"></path><path class="loop-2-27" d="
                M  0 -225.30495168499704 
                a  73.30495168499698 73.30495168499698  180  1 1  0 146.60990336999396
                a  73.30495168499698 73.30495168499698  180  1 1  0 -146.60990336999396" fill="none" stroke="url(#comp4)" id="loop-2-27"></path><path class="loop-2-28" d="
                M  0 -226.92298567374692 
                a  75.92298567374688 75.92298567374688  180  1 1  0 151.84597134749376
                a  75.92298567374688 75.92298567374688  180  1 1  0 -151.84597134749376" fill="none" stroke="url(#comp1)" id="loop-2-28"></path><path class="loop-2-29" d="
                M  0 -228.5410196624968 
                a  78.54101966249677 78.54101966249677  180  1 1  0 157.08203932499353
                a  78.54101966249677 78.54101966249677  180  1 1  0 -157.08203932499353" fill="none" stroke="url(#comp2)" id="loop-2-29"></path><path class="loop-2-30" d="
                M  0 -230.15905365124672 
                a  81.15905365124665 81.15905365124665  180  1 1  0 162.3181073024933
                a  81.15905365124665 81.15905365124665  180  1 1  0 -162.3181073024933" fill="none" stroke="url(#comp3)" id="loop-2-30"></path><path class="loop-2-31" d="
                M  0 -231.7770876399966 
                a  83.77708763999655 83.77708763999655  180  1 1  0 167.5541752799931
                a  83.77708763999655 83.77708763999655  180  1 1  0 -167.5541752799931" fill="none" stroke="url(#comp4)" id="loop-2-31"></path><path class="loop-2-32" d="
                M  0 -233.3951216287465 
                a  86.39512162874644 86.39512162874644  180  1 1  0 172.79024325749288
                a  86.39512162874644 86.39512162874644  180  1 1  0 -172.79024325749288" fill="none" stroke="url(#comp1)" id="loop-2-32"></path><path class="loop-2-33" d="
                M  0 -235.0131556174964 
                a  89.01315561749632 89.01315561749632  180  1 1  0 178.02631123499265
                a  89.01315561749632 89.01315561749632  180  1 1  0 -178.02631123499265" fill="none" stroke="url(#comp2)" id="loop-2-33"></path><path class="loop-2-34" d="
                M  0 -236.6311896062463 
                a  91.63118960624622 91.63118960624622  180  1 1  0 183.26237921249245
                a  91.63118960624622 91.63118960624622  180  1 1  0 -183.26237921249245" fill="none" stroke="url(#comp3)" id="loop-2-34"></path><path class="loop-2-35" d="
                M  0 -238.24922359499618 
                a  94.24922359499611 94.24922359499611  180  1 1  0 188.49844718999222
                a  94.24922359499611 94.24922359499611  180  1 1  0 -188.49844718999222" fill="none" stroke="url(#comp4)" id="loop-2-35"></path><path class="loop-2-36" d="
                M  0 -239.8672575837461 
                a  96.86725758374601 96.86725758374601  180  1 1  0 193.73451516749202
                a  96.86725758374601 96.86725758374601  180  1 1  0 -193.73451516749202" fill="none" stroke="url(#comp1)" id="loop-2-36"></path><path class="loop-2-37" d="
                M  0 -241.48529157249598 
                a  99.48529157249591 99.48529157249591  180  1 1  0 198.97058314499182
                a  99.48529157249591 99.48529157249591  180  1 1  0 -198.97058314499182" fill="none" stroke="url(#comp2)" id="loop-2-37"></path><path class="loop-2-38" d="
                M  0 -243.10332556124587 
                a  102.1033255612458 102.1033255612458  180  1 1  0 204.2066511224916
                a  102.1033255612458 102.1033255612458  180  1 1  0 -204.2066511224916" fill="none" stroke="url(#comp3)" id="loop-2-38"></path><path class="loop-2-39" d="
                M  0 -244.72135954999575 
                a  104.72135954999567 104.72135954999567  180  1 1  0 209.44271909999134
                a  104.72135954999567 104.72135954999567  180  1 1  0 -209.44271909999134" fill="none" stroke="url(#comp4)" id="loop-2-39"></path><path class="loop-2-40" d="
                M  0 -246.33939353874564 
                a  107.33939353874558 107.33939353874558  180  1 1  0 214.67878707749117
                a  107.33939353874558 107.33939353874558  180  1 1  0 -214.67878707749117" fill="none" stroke="url(#comp1)" id="loop-2-40"></path><path class="loop-2-41" d="
                M  0 -247.95742752749555 
                a  109.95742752749548 109.95742752749548  180  1 1  0 219.91485505499097
                a  109.95742752749548 109.95742752749548  180  1 1  0 -219.91485505499097" fill="none" stroke="url(#comp2)" id="loop-2-41"></path><path class="loop-2-42" d="
                M  0 -249.57546151624544 
                a  112.57546151624535 112.57546151624535  180  1 1  0 225.1509230324907
                a  112.57546151624535 112.57546151624535  180  1 1  0 -225.1509230324907" fill="none" stroke="url(#comp3)" id="loop-2-42"></path><path class="loop-2-43" d="
                M  0 -251.19349550499533 
                a  115.19349550499525 115.19349550499525  180  1 1  0 230.3869910099905
                a  115.19349550499525 115.19349550499525  180  1 1  0 -230.3869910099905" fill="none" stroke="url(#comp4)" id="loop-2-43"></path><path class="loop-2-44" d="
                M  0 -252.81152949374524 
                a  117.81152949374514 117.81152949374514  180  1 1  0 235.62305898749028
                a  117.81152949374514 117.81152949374514  180  1 1  0 -235.62305898749028" fill="none" stroke="url(#comp1)" id="loop-2-44"></path><path class="loop-2-45" d="
                M  0 -254.42956348249513 
                a  120.42956348249504 120.42956348249504  180  1 1  0 240.85912696499008
                a  120.42956348249504 120.42956348249504  180  1 1  0 -240.85912696499008" fill="none" stroke="url(#comp2)" id="loop-2-45"></path><path class="loop-2-46" d="
                M  0 -256.047597471245 
                a  123.04759747124493 123.04759747124493  180  1 1  0 246.09519494248985
                a  123.04759747124493 123.04759747124493  180  1 1  0 -246.09519494248985" fill="none" stroke="url(#comp3)" id="loop-2-46"></path><path class="loop-2-47" d="
                M  0 -257.6656314599949 
                a  125.66563145999483 125.66563145999483  180  1 1  0 251.33126291998965
                a  125.66563145999483 125.66563145999483  180  1 1  0 -251.33126291998965" fill="none" stroke="url(#comp4)" id="loop-2-47"></path><path class="loop-2-48" d="
                M  0 -259.28366544874484 
                a  128.28366544874473 128.28366544874473  180  1 1  0 256.56733089748946
                a  128.28366544874473 128.28366544874473  180  1 1  0 -256.56733089748946" fill="none" stroke="url(#comp1)" id="loop-2-48"></path><path class="loop-2-49" d="
                M  0 -260.9016994374947 
                a  130.9016994374946 130.9016994374946  180  1 1  0 261.8033988749892
                a  130.9016994374946 130.9016994374946  180  1 1  0 -261.8033988749892" fill="none" stroke="url(#comp2)" id="loop-2-49"></path><path class="loop-2-50" d="
                M  0 -262.5197334262446 
                a  133.5197334262445 133.5197334262445  180  1 1  0 267.039466852489
                a  133.5197334262445 133.5197334262445  180  1 1  0 -267.039466852489" fill="none" stroke="url(#comp3)" id="loop-2-50"></path><path class="loop-2-51" d="
                M  0 -264.13776741499447 
                a  136.13776741499439 136.13776741499439  180  1 1  0 272.27553482998877
                a  136.13776741499439 136.13776741499439  180  1 1  0 -272.27553482998877" fill="none" stroke="url(#comp4)" id="loop-2-51"></path><path class="loop-2-52" d="
                M  0 -265.7558014037444 
                a  138.7558014037443 138.7558014037443  180  1 1  0 277.5116028074886
                a  138.7558014037443 138.7558014037443  180  1 1  0 -277.5116028074886" fill="none" stroke="url(#comp1)" id="loop-2-52"></path><path class="loop-2-53" d="
                M  0 -267.37383539249424 
                a  141.37383539249416 141.37383539249416  180  1 1  0 282.7476707849883
                a  141.37383539249416 141.37383539249416  180  1 1  0 -282.7476707849883" fill="none" stroke="url(#comp2)" id="loop-2-53"></path><path class="loop-2-54" d="
                M  0 -268.99186938124416 
                a  143.99186938124407 143.99186938124407  180  1 1  0 287.98373876248814
                a  143.99186938124407 143.99186938124407  180  1 1  0 -287.98373876248814" fill="none" stroke="url(#comp3)" id="loop-2-54"></path><path class="loop-2-55" d="
                M  0 -270.6099033699941 
                a  146.60990336999396 146.60990336999396  180  1 1  0 293.2198067399879
                a  146.60990336999396 146.60990336999396  180  1 1  0 -293.2198067399879" fill="none" stroke="url(#comp4)" id="loop-2-55"></path><path class="loop-2-56" d="
                M  0 -272.22793735874393 
                a  149.22793735874384 149.22793735874384  180  1 1  0 298.4558747174877
                a  149.22793735874384 149.22793735874384  180  1 1  0 -298.4558747174877" fill="none" stroke="url(#comp1)" id="loop-2-56"></path><path class="loop-2-57" d="
                M  0 -273.84597134749384 
                a  151.84597134749376 151.84597134749376  180  1 1  0 303.6919426949875
                a  151.84597134749376 151.84597134749376  180  1 1  0 -303.6919426949875" fill="none" stroke="url(#comp2)" id="loop-2-57"></path><path class="loop-2-58" d="
                M  0 -275.46400533624376 
                a  154.46400533624364 154.46400533624364  180  1 1  0 308.9280106724873
                a  154.46400533624364 154.46400533624364  180  1 1  0 -308.9280106724873" fill="none" stroke="url(#comp3)" id="loop-2-58"></path><path class="loop-2-59" d="
                M  0 -277.0820393249936 
                a  157.08203932499353 157.08203932499353  180  1 1  0 314.16407864998706
                a  157.08203932499353 157.08203932499353  180  1 1  0 -314.16407864998706" fill="none" stroke="url(#comp4)" id="loop-2-59"></path><path class="loop-2-60" d="
                M  0 -278.70007331374353 
                a  159.70007331374342 159.70007331374342  180  1 1  0 319.40014662748683
                a  159.70007331374342 159.70007331374342  180  1 1  0 -319.40014662748683" fill="none" stroke="url(#comp1)" id="loop-2-60"></path><path class="loop-2-61" d="
                M  0 -280.31810730249344 
                a  162.3181073024933 162.3181073024933  180  1 1  0 324.6362146049866
                a  162.3181073024933 162.3181073024933  180  1 1  0 -324.6362146049866" fill="none" stroke="url(#comp2)" id="loop-2-61"></path><path class="loop-2-62" d="
                M  0 -281.9361412912433 
                a  164.9361412912432 164.9361412912432  180  1 1  0 329.8722825824864
                a  164.9361412912432 164.9361412912432  180  1 1  0 -329.8722825824864" fill="none" stroke="url(#comp3)" id="loop-2-62"></path><path class="loop-2-63" d="
                M  0 -283.5541752799932 
                a  167.5541752799931 167.5541752799931  180  1 1  0 335.1083505599862
                a  167.5541752799931 167.5541752799931  180  1 1  0 -335.1083505599862" fill="none" stroke="url(#comp4)" id="loop-2-63"></path><animateTransform attributeType="xml" attributeName="transform" type="rotate" from="-180 0,-115" to="0 0,-115" dur="6s" additive="sum" repeatCount="indefinite"></animateTransform></g><g transform="translate(-115 -115) rotate(90 0 0)"><path class="loop-3-0" d="
                M  0 -181.6180339887499 
                a  2.6180339887498922 2.6180339887498922  180  1 1  0 5.2360679774997845
                a  2.6180339887498922 2.6180339887498922  180  1 1  0 -5.2360679774997845" fill="none" stroke="url(#comp1)" id="loop-3-0"></path><path class="loop-3-1" d="
                M  0 -183.2360679774998 
                a  5.2360679774997845 5.2360679774997845  180  1 1  0 10.472135954999569
                a  5.2360679774997845 5.2360679774997845  180  1 1  0 -10.472135954999569" fill="none" stroke="url(#comp2)" id="loop-3-1"></path><path class="loop-3-2" d="
                M  0 -184.8541019662497 
                a  7.854101966249677 7.854101966249677  180  1 1  0 15.708203932499353
                a  7.854101966249677 7.854101966249677  180  1 1  0 -15.708203932499353" fill="none" stroke="url(#comp3)" id="loop-3-2"></path><path class="loop-3-3" d="
                M  0 -186.47213595499957 
                a  10.472135954999569 10.472135954999569  180  1 1  0 20.944271909999138
                a  10.472135954999569 10.472135954999569  180  1 1  0 -20.944271909999138" fill="none" stroke="url(#comp4)" id="loop-3-3"></path><path class="loop-3-4" d="
                M  0 -188.09016994374946 
                a  13.090169943749459 13.090169943749459  180  1 1  0 26.180339887498917
                a  13.090169943749459 13.090169943749459  180  1 1  0 -26.180339887498917" fill="none" stroke="url(#comp1)" id="loop-3-4"></path><path class="loop-3-5" d="
                M  0 -189.70820393249937 
                a  15.708203932499353 15.708203932499353  180  1 1  0 31.416407864998707
                a  15.708203932499353 15.708203932499353  180  1 1  0 -31.416407864998707" fill="none" stroke="url(#comp2)" id="loop-3-5"></path><path class="loop-3-6" d="
                M  0 -191.32623792124926 
                a  18.326237921249245 18.326237921249245  180  1 1  0 36.65247584249849
                a  18.326237921249245 18.326237921249245  180  1 1  0 -36.65247584249849" fill="none" stroke="url(#comp3)" id="loop-3-6"></path><path class="loop-3-7" d="
                M  0 -192.94427190999915 
                a  20.944271909999138 20.944271909999138  180  1 1  0 41.888543819998276
                a  20.944271909999138 20.944271909999138  180  1 1  0 -41.888543819998276" fill="none" stroke="url(#comp4)" id="loop-3-7"></path><path class="loop-3-8" d="
                M  0 -194.56230589874906 
                a  23.562305898749027 23.562305898749027  180  1 1  0 47.124611797498055
                a  23.562305898749027 23.562305898749027  180  1 1  0 -47.124611797498055" fill="none" stroke="url(#comp1)" id="loop-3-8"></path><path class="loop-3-9" d="
                M  0 -196.18033988749895 
                a  26.180339887498917 26.180339887498917  180  1 1  0 52.360679774997834
                a  26.180339887498917 26.180339887498917  180  1 1  0 -52.360679774997834" fill="none" stroke="url(#comp2)" id="loop-3-9"></path><path class="loop-3-10" d="
                M  0 -197.79837387624883 
                a  28.798373876248814 28.798373876248814  180  1 1  0 57.59674775249763
                a  28.798373876248814 28.798373876248814  180  1 1  0 -57.59674775249763" fill="none" stroke="url(#comp3)" id="loop-3-10"></path><path class="loop-3-11" d="
                M  0 -199.41640786499872 
                a  31.416407864998707 31.416407864998707  180  1 1  0 62.832815729997414
                a  31.416407864998707 31.416407864998707  180  1 1  0 -62.832815729997414" fill="none" stroke="url(#comp4)" id="loop-3-11"></path><path class="loop-3-12" d="
                M  0 -201.03444185374863 
                a  34.034441853748596 34.034441853748596  180  1 1  0 68.06888370749719
                a  34.034441853748596 34.034441853748596  180  1 1  0 -68.06888370749719" fill="none" stroke="url(#comp1)" id="loop-3-12"></path><path class="loop-3-13" d="
                M  0 -202.65247584249852 
                a  36.65247584249849 36.65247584249849  180  1 1  0 73.30495168499698
                a  36.65247584249849 36.65247584249849  180  1 1  0 -73.30495168499698" fill="none" stroke="url(#comp2)" id="loop-3-13"></path><path class="loop-3-14" d="
                M  0 -204.2705098312484 
                a  39.27050983124838 39.27050983124838  180  1 1  0 78.54101966249677
                a  39.27050983124838 39.27050983124838  180  1 1  0 -78.54101966249677" fill="none" stroke="url(#comp3)" id="loop-3-14"></path><path class="loop-3-15" d="
                M  0 -205.8885438199983 
                a  41.888543819998276 41.888543819998276  180  1 1  0 83.77708763999655
                a  41.888543819998276 41.888543819998276  180  1 1  0 -83.77708763999655" fill="none" stroke="url(#comp4)" id="loop-3-15"></path><path class="loop-3-16" d="
                M  0 -207.5065778087482 
                a  44.50657780874816 44.50657780874816  180  1 1  0 89.01315561749632
                a  44.50657780874816 44.50657780874816  180  1 1  0 -89.01315561749632" fill="none" stroke="url(#comp1)" id="loop-3-16"></path><path class="loop-3-17" d="
                M  0 -209.1246117974981 
                a  47.124611797498055 47.124611797498055  180  1 1  0 94.24922359499611
                a  47.124611797498055 47.124611797498055  180  1 1  0 -94.24922359499611" fill="none" stroke="url(#comp2)" id="loop-3-17"></path><path class="loop-3-18" d="
                M  0 -210.74264578624798 
                a  49.742645786247955 49.742645786247955  180  1 1  0 99.48529157249591
                a  49.742645786247955 49.742645786247955  180  1 1  0 -99.48529157249591" fill="none" stroke="url(#comp3)" id="loop-3-18"></path><path class="loop-3-19" d="
                M  0 -212.3606797749979 
                a  52.360679774997834 52.360679774997834  180  1 1  0 104.72135954999567
                a  52.360679774997834 52.360679774997834  180  1 1  0 -104.72135954999567" fill="none" stroke="url(#comp4)" id="loop-3-19"></path><path class="loop-3-20" d="
                M  0 -213.97871376374778 
                a  54.97871376374774 54.97871376374774  180  1 1  0 109.95742752749548
                a  54.97871376374774 54.97871376374774  180  1 1  0 -109.95742752749548" fill="none" stroke="url(#comp1)" id="loop-3-20"></path><path class="loop-3-21" d="
                M  0 -215.59674775249766 
                a  57.59674775249763 57.59674775249763  180  1 1  0 115.19349550499525
                a  57.59674775249763 57.59674775249763  180  1 1  0 -115.19349550499525" fill="none" stroke="url(#comp2)" id="loop-3-21"></path><path class="loop-3-22" d="
                M  0 -217.21478174124758 
                a  60.21478174124752 60.21478174124752  180  1 1  0 120.42956348249504
                a  60.21478174124752 60.21478174124752  180  1 1  0 -120.42956348249504" fill="none" stroke="url(#comp3)" id="loop-3-22"></path><path class="loop-3-23" d="
                M  0 -218.83281572999746 
                a  62.832815729997414 62.832815729997414  180  1 1  0 125.66563145999483
                a  62.832815729997414 62.832815729997414  180  1 1  0 -125.66563145999483" fill="none" stroke="url(#comp4)" id="loop-3-23"></path><path class="loop-3-24" d="
                M  0 -220.45084971874735 
                a  65.4508497187473 65.4508497187473  180  1 1  0 130.9016994374946
                a  65.4508497187473 65.4508497187473  180  1 1  0 -130.9016994374946" fill="none" stroke="url(#comp1)" id="loop-3-24"></path><path class="loop-3-25" d="
                M  0 -222.06888370749724 
                a  68.06888370749719 68.06888370749719  180  1 1  0 136.13776741499439
                a  68.06888370749719 68.06888370749719  180  1 1  0 -136.13776741499439" fill="none" stroke="url(#comp2)" id="loop-3-25"></path><path class="loop-3-26" d="
                M  0 -223.68691769624712 
                a  70.68691769624708 70.68691769624708  180  1 1  0 141.37383539249416
                a  70.68691769624708 70.68691769624708  180  1 1  0 -141.37383539249416" fill="none" stroke="url(#comp3)" id="loop-3-26"></path><path class="loop-3-27" d="
                M  0 -225.30495168499704 
                a  73.30495168499698 73.30495168499698  180  1 1  0 146.60990336999396
                a  73.30495168499698 73.30495168499698  180  1 1  0 -146.60990336999396" fill="none" stroke="url(#comp4)" id="loop-3-27"></path><path class="loop-3-28" d="
                M  0 -226.92298567374692 
                a  75.92298567374688 75.92298567374688  180  1 1  0 151.84597134749376
                a  75.92298567374688 75.92298567374688  180  1 1  0 -151.84597134749376" fill="none" stroke="url(#comp1)" id="loop-3-28"></path><path class="loop-3-29" d="
                M  0 -228.5410196624968 
                a  78.54101966249677 78.54101966249677  180  1 1  0 157.08203932499353
                a  78.54101966249677 78.54101966249677  180  1 1  0 -157.08203932499353" fill="none" stroke="url(#comp2)" id="loop-3-29"></path><path class="loop-3-30" d="
                M  0 -230.15905365124672 
                a  81.15905365124665 81.15905365124665  180  1 1  0 162.3181073024933
                a  81.15905365124665 81.15905365124665  180  1 1  0 -162.3181073024933" fill="none" stroke="url(#comp3)" id="loop-3-30"></path><path class="loop-3-31" d="
                M  0 -231.7770876399966 
                a  83.77708763999655 83.77708763999655  180  1 1  0 167.5541752799931
                a  83.77708763999655 83.77708763999655  180  1 1  0 -167.5541752799931" fill="none" stroke="url(#comp4)" id="loop-3-31"></path><path class="loop-3-32" d="
                M  0 -233.3951216287465 
                a  86.39512162874644 86.39512162874644  180  1 1  0 172.79024325749288
                a  86.39512162874644 86.39512162874644  180  1 1  0 -172.79024325749288" fill="none" stroke="url(#comp1)" id="loop-3-32"></path><path class="loop-3-33" d="
                M  0 -235.0131556174964 
                a  89.01315561749632 89.01315561749632  180  1 1  0 178.02631123499265
                a  89.01315561749632 89.01315561749632  180  1 1  0 -178.02631123499265" fill="none" stroke="url(#comp2)" id="loop-3-33"></path><path class="loop-3-34" d="
                M  0 -236.6311896062463 
                a  91.63118960624622 91.63118960624622  180  1 1  0 183.26237921249245
                a  91.63118960624622 91.63118960624622  180  1 1  0 -183.26237921249245" fill="none" stroke="url(#comp3)" id="loop-3-34"></path><path class="loop-3-35" d="
                M  0 -238.24922359499618 
                a  94.24922359499611 94.24922359499611  180  1 1  0 188.49844718999222
                a  94.24922359499611 94.24922359499611  180  1 1  0 -188.49844718999222" fill="none" stroke="url(#comp4)" id="loop-3-35"></path><path class="loop-3-36" d="
                M  0 -239.8672575837461 
                a  96.86725758374601 96.86725758374601  180  1 1  0 193.73451516749202
                a  96.86725758374601 96.86725758374601  180  1 1  0 -193.73451516749202" fill="none" stroke="url(#comp1)" id="loop-3-36"></path><path class="loop-3-37" d="
                M  0 -241.48529157249598 
                a  99.48529157249591 99.48529157249591  180  1 1  0 198.97058314499182
                a  99.48529157249591 99.48529157249591  180  1 1  0 -198.97058314499182" fill="none" stroke="url(#comp2)" id="loop-3-37"></path><path class="loop-3-38" d="
                M  0 -243.10332556124587 
                a  102.1033255612458 102.1033255612458  180  1 1  0 204.2066511224916
                a  102.1033255612458 102.1033255612458  180  1 1  0 -204.2066511224916" fill="none" stroke="url(#comp3)" id="loop-3-38"></path><path class="loop-3-39" d="
                M  0 -244.72135954999575 
                a  104.72135954999567 104.72135954999567  180  1 1  0 209.44271909999134
                a  104.72135954999567 104.72135954999567  180  1 1  0 -209.44271909999134" fill="none" stroke="url(#comp4)" id="loop-3-39"></path><path class="loop-3-40" d="
                M  0 -246.33939353874564 
                a  107.33939353874558 107.33939353874558  180  1 1  0 214.67878707749117
                a  107.33939353874558 107.33939353874558  180  1 1  0 -214.67878707749117" fill="none" stroke="url(#comp1)" id="loop-3-40"></path><path class="loop-3-41" d="
                M  0 -247.95742752749555 
                a  109.95742752749548 109.95742752749548  180  1 1  0 219.91485505499097
                a  109.95742752749548 109.95742752749548  180  1 1  0 -219.91485505499097" fill="none" stroke="url(#comp2)" id="loop-3-41"></path><path class="loop-3-42" d="
                M  0 -249.57546151624544 
                a  112.57546151624535 112.57546151624535  180  1 1  0 225.1509230324907
                a  112.57546151624535 112.57546151624535  180  1 1  0 -225.1509230324907" fill="none" stroke="url(#comp3)" id="loop-3-42"></path><path class="loop-3-43" d="
                M  0 -251.19349550499533 
                a  115.19349550499525 115.19349550499525  180  1 1  0 230.3869910099905
                a  115.19349550499525 115.19349550499525  180  1 1  0 -230.3869910099905" fill="none" stroke="url(#comp4)" id="loop-3-43"></path><path class="loop-3-44" d="
                M  0 -252.81152949374524 
                a  117.81152949374514 117.81152949374514  180  1 1  0 235.62305898749028
                a  117.81152949374514 117.81152949374514  180  1 1  0 -235.62305898749028" fill="none" stroke="url(#comp1)" id="loop-3-44"></path><path class="loop-3-45" d="
                M  0 -254.42956348249513 
                a  120.42956348249504 120.42956348249504  180  1 1  0 240.85912696499008
                a  120.42956348249504 120.42956348249504  180  1 1  0 -240.85912696499008" fill="none" stroke="url(#comp2)" id="loop-3-45"></path><path class="loop-3-46" d="
                M  0 -256.047597471245 
                a  123.04759747124493 123.04759747124493  180  1 1  0 246.09519494248985
                a  123.04759747124493 123.04759747124493  180  1 1  0 -246.09519494248985" fill="none" stroke="url(#comp3)" id="loop-3-46"></path><path class="loop-3-47" d="
                M  0 -257.6656314599949 
                a  125.66563145999483 125.66563145999483  180  1 1  0 251.33126291998965
                a  125.66563145999483 125.66563145999483  180  1 1  0 -251.33126291998965" fill="none" stroke="url(#comp4)" id="loop-3-47"></path><path class="loop-3-48" d="
                M  0 -259.28366544874484 
                a  128.28366544874473 128.28366544874473  180  1 1  0 256.56733089748946
                a  128.28366544874473 128.28366544874473  180  1 1  0 -256.56733089748946" fill="none" stroke="url(#comp1)" id="loop-3-48"></path><path class="loop-3-49" d="
                M  0 -260.9016994374947 
                a  130.9016994374946 130.9016994374946  180  1 1  0 261.8033988749892
                a  130.9016994374946 130.9016994374946  180  1 1  0 -261.8033988749892" fill="none" stroke="url(#comp2)" id="loop-3-49"></path><path class="loop-3-50" d="
                M  0 -262.5197334262446 
                a  133.5197334262445 133.5197334262445  180  1 1  0 267.039466852489
                a  133.5197334262445 133.5197334262445  180  1 1  0 -267.039466852489" fill="none" stroke="url(#comp3)" id="loop-3-50"></path><path class="loop-3-51" d="
                M  0 -264.13776741499447 
                a  136.13776741499439 136.13776741499439  180  1 1  0 272.27553482998877
                a  136.13776741499439 136.13776741499439  180  1 1  0 -272.27553482998877" fill="none" stroke="url(#comp4)" id="loop-3-51"></path><path class="loop-3-52" d="
                M  0 -265.7558014037444 
                a  138.7558014037443 138.7558014037443  180  1 1  0 277.5116028074886
                a  138.7558014037443 138.7558014037443  180  1 1  0 -277.5116028074886" fill="none" stroke="url(#comp1)" id="loop-3-52"></path><path class="loop-3-53" d="
                M  0 -267.37383539249424 
                a  141.37383539249416 141.37383539249416  180  1 1  0 282.7476707849883
                a  141.37383539249416 141.37383539249416  180  1 1  0 -282.7476707849883" fill="none" stroke="url(#comp2)" id="loop-3-53"></path><path class="loop-3-54" d="
                M  0 -268.99186938124416 
                a  143.99186938124407 143.99186938124407  180  1 1  0 287.98373876248814
                a  143.99186938124407 143.99186938124407  180  1 1  0 -287.98373876248814" fill="none" stroke="url(#comp3)" id="loop-3-54"></path><path class="loop-3-55" d="
                M  0 -270.6099033699941 
                a  146.60990336999396 146.60990336999396  180  1 1  0 293.2198067399879
                a  146.60990336999396 146.60990336999396  180  1 1  0 -293.2198067399879" fill="none" stroke="url(#comp4)" id="loop-3-55"></path><path class="loop-3-56" d="
                M  0 -272.22793735874393 
                a  149.22793735874384 149.22793735874384  180  1 1  0 298.4558747174877
                a  149.22793735874384 149.22793735874384  180  1 1  0 -298.4558747174877" fill="none" stroke="url(#comp1)" id="loop-3-56"></path><path class="loop-3-57" d="
                M  0 -273.84597134749384 
                a  151.84597134749376 151.84597134749376  180  1 1  0 303.6919426949875
                a  151.84597134749376 151.84597134749376  180  1 1  0 -303.6919426949875" fill="none" stroke="url(#comp2)" id="loop-3-57"></path><path class="loop-3-58" d="
                M  0 -275.46400533624376 
                a  154.46400533624364 154.46400533624364  180  1 1  0 308.9280106724873
                a  154.46400533624364 154.46400533624364  180  1 1  0 -308.9280106724873" fill="none" stroke="url(#comp3)" id="loop-3-58"></path><path class="loop-3-59" d="
                M  0 -277.0820393249936 
                a  157.08203932499353 157.08203932499353  180  1 1  0 314.16407864998706
                a  157.08203932499353 157.08203932499353  180  1 1  0 -314.16407864998706" fill="none" stroke="url(#comp4)" id="loop-3-59"></path><path class="loop-3-60" d="
                M  0 -278.70007331374353 
                a  159.70007331374342 159.70007331374342  180  1 1  0 319.40014662748683
                a  159.70007331374342 159.70007331374342  180  1 1  0 -319.40014662748683" fill="none" stroke="url(#comp1)" id="loop-3-60"></path><path class="loop-3-61" d="
                M  0 -280.31810730249344 
                a  162.3181073024933 162.3181073024933  180  1 1  0 324.6362146049866
                a  162.3181073024933 162.3181073024933  180  1 1  0 -324.6362146049866" fill="none" stroke="url(#comp2)" id="loop-3-61"></path><path class="loop-3-62" d="
                M  0 -281.9361412912433 
                a  164.9361412912432 164.9361412912432  180  1 1  0 329.8722825824864
                a  164.9361412912432 164.9361412912432  180  1 1  0 -329.8722825824864" fill="none" stroke="url(#comp3)" id="loop-3-62"></path><path class="loop-3-63" d="
                M  0 -283.5541752799932 
                a  167.5541752799931 167.5541752799931  180  1 1  0 335.1083505599862
                a  167.5541752799931 167.5541752799931  180  1 1  0 -335.1083505599862" fill="none" stroke="url(#comp4)" id="loop-3-63"></path><animateTransform attributeType="xml" attributeName="transform" type="rotate" from="360 0,-115" to="0 0,-115" dur="7s" additive="sum" repeatCount="indefinite"></animateTransform></g><g transform="translate(115 -115) rotate(270 0 0)"><path class="loop-4-0" d="
                M  0 -181.6180339887499 
                a  2.6180339887498922 2.6180339887498922  180  1 1  0 5.2360679774997845
                a  2.6180339887498922 2.6180339887498922  180  1 1  0 -5.2360679774997845" fill="none" stroke="url(#comp1)" id="loop-4-0"></path><path class="loop-4-1" d="
                M  0 -183.2360679774998 
                a  5.2360679774997845 5.2360679774997845  180  1 1  0 10.472135954999569
                a  5.2360679774997845 5.2360679774997845  180  1 1  0 -10.472135954999569" fill="none" stroke="url(#comp2)" id="loop-4-1"></path><path class="loop-4-2" d="
                M  0 -184.8541019662497 
                a  7.854101966249677 7.854101966249677  180  1 1  0 15.708203932499353
                a  7.854101966249677 7.854101966249677  180  1 1  0 -15.708203932499353" fill="none" stroke="url(#comp3)" id="loop-4-2"></path><path class="loop-4-3" d="
                M  0 -186.47213595499957 
                a  10.472135954999569 10.472135954999569  180  1 1  0 20.944271909999138
                a  10.472135954999569 10.472135954999569  180  1 1  0 -20.944271909999138" fill="none" stroke="url(#comp4)" id="loop-4-3"></path><path class="loop-4-4" d="
                M  0 -188.09016994374946 
                a  13.090169943749459 13.090169943749459  180  1 1  0 26.180339887498917
                a  13.090169943749459 13.090169943749459  180  1 1  0 -26.180339887498917" fill="none" stroke="url(#comp1)" id="loop-4-4"></path><path class="loop-4-5" d="
                M  0 -189.70820393249937 
                a  15.708203932499353 15.708203932499353  180  1 1  0 31.416407864998707
                a  15.708203932499353 15.708203932499353  180  1 1  0 -31.416407864998707" fill="none" stroke="url(#comp2)" id="loop-4-5"></path><path class="loop-4-6" d="
                M  0 -191.32623792124926 
                a  18.326237921249245 18.326237921249245  180  1 1  0 36.65247584249849
                a  18.326237921249245 18.326237921249245  180  1 1  0 -36.65247584249849" fill="none" stroke="url(#comp3)" id="loop-4-6"></path><path class="loop-4-7" d="
                M  0 -192.94427190999915 
                a  20.944271909999138 20.944271909999138  180  1 1  0 41.888543819998276
                a  20.944271909999138 20.944271909999138  180  1 1  0 -41.888543819998276" fill="none" stroke="url(#comp4)" id="loop-4-7"></path><path class="loop-4-8" d="
                M  0 -194.56230589874906 
                a  23.562305898749027 23.562305898749027  180  1 1  0 47.124611797498055
                a  23.562305898749027 23.562305898749027  180  1 1  0 -47.124611797498055" fill="none" stroke="url(#comp1)" id="loop-4-8"></path><path class="loop-4-9" d="
                M  0 -196.18033988749895 
                a  26.180339887498917 26.180339887498917  180  1 1  0 52.360679774997834
                a  26.180339887498917 26.180339887498917  180  1 1  0 -52.360679774997834" fill="none" stroke="url(#comp2)" id="loop-4-9"></path><path class="loop-4-10" d="
                M  0 -197.79837387624883 
                a  28.798373876248814 28.798373876248814  180  1 1  0 57.59674775249763
                a  28.798373876248814 28.798373876248814  180  1 1  0 -57.59674775249763" fill="none" stroke="url(#comp3)" id="loop-4-10"></path><path class="loop-4-11" d="
                M  0 -199.41640786499872 
                a  31.416407864998707 31.416407864998707  180  1 1  0 62.832815729997414
                a  31.416407864998707 31.416407864998707  180  1 1  0 -62.832815729997414" fill="none" stroke="url(#comp4)" id="loop-4-11"></path><path class="loop-4-12" d="
                M  0 -201.03444185374863 
                a  34.034441853748596 34.034441853748596  180  1 1  0 68.06888370749719
                a  34.034441853748596 34.034441853748596  180  1 1  0 -68.06888370749719" fill="none" stroke="url(#comp1)" id="loop-4-12"></path><path class="loop-4-13" d="
                M  0 -202.65247584249852 
                a  36.65247584249849 36.65247584249849  180  1 1  0 73.30495168499698
                a  36.65247584249849 36.65247584249849  180  1 1  0 -73.30495168499698" fill="none" stroke="url(#comp2)" id="loop-4-13"></path><path class="loop-4-14" d="
                M  0 -204.2705098312484 
                a  39.27050983124838 39.27050983124838  180  1 1  0 78.54101966249677
                a  39.27050983124838 39.27050983124838  180  1 1  0 -78.54101966249677" fill="none" stroke="url(#comp3)" id="loop-4-14"></path><path class="loop-4-15" d="
                M  0 -205.8885438199983 
                a  41.888543819998276 41.888543819998276  180  1 1  0 83.77708763999655
                a  41.888543819998276 41.888543819998276  180  1 1  0 -83.77708763999655" fill="none" stroke="url(#comp4)" id="loop-4-15"></path><path class="loop-4-16" d="
                M  0 -207.5065778087482 
                a  44.50657780874816 44.50657780874816  180  1 1  0 89.01315561749632
                a  44.50657780874816 44.50657780874816  180  1 1  0 -89.01315561749632" fill="none" stroke="url(#comp1)" id="loop-4-16"></path><path class="loop-4-17" d="
                M  0 -209.1246117974981 
                a  47.124611797498055 47.124611797498055  180  1 1  0 94.24922359499611
                a  47.124611797498055 47.124611797498055  180  1 1  0 -94.24922359499611" fill="none" stroke="url(#comp2)" id="loop-4-17"></path><path class="loop-4-18" d="
                M  0 -210.74264578624798 
                a  49.742645786247955 49.742645786247955  180  1 1  0 99.48529157249591
                a  49.742645786247955 49.742645786247955  180  1 1  0 -99.48529157249591" fill="none" stroke="url(#comp3)" id="loop-4-18"></path><path class="loop-4-19" d="
                M  0 -212.3606797749979 
                a  52.360679774997834 52.360679774997834  180  1 1  0 104.72135954999567
                a  52.360679774997834 52.360679774997834  180  1 1  0 -104.72135954999567" fill="none" stroke="url(#comp4)" id="loop-4-19"></path><path class="loop-4-20" d="
                M  0 -213.97871376374778 
                a  54.97871376374774 54.97871376374774  180  1 1  0 109.95742752749548
                a  54.97871376374774 54.97871376374774  180  1 1  0 -109.95742752749548" fill="none" stroke="url(#comp1)" id="loop-4-20"></path><path class="loop-4-21" d="
                M  0 -215.59674775249766 
                a  57.59674775249763 57.59674775249763  180  1 1  0 115.19349550499525
                a  57.59674775249763 57.59674775249763  180  1 1  0 -115.19349550499525" fill="none" stroke="url(#comp2)" id="loop-4-21"></path><path class="loop-4-22" d="
                M  0 -217.21478174124758 
                a  60.21478174124752 60.21478174124752  180  1 1  0 120.42956348249504
                a  60.21478174124752 60.21478174124752  180  1 1  0 -120.42956348249504" fill="none" stroke="url(#comp3)" id="loop-4-22"></path><path class="loop-4-23" d="
                M  0 -218.83281572999746 
                a  62.832815729997414 62.832815729997414  180  1 1  0 125.66563145999483
                a  62.832815729997414 62.832815729997414  180  1 1  0 -125.66563145999483" fill="none" stroke="url(#comp4)" id="loop-4-23"></path><path class="loop-4-24" d="
                M  0 -220.45084971874735 
                a  65.4508497187473 65.4508497187473  180  1 1  0 130.9016994374946
                a  65.4508497187473 65.4508497187473  180  1 1  0 -130.9016994374946" fill="none" stroke="url(#comp1)" id="loop-4-24"></path><path class="loop-4-25" d="
                M  0 -222.06888370749724 
                a  68.06888370749719 68.06888370749719  180  1 1  0 136.13776741499439
                a  68.06888370749719 68.06888370749719  180  1 1  0 -136.13776741499439" fill="none" stroke="url(#comp2)" id="loop-4-25"></path><path class="loop-4-26" d="
                M  0 -223.68691769624712 
                a  70.68691769624708 70.68691769624708  180  1 1  0 141.37383539249416
                a  70.68691769624708 70.68691769624708  180  1 1  0 -141.37383539249416" fill="none" stroke="url(#comp3)" id="loop-4-26"></path><path class="loop-4-27" d="
                M  0 -225.30495168499704 
                a  73.30495168499698 73.30495168499698  180  1 1  0 146.60990336999396
                a  73.30495168499698 73.30495168499698  180  1 1  0 -146.60990336999396" fill="none" stroke="url(#comp4)" id="loop-4-27"></path><path class="loop-4-28" d="
                M  0 -226.92298567374692 
                a  75.92298567374688 75.92298567374688  180  1 1  0 151.84597134749376
                a  75.92298567374688 75.92298567374688  180  1 1  0 -151.84597134749376" fill="none" stroke="url(#comp1)" id="loop-4-28"></path><path class="loop-4-29" d="
                M  0 -228.5410196624968 
                a  78.54101966249677 78.54101966249677  180  1 1  0 157.08203932499353
                a  78.54101966249677 78.54101966249677  180  1 1  0 -157.08203932499353" fill="none" stroke="url(#comp2)" id="loop-4-29"></path><path class="loop-4-30" d="
                M  0 -230.15905365124672 
                a  81.15905365124665 81.15905365124665  180  1 1  0 162.3181073024933
                a  81.15905365124665 81.15905365124665  180  1 1  0 -162.3181073024933" fill="none" stroke="url(#comp3)" id="loop-4-30"></path><path class="loop-4-31" d="
                M  0 -231.7770876399966 
                a  83.77708763999655 83.77708763999655  180  1 1  0 167.5541752799931
                a  83.77708763999655 83.77708763999655  180  1 1  0 -167.5541752799931" fill="none" stroke="url(#comp4)" id="loop-4-31"></path><path class="loop-4-32" d="
                M  0 -233.3951216287465 
                a  86.39512162874644 86.39512162874644  180  1 1  0 172.79024325749288
                a  86.39512162874644 86.39512162874644  180  1 1  0 -172.79024325749288" fill="none" stroke="url(#comp1)" id="loop-4-32"></path><path class="loop-4-33" d="
                M  0 -235.0131556174964 
                a  89.01315561749632 89.01315561749632  180  1 1  0 178.02631123499265
                a  89.01315561749632 89.01315561749632  180  1 1  0 -178.02631123499265" fill="none" stroke="url(#comp2)" id="loop-4-33"></path><path class="loop-4-34" d="
                M  0 -236.6311896062463 
                a  91.63118960624622 91.63118960624622  180  1 1  0 183.26237921249245
                a  91.63118960624622 91.63118960624622  180  1 1  0 -183.26237921249245" fill="none" stroke="url(#comp3)" id="loop-4-34"></path><path class="loop-4-35" d="
                M  0 -238.24922359499618 
                a  94.24922359499611 94.24922359499611  180  1 1  0 188.49844718999222
                a  94.24922359499611 94.24922359499611  180  1 1  0 -188.49844718999222" fill="none" stroke="url(#comp4)" id="loop-4-35"></path><path class="loop-4-36" d="
                M  0 -239.8672575837461 
                a  96.86725758374601 96.86725758374601  180  1 1  0 193.73451516749202
                a  96.86725758374601 96.86725758374601  180  1 1  0 -193.73451516749202" fill="none" stroke="url(#comp1)" id="loop-4-36"></path><path class="loop-4-37" d="
                M  0 -241.48529157249598 
                a  99.48529157249591 99.48529157249591  180  1 1  0 198.97058314499182
                a  99.48529157249591 99.48529157249591  180  1 1  0 -198.97058314499182" fill="none" stroke="url(#comp2)" id="loop-4-37"></path><path class="loop-4-38" d="
                M  0 -243.10332556124587 
                a  102.1033255612458 102.1033255612458  180  1 1  0 204.2066511224916
                a  102.1033255612458 102.1033255612458  180  1 1  0 -204.2066511224916" fill="none" stroke="url(#comp3)" id="loop-4-38"></path><path class="loop-4-39" d="
                M  0 -244.72135954999575 
                a  104.72135954999567 104.72135954999567  180  1 1  0 209.44271909999134
                a  104.72135954999567 104.72135954999567  180  1 1  0 -209.44271909999134" fill="none" stroke="url(#comp4)" id="loop-4-39"></path><path class="loop-4-40" d="
                M  0 -246.33939353874564 
                a  107.33939353874558 107.33939353874558  180  1 1  0 214.67878707749117
                a  107.33939353874558 107.33939353874558  180  1 1  0 -214.67878707749117" fill="none" stroke="url(#comp1)" id="loop-4-40"></path><path class="loop-4-41" d="
                M  0 -247.95742752749555 
                a  109.95742752749548 109.95742752749548  180  1 1  0 219.91485505499097
                a  109.95742752749548 109.95742752749548  180  1 1  0 -219.91485505499097" fill="none" stroke="url(#comp2)" id="loop-4-41"></path><path class="loop-4-42" d="
                M  0 -249.57546151624544 
                a  112.57546151624535 112.57546151624535  180  1 1  0 225.1509230324907
                a  112.57546151624535 112.57546151624535  180  1 1  0 -225.1509230324907" fill="none" stroke="url(#comp3)" id="loop-4-42"></path><path class="loop-4-43" d="
                M  0 -251.19349550499533 
                a  115.19349550499525 115.19349550499525  180  1 1  0 230.3869910099905
                a  115.19349550499525 115.19349550499525  180  1 1  0 -230.3869910099905" fill="none" stroke="url(#comp4)" id="loop-4-43"></path><path class="loop-4-44" d="
                M  0 -252.81152949374524 
                a  117.81152949374514 117.81152949374514  180  1 1  0 235.62305898749028
                a  117.81152949374514 117.81152949374514  180  1 1  0 -235.62305898749028" fill="none" stroke="url(#comp1)" id="loop-4-44"></path><path class="loop-4-45" d="
                M  0 -254.42956348249513 
                a  120.42956348249504 120.42956348249504  180  1 1  0 240.85912696499008
                a  120.42956348249504 120.42956348249504  180  1 1  0 -240.85912696499008" fill="none" stroke="url(#comp2)" id="loop-4-45"></path><path class="loop-4-46" d="
                M  0 -256.047597471245 
                a  123.04759747124493 123.04759747124493  180  1 1  0 246.09519494248985
                a  123.04759747124493 123.04759747124493  180  1 1  0 -246.09519494248985" fill="none" stroke="url(#comp3)" id="loop-4-46"></path><path class="loop-4-47" d="
                M  0 -257.6656314599949 
                a  125.66563145999483 125.66563145999483  180  1 1  0 251.33126291998965
                a  125.66563145999483 125.66563145999483  180  1 1  0 -251.33126291998965" fill="none" stroke="url(#comp4)" id="loop-4-47"></path><path class="loop-4-48" d="
                M  0 -259.28366544874484 
                a  128.28366544874473 128.28366544874473  180  1 1  0 256.56733089748946
                a  128.28366544874473 128.28366544874473  180  1 1  0 -256.56733089748946" fill="none" stroke="url(#comp1)" id="loop-4-48"></path><path class="loop-4-49" d="
                M  0 -260.9016994374947 
                a  130.9016994374946 130.9016994374946  180  1 1  0 261.8033988749892
                a  130.9016994374946 130.9016994374946  180  1 1  0 -261.8033988749892" fill="none" stroke="url(#comp2)" id="loop-4-49"></path><path class="loop-4-50" d="
                M  0 -262.5197334262446 
                a  133.5197334262445 133.5197334262445  180  1 1  0 267.039466852489
                a  133.5197334262445 133.5197334262445  180  1 1  0 -267.039466852489" fill="none" stroke="url(#comp3)" id="loop-4-50"></path><path class="loop-4-51" d="
                M  0 -264.13776741499447 
                a  136.13776741499439 136.13776741499439  180  1 1  0 272.27553482998877
                a  136.13776741499439 136.13776741499439  180  1 1  0 -272.27553482998877" fill="none" stroke="url(#comp4)" id="loop-4-51"></path><path class="loop-4-52" d="
                M  0 -265.7558014037444 
                a  138.7558014037443 138.7558014037443  180  1 1  0 277.5116028074886
                a  138.7558014037443 138.7558014037443  180  1 1  0 -277.5116028074886" fill="none" stroke="url(#comp1)" id="loop-4-52"></path><path class="loop-4-53" d="
                M  0 -267.37383539249424 
                a  141.37383539249416 141.37383539249416  180  1 1  0 282.7476707849883
                a  141.37383539249416 141.37383539249416  180  1 1  0 -282.7476707849883" fill="none" stroke="url(#comp2)" id="loop-4-53"></path><path class="loop-4-54" d="
                M  0 -268.99186938124416 
                a  143.99186938124407 143.99186938124407  180  1 1  0 287.98373876248814
                a  143.99186938124407 143.99186938124407  180  1 1  0 -287.98373876248814" fill="none" stroke="url(#comp3)" id="loop-4-54"></path><path class="loop-4-55" d="
                M  0 -270.6099033699941 
                a  146.60990336999396 146.60990336999396  180  1 1  0 293.2198067399879
                a  146.60990336999396 146.60990336999396  180  1 1  0 -293.2198067399879" fill="none" stroke="url(#comp4)" id="loop-4-55"></path><path class="loop-4-56" d="
                M  0 -272.22793735874393 
                a  149.22793735874384 149.22793735874384  180  1 1  0 298.4558747174877
                a  149.22793735874384 149.22793735874384  180  1 1  0 -298.4558747174877" fill="none" stroke="url(#comp1)" id="loop-4-56"></path><path class="loop-4-57" d="
                M  0 -273.84597134749384 
                a  151.84597134749376 151.84597134749376  180  1 1  0 303.6919426949875
                a  151.84597134749376 151.84597134749376  180  1 1  0 -303.6919426949875" fill="none" stroke="url(#comp2)" id="loop-4-57"></path><path class="loop-4-58" d="
                M  0 -275.46400533624376 
                a  154.46400533624364 154.46400533624364  180  1 1  0 308.9280106724873
                a  154.46400533624364 154.46400533624364  180  1 1  0 -308.9280106724873" fill="none" stroke="url(#comp3)" id="loop-4-58"></path><path class="loop-4-59" d="
                M  0 -277.0820393249936 
                a  157.08203932499353 157.08203932499353  180  1 1  0 314.16407864998706
                a  157.08203932499353 157.08203932499353  180  1 1  0 -314.16407864998706" fill="none" stroke="url(#comp4)" id="loop-4-59"></path><path class="loop-4-60" d="
                M  0 -278.70007331374353 
                a  159.70007331374342 159.70007331374342  180  1 1  0 319.40014662748683
                a  159.70007331374342 159.70007331374342  180  1 1  0 -319.40014662748683" fill="none" stroke="url(#comp1)" id="loop-4-60"></path><path class="loop-4-61" d="
                M  0 -280.31810730249344 
                a  162.3181073024933 162.3181073024933  180  1 1  0 324.6362146049866
                a  162.3181073024933 162.3181073024933  180  1 1  0 -324.6362146049866" fill="none" stroke="url(#comp2)" id="loop-4-61"></path><path class="loop-4-62" d="
                M  0 -281.9361412912433 
                a  164.9361412912432 164.9361412912432  180  1 1  0 329.8722825824864
                a  164.9361412912432 164.9361412912432  180  1 1  0 -329.8722825824864" fill="none" stroke="url(#comp3)" id="loop-4-62"></path><path class="loop-4-63" d="
                M  0 -283.5541752799932 
                a  167.5541752799931 167.5541752799931  180  1 1  0 335.1083505599862
                a  167.5541752799931 167.5541752799931  180  1 1  0 -335.1083505599862" fill="none" stroke="url(#comp4)" id="loop-4-63"></path><animateTransform attributeType="xml" attributeName="transform" type="rotate" from="-360 0,-115" to="0 0,-115" dur="8s" additive="sum" repeatCount="indefinite"></animateTransform></g><animateTransform attributeType="xml" attributeName="transform" type="rotate" from="-360 0,-115" to="0 0,-115" dur="16s" additive="sum" repeatCount="indefinite"></animateTransform></g></svg>