<svg xmlns="http://www.w3.org/2000/svg" viewBox="0 -0.5 50 50" shape-rendering="crispEdges">
	<title>Bitcoin Pussies #057</title>
	<desc>Bitcoin Pussies are 69 uniquely drawn and inscribed cats on Bitcoin</desc>
	<desc xmlns:meow="https://bitcoinpussies.com/">
		<meow:traits>
			<meow:Skin>Grey, White</meow:Skin>
			<meow:Eyes>Wink</meow:Eyes>
			<meow:Gear>Pumpkin and bats</meow:Gear>
			<meow:Message>Nothing is as spooky as the unbacked fiat currency</meow:Message>
		</meow:traits>
	</desc>
	<path stroke="#8065a3" d="M0 0h50M0 1h50M0 2h50M0 3h50M0 4h50M0 5h4M7 5h1M9 5h1M11 5h1M15 5h35M0 6h5M14 6h36M0 7h6M13 7h37M0 8h8M11 8h39M0 9h9M10 9h16M28 9h10M39 9h1M41 9h9M0 10h25M28 10h8M43 10h7M0 11h24M27 11h8M44 11h6M0 12h24M28 12h7M37 12h1M41 12h1M44 12h6M0 13h21M30 13h5M36 13h3M40 13h3M44 13h6M0 14h20M31 14h19M0 15h19M32 15h18M0 16h19M32 16h18M0 17h19M32 17h18M0 18h12M39 18h11M0 19h12M39 19h11M0 20h12M39 20h11M0 21h13M38 21h12M0 22h13M38 22h12M0 23h4M5 23h1M7 23h7M37 23h13M0 24h3M8 24h7M36 24h14M0 25h5M6 25h9M36 25h6M43 25h1M45 25h5M0 26h15M36 26h4M47 26h3M0 27h15M36 27h5M46 27h4M0 28h16M35 28h8M44 28h6M0 29h12M15 29h1M35 29h15M0 30h11M15 30h2M34 30h16M0 31h10M14 31h5M32 31h18M0 32h10M14 32h4M32 32h18M0 33h10M14 33h3M33 33h17M0 34h10M15 34h1M34 34h16M0 35h11M15 35h1M34 35h16M0 36h11M35 36h15M0 37h12M35 37h15M0 38h13M35 38h15M0 39h16M34 39h16M0 40h17M33 40h17M0 41h18M32 41h18M0 42h15M35 42h15M0 43h17M33 43h17M0 44h19M31 44h19M0 45h50M0 46h50M0 47h50M0 48h50M0 49h50" />
	<path stroke="#000000" d="M4 5h3M8 5h1M10 5h1M12 5h3M6 6h2M9 6h1M11 6h2M8 7h3M8 8h3M9 9h1M38 9h1M40 9h1M36 10h2M39 10h1M41 10h2M35 11h2M38 11h3M42 11h2M35 12h1M38 12h3M43 12h1M35 13h1M39 13h1M43 13h1M21 16h9M19 17h2M30 17h2M12 18h7M32 18h7M12 19h1M38 19h1M12 20h1M38 20h1M13 21h1M37 21h1M13 22h1M37 22h1M4 23h1M6 23h1M14 23h2M20 23h2M29 23h1M35 23h2M3 24h5M15 24h1M20 24h2M28 24h1M30 24h1M35 24h1M5 25h1M15 25h1M25 25h1M35 25h1M42 25h1M44 25h1M15 26h1M24 26h1M26 26h1M35 26h1M40 26h2M43 26h1M45 26h2M15 27h1M35 27h1M42 27h3M16 28h1M34 28h1M43 28h1M12 29h3M16 29h1M34 29h1M11 30h1M14 30h1M17 30h2M32 30h2M10 31h1M13 31h1M10 32h1M13 32h1M10 33h1M13 33h1M10 34h1M14 34h1M11 35h1M14 35h1M11 36h1M12 37h1M13 38h2" />
	<path stroke="#6c6b6b" d="M5 6h1M13 6h1M6 7h2M11 7h2M37 11h1M41 11h1M36 12h1M42 12h1M41 27h1M45 27h1" />
	<path stroke="#b10009" d="M8 6h1M10 6h1M38 10h1M40 10h1M42 26h1M44 26h1" />
	<path stroke="#692f00" d="M26 9h2M25 10h1M27 10h1M24 11h1M26 11h1M24 12h1M26 12h2M21 13h9M20 14h1M30 14h1M19 15h1M31 15h1M19 16h1M31 16h1M19 31h13M18 32h1M31 32h1M17 33h1M32 33h1M16 34h1M33 34h1M16 35h1M33 35h1M15 36h1M34 36h1M15 37h1M34 37h1M15 38h1M34 38h1M16 39h1M33 39h1M17 40h1M32 40h1M18 41h14" />
	<path stroke="#e16600" d="M26 10h1M25 11h1M25 12h1M22 14h1M25 14h1M28 14h1M21 15h1M25 15h1M29 15h1M19 32h1M22 32h2M25 32h2M29 32h1M18 33h1M22 33h1M26 33h1M29 33h2M18 34h1M22 34h1M26 34h1M30 34h1M18 35h1M23 35h1M27 35h1M31 35h1M16 36h1M18 36h2M23 36h1M27 36h1M31 36h1M33 36h1M16 37h1M19 37h1M23 37h1M27 37h1M31 37h1M33 37h1M16 38h1M19 38h1M23 38h1M28 38h1M31 38h1M33 38h1M19 39h1M24 39h1M28 39h1M31 39h1M20 40h1M24 40h1M27 40h2M31 40h1" />
	<path stroke="#f2760d" d="M21 14h1M23 14h2M26 14h2M29 14h1M20 15h1M22 15h3M26 15h3M30 15h1M20 16h1M30 16h1M20 32h2M24 32h1M27 32h2M30 32h1M19 33h3M23 33h3M27 33h2M31 33h1M17 34h1M19 34h3M23 34h3M27 34h3M31 34h2M17 35h1M19 35h4M24 35h3M28 35h3M32 35h1M17 36h1M20 36h3M24 36h3M28 36h3M32 36h1M17 37h2M20 37h3M24 37h3M28 37h3M32 37h1M17 38h2M20 38h3M24 38h4M29 38h2M32 38h1M17 39h2M20 39h4M25 39h3M29 39h2M32 39h1M18 40h2M21 40h3M25 40h2M29 40h2" />
	<path stroke="#7b7b7b" d="M21 17h9M19 18h13M13 19h25M13 20h6M22 20h16M23 21h10M24 22h10M24 23h5M30 23h5M24 24h4M29 24h1M31 24h4M23 25h2M26 25h9M23 26h1M27 26h4M33 26h2M22 27h13M21 28h11M20 29h10M12 30h2M19 30h9M11 31h2M11 32h2M12 33h1M12 34h2M13 35h1M13 36h2" />
	<path stroke="#ffffff" d="M19 20h3M18 21h5M17 22h3M22 22h2M16 23h3M23 23h1M16 24h3M23 24h1M16 25h4M22 25h1M16 26h2M20 26h3M16 27h6M17 28h4M32 28h2M17 29h3M30 29h4M28 30h4M11 33h1M11 34h1M12 35h1M12 36h1M13 37h2" />
	<path stroke="#ffbcb2" d="M14 21h4M33 21h4M14 22h3M34 22h3" />
	<path stroke="#b19f35" d="M20 22h2M19 23h1M22 23h1M19 24h1M22 24h1M20 25h2" />
	<path stroke="#ffbcbd" d="M18 26h2M31 26h2" />
	<path stroke="#ffa3a5" d="M25 26h1" />
	<path stroke="#634688" d="M15 42h20M17 43h16M19 44h12" />
</svg>