<svg height="320" shape-rendering="crispEdges" viewBox="0 0 320 320" width="320" xmlns="http://www.w3.org/2000/svg"><rect fill="#d5d7e1" height="100%" width="100%"/><g fill="#caeff9"><path d="m90 210h140v10h-140z"/><path d="m90 220h140v10h-140z"/><path d="m90 230h140v10h-140z"/><path d="m90 240h140v10h-140z"/><path d="m90 250h20v10h-20z"/><path d="m120 250h110v10h-110z"/><path d="m90 260h20v10h-20z"/><path d="m120 260h110v10h-110z"/><path d="m90 270h20v10h-20z"/><path d="m120 270h110v10h-110z"/><path d="m90 280h20v10h-20z"/><path d="m120 280h110v10h-110z"/><path d="m90 290h20v10h-20z"/><path d="m120 290h110v10h-110z"/><path d="m90 300h20v10h-20z"/><path d="m120 300h110v10h-110z"/><path d="m90 310h20v10h-20z"/><path d="m120 310h110v10h-110z"/></g><path d="m130 220h20v10h-20z" fill="#648df9"/><path d="m160 220h10v10h-10z" fill="#fa6fe2"/><path d="m190 220h10v10h-10z" fill="#fa6fe2"/><path d="m110 230h10v10h-10z" fill="#648df9"/><path d="m130 230h30v10h-30z" fill="#648df9"/><path d="m180 230h10v10h-10z" fill="#fa6fe2"/><path d="m120 240h10v10h-10z" fill="#648df9"/><path d="m160 240h10v10h-10z" fill="#648df9"/><path d="m190 240h20v10h-20z" fill="#fa6fe2"/><path d="m140 250h20v10h-20z" fill="#ffe939"/><path d="m170 250h10v10h-10z" fill="#648df9"/><path d="m190 250h20v10h-20z" fill="#fa6fe2"/><path d="m130 260h10v10h-10z" fill="#ffe939"/><path d="m150 260h10v10h-10z" fill="#4bea69"/><path d="m160 260h10v10h-10z" fill="#ffe939"/><path d="m170 260h10v10h-10z" fill="#648df9"/><path d="m190 260h10v10h-10z" fill="#fa6fe2"/><path d="m120 270h10v10h-10z" fill="#ffe939"/><path d="m140 270h10v10h-10z" fill="#4bea69"/><path d="m150 270h10v10h-10z" fill="#fa6fe2"/><path d="m160 270h10v10h-10z" fill="#648df9"/><path d="m180 270h10v10h-10z" fill="#fa6fe2"/><path d="m200 270h10v10h-10z" fill="#4bea69"/><path d="m120 280h10v10h-10z" fill="#ffe939"/><path d="m140 280h10v10h-10z" fill="#4bea69"/><path d="m160 280h20v10h-20z" fill="#fa6fe2"/><path d="m120 290h10v10h-10z" fill="#ffe939"/><path d="m150 290h10v10h-10z" fill="#4bea69"/><path d="m190 290h10v10h-10z" fill="#4bea69"/><path d="m130 300h10v10h-10z" fill="#ffe939"/><path d="m160 300h30v10h-30z" fill="#4bea69"/><path d="m200 300h10v10h-10z" fill="#4bea69"/><path d="m120 310h10v10h-10z" fill="#ffe939"/><path d="m150 310h10v10h-10z" fill="#ffe939"/><path d="m170 310h20v10h-20z" fill="#4bea69"/><path d="m140 10h30v10h-30z" fill="#ffc110"/><path d="m110 20h10v10h-10z" fill="#ffc110"/><path d="m120 20h20v10h-20z" fill="#5648ed"/><path d="m140 20h10v10h-10z" fill="#ffc110"/><path d="m150 20h10v10h-10z" fill="#5648ed"/><path d="m160 20h10v10h-10z" fill="#ffc110"/><path d="m170 20h20v10h-20z" fill="#5648ed"/><path d="m190 20h10v10h-10z" fill="#ffc110"/><path d="m110 30h20v10h-20z" fill="#5648ed"/><path d="m130 30h10v10h-10z" fill="#ffc110"/><path d="m140 30h30v10h-30z" fill="#5648ed"/><path d="m170 30h10v10h-10z" fill="#ffc110"/><path d="m180 30h20v10h-20z" fill="#5648ed"/><path d="m100 40h10v10h-10z" fill="#068940"/><path d="m110 40h40v10h-40z" fill="#5648ed"/><path d="m150 40h10v10h-10z" fill="#068940"/><path d="m160 40h40v10h-40z" fill="#5648ed"/><path d="m200 40h10v10h-10z" fill="#068940"/><path d="m90 50h130v10h-130z" fill="#5648ed"/><path d="m90 60h10v10h-10z" fill="#5648ed"/><path d="m100 60h10v10h-10z" fill="#ffc110"/><path d="m110 60h40v10h-40z" fill="#5648ed"/><path d="m150 60h10v10h-10z" fill="#ffc110"/><path d="m160 60h40v10h-40z" fill="#5648ed"/><path d="m200 60h10v10h-10z" fill="#ffc110"/><path d="m210 60h10v10h-10z" fill="#5648ed"/><path d="m80 70h10v10h-10z" fill="#5648ed"/><path d="m90 70h10v10h-10z" fill="#ffc110"/><path d="m100 70h10v10h-10z" fill="#b92b3c"/><path d="m110 70h10v10h-10z" fill="#ffc110"/><path d="m120 70h20v10h-20z" fill="#5648ed"/><path d="m140 70h10v10h-10z" fill="#ffc110"/><path d="m150 70h10v10h-10z" fill="#b92b3c"/><path d="m160 70h10v10h-10z" fill="#ffc110"/><path d="m170 70h20v10h-20z" fill="#5648ed"/><path d="m190 70h10v10h-10z" fill="#ffc110"/><path d="m200 70h10v10h-10z" fill="#b92b3c"/><path d="m210 70h10v10h-10z" fill="#ffc110"/><path d="m220 70h10v10h-10z" fill="#5648ed"/><path d="m80 80h20v10h-20z" fill="#5648ed"/><path d="m100 80h10v10h-10z" fill="#ffc110"/><path d="m110 80h40v10h-40z" fill="#5648ed"/><path d="m150 80h10v10h-10z" fill="#ffc110"/><path d="m160 80h40v10h-40z" fill="#5648ed"/><path d="m200 80h10v10h-10z" fill="#ffc110"/><path d="m210 80h20v10h-20z" fill="#5648ed"/><path d="m70 90h170v10h-170z" fill="#5648ed"/><path d="m70 100h170v10h-170z" fill="#ffc110"/><path d="m60 110h190v10h-190z" fill="#ffc110"/><path d="m70 120h170v10h-170z" fill="#d08b11"/><path d="m70 130h170v10h-170z" fill="#5648ed"/><path d="m70 140h170v10h-170z" fill="#5648ed"/><path d="m80 150h150v10h-150z" fill="#5648ed"/><path d="m80 160h150v10h-150z" fill="#5648ed"/><path d="m80 170h150v10h-150z" fill="#5648ed"/><path d="m90 180h130v10h-130z" fill="#5648ed"/><path d="m90 190h60v10h-60z" fill="#ffc110"/><path d="m150 190h30v10h-30z"/><path d="m180 190h30v10h-30z" fill="#ffc110"/><path d="m110 200h90v10h-90z" fill="#d08b11"/><path d="m100 110h60v10h-60z" fill="#f3322c"/><path d="m170 110h60v10h-60z" fill="#f3322c"/><path d="m100 120h10v10h-10z" fill="#f3322c"/><path d="m110 120h20v10h-20z" fill="#fff"/><path d="m130 120h20v10h-20z"/><path d="m150 120h10v10h-10z" fill="#f3322c"/><path d="m170 120h10v10h-10z" fill="#f3322c"/><path d="m180 120h20v10h-20z" fill="#fff"/><path d="m200 120h20v10h-20z"/><path d="m220 120h10v10h-10z" fill="#f3322c"/><path d="m70 130h40v10h-40z" fill="#f3322c"/><path d="m110 130h20v10h-20z" fill="#fff"/><path d="m130 130h20v10h-20z"/><path d="m150 130h30v10h-30z" fill="#f3322c"/><path d="m180 130h20v10h-20z" fill="#fff"/><path d="m200 130h20v10h-20z"/><path d="m220 130h10v10h-10z" fill="#f3322c"/><path d="m70 140h10v10h-10z" fill="#f3322c"/><path d="m100 140h10v10h-10z" fill="#f3322c"/><path d="m110 140h20v10h-20z" fill="#fff"/><path d="m130 140h20v10h-20z"/><path d="m150 140h10v10h-10z" fill="#f3322c"/><path d="m170 140h10v10h-10z" fill="#f3322c"/><path d="m180 140h20v10h-20z" fill="#fff"/><path d="m200 140h20v10h-20z"/><path d="m220 140h10v10h-10z" fill="#f3322c"/><path d="m70 150h10v10h-10z" fill="#f3322c"/><path d="m100 150h10v10h-10z" fill="#f3322c"/><path d="m110 150h20v10h-20z" fill="#fff"/><path d="m130 150h20v10h-20z"/><path d="m150 150h10v10h-10z" fill="#f3322c"/><path d="m170 150h10v10h-10z" fill="#f3322c"/><path d="m180 150h20v10h-20z" fill="#fff"/><path d="m200 150h20v10h-20z"/><path d="m220 150h10v10h-10z" fill="#f3322c"/><path d="m100 160h60v10h-60z" fill="#f3322c"/><path d="m170 160h60v10h-60z" fill="#f3322c"/></svg>