<svg xmlns="http://www.w3.org/2000/svg" width="512" height="512" fill="none"><path fill="#F90" d="M0 0h512v512H0z"/><path fill="#0097D8" d="M84 340h344v160H84z"/><path fill="#2C71A3" d="m388 407 40-32v12l-40 20ZM124 407l-40-32v12l40 20ZM124 430l-40 36v-16l40-20ZM388 430l40 36v-16l-40-20Z"/><g><animateTransform attributeName="transform" dur="0.4s" keyTimes="0;0.5;1" repeatCount="indefinite" type="translate" values="0 0;0 28;0 0"/><path fill="#00B2FF" d="M196 176h120v296H196z"/><path fill="#2C71A3" d="m227 400-31 31v-16l31-15ZM222 336l-26 8v-16l26 8ZM276 347l40 36v-16l-40-20ZM276 324l40-32v12l-40 20Z"/><path fill="#0097D8" d="M196 96h120v80H196z"/><path fill="#00B2FF" d="M250 96h12v36h-12z"><animate attributeName="fill" begin="5s" dur="0.4s" repeatCount="5" values="#00B2FF; #fff; #00B2FF"/></path><path fill="#165B32" d="M196 78.21 256 58l60 20.21V122H196V78.21Z"/><path fill="#FEED59" d="m256 78 4.702 9.528 10.515 1.528-7.609 7.416 1.797 10.472L256 102l-9.405 4.944 1.797-10.472-7.609-7.416 10.515-1.528L256 78ZM196 122h120v16H196z"/><path fill="#0C4122" d="M196 138h120v10.667L256 162l-60-13.333V138Z"/><path fill="#121212" d="M196 176h120v52l-39 4-21-16-21 16-39-4v-52Z"/><path fill="#D22D27" d="M204 192h104v20H204z"><animate attributeName="fill" dur="8s" keyTimes="0;0.05;0.075;0.1;0.12;0.15;0.5;0.55;1" repeatCount="indefinite" values="#6C0400;#FF0900;#6C0400;#FF0900;#6C0400;#FF0900;#FF0900;#6C0400;#6C0400"/></path><path fill="#fff" d="M216 324h80l-4 17-4 16h-64l-4-16-4-17Z"/><path stroke="#121212" stroke-width="6" d="m220 341 4 16h64l4-16m-72 0-4-17h80l-4 17m-72 0h72"/><path fill="#FFB74A" stroke="#121212" stroke-width="6" d="M256.25 441.5c-37.25 0-57.25-24-57.25-24l46.841-76.5h20.818l46.841 76.5s-20 24-57.25 24Z"/><path fill="#F90" stroke="#121212" stroke-width="6" d="M256.25 441.5c-37.25 0-57.25-24-57.25-24l7.654-12.5s17.846 19 49.596 19c28.75 0 49.596-19 49.596-19l7.654 12.5s-20 24-57.25 24Z"/><circle cx="241" cy="399" r="12" fill="#D22D27"/><circle cx="257" cy="361" r="10" fill="#D22D27"/><circle cx="273" cy="391" r="10" fill="#D22D27"/></g></svg>