<?xml version="1.0" encoding="UTF-8"?><svg xmlns="http://www.w3.org/2000/svg" viewBox="0 0 198.41 340.44"><defs><style>.f{fill:#0a0b00;}.g{opacity:.78;}.g,.h{stroke:#f2f2f2;}.g,.h,.i,.j,.k{fill:none;stroke-miterlimit:10;}.l{mix-blend-mode:lighten;}.m{isolation:isolate;}.h,.i,.k{stroke-width:.5px;}.i,.j{stroke:#ff0;}.k{stroke:#999;}.n{fill:#999;}.o{fill:#ff0;opacity:.23;}.p{fill:#f2f2f2;}</style></defs><g class="m"><g id="b"><g id="c"><g id="d"><rect class="p" width="198.41" height="340.44" rx="1.34" ry="1.34"/><g id="e"><path class="f" d="m6.93,333.78c-1.16,0-2.1-.87-2.1-1.95V8.61c0-1.08.94-1.95,2.1-1.95h184.55c1.16,0,2.1.87,2.1,1.95v323.22c0,1.08-.94,1.95-2.1,1.95"/></g><rect class="h" x="7.74" y="9.51" width="182.94" height="321.42" rx="1.34" ry="1.34"/><path class="p" d="m86,28.68h-.87l-3.14-8.05h-.48c-.11,0-.2-.01-.24-.03s-.09-.06-.12-.11c-.03-.05-.05-.11-.05-.17s.02-.11.05-.17c.03-.05.07-.09.12-.11.05-.02.13-.03.24-.03h2.32c.12,0,.2.01.25.03.05.02.09.06.12.11.03.05.05.11.05.17s-.02.12-.05.17-.08.09-.12.11c-.05.02-.13.03-.24.03h-1.19l2.89,7.43h.04l2.85-7.43h-1.19c-.12,0-.2-.01-.25-.03s-.09-.06-.12-.11-.05-.11-.05-.17.02-.11.05-.17c.03-.05.08-.09.12-.11.05-.02.13-.03.25-.03h2.31c.12,0,.2.01.25.03.05.02.09.06.12.11.03.05.05.11.05.17s-.02.12-.05.17-.08.09-.12.11c-.05.02-.13.03-.25.03h-.47l-3.08,8.05Z"/><path class="p" d="m94.96,20.62v7.43h2.14c.15,0,.25.03.32.08.06.06.1.13.1.23,0,.09-.03.16-.1.22s-.17.09-.32.09h-4.89c-.15,0-.25-.03-.32-.09-.06-.06-.1-.13-.1-.22,0-.09.03-.17.1-.23.06-.06.17-.08.32-.08h2.14v-7.43h-2.14c-.15,0-.25-.03-.32-.08-.06-.06-.1-.13-.1-.23s.03-.17.1-.23c.06-.06.17-.09.32-.09h4.89c.15,0,.25.03.32.09s.1.13.1.23-.03.17-.1.23-.17.08-.32.08h-2.14Z"/><path class="p" d="m104.08,20.62v7.43h2.14c.15,0,.25.03.32.08.06.06.1.13.1.23,0,.09-.03.16-.1.22s-.17.09-.32.09h-4.89c-.15,0-.25-.03-.32-.09-.06-.06-.1-.13-.1-.22,0-.09.03-.17.1-.23.06-.06.17-.08.32-.08h2.14v-7.43h-2.14c-.15,0-.25-.03-.32-.08-.06-.06-.1-.13-.1-.23s.03-.17.1-.23c.06-.06.17-.09.32-.09h4.89c.15,0,.25.03.32.09s.1.13.1.23-.03.17-.1.23-.17.08-.32.08h-2.14Z"/><path class="p" d="m113.19,20.62v7.43h2.14c.15,0,.25.03.32.08.06.06.1.13.1.23,0,.09-.03.16-.1.22s-.17.09-.32.09h-4.89c-.15,0-.25-.03-.32-.09-.06-.06-.1-.13-.1-.22,0-.09.03-.17.1-.23.06-.06.17-.08.32-.08h2.14v-7.43h-2.14c-.15,0-.25-.03-.32-.08-.06-.06-.1-.13-.1-.23s.03-.17.1-.23c.06-.06.17-.09.32-.09h4.89c.15,0,.25.03.32.09s.1.13.1.23-.03.17-.1.23-.17.08-.32.08h-2.14Z"/><g class="l"><line class="i" x1="40.78" y1="127.81" x2="40.74" y2="157.99"/><polygon class="o" points="66.49 172.12 40.74 157.99 40.78 127.81 66.49 172.12"/><polygon class="j" points="66.89 172.43 14.68 172.43 40.78 127.81 66.89 172.43"/><line class="i" x1="40.74" y1="157.99" x2="14.68" y2="172.43"/><line class="i" x1="40.74" y1="157.99" x2="66.89" y2="172.43"/><line class="i" x1="158.43" y1="127.81" x2="158.48" y2="158"/><polygon class="o" points="132.93 172.12 158.68 158 158.43 127.81 132.93 172.12"/><polygon class="j" points="132.33 172.43 184.54 172.43 158.43 127.81 132.33 172.43"/><line class="i" x1="158.48" y1="158" x2="184.54" y2="172.43"/><line class="i" x1="158.48" y1="158" x2="132.33" y2="172.43"/><line class="i" x1="40.78" y1="86.64" x2="40.83" y2="131.26"/><polygon class="o" points="14.87 130.95 40.83 130.95 40.82 86.64 14.87 130.95"/><polygon class="j" points="14.68 131.26 66.89 131.26 40.78 86.64 14.68 131.26"/><line class="i" x1="158.43" y1="86.64" x2="158.39" y2="131.26"/><polygon class="o" points="184.34 130.95 158.39 130.95 158.43 86.64 184.34 130.95"/><polygon class="j" points="184.54 131.26 132.33 131.26 158.43 86.64 184.54 131.26"/><line class="i" x1="99.63" y1="86.64" x2="99.67" y2="116.82"/><polygon class="o" points="74.13 130.95 99.88 116.82 125.2 130.96 74.13 130.95"/><polygon class="j" points="73.53 131.26 125.73 131.26 99.63 86.64 73.53 131.26"/><line class="i" x1="99.67" y1="116.82" x2="125.73" y2="131.26"/><line class="i" x1="99.67" y1="116.82" x2="73.53" y2="131.26"/><line class="i" x1="99.63" y1="208.9" x2="99.67" y2="239.09"/><polygon class="o" points="74.12 253.21 99.87 239.09 125.73 253.52 74.12 253.21"/><polygon class="j" points="73.52 253.52 125.73 253.52 99.63 208.9 73.52 253.52"/><line class="i" x1="99.67" y1="239.09" x2="125.73" y2="253.52"/><line class="i" x1="99.67" y1="239.09" x2="73.52" y2="253.52"/><line class="i" x1="133.3" y1="170.78" x2="133.26" y2="215.4"/><polygon class="o" points="159.41 215.4 133.26 215.1 133.3 170.78 159.41 215.4"/><polygon class="j" points="159.41 215.4 107.2 215.4 133.3 170.78 159.41 215.4"/><line class="g" x1="107.33" y1="193.09" x2="159.27" y2="193.09"/><line class="i" x1="65.96" y1="170.78" x2="66.01" y2="215.4"/><polygon class="o" points="40.05 215.1 66.01 215.1 66 170.78 40.05 215.1"/><polygon class="j" points="39.86 215.4 92.07 215.4 65.96 170.78 39.86 215.4"/><line class="g" x1="39.99" y1="193.09" x2="91.93" y2="193.09"/><line class="g" x1="125.6" y1="231.21" x2="73.66" y2="231.21"/><line class="g" x1="184.4" y1="150.12" x2="132.46" y2="150.12"/><line class="g" x1="184.45" y1="108.95" x2="132.51" y2="108.95"/><line class="g" x1="125.6" y1="108.95" x2="73.66" y2="108.95"/><line class="g" x1="65.83" y1="108.95" x2="13.89" y2="108.95"/><line class="g" x1="66.75" y1="150.12" x2="14.81" y2="150.12"/></g><path class="n" d="m98.48,304.9v1.18h.42c.06,0,.09.01.12.03.02.02.03.05.03.08,0,.03-.01.06-.03.08-.02.02-.06.03-.12.03h-.94c-.05,0-.09-.01-.12-.03-.02-.02-.03-.05-.03-.08,0-.03.01-.06.03-.08.02-.02.06-.03.12-.03h.3v-2.69h-.3c-.05,0-.09-.01-.12-.03-.02-.02-.03-.05-.03-.08s.01-.06.03-.08c.02-.02.06-.03.12-.03h1.36c.28,0,.52.09.71.27.19.18.29.38.29.6,0,.16-.06.31-.18.45-.12.14-.32.26-.6.36.16.11.3.24.41.38.11.14.3.43.55.86h.17c.05,0,.09.01.12.03.02.02.03.05.03.08,0,.03-.01.06-.03.08-.02.02-.06.03-.12.03h-.3c-.28-.5-.49-.83-.65-1-.15-.17-.33-.3-.53-.4h-.72Zm0-.23h.61c.2,0,.38-.04.54-.11.16-.07.28-.16.35-.25s.11-.19.11-.3c0-.15-.08-.29-.23-.43-.15-.14-.33-.2-.55-.2h-.83v1.29Z"/><path class="n" d="m93.05,312.33h-1.48l-.3.82h.43c.05,0,.09.01.12.03.02.02.03.05.03.08,0,.03-.01.06-.03.08-.02.02-.06.03-.12.03h-.84c-.05,0-.09-.01-.12-.03-.02-.02-.03-.05-.03-.08,0-.03.01-.06.03-.08.02-.02.06-.03.12-.03h.17l1-2.69h-.67c-.05,0-.09-.01-.12-.03-.02-.02-.03-.05-.03-.08s.01-.06.03-.08c.02-.02.06-.03.12-.03h1.13l1.1,2.91h.17c.05,0,.09.01.12.03.02.02.03.05.03.08,0,.03-.01.06-.03.08-.02.02-.06.03-.12.03h-.84c-.06,0-.09-.01-.12-.03-.02-.02-.03-.05-.03-.08,0-.03.01-.06.03-.08.02-.02.06-.03.12-.03h.43l-.31-.82Zm-.09-.23l-.62-1.64h-.08l-.6,1.64h1.31Z"/><path class="n" d="m107.72,311.89c0,.3-.06.58-.18.84-.12.26-.29.46-.5.6-.21.14-.44.21-.69.21-.36,0-.68-.15-.96-.46s-.41-.7-.41-1.19.14-.88.41-1.19c.28-.31.6-.46.96-.46.25,0,.47.07.69.21.21.14.38.34.5.6.12.26.18.53.18.84Zm-.23,0c0-.37-.11-.7-.32-.99-.21-.29-.49-.44-.83-.44-.32,0-.59.14-.81.42-.22.28-.34.61-.34,1.01,0,.42.12.76.35,1.03.24.27.5.4.8.4.34,0,.61-.15.83-.44.21-.29.32-.62.32-.99Z"/><path class="n" d="m99.32,317.24v2.69h.58c.05,0,.09.01.12.03.02.02.03.05.03.08,0,.03-.01.06-.03.08-.02.02-.06.03-.12.03h-1.4c-.05,0-.09-.01-.12-.03-.02-.02-.03-.05-.03-.08,0-.03.01-.06.03-.08.02-.02.06-.03.12-.03h.58v-2.69h-.92v.78c0,.06-.01.09-.03.12-.02.02-.05.03-.08.03-.03,0-.06-.01-.08-.03-.02-.02-.03-.06-.03-.12v-1.01h2.52v1.01c0,.06-.01.09-.03.12-.02.02-.05.03-.08.03s-.06-.01-.08-.03c-.02-.02-.03-.06-.03-.12v-.78h-.92Z"/><path class="k" d="m106.34,309.6c-.74-2.52-2.78-4.48-5.33-5.11"/><path class="k" d="m101.02,318.88c2.37-.59,4.28-2.31,5.14-4.55"/><path class="k" d="m92.32,314.33c.84,2.2,2.7,3.89,4.99,4.51"/><path class="k" d="m97.55,304.64c-2.54.67-4.55,2.65-5.25,5.18"/></g></g></g></g></svg>