<svg id="ebEFpfyDJSX1" xmlns="http://www.w3.org/2000/svg" xmlns:xlink="http://www.w3.org/1999/xlink" viewBox="0 0 1080 1080" shape-rendering="geometricPrecision" text-rendering="geometricPrecision" width="1080" height="1080">
<style><![CDATA[
#ebEFpfyDJSX4_to {animation: ebEFpfyDJSX4_to__to 750ms linear infinite normal forwards}@keyframes ebEFpfyDJSX4_to__to { 0% {transform: translate(167.483px,757.268px);animation-timing-function: step-start} 18.666667% {transform: translate(-133.092816px,727.901398px);animation-timing-function: step-start} 29.333333% {transform: translate(-125.545791px,476.329421px);animation-timing-function: step-start} 40% {transform: translate(-59.902797px,333.148998px);animation-timing-function: step-start} 53.333333% {transform: translate(131.843844px,764.648038px);animation-timing-function: step-start} 66.666667% {transform: translate(211.306416px,965.031914px);animation-timing-function: step-start} 80% {transform: translate(188.849602px,1015.127883px);animation-timing-function: step-start} 100% {transform: translate(159.482999px,1071.51176px)}} #ebEFpfyDJSX8_to {animation: ebEFpfyDJSX8_to__to 750ms linear infinite normal forwards}@keyframes ebEFpfyDJSX8_to__to { 0% {transform: translate(431.605px,565.136px);animation-timing-function: step-start} 18.666667% {transform: translate(131.029184px,577.228131px);animation-timing-function: step-start} 29.333333% {transform: translate(138.576209px,450.579378px);animation-timing-function: step-start} 40% {transform: translate(204.219203px,473.398955px);animation-timing-function: step-start} 53.333333% {transform: translate(395.965844px,954.897995px);animation-timing-function: step-start} 66.666667% {transform: translate(475.428416px,920.34905px);animation-timing-function: step-start} 80% {transform: translate(452.971602px,854.706056px);animation-timing-function: step-start} 100% {transform: translate(423.604999px,661.519876px)}} #ebEFpfyDJSX12_to {animation: ebEFpfyDJSX12_to__to 750ms linear infinite normal forwards}@keyframes ebEFpfyDJSX12_to__to { 0% {transform: translate(681.62px,592.375px);animation-timing-function: step-start} 18.666667% {transform: translate(381.044184px,575.100528px);animation-timing-function: step-start} 29.333333% {transform: translate(388.591209px,645.017994px);animation-timing-function: step-start} 40% {transform: translate(454.234203px,880.837571px);animation-timing-function: step-start} 53.333333% {transform: translate(645.980844px,979.336611px);animation-timing-function: step-start} 66.666667% {transform: translate(725.443416px,739.221447px);animation-timing-function: step-start} 80% {transform: translate(702.986602px,431.735842px);animation-timing-function: step-start} 100% {transform: translate(673.619999px,495.651389px)}} #ebEFpfyDJSX16_to {animation: ebEFpfyDJSX16_to__to 750ms linear infinite normal forwards}@keyframes ebEFpfyDJSX16_to__to { 0% {transform: translate(929.33px,891.736px);animation-timing-function: step-start} 18.666667% {transform: translate(628.754184px,808.818534px);animation-timing-function: step-start} 29.333333% {transform: translate(636.301209px,1026.476883px);animation-timing-function: step-start} 40% {transform: translate(701.944203px,1057.29646px);animation-timing-function: step-start} 53.333333% {transform: translate(893.690844px,937.7955px);animation-timing-function: step-start} 66.666667% {transform: translate(973.153416px,336.643868px);animation-timing-function: step-start} 80% {transform: translate(950.696602px,322.82429px);animation-timing-function: step-start} 100% {transform: translate(921.329999px,523.208167px)}} #ebEFpfyDJSX20_to {animation: ebEFpfyDJSX20_to__to 750ms linear infinite normal forwards}@keyframes ebEFpfyDJSX20_to__to { 0% {transform: translate(133.235px,543.354px);animation-timing-function: step-start} 18.666667% {transform: translate(-115.517399px,541.626553px);animation-timing-function: step-start} 29.333333% {transform: translate(-336.630642px,418.9778px);animation-timing-function: step-start} 40% {transform: translate(-486.91855px,303.238837px);animation-timing-function: step-start} 53.333333% {transform: translate(-780.584577px,227.23116px);animation-timing-function: step-start} 66.666667% {transform: translate(-1141.621045px,209.956688px);animation-timing-function: step-start} 80% {transform: translate(-1376.553867px,284.236919px);animation-timing-function: step-start} 100% {transform: translate(-1627.033713px,460.436535px)}} #ebEFpfyDJSX27_to {animation: ebEFpfyDJSX27_to__to 750ms linear infinite normal forwards}@keyframes ebEFpfyDJSX27_to__to { 0% {transform: translate(30.3767px,968.888px);animation-timing-function: step-start} 18.666667% {transform: translate(-259.834432px,947.064583px);animation-timing-function: step-start} 29.333333% {transform: translate(-261.561879px,482.304506px);animation-timing-function: step-start} 40% {transform: translate(-185.554201px,333.106809px);animation-timing-function: step-start} 53.333333% {transform: translate(61.470751px,786.010839px);animation-timing-function: step-start} 66.666667% {transform: translate(249.762498px,1034.763238px);animation-timing-function: step-start} 80% {transform: translate(201.393976px,1069.312183px);animation-timing-function: step-start} 100% {transform: translate(189.570559px,1199.887998px)}} #ebEFpfyDJSX31_to {animation: ebEFpfyDJSX31_to__to 750ms linear infinite normal forwards}@keyframes ebEFpfyDJSX31_to__to { 0% {transform: translate(315.799px,666.938px);animation-timing-function: step-start} 18.666667% {transform: translate(25.587868px,634.114583px);animation-timing-function: step-start} 29.333333% {transform: translate(23.860421px,450.039727px);animation-timing-function: step-start} 40% {transform: translate(99.868099px,477.139535px);animation-timing-function: step-start} 53.333333% {transform: translate(346.893051px,1008.043565px);animation-timing-function: step-start} 66.666667% {transform: translate(497.180959px,1002.861223px);animation-timing-function: step-start} 80% {transform: translate(517.910326px,930.308441px);animation-timing-function: step-start} 100% {transform: translate(459.17712px,792.131857px)}} #ebEFpfyDJSX35_to {animation: ebEFpfyDJSX35_to__to 750ms linear infinite normal forwards}@keyframes ebEFpfyDJSX35_to__to { 0% {transform: translate(564.442px,672.038px);animation-timing-function: step-start} 18.666667% {transform: translate(274.230868px,626.214583px);animation-timing-function: step-start} 26.666667% {transform: translate(272.503421px,640.139727px)} 29.333333% {transform: translate(272.503421px,635.139727px);animation-timing-function: step-start} 40% {transform: translate(348.511099px,878.239535px);animation-timing-function: step-start} 53.333333% {transform: translate(595.536051px,1040.143565px);animation-timing-function: step-start} 66.666667% {transform: translate(745.823958px,832.849899px);animation-timing-function: step-start} 80% {transform: translate(759.643536px,546.093661px);animation-timing-function: step-start} 100% {transform: translate(721.639697px,616.918997px)}} #ebEFpfyDJSX39_to {animation: ebEFpfyDJSX39_to__to 750ms linear infinite normal forwards}@keyframes ebEFpfyDJSX39_to__to { 0% {transform: translate(810.534px,919.405px);animation-timing-function: step-start} 18.666667% {transform: translate(520.322868px,867.581583px);animation-timing-function: step-start} 29.333333% {transform: translate(518.595421px,1030.506727px);animation-timing-function: step-start} 40% {transform: translate(594.603099px,1038.606535px);animation-timing-function: step-start} 53.333333% {transform: translate(841.628051px,987.510565px);animation-timing-function: step-start} 66.666667% {transform: translate(994.733617px,418.362772px);animation-timing-function: step-start} 80% {transform: translate(1027.555114px,364.811909px);animation-timing-function: step-start} 100% {transform: translate(975.731697px,665.387724px)}} #ebEFpfyDJSX43_to {animation: ebEFpfyDJSX43_to__to 750ms linear infinite normal forwards}@keyframes ebEFpfyDJSX43_to__to { 0% {transform: translate(53.109px,636.995px);animation-timing-function: step-start} 18.666667% {transform: translate(-227.09597px,592.853817px);animation-timing-function: step-start} 29.333333% {transform: translate(-451.664108px,416.701662px);animation-timing-function: step-start} 40% {transform: translate(-586.69508px,307.127971px);animation-timing-function: step-start} 53.333333% {transform: translate(-823.354597px,286.514436px);animation-timing-function: step-start} 66.666667% {transform: translate(-1103.201046px,277.8772px);animation-timing-function: step-start} 80% {transform: translate(-1277.673215px,323.153592px);animation-timing-function: step-start} 100% {transform: translate(-1588.613714px,589.90791px)}} #ebEFpfyDJSX50_to {animation: ebEFpfyDJSX50_to__to 750ms linear infinite normal forwards}@keyframes ebEFpfyDJSX50_to__to { 0% {transform: translate(460.531839px,616.047813px);animation-timing-function: step-start} 18.666667% {transform: translate(377.070614px,614.77622px);animation-timing-function: step-start} 29.333333% {transform: translate(343.081491px,624.773021px);animation-timing-function: step-start} 40% {transform: translate(372.16501px,780.854573px);animation-timing-function: step-start} 53.333333% {transform: translate(535.032718px,980.561404px);animation-timing-function: step-start} 66.666667% {transform: translate(648.45841px,858.410624px);animation-timing-function: step-start} 80% {transform: translate(647.488959px,682.940059px);animation-timing-function: step-start} 100% {transform: translate(547.635544px,656.764892px)}} #ebEFpfyDJSX50_tr {animation: ebEFpfyDJSX50_tr__tr 750ms linear infinite normal forwards}@keyframes ebEFpfyDJSX50_tr__tr { 0% {transform: rotate(1deg);animation-timing-function: step-start} 18.666667% {transform: rotate(29deg);animation-timing-function: step-start} 29.333333% {transform: rotate(60deg);animation-timing-function: step-start} 40% {transform: rotate(55deg);animation-timing-function: step-start} 53.333333% {transform: rotate(6deg);animation-timing-function: step-start} 66.666667% {transform: rotate(-36deg);animation-timing-function: step-start} 80% {transform: rotate(-61deg);animation-timing-function: step-start} 100% {transform: rotate(-36deg)}}
]]></style>
<g><rect width="264.26444" height="206.093022" rx="0" ry="0" transform="matrix(4.086815 0 0 5.240352 0 0)" fill="#9bbbc2" stroke-width="0"/><g id="ebEFpfyDJSX4_to" transform="translate(167.483,757.268)"><g transform="translate(0,0)"><path d="M8,5.5h30.9v629.6h-30.9Z" fill="#77695d"/><path d="M33.3,0c-9.5.5-19.1,2-28.9,4.3-.327446.102607-.609812.314382-.8.6-2.4,3.3-3,6.8-1.8,10.5.381746,1.091647.272342,2.295088-.3,3.3-.9,7.2-1,12-.5,14.3c1,4.4,1.7,9,2,13.5.4,13.6-1.6,26.9-.4,40.4c1.6,18.5,2.2,39.2.7,59.2-.8,11.5.3,21.6.1,32.4-.8,12-.7,24,.3,36l.5,27.7L4,258.5c0,13.4.2,26.7-.7,40-1,14.4-2.8,26.4-2.6,39.4.1,9.1-.5,16.8-.7,25.3v2.2c1,9,.9,18.7,1.7,26.8c1.899168,14.182813,2.43495,28.514977,1.6,42.8-.469346,15.496447-.469346,31.003553,0,46.5l-2,27.7c-.570802,4.854539-.503564,9.762918.2,14.6.3,9.6.7,19.2,1.3,28.8.3,5.2-.4,10.4-.5,15.6-.1,1.8-.3,3.5-.7,5.1-.5,2.2.2,3.6.7,5.7.7,7.7,1.6,14.8,1.5,23-.1,3.7,0,7.5.3,11.2-.3,7-.2,14,.3,20.8c0,.5.3.9,1,1h6l-.5-28.4.3-3.5c.2-1.7-.4-3.3-.4-4.9.1-7.1,0-14.2-.1-21.4-.3-7.6.8-16.3.2-24.6-.2-3,.5-7.1-.4-10.7-.3-1-.3-2.6,0-4.8c1-7.6,1-15.3.3-23c0-.4.5-1.3.5-2c.7-8.3,1-16.6,1.2-24.9.1-7.4-1-16.1-1.2-24.2c0-.7.5-1.7.4-2.5l-1-39.8c-.2-5.1.5-10.8.5-14.8.1-12.1-1.1-26.6-.6-40c.8-16.6-.3-33.3.2-50c1.4-48.5-.4-103.4-.6-145.8c0-6.2-.4-12.4-.3-17.7.6-19,2.4-38,3-56.8.3-8.3-1.4-16.4-1.3-25c0-3.5-.8-8.2,0-13c.3-2.8-.3-6-.3-8.3-.1-12.6,0-25.2.1-37.7.003359-.513913.169688-.929736.4-1l5.1-1.7c.131417-.096751.292615-.052179.418547.115729s.195816.431448.181453.684271c0,2.4-1.3,10.4.1,11.9.094427.125903.242621.2.4.2s.305573-.074097.4-.2c2.5-2.2,2.6-8.8,3-11.9.080385-.614748.41587-1.076041.8-1.1l11-1.1c.118301-.043593.243978.010436.341342.146746s.155779.340009.158658.553254c.1,9.7.4,19.4,1,29c.8,14.5-3.1,31-2.2,43.2c1,13.9.8,24.5-.2,38.1-.5,7.4-.8,14-.8,20l.4,50.3.4,65c0,12.6,1,26.2,1.3,39.4.2,5.2,1.1,16.5.7,24.8-.3,4.5-.4,8.3-.2,11.3c1.3,38.4-3.6,78.1-3.5,117.2c0,23.5.3,47,1.2,70.6.1,3.3.4,6.9.8,10.6c2.4,20.8,4,38.3,4.9,52.5.4,6.7-.3,14.8.1,23c.2,4.4-.2,8.8,0,13c.3,6.4.2,12.8-.4,19.2h11.8v-4c-1.7-24.5-3-49-5.5-73.5-3.245737-26.300531-4.249352-52.829415-3-79.3.5-8.3.6-16.6.5-24.9c0-4.7,1-10,.8-15.3.386579-3.389012.386579-6.810988,0-10.2-1.3-15.4-.8-31-.7-46.3c0-3.4.2-6.9.5-10.3.4-4.6-.1-9.1,0-13.8.5-9.1.6-18.2.5-27.4-.2-10,.9-19.3,1.6-29l.3-4.8v-7.6c.005273-.321897.148787-.644802.4-.9.3-.4.5-.7.5-1c.4-7,2.2-14.8.3-18.7-.152324-.275485-.152324-.644107,0-1l.5-.8.2-1c-.5-9,1-18.6,1-26.6-.1-3,.5-11.8-.7-14.2-.170734-.271598-.273628-.580281-.3-.9.1-6-.8-12.1-.8-17.8c0-11.6-1-23.1-3-34.6-.7-4,.7-8.1.9-11l.7-8.6.3-6.8c-.7-5.5-1-11-1.3-16.5-.1-5.7-1-13.2-1-19.8c0-11.5-.3-22.4,1.3-33.8c1.5-10.4,1-20.4,1-30.6c0-.3,0-.6-.2-1-.6-1.1,0-2.2,0-3.3c0-4.7-1-9.3-.3-14c.525628-3.389673.42394-6.847079-.3-10.2l-.4-6.3-.3-7.9c.00626-.270102-.198376-.515665-.5-.6L38.3,0Z" fill="#332020"/><path d="M31.4,41.4c0,14.4-3.2,28.6-2.6,43-.011682,7.355215-.479245,14.702635-1.4,22-.7,3.2,1,8.4-2.6,9.8-1-2.3-.8-5-1-7.5c0-8,3-15.8,2.6-24c0-6,.3-12,.9-18c.2-7.4,1-14.8,1.6-22.1.3-6,.2-12.2,1-18.2c2.7,4.6,1.2,10,1.6,15ZM19.6,38.1c1-2.4,1.7,1.2,1.6,2.2.8,4.4,1,9,0,13.4-.4,3,1,6,0,9-1.8,2.5-3.9-1.2-3.2-3.2.2-3.8.9-7.7.5-11.5c0-3.3,0-6.7,1.1-9.9Zm4,88.3c.5-2.5,1.4,0,1.5.6.1,1.6.8,15-.7,14.7-.249463-.081014-.441648-.311636-.5-.6q-1.7-7.4-.3-14.7Zm.5,23.8c2,2,1,5,1,7.6-.3,6.2-1.7,12.4-1.4,18.7-.3,2.7,1,5.7-.4,8.3-2,.4-2.2-2.2-1.9-3.5.8-3.7.7-7.5,1-11.2.3-6.6.8-13.3,1.8-20ZM19,252.7c1,10-.9,20.1-.7,30.2-.5,10.3-1,20.7.2,31-5,1.7-4.5-5.7-3.7-8.8.8-8.5.5-17.2,1.3-25.7.6-8.2,1-16.4.7-24.6-.2-8,1.3-15.8,1.2-23.7.2-6,.2-12.2.6-18.3c3.5,13,2,26.7.5,39.9Zm11,5.5c2.6-1.4,1.4,2.8,1.2,4-1,10.3-2.3,20.5-2.2,30.7c0,8.3-.2,16.5-1.5,24.7-2.1.6-.9-3.3-1.4-4.6-1-18.3,1.2-36.7,4-54.8ZM26.4,359.6c0,2.2,1.8,6.7-.6,7.4-1.5-2-.7-4.9-.8-7.3.5-7.6-.6-15.2-.3-22.8c0-3,1.2-20,2.5-14.5.7,4.9.9,10-.5,14.7-1.7,10.2,1.7,14-.3,22.5ZM16,517c1.9-18.2-2-37,3.6-54.7.5-6.7.6-13.6.9-20.4.2-15.5.3-31-.4-46.4-.1-7.2-.3-14.6-3.3-21.2c1.7-6.4,5,3.7,4.8,6.4.5,8.1,0,16.3.7,24.5-.2,12.2-.5,24.5.1,36.7-.8,7.7.4,15.2-1,22.7-2.2,6.7-1,13.8-2.2,20.6-1,8,0,16.2-.8,24.2-.5,9,.2,18,1.3,27c0,3,1.3,11.4-1,11-2.625416-9.905694-3.571862-20.181398-2.8-30.4Zm4.3,118c-5.6.2-1.7-8.7-2.8-12.5.7-7.1,2.5-14.3,1.5-21.5-.7-6-.4-12.2.6-18.2-.5-2.6,1.2-4.9.7-.7-.3,4.3,1.8,8.5,1.2,13c.7,7.4.7,15,0,22.3-1,5.8-1.4,11.7-1.2,17.6ZM30,590c.194133,6.206701.527551,12.408262,1,18.6-.2,1.9.8,3.5,1.2,5.2-.2,3.2-1.2,3.4-3,.5-3.2-5,0-18.5.7-24.4Z" fill="#332020"/></g></g><g id="ebEFpfyDJSX8_to" transform="translate(431.605,565.136)"><g transform="translate(0,0)"><path d="M8,5.5h30.9v629.6h-30.9Z" fill="#77695d"/><path d="M33.3,0c-9.5.5-19.1,2-28.9,4.3-.327446.102607-.609812.314382-.8.6-2.4,3.3-3,6.8-1.8,10.5.381746,1.091647.272342,2.295088-.3,3.3-.9,7.2-1,12-.5,14.3c1,4.4,1.7,9,2,13.5.4,13.6-1.6,26.9-.4,40.4c1.6,18.5,2.2,39.2.7,59.2-.8,11.5.3,21.6.1,32.4-.8,12-.7,24,.3,36l.5,27.7L4,258.5c0,13.4.2,26.7-.7,40-1,14.4-2.8,26.4-2.6,39.4.1,9.1-.5,16.8-.7,25.3v2.2c1,9,.9,18.7,1.7,26.8c1.899168,14.182813,2.43495,28.514977,1.6,42.8-.469346,15.496447-.469346,31.003553,0,46.5l-2,27.7c-.570802,4.854539-.503564,9.762918.2,14.6.3,9.6.7,19.2,1.3,28.8.3,5.2-.4,10.4-.5,15.6-.1,1.8-.3,3.5-.7,5.1-.5,2.2.2,3.6.7,5.7.7,7.7,1.6,14.8,1.5,23-.1,3.7,0,7.5.3,11.2-.3,7-.2,14,.3,20.8c0,.5.3.9,1,1h6l-.5-28.4.3-3.5c.2-1.7-.4-3.3-.4-4.9.1-7.1,0-14.2-.1-21.4-.3-7.6.8-16.3.2-24.6-.2-3,.5-7.1-.4-10.7-.3-1-.3-2.6,0-4.8c1-7.6,1-15.3.3-23c0-.4.5-1.3.5-2c.7-8.3,1-16.6,1.2-24.9.1-7.4-1-16.1-1.2-24.2c0-.7.5-1.7.4-2.5l-1-39.8c-.2-5.1.5-10.8.5-14.8.1-12.1-1.1-26.6-.6-40c.8-16.6-.3-33.3.2-50c1.4-48.5-.4-103.4-.6-145.8c0-6.2-.4-12.4-.3-17.7.6-19,2.4-38,3-56.8.3-8.3-1.4-16.4-1.3-25c0-3.5-.8-8.2,0-13c.3-2.8-.3-6-.3-8.3-.1-12.6,0-25.2.1-37.7.003359-.513913.169688-.929736.4-1l5.1-1.7c.131417-.096751.292615-.052179.418547.115729s.195816.431448.181453.684271c0,2.4-1.3,10.4.1,11.9.094427.125903.242621.2.4.2s.305573-.074097.4-.2c2.5-2.2,2.6-8.8,3-11.9.080385-.614748.41587-1.076041.8-1.1l11-1.1c.118301-.043593.243978.010436.341342.146746s.155779.340009.158658.553254c.1,9.7.4,19.4,1,29c.8,14.5-3.1,31-2.2,43.2c1,13.9.8,24.5-.2,38.1-.5,7.4-.8,14-.8,20l.4,50.3.4,65c0,12.6,1,26.2,1.3,39.4.2,5.2,1.1,16.5.7,24.8-.3,4.5-.4,8.3-.2,11.3c1.3,38.4-3.6,78.1-3.5,117.2c0,23.5.3,47,1.2,70.6.1,3.3.4,6.9.8,10.6c2.4,20.8,4,38.3,4.9,52.5.4,6.7-.3,14.8.1,23c.2,4.4-.2,8.8,0,13c.3,6.4.2,12.8-.4,19.2h11.8v-4c-1.7-24.5-3-49-5.5-73.5-3.245737-26.300531-4.249352-52.829415-3-79.3.5-8.3.6-16.6.5-24.9c0-4.7,1-10,.8-15.3.386579-3.389012.386579-6.810988,0-10.2-1.3-15.4-.8-31-.7-46.3c0-3.4.2-6.9.5-10.3.4-4.6-.1-9.1,0-13.8.5-9.1.6-18.2.5-27.4-.2-10,.9-19.3,1.6-29l.3-4.8v-7.6c.005273-.321897.148787-.644802.4-.9.3-.4.5-.7.5-1c.4-7,2.2-14.8.3-18.7-.152324-.275485-.152324-.644107,0-1l.5-.8.2-1c-.5-9,1-18.6,1-26.6-.1-3,.5-11.8-.7-14.2-.170734-.271598-.273628-.580281-.3-.9.1-6-.8-12.1-.8-17.8c0-11.6-1-23.1-3-34.6-.7-4,.7-8.1.9-11l.7-8.6.3-6.8c-.7-5.5-1-11-1.3-16.5-.1-5.7-1-13.2-1-19.8c0-11.5-.3-22.4,1.3-33.8c1.5-10.4,1-20.4,1-30.6c0-.3,0-.6-.2-1-.6-1.1,0-2.2,0-3.3c0-4.7-1-9.3-.3-14c.525628-3.389673.42394-6.847079-.3-10.2l-.4-6.3-.3-7.9c.00626-.270102-.198376-.515665-.5-.6L38.3,0Z" fill="#332020"/><path d="M31.4,41.4c0,14.4-3.2,28.6-2.6,43-.011682,7.355215-.479245,14.702635-1.4,22-.7,3.2,1,8.4-2.6,9.8-1-2.3-.8-5-1-7.5c0-8,3-15.8,2.6-24c0-6,.3-12,.9-18c.2-7.4,1-14.8,1.6-22.1.3-6,.2-12.2,1-18.2c2.7,4.6,1.2,10,1.6,15ZM19.6,38.1c1-2.4,1.7,1.2,1.6,2.2.8,4.4,1,9,0,13.4-.4,3,1,6,0,9-1.8,2.5-3.9-1.2-3.2-3.2.2-3.8.9-7.7.5-11.5c0-3.3,0-6.7,1.1-9.9Zm4,88.3c.5-2.5,1.4,0,1.5.6.1,1.6.8,15-.7,14.7-.249463-.081014-.441648-.311636-.5-.6q-1.7-7.4-.3-14.7Zm.5,23.8c2,2,1,5,1,7.6-.3,6.2-1.7,12.4-1.4,18.7-.3,2.7,1,5.7-.4,8.3-2,.4-2.2-2.2-1.9-3.5.8-3.7.7-7.5,1-11.2.3-6.6.8-13.3,1.8-20ZM19,252.7c1,10-.9,20.1-.7,30.2-.5,10.3-1,20.7.2,31-5,1.7-4.5-5.7-3.7-8.8.8-8.5.5-17.2,1.3-25.7.6-8.2,1-16.4.7-24.6-.2-8,1.3-15.8,1.2-23.7.2-6,.2-12.2.6-18.3c3.5,13,2,26.7.5,39.9Zm11,5.5c2.6-1.4,1.4,2.8,1.2,4-1,10.3-2.3,20.5-2.2,30.7c0,8.3-.2,16.5-1.5,24.7-2.1.6-.9-3.3-1.4-4.6-1-18.3,1.2-36.7,4-54.8ZM26.4,359.6c0,2.2,1.8,6.7-.6,7.4-1.5-2-.7-4.9-.8-7.3.5-7.6-.6-15.2-.3-22.8c0-3,1.2-20,2.5-14.5.7,4.9.9,10-.5,14.7-1.7,10.2,1.7,14-.3,22.5ZM16,517c1.9-18.2-2-37,3.6-54.7.5-6.7.6-13.6.9-20.4.2-15.5.3-31-.4-46.4-.1-7.2-.3-14.6-3.3-21.2c1.7-6.4,5,3.7,4.8,6.4.5,8.1,0,16.3.7,24.5-.2,12.2-.5,24.5.1,36.7-.8,7.7.4,15.2-1,22.7-2.2,6.7-1,13.8-2.2,20.6-1,8,0,16.2-.8,24.2-.5,9,.2,18,1.3,27c0,3,1.3,11.4-1,11-2.625416-9.905694-3.571862-20.181398-2.8-30.4Zm4.3,118c-5.6.2-1.7-8.7-2.8-12.5.7-7.1,2.5-14.3,1.5-21.5-.7-6-.4-12.2.6-18.2-.5-2.6,1.2-4.9.7-.7-.3,4.3,1.8,8.5,1.2,13c.7,7.4.7,15,0,22.3-1,5.8-1.4,11.7-1.2,17.6ZM30,590c.194133,6.206701.527551,12.408262,1,18.6-.2,1.9.8,3.5,1.2,5.2-.2,3.2-1.2,3.4-3,.5-3.2-5,0-18.5.7-24.4Z" fill="#332020"/></g></g><g id="ebEFpfyDJSX12_to" transform="translate(681.62,592.375)"><g transform="translate(0,0)"><path d="M8,5.5h30.9v694.092041h-30.9Z" fill="#77695d"/><path d="M33.3,0c-9.5.5-19.1,2-28.9,4.3-.327446.102607-.609812.314382-.8.6-2.4,3.3-3,6.8-1.8,10.5.381746,1.091647.272342,2.295088-.3,3.3-.9,7.2-1,12-.5,14.3c1,4.4,1.7,9,2,13.5.4,13.6-1.6,26.9-.4,40.4c1.6,18.5,2.2,39.2.7,59.2-.8,11.5.3,21.6.1,32.4-.8,12-.7,24,.3,36l.5,27.7L4,258.5c0,13.4.2,26.7-.7,40-1,14.4-2.8,26.4-2.6,39.4.1,9.1-.5,16.8-.7,25.3v2.2c1,9,.9,18.7,1.7,26.8c1.899168,14.182813,2.43495,28.514977,1.6,42.8-.469346,15.496447-.469346,31.003553,0,46.5l-2,27.7c-.570802,4.854539-.503564,9.762918.2,14.6.3,9.6.7,19.2,1.3,28.8.3,5.2-.4,10.4-.5,15.6-.1,1.8-.3,3.5-.7,5.1-.5,2.2.2,3.6.7,5.7.7,7.7,1.6,14.8,1.5,23-.1,3.7,0,7.5.3,11.2-.3,7-.2,78.492041.3,85.292041c0,.5.3.9,1,1h6L10.9,606.6l.3-3.5c.2-1.7-.4-3.3-.4-4.9.1-7.1,0-14.2-.1-21.4-.3-7.6.8-16.3.2-24.6-.2-3,.5-7.1-.4-10.7-.3-1-.3-2.6,0-4.8c1-7.6,1-15.3.3-23c0-.4.5-1.3.5-2c.7-8.3,1-16.6,1.2-24.9.1-7.4-1-16.1-1.2-24.2c0-.7.5-1.7.4-2.5l-1-39.8c-.2-5.1.5-10.8.5-14.8.1-12.1-1.1-26.6-.6-40c.8-16.6-.3-33.3.2-50c1.4-48.5-.4-103.4-.6-145.8c0-6.2-.4-12.4-.3-17.7.6-19,2.4-38,3-56.8.3-8.3-1.4-16.4-1.3-25c0-3.5-.8-8.2,0-13c.3-2.8-.3-6-.3-8.3-.1-12.6,0-25.2.1-37.7.003359-.513913.169688-.929736.4-1l5.1-1.7c.131417-.096751.292615-.052179.418547.115729s.195816.431448.181453.684271c0,2.4-1.3,10.4.1,11.9.094427.125903.242621.2.4.2s.305573-.074097.4-.2c2.5-2.2,2.6-8.8,3-11.9.080385-.614748.41587-1.076041.8-1.1l11-1.1c.118301-.043593.243978.010436.341342.146746s.155779.340009.158658.553254c.1,9.7.4,19.4,1,29c.8,14.5-3.1,31-2.2,43.2c1,13.9.8,24.5-.2,38.1-.5,7.4-.8,14-.8,20l.4,50.3.4,65c0,12.6,1,26.2,1.3,39.4.2,5.2,1.1,16.5.7,24.8-.3,4.5-.4,8.3-.2,11.3c1.3,38.4-3.6,78.1-3.5,117.2c0,23.5.3,47,1.2,70.6.1,3.3.4,6.9.8,10.6c2.4,20.8,4,38.3,4.9,52.5.4,6.7-.3,14.8.1,23c.2,4.4-.2,8.8,0,13c.3,6.4.2,77.292041-.4,83.692041h11.8v-4C47.3,670.992041,46,582,43.5,557.5c-3.245737-26.300531-4.249352-52.829415-3-79.3.5-8.3.6-16.6.5-24.9c0-4.7,1-10,.8-15.3.386579-3.389012.386579-6.810988,0-10.2-1.3-15.4-.8-31-.7-46.3c0-3.4.2-6.9.5-10.3.4-4.6-.1-9.1,0-13.8.5-9.1.6-18.2.5-27.4-.2-10,.9-19.3,1.6-29l.3-4.8v-7.6c.005273-.321897.148787-.644802.4-.9.3-.4.5-.7.5-1c.4-7,2.2-14.8.3-18.7-.152324-.275485-.152324-.644107,0-1l.5-.8.2-1c-.5-9,1-18.6,1-26.6-.1-3,.5-11.8-.7-14.2-.170734-.271598-.273628-.580281-.3-.9.1-6-.8-12.1-.8-17.8c0-11.6-1-23.1-3-34.6-.7-4,.7-8.1.9-11l.7-8.6.3-6.8c-.7-5.5-1-11-1.3-16.5-.1-5.7-1-13.2-1-19.8c0-11.5-.3-22.4,1.3-33.8c1.5-10.4,1-20.4,1-30.6c0-.3,0-.6-.2-1-.6-1.1,0-2.2,0-3.3c0-4.7-1-9.3-.3-14c.525628-3.389673.42394-6.847079-.3-10.2l-.4-6.3-.3-7.9c.00626-.270102-.198376-.515665-.5-.6L38.3,0Z" fill="#332020"/><path d="M31.4,41.4c0,14.4-3.2,28.6-2.6,43-.011682,7.355215-.479245,14.702635-1.4,22-.7,3.2,1,8.4-2.6,9.8-1-2.3-.8-5-1-7.5c0-8,3-15.8,2.6-24c0-6,.3-12,.9-18c.2-7.4,1-14.8,1.6-22.1.3-6,.2-12.2,1-18.2c2.7,4.6,1.2,10,1.6,15ZM19.6,38.1c1-2.4,1.7,1.2,1.6,2.2.8,4.4,1,9,0,13.4-.4,3,1,6,0,9-1.8,2.5-3.9-1.2-3.2-3.2.2-3.8.9-7.7.5-11.5c0-3.3,0-6.7,1.1-9.9Zm4,88.3c.5-2.5,1.4,0,1.5.6.1,1.6.8,15-.7,14.7-.249463-.081014-.441648-.311636-.5-.6q-1.7-7.4-.3-14.7Zm.5,23.8c2,2,1,5,1,7.6-.3,6.2-1.7,12.4-1.4,18.7-.3,2.7,1,5.7-.4,8.3-2,.4-2.2-2.2-1.9-3.5.8-3.7.7-7.5,1-11.2.3-6.6.8-13.3,1.8-20ZM19,252.7c1,10-.9,20.1-.7,30.2-.5,10.3-1,20.7.2,31-5,1.7-4.5-5.7-3.7-8.8.8-8.5.5-17.2,1.3-25.7.6-8.2,1-16.4.7-24.6-.2-8,1.3-15.8,1.2-23.7.2-6,.2-12.2.6-18.3c3.5,13,2,26.7.5,39.9Zm11,5.5c2.6-1.4,1.4,2.8,1.2,4-1,10.3-2.3,20.5-2.2,30.7c0,8.3-.2,16.5-1.5,24.7-2.1.6-.9-3.3-1.4-4.6-1-18.3,1.2-36.7,4-54.8ZM26.4,359.6c0,2.2,1.8,6.7-.6,7.4-1.5-2-.7-4.9-.8-7.3.5-7.6-.6-15.2-.3-22.8c0-3,1.2-20,2.5-14.5.7,4.9.9,10-.5,14.7-1.7,10.2,1.7,14-.3,22.5ZM16,517c1.9-18.2-2-37,3.6-54.7.5-6.7.6-13.6.9-20.4.2-15.5.3-31-.4-46.4-.1-7.2-.3-14.6-3.3-21.2c1.7-6.4,5,3.7,4.8,6.4.5,8.1,0,16.3.7,24.5-.2,12.2-.5,24.5.1,36.7-.8,7.7.4,15.2-1,22.7-2.2,6.7-1,13.8-2.2,20.6-1,8,0,16.2-.8,24.2-.5,9,.2,18,1.3,27c0,3,1.3,11.4-1,11-2.625416-9.905694-3.571862-20.181398-2.8-30.4Zm4.3,118c-5.6.2-1.7-8.7-2.8-12.5.7-7.1,2.5-14.3,1.5-21.5-.7-6-.4-12.2.6-18.2-.5-2.6,1.2-4.9.7-.7-.3,4.3,1.8,8.5,1.2,13c.7,7.4.7,15,0,22.3-1,5.8-1.4,11.7-1.2,17.6ZM30,590c.194133,6.206701.527551,12.408262,1,18.6-.2,1.9.8,3.5,1.2,5.2-.2,3.2-1.2,3.4-3,.5-3.2-5,0-18.5.7-24.4Z" fill="#332020"/></g></g><g id="ebEFpfyDJSX16_to" transform="translate(929.33,891.736)"><g transform="translate(0,0)"><path d="M8,5.5h30.9l.347641,754.577579h-30.9Z" fill="#77695d"/><path d="M33.3,0c-9.5.5-19.1-18-28.9-15.7-.327446.102607-.609812.314382-.8.6-2.4,3.3-3,6.8-1.8,10.5.381746,1.091647.272342,2.295088-.3,3.3-.9,7.2-1,32-.5,34.3c1,4.4,1.7,9,2,13.5.4,13.6-1.6,26.9-.4,40.4c1.6,18.5,2.2,39.2.7,59.2-.8,11.5.3,21.6.1,32.4-.8,12-.7,24,.3,36l.5,27.7L4,258.5c0,13.4.2,26.7-.7,40-1,14.4-2.8,26.4-2.6,39.4.1,9.1-.5,16.8-.7,25.3v2.2c1,9,.9,18.7,1.7,26.8c1.899168,14.182813,2.43495,28.514977,1.6,42.8-.469346,15.496447-.469346,31.003553,0,46.5l-2,27.7c-.570802,4.854539-.503564,9.762918.2,14.6.3,9.6.7,19.2,1.3,28.8.3,5.2-.4,10.4-.5,15.6-.1,1.8-.3,3.5-.7,5.1-.5,2.2.2,3.6.7,5.7.7,7.7,1.6,14.8,1.5,23-.1,3.7,0,7.5.3,11.2-.3,7,.147641,138.977579.647641,145.777579c0,.5.3.9,1,1h6L10.9,606.6l.3-3.5c.2-1.7-.4-3.3-.4-4.9.1-7.1,0-14.2-.1-21.4-.3-7.6.8-16.3.2-24.6-.2-3,.5-7.1-.4-10.7-.3-1-.3-2.6,0-4.8c1-7.6,1-15.3.3-23c0-.4.5-1.3.5-2c.7-8.3,1-16.6,1.2-24.9.1-7.4-1-16.1-1.2-24.2c0-.7.5-1.7.4-2.5l-1-39.8c-.2-5.1.5-10.8.5-14.8.1-12.1-1.1-26.6-.6-40c.8-16.6-.3-33.3.2-50c1.4-48.5-.4-103.4-.6-145.8c0-6.2-.4-12.4-.3-17.7.6-19,2.4-38,3-56.8.3-8.3-1.4-16.4-1.3-25c0-3.5-.8-8.2,0-13c.3-2.8-.3-6-.3-8.3-.1-12.6,0-25.2.1-37.7.003359-.513913.169688-.929736.4-1l5.1-1.7c.131417-.096751.292615-.052179.418547.115729s.195816.431448.181453.684271c0,2.4-1.3,10.4.1,11.9.094427.125903.242621.2.4.2s.305573-.074097.4-.2c2.5-2.2,2.6-8.8,3-11.9.080385-.614748.41587-1.076041.8-1.1l11-1.1c.118301-.043593.243978.010436.341342.146746s.155779.340009.158658.553254c.1,9.7.4,19.4,1,29c.8,14.5-3.1,31-2.2,43.2c1,13.9.8,24.5-.2,38.1-.5,7.4-.8,14-.8,20l.4,50.3.4,65c0,12.6,1,26.2,1.3,39.4.2,5.2,1.1,16.5.7,24.8-.3,4.5-.4,8.3-.2,11.3c1.3,38.4-3.6,78.1-3.5,117.2c0,23.5.3,47,1.2,70.6.1,3.3.4,6.9.8,10.6c2.4,20.8,4,38.3,4.9,52.5.4,6.7-.3,14.8.1,23c.2,4.4-.2,8.8,0,13c.3,6.4.547641,137.777579-.052359,144.177579h11.8L49,631c-1.7-24.5-3-49-5.5-73.5-3.245737-26.300531-4.249352-52.829415-3-79.3.5-8.3.6-16.6.5-24.9c0-4.7,1-10,.8-15.3.386579-3.389012.386579-6.810988,0-10.2-1.3-15.4-.8-31-.7-46.3c0-3.4.2-6.9.5-10.3.4-4.6-.1-9.1,0-13.8.5-9.1.6-18.2.5-27.4-.2-10,.9-19.3,1.6-29l.3-4.8v-7.6c.005273-.321897.148787-.644802.4-.9.3-.4.5-.7.5-1c.4-7,2.2-14.8.3-18.7-.152324-.275485-.152324-.644107,0-1l.5-.8.2-1c-.5-9,1-18.6,1-26.6-.1-3,.5-11.8-.7-14.2-.170734-.271598-.273628-.580281-.3-.9.1-6-.8-12.1-.8-17.8c0-11.6-1-23.1-3-34.6-.7-4,.7-8.1.9-11l.7-8.6.3-6.8c-.7-5.5-1-11-1.3-16.5-.1-5.7-1-13.2-1-19.8c0-11.5-.3-22.4,1.3-33.8c1.5-10.4,1-20.4,1-30.6c0-.3,0-.6-.2-1-.6-1.1,0-2.2,0-3.3c0-4.7-1-9.3-.3-14c.525628-3.389673.42394-6.847079-.3-10.2l-.4-6.3-.3-7.9c.00626-.270102-.198376-.515665-.5-.6L38.3,0Z" fill="#332020"/><path d="M31.4,41.4c0,14.4-3.2,28.6-2.6,43-.011682,7.355215-.479245,14.702635-1.4,22-.7,3.2,1,8.4-2.6,9.8-1-2.3-.8-5-1-7.5c0-8,3-15.8,2.6-24c0-6,.3-12,.9-18c.2-7.4,1-14.8,1.6-22.1.3-6,.2-12.2,1-18.2c2.7,4.6,1.2,10,1.6,15ZM19.6,38.1c1-2.4,1.7,1.2,1.6,2.2.8,4.4,1,9,0,13.4-.4,3,1,6,0,9-1.8,2.5-3.9-1.2-3.2-3.2.2-3.8.9-7.7.5-11.5c0-3.3,0-6.7,1.1-9.9Zm4,88.3c.5-2.5,1.4,0,1.5.6.1,1.6.8,15-.7,14.7-.249463-.081014-.441648-.311636-.5-.6q-1.7-7.4-.3-14.7Zm.5,23.8c2,2,1,5,1,7.6-.3,6.2-1.7,12.4-1.4,18.7-.3,2.7,1,5.7-.4,8.3-2,.4-2.2-2.2-1.9-3.5.8-3.7.7-7.5,1-11.2.3-6.6.8-13.3,1.8-20ZM19,252.7c1,10-.9,20.1-.7,30.2-.5,10.3-1,20.7.2,31-5,1.7-4.5-5.7-3.7-8.8.8-8.5.5-17.2,1.3-25.7.6-8.2,1-16.4.7-24.6-.2-8,1.3-15.8,1.2-23.7.2-6,.2-12.2.6-18.3c3.5,13,2,26.7.5,39.9Zm11,5.5c2.6-1.4,1.4,2.8,1.2,4-1,10.3-2.3,20.5-2.2,30.7c0,8.3-.2,16.5-1.5,24.7-2.1.6-.9-3.3-1.4-4.6-1-18.3,1.2-36.7,4-54.8ZM26.4,359.6c0,2.2,1.8,6.7-.6,7.4-1.5-2-.7-4.9-.8-7.3.5-7.6-.6-15.2-.3-22.8c0-3,1.2-20,2.5-14.5.7,4.9.9,10-.5,14.7-1.7,10.2,1.7,14-.3,22.5ZM16,517c1.9-18.2-2-37,3.6-54.7.5-6.7.6-13.6.9-20.4.2-15.5.3-31-.4-46.4-.1-7.2-.3-14.6-3.3-21.2c1.7-6.4,5,3.7,4.8,6.4.5,8.1,0,16.3.7,24.5-.2,12.2-.5,24.5.1,36.7-.8,7.7.4,15.2-1,22.7-2.2,6.7-1,13.8-2.2,20.6-1,8,0,16.2-.8,24.2-.5,9,.2,18,1.3,27c0,3,1.3,11.4-1,11-2.625416-9.905694-3.571862-20.181398-2.8-30.4Zm3.855667,149.474173C14.255667,666.674173,18.6,626.3,17.5,622.5c.7-7.1,2.5-14.3,1.5-21.5-.7-6-.4-12.2.6-18.2-.5-2.6,1.2-4.9.7-.7-.3,4.3,1.8,8.5,1.2,13c.7,7.4.7,15,0,22.3-1,5.8-1.844333,43.174173-1.644333,49.074173ZM30,590c.194133,6.206701.527551,12.408262,1,18.6-.2,1.9.8,3.5,1.2,5.2-.2,3.2-1.2,3.4-3,.5-3.2-5,0-18.5.7-24.4Z" fill="#332020"/></g></g><g id="ebEFpfyDJSX20_to" transform="translate(133.235,543.354)"><g transform="translate(0,0)"><path d="M339.6,9c-18.5,4.4-42.7,4-57.8,10.3-28.2,9.9-57.6,21.1-83.6,30.9C135,78.2,87.7,130.2,47,188c-8.5,17.3-19.5,33.4-27.3,51-6.3,8-110.2,265.2-115.2,269.8-.4,33.3,0,77.9-.1,102.4c4.1-4.4,104-242.2,106-246.6c13-21.9,17.5-54,34-72.9-1.8-5,3.6-12.1,6-16c13-17.6,18.4-41.6,30-58c30.1-59.2,88.9-108,116-122.4c5.8-5.9,16.2-6.6,21.5-10.9C253.6,62.6,276.6,57,320.8,49.1c17.8,4.3,47.5-9,60.5-5.2c57.8-2.3,116.6-7.7,212.5,47.5c20,13.5,34.4,32.7,52.7,44.9c8.7,11.7,21.4,21.3,30.2,30.3c19.9,19.7,40.6,46.6,50.2,68.7C769.7,293,800,355.5,827,410c6.6,8.6,8,20,16.7,29.6c19.1,45.4,56,89.1,76,114.9c3.5,8.8,12.8,13.5,16,21.2c20.5,23.5,52.5,58.5,68.8,71.6c44.9,33.3,101.3,66.8,142.6,82.4c6.8,4.1,14.2,3.5,20,8.3c13.5,6.5,28.8,7,39.7,14.2c12.6,5.5,27.7,9.2,40,12.5c15.2-1.8,37.7,9.2,51,8c16,5.5,39.5.6,51.7,5.3c19,4.1,40.8-5.1,57.3-2.5c14,1.2,24.6-.7,38.4-1.3c13.2-5.4,28.4-1.5,40.8-4.2c29.6-6,61.7-9.4,87.5-15c20.1-6.8,40.7-9,58-14.6c8.5,1.1,21.7-11,29.8-11.9c16.3-6,32.7-12.1,47.9-20.9c32.8-21.5,76.7-39.8,101.4-66.5c11.1-10.9,30-21.8,33.5-31c4.6-7.5,20-19.4,25.7-27c13.8-19.6,33-34.6,46.6-52.3c27.3-39.7,52.3-73.2,71.6-112.4c2.3-11.7,12.5-19.6,14.4-28.9c5.4-13.2,14.7-24.3,18.8-37c5.1-12.5,7.7-23.5,15.3-33.5c5.5-3,7.3-18.7,9.6-20.6c2.4-4,1.7-10.1,4.7-12.7c13.6-21.9,23.7-48,36.1-67.3c17.622015-35.729315,42.361777-67.479242,72.7-93.3c17-13,34.9-24.7,53.5-35.3c8.6-7.6,22.4-9.6,31-14.5c5.7-5.5,24.2-9.3,28.4-12.7c11.6-7.4,51.5-11.2,64-11.4c7.870459.785866,15.817831-.135074,23.3-2.7c57.5-9.3,72.4-3.2,124.4,1.8c13.8,4.6,41.2,7.6,51.1,13.8c19,5.5,37.3,19.3,54.1,25c4,1.3,115.5,51.2,120.2,52.6.5-18.2.2-37.4,0-53.7-11.7-6.2-133.4-61-146.3-63.8-16.7-4-30.7-5.6-45.8-9.8-23.6-1.3-48.5-9.3-71.5-10.3-25.7-1.9-44.6,1.2-68.1,3-34.7,4.3-73,8.6-103,19.3-13.3,1-25.5,7.3-37.5,11.2-7.5.6-15.5,10.2-20.8,9.1-45.7,20.3-97,52.5-125.6,89.7-10.2,9.9-13.8,27.5-25,33.7-16.06783,30.420714-33.416706,60.147345-52,89.1-2.475473,6.103395-5.957103,11.748369-10.3,16.7-4.2,25.7-36.8,76-47.7,99.3-18.1,39.5-41.1,87.3-64,117.6-44,64.3-94.3,110-150.5,151.4-6.5,4.8-18,9.1-26.4,14.1-12.8,7.7-26.5,14.4-39,21.6-26.3,16.5-47,23.5-75.4,32.2-8.5,3.9-15.6,4-24.4,5.8-13.1,8.4-50.4,9.2-58.4,13.8-1.370361,1.137181-3.12261,1.709344-4.9,1.6-50,4-99.8,5.3-148.5,3.7-5.1-.2-10.5-2.6-15.3-3-61.5-4.2-123.6-14-175.2-37-6.2,0-12.1-7.8-17-7.2-5.2-3-33.7-15.3-33.5-17.8-1.7-3-11.7-7.7-15-9.5-2.1,3.1-7.4-2.2-9-4-18.7-17-68.7-39.5-78.7-57-36.717166-30.164692-69.268078-65.069492-96.8-103.8-24.1-28.3-39.7-62.1-55.9-89.5-3.291178-3.073449-5.262651-7.303156-5.5-11.8-4-11-9.5-20.6-14.8-29.4C818.2,310.3,785,255.6,757,208c-3.440834-2.727212-5.402976-6.910647-5.3-11.3-24.5-41-60-79.2-87.6-109.6-13.8-10.8-47-29-51.1-38.5-.006863-1.741052-1.139126-3.277694-2.8-3.8C576.1,25.4,544.7,18.1,508,11.3c-19.581532-2.565506-39.117726-5.46593-58.6-8.7-24.3-5-74.4,5.4-109.8,6.3Z" fill="#332020"/><path d="M2601,86c-10.6-2.1-101.5-63.5-154.2-47.9-98.9-2-204,8.4-283,74.6-125.3,101.3-143.4,277.9-245,398.2-88.8,120-216.5,216.4-366.9,240.3-127,20.3-264.5,37.4-384.9-19.7-102.082185-35.909314-190.069938-103.406288-251.2-192.7-65.3-77-97-175.4-153-258.8C710,180.8,630,83,518.8,49.2C430,25.7,331.8,32.3,245.1,61.1C143.5,98.4,76.6,188.9,37.3,286.3c-10.7,21-116,274.5-123.6,287.1-3.8,6.3-1.5-58.7,2.4-73.6c4.5-17.2,74.6-170.8,80.1-188.5C27.5,231.4,79.9,147.1,146,88C272.7,8,441.8,-16.8,581,44.6C706.2,107,768,239,833.1,355c55.6,132.8,153.2,249.1,276.8,320.5c94.6,54.3,208.6,72,317.7,69.4c222.2,8.7,430.9-138,522.5-336.8c55.5-112.5,102.4-238.5,202.5-319.3c127.6-79.2,309.3-104.5,447.5-39L2709,97.1v37.1Z" fill="#77695d"/><g><path d="M266.5,36.3c7-3.8,15.6-3.5,22.2-8.5c10-4,21.2-4,31.7-6.6c7.7-1,15.5-3.9,23.4-2.6c3.1-.1,15-1.3,12,3-8.8-1.9-17.5.9-26.4,1.4-11.7.5-23,3.7-34.2,6.5-8.4,2.5-16,7.2-24.7,9-1.1,0-4.8-.3-4-2.2ZM536,34c-18.5-2.8-36.7-6.9-55.4-8.8-16.8-.5-33.7-3.9-50.6-2.5-5.2,5.1-23,5.3-14.4-4c18.5-.2,37,1.5,55.6,2.3c22,3,44.5,4.4,65.8,11.1c11.1,7.8,26.7,5.7,36.7,15.4.6,11.6-7.8-7.6-15-4.8-7.8-1.9-16.9-2.4-22.8-8.7ZM2354.4,23.6c-12.1,1.2-24.4,2-36.4,4-10.3,2.6-20.9,4.2-30.5,9-5,.7-14.7,8.2-16.8,2.5c7-4,16.2-4.3,23.3-9c9-3.5,19-3.3,28.2-5.8c8.7-1.7,17.6-4,26.5-3.1c4.6-2.3,21,4.2,5.7,2.4Zm220.2,28.2c-11.6-9-27.7-7.8-40-15.8-32.495994-6.626152-65.538972-10.208318-98.7-10.7-5.8,1.6-24.8,7-18-2.8c21.3-2,42.6.8,63.8,2c22.6,4.4,47.2,3.4,67.7,15c8.2,1.9,33.3,6.3,25.8,15.6-1.3-.4-2.4-2.6-.6-3.3ZM385.6,29.3c-9,5.1-19.4-1.5-29,1.5-10.4,1.7-21,1-31.3,4.2-10,1.4-20.3,1.3-30,4.6-9.3,2.3-18.7,4.5-28.1,6.2-9,5.2-7.4-3.1.9-2.7c20-5,40-10.2,60.6-11.5c18.7-3.2,37.8-3.3,56.7-3Zm1963,3.2c12.5-.7,28.8-3,39.1,0-9.8,3.9-22.4-1.8-33.4,1.9-12.6,0-24.2,3.9-36.9,4.3-14.3,1.5-28,6.9-42.3,9.1-3.6,2.7-18,3-7-1c16.8-4,33.6-9,50.9-11.2c10-.1,19.6-2.8,29.6-3.2Z" fill="#332020"/><path d="M597.9,72c3.8,3.9-2.6,1.7-4.1-.4-9-5.2-19.7-6.5-28.4-12.3-5.8-2.8-11.5-6-17-9.4-3,0-7-4.7-1.6-3.3c5.6,1.6,10.2,5.5,15.5,7.8c7.2,4.1,14.7,7.9,22.6,10.4c4.694925,1.679551,9.08554,4.111276,13,7.2Zm2009.4,6.4c2.5,4.4-11.1-6.4-14.4-6.3-8.6-3.5-18-5.4-25.6-10.9-6.7-4-14-7.2-20.4-11.5c5.5-1.4,10,3.5,15,5.5c12.5,7.4,42.9,18.7,45.4,23.2Zm-2477.9,33c16.9-16.6,39.6-25.3,57.3-40.8c11.2-6,24-8.8,35.5-14c4.4-3,15.7-3.5,4.9,0-12.7,4.9-24.6,12-37.4,16.7-9,7.6-19,14-29.4,19.8-18.9,11.4-34.4,27.4-51.5,41.2-3.8,3-13.3,15-7.7,4c8.2-10.1,20.3-16.5,28.3-26.9Zm1972.9,35.9c3.7-13.6,18.8-18.6,26.8-29.3c14.5-15,33-25.4,50.7-36c9.4-10.3,22.7-13.8,35.2-18.5c6.5-3.2,30.2-11.1,13-3-12.7,5-24.9,11.3-37,17.3-17.6,13.7-38.4,22.8-54.4,38.5-11.4,10.4-24.4,19.2-34.3,31ZM648.7,103.6c-5.7-6.2-22.9-15.3-20.1-21c19.4,17.6,40.4,34.2,55,56.5c15,20,36.2,34.7,48.5,56.8c9.8,16.6,24.3,30.5,32,48-4.5,5.3-10-17.2-17-21.7-4.8-17.1-22-26.6-28-43-29.2-18.3-47.2-57.5-70.4-75.6ZM612.2,83c6.5,2.7,10.9,8.7,16.6,12.6c8,5.5,12.5,14.5,20.2,20.3c5.9,4.8,8.5,13,15.5,17c3.1,2,8,12.4,1.3,6.2-6.3-6-11.5-13-18-19-7.7-8.8-14.9-18.4-24.2-25.7-3.4-4.2-12.2-4.6-11.4-11.5ZM121.5,133.2c3.7,6-7.9,7.7-9.8,12.8-6,7.8-9,18-16.8,24.6-7,5.1-6.9,15.1-12.3,20.7-1.6-4.8,4.3-11.2,5.8-16.5c4.5-6.7,12.7-11,14.6-19.4c2.6-8,8-14.8,15.1-19.3c1.2-1,2.3-1.9,3.3-3Zm2003.2,3c4-3.1.9,5.5-2,5.6-7.344409,6.087903-13.136882,13.834052-16.9,22.6-5.3,7.7-13.8,13.6-15.8,23.3.3,3-6.9,10.8-4.5,4.1c2.8-4.9,4-10.5,6.8-15.3c4.6-6.2,12.7-10.2,14.1-18.4c3-9,9.9-16.1,17.8-20.9l.5-1ZM-2.6,317.3c-2.4-1.7,13.2-27.6,15.7-39.2c3.2-10.2,14.5-15.5,17-26.1c3.3-9,11.2-14.9,17.5-21.6c6.1-10.1,10.4-21.6,18.9-30.1c1.1-2.7,3.6-9.1,6-8.5-2.2,13-15.9,20-18.9,32.8-6.5,12-18.5,20.5-22.7,33.8-4.1,8.3-13.5,12.9-16.2,22-4.4,10.3-14.9,38.7-17.3,37Zm2038.3-58.7c-4.5,10.1-15.6,15.8-18.2,27-4.4,10.2-9.8,20-14.4,30-2,9.2-7.5,17.9-13,25c.9-7,5-14.9,8.7-21.6c5.3-15.1,15-28.2,20.3-43.4c3.9-7.3,12.4-11.2,14.3-19.7c3-12,15.3-17.4,21.3-27.5c1.8-12.8,14.4-19.7,18.1-31.6c2.3-6.7,6-3.3,2,1.6-3.3,10.1-13.3,15.9-16.5,26-2.6,9-10.9,14.9-16,22.5-2.860155,3.488909-5.093273,7.447619-6.6,11.7ZM879,469.2c-9-17.4-22.5-32.4-28.7-51.1-9.9-13.7-14.7-30-21.9-45-12-21-28-39.9-37-62.5-5.5-10.4-16.5-17.5-20-29c0-8,5.2,5.8,7.6,8.1c17.2,27.2,35.2,53.9,52.2,81c8.7,21.2,20.5,40.8,30.4,61.3c8.551575,14.476994,16.394169,29.361235,23.5,44.6c2,5.2,7,12.5,6.5,16.8-6.7-6.7-6.9-17-12.6-24.2ZM-7.3,354c-2.4-1.8,4-10.8,4-10.8c3.1-4.8,9.4-13.8,10.5-19.6c1.55711-6.671929,4.374252-12.985043,8.3-18.6c4.7-7,7.8-15,9-23.2-.9-2.3,4-3.2,2.8-.7-2.4,8.5-4.7,17.3-9.9,24.6-4.654378,7.131923-7.72352,15.179896-9,23.6C7,335.6,-5,355.8,-7.3,354ZM1972,412.7c1.3-12.4,8.9-23.1,13-34.7c7.7-15.1,16-30,23.6-45.2c2.9-14.4,11.7-26.2,17.6-39.5-.2-6.1,5.8-12.6,2.6-2.6-3.2,13.5-14,23.8-16.2,37.7-4,15.8-14,29.2-20.8,43.8-9.3,12-10.4,29.3-18.9,40.8Zm-41.1,52.5c1.7-6,8.3-9.5,8.5-16.4c3.8-11,9.7-21,14.3-31.8l13.5-27.9c2.7,6.2-2.7,12.2-4,18.1-4.3,9.5-11.3,17.7-14.1,27.8-3,5.9-7.8,10.8-7.7,17.8-1.2,4.3-5,14.4-10.5,12.4Zm-39.2,65.4c2.3-6.6,9.2-10.7,10.6-18c3.1-8.2,10.3-13.7,14.2-21.4c6.7-9.5,15-17.7,22-26.9c5.7-5.1-1.4,8.7-4.5,11-7,8.5-14,17.1-20,26.5-5.257619,6.199595-9.386872,13.273478-12.2,20.9-2,3.5-5.4,8.8-10.1,7.9ZM942.1,547.9c-12.5-12.7-26-25.3-33.2-42c.1-4.7,5.7,1.4,5.7,3.6c5.751607,10.016616,12.448816,19.45968,20,28.2c3,4,6.3,7.8,9.7,11.5c1.9,3.6-2.1,0-2.1-1.3Zm920,4.3c9.4-10.4,18-21.6,28.3-31c3.4,1.7-5.2,7-6.2,9.8-8.7,10.7-18.4,20.4-27.2,31-8.896496,12.107814-18.943276,23.326719-30,33.5-3.7,5.6-6.8,11.6-11.7,16.3-5.6,5.3-5.5-3.8-1-5.5c7.7-3.2,7.4-12.4,13.8-16.7c13.7-10.2,22.6-25,34-37.4ZM965.6,584.7c16.2,11.4,28.2,27.6,43.2,40.4c13.6,15.2,29,28.6,46.8,38.6c14.8,9.9,28.6,22.5,46.5,26.6-14.5,3-28.5-11.2-41.2-18-13.3-10.3-28.9-17.5-40.5-30-17.4-17.8-36-34.5-52.2-53.4l-1.4-2.1Zm804.6,58.7c7.1-8.2,19.1-9.8,25.9-18.4c7.3-3-2.5,7.5-6,8.4-9.153929,5.075828-17.650705,11.255301-25.3,18.4-6,4.9-14,7.4-18.7,14-2.6,3.4-5,.8-1.5-1.6c6.2-7.2,14.4-12.3,22.3-17.4c1.2-1,2.4-2.1,3.3-3.4Z" fill="#332020"/><path d="M1067.6,661.2c-5-3.8-22.5-10.4-17.2-14.5c21.1,8.2,35.8,28,58.3,33.4c18,6.8,33.8,18.4,52.5,23.4c13.4,6.5,30.5,12,40.7,21-19.1-4.7-35.6-17-54.8-21.7-19.8-10-40.5-18.5-60.5-28.3-7-3.5-12.3-9.3-19-13.3Zm520.7,74.7c8.2-8.5,22.6-3.3,30.8-12.3c9.7-6.4,21.5-8,31.3-14.5c12.847955-5.208735,25.460184-10.980998,37.8-17.3c11.5-2.7,21-10,31.8-13.8c2.3,3.5-13.5,10.1-19.3,13-12,3.2-21.5,11-32.7,15.7-16,3-29,14.4-44.7,17.9-10.10415,6.233221-21.489046,10.096564-33.3,11.3Zm-420.2-11.6c-8.3-.6-3-8.3,1.7-2c8.2,4.7,18.3,3.1,26.3,8.3c14.8,8,31.9,9,47.6,14.3c6.5,1.4,20-.4,22.2,2.9-8.3,1.4-17.1.4-25.4-.6-8.7-4.2-18.3-3.6-27.3-6.3-8.8-3-17.7-5.2-25.9-9.7-6-3.1-14.2-1.7-19.2-7ZM1550.9,741c-2-.3-2.7-2.7-.5-3.2c6.2-2.4,13-2.1,19.6-2.6c2,.3,5-1.1,6.2.5-1.4,1.5-4,.6-5.8,1.2-5.9.7-11.7,2.2-17.3,4.3-.7.2-1.5.1-2.2-.2Zm-253.6,9.5c-5.3-1.2-16.6-.1-17.4-5c6.3-.3,12.5,1.6,18.8,1.4c13,.2,25.3,4.5,38.1,6c9,.2,18-.7,26.8,1.7c5.5,3,15.9.3,18.7,1.4-8.7,6-19.2.1-28.7,0-9-.5-18.1,1-27.1-1-9.7-1.7-19.4-3.8-29.3-4.5Zm160.7-.7c-1.7-2.8,2-1,3.1-1c6.6-.7,13.3-1.9,19.6-1.1.4,0,11.6.7,11,2.4-.128789.22144-.408574.341348-.7.3-5-.5-9.8-1-15-.7l-16,1.1c-.808143.105286-1.599343-.290314-2-1Zm-36.7,6.9c3.3,0,7.4-2.8,10.3-1.4-1.6,2.2-5.2,1.5-7.7,2.2-3.9.2-7.7,1.8-11.7,1-3.7-.4-7.2-1.2-10.8-2-1.7.8-5.8-.6-3.5-2.5c8-1.2,15.4,5,23.4,2.7ZM-30.9,403.3c-8,16.8-17.2,33-24.4,50.4-5.4,16-13.5,31.1-17.1,47.6c3.4,6.5-1.5,23.7-8,12.7c5.1-17.7,12.3-35,18.4-52.5c9.3-20.2,17-41.4,29.7-59.8c10.7-8.4,13.1-23.9,25.3-30.6c11.3,2.7-9.5,5.2-9,12.8-4,7-7,15.6-14.9,19.4ZM2684.2,102.6c-10.3-4-16.5-14.8-27.9-16.7-10.3-4-20.4-8.9-30.6-12.9-9.289087-2.064376-18.043374-6.049791-25.7-11.7c7,.4,15.2,4.1,22,7.5c15.4,4.5,29,13.7,44.4,18.1c7.5,3.5,11.9,11.9,20.5,13.3c12.4,6.3,20,14.1,9.3,8.4-3.623375-2.678171-7.683438-4.708202-12-6Z" fill="#332020"/></g></g></g><g id="ebEFpfyDJSX27_to" transform="translate(30.3767,968.888)"><g transform="translate(0,0)"><path d="M8,5.5h30.9v629.6h-30.9Z" fill="#887b6c"/><path d="M33.3,0c-9.5.5-19.1,2-28.9,4.3-.327446.102607-.609812.314382-.8.6-2.4,3.3-3,6.8-1.8,10.5.381746,1.091647.272342,2.295088-.3,3.3-.9,7.2-1,12-.5,14.3c1,4.4,1.7,9,2,13.5.4,13.6-1.6,26.9-.4,40.4c1.6,18.5,2.2,39.2.7,59.2-.8,11.5.3,21.6.1,32.4-.8,12-.7,24,.3,36l.5,27.7L4,258.5c0,13.4.2,26.7-.7,40-1,14.4-2.8,26.4-2.6,39.4.1,9.1-.5,16.8-.7,25.3v2.2c1,9,.9,18.7,1.7,26.8c1.899168,14.182813,2.43495,28.514977,1.6,42.8-.469346,15.496447-.469346,31.003553,0,46.5l-2,27.7c-.570802,4.854539-.503564,9.762918.2,14.6.3,9.6.7,19.2,1.3,28.8.3,5.2-.4,10.4-.5,15.6-.1,1.8-.3,3.5-.7,5.1-.5,2.2.2,3.6.7,5.7.7,7.7,1.6,14.8,1.5,23-.1,3.7,0,7.5.3,11.2-.3,7-.2,14,.3,20.8c0,.5.3.9,1,1h6l-.5-28.4.3-3.5c.2-1.7-.4-3.3-.4-4.9.1-7.1,0-14.2-.1-21.4-.3-7.6.8-16.3.2-24.6-.2-3,.5-7.1-.4-10.7-.3-1-.3-2.6,0-4.8c1-7.6,1-15.3.3-23c0-.4.5-1.3.5-2c.7-8.3,1-16.6,1.2-24.9.1-7.4-1-16.1-1.2-24.2c0-.7.5-1.7.4-2.5l-1-39.8c-.2-5.1.5-10.8.5-14.8.1-12.1-1.1-26.6-.6-40c.8-16.6-.3-33.3.2-50c1.4-48.5-.4-103.4-.6-145.8c0-6.2-.4-12.4-.3-17.7.6-19,2.4-38,3-56.8.3-8.3-1.4-16.4-1.3-25c0-3.5-.8-8.2,0-13c.3-2.8-.3-6-.3-8.3-.1-12.6,0-25.2.1-37.7.003359-.513913.169688-.929736.4-1l5.1-1.7c.131417-.096751.292615-.052179.418547.115729s.195816.431448.181453.684271c0,2.4-1.3,10.4.1,11.9.094427.125903.242621.2.4.2s.305573-.074097.4-.2c2.5-2.2,2.6-8.8,3-11.9.080385-.614748.41587-1.076041.8-1.1l11-1.1c.118301-.043593.243978.010436.341342.146746s.155779.340009.158658.553254c.1,9.7.4,19.4,1,29c.8,14.5-3.1,31-2.2,43.2c1,13.9.8,24.5-.2,38.1-.5,7.4-.8,14-.8,20l.4,50.3.4,65c0,12.6,1,26.2,1.3,39.4.2,5.2,1.1,16.5.7,24.8-.3,4.5-.4,8.3-.2,11.3c1.3,38.4-3.6,78.1-3.5,117.2c0,23.5.3,47,1.2,70.6.1,3.3.4,6.9.8,10.6c2.4,20.8,4,38.3,4.9,52.5.4,6.7-.3,14.8.1,23c.2,4.4-.2,8.8,0,13c.3,6.4.2,12.8-.4,19.2h11.8v-4c-1.7-24.5-3-49-5.5-73.5-3.245737-26.300531-4.249352-52.829415-3-79.3.5-8.3.6-16.6.5-24.9c0-4.7,1-10,.8-15.3.386579-3.389012.386579-6.810988,0-10.2-1.3-15.4-.8-31-.7-46.3c0-3.4.2-6.9.5-10.3.4-4.6-.1-9.1,0-13.8.5-9.1.6-18.2.5-27.4-.2-10,.9-19.3,1.6-29l.3-4.8v-7.6c.005273-.321897.148787-.644802.4-.9.3-.4.5-.7.5-1c.4-7,2.2-14.8.3-18.7-.152324-.275485-.152324-.644107,0-1l.5-.8.2-1c-.5-9,1-18.6,1-26.6-.1-3,.5-11.8-.7-14.2-.170734-.271598-.273628-.580281-.3-.9.1-6-.8-12.1-.8-17.8c0-11.6-1-23.1-3-34.6-.7-4,.7-8.1.9-11l.7-8.6.3-6.8c-.7-5.5-1-11-1.3-16.5-.1-5.7-1-13.2-1-19.8c0-11.5-.3-22.4,1.3-33.8c1.5-10.4,1-20.4,1-30.6c0-.3,0-.6-.2-1-.6-1.1,0-2.2,0-3.3c0-4.7-1-9.3-.3-14c.525628-3.389673.42394-6.847079-.3-10.2l-.4-6.3-.3-7.9c.00626-.270102-.198376-.515665-.5-.6L38.3,0Z" fill="#332020"/><path d="M31.4,41.4c0,14.4-3.2,28.6-2.6,43-.011682,7.355215-.479245,14.702635-1.4,22-.7,3.2,1,8.4-2.6,9.8-1-2.3-.8-5-1-7.5c0-8,3-15.8,2.6-24c0-6,.3-12,.9-18c.2-7.4,1-14.8,1.6-22.1.3-6,.2-12.2,1-18.2c2.7,4.6,1.2,10,1.6,15ZM19.6,38.1c1-2.4,1.7,1.2,1.6,2.2.8,4.4,1,9,0,13.4-.4,3,1,6,0,9-1.8,2.5-3.9-1.2-3.2-3.2.2-3.8.9-7.7.5-11.5c0-3.3,0-6.7,1.1-9.9Zm4,88.3c.5-2.5,1.4,0,1.5.6.1,1.6.8,15-.7,14.7-.249463-.081014-.441648-.311636-.5-.6q-1.7-7.4-.3-14.7Zm.5,23.8c2,2,1,5,1,7.6-.3,6.2-1.7,12.4-1.4,18.7-.3,2.7,1,5.7-.4,8.3-2,.4-2.2-2.2-1.9-3.5.8-3.7.7-7.5,1-11.2.3-6.6.8-13.3,1.8-20ZM19,252.7c1,10-.9,20.1-.7,30.2-.5,10.3-1,20.7.2,31-5,1.7-4.5-5.7-3.7-8.8.8-8.5.5-17.2,1.3-25.7.6-8.2,1-16.4.7-24.6-.2-8,1.3-15.8,1.2-23.7.2-6,.2-12.2.6-18.3c3.5,13,2,26.7.5,39.9Zm11,5.5c2.6-1.4,1.4,2.8,1.2,4-1,10.3-2.3,20.5-2.2,30.7c0,8.3-.2,16.5-1.5,24.7-2.1.6-.9-3.3-1.4-4.6-1-18.3,1.2-36.7,4-54.8ZM26.4,359.6c0,2.2,1.8,6.7-.6,7.4-1.5-2-.7-4.9-.8-7.3.5-7.6-.6-15.2-.3-22.8c0-3,1.2-20,2.5-14.5.7,4.9.9,10-.5,14.7-1.7,10.2,1.7,14-.3,22.5ZM16,517c1.9-18.2-2-37,3.6-54.7.5-6.7.6-13.6.9-20.4.2-15.5.3-31-.4-46.4-.1-7.2-.3-14.6-3.3-21.2c1.7-6.4,5,3.7,4.8,6.4.5,8.1,0,16.3.7,24.5-.2,12.2-.5,24.5.1,36.7-.8,7.7.4,15.2-1,22.7-2.2,6.7-1,13.8-2.2,20.6-1,8,0,16.2-.8,24.2-.5,9,.2,18,1.3,27c0,3,1.3,11.4-1,11-2.625416-9.905694-3.571862-20.181398-2.8-30.4Zm4.3,118c-5.6.2-1.7-8.7-2.8-12.5.7-7.1,2.5-14.3,1.5-21.5-.7-6-.4-12.2.6-18.2-.5-2.6,1.2-4.9.7-.7-.3,4.3,1.8,8.5,1.2,13c.7,7.4.7,15,0,22.3-1,5.8-1.4,11.7-1.2,17.6ZM30,590c.194133,6.206701.527551,12.408262,1,18.6-.2,1.9.8,3.5,1.2,5.2-.2,3.2-1.2,3.4-3,.5-3.2-5,0-18.5.7-24.4Z" fill="#332020"/></g></g><g id="ebEFpfyDJSX31_to" transform="translate(315.799,666.938)"><g transform="translate(0,0)"><path d="M8,5.5h30.9v629.6h-30.9Z" fill="#887b6c"/><path d="M33.3,0c-9.5.5-19.1,2-28.9,4.3-.327446.102607-.609812.314382-.8.6-2.4,3.3-3,6.8-1.8,10.5.381746,1.091647.272342,2.295088-.3,3.3-.9,7.2-1,12-.5,14.3c1,4.4,1.7,9,2,13.5.4,13.6-1.6,26.9-.4,40.4c1.6,18.5,2.2,39.2.7,59.2-.8,11.5.3,21.6.1,32.4-.8,12-.7,24,.3,36l.5,27.7L4,258.5c0,13.4.2,26.7-.7,40-1,14.4-2.8,26.4-2.6,39.4.1,9.1-.5,16.8-.7,25.3v2.2c1,9,.9,18.7,1.7,26.8c1.899168,14.182813,2.43495,28.514977,1.6,42.8-.469346,15.496447-.469346,31.003553,0,46.5l-2,27.7c-.570802,4.854539-.503564,9.762918.2,14.6.3,9.6.7,19.2,1.3,28.8.3,5.2-.4,10.4-.5,15.6-.1,1.8-.3,3.5-.7,5.1-.5,2.2.2,3.6.7,5.7.7,7.7,1.6,14.8,1.5,23-.1,3.7,0,7.5.3,11.2-.3,7-.2,14,.3,20.8c0,.5.3.9,1,1h6l-.5-28.4.3-3.5c.2-1.7-.4-3.3-.4-4.9.1-7.1,0-14.2-.1-21.4-.3-7.6.8-16.3.2-24.6-.2-3,.5-7.1-.4-10.7-.3-1-.3-2.6,0-4.8c1-7.6,1-15.3.3-23c0-.4.5-1.3.5-2c.7-8.3,1-16.6,1.2-24.9.1-7.4-1-16.1-1.2-24.2c0-.7.5-1.7.4-2.5l-1-39.8c-.2-5.1.5-10.8.5-14.8.1-12.1-1.1-26.6-.6-40c.8-16.6-.3-33.3.2-50c1.4-48.5-.4-103.4-.6-145.8c0-6.2-.4-12.4-.3-17.7.6-19,2.4-38,3-56.8.3-8.3-1.4-16.4-1.3-25c0-3.5-.8-8.2,0-13c.3-2.8-.3-6-.3-8.3-.1-12.6,0-25.2.1-37.7.003359-.513913.169688-.929736.4-1l5.1-1.7c.131417-.096751.292615-.052179.418547.115729s.195816.431448.181453.684271c0,2.4-1.3,10.4.1,11.9.094427.125903.242621.2.4.2s.305573-.074097.4-.2c2.5-2.2,2.6-8.8,3-11.9.080385-.614748.41587-1.076041.8-1.1l11-1.1c.118301-.043593.243978.010436.341342.146746s.155779.340009.158658.553254c.1,9.7.4,19.4,1,29c.8,14.5-3.1,31-2.2,43.2c1,13.9.8,24.5-.2,38.1-.5,7.4-.8,14-.8,20l.4,50.3.4,65c0,12.6,1,26.2,1.3,39.4.2,5.2,1.1,16.5.7,24.8-.3,4.5-.4,8.3-.2,11.3c1.3,38.4-3.6,78.1-3.5,117.2c0,23.5.3,47,1.2,70.6.1,3.3.4,6.9.8,10.6c2.4,20.8,4,38.3,4.9,52.5.4,6.7-.3,14.8.1,23c.2,4.4-.2,8.8,0,13c.3,6.4.2,12.8-.4,19.2h11.8v-4c-1.7-24.5-3-49-5.5-73.5-3.245737-26.300531-4.249352-52.829415-3-79.3.5-8.3.6-16.6.5-24.9c0-4.7,1-10,.8-15.3.386579-3.389012.386579-6.810988,0-10.2-1.3-15.4-.8-31-.7-46.3c0-3.4.2-6.9.5-10.3.4-4.6-.1-9.1,0-13.8.5-9.1.6-18.2.5-27.4-.2-10,.9-19.3,1.6-29l.3-4.8v-7.6c.005273-.321897.148787-.644802.4-.9.3-.4.5-.7.5-1c.4-7,2.2-14.8.3-18.7-.152324-.275485-.152324-.644107,0-1l.5-.8.2-1c-.5-9,1-18.6,1-26.6-.1-3,.5-11.8-.7-14.2-.170734-.271598-.273628-.580281-.3-.9.1-6-.8-12.1-.8-17.8c0-11.6-1-23.1-3-34.6-.7-4,.7-8.1.9-11l.7-8.6.3-6.8c-.7-5.5-1-11-1.3-16.5-.1-5.7-1-13.2-1-19.8c0-11.5-.3-22.4,1.3-33.8c1.5-10.4,1-20.4,1-30.6c0-.3,0-.6-.2-1-.6-1.1,0-2.2,0-3.3c0-4.7-1-9.3-.3-14c.525628-3.389673.42394-6.847079-.3-10.2l-.4-6.3-.3-7.9c.00626-.270102-.198376-.515665-.5-.6L38.3,0Z" fill="#332020"/><path d="M31.4,41.4c0,14.4-3.2,28.6-2.6,43-.011682,7.355215-.479245,14.702635-1.4,22-.7,3.2,1,8.4-2.6,9.8-1-2.3-.8-5-1-7.5c0-8,3-15.8,2.6-24c0-6,.3-12,.9-18c.2-7.4,1-14.8,1.6-22.1.3-6,.2-12.2,1-18.2c2.7,4.6,1.2,10,1.6,15ZM19.6,38.1c1-2.4,1.7,1.2,1.6,2.2.8,4.4,1,9,0,13.4-.4,3,1,6,0,9-1.8,2.5-3.9-1.2-3.2-3.2.2-3.8.9-7.7.5-11.5c0-3.3,0-6.7,1.1-9.9Zm4,88.3c.5-2.5,1.4,0,1.5.6.1,1.6.8,15-.7,14.7-.249463-.081014-.441648-.311636-.5-.6q-1.7-7.4-.3-14.7Zm.5,23.8c2,2,1,5,1,7.6-.3,6.2-1.7,12.4-1.4,18.7-.3,2.7,1,5.7-.4,8.3-2,.4-2.2-2.2-1.9-3.5.8-3.7.7-7.5,1-11.2.3-6.6.8-13.3,1.8-20ZM19,252.7c1,10-.9,20.1-.7,30.2-.5,10.3-1,20.7.2,31-5,1.7-4.5-5.7-3.7-8.8.8-8.5.5-17.2,1.3-25.7.6-8.2,1-16.4.7-24.6-.2-8,1.3-15.8,1.2-23.7.2-6,.2-12.2.6-18.3c3.5,13,2,26.7.5,39.9Zm11,5.5c2.6-1.4,1.4,2.8,1.2,4-1,10.3-2.3,20.5-2.2,30.7c0,8.3-.2,16.5-1.5,24.7-2.1.6-.9-3.3-1.4-4.6-1-18.3,1.2-36.7,4-54.8ZM26.4,359.6c0,2.2,1.8,6.7-.6,7.4-1.5-2-.7-4.9-.8-7.3.5-7.6-.6-15.2-.3-22.8c0-3,1.2-20,2.5-14.5.7,4.9.9,10-.5,14.7-1.7,10.2,1.7,14-.3,22.5ZM16,517c1.9-18.2-2-37,3.6-54.7.5-6.7.6-13.6.9-20.4.2-15.5.3-31-.4-46.4-.1-7.2-.3-14.6-3.3-21.2c1.7-6.4,5,3.7,4.8,6.4.5,8.1,0,16.3.7,24.5-.2,12.2-.5,24.5.1,36.7-.8,7.7.4,15.2-1,22.7-2.2,6.7-1,13.8-2.2,20.6-1,8,0,16.2-.8,24.2-.5,9,.2,18,1.3,27c0,3,1.3,11.4-1,11-2.625416-9.905694-3.571862-20.181398-2.8-30.4Zm4.3,118c-5.6.2-1.7-8.7-2.8-12.5.7-7.1,2.5-14.3,1.5-21.5-.7-6-.4-12.2.6-18.2-.5-2.6,1.2-4.9.7-.7-.3,4.3,1.8,8.5,1.2,13c.7,7.4.7,15,0,22.3-1,5.8-1.4,11.7-1.2,17.6ZM30,590c.194133,6.206701.527551,12.408262,1,18.6-.2,1.9.8,3.5,1.2,5.2-.2,3.2-1.2,3.4-3,.5-3.2-5,0-18.5.7-24.4Z" fill="#332020"/></g></g><g id="ebEFpfyDJSX35_to" transform="translate(564.442,672.038)"><g transform="translate(0,0)"><path d="M8,5.5h30.9v629.6h-30.9Z" fill="#887b6c"/><path d="M33.3,0c-9.5.5-19.1,2-28.9,4.3-.327446.102607-.609812.314382-.8.6-2.4,3.3-3,6.8-1.8,10.5.381746,1.091647.272342,2.295088-.3,3.3-.9,7.2-1,12-.5,14.3c1,4.4,1.7,9,2,13.5.4,13.6-1.6,26.9-.4,40.4c1.6,18.5,2.2,39.2.7,59.2-.8,11.5.3,21.6.1,32.4-.8,12-.7,24,.3,36l.5,27.7L4,258.5c0,13.4.2,26.7-.7,40-1,14.4-2.8,26.4-2.6,39.4.1,9.1-.5,16.8-.7,25.3v2.2c1,9,.9,18.7,1.7,26.8c1.899168,14.182813,2.43495,28.514977,1.6,42.8-.469346,15.496447-.469346,31.003553,0,46.5l-2,27.7c-.570802,4.854539-.503564,9.762918.2,14.6.3,9.6.7,19.2,1.3,28.8.3,5.2-.4,10.4-.5,15.6-.1,1.8-.3,3.5-.7,5.1-.5,2.2.2,3.6.7,5.7.7,7.7,1.6,14.8,1.5,23-.1,3.7,0,7.5.3,11.2-.3,7-.2,14,.3,20.8c0,.5.3.9,1,1h6l-.5-28.4.3-3.5c.2-1.7-.4-3.3-.4-4.9.1-7.1,0-14.2-.1-21.4-.3-7.6.8-16.3.2-24.6-.2-3,.5-7.1-.4-10.7-.3-1-.3-2.6,0-4.8c1-7.6,1-15.3.3-23c0-.4.5-1.3.5-2c.7-8.3,1-16.6,1.2-24.9.1-7.4-1-16.1-1.2-24.2c0-.7.5-1.7.4-2.5l-1-39.8c-.2-5.1.5-10.8.5-14.8.1-12.1-1.1-26.6-.6-40c.8-16.6-.3-33.3.2-50c1.4-48.5-.4-103.4-.6-145.8c0-6.2-.4-12.4-.3-17.7.6-19,2.4-38,3-56.8.3-8.3-1.4-16.4-1.3-25c0-3.5-.8-8.2,0-13c.3-2.8-.3-6-.3-8.3-.1-12.6,0-25.2.1-37.7.003359-.513913.169688-.929736.4-1l5.1-1.7c.131417-.096751.292615-.052179.418547.115729s.195816.431448.181453.684271c0,2.4-1.3,10.4.1,11.9.094427.125903.242621.2.4.2s.305573-.074097.4-.2c2.5-2.2,2.6-8.8,3-11.9.080385-.614748.41587-1.076041.8-1.1l11-1.1c.118301-.043593.243978.010436.341342.146746s.155779.340009.158658.553254c.1,9.7.4,19.4,1,29c.8,14.5-3.1,31-2.2,43.2c1,13.9.8,24.5-.2,38.1-.5,7.4-.8,14-.8,20l.4,50.3.4,65c0,12.6,1,26.2,1.3,39.4.2,5.2,1.1,16.5.7,24.8-.3,4.5-.4,8.3-.2,11.3c1.3,38.4-3.6,78.1-3.5,117.2c0,23.5.3,47,1.2,70.6.1,3.3.4,6.9.8,10.6c2.4,20.8,4,38.3,4.9,52.5.4,6.7-.3,14.8.1,23c.2,4.4-.2,8.8,0,13c.3,6.4.2,12.8-.4,19.2h11.8v-4c-1.7-24.5-3-49-5.5-73.5-3.245737-26.300531-4.249352-52.829415-3-79.3.5-8.3.6-16.6.5-24.9c0-4.7,1-10,.8-15.3.386579-3.389012.386579-6.810988,0-10.2-1.3-15.4-.8-31-.7-46.3c0-3.4.2-6.9.5-10.3.4-4.6-.1-9.1,0-13.8.5-9.1.6-18.2.5-27.4-.2-10,.9-19.3,1.6-29l.3-4.8v-7.6c.005273-.321897.148787-.644802.4-.9.3-.4.5-.7.5-1c.4-7,2.2-14.8.3-18.7-.152324-.275485-.152324-.644107,0-1l.5-.8.2-1c-.5-9,1-18.6,1-26.6-.1-3,.5-11.8-.7-14.2-.170734-.271598-.273628-.580281-.3-.9.1-6-.8-12.1-.8-17.8c0-11.6-1-23.1-3-34.6-.7-4,.7-8.1.9-11l.7-8.6.3-6.8c-.7-5.5-1-11-1.3-16.5-.1-5.7-1-13.2-1-19.8c0-11.5-.3-22.4,1.3-33.8c1.5-10.4,1-20.4,1-30.6c0-.3,0-.6-.2-1-.6-1.1,0-2.2,0-3.3c0-4.7-1-9.3-.3-14c.525628-3.389673.42394-6.847079-.3-10.2l-.4-6.3-.3-7.9c.00626-.270102-.198376-.515665-.5-.6L38.3,0Z" fill="#332020"/><path d="M31.4,41.4c0,14.4-3.2,28.6-2.6,43-.011682,7.355215-.479245,14.702635-1.4,22-.7,3.2,1,8.4-2.6,9.8-1-2.3-.8-5-1-7.5c0-8,3-15.8,2.6-24c0-6,.3-12,.9-18c.2-7.4,1-14.8,1.6-22.1.3-6,.2-12.2,1-18.2c2.7,4.6,1.2,10,1.6,15ZM19.6,38.1c1-2.4,1.7,1.2,1.6,2.2.8,4.4,1,9,0,13.4-.4,3,1,6,0,9-1.8,2.5-3.9-1.2-3.2-3.2.2-3.8.9-7.7.5-11.5c0-3.3,0-6.7,1.1-9.9Zm4,88.3c.5-2.5,1.4,0,1.5.6.1,1.6.8,15-.7,14.7-.249463-.081014-.441648-.311636-.5-.6q-1.7-7.4-.3-14.7Zm.5,23.8c2,2,1,5,1,7.6-.3,6.2-1.7,12.4-1.4,18.7-.3,2.7,1,5.7-.4,8.3-2,.4-2.2-2.2-1.9-3.5.8-3.7.7-7.5,1-11.2.3-6.6.8-13.3,1.8-20ZM19,252.7c1,10-.9,20.1-.7,30.2-.5,10.3-1,20.7.2,31-5,1.7-4.5-5.7-3.7-8.8.8-8.5.5-17.2,1.3-25.7.6-8.2,1-16.4.7-24.6-.2-8,1.3-15.8,1.2-23.7.2-6,.2-12.2.6-18.3c3.5,13,2,26.7.5,39.9Zm11,5.5c2.6-1.4,1.4,2.8,1.2,4-1,10.3-2.3,20.5-2.2,30.7c0,8.3-.2,16.5-1.5,24.7-2.1.6-.9-3.3-1.4-4.6-1-18.3,1.2-36.7,4-54.8ZM26.4,359.6c0,2.2,1.8,6.7-.6,7.4-1.5-2-.7-4.9-.8-7.3.5-7.6-.6-15.2-.3-22.8c0-3,1.2-20,2.5-14.5.7,4.9.9,10-.5,14.7-1.7,10.2,1.7,14-.3,22.5ZM16,517c1.9-18.2-2-37,3.6-54.7.5-6.7.6-13.6.9-20.4.2-15.5.3-31-.4-46.4-.1-7.2-.3-14.6-3.3-21.2c1.7-6.4,5,3.7,4.8,6.4.5,8.1,0,16.3.7,24.5-.2,12.2-.5,24.5.1,36.7-.8,7.7.4,15.2-1,22.7-2.2,6.7-1,13.8-2.2,20.6-1,8,0,16.2-.8,24.2-.5,9,.2,18,1.3,27c0,3,1.3,11.4-1,11-2.625416-9.905694-3.571862-20.181398-2.8-30.4Zm4.3,118c-5.6.2-1.7-8.7-2.8-12.5.7-7.1,2.5-14.3,1.5-21.5-.7-6-.4-12.2.6-18.2-.5-2.6,1.2-4.9.7-.7-.3,4.3,1.8,8.5,1.2,13c.7,7.4.7,15,0,22.3-1,5.8-1.4,11.7-1.2,17.6ZM30,590c.194133,6.206701.527551,12.408262,1,18.6-.2,1.9.8,3.5,1.2,5.2-.2,3.2-1.2,3.4-3,.5-3.2-5,0-18.5.7-24.4Z" fill="#332020"/></g></g><g id="ebEFpfyDJSX39_to" transform="translate(810.534,919.405)"><g transform="translate(0,0)"><path d="M8,5.5h30.9l.347641,718.248541h-30.9Z" fill="#887b6c"/><path d="M33.3,0c-9.5.5-19.1-18-28.9-15.7-.327446.102607-.609812.314382-.8.6-2.4,3.3-3,6.8-1.8,10.5.381746,1.091647.272342,2.295088-.3,3.3-.9,7.2-1,32-.5,34.3c1,4.4,1.7,9,2,13.5.4,13.6-1.6,26.9-.4,40.4c1.6,18.5,2.2,39.2.7,59.2-.8,11.5.3,21.6.1,32.4-.8,12-.7,24,.3,36l.5,27.7L4,258.5c0,13.4.2,26.7-.7,40-1,14.4-2.8,26.4-2.6,39.4.1,9.1-.5,16.8-.7,25.3v2.2c1,9,.9,18.7,1.7,26.8c1.899168,14.182813,2.43495,28.514977,1.6,42.8-.469346,15.496447-.469346,31.003553,0,46.5l-2,27.7c-.570802,4.854539-.503564,9.762918.2,14.6.3,9.6.7,19.2,1.3,28.8.3,5.2-.4,10.4-.5,15.6-.1,1.8-.3,3.5-.7,5.1-.5,2.2.2,3.6.7,5.7.7,7.7,1.6,14.8,1.5,23-.1,3.7,0,7.5.3,11.2-.3,7,.147641,102.648541.647641,109.448541c0,.5.3.9,1,1h6L10.9,606.6l.3-3.5c.2-1.7-.4-3.3-.4-4.9.1-7.1,0-14.2-.1-21.4-.3-7.6.8-16.3.2-24.6-.2-3,.5-7.1-.4-10.7-.3-1-.3-2.6,0-4.8c1-7.6,1-15.3.3-23c0-.4.5-1.3.5-2c.7-8.3,1-16.6,1.2-24.9.1-7.4-1-16.1-1.2-24.2c0-.7.5-1.7.4-2.5l-1-39.8c-.2-5.1.5-10.8.5-14.8.1-12.1-1.1-26.6-.6-40c.8-16.6-.3-33.3.2-50c1.4-48.5-.4-103.4-.6-145.8c0-6.2-.4-12.4-.3-17.7.6-19,2.4-38,3-56.8.3-8.3-1.4-16.4-1.3-25c0-3.5-.8-8.2,0-13c.3-2.8-.3-6-.3-8.3-.1-12.6,0-25.2.1-37.7.003359-.513913.169688-.929736.4-1l5.1-1.7c.131417-.096751.292615-.052179.418547.115729s.195816.431448.181453.684271c0,2.4-1.3,10.4.1,11.9.094427.125903.242621.2.4.2s.305573-.074097.4-.2c2.5-2.2,2.6-8.8,3-11.9.080385-.614748.41587-1.076041.8-1.1l11-1.1c.118301-.043593.243978.010436.341342.146746s.155779.340009.158658.553254c.1,9.7.4,19.4,1,29c.8,14.5-3.1,31-2.2,43.2c1,13.9.8,24.5-.2,38.1-.5,7.4-.8,14-.8,20l.4,50.3.4,65c0,12.6,1,26.2,1.3,39.4.2,5.2,1.1,16.5.7,24.8-.3,4.5-.4,8.3-.2,11.3c1.3,38.4-3.6,78.1-3.5,117.2c0,23.5.3,47,1.2,70.6.1,3.3.4,6.9.8,10.6c2.4,20.8,4,38.3,4.9,52.5.4,6.7-.3,14.8.1,23c.2,4.4-.2,8.8,0,13c.3,6.4.547641,101.448541-.052359,107.848541h11.8L49,631c-1.7-24.5-3-49-5.5-73.5-3.245737-26.300531-4.249352-52.829415-3-79.3.5-8.3.6-16.6.5-24.9c0-4.7,1-10,.8-15.3.386579-3.389012.386579-6.810988,0-10.2-1.3-15.4-.8-31-.7-46.3c0-3.4.2-6.9.5-10.3.4-4.6-.1-9.1,0-13.8.5-9.1.6-18.2.5-27.4-.2-10,.9-19.3,1.6-29l.3-4.8v-7.6c.005273-.321897.148787-.644802.4-.9.3-.4.5-.7.5-1c.4-7,2.2-14.8.3-18.7-.152324-.275485-.152324-.644107,0-1l.5-.8.2-1c-.5-9,1-18.6,1-26.6-.1-3,.5-11.8-.7-14.2-.170734-.271598-.273628-.580281-.3-.9.1-6-.8-12.1-.8-17.8c0-11.6-1-23.1-3-34.6-.7-4,.7-8.1.9-11l.7-8.6.3-6.8c-.7-5.5-1-11-1.3-16.5-.1-5.7-1-13.2-1-19.8c0-11.5-.3-22.4,1.3-33.8c1.5-10.4,1-20.4,1-30.6c0-.3,0-.6-.2-1-.6-1.1,0-2.2,0-3.3c0-4.7-1-9.3-.3-14c.525628-3.389673.42394-6.847079-.3-10.2l-.4-6.3-.3-7.9c.00626-.270102-.198376-.515665-.5-.6L38.3,0Z" fill="#332020"/><path d="M31.4,41.4c0,14.4-3.2,28.6-2.6,43-.011682,7.355215-.479245,14.702635-1.4,22-.7,3.2,1,8.4-2.6,9.8-1-2.3-.8-5-1-7.5c0-8,3-15.8,2.6-24c0-6,.3-12,.9-18c.2-7.4,1-14.8,1.6-22.1.3-6,.2-12.2,1-18.2c2.7,4.6,1.2,10,1.6,15ZM19.6,38.1c1-2.4,1.7,1.2,1.6,2.2.8,4.4,1,9,0,13.4-.4,3,1,6,0,9-1.8,2.5-3.9-1.2-3.2-3.2.2-3.8.9-7.7.5-11.5c0-3.3,0-6.7,1.1-9.9Zm4,88.3c.5-2.5,1.4,0,1.5.6.1,1.6.8,15-.7,14.7-.249463-.081014-.441648-.311636-.5-.6q-1.7-7.4-.3-14.7Zm.5,23.8c2,2,1,5,1,7.6-.3,6.2-1.7,12.4-1.4,18.7-.3,2.7,1,5.7-.4,8.3-2,.4-2.2-2.2-1.9-3.5.8-3.7.7-7.5,1-11.2.3-6.6.8-13.3,1.8-20ZM19,252.7c1,10-.9,20.1-.7,30.2-.5,10.3-1,20.7.2,31-5,1.7-4.5-5.7-3.7-8.8.8-8.5.5-17.2,1.3-25.7.6-8.2,1-16.4.7-24.6-.2-8,1.3-15.8,1.2-23.7.2-6,.2-12.2.6-18.3c3.5,13,2,26.7.5,39.9Zm11,5.5c2.6-1.4,1.4,2.8,1.2,4-1,10.3-2.3,20.5-2.2,30.7c0,8.3-.2,16.5-1.5,24.7-2.1.6-.9-3.3-1.4-4.6-1-18.3,1.2-36.7,4-54.8ZM26.4,359.6c0,2.2,1.8,6.7-.6,7.4-1.5-2-.7-4.9-.8-7.3.5-7.6-.6-15.2-.3-22.8c0-3,1.2-20,2.5-14.5.7,4.9.9,10-.5,14.7-1.7,10.2,1.7,14-.3,22.5ZM16,517c1.9-18.2-2-37,3.6-54.7.5-6.7.6-13.6.9-20.4.2-15.5.3-31-.4-46.4-.1-7.2-.3-14.6-3.3-21.2c1.7-6.4,5,3.7,4.8,6.4.5,8.1,0,16.3.7,24.5-.2,12.2-.5,24.5.1,36.7-.8,7.7.4,15.2-1,22.7-2.2,6.7-1,13.8-2.2,20.6-1,8,0,16.2-.8,24.2-.5,9,.2,18,1.3,27c0,3,1.3,11.4-1,11-2.625416-9.905694-3.571862-20.181398-2.8-30.4Zm3.855667,149.474173C14.255667,666.674173,18.6,626.3,17.5,622.5c.7-7.1,2.5-14.3,1.5-21.5-.7-6-.4-12.2.6-18.2-.5-2.6,1.2-4.9.7-.7-.3,4.3,1.8,8.5,1.2,13c.7,7.4.7,15,0,22.3-1,5.8-1.844333,43.174173-1.644333,49.074173ZM30,590c.194133,6.206701.527551,12.408262,1,18.6-.2,1.9.8,3.5,1.2,5.2-.2,3.2-1.2,3.4-3,.5-3.2-5,0-18.5.7-24.4Z" fill="#332020"/></g></g><g id="ebEFpfyDJSX43_to" transform="translate(53.109,636.995)"><g transform="translate(0,0)"><path d="M339.6,9c-18.5,4.4-42.7,4-57.8,10.3-28.2,9.9-57.6,21.1-83.6,30.9C135,78.2,87.7,130.2,47,188c-8.5,17.3-19.5,33.4-27.3,51-6.3,8-110.2,265.2-115.2,269.8-.4,33.3,0,77.9-.1,102.4c4.1-4.4,104-242.2,106-246.6c13-21.9,17.5-54,34-72.9-1.8-5,3.6-12.1,6-16c13-17.6,18.4-41.6,30-58c30.1-59.2,88.9-108,116-122.4c5.8-5.9,16.2-6.6,21.5-10.9C253.6,62.6,276.6,57,320.8,49.1c17.8,4.3,47.5-9,60.5-5.2c57.8-2.3,116.6-7.7,212.5,47.5c20,13.5,34.4,32.7,52.7,44.9c8.7,11.7,21.4,21.3,30.2,30.3c19.9,19.7,40.6,46.6,50.2,68.7C769.7,293,800,355.5,827,410c6.6,8.6,8,20,16.7,29.6c19.1,45.4,56,89.1,76,114.9c3.5,8.8,12.8,13.5,16,21.2c20.5,23.5,52.5,58.5,68.8,71.6c44.9,33.3,101.3,66.8,142.6,82.4c6.8,4.1,14.2,3.5,20,8.3c13.5,6.5,28.8,7,39.7,14.2c12.6,5.5,27.7,9.2,40,12.5c15.2-1.8,37.7,9.2,51,8c16,5.5,39.5.6,51.7,5.3c19,4.1,40.8-5.1,57.3-2.5c14,1.2,24.6-.7,38.4-1.3c13.2-5.4,28.4-1.5,40.8-4.2c29.6-6,61.7-9.4,87.5-15c20.1-6.8,40.7-9,58-14.6c8.5,1.1,21.7-11,29.8-11.9c16.3-6,32.7-12.1,47.9-20.9c32.8-21.5,76.7-39.8,101.4-66.5c11.1-10.9,30-21.8,33.5-31c4.6-7.5,20-19.4,25.7-27c13.8-19.6,33-34.6,46.6-52.3c27.3-39.7,52.3-73.2,71.6-112.4c2.3-11.7,12.5-19.6,14.4-28.9c5.4-13.2,14.7-24.3,18.8-37c5.1-12.5,7.7-23.5,15.3-33.5c5.5-3,7.3-18.7,9.6-20.6c2.4-4,1.7-10.1,4.7-12.7c13.6-21.9,23.7-48,36.1-67.3c17.622015-35.729315,42.361777-67.479242,72.7-93.3c17-13,34.9-24.7,53.5-35.3c8.6-7.6,22.4-9.6,31-14.5c5.7-5.5,24.2-9.3,28.4-12.7c11.6-7.4,51.5-11.2,64-11.4c7.870459.785866,15.817831-.135074,23.3-2.7c57.5-9.3,72.4-3.2,124.4,1.8c13.8,4.6,41.2,7.6,51.1,13.8c19,5.5,37.3,19.3,54.1,25c4,1.3,115.5,51.2,120.2,52.6.5-18.2.2-37.4,0-53.7-11.7-6.2-133.4-61-146.3-63.8-16.7-4-30.7-5.6-45.8-9.8-23.6-1.3-48.5-9.3-71.5-10.3-25.7-1.9-44.6,1.2-68.1,3-34.7,4.3-73,8.6-103,19.3-13.3,1-25.5,7.3-37.5,11.2-7.5.6-15.5,10.2-20.8,9.1-45.7,20.3-97,52.5-125.6,89.7-10.2,9.9-13.8,27.5-25,33.7-16.06783,30.420714-33.416706,60.147345-52,89.1-2.475473,6.103395-5.957103,11.748369-10.3,16.7-4.2,25.7-36.8,76-47.7,99.3-18.1,39.5-41.1,87.3-64,117.6-44,64.3-94.3,110-150.5,151.4-6.5,4.8-18,9.1-26.4,14.1-12.8,7.7-26.5,14.4-39,21.6-26.3,16.5-47,23.5-75.4,32.2-8.5,3.9-15.6,4-24.4,5.8-13.1,8.4-50.4,9.2-58.4,13.8-1.370361,1.137181-3.12261,1.709344-4.9,1.6-50,4-99.8,5.3-148.5,3.7-5.1-.2-10.5-2.6-15.3-3-61.5-4.2-123.6-14-175.2-37-6.2,0-12.1-7.8-17-7.2-5.2-3-33.7-15.3-33.5-17.8-1.7-3-11.7-7.7-15-9.5-2.1,3.1-7.4-2.2-9-4-18.7-17-68.7-39.5-78.7-57-36.717166-30.164692-69.268078-65.069492-96.8-103.8-24.1-28.3-39.7-62.1-55.9-89.5-3.291178-3.073449-5.262651-7.303156-5.5-11.8-4-11-9.5-20.6-14.8-29.4C818.2,310.3,785,255.6,757,208c-3.440834-2.727212-5.402976-6.910647-5.3-11.3-24.5-41-60-79.2-87.6-109.6-13.8-10.8-47-29-51.1-38.5-.006863-1.741052-1.139126-3.277694-2.8-3.8C576.1,25.4,544.7,18.1,508,11.3c-19.581532-2.565506-39.117726-5.46593-58.6-8.7-24.3-5-74.4,5.4-109.8,6.3Z" fill="#332020"/><path d="M2601,86c-10.6-2.1-101.5-63.5-154.2-47.9-98.9-2-204,8.4-283,74.6-125.3,101.3-143.4,277.9-245,398.2-88.8,120-216.5,216.4-366.9,240.3-127,20.3-264.5,37.4-384.9-19.7-102.082185-35.909314-190.069938-103.406288-251.2-192.7-65.3-77-97-175.4-153-258.8C710,180.8,630,83,518.8,49.2C430,25.7,331.8,32.3,245.1,61.1C143.5,98.4,76.6,188.9,37.3,286.3c-10.7,21-116,274.5-123.6,287.1-3.8,6.3-1.5-58.7,2.4-73.6c4.5-17.2,74.6-170.8,80.1-188.5C27.5,231.4,79.9,147.1,146,88C272.7,8,441.8,-16.8,581,44.6C706.2,107,768,239,833.1,355c55.6,132.8,153.2,249.1,276.8,320.5c94.6,54.3,208.6,72,317.7,69.4c222.2,8.7,430.9-138,522.5-336.8c55.5-112.5,102.4-238.5,202.5-319.3c127.6-79.2,309.3-104.5,447.5-39L2709,97.1v37.1Z" fill="#887b6c"/><g><path d="M266.5,36.3c7-3.8,15.6-3.5,22.2-8.5c10-4,21.2-4,31.7-6.6c7.7-1,15.5-3.9,23.4-2.6c3.1-.1,15-1.3,12,3-8.8-1.9-17.5.9-26.4,1.4-11.7.5-23,3.7-34.2,6.5-8.4,2.5-16,7.2-24.7,9-1.1,0-4.8-.3-4-2.2ZM536,34c-18.5-2.8-36.7-6.9-55.4-8.8-16.8-.5-33.7-3.9-50.6-2.5-5.2,5.1-23,5.3-14.4-4c18.5-.2,37,1.5,55.6,2.3c22,3,44.5,4.4,65.8,11.1c11.1,7.8,26.7,5.7,36.7,15.4.6,11.6-7.8-7.6-15-4.8-7.8-1.9-16.9-2.4-22.8-8.7ZM2354.4,23.6c-12.1,1.2-24.4,2-36.4,4-10.3,2.6-20.9,4.2-30.5,9-5,.7-14.7,8.2-16.8,2.5c7-4,16.2-4.3,23.3-9c9-3.5,19-3.3,28.2-5.8c8.7-1.7,17.6-4,26.5-3.1c4.6-2.3,21,4.2,5.7,2.4Zm220.2,28.2c-11.6-9-27.7-7.8-40-15.8-32.495994-6.626152-65.538972-10.208318-98.7-10.7-5.8,1.6-24.8,7-18-2.8c21.3-2,42.6.8,63.8,2c22.6,4.4,47.2,3.4,67.7,15c8.2,1.9,33.3,6.3,25.8,15.6-1.3-.4-2.4-2.6-.6-3.3ZM385.6,29.3c-9,5.1-19.4-1.5-29,1.5-10.4,1.7-21,1-31.3,4.2-10,1.4-20.3,1.3-30,4.6-9.3,2.3-18.7,4.5-28.1,6.2-9,5.2-7.4-3.1.9-2.7c20-5,40-10.2,60.6-11.5c18.7-3.2,37.8-3.3,56.7-3Zm1963,3.2c12.5-.7,28.8-3,39.1,0-9.8,3.9-22.4-1.8-33.4,1.9-12.6,0-24.2,3.9-36.9,4.3-14.3,1.5-28,6.9-42.3,9.1-3.6,2.7-18,3-7-1c16.8-4,33.6-9,50.9-11.2c10-.1,19.6-2.8,29.6-3.2Z" fill="#332020"/><path d="M597.9,72c3.8,3.9-2.6,1.7-4.1-.4-9-5.2-19.7-6.5-28.4-12.3-5.8-2.8-11.5-6-17-9.4-3,0-7-4.7-1.6-3.3c5.6,1.6,10.2,5.5,15.5,7.8c7.2,4.1,14.7,7.9,22.6,10.4c4.694925,1.679551,9.08554,4.111276,13,7.2Zm2009.4,6.4c2.5,4.4-11.1-6.4-14.4-6.3-8.6-3.5-18-5.4-25.6-10.9-6.7-4-14-7.2-20.4-11.5c5.5-1.4,10,3.5,15,5.5c12.5,7.4,42.9,18.7,45.4,23.2Zm-2477.9,33c16.9-16.6,39.6-25.3,57.3-40.8c11.2-6,24-8.8,35.5-14c4.4-3,15.7-3.5,4.9,0-12.7,4.9-24.6,12-37.4,16.7-9,7.6-19,14-29.4,19.8-18.9,11.4-34.4,27.4-51.5,41.2-3.8,3-13.3,15-7.7,4c8.2-10.1,20.3-16.5,28.3-26.9Zm1972.9,35.9c3.7-13.6,18.8-18.6,26.8-29.3c14.5-15,33-25.4,50.7-36c9.4-10.3,22.7-13.8,35.2-18.5c6.5-3.2,30.2-11.1,13-3-12.7,5-24.9,11.3-37,17.3-17.6,13.7-38.4,22.8-54.4,38.5-11.4,10.4-24.4,19.2-34.3,31ZM648.7,103.6c-5.7-6.2-22.9-15.3-20.1-21c19.4,17.6,40.4,34.2,55,56.5c15,20,36.2,34.7,48.5,56.8c9.8,16.6,24.3,30.5,32,48-4.5,5.3-10-17.2-17-21.7-4.8-17.1-22-26.6-28-43-29.2-18.3-47.2-57.5-70.4-75.6ZM612.2,83c6.5,2.7,10.9,8.7,16.6,12.6c8,5.5,12.5,14.5,20.2,20.3c5.9,4.8,8.5,13,15.5,17c3.1,2,8,12.4,1.3,6.2-6.3-6-11.5-13-18-19-7.7-8.8-14.9-18.4-24.2-25.7-3.4-4.2-12.2-4.6-11.4-11.5ZM121.5,133.2c3.7,6-7.9,7.7-9.8,12.8-6,7.8-9,18-16.8,24.6-7,5.1-6.9,15.1-12.3,20.7-1.6-4.8,4.3-11.2,5.8-16.5c4.5-6.7,12.7-11,14.6-19.4c2.6-8,8-14.8,15.1-19.3c1.2-1,2.3-1.9,3.3-3Zm2003.2,3c4-3.1.9,5.5-2,5.6-7.344409,6.087903-13.136882,13.834052-16.9,22.6-5.3,7.7-13.8,13.6-15.8,23.3.3,3-6.9,10.8-4.5,4.1c2.8-4.9,4-10.5,6.8-15.3c4.6-6.2,12.7-10.2,14.1-18.4c3-9,9.9-16.1,17.8-20.9l.5-1ZM-2.6,317.3c-2.4-1.7,13.2-27.6,15.7-39.2c3.2-10.2,14.5-15.5,17-26.1c3.3-9,11.2-14.9,17.5-21.6c6.1-10.1,10.4-21.6,18.9-30.1c1.1-2.7,3.6-9.1,6-8.5-2.2,13-15.9,20-18.9,32.8-6.5,12-18.5,20.5-22.7,33.8-4.1,8.3-13.5,12.9-16.2,22-4.4,10.3-14.9,38.7-17.3,37Zm2038.3-58.7c-4.5,10.1-15.6,15.8-18.2,27-4.4,10.2-9.8,20-14.4,30-2,9.2-7.5,17.9-13,25c.9-7,5-14.9,8.7-21.6c5.3-15.1,15-28.2,20.3-43.4c3.9-7.3,12.4-11.2,14.3-19.7c3-12,15.3-17.4,21.3-27.5c1.8-12.8,14.4-19.7,18.1-31.6c2.3-6.7,6-3.3,2,1.6-3.3,10.1-13.3,15.9-16.5,26-2.6,9-10.9,14.9-16,22.5-2.860155,3.488909-5.093273,7.447619-6.6,11.7ZM879,469.2c-9-17.4-22.5-32.4-28.7-51.1-9.9-13.7-14.7-30-21.9-45-12-21-28-39.9-37-62.5-5.5-10.4-16.5-17.5-20-29c0-8,5.2,5.8,7.6,8.1c17.2,27.2,35.2,53.9,52.2,81c8.7,21.2,20.5,40.8,30.4,61.3c8.551575,14.476994,16.394169,29.361235,23.5,44.6c2,5.2,7,12.5,6.5,16.8-6.7-6.7-6.9-17-12.6-24.2ZM-7.3,354c-2.4-1.8,4-10.8,4-10.8c3.1-4.8,9.4-13.8,10.5-19.6c1.55711-6.671929,4.374252-12.985043,8.3-18.6c4.7-7,7.8-15,9-23.2-.9-2.3,4-3.2,2.8-.7-2.4,8.5-4.7,17.3-9.9,24.6-4.654378,7.131923-7.72352,15.179896-9,23.6C7,335.6,-5,355.8,-7.3,354ZM1972,412.7c1.3-12.4,8.9-23.1,13-34.7c7.7-15.1,16-30,23.6-45.2c2.9-14.4,11.7-26.2,17.6-39.5-.2-6.1,5.8-12.6,2.6-2.6-3.2,13.5-14,23.8-16.2,37.7-4,15.8-14,29.2-20.8,43.8-9.3,12-10.4,29.3-18.9,40.8Zm-41.1,52.5c1.7-6,8.3-9.5,8.5-16.4c3.8-11,9.7-21,14.3-31.8l13.5-27.9c2.7,6.2-2.7,12.2-4,18.1-4.3,9.5-11.3,17.7-14.1,27.8-3,5.9-7.8,10.8-7.7,17.8-1.2,4.3-5,14.4-10.5,12.4Zm-39.2,65.4c2.3-6.6,9.2-10.7,10.6-18c3.1-8.2,10.3-13.7,14.2-21.4c6.7-9.5,15-17.7,22-26.9c5.7-5.1-1.4,8.7-4.5,11-7,8.5-14,17.1-20,26.5-5.257619,6.199595-9.386872,13.273478-12.2,20.9-2,3.5-5.4,8.8-10.1,7.9ZM942.1,547.9c-12.5-12.7-26-25.3-33.2-42c.1-4.7,5.7,1.4,5.7,3.6c5.751607,10.016616,12.448816,19.45968,20,28.2c3,4,6.3,7.8,9.7,11.5c1.9,3.6-2.1,0-2.1-1.3Zm920,4.3c9.4-10.4,18-21.6,28.3-31c3.4,1.7-5.2,7-6.2,9.8-8.7,10.7-18.4,20.4-27.2,31-8.896496,12.107814-18.943276,23.326719-30,33.5-3.7,5.6-6.8,11.6-11.7,16.3-5.6,5.3-5.5-3.8-1-5.5c7.7-3.2,7.4-12.4,13.8-16.7c13.7-10.2,22.6-25,34-37.4ZM965.6,584.7c16.2,11.4,28.2,27.6,43.2,40.4c13.6,15.2,29,28.6,46.8,38.6c14.8,9.9,28.6,22.5,46.5,26.6-14.5,3-28.5-11.2-41.2-18-13.3-10.3-28.9-17.5-40.5-30-17.4-17.8-36-34.5-52.2-53.4l-1.4-2.1Zm804.6,58.7c7.1-8.2,19.1-9.8,25.9-18.4c7.3-3-2.5,7.5-6,8.4-9.153929,5.075828-17.650705,11.255301-25.3,18.4-6,4.9-14,7.4-18.7,14-2.6,3.4-5,.8-1.5-1.6c6.2-7.2,14.4-12.3,22.3-17.4c1.2-1,2.4-2.1,3.3-3.4Z" fill="#332020"/><path d="M1067.6,661.2c-5-3.8-22.5-10.4-17.2-14.5c21.1,8.2,35.8,28,58.3,33.4c18,6.8,33.8,18.4,52.5,23.4c13.4,6.5,30.5,12,40.7,21-19.1-4.7-35.6-17-54.8-21.7-19.8-10-40.5-18.5-60.5-28.3-7-3.5-12.3-9.3-19-13.3Zm520.7,74.7c8.2-8.5,22.6-3.3,30.8-12.3c9.7-6.4,21.5-8,31.3-14.5c12.847955-5.208735,25.460184-10.980998,37.8-17.3c11.5-2.7,21-10,31.8-13.8c2.3,3.5-13.5,10.1-19.3,13-12,3.2-21.5,11-32.7,15.7-16,3-29,14.4-44.7,17.9-10.10415,6.233221-21.489046,10.096564-33.3,11.3Zm-420.2-11.6c-8.3-.6-3-8.3,1.7-2c8.2,4.7,18.3,3.1,26.3,8.3c14.8,8,31.9,9,47.6,14.3c6.5,1.4,20-.4,22.2,2.9-8.3,1.4-17.1.4-25.4-.6-8.7-4.2-18.3-3.6-27.3-6.3-8.8-3-17.7-5.2-25.9-9.7-6-3.1-14.2-1.7-19.2-7ZM1550.9,741c-2-.3-2.7-2.7-.5-3.2c6.2-2.4,13-2.1,19.6-2.6c2,.3,5-1.1,6.2.5-1.4,1.5-4,.6-5.8,1.2-5.9.7-11.7,2.2-17.3,4.3-.7.2-1.5.1-2.2-.2Zm-253.6,9.5c-5.3-1.2-16.6-.1-17.4-5c6.3-.3,12.5,1.6,18.8,1.4c13,.2,25.3,4.5,38.1,6c9,.2,18-.7,26.8,1.7c5.5,3,15.9.3,18.7,1.4-8.7,6-19.2.1-28.7,0-9-.5-18.1,1-27.1-1-9.7-1.7-19.4-3.8-29.3-4.5Zm160.7-.7c-1.7-2.8,2-1,3.1-1c6.6-.7,13.3-1.9,19.6-1.1.4,0,11.6.7,11,2.4-.128789.22144-.408574.341348-.7.3-5-.5-9.8-1-15-.7l-16,1.1c-.808143.105286-1.599343-.290314-2-1Zm-36.7,6.9c3.3,0,7.4-2.8,10.3-1.4-1.6,2.2-5.2,1.5-7.7,2.2-3.9.2-7.7,1.8-11.7,1-3.7-.4-7.2-1.2-10.8-2-1.7.8-5.8-.6-3.5-2.5c8-1.2,15.4,5,23.4,2.7ZM-30.9,403.3c-8,16.8-17.2,33-24.4,50.4-5.4,16-13.5,31.1-17.1,47.6c3.4,6.5-1.5,23.7-8,12.7c5.1-17.7,12.3-35,18.4-52.5c9.3-20.2,17-41.4,29.7-59.8c10.7-8.4,13.1-23.9,25.3-30.6c11.3,2.7-9.5,5.2-9,12.8-4,7-7,15.6-14.9,19.4ZM2684.2,102.6c-10.3-4-16.5-14.8-27.9-16.7-10.3-4-20.4-8.9-30.6-12.9-9.289087-2.064376-18.043374-6.049791-25.7-11.7c7,.4,15.2,4.1,22,7.5c15.4,4.5,29,13.7,44.4,18.1c7.5,3.5,11.9,11.9,20.5,13.3c12.4,6.3,20,14.1,9.3,8.4-3.623375-2.678171-7.683438-4.708202-12-6Z" fill="#332020"/></g></g></g><g id="ebEFpfyDJSX50_to" transform="translate(460.531839,616.047813)"><g id="ebEFpfyDJSX50_tr" transform="rotate(1)"><g transform="scale(1.1,1.1) translate(-246.392829,-525.373412)"><path d="M266.8,39.3c2.3,4.3-9.6-37.6,1.7-36-1.9,11.4,7.3,49.1,5.5,17.5c9.8,1.2,4.5,15.6,2.6,22.4-1.8,6.9-2,9.1,8.2,22.7c7.3,9.8,20.2,83.8,22.6,127.6-3,28,1.8,64.4,11.5,90.2c24.6-.2,59-12.8,65.8-29.7.6-14,.3-40,4.1-43s64-1.7,69.3.9c5.2,2.5,46,104,73.7,157.1c13,5.3,22,9.5,25.2,12.1s2.4,9.7,3,20.7c-24.5,32.5-82.4,101-116,126.8-10.2,2-55.6.6-71,1.6-6.6,27.6-38.8,35.3-57.5,25.4-18.8-9.9-12.8-14.8-19.8-27.7-24.5,2.6-81.8,1.6-106.4,2.7-7.7,20.6-24.9,42.9-52.7,33.5-27.9-9.4-22.7-25-33-31-25.8.9-69.4,2.3-93.6-.8-25-20.4,4.4-31.4,18.3-45c11.3-6,18-11,26.2-21.1c5.2-46.3-16.6-122.4-27.8-168.4c3.6-11.7,72.9-49.5,103.3-74.6-4.2-29.3-14.5-59.3-9.2-89.5c5-30.8-11.8-43.7-9-68.3c10-32,2.6,14.9,8.5,20.9-1-12.6,5.6-45.5,14.2-39.5-8.4,6-12,45.4-.6,17.7c7.9-20.6,10.8-10,2.3,4.1-6.7,10.4-2.7,38.6,3.4,12.9c5-28.5,11.8,21-7.2,22-9.00086,37.923779-7.2696,77.604252,5,114.6c10.9-7.5,11.5-6.2,12.4-11.3c3.2-13.4,11.4-50,20.7-59.8c24.6-17.2,63.1-29.9,88-6.3c21.5,17,29.3,45.7,38.8,70.3c3.7,13.8,3.6-25.3,2.2-30.2-1.9-38-5.8-76.7-21.3-111.7-7-24-41.3-31-30.1-62c6.2,8.8.6,24.5,11.8,31.2-9-10.5-.8-56.3-.1-22.3c1.186101,8.066137,3.54434,15.915704,7,23.3Z" fill="#332020"/><path d="M62.4,505c14.8-76.6.3-124.3-19.9-195.2c15-1.4,30.5-6,46-5.8c19.343656-.617023,38.481514,4.124183,55.3,13.7c33.3,15.6,15.3,52.7,34.3,87c19,34.2,69.9,36.4,95.2,29.4c83.7-26.1,60.2-96,46-141.1c21.2-.6,31.7-3.1,31.7-3.1c18.8,68.6,44.5,139.4,55.7,204.3c7.7,14-22.3,3.3-30.3,6.6-57.2-2.6-113.6,1.7-166.8,1.2-52.6,2.6-99-.3-147.2,3ZM356.3,287.7c24-8,96.8-70.9,99.4-70.1c2.5.7,70.4,154,69.7,156.9-.6,2.8-106,118.8-109.3,117.7-3.2-1-59.8-204.5-59.8-204.5Z" fill="#db2e2e"/><path d="M417.5,216.8c0,5,.7,9.8,2.1,14.5-.3,2.4-5.3,6.6-5.3,3.2v-17.5c-.2-2,3-.7,3.2-.2Zm-12.8,4.6c.2-1.2-.1-2.3-1-3.3.8-1.4,4-2.4,5.1-1.4c1,7.5,1.7,15,2,22.6-.5,1.7-3.2,4.8-4.9,3.6-3.2-5-1.9-15.7-1.2-21.5Zm18.6,7.1c-1.5-4-.5-8.9-.8-11.9c1.4-.2,8.1-1.2,5.8,1.8-.7,1.8.6,4.2,1,6-.6,1.7-4.5,4.2-6,4.1Zm10.1-8.8c-1-1.5.7-3.5,2.5-2.5.3,2-.8,3.5-2.5,2.5Zm-38.1,2.9c.3-2.7,2.5-2.4,3.2-.1.2,8.6,1.5,16,3.9,22.6-.6,1.8-5.1,6.1-6.7,4.7-1.028812-9.031366-1.162796-18.142287-.4-27.2Z" fill="#6b4949"/><g><path d="M145.5,235.5c0,3.2-2.2,2-3.5.5-1.2-1.6-1.5-4.4-2.1-6.5.5-1.9,4.7-5,5.7-3.7v9.7Zm-9.5,5c0,0,4,7.8,2.5,8.8-1.5.9-18.8-3.5-20.2-5.5c6.4-3.5,13.5-7.3,17.6-3.3Z" fill="#6b4949"/><rect width="1.1" height="5.4" rx="0.5" ry="2.3" transform="matrix(.93358-.358368 0.358368 0.93358 143.848832 243.309707)" fill="#6b4949"/><path d="M138.3,255.7c1.4,3.2,3.5,5,5.7,7c2.1,4.5,3.9,11,1.8,12.3-2,1.2-11.3-6.4-12.9-7.4-7.4-4.8-13.4-5-20.2-7.5-2.1-1.7-15.5.8-15.8-.7s13.2-9.3,13.2-9.3c5.9-.7,24.3.5,28.2,5.6Z" fill="#6b4949"/><path d="M71.4,280.4c-4.8,0,11.8-10.5,13.5-11.7c6.3-3.2,15.6-3.2,20.5-3.9c4.8-.7,11.2,1.8,15.8,3.6s11,2.2,21.2,12c5,4.4,5.5,10.6,6.1,16.6.1.9-.2,1-.8.6-4-2.7-7.4-5.5-11.6-7.6-5.5-3.4-11.7-5-17.2-7.3-15.305458-5.200113-31.763733-5.99704-47.5-2.3Z" fill="#6b4949"/><path d="M72.4,293.8c-1.7-.7-22.4,3-18.5.1c19.8-14,46.1-14.3,67.9-5.3c6.6-.6,7.7,4.5,12,5.2c5.33109,2.650813,10.276497,6.015035,14.7,10c2.5,2.6,1.7,4.7.4,6.2-8.94628-6.841475-19.348742-11.529426-30.4-13.7-4.3-.6-9-2.9-13-2.8-11,.3-21,1-33,.3Z" fill="#6b4949"/></g><path d="M290.3,416.3c-6.5,6-15.5,9.7-24.4,11-9,1.3-19,.8-27-3.6-7.8-4-12.2-12.8-17.2-20-13.8-22.4-20-48.2-26-73.6-6.8-24.5-10-50-11-75.5-.5-12.4.6-24.6,1.9-37c3-12,2.8-24.8,7-36.8c4.5-14,9.2-30.5,23.8-37.4c12-8.5,28.3-2.3,38.2,6.7c17.8,17.7,25,42.8,33.8,65.6c4.2,10.2,6.3,20.8,8.8,31.4c3.2,13.4,5.8,27,7.9,40.6c2,13,4.6,26,4.5,39-.4,24.4-2.8,49.3-10.6,72.5-2.6,6.3-4.8,12.7-9.6,17Z" fill="#e8830c"/><path d="M248.3,167.8c4,3.7,4.7,17.6-2.4,19.7-11.6,1.6-9.8-16.6-8-19c2-2.3,6.4-4.3,10.4-.7Zm-25.1,4.7c6.4,7.5,3.2,18.5-4,24-10.6,4.6-16.5-12.2-13.4-18.6c3-6,11.4-12.4,17.4-5.4Zm40.6,29c-1.1,8.6-.7,17.6-1.8,26.3-2,10.2-8.3,19.4-18.6,21.8-10.377131,3.565932-21.789137,2.472129-31.3-3-7.883741-5.671-13.486101-13.968166-15.8-23.4-.1-4.3,4-6.7,6.8-9.2c11.34651-9.391022,25.316358-15.04881,40-16.2c5.8-.6,21.8-3.9,20.7,3.8Z" fill="#332020"/><path d="M238.4,203.3c5.6-.6,11.7-2.2,16.8-2.5c5-.3,6.6,5.6,1,4.7-4.4,3.1-10,3.4-15,5-10.6,2.3-20.7,7.8-30,12.3-9.3,4.6-6.3,6.6-8.2,5.1-4-3.7.2-9.2,4.3-11c9.012644-7.089148,19.680459-11.769221,31-13.6Z" fill="#edd6b5"/><path d="M237,234c-3-2.5-2-6.3,2-5.8c5-.4,12.5,3.4,13.4,6c1,3-6,6.7-9.6,8.5-7.553407,2.597702-15.723391,2.807188-23.4.6-3-1-7.7-2.5-3.5-5.5s8.6-6.6,13.5-4.4c2.4.7,5.2,2,7.6.5Z" fill="#db2e2e"/><path d="M211.6,286.3c-.7-5.2-7.2-12-1-16c5.3-1.7,11-11,16-6c1.9,3,3.6,6.1,5.3,9.2c6,2,2.4-5.4,1.9-8.6c1.8-6.7,8.3-11,15-13.4c8.8-1,7.6,14.8,16,15c8.6,0,14.5,6.8,17.9,13.5c3.578423,10.953962,2.71669,22.874601-2.4,33.2c3.7,5.1,11.3,8,13.4,14.6c4.419695,6.836815,5.381952,15.349086,2.6,23-2.3,6.6-6,12.5-10.5,17.6.4,7,7.7,13.1,6.4,20-1,5-2.6,9-9.3,11.8-6.7,3-7.8-2.4-10.3-7.2-2.6-4.7-7.6-7-6.6-1c.9,4.7,4,7.6,2.4,13.4-1.6,6-10.7,8.1-16.4,7.3-4-.7-3.6-5.4-5.1-8.3-1-6.7-8.8-.6-13-3.3-5.1-4.9-8.8-14.4-6.3-21.4c5.6-3.3,9.5-8.4,7.8-15.3-1.2-16-8.7-30.5-15-45-2-4-6.5-2.6-10-3-6.5-3.8-7-14-8.5-21c1.3-4.4,6.7-6.3,9.7-9Z" fill="#332020"/><path d="M246.6,275.8c3.8-5.3-7.2-12-1.7-15.6c5.6-3.6,7.2-1,7.6,3.3c1.8,6,4,9.3,12.2,9.7c8,.5,14.9,11.2,14,20.2.091022,8.721499-3.124686,17.153799-9,23.6-.3,3.4,3.4,6.3,6.9,5.6c5.7-.4,11,4.8,13,10c5,11.1-.1,24-8.6,32-7,4,.4,9.7,2.4,15c1.9,5.2,2.6,8.5-3,9.8-6.3,1.5-4.4-11.6-11-10.8-5,1.2-16,2.4-11.4,10.2c1,4,6.8,11.8,1.6,14-6.3,3.4-5.4-9.3-8.8-12.2-4-.8-8,2-12,2.2-3.3-1-3.3-5.5-3.8-8.4.5-5.4,8.9-8,10.7-12.8-.8-7-4.5-13.4-5.7-20.4-2.2-6.3-3.7-13-5.7-19-2-5.5-3.1-11.2-5.1-16.6-2.7-5.5-9.1-8-15-8.7-3.3-2.3-4-8.5-4-12.3c3.6-1.6,12.3-4.2,10.7-8.3-1.2-4.5-5.6-10.6-3-14.5c2.6-2.8,6.4-2.4,7,1.7c1.5,2.6,2,5.8,4,8c4.4-.5,8.4-2.7,12.6-4l5-1.7Z" fill="#edd6b5"/><path d="M245.9,324c-1.7-1-2.2-2.5-2.8-5-.7-2.7-2.5-6.4-3.6-9.7l-2.3-6.7c.2-2,2.7-2,4.2-2.3c2.5-.4,4.8-1.2,7-2.2c4-1.5,8.4-2.7,12.6-1.4c2.8,1,4.5,3.7,5,6.6.7,3.4,0,7.1-2.2,9.8-4.053047,4.664911-9.209958,8.240369-15,10.4-1,.3-2,1.1-3,.5Z" fill="#332020"/><path d="M248.4,317c-6.7-8.5,4.7-16.8,10.8-8.3.279475.420384.279475.853239,0,1q-3.6,5.4-10,7.6c-.269173-.017829-.570573-.206204-.8-.5Z" fill="#e8830c"/><path d="M258.4,366.2c-3.1-2.4-2.4-6.6-4-10-1.8-3.6-2.3-6.7-3.5-10.3-.246618-.72641-.005751-1.529301.6-2c8.8-7,25-8.3,28,5.8.5,2.8-1,7-3.4,8.4q-7.2,4.4-14.8,8.4-1.5.8-3-.3Z" fill="#332020"/><path d="M268.3,349.6c1.6.2,2.8,1.3,3.5,2.7.9.8.4,2-.7,2.3l-9,4.8c-1,.3-1.5,0-1.8-1.5-.433843-2.057562-1.360334-3.979174-2.7-5.6-.2-1,.9-1.6,1.5-2c2.4-1.5,5.3-1.3,8-1Zm-91-196.7c7.8-5.8,16-9.3,25.4-12-.1,5-4.1,4.5-6.6,5.5-2.8,1.1-19,8.4-19.2,8.2-.3-.2.1-1.4.4-1.7Zm-3.1,6.9c7-2,13.6-4.7,20-8.1c2.5-.5,1.7,3.7-.4,4.4-7.6,2.5-15,6.4-22.3,9.8-1.8-.7,1.2-5.2,2.7-6.2Zm16,6.8c-6.6,0-15.4,4-21.3,6.9-2.2-.3,0-2.6,1-2.8c7-1.7,13.3-5.3,20.1-7.6c1.6.4,1.4,3,.2,3.5Zm-6.5,14.1c-6.9,2.2-14.9,5-20.1,7-.115677-2.133884.296484-4.263379,1.2-6.2c1.9-2.9,22.7-10.7,23.3-8.7s-.9,6.4-2.6,8.2ZM166.3,202c-.8,1.3-5.2,2.4-6.8,3-.7-1.7.9-6.4,1.1-8.3.7-5,4-5.5,8-7.2c4.4-2,14.6-4.6,15.2-3.6.7,1-1.6,7-2.6,10.4-4.8,2.1-11.5,2.3-14.9,5.7Zm.2,3.6c2.1-.3,12.9-4.7,14-3.8.1,3.4-1.3,10.9-1.8,14.5-3.4.9-19.8,8.1-20.9,7s-.2-8.7.5-13.7c2.6-2.5,4,.8,8.2-4Zm10.1,28.2c-3.9,1.2-15.7,6.6-18.5,6.2l-.3-10.2c5.2-3.8,13.8-7,19.4-8.4c1,2.9-.3,8.8-.6,12.4Zm-1.4,21.6c-1.9.2-21.4,4.2-15.7,8.8c5.4-1.6,12.1-4.5,17.3-5.4.8,2.9,3,11.3.7,13.8l-17,4.6c-1.4-.4-2-2.8-2.7-4c1-8.4-1.5-20.5-.2-27.3c2.2-2,17.2-8.7,19-6.6.6,5.3.9,10.8.7,16.2-.3,2.2-1.3.2-2.1-.1Zm4.8,35.3c.6,3-8.5,3.6-9.2,3.2l-8.3-12.6c2-1.6,14.6-5.4,16-3.8Zm-4.2,7.3c1.8-.1,4.6-2.1,5.8-.7l.8,13c-4,1.5-16.3,5-17.6,3.7-1.3-1.2-2.3-8.4-2.6-12.4.3-1.5,2.3-1.5,3-1c1,3,.8,6.7,2.6,8.7c4.2,2.8,9.4,2.3,11.1-1.6c1.6-3.8-3.3-8-3-9.7Zm8.2,18.3l2,13.5c-.1,3.4-11.5,5.2-12.5,4.3-2.3-4-7-9.3-7-14c2.3-1.4,15.4-7,17.5-3.8Zm-8.3,39c-.8-5-.1-10.2-.4-15.5c2.5-1.2,9.5-4.6,12-3c2,5,3.5,10.3,4.5,15.7-6.2.7-13.4,6-16,2.8ZM198.3,373L183,377.5c-3.2-2.8-4-12-4.6-15.7c4.2-2,11.3-3.1,15-3.4c1,3.4,3.8,10,5,14.5Zm9.2,19.2c-5.5,1.3-15.5,4.8-17.2,4.6-1.7-.3-3-7.5-4.5-11.2-.6-1.6-3.2-3.5.5-4.3c4.2-1,9.8-2,14.6-3c2.4,2.4,4.7,9.6,6.6,14Zm-9,19.1c-3-1.7-3.9-6.8-5.3-10c1.4-1.4,5.4-1.6,7.4-2.1c3.3-.3,7.7-1.8,10.3-.8.4,2.5,5.3,7.3,3.8,9.3Zm5,2.8c3.4-1,7.3-.5,11-.9c2,0,4-.6,5.7,0c1,1.3,3.3,4.1,1,4.8l-9,2.2c-4,2-15.8-4.7-8.7-6Zm22.5,7.5c.6,0,3.1,3.2,2.4,3-.8-.1-7.4-.7-7.6-1c1.650032-.942225,3.438846-1.61725,5.3-2Z" fill="#e8830c"/><g><ellipse rx="3" ry="2.2" transform="matrix(.984503 0.175367-.175367 0.984503 85.0572 319.067)" fill="#332020"/><path d="M58.5,342.9c-2.6-1.7-6.3-15-9.2-22.2.7-3.9,5.7-2.3,6.1,1.4.4,3.6.5,6.8,2,10c1.8,2.8,1.6,6.4,3.7,8.9c2,2.5,0,3.5-2.6,1.9Zm6.2-8.6c-3.4-1-6.1-8.9-6-14.5c1.6-2,4.7.3,3.4,2.6.8,3.6,6.9,10.7,2.6,11.9Zm12.2-7.6c-3.2,3.1-7-4.5-5.8-5.8c3.3-1.1,5.3,3.4,5.8,5.8Z" fill="#332020"/></g><path d="M515,370.8c-5.6,2-18.1-36-16.5-37.3c1.7-1.3,15,28,17.7,33.4.9,1.5.5,3.3-1.2,3.9Zm-7.6,6.5c-2.2-1.5-4.2-12-2.5-11.7c1.6.2,4.2,5,5.4,7.3c1.2,2.4,1.3,6-2.9,4.4Zm-5,6.1c-1.5-.6-.7-2.5-.9-3.7-.4-1.2.2-3.3,1.7-2.3c1,.9,1.4,2.3,1.8,3.6.4,1.5-1.3,2.5-2.6,2.4Z" fill="#332020"/><g><path d="M408,432c.5-1.4,1.3,1.5,1.6,2c4.5,11.7,7.9,24,10.7,35.3c1.4,2,3.2,6.3.4,8-2.8,1.5-4.8-6-5.8-13.1-1-7.2-5.3-22.4-6.8-32.2Zm17.4,34.2c-4.2-5.8-5.1-13-6.7-19.8-.5-1.2-.9-5.2,1.2-4c1.6,5.2,3.1,10.7,5.8,15.6c1,2.2,2.4,4.3,2.9,6.7-.2,1.3-2.1,2.7-3.2,1.5Z" fill="#332020"/><ellipse rx="3.2" ry="1.1" transform="matrix(.447759 0.894154-.894154 0.447759 439.573 446.27)" fill="#332020"/><path d="M431.3,457.4c-1.173386-1.900114-1.173386-4.299886,0-6.2c2.2-.7,2.4,2.2,3,3.6.8,1.5-1.7,4.3-3,2.6Z" fill="#332020"/></g><path d="M396,494.4c-.6-3.2-11.6-35.1-5-34.6c2.4.7,3.1,12.5,4.4,17.5s5,11.4,4.8,16c-.3,4.6-3.8,4.3-4.3,1.1Zm-9.2-2.7c-.7-4.2-5.6-14.2-2.6-15.7s5,11.4,6.1,14.6c1,3.1-2.9,5.4-3.5,1.1Zm-6,1.3c-1.6,2.4-6,.5-3.9-2.6.4-3.2-3.6-10.2.6-10.3c1.6.8,4,8.9,3.3,12.8Zm-8.8-1.5c-3.6,2.6-6.5-6.1-1.4-6.1c1.5,1.2,2.6,4.6,1.5,6.1Z" fill="#332020"/><g><path d="M70.7,498.8c-.6-.5-.8-1.3-.5-2c1.4-2.4,2.4-5.3,2.8-8.6c1.7-5.4,3.1-28.6,5.9-27.1-.9,15.9-1.4,26-1.5,30.1c0,3-2.1,10.6-6.7,7.6Zm9.6-.8c-.259604-.099528-.448918-.326704-.5-.6-1.294709-8.6654-.187893-17.519926,3.2-25.6.7-1,1-.5,1.2.2-.4,2.7-.1,5.3-.2,7.8-.195954,4.764653-.195954,9.535347,0,14.3.2,2.7-.2,5.3-3.7,3.9Zm10.5-.5c-.9-1.2.4-8.6,2-12.2c2.5-5.6,2,4,2,4.1.1,3,1.6,5.8-.3,9-1.5,1.4-2.4.8-3.7-.9Zm13.5-.1c-3-2.4,2.8-12,3.3-5.7l-.2,4.7c-.6,1.4-1.8,1-3.1,1Z" fill="#332020"/><rect width="5.9" height="3.2" rx="1.4" ry="1.4" transform="matrix(.993768 0.111469-.111469 0.993768 114.435047 493.316564)" fill="#332020"/></g><path d="M56.4,479.5c-9.178187,4.926963-17.709958,10.9731-25.4,18c0,1.5,20-.1,24-.9.347035-.99605.516277-2.045351.5-3.1-2.2-1-9.3-2-9.3-3.3c0-1.2,7.8-1.7,9.2-3c0,0,1.3-6.4,1-7.7ZM27.1,502.3c-1.3.3-9.3,4.7-9.2,5.8.2,1,34-1.9,34.6-2.8s-.5-3-1.3-3.7c-.8-.6-22.7.3-24,.7ZM531.5,375.4l-2.6,3.3c4.3,1,12,3.2,11.8,4.5-.3,1.3-11.4,1.8-16.9,2L520,390c5.2.2,16.1,1,16,2.4c0,1.4-13.6,2.6-20.4,3.1l-8,9c4.3.1,10.2.5,10.1,1.9c0,1.5-9.5,3.1-15.3,4L492.2,422L466,449.3l-21.5,21.4-1.6,2c4,.2,15,1,15,2.9s-15.3,2.4-19.8,2.6l-2.5,2.9c4.4,0,15.3.3,15.4,2.6s-14.9,3.2-20.6,3.5l-2,2.3c4.8,0,13.7,0,13.8,1.5.1,1.7-14,3.4-18.4,3.8l-.2.3c3.3.4,13.8,1.8,13.7,3.6-.2,1.5-12.1,1.7-18.3,1.6l-.4.5l17.9,1.5L467.2,469l11.3-8c10.6-11.6,20.5-23.8,30.7-35.7-1.4-1-3.1-2.3-5-1.6-2.8,1-7.7,1.9-7.3-.6.5-2.4,4-3.3,6.4-3.2c2.9.4,6.1,1.2,8.3,2.6l37.8-40.8Z" fill="#6b4949"/><path d="M447.8,501.6c22.3-21.4,27.8-28,49.7-51.4c15.7-15.4,44.5-51.5,55.2-58.8c5.7,9.1-1.6,13.1-6,18.4-26.8,30.5-40.8,45.6-59.7,66.8-16.7,16.2-28.9,29.6-43.8,43-.5-19.4,4.8-9.8,4.6-18Zm-145.4,4.9c30.3-1.6,61.5,1.3,90.6,1c14.5.7,29.2-1.8,43.4,1.3.8,2.7-.2,11.7-3.7,11.7-20-.5-40.4-.8-61.2-1-9.7-.5-43.3-2.5-52.2-2.6-24.8-.2-41.7,1.4-69.5,3.2-46.7,0-86.7,1.8-129.7,3.3-5.2.2-10.5-1.2-15.6-.6-28.9,1.2-58.3,3.7-84.8,2-2.3-.2-3-1.3-1.8-3.5.2-.2.2-.6,0-.8-1.5-2.2-5-2.5-5-5.1-.1-.3.1-.5.4-.6c26-2.3,65.3-6.4,115.4-5.3c35.4.2,73.4-1.5,105.8-2c22.7,0,46-.4,67.8-1Z" fill="#edd6b5"/><g><path d="M313.2,542c-4.7-4.1-4.4-9.4-4.4-14.7c1.7-.8,3.7-1,5.3-1c.1,9.3,5.6,20.7,16.3,21c9.556981.838083,18.877693-3.275106,24.7-10.9c2-3,2.4-7.2,2.3-9.6c2,.2,3.4.1,5.3.6c3.6,8.6-10.3,20.3-16.6,23.2-10.6,5-23.7,1.6-33-8.5Z" fill="#6b4949"/><path d="M337.8,539c-5.5,2.5-20-11.6-13.8-12.3c7.7-.6,17-1,23,1c1.1,6.5-3.6,8.8-9.2,11.3Z" fill="#6b4949"/></g><g><path d="M138.6,555.9c-9.7-2-19.4-13.1-21.9-22.6h4.5c3,6.6,14.3,18.3,25.2,17.2c11-1.2,23-6.7,24.9-18.8c2.6,0,4.1-.7,6-.2-1.72051,9.215979-7.43219,17.197686-15.6,21.8-6.6,4.3-15.7,4-23.1,2.6Z" fill="#6b4949"/><path d="M132.9,532.4c2.5,5.5,8.5,13.2,14.6,11.8c6.2-1.4,16.7-4.6,17-13-8,.4-23.2.6-31.6,1.2Z" fill="#6b4949"/></g></g></g></g></g></svg>
