<svg height="320" shape-rendering="crispEdges" viewBox="0 0 320 320" width="320" xmlns="http://www.w3.org/2000/svg"><rect fill="#e1d7d5" height="100%" width="100%"/><g fill="#343235"><path d="m90 210h140v10h-140z"/><path d="m90 220h140v10h-140z"/><path d="m90 230h140v10h-140z"/><path d="m90 240h140v10h-140z"/><path d="m90 250h20v10h-20z"/><path d="m120 250h110v10h-110z"/><path d="m90 260h20v10h-20z"/><path d="m120 260h110v10h-110z"/><path d="m90 270h20v10h-20z"/><path d="m120 270h110v10h-110z"/><path d="m90 280h20v10h-20z"/><path d="m120 280h110v10h-110z"/><path d="m90 290h20v10h-20z"/><path d="m120 290h110v10h-110z"/><path d="m90 300h20v10h-20z"/><path d="m120 300h110v10h-110z"/><path d="m90 310h20v10h-20z"/><path d="m120 310h110v10h-110z"/></g><path d="m130 230h70v10h-70z" fill="#26b1f3"/><path d="m130 240h10v10h-10z" fill="#26b1f3"/><path d="m150 240h20v10h-20z" fill="#26b1f3"/><path d="m180 240h20v10h-20z" fill="#26b1f3"/><path d="m150 250h20v10h-20z" fill="#26b1f3"/><path d="m180 250h20v10h-20z" fill="#26b1f3"/><path d="m130 270h70v10h-70z" fill="#34ac80"/><path d="m130 280h10v10h-10z" fill="#34ac80"/><path d="m150 280h20v10h-20z" fill="#34ac80"/><path d="m180 280h20v10h-20z" fill="#34ac80"/><path d="m150 290h20v10h-20z" fill="#34ac80"/><path d="m180 290h20v10h-20z" fill="#34ac80"/><path d="m160 40h10v10h-10z" fill="#d56333"/><path d="m140 50h10v10h-10z" fill="#d56333"/><path d="m160 50h10v10h-10z" fill="#d56333"/><path d="m180 50h10v10h-10z" fill="#d56333"/><path d="m150 60h30v10h-30z" fill="#d56333"/><path d="m140 70h10v10h-10z" fill="#e8705b"/><path d="m150 70h30v10h-30z" fill="#d56333"/><path d="m180 70h10v10h-10z" fill="#e8705b"/><path d="m80 80h20v10h-20z" fill="#d56333"/><path d="m100 80h10v10h-10z" fill="#e8705b"/><path d="m110 80h30v10h-30z" fill="#d56333"/><path d="m140 80h10v10h-10z" fill="#e8705b"/><path d="m150 80h30v10h-30z" fill="#d56333"/><path d="m180 80h10v10h-10z" fill="#e8705b"/><path d="m190 80h30v10h-30z" fill="#d56333"/><path d="m220 80h10v10h-10z" fill="#e8705b"/><path d="m230 80h10v10h-10z" fill="#d56333"/><path d="m70 90h30v10h-30z" fill="#d56333"/><path d="m100 90h10v10h-10z" fill="#e8705b"/><path d="m110 90h30v10h-30z" fill="#d56333"/><path d="m140 90h10v10h-10z" fill="#e8705b"/><path d="m150 90h30v10h-30z" fill="#d56333"/><path d="m180 90h10v10h-10z" fill="#e8705b"/><path d="m190 90h30v10h-30z" fill="#d56333"/><path d="m220 90h10v10h-10z" fill="#e8705b"/><path d="m230 90h20v10h-20z" fill="#d56333"/><path d="m60 100h40v10h-40z" fill="#d56333"/><path d="m100 100h10v10h-10z" fill="#e8705b"/><path d="m110 100h30v10h-30z" fill="#d56333"/><path d="m140 100h10v10h-10z" fill="#e8705b"/><path d="m150 100h30v10h-30z" fill="#d56333"/><path d="m180 100h10v10h-10z" fill="#e8705b"/><path d="m190 100h30v10h-30z" fill="#d56333"/><path d="m220 100h10v10h-10z" fill="#e8705b"/><path d="m230 100h30v10h-30z" fill="#d56333"/><path d="m60 110h40v10h-40z" fill="#d56333"/><path d="m100 110h10v10h-10z" fill="#e8705b"/><path d="m110 110h30v10h-30z" fill="#d56333"/><path d="m140 110h10v10h-10z" fill="#e8705b"/><path d="m150 110h30v10h-30z" fill="#d56333"/><path d="m180 110h10v10h-10z" fill="#e8705b"/><path d="m190 110h30v10h-30z" fill="#d56333"/><path d="m220 110h10v10h-10z" fill="#e8705b"/><path d="m230 110h30v10h-30z" fill="#d56333"/><path d="m60 120h40v10h-40z" fill="#d56333"/><path d="m100 120h10v10h-10z" fill="#e8705b"/><path d="m110 120h30v10h-30z" fill="#d56333"/><path d="m140 120h10v10h-10z" fill="#e8705b"/><path d="m150 120h30v10h-30z" fill="#d56333"/><path d="m180 120h10v10h-10z" fill="#e8705b"/><path d="m190 120h30v10h-30z" fill="#d56333"/><path d="m220 120h10v10h-10z" fill="#e8705b"/><path d="m230 120h30v10h-30z" fill="#d56333"/><path d="m60 130h40v10h-40z" fill="#d56333"/><path d="m100 130h10v10h-10z" fill="#e8705b"/><path d="m110 130h30v10h-30z" fill="#d56333"/><path d="m140 130h10v10h-10z" fill="#e8705b"/><path d="m150 130h30v10h-30z" fill="#d56333"/><path d="m180 130h10v10h-10z" fill="#e8705b"/><path d="m190 130h30v10h-30z" fill="#d56333"/><path d="m220 130h10v10h-10z" fill="#e8705b"/><path d="m230 130h30v10h-30z" fill="#d56333"/><path d="m60 140h40v10h-40z" fill="#d56333"/><path d="m100 140h10v10h-10z" fill="#e8705b"/><path d="m110 140h30v10h-30z" fill="#d56333"/><path d="m140 140h10v10h-10z" fill="#e8705b"/><path d="m150 140h30v10h-30z" fill="#d56333"/><path d="m180 140h10v10h-10z" fill="#e8705b"/><path d="m190 140h30v10h-30z" fill="#d56333"/><path d="m220 140h10v10h-10z" fill="#e8705b"/><path d="m230 140h30v10h-30z" fill="#d56333"/><path d="m60 150h40v10h-40z" fill="#d56333"/><path d="m100 150h10v10h-10z" fill="#e8705b"/><path d="m110 150h30v10h-30z" fill="#d56333"/><path d="m140 150h10v10h-10z" fill="#e8705b"/><path d="m150 150h30v10h-30z" fill="#d56333"/><path d="m180 150h10v10h-10z" fill="#e8705b"/><path d="m190 150h30v10h-30z" fill="#d56333"/><path d="m220 150h10v10h-10z" fill="#e8705b"/><path d="m230 150h30v10h-30z" fill="#d56333"/><path d="m60 160h40v10h-40z" fill="#d56333"/><path d="m100 160h10v10h-10z" fill="#e8705b"/><path d="m110 160h30v10h-30z" fill="#d56333"/><path d="m140 160h10v10h-10z" fill="#e8705b"/><path d="m150 160h30v10h-30z" fill="#d56333"/><path d="m180 160h10v10h-10z" fill="#e8705b"/><path d="m190 160h30v10h-30z" fill="#d56333"/><path d="m220 160h10v10h-10z" fill="#e8705b"/><path d="m230 160h30v10h-30z" fill="#d56333"/><path d="m60 170h40v10h-40z" fill="#d56333"/><path d="m100 170h10v10h-10z" fill="#9cb4b8"/><path d="m110 170h10v10h-10z" fill="#d56333"/><path d="m120 170h10v10h-10z"/><path d="m130 170h10v10h-10z" fill="#d56333"/><path d="m140 170h10v10h-10z" fill="#e8705b"/><path d="m150 170h30v10h-30z" fill="#d56333"/><path d="m180 170h10v10h-10z" fill="#e8705b"/><path d="m190 170h20v10h-20z" fill="#d56333"/><path d="m210 170h10v10h-10z" fill="#9cb4b8"/><path d="m220 170h10v10h-10z" fill="#e8705b"/><path d="m230 170h30v10h-30z" fill="#d56333"/><path d="m70 180h30v10h-30z" fill="#d56333"/><path d="m100 180h10v10h-10z" fill="#e8705b"/><path d="m110 180h20v10h-20z" fill="#d56333"/><path d="m130 180h40v10h-40z"/><path d="m170 180h10v10h-10z" fill="#d56333"/><path d="m180 180h10v10h-10z" fill="#e8705b"/><path d="m190 180h30v10h-30z" fill="#d56333"/><path d="m220 180h10v10h-10z" fill="#e8705b"/><path d="m230 180h20v10h-20z" fill="#d56333"/><path d="m80 190h20v10h-20z" fill="#d56333"/><path d="m100 190h10v10h-10z" fill="#e8705b"/><path d="m110 190h30v10h-30z" fill="#d56333"/><path d="m140 190h10v10h-10z" fill="#e8705b"/><path d="m150 190h30v10h-30z" fill="#d56333"/><path d="m180 190h10v10h-10z" fill="#e8705b"/><path d="m190 190h30v10h-30z" fill="#d56333"/><path d="m220 190h10v10h-10z" fill="#e8705b"/><path d="m230 190h10v10h-10z" fill="#d56333"/><path d="m90 200h10v10h-10z" fill="#d56333"/><path d="m100 200h10v10h-10z" fill="#e8705b"/><path d="m110 200h30v10h-30z" fill="#d56333"/><path d="m140 200h10v10h-10z" fill="#e8705b"/><path d="m150 200h30v10h-30z" fill="#d56333"/><path d="m180 200h10v10h-10z" fill="#e8705b"/><path d="m190 200h30v10h-30z" fill="#d56333"/><path d="m220 200h10v10h-10z" fill="#e8705b"/><path d="m100 110h60v10h-60z" fill="#9cb4b8"/><path d="m170 110h60v10h-60z" fill="#9cb4b8"/><path d="m100 120h10v10h-10z" fill="#9cb4b8"/><path d="m110 120h20v10h-20z" fill="#fff"/><path d="m130 120h20v10h-20z"/><path d="m150 120h10v10h-10z" fill="#9cb4b8"/><path d="m170 120h10v10h-10z" fill="#9cb4b8"/><path d="m180 120h20v10h-20z" fill="#fff"/><path d="m200 120h20v10h-20z"/><path d="m220 120h10v10h-10z" fill="#9cb4b8"/><path d="m70 130h40v10h-40z" fill="#9cb4b8"/><path d="m110 130h20v10h-20z" fill="#fff"/><path d="m130 130h20v10h-20z"/><path d="m150 130h30v10h-30z" fill="#9cb4b8"/><path d="m180 130h20v10h-20z" fill="#fff"/><path d="m200 130h20v10h-20z"/><path d="m220 130h10v10h-10z" fill="#9cb4b8"/><path d="m70 140h10v10h-10z" fill="#9cb4b8"/><path d="m100 140h10v10h-10z" fill="#9cb4b8"/><path d="m110 140h20v10h-20z" fill="#fff"/><path d="m130 140h20v10h-20z"/><path d="m150 140h10v10h-10z" fill="#9cb4b8"/><path d="m170 140h10v10h-10z" fill="#9cb4b8"/><path d="m180 140h20v10h-20z" fill="#fff"/><path d="m200 140h20v10h-20z"/><path d="m220 140h10v10h-10z" fill="#9cb4b8"/><path d="m70 150h10v10h-10z" fill="#9cb4b8"/><path d="m100 150h10v10h-10z" fill="#9cb4b8"/><path d="m110 150h20v10h-20z" fill="#fff"/><path d="m130 150h20v10h-20z"/><path d="m150 150h10v10h-10z" fill="#9cb4b8"/><path d="m170 150h10v10h-10z" fill="#9cb4b8"/><path d="m180 150h20v10h-20z" fill="#fff"/><path d="m200 150h20v10h-20z"/><path d="m220 150h10v10h-10z" fill="#9cb4b8"/><path d="m100 160h60v10h-60z" fill="#9cb4b8"/><path d="m170 160h60v10h-60z" fill="#9cb4b8"/></svg>