<svg xmlns="http://www.w3.org/2000/svg" viewBox="0 -0.5 50 50" shape-rendering="crispEdges">
	<title>Bitcoin Pussies #035</title>
	<desc>Bitcoin Pussies are 69 uniquely drawn and inscribed cats on Bitcoin</desc>
	<desc xmlns:meow="https://bitcoinpussies.com/">
		<meow:traits>
			<meow:Skin>Orange</meow:Skin>
			<meow:Eyes>Wink</meow:Eyes>
			<meow:Gear>None</meow:Gear>
			<meow:Message>Loves chicken</meow:Message>
		</meow:traits>
	</desc>
	<path stroke="#a1a769" d="M0 0h50M0 1h50M0 2h50M0 3h50M0 4h50M0 5h50M0 6h50M0 7h50M0 8h50M0 9h50M0 10h50M0 11h50M0 12h50M0 13h50M0 14h50M0 15h16M19 15h13M35 15h15M0 16h15M21 16h9M36 16h14M0 17h15M36 17h14M0 18h15M36 18h14M0 19h15M36 19h14M0 20h15M36 20h14M0 21h15M36 21h14M0 22h16M35 22h15M0 23h15M36 23h14M0 24h15M36 24h14M0 25h15M36 25h14M0 26h14M37 26h13M0 27h13M38 27h12M0 28h14M37 28h13M0 29h14M37 29h13M0 30h15M36 30h14M0 31h16M35 31h15M0 32h18M33 32h17M0 33h15M17 33h3M31 33h19M0 34h14M18 34h1M32 34h18M0 35h14M18 35h1M32 35h18M0 36h15M33 36h17M0 37h16M33 37h17M0 38h17M33 38h17M0 39h18M32 39h18M0 40h20M31 40h19M0 41h50M0 42h50M0 43h50M0 44h50M0 45h50M0 46h50M0 47h50M0 48h50M0 49h50" />
	<path stroke="#000000" d="M16 15h3M32 15h3M15 16h1M19 16h2M30 16h2M35 16h1M15 17h1M21 17h9M35 17h1M15 18h1M19 18h2M30 18h2M35 18h1M15 19h1M18 19h1M32 19h1M35 19h1M15 20h1M17 20h1M33 20h1M35 20h1M15 21h2M34 21h2M16 22h1M19 22h3M34 22h1M15 23h1M18 23h1M22 23h1M29 23h2M35 23h1M15 24h1M28 24h1M31 24h1M35 24h1M15 25h1M24 25h3M35 25h1M14 26h1M25 26h1M36 26h1M13 27h1M37 27h1M14 28h1M36 28h1M14 29h1M36 29h1M15 30h1M35 30h1M16 31h2M33 31h2M18 32h3M30 32h3M15 33h2M20 33h1M30 33h1M14 34h1M17 34h1M19 34h1M31 34h1M14 35h1M17 35h1M19 35h1M31 35h1M15 36h1M18 36h1M32 36h1M16 37h1M18 37h1M32 37h1M17 38h2M32 38h1M18 39h2M21 39h1M23 39h1M27 39h1M29 39h1M31 39h1M20 40h11" />
	<path stroke="#f79100" d="M16 16h3M32 16h3M16 17h1M20 17h1M30 17h1M34 17h1M16 18h1M21 18h1M29 18h1M34 18h1M16 19h1M19 19h5M27 19h5M34 19h1M16 20h1M18 20h7M26 20h7M34 20h1M17 21h17M17 22h2M22 22h12M16 23h2M23 23h6M31 23h4M16 24h3M22 24h6M29 24h2M32 24h3M16 25h3M22 25h2M27 25h8M15 26h3M20 26h5M26 26h5M33 26h3M15 27h21M16 28h19M17 29h17M18 30h15M20 31h10M21 32h9M21 33h9M16 34h1M22 34h7M16 35h1M22 35h7M17 36h1M21 36h9M20 37h11M20 38h11M24 39h3" />
	<path stroke="#f5b3a5" d="M17 17h3M31 17h3M17 18h2M32 18h2M17 19h1M33 19h1" />
	<path stroke="#d17700" d="M22 18h7M24 19h3M25 20h1M14 27h1M36 27h1M15 28h1M35 28h1M15 29h2M34 29h2M16 30h2M33 30h2M18 31h2M30 31h3M15 34h1M20 34h2M29 34h2M15 35h1M20 35h2M29 35h2M16 36h1M19 36h2M30 36h2M17 37h1M19 37h1M31 37h1M19 38h1M31 38h1M20 39h1M22 39h1M28 39h1M30 39h1" />
	<path stroke="#98b866" d="M19 23h1M21 23h1M19 24h3" />
	<path stroke="#ffffff" d="M20 23h1" />
	<path stroke="#b3d57f" d="M19 25h3" />
	<path stroke="#ffa174" d="M18 26h2M31 26h2" />
</svg>