<svg height="320" shape-rendering="crispEdges" viewBox="0 0 320 320" width="320" xmlns="http://www.w3.org/2000/svg"><rect fill="#d5d7e1" height="100%" width="100%"/><g fill="#1f1d29"><path d="m90 210h140v10h-140z"/><path d="m90 220h140v10h-140z"/><path d="m90 230h140v10h-140z"/><path d="m90 240h140v10h-140z"/><path d="m90 250h20v10h-20z"/><path d="m120 250h110v10h-110z"/><path d="m90 260h20v10h-20z"/><path d="m120 260h110v10h-110z"/><path d="m90 270h20v10h-20z"/><path d="m120 270h110v10h-110z"/><path d="m90 280h20v10h-20z"/><path d="m120 280h110v10h-110z"/><path d="m90 290h20v10h-20z"/><path d="m120 290h110v10h-110z"/><path d="m90 300h20v10h-20z"/><path d="m120 300h110v10h-110z"/><path d="m90 310h20v10h-20z"/><path d="m120 310h110v10h-110z"/></g><path d="m140 240h20v10h-20z" fill="#d8dadf"/><path d="m170 240h20v10h-20z" fill="#d8dadf"/><path d="m130 250h70v10h-70z" fill="#d8dadf"/><path d="m130 260h70v10h-70z" fill="#d8dadf"/><path d="m140 270h50v10h-50z" fill="#d8dadf"/><path d="m150 280h30v10h-30z" fill="#d8dadf"/><path d="m160 290h10v10h-10z" fill="#d8dadf"/><path d="m190 20h40v10h-40z" fill="#9eb5e1"/><path d="m150 30h100v10h-100z" fill="#9eb5e1"/><path d="m130 40h20v10h-20z" fill="#9eb5e1"/><path d="m150 40h10v10h-10z" fill="#254efb"/><path d="m160 40h100v10h-100z" fill="#9eb5e1"/><path d="m120 50h50v10h-50z" fill="#9eb5e1"/><path d="m170 50h20v10h-20z" fill="#254efb"/><path d="m190 50h20v10h-20z" fill="#2b83f6"/><path d="m210 50h10v10h-10z" fill="#254efb"/><path d="m220 50h20v10h-20z" fill="#9eb5e1"/><path d="m240 50h10v10h-10z" fill="#254efb"/><path d="m250 50h20v10h-20z" fill="#9eb5e1"/><path d="m110 60h20v10h-20z" fill="#9eb5e1"/><path d="m130 60h20v10h-20z" fill="#254efb"/><path d="m150 60h10v10h-10z" fill="#9eb5e1"/><path d="m160 60h20v10h-20z" fill="#254efb"/><path d="m180 60h10v10h-10z" fill="#2b83f6"/><path d="m190 60h50v10h-50z" fill="#254efb"/><path d="m240 60h20v10h-20z" fill="#9eb5e1"/><path d="m260 60h10v10h-10z" fill="#254efb"/><path d="m270 60h10v10h-10z" fill="#9eb5e1"/><path d="m100 70h20v10h-20z" fill="#9eb5e1"/><path d="m120 70h20v10h-20z" fill="#254efb"/><path d="m140 70h10v10h-10z" fill="#9eb5e1"/><path d="m150 70h20v10h-20z" fill="#254efb"/><path d="m170 70h10v10h-10z" fill="#9eb5e1"/><path d="m180 70h30v10h-30z" fill="#254efb"/><path d="m210 70h10v10h-10z" fill="#9eb5e1"/><path d="m220 70h10v10h-10z" fill="#2b83f6"/><path d="m230 70h20v10h-20z" fill="#254efb"/><path d="m250 70h30v10h-30z" fill="#9eb5e1"/><path d="m100 80h10v10h-10z" fill="#9eb5e1"/><path d="m110 80h30v10h-30z" fill="#254efb"/><path d="m140 80h10v10h-10z" fill="#9eb5e1"/><path d="m150 80h20v10h-20z" fill="#254efb"/><path d="m170 80h10v10h-10z" fill="#9eb5e1"/><path d="m180 80h20v10h-20z" fill="#254efb"/><path d="m200 80h10v10h-10z" fill="#9eb5e1"/><path d="m210 80h60v10h-60z" fill="#254efb"/><path d="m270 80h10v10h-10z" fill="#9eb5e1"/><path d="m90 90h20v10h-20z" fill="#9eb5e1"/><path d="m110 90h20v10h-20z" fill="#254efb"/><path d="m130 90h10v10h-10z" fill="#9eb5e1"/><path d="m140 90h20v10h-20z" fill="#254efb"/><path d="m160 90h10v10h-10z" fill="#9eb5e1"/><path d="m170 90h30v10h-30z" fill="#254efb"/><path d="m200 90h10v10h-10z" fill="#9eb5e1"/><path d="m210 90h20v10h-20z" fill="#254efb"/><path d="m260 90h10v10h-10z" fill="#254efb"/><path d="m270 90h10v10h-10z" fill="#9eb5e1"/><path d="m90 100h10v10h-10z" fill="#9eb5e1"/><path d="m100 100h30v10h-30z" fill="#254efb"/><path d="m130 100h10v10h-10z" fill="#9eb5e1"/><path d="m140 100h20v10h-20z" fill="#254efb"/><path d="m160 100h10v10h-10z" fill="#9eb5e1"/><path d="m170 100h50v10h-50z" fill="#254efb"/><path d="m260 100h10v10h-10z" fill="#9eb5e1"/><path d="m80 110h10v10h-10z" fill="#9eb5e1"/><path d="m90 110h130v10h-130z" fill="#254efb"/><path d="m80 120h10v10h-10z" fill="#9eb5e1"/><path d="m90 120h130v10h-130z" fill="#254efb"/><path d="m70 130h20v10h-20z" fill="#9eb5e1"/><path d="m90 130h130v10h-130z" fill="#254efb"/><path d="m70 140h10v10h-10z" fill="#9eb5e1"/><path d="m80 140h140v10h-140z" fill="#254efb"/><path d="m60 150h10v10h-10z" fill="#9eb5e1"/><path d="m70 150h150v10h-150z" fill="#254efb"/><path d="m60 160h10v10h-10z" fill="#9eb5e1"/><path d="m70 160h150v10h-150z" fill="#254efb"/><path d="m50 170h10v10h-10z" fill="#9eb5e1"/><path d="m60 170h70v10h-70z" fill="#254efb"/><path d="m130 170h10v10h-10z" fill="#2b83f6"/><path d="m140 170h20v10h-20z" fill="#254efb"/><path d="m160 170h10v10h-10z" fill="#2b83f6"/><path d="m170 170h30v10h-30z" fill="#254efb"/><path d="m200 170h10v10h-10z" fill="#2b83f6"/><path d="m210 170h10v10h-10z" fill="#254efb"/><path d="m50 180h10v10h-10z" fill="#9eb5e1"/><path d="m60 180h40v10h-40z" fill="#254efb"/><path d="m100 180h10v10h-10z" fill="#9eb5e1"/><path d="m110 180h20v10h-20z" fill="#254efb"/><path d="m130 180h10v10h-10z" fill="#2b83f6"/><path d="m140 180h30v10h-30z" fill="#254efb"/><path d="m170 180h10v10h-10z" fill="#2b83f6"/><path d="m180 180h30v10h-30z" fill="#254efb"/><path d="m210 180h10v10h-10z" fill="#2b83f6"/><path d="m220 180h10v10h-10z" fill="#254efb"/><path d="m10 190h10v10h-10z" fill="#9eb5e1"/><path d="m40 190h10v10h-10z" fill="#9eb5e1"/><path d="m50 190h40v10h-40z" fill="#254efb"/><path d="m90 190h10v10h-10z" fill="#9eb5e1"/><path d="m100 190h40v10h-40z" fill="#254efb"/><path d="m140 190h10v10h-10z" fill="#2b83f6"/><path d="m150 190h30v10h-30z" fill="#254efb"/><path d="m180 190h20v10h-20z" fill="#2b83f6"/><path d="m200 190h50v10h-50z" fill="#254efb"/><path d="m20 200h20v10h-20z" fill="#9eb5e1"/><path d="m40 200h220v10h-220z" fill="#254efb"/><path d="m270 200h10v10h-10z" fill="#254efb"/><path d="m100 110h60v10h-60z" fill="#ffc110"/><path d="m170 110h60v10h-60z" fill="#f98f30"/><path d="m100 120h10v10h-10z" fill="#ffc110"/><path d="m110 120h20v10h-20z" fill="#fff"/><path d="m130 120h20v10h-20z"/><path d="m150 120h10v10h-10z" fill="#ffc110"/><path d="m170 120h10v10h-10z" fill="#f98f30"/><path d="m180 120h20v10h-20z" fill="#fff"/><path d="m200 120h20v10h-20z"/><path d="m220 120h10v10h-10z" fill="#f98f30"/><path d="m70 130h30v10h-30z" fill="#f98f30"/><path d="m100 130h10v10h-10z" fill="#ffc110"/><path d="m110 130h20v10h-20z" fill="#fff"/><path d="m130 130h20v10h-20z"/><path d="m150 130h10v10h-10z" fill="#ffc110"/><path d="m160 130h20v10h-20z" fill="#f98f30"/><path d="m180 130h20v10h-20z" fill="#fff"/><path d="m200 130h20v10h-20z"/><path d="m220 130h10v10h-10z" fill="#f98f30"/><path d="m70 140h10v10h-10z" fill="#f98f30"/><path d="m100 140h10v10h-10z" fill="#ffc110"/><path d="m110 140h20v10h-20z" fill="#fff"/><path d="m130 140h20v10h-20z"/><path d="m150 140h10v10h-10z" fill="#ffc110"/><path d="m170 140h10v10h-10z" fill="#f98f30"/><path d="m180 140h20v10h-20z" fill="#fff"/><path d="m200 140h20v10h-20z"/><path d="m220 140h10v10h-10z" fill="#f98f30"/><path d="m70 150h10v10h-10z" fill="#f98f30"/><path d="m100 150h10v10h-10z" fill="#ffc110"/><path d="m110 150h20v10h-20z" fill="#fff"/><path d="m130 150h20v10h-20z"/><path d="m150 150h10v10h-10z" fill="#ffc110"/><path d="m170 150h10v10h-10z" fill="#f98f30"/><path d="m180 150h20v10h-20z" fill="#fff"/><path d="m200 150h20v10h-20z"/><path d="m220 150h10v10h-10z" fill="#f98f30"/><path d="m100 160h60v10h-60z" fill="#ffc110"/><path d="m170 160h60v10h-60z" fill="#f98f30"/></svg>