<svg height="320" shape-rendering="crispEdges" viewBox="0 0 320 320" width="320" xmlns="http://www.w3.org/2000/svg"><rect fill="#d5d7e1" height="100%" width="100%"/><g fill="#80a72d"><path d="m90 210h140v10h-140z"/><path d="m90 220h140v10h-140z"/><path d="m90 230h140v10h-140z"/><path d="m90 240h140v10h-140z"/><path d="m90 250h20v10h-20z"/><path d="m120 250h110v10h-110z"/><path d="m90 260h20v10h-20z"/><path d="m120 260h110v10h-110z"/><path d="m90 270h20v10h-20z"/><path d="m120 270h110v10h-110z"/><path d="m90 280h20v10h-20z"/><path d="m120 280h110v10h-110z"/><path d="m90 290h20v10h-20z"/><path d="m120 290h110v10h-110z"/><path d="m90 300h20v10h-20z"/><path d="m120 300h110v10h-110z"/><path d="m90 310h20v10h-20z"/><path d="m120 310h110v10h-110z"/></g><path d="m140 220h10v10h-10z" fill="#db8323"/><path d="m180 220h10v10h-10z" fill="#db8323"/><path d="m140 230h10v10h-10z" fill="#db8323"/><path d="m180 230h10v10h-10z" fill="#db8323"/><path d="m150 240h10v10h-10z" fill="#db8323"/><path d="m170 240h10v10h-10z" fill="#db8323"/><path d="m150 250h10v10h-10z" fill="#db8323"/><path d="m170 250h10v10h-10z" fill="#db8323"/><path d="m160 260h10v10h-10z" fill="#db8323"/><path d="m140 270h20v10h-20z" fill="#db8323"/><path d="m170 270h20v10h-20z" fill="#db8323"/><path d="m140 280h20v10h-20z" fill="#db8323"/><path d="m170 280h20v10h-20z" fill="#db8323"/><path d="m140 40h30v10h-30z" fill="#f78a18"/><path d="m130 50h10v10h-10z" fill="#f78a18"/><path d="m140 50h30v10h-30z" fill="#ffd067"/><path d="m170 50h10v10h-10z" fill="#f78a18"/><path d="m230 50h20v10h-20z" fill="#da42cb"/><path d="m100 60h30v10h-30z" fill="#fa6fe2"/><path d="m130 60h10v10h-10z" fill="#ffae1a"/><path d="m140 60h30v10h-30z" fill="#ffd067"/><path d="m170 60h10v10h-10z" fill="#ffae1a"/><path d="m180 60h20v10h-20z" fill="#fa6fe2"/><path d="m220 60h10v10h-10z" fill="#da42cb"/><path d="m230 60h10v10h-10z" fill="#fa6fe2"/><path d="m240 60h10v10h-10z" fill="#da42cb"/><path d="m80 70h20v10h-20z" fill="#da42cb"/><path d="m100 70h20v10h-20z" fill="#fa6fe2"/><path d="m120 70h10v10h-10z" fill="#da42cb"/><path d="m130 70h50v10h-50z" fill="#9f21a0"/><path d="m180 70h10v10h-10z" fill="#da42cb"/><path d="m190 70h20v10h-20z" fill="#fa6fe2"/><path d="m210 70h10v10h-10z" fill="#da42cb"/><path d="m220 70h20v10h-20z" fill="#fa6fe2"/><path d="m240 70h10v10h-10z" fill="#da42cb"/><path d="m70 80h10v10h-10z" fill="#da42cb"/><path d="m80 80h160v10h-160z" fill="#fa6fe2"/><path d="m240 80h10v10h-10z" fill="#da42cb"/><path d="m40 90h10v10h-10z" fill="#da42cb"/><path d="m60 90h30v10h-30z" fill="#fa6fe2"/><path d="m90 90h10v10h-10z" fill="#fff"/><path d="m100 90h150v10h-150z" fill="#fa6fe2"/><path d="m250 90h10v10h-10z" fill="#da42cb"/><path d="m30 100h10v10h-10z" fill="#da42cb"/><path d="m60 100h200v10h-200z" fill="#fa6fe2"/><path d="m260 100h10v10h-10z" fill="#da42cb"/><path d="m30 110h10v10h-10z" fill="#da42cb"/><path d="m50 110h190v10h-190z" fill="#fa6fe2"/><path d="m240 110h10v10h-10z" fill="#9f21a0"/><path d="m250 110h10v10h-10z" fill="#fa6fe2"/><path d="m260 110h30v10h-30z" fill="#da42cb"/><path d="m30 120h10v10h-10z" fill="#da42cb"/><path d="m50 120h10v10h-10z" fill="#da42cb"/><path d="m60 120h220v10h-220z" fill="#fa6fe2"/><path d="m280 120h10v10h-10z" fill="#da42cb"/><path d="m40 130h20v10h-20z" fill="#da42cb"/><path d="m60 130h220v10h-220z" fill="#fa6fe2"/><path d="m280 130h10v10h-10z" fill="#da42cb"/><path d="m50 140h10v10h-10z" fill="#da42cb"/><path d="m60 140h200v10h-200z" fill="#fa6fe2"/><path d="m260 140h30v10h-30z" fill="#da42cb"/><path d="m50 150h20v10h-20z" fill="#da42cb"/><path d="m70 150h210v10h-210z" fill="#fa6fe2"/><path d="m280 150h10v10h-10z" fill="#da42cb"/><path d="m60 160h10v10h-10z" fill="#da42cb"/><path d="m70 160h200v10h-200z" fill="#fa6fe2"/><path d="m270 160h10v10h-10z" fill="#da42cb"/><path d="m60 170h30v10h-30z" fill="#da42cb"/><path d="m90 170h160v10h-160z" fill="#fa6fe2"/><path d="m250 170h20v10h-20z" fill="#da42cb"/><path d="m70 180h190v10h-190z" fill="#da42cb"/><path d="m80 190h60v10h-60z" fill="#da42cb"/><path d="m140 190h10v10h-10z" fill="#9f21a0"/><path d="m150 190h20v10h-20z" fill="#fff"/><path d="m170 190h10v10h-10z" fill="#9f21a0"/><path d="m180 190h60v10h-60z" fill="#da42cb"/><path d="m100 200h120v10h-120z" fill="#da42cb"/><path d="m100 110h60v10h-60z" fill="#8dd122"/><path d="m170 110h60v10h-60z" fill="#8dd122"/><path d="m100 120h10v10h-10z" fill="#8dd122"/><path d="m110 120h20v10h-20z" fill="#fff"/><path d="m130 120h20v10h-20z"/><path d="m150 120h10v10h-10z" fill="#8dd122"/><path d="m170 120h10v10h-10z" fill="#8dd122"/><path d="m180 120h20v10h-20z" fill="#fff"/><path d="m200 120h20v10h-20z"/><path d="m220 120h10v10h-10z" fill="#8dd122"/><path d="m70 130h40v10h-40z" fill="#8dd122"/><path d="m110 130h20v10h-20z" fill="#fff"/><path d="m130 130h20v10h-20z"/><path d="m150 130h30v10h-30z" fill="#8dd122"/><path d="m180 130h20v10h-20z" fill="#fff"/><path d="m200 130h20v10h-20z"/><path d="m220 130h10v10h-10z" fill="#8dd122"/><path d="m70 140h10v10h-10z" fill="#8dd122"/><path d="m100 140h10v10h-10z" fill="#8dd122"/><path d="m110 140h20v10h-20z" fill="#fff"/><path d="m130 140h20v10h-20z"/><path d="m150 140h10v10h-10z" fill="#8dd122"/><path d="m170 140h10v10h-10z" fill="#8dd122"/><path d="m180 140h20v10h-20z" fill="#fff"/><path d="m200 140h20v10h-20z"/><path d="m220 140h10v10h-10z" fill="#8dd122"/><path d="m70 150h10v10h-10z" fill="#8dd122"/><path d="m100 150h10v10h-10z" fill="#8dd122"/><path d="m110 150h20v10h-20z" fill="#fff"/><path d="m130 150h20v10h-20z"/><path d="m150 150h10v10h-10z" fill="#8dd122"/><path d="m170 150h10v10h-10z" fill="#8dd122"/><path d="m180 150h20v10h-20z" fill="#fff"/><path d="m200 150h20v10h-20z"/><path d="m220 150h10v10h-10z" fill="#8dd122"/><path d="m100 160h60v10h-60z" fill="#8dd122"/><path d="m170 160h60v10h-60z" fill="#8dd122"/></svg>