<?xml version="1.0" encoding="utf-8"?>
<!DOCTYPE svg PUBLIC "-//W3C//DTD SVG 1.1//EN" "http://www.w3.org/Graphics/SVG/1.1/DTD/svg11.dtd">
<svg version="1.1" id="green-logo" xmlns="http://www.w3.org/2000/svg" xmlns:xlink="http://www.w3.org/1999/xlink" x="0px" y="0px"
	 width="auto" height="auto" viewBox="0 0 280 280" xml:space="preserve">
<linearGradient id="SVGID_1_" gradientUnits="userSpaceOnUse" x1="-511.1035" y1="391.4131" x2="-491.7357" y2="372.0451" gradientTransform="matrix(11.6667 0 0 -11.6667 5986.209 4589.8101)">
	<stop  offset="0" style="stop-color:#A1FF8B"/>
	<stop  offset="1" style="stop-color:#34D399"/>
</linearGradient>
<path fill="url(#SVGID_1_)" d="M77.757,229.051h22.288c2.054,0,3.595,0.615,5.136,2.156l15.817,15.715
	c12.942,13.044,24.958,12.941,37.9,0l15.816-15.715c1.645-1.541,3.081-2.156,5.238-2.156h22.188c18.385,0,26.908-8.422,26.908-26.91
	v-22.186c0-2.157,0.615-3.596,2.156-5.238l15.715-15.818c13.044-12.939,12.939-24.958,0-37.898l-15.715-15.817
	c-1.541-1.541-2.156-3.082-2.156-5.136v-22.29c0-18.283-8.422-26.91-26.908-26.91h-22.188c-2.157,0-3.598-0.514-5.238-2.054
	l-15.816-15.715c-12.941-13.044-24.958-12.941-37.9,0l-15.817,15.715c-1.541,1.541-3.082,2.054-5.136,2.054H77.757
	c-18.385,0-26.91,8.422-26.91,26.91v22.288c0,2.054-0.514,3.595-2.054,5.136l-15.715,15.817c-13.044,12.942-12.941,24.958,0,37.9
	l15.715,15.816c1.541,1.645,2.054,3.081,2.054,5.238v22.188C50.847,220.525,59.372,229.051,77.757,229.051z M128.497,190.122
	c-3.493,0-6.369-1.335-9.039-4.929l-25.78-31.637c-1.541-2.055-2.465-4.416-2.465-6.676c0-4.726,3.595-8.526,8.319-8.526
	c2.876,0,5.136,1.027,7.704,4.417l20.851,26.91l43.856-70.459c1.951-3.184,4.621-4.725,7.396-4.725c4.417,0,8.629,3.082,8.629,7.806
	c0,2.362-1.336,4.725-2.567,6.779l-48.273,76.107C134.967,188.479,131.988,190.122,128.497,190.122z"/>
<path fill="#252630" d="M128.49,190.129c-3.501,0-6.383-1.338-9.06-4.939L93.594,153.5c-1.544-2.061-2.47-4.427-2.47-6.691
	c0-4.729,3.603-8.539,8.337-8.539c2.882,0,5.147,1.029,7.72,4.423l20.896,26.961l43.952-70.586c1.955-3.19,4.631-4.734,7.41-4.734
	c4.424,0,8.646,3.087,8.646,7.82c0,2.366-1.339,4.734-2.572,6.791l-48.378,76.245C134.974,188.482,131.988,190.129,128.49,190.129z"
	/>
	<!-- This NFT was created by a community of Twetch users -->
</svg>
