<?xml version="1.0" encoding="UTF-8"?><svg xmlns="http://www.w3.org/2000/svg" viewBox="0 0 198.43 340.16"><defs><style>.i{fill:#0a0b00;}.j{opacity:.95;}.j,.k{fill:#ff0;}.l{isolation:isolate;}.m,.n,.o,.p,.q{fill:none;stroke-miterlimit:10;}.m,.o{stroke-width:.5px;}.m,.q{stroke:#f2f2f2;}.k{opacity:.22;}.n,.p{stroke:#ff0;}.o{stroke:#999;}.r{fill:#999;}.p{opacity:.78;}.s{mix-blend-mode:multiply;}.t{fill:#f2f2f2;}</style></defs><g class="l"><g id="b"><g id="c"><g id="d"><rect class="t" width="198.43" height="340.16" rx="1.34" ry="1.34"/><path class="i" d="m6.93,333.51c-1.16,0-2.1-.87-2.1-1.95V8.6c0-1.08.94-1.95,2.1-1.95h184.56c1.16,0,2.1.87,2.1,1.95v322.96c0,1.08-.94,1.95-2.1,1.95"/><path class="i" d="m6.93,334.44c-1.16,0-2.1-.87-2.1-1.95V9.53c0-1.08.94-1.95,2.1-1.95h184.56c1.16,0,2.1.87,2.1,1.95v322.96c0,1.08-.94,1.95-2.1,1.95"/><rect class="m" x="7.74" y="9.5" width="182.95" height="321.15" rx="1.34" ry="1.34"/><line id="e" class="q" x1="4.42" y1="296.93" x2="194" y2="296.93"/><path class="t" d="m44.74,309.13h.65l3.22,9.1h-.68l-1.82-5.36c-.37-1.08-.7-2.03-1.01-3.14h-.06c-.32,1.11-.64,2.06-1.01,3.14l-1.85,5.36h-.65l3.22-9.1Zm-1.75,5.44h4.1v.54h-4.1v-.54Z"/><path class="t" d="m53.07,309.68h-3.19v-.55h7.01v.55h-3.18v8.55h-.64v-8.55Z"/><path class="t" d="m58.53,317.85l5.58-8.19h-5.11v-.54h5.89v.38l-5.6,8.18h5.69v.55h-6.45v-.38Z"/><path class="t" d="m67.38,317.69h2.35v-8h-2.35v-.55h5.35v.55h-2.35v8h2.35v.55h-5.35v-.55Z"/><path class="t" d="m76.3,309.13h.62v8.55h4.78v.55h-5.4v-9.1Z"/><path class="t" d="m83.78,314.83v-5.69h.64v5.62c0,2.34,1.07,3.06,2.3,3.06s2.33-.73,2.33-3.06v-5.62h.61v5.69c0,2.76-1.4,3.57-2.93,3.57s-2.94-.81-2.94-3.57Z"/><path class="t" d="m94.73,309.68h-3.19v-.55h7.01v.55h-3.18v8.55h-.64v-8.55Z"/><path class="t" d="m100.44,309.13h.64v3.98h4.59v-3.98h.64v9.1h-.64v-4.56h-4.59v4.56h-.64v-9.1Z"/><path class="t" d="m119.76,307.88h.56v13.81h-.56v-13.81Z"/><path class="t" d="m136.38,309.13h.65l3.22,9.1h-.68l-1.82-5.36c-.37-1.08-.7-2.03-1.01-3.14h-.06c-.32,1.11-.64,2.06-1.01,3.14l-1.85,5.36h-.65l3.22-9.1Zm-1.75,5.44h4.1v.54h-4.1v-.54Z"/><path class="t" d="m142.36,317.69h2.35v-8h-2.35v-.55h5.35v.55h-2.35v8h2.35v.55h-5.35v-.55Z"/><path class="t" d="m150.83,309.13h2.61c1.82,0,3.01.66,3.01,2.4s-1.2,2.52-3.01,2.52h-1.97v4.18h-.64v-9.1Zm2.45,4.39c1.62,0,2.52-.64,2.52-1.98s-.9-1.87-2.52-1.87h-1.8v3.85h1.8Zm.63.16l2.72,4.55h-.74l-2.59-4.36.61-.19Z"/><path class="q" d="m158.03,289.74H40.58v-57.86c8.83,18.92,108.54,19.08,117.45,0v57.86Z"/><path class="t" d="m105.65,282.47v-13.56c0-1.35.05-2.53.15-3.53.1-1,.22-1.87.35-2.61.13-.74.24-1.34.33-1.81v-.13h-15.81c-.68,0-1.21-.24-1.59-.71-.38-.47-.57-1.25-.57-2.34,0-.38.01-.75.04-1.1.03-.35.1-.77.2-1.26.1-.49.23-1.1.38-1.83h1.19v.44c0,.71.22,1.21.66,1.52.44.31,1,.46,1.68.46h15.28c.5,0,.85.1,1.04.31.19.21.29.59.29,1.15v2.96l-1.15.4.57,20.05c-.32.32-.68.61-1.06.86-.38.25-.82.49-1.33.73h-.66Zm-16.34,0v-11.88c0-1,.1-1.75.31-2.25.21-.5.54-.81,1.02-.93l1.41-.4.27.31.04,13.56c-.32.32-.68.61-1.06.86-.38.25-.82.49-1.32.73h-.66Z"/><path class="t" d="m98.2,220.96l-1.15-27.13c0-.73-.09-1.24-.27-1.53-.18-.29-.58-.44-1.2-.44h-3.61c-.87,0-1.54-.3-1.99-.9-.46-.6-.68-1.61-.68-3.03,0-.4.02-.81.05-1.23.04-.42.12-.93.25-1.53.13-.6.28-1.36.46-2.27h1.48v.16c0,.87.25,1.57.74,2.08.49.51,1.21.76,2.16.76h3.12c.95,0,1.6.23,1.97.68.36.46.56,1.27.6,2.43l-1.6,31.56"/><path class="q" d="m98.38,242.3c28.27,0,49.11-6.17,50.84-9.65-8.65-3.21-46.7-21.63-48.86-22.63-2.15-1-27.67-14.59-38.14-22.07-10.47-7.48-10.71-12.41-10.71-12.41,0,0,9.03-8.85,46.88-8.85h0c37.85,0,46.88,8.85,46.88,8.85,0,0-.24,4.92-10.71,12.41-10.47,7.48-35.99,21.08-38.14,22.07-2.15,1-40.2,19.42-48.86,22.63,1.73,3.48,25.48,9.65,50.84,9.65h0Z"/><path class="t" d="m105.65,153.05v-13.56c0-1.35.05-2.53.15-3.53.1-1,.22-1.87.35-2.61.13-.74.24-1.34.33-1.81v-.13h-15.81c-.68,0-1.21-.24-1.59-.71-.38-.47-.57-1.25-.57-2.34,0-.38.01-.75.04-1.1.03-.35.1-.77.2-1.26.1-.49.23-1.1.38-1.83h1.19v.44c0,.71.22,1.21.66,1.52.44.31,1,.46,1.68.46h15.28c.5,0,.85.1,1.04.31.19.21.29.59.29,1.15v2.96l-1.15.4.57,20.05c-.32.32-.68.61-1.06.86-.38.25-.82.49-1.33.73h-.66Zm-16.34,0v-11.88c0-1,.1-1.75.31-2.25.21-.5.54-.81,1.02-.93l1.41-.4.27.31.04,13.56c-.32.32-.68.61-1.06.86-.38.25-.82.49-1.32.73h-.66Z"/><line class="p" x1="57.35" y1="77.73" x2="141.08" y2="77.73"/><path class="k" d="m85.78,111.84s2.31,1.92,6.29,3.2h1.67c-10.06-2.44-17.53-11.5-17.53-22.31,0-2.41.37-4.73,1.06-6.92,2.9-9.36,11.62-16.16,21.94-16.16,12.68,0,22.96,10.28,22.96,22.96,0,2.41-.37,4.73-1.06,6.92-2.37,7.66-8.65,13.6-16.5,15.51h1.73c3.99-1.28,6.3-3.2,6.3-3.2,10.05,0,20.8.6,29.05,1.2l-42.49-72.62-42.49,72.62c8.24-.6,19-1.2,29.06-1.2Z"/><path class="n" d="m85.78,111.84s2.31,1.92,6.29,3.2h1.67c-10.06-2.44-17.53-11.5-17.53-22.31,0-2.41.37-4.73,1.06-6.92,2.9-9.36,11.62-16.16,21.94-16.16,12.68,0,22.96,10.28,22.96,22.96,0,2.41-.37,4.73-1.06,6.92-2.37,7.66-8.65,13.6-16.5,15.51h1.73c3.99-1.28,6.3-3.2,6.3-3.2,10.05,0,20.8.6,29.05,1.2l-42.49-72.62-42.49,72.62c8.24-.6,19-1.2,29.06-1.2Z"/><path id="f" class="q" d="m85.78,111.91s5.16,4.32,13.43,4.32,13.44-4.32,13.44-4.32c20.11,0,43.05,2.4,43.05,2.4.62,0,1.12.86,1.12,1.91,0,0,1.33,9.66,1.27,20.24-.05,10.58-1.27,24.73-1.27,24.73,0,1.15-.59,2.03-1.25,1.9,0,0-25.43-4.75-55.28-4.75s-57.37,4.76-57.37,4.76c-.67.11-1.3-.77-1.3-1.91,0,0-1.24-14.96-1.29-24.68s1.29-20.29,1.29-20.29c0-1.06.5-1.91,1.12-1.91,0,0,22.93-2.4,43.03-2.4Z"/><circle id="g" class="j" cx="99.22" cy="92.69" r="22.96"/><g class="s"><path class="i" d="m98.66,103.36l-1.91-2.02,1.69-1.97c1.31-1.53,2.19-2.74,2.65-3.63.46-.89.68-1.79.68-2.71,0-.51-.09-.92-.27-1.23-.18-.31-.57-.46-1.15-.46h-4.81c-.87,0-1.54-.3-1.99-.9-.46-.6-.68-1.61-.68-3.03,0-.4.02-.79.05-1.18.04-.38.12-.87.25-1.45.13-.58.28-1.38.46-2.4h1.48v.22c0,.95.25,1.65.77,2.1.51.46,1.22.68,2.13.68h3.61c1.38,0,2.4.43,3.06,1.28.66.86.98,2.07.98,3.63,0,1.09-.16,2.18-.46,3.25-.31,1.08-.73,2.09-1.26,3.03-.53.95-1.1,1.8-1.72,2.57l-3.55,4.21Z"/></g><path id="h" class="n" d="m99.22,69.74c-12.67,0-22.98,10.27-22.95,22.95.03,12.61,10.3,22.89,22.95,22.95,12.67.06,22.95-10.27,22.95-22.95s-10.27-22.95-22.95-22.95"/><path class="r" d="m98.48,21.74v1.18h.42c.06,0,.09.01.12.03.02.02.03.05.03.08,0,.03-.01.06-.03.08-.02.02-.06.03-.12.03h-.94c-.05,0-.09-.01-.12-.03-.02-.02-.03-.05-.03-.08,0-.03.01-.06.03-.08.02-.02.06-.03.12-.03h.3v-2.69h-.3c-.05,0-.09-.01-.12-.03-.02-.02-.03-.05-.03-.08s.01-.06.03-.08c.02-.02.06-.03.12-.03h1.36c.28,0,.52.09.71.27.19.18.29.38.29.6,0,.16-.06.31-.18.45-.12.14-.32.26-.6.36.16.11.3.24.41.38.11.14.3.43.55.86h.17c.05,0,.09.01.12.03.02.02.03.05.03.08,0,.03-.01.06-.03.08-.02.02-.06.03-.12.03h-.3c-.28-.5-.49-.83-.65-1-.15-.17-.33-.3-.53-.4h-.72Zm0-.23h.61c.2,0,.38-.04.54-.11.16-.07.28-.16.35-.25s.11-.19.11-.3c0-.15-.08-.29-.23-.43-.15-.14-.33-.2-.55-.2h-.83v1.29Z"/><path class="r" d="m93.05,29.17h-1.48l-.3.82h.43c.05,0,.09.01.12.03.02.02.03.05.03.08,0,.03-.01.06-.03.08-.02.02-.06.03-.12.03h-.84c-.05,0-.09-.01-.12-.03-.02-.02-.03-.05-.03-.08,0-.03.01-.06.03-.08.02-.02.06-.03.12-.03h.17l1-2.69h-.67c-.05,0-.09-.01-.12-.03-.02-.02-.03-.05-.03-.08s.01-.06.03-.08c.02-.02.06-.03.12-.03h1.13l1.1,2.91h.17c.05,0,.09.01.12.03.02.02.03.05.03.08,0,.03-.01.06-.03.08-.02.02-.06.03-.12.03h-.84c-.06,0-.09-.01-.12-.03-.02-.02-.03-.05-.03-.08,0-.03.01-.06.03-.08.02-.02.06-.03.12-.03h.43l-.31-.82Zm-.09-.23l-.62-1.64h-.08l-.6,1.64h1.31Z"/><path class="r" d="m107.72,28.73c0,.3-.06.58-.18.84-.12.26-.29.46-.5.6-.21.14-.44.21-.69.21-.36,0-.68-.15-.96-.46s-.41-.7-.41-1.19.14-.88.41-1.19c.28-.31.6-.46.96-.46.25,0,.47.07.69.21.21.14.38.34.5.6.12.26.18.53.18.84Zm-.23,0c0-.37-.11-.7-.32-.99-.21-.29-.49-.44-.83-.44-.32,0-.59.14-.81.42-.22.28-.34.61-.34,1.01,0,.42.12.76.35,1.03.24.27.5.4.8.4.34,0,.61-.15.83-.44.21-.29.32-.62.32-.99Z"/><path class="r" d="m99.32,34.08v2.69h.58c.05,0,.09.01.12.03.02.02.03.05.03.08,0,.03-.01.06-.03.08-.02.02-.06.03-.12.03h-1.4c-.05,0-.09-.01-.12-.03-.02-.02-.03-.05-.03-.08,0-.03.01-.06.03-.08.02-.02.06-.03.12-.03h.58v-2.69h-.92v.78c0,.06-.01.09-.03.12-.02.02-.05.03-.08.03-.03,0-.06-.01-.08-.03-.02-.02-.03-.06-.03-.12v-1.01h2.52v1.01c0,.06-.01.09-.03.12-.02.02-.05.03-.08.03s-.06-.01-.08-.03c-.02-.02-.03-.06-.03-.12v-.78h-.92Z"/><path class="o" d="m106.34,26.44c-.74-2.52-2.78-4.48-5.33-5.11"/><path class="o" d="m101.02,35.71c2.37-.59,4.28-2.31,5.14-4.55"/><path class="o" d="m92.32,31.17c.84,2.2,2.7,3.89,4.99,4.51"/><path class="o" d="m97.55,21.48c-2.54.67-4.55,2.65-5.25,5.18"/></g></g></g></g></svg>