<svg xmlns="http://www.w3.org/2000/svg" viewBox="0 -0.5 50 50" shape-rendering="crispEdges">
	<title>Bitcoin Pussies #069</title>
	<desc>Bitcoin Pussies are 69 uniquely drawn and inscribed cats on Bitcoin</desc>
	<desc xmlns:meow="https://bitcoinpussies.com/">
		<meow:traits>
			<meow:Skin>Grey (Shiny)</meow:Skin>
			<meow:Eyes>Open</meow:Eyes>
			<meow:Gear>Poptart with rainbow in space</meow:Gear>
			<meow:Message>Nyan nyan nyan nyan nyan nyan nyan nyan nyan nyan nyan nyan nyan nyan nyan nyan nyan</meow:Message>
		</meow:traits>
	</desc>
	<path stroke="#353354" d="M0 0h50M0 1h50M0 2h50M0 3h10M11 3h39M0 4h10M11 4h24M36 4h14M0 5h50M0 6h7M9 6h1M11 6h1M14 6h35M0 7h50M0 8h10M11 8h39M0 9h10M11 9h39M0 10h50M0 11h44M45 11h5M0 12h13M38 12h5M44 12h1M46 12h4M0 13h12M39 13h5M45 13h5M3 14h8M40 14h10M3 15h3M40 15h10M40 16h10M40 17h10M40 18h10M40 19h10M40 20h10M40 21h10M40 22h10M40 23h9M40 24h9M40 25h10M40 26h6M48 26h1M40 27h10M40 28h9M40 29h9M40 30h10M40 31h10M40 32h10M40 33h10M40 34h10M39 35h11M38 36h12M33 37h17M0 38h3M32 38h18M0 39h3M6 39h8M18 39h2M31 39h19M0 40h50M0 41h1M2 41h41M44 41h6M0 42h43M44 42h6M0 43h16M17 43h24M43 43h1M46 43h4M0 44h15M16 44h1M18 44h25M44 44h6M0 45h16M17 45h26M44 45h6M0 46h50M0 47h34M35 47h15M0 48h50M0 49h50" />
	<path stroke="#ffffff" d="M10 3h1M10 4h1M35 4h1M7 6h2M10 6h1M12 6h2M49 6h1M10 8h1M10 9h1M44 11h1M43 12h1M45 12h1M44 13h1M49 23h1M49 24h1M20 25h1M30 25h1M46 26h2M49 26h1M49 28h1M49 29h1M1 41h1M43 41h1M43 42h1M16 43h1M41 43h2M44 43h2M15 44h1M17 44h1M43 44h1M16 45h1M43 45h1M34 47h1" />
	<path stroke="#000000" d="M13 12h25M12 13h1M38 13h1M11 14h1M39 14h1M11 15h1M39 15h1M11 16h1M39 16h1M11 17h1M16 17h3M32 17h3M39 17h1M11 18h1M15 18h1M19 18h2M30 18h2M35 18h1M39 18h1M11 19h1M15 19h1M21 19h9M35 19h1M39 19h1M11 20h1M15 20h1M19 20h2M30 20h2M35 20h1M39 20h1M11 21h1M15 21h1M18 21h1M32 21h1M35 21h1M39 21h1M11 22h1M15 22h1M17 22h1M33 22h1M35 22h1M39 22h1M11 23h1M15 23h2M34 23h2M39 23h1M11 24h1M16 24h1M19 24h3M29 24h3M34 24h1M39 24h1M11 25h1M15 25h1M18 25h1M22 25h1M28 25h1M32 25h1M35 25h1M39 25h1M11 26h1M15 26h1M35 26h1M39 26h1M11 27h1M15 27h1M35 27h1M39 27h1M11 28h1M15 28h1M23 28h1M25 28h1M27 28h1M35 28h1M39 28h1M11 29h1M15 29h1M24 29h1M26 29h1M35 29h1M39 29h1M11 30h1M16 30h1M34 30h1M39 30h1M11 31h1M16 31h1M34 31h1M39 31h1M11 32h1M17 32h2M32 32h2M39 32h1M11 33h1M19 33h13M39 33h1M11 34h1M39 34h1M12 35h1M38 35h1M13 36h25M13 37h1M17 37h2M22 37h2M27 37h2M32 37h1M13 38h1M18 38h2M24 38h1M26 38h1M31 38h1M14 39h4M20 39h11" />
	<path stroke="#f5e2a1" d="M13 13h25M12 14h2M37 14h2M12 15h1M38 15h1M12 16h1M38 16h1M12 17h1M38 17h1M12 18h1M38 18h1M12 19h1M38 19h1M12 20h1M38 20h1M12 21h1M38 21h1M12 22h1M38 22h1M12 23h1M38 23h1M12 24h1M38 24h1M12 25h1M38 25h1M12 26h1M38 26h1M12 27h1M38 27h1M12 28h1M38 28h1M12 29h1M38 29h1M12 30h1M38 30h1M12 31h1M38 31h1M12 32h1M38 32h1M12 33h1M38 33h1M12 34h2M37 34h2M13 35h25" />
	<path stroke="#ff0000" d="M0 14h3M0 15h3M6 15h5M0 16h11M0 17h11M3 18h8M3 19h4" />
	<path stroke="#f08fb8" d="M14 14h3M18 14h19M13 15h15M29 15h9M13 16h7M21 16h17M13 17h2M19 17h6M26 17h6M35 17h2M13 18h2M21 18h9M36 18h2M13 19h2M36 19h2M13 20h2M37 20h1M13 21h2M36 21h2M13 22h1M36 22h2M13 23h2M36 23h2M13 24h3M35 24h1M37 24h1M13 25h2M36 25h2M13 26h2M36 26h1M13 27h2M36 27h2M13 28h2M36 28h2M13 29h1M36 29h2M13 30h3M35 30h3M13 31h3M36 31h2M13 32h3M34 32h4M13 33h6M32 33h1M34 33h4M14 34h8M23 34h7M31 34h6" />
	<path stroke="#c76bcd" d="M17 14h1M28 15h1M20 16h1M15 17h1M25 17h1M37 17h1M36 20h1M14 22h1M36 24h1M37 26h1M14 29h1M35 31h1M16 32h1M33 33h1M22 34h1M30 34h1" />
	<path stroke="#ff7100" d="M0 18h3M0 19h3M7 19h4M0 20h11M0 21h11M3 22h8M3 23h3" />
	<path stroke="#8b8b8b" d="M16 18h3M32 18h3M16 19h1M20 19h1M30 19h1M34 19h1M16 20h1M21 20h9M34 20h1M16 21h1M19 21h13M34 21h1M16 22h1M18 22h15M34 22h1M17 23h17M17 24h2M22 24h7M32 24h2M16 25h2M23 25h5M33 25h2M16 26h3M22 26h7M32 26h3M16 27h3M22 27h7M32 27h3M16 28h2M20 28h3M24 28h1M26 28h1M28 28h3M33 28h2M16 29h8M25 29h1M27 29h8M17 30h17M17 31h17M19 32h13M14 37h3M19 37h3M24 37h3M29 37h3M14 38h4M20 38h4M25 38h1M27 38h4" />
	<path stroke="#dbbeb8" d="M17 19h3M31 19h3M17 20h2M32 20h2M17 21h1M33 21h1" />
	<path stroke="#ffd000" d="M0 22h3M0 23h3M6 23h5M0 24h11M0 25h11M3 26h8M3 27h3" />
	<path stroke="#a2c166" d="M19 25h1M21 25h1M29 25h1M31 25h1M19 26h3M29 26h3" />
	<path stroke="#64ff00" d="M0 26h3M0 27h3M6 27h5M0 28h11M0 29h11M3 30h8M3 31h3" />
	<path stroke="#90af56" d="M19 27h3M29 27h3" />
	<path stroke="#e6a0a2" d="M18 28h2M31 28h2" />
	<path stroke="#0072ff" d="M0 30h3M0 31h3M6 31h5M0 32h11M0 33h11M3 34h8M3 35h3" />
	<path stroke="#8a00ff" d="M0 34h3M0 35h3M6 35h6M0 36h13M0 37h13M3 38h10M3 39h3" />
</svg>