<svg height="320" shape-rendering="crispEdges" viewBox="0 0 320 320" width="320" xmlns="http://www.w3.org/2000/svg"><rect fill="#d5d7e1" height="100%" width="100%"/><g fill="#5a423f"><path d="m90 210h140v10h-140z"/><path d="m90 220h140v10h-140z"/><path d="m90 230h140v10h-140z"/><path d="m90 240h140v10h-140z"/><path d="m90 250h20v10h-20z"/><path d="m120 250h110v10h-110z"/><path d="m90 260h20v10h-20z"/><path d="m120 260h110v10h-110z"/><path d="m90 270h20v10h-20z"/><path d="m120 270h110v10h-110z"/><path d="m90 280h20v10h-20z"/><path d="m120 280h110v10h-110z"/><path d="m90 290h20v10h-20z"/><path d="m120 290h110v10h-110z"/><path d="m90 300h20v10h-20z"/><path d="m120 300h110v10h-110z"/><path d="m90 310h20v10h-20z"/><path d="m120 310h110v10h-110z"/></g><path d="m120 210h10v10h-10z" fill="#ffc110"/><path d="m190 210h10v10h-10z" fill="#ffc110"/><path d="m130 220h10v10h-10z" fill="#ffc110"/><path d="m180 220h10v10h-10z" fill="#ffc110"/><path d="m140 230h10v10h-10z" fill="#ffc110"/><path d="m170 230h10v10h-10z" fill="#ffc110"/><path d="m150 240h20v10h-20z" fill="#ffc110"/><path d="m130 250h60v10h-60z" fill="#fff671"/><path d="m130 260h40v10h-40z" fill="#ffc110"/><path d="m170 260h20v10h-20z" fill="#fff671"/><path d="m130 270h40v10h-40z" fill="#ffc110"/><path d="m170 270h20v10h-20z" fill="#fff671"/><path d="m70 30h20v10h-20z" fill="#1f1d29"/><path d="m220 30h20v10h-20z" fill="#1f1d29"/><path d="m70 40h40v10h-40z" fill="#1f1d29"/><path d="m200 40h40v10h-40z" fill="#1f1d29"/><path d="m70 50h10v10h-10z" fill="#1f1d29"/><path d="m80 50h10v10h-10z" fill="#caeff9"/><path d="m90 50h40v10h-40z" fill="#1f1d29"/><path d="m180 50h40v10h-40z" fill="#1f1d29"/><path d="m220 50h10v10h-10z" fill="#caeff9"/><path d="m230 50h10v10h-10z" fill="#1f1d29"/><path d="m70 60h10v10h-10z" fill="#1f1d29"/><path d="m80 60h30v10h-30z" fill="#caeff9"/><path d="m110 60h20v10h-20z" fill="#1f1d29"/><path d="m180 60h20v10h-20z" fill="#1f1d29"/><path d="m200 60h30v10h-30z" fill="#caeff9"/><path d="m230 60h10v10h-10z" fill="#1f1d29"/><path d="m70 70h10v10h-10z" fill="#1f1d29"/><path d="m80 70h40v10h-40z" fill="#caeff9"/><path d="m120 70h70v10h-70z" fill="#1f1d29"/><path d="m190 70h40v10h-40z" fill="#caeff9"/><path d="m230 70h10v10h-10z" fill="#1f1d29"/><path d="m70 80h10v10h-10z" fill="#1f1d29"/><path d="m80 80h30v10h-30z" fill="#caeff9"/><path d="m110 80h90v10h-90z" fill="#1f1d29"/><path d="m200 80h30v10h-30z" fill="#caeff9"/><path d="m230 80h10v10h-10z" fill="#1f1d29"/><path d="m70 90h10v10h-10z" fill="#1f1d29"/><path d="m80 90h10v10h-10z" fill="#caeff9"/><path d="m90 90h130v10h-130z" fill="#1f1d29"/><path d="m220 90h10v10h-10z" fill="#caeff9"/><path d="m230 90h10v10h-10z" fill="#1f1d29"/><path d="m70 100h170v10h-170z" fill="#1f1d29"/><path d="m80 110h160v10h-160z" fill="#1f1d29"/><path d="m80 120h160v10h-160z" fill="#1f1d29"/><path d="m80 130h160v10h-160z" fill="#1f1d29"/><path d="m80 140h160v10h-160z" fill="#1f1d29"/><path d="m80 150h160v10h-160z" fill="#1f1d29"/><path d="m80 160h160v10h-160z" fill="#1f1d29"/><path d="m60 170h50v10h-50z" fill="#7cc4f2"/><path d="m110 170h50v10h-50z" fill="#caeff9"/><path d="m160 170h20v10h-20z" fill="#fa6fe2"/><path d="m180 170h40v10h-40z" fill="#caeff9"/><path d="m220 170h40v10h-40z" fill="#7cc4f2"/><path d="m80 180h80v10h-80z" fill="#caeff9"/><path d="m160 180h10v10h-10z" fill="#5a6b7b"/><path d="m170 180h70v10h-70z" fill="#caeff9"/><path d="m60 190h50v10h-50z" fill="#7cc4f2"/><path d="m110 190h30v10h-30z" fill="#caeff9"/><path d="m140 190h40v10h-40z" fill="#5a6b7b"/><path d="m180 190h40v10h-40z" fill="#caeff9"/><path d="m220 190h40v10h-40z" fill="#7cc4f2"/><path d="m80 200h160v10h-160z" fill="#caeff9"/><path d="m100 110h60v10h-60z" fill="#d19a54"/><path d="m170 110h60v10h-60z" fill="#d19a54"/><path d="m100 120h10v10h-10z" fill="#d19a54"/><path d="m110 120h20v10h-20z" fill="#fff"/><path d="m130 120h20v10h-20z"/><path d="m150 120h10v10h-10z" fill="#d19a54"/><path d="m170 120h10v10h-10z" fill="#d19a54"/><path d="m180 120h20v10h-20z" fill="#fff"/><path d="m200 120h20v10h-20z"/><path d="m220 120h10v10h-10z" fill="#d19a54"/><path d="m70 130h40v10h-40z" fill="#d19a54"/><path d="m110 130h20v10h-20z" fill="#fff"/><path d="m130 130h20v10h-20z"/><path d="m150 130h30v10h-30z" fill="#d19a54"/><path d="m180 130h20v10h-20z" fill="#fff"/><path d="m200 130h20v10h-20z"/><path d="m220 130h10v10h-10z" fill="#d19a54"/><path d="m70 140h10v10h-10z" fill="#d19a54"/><path d="m100 140h10v10h-10z" fill="#d19a54"/><path d="m110 140h20v10h-20z" fill="#fff"/><path d="m130 140h20v10h-20z"/><path d="m150 140h10v10h-10z" fill="#d19a54"/><path d="m170 140h10v10h-10z" fill="#d19a54"/><path d="m180 140h20v10h-20z" fill="#fff"/><path d="m200 140h20v10h-20z"/><path d="m220 140h10v10h-10z" fill="#d19a54"/><path d="m70 150h10v10h-10z" fill="#d19a54"/><path d="m100 150h10v10h-10z" fill="#d19a54"/><path d="m110 150h20v10h-20z" fill="#fff"/><path d="m130 150h20v10h-20z"/><path d="m150 150h10v10h-10z" fill="#d19a54"/><path d="m170 150h10v10h-10z" fill="#d19a54"/><path d="m180 150h20v10h-20z" fill="#fff"/><path d="m200 150h20v10h-20z"/><path d="m220 150h10v10h-10z" fill="#d19a54"/><path d="m100 160h60v10h-60z" fill="#d19a54"/><path d="m170 160h60v10h-60z" fill="#d19a54"/></svg>