<svg viewBox="0 0 500 500" xmlns:xlink="http://www.w3.org/1999/xlink" xmlns="http://www.w3.org/2000/svg"><defs><style>.d,.e,.f,.g{fill:none;}.e{isolation:isolate;}.h{fill:#f3a292;}.i{fill:#f3a699;}.j{fill:#fff;}.k{fill:#fff6cd;}.l,.m{fill:#7fd7d8;}.n{fill:#559d85;}.m{mix-blend-mode:multiply;}.f{clip-path:url(#c);}.g{clip-path:url(#b);}</style><clipPath id="b"><rect height="500" width="500" x="-520" class="d"></rect></clipPath><clipPath id="c"><rect height="500" width="500" class="d"></rect></clipPath></defs><g class="e"><g id="a"><g class="g"><polygon points="113.3 446.7 -130.2 446.7 -130.2 160.9 113.3 446.7" class="j"></polygon><polygon points="144.8 568.2 -467.7 568.2 -467.7 298.7 144.8 568.2" class="j"></polygon></g><path d="m475.2,176.3c0,31.9-25.9,57.8-57.8,57.8v-115.5c31.9,0,57.8,25.9,57.8,57.8Z" class="k"></path><g class="f"><rect height="500" width="500" class="h"></rect><circle r="153.5" cy="176.6" cx="275" class="j"></circle><rect height="500" width="500" class="d"></rect><path d="m60.7,215.2c0,34.9,28.3,63.1,63.1,63.1v-126.2c-34.9,0-63.1,28.3-63.1,63.1Z" class="k"></path><path d="m478.7,176.5c0,34.9-28.3,63.1-63.1,63.1v-126.2c34.9,0,63.1,28.3,63.1,63.1Z" class="k"></path><rect height="221.1" width="63.1" y="278.4" x="60.7" class="k"></rect><polygon points="124.5 500 442.7 500 442.7 270.7 124.5 500" class="k"></polygon><polygon points="320 475.8 499.4 475.8 499.4 346.4 320 475.8" class="n"></polygon><polygon points="24.1 152 281.9 152 281.9 -33.8 24.1 152" class="m"></polygon><polygon points="254.3 113.9 437.5 113.9 437.5 -18.1 254.3 113.9" class="m"></polygon><rect transform="translate(408.3 -41.7) rotate(51.3)" ry="9.8" rx="9.8" height="19.6" width="36.4" y="394.4" x="229.4" class="i"></rect><rect transform="translate(433.5 -75.1) rotate(51.3)" ry="9.8" rx="9.8" height="19.6" width="36.4" y="403.9" x="276.8" class="i"></rect><circle r="10.2" cy="386" cx="274.4" class="l"></circle><circle r="10.2" cy="440.7" cx="317.2" class="l"></circle><rect transform="translate(443.3 -20.8) rotate(51.3)" ry="9.8" rx="9.8" height="19.6" width="36.4" y="441.3" x="225.2" class="i"></rect><circle r="10.2" cy="423.3" cx="222.8" class="l"></circle><circle r="10.2" cy="431.1" cx="269.2" class="l"></circle><rect transform="translate(114.6 972.1) rotate(-128.7)" ry="9.8" rx="9.8" height="19.6" width="36.4" y="448.7" x="272.6" class="i"></rect><rect transform="translate(365.4 -115.2) rotate(51.3)" ry="9.8" rx="9.8" height="19.6" width="36.4" y="313" x="284.4" class="i"></rect><rect transform="translate(388.5 -149.6) rotate(51.3)" ry="9.8" rx="9.8" height="19.6" width="36.4" y="319.8" x="331.8" class="i"></rect><circle r="10.2" cy="301.9" cx="329.5" class="l"></circle><circle r="10.2" cy="356.6" cx="372.2" class="l"></circle><rect transform="translate(398.8 -94.3) rotate(51.3)" ry="9.8" rx="9.8" height="19.6" width="36.4" y="358.2" x="279.4" class="i"></rect><circle r="10.2" cy="340.3" cx="277" class="l"></circle><circle r="10.2" cy="349.7" cx="324.3" class="l"></circle><rect transform="translate(267.6 882.7) rotate(-128.7)" ry="9.8" rx="9.8" height="19.6" width="36.4" y="367.3" x="327.6" class="i"></rect></g></g></g></svg>