<svg xmlns="http://www.w3.org/2000/svg" width="512" height="512" fill="none"><path fill="#F90" d="M0 0h512v512H0z"/><path fill="#DA420F" d="M84 340h344v160H84z"/><g><animateTransform attributeName="transform" dur="0.4s" keyTimes="0;0.5;1" repeatCount="indefinite" type="translate" values="0 0;0 28;0 0"/><path fill="#F15824" d="M196 176h120v296H196z"/><path fill="#DA420F" d="M196 96h120v80H196z"/><path fill="#F15824" d="M250 96h12v36h-12z"><animate attributeName="fill" begin="5s" dur="0.4s" repeatCount="5" values="#F15824; #fff; #F15824"/></path><path fill="#D22D27" d="M196 96h120c0-33.137-26.863-60-60-60s-60 26.863-60 60Z"/><path fill="#FFB74A" d="M117.765 152h276.47L406 96H106l11.765 56Z"/><path fill="#D22D27" d="m168 152-20.625-40L128 152h40ZM240 152l-20.625-40L200 152h40ZM312 152l-20.625-40L272 152h40ZM384 152l-20.625-40L344 152h40Z"/><path fill="#121212" d="M202 179h48v20l-12 28h-36v-48Z"/><path stroke="#FFB74A" stroke-width="6" d="M202 179h48v20l-12 28h-36v-48Zm0 0h-6M247 179h19M247 197h19"/><path fill="#121212" d="M310 179h-48v20l12 28h36v-48Z"/><path stroke="#FFB74A" stroke-width="6" d="M310 179h-48v20l12 28h36v-48Zm0 0h6"/><mask id="a" width="42" height="42" x="205" y="182" maskUnits="userSpaceOnUse" style="mask-type:alpha"><path fill="#121212" d="M205 182h42v16.336L242 210l-6 14h-31v-42Z"/></mask><g mask="url(#a)"><path fill="#FFF" d="M213.112 182h8.77l-10.524 43.235h-8.77L213.112 182Z"><animateTransform attributeName="transform" dur="4s" keyTimes="0;0.1;0.3;1" repeatCount="indefinite" type="translate" values="-32 0;-32 0;48 0;48 0"/></path></g><mask id="b" width="42" height="42" x="265" y="182" maskUnits="userSpaceOnUse" style="mask-type:alpha"><path fill="#121212" d="M265 182h42v42h-31l-11-25.5V182Z"/></mask><g mask="url(#b)"><path fill="#FFF" d="M271.112 182h8.77l-10.524 43.235h-8.77L271.112 182Z"><animateTransform attributeName="transform" dur="4s" keyTimes="0;0.1;0.3;1" repeatCount="indefinite" type="translate" values="-32 0;-32 0;48 0;48 0"/></path></g><path stroke="#121212" stroke-width="6" d="M231.114 346h49.289L292 334"/></g></svg>