<svg xmlns="http://www.w3.org/2000/svg" viewBox="0 0 500 290"><defs><linearGradient id="d" x1=".313" x2="153.127" y1="13.1" y2="13.1" gradientUnits="userSpaceOnUse"><stop stop-color="#E97F00"/><stop offset=".484" stop-color="#FFC00C"/><stop offset=".75" stop-color="#E47D00"/><stop offset="1" stop-color="#E97F00"/></linearGradient><linearGradient id="c" x1="2" x2="404" y1="26" y2="26" gradientTransform="translate(177.564 116.001) scale(.51111)" gradientUnits="userSpaceOnUse"><stop stop-color="#E97F00"/><stop offset=".48" stop-color="#FFC00C"/><stop offset=".75" stop-color="#E47D00"/><stop offset="1" stop-color="#E97F00"/></linearGradient><linearGradient id="a" x1="2" x2="404" y1="26" y2="26" gradientUnits="userSpaceOnUse"><stop stop-color="#E97F00"/><stop offset=".48" stop-color="#FFC00C"/><stop offset=".75" stop-color="#E47D00"/><stop offset="1" stop-color="#E97F00"/></linearGradient><linearGradient id="b" x1="0" x2="512" y1="0" y2="311.75" gradientUnits="userSpaceOnUse"><stop stop-color="#61F9FD"/><stop offset="1" stop-color="#fff"/></linearGradient></defs><rect fill="url(#a)" width="500" height="290" rx="16"/><rect width="497" height="287" x="1.5" y="1.5" stroke="url(#b)" stroke-opacity=".8" stroke-width="5" rx="14.5"/><g opacity=".07" transform="matrix(.82726 0 0 .87628 164.15 38.13)"><path d="m86 157-50.5-50.5c-19.606-19.606-19.606-51.394 0-71v0c19.606-19.606 51.394-19.606 71 0L163 92" stroke="#FF9E0C" stroke-linecap="round" stroke-linejoin="round" stroke-width="20"/><path d="m97 95.5 34 34c19.606 19.606 19.606 51.394 0 71v0c-19.606 19.606-51.394 19.606-71 0l-40-40" stroke="#FF9E0C" stroke-linecap="round" stroke-linejoin="round" stroke-width="20"/><circle fill="#FF8F0C" cx="69" cy="67" r="14"/></g><text fill="url(#c)" x="104.482" y="150.692" font-family="Sans,Arial" font-size="60" font-weight="600" style="white-space:pre">OG PASS</text><text fill="url(#d)" x="195.717" y="202.537" font-family="Sans,Arial" font-size="30.7" font-weight="300" style="white-space:pre">UniSat</text><text fill="#FFB800" fill-opacity=".9" x="381.971" y="264.15" font-family="Sans,Arial" font-size="24" style="white-space:pre">#10043</text></svg>