<svg xmlns="http://www.w3.org/2000/svg" viewBox="0 -0.5 50 50" shape-rendering="crispEdges">
	<title>Bitcoin Pussies #052</title>
	<desc>Bitcoin Pussies are 69 uniquely drawn and inscribed cats on Bitcoin</desc>
	<desc xmlns:meow="https://bitcoinpussies.com/">
		<meow:traits>
			<meow:Skin>Grey, White</meow:Skin>
			<meow:Eyes>Wink</meow:Eyes>
			<meow:Gear>None</meow:Gear>
			<meow:Message>Meow</meow:Message>
		</meow:traits>
	</desc>
	<path stroke="#85664c" d="M0 0h50M0 1h50M0 2h50M0 3h50M0 4h50M0 5h50M0 6h50M0 7h50M0 8h50M0 9h50M0 10h50M0 11h50M0 12h50M0 13h50M0 14h50M0 15h50M0 16h20M31 16h19M0 17h18M33 17h17M0 18h17M34 18h16M0 19h15M36 19h14M0 20h14M37 20h13M0 21h13M38 21h12M0 22h14M37 22h13M0 23h15M36 23h14M0 24h15M36 24h14M0 25h15M36 25h14M0 26h14M37 26h13M0 27h13M38 27h12M0 28h14M37 28h13M0 29h14M37 29h13M0 30h15M36 30h14M0 31h16M35 31h15M0 32h18M33 32h17M0 33h20M31 33h19M0 34h19M32 34h18M0 35h13M15 35h4M32 35h18M0 36h13M16 36h2M33 36h17M0 37h13M33 37h17M0 38h14M33 38h17M0 39h15M32 39h18M0 40h20M31 40h19M0 41h50M0 42h50M0 43h50M0 44h50M0 45h50M0 46h50M0 47h50M0 48h50M0 49h50" />
	<path stroke="#000000" d="M20 16h11M18 17h2M31 17h2M17 18h1M33 18h1M15 19h2M34 19h2M14 20h1M36 20h1M13 21h1M17 21h1M33 21h1M37 21h1M14 22h3M29 22h3M34 22h3M15 23h1M20 23h2M28 23h1M32 23h1M35 23h1M15 24h1M19 24h1M22 24h1M35 24h1M15 25h1M24 25h3M35 25h1M14 26h1M25 26h1M36 26h1M13 27h1M37 27h1M14 28h1M36 28h1M14 29h1M36 29h1M15 30h1M35 30h1M16 31h2M33 31h2M18 32h3M30 32h3M20 33h1M30 33h1M19 34h1M31 34h1M13 35h2M19 35h1M31 35h1M13 36h1M15 36h1M18 36h1M32 36h1M13 37h1M16 37h3M32 37h1M14 38h1M18 38h1M32 38h1M15 39h5M21 39h1M23 39h1M27 39h1M29 39h1M31 39h1M20 40h11" />
	<path stroke="#ebebeb" d="M20 17h11M20 18h11M19 19h13M18 20h15M18 21h15M17 22h9M27 22h2M32 22h2M16 23h4M22 23h3M26 23h2M33 23h2M16 24h3M20 24h2M23 24h1M27 24h2M32 24h3M16 25h8M27 25h2M32 25h3M15 26h3M20 26h5M26 26h5M33 26h3M14 27h23M15 28h21M15 29h21M16 30h19M18 31h15M21 32h9M21 33h9M20 34h11M20 35h11M19 36h13M19 37h13M17 38h1M19 38h13M24 39h3" />
	<path stroke="#7b7b7b" d="M18 18h2M31 18h2M17 19h2M32 19h2M15 20h3M33 20h3M14 36h1M14 37h2M15 38h2M20 39h1M22 39h1M28 39h1M30 39h1" />
	<path stroke="#ffc8ca" d="M14 21h3M34 21h3" />
	<path stroke="#939393" d="M26 22h1M25 23h1M24 24h3" />
	<path stroke="#7ecde8" d="M29 23h1M31 23h1M29 24h3" />
	<path stroke="#ffffff" d="M30 23h1" />
	<path stroke="#4cafd0" d="M29 25h3" />
	<path stroke="#ffa1a4" d="M18 26h2M31 26h2" />
</svg>