<svg height="320" shape-rendering="crispEdges" viewBox="0 0 320 320" width="320" xmlns="http://www.w3.org/2000/svg"><rect fill="#d5d7e1" height="100%" width="100%"/><g fill="#fffdf2"><path d="m90 210h140v10h-140z"/><path d="m90 220h140v10h-140z"/><path d="m90 230h140v10h-140z"/><path d="m90 240h140v10h-140z"/><path d="m90 250h20v10h-20z"/><path d="m120 250h110v10h-110z"/><path d="m90 260h20v10h-20z"/><path d="m120 260h110v10h-110z"/><path d="m90 270h20v10h-20z"/><path d="m120 270h110v10h-110z"/><path d="m90 280h20v10h-20z"/><path d="m120 280h110v10h-110z"/><path d="m90 290h20v10h-20z"/><path d="m120 290h110v10h-110z"/><path d="m90 300h20v10h-20z"/><path d="m120 300h110v10h-110z"/><path d="m90 310h20v10h-20z"/><path d="m120 310h110v10h-110z"/></g><path d="m130 230h70v10h-70z" fill="#604666"/><path d="m120 240h10v10h-10z" fill="#604666"/><path d="m200 240h10v10h-10z" fill="#604666"/><path d="m120 250h10v10h-10z" fill="#604666"/><path d="m140 250h20v10h-20z" fill="#604666"/><path d="m170 250h20v10h-20z" fill="#604666"/><path d="m200 250h10v10h-10z" fill="#604666"/><path d="m120 260h10v10h-10z" fill="#604666"/><path d="m140 260h10v10h-10z" fill="#604666"/><path d="m170 260h10v10h-10z" fill="#604666"/><path d="m200 260h10v10h-10z" fill="#604666"/><path d="m120 270h10v10h-10z" fill="#604666"/><path d="m140 270h20v10h-20z" fill="#604666"/><path d="m170 270h20v10h-20z" fill="#604666"/><path d="m200 270h10v10h-10z" fill="#604666"/><path d="m120 280h10v10h-10z" fill="#604666"/><path d="m200 280h10v10h-10z" fill="#604666"/><path d="m130 290h70v10h-70z" fill="#604666"/><path d="m90 30h30v10h-30z" fill="#fff"/><path d="m80 40h50v10h-50z" fill="#fff"/><path d="m70 50h10v10h-10z" fill="#f78a18"/><path d="m80 50h50v10h-50z" fill="#fff"/><path d="m210 50h20v10h-20z"/><path d="m240 50h20v10h-20z"/><path d="m60 60h20v10h-20z" fill="#f78a18"/><path d="m80 60h50v10h-50z" fill="#fff"/><path d="m210 60h20v10h-20z" fill="#f78a18"/><path d="m240 60h20v10h-20z" fill="#f78a18"/><path d="m50 70h40v10h-40z" fill="#f78a18"/><path d="m90 70h30v10h-30z" fill="#fff"/><path d="m210 70h60v10h-60z" fill="#f78a18"/><path d="m40 80h70v10h-70z" fill="#f78a18"/><path d="m150 80h20v10h-20z"/><path d="m170 80h60v10h-60z" fill="#f78a18"/><path d="m230 80h10v10h-10z" fill="#ae3208"/><path d="m240 80h10v10h-10z" fill="#f78a18"/><path d="m250 80h10v10h-10z" fill="#ae3208"/><path d="m260 80h20v10h-20z" fill="#f78a18"/><path d="m40 90h50v10h-50z" fill="#f78a18"/><path d="m160 90h60v10h-60z" fill="#fff"/><path d="m220 90h60v10h-60z" fill="#f78a18"/><path d="m40 100h40v10h-40z" fill="#f78a18"/><path d="m170 100h110v10h-110z" fill="#fff"/><path d="m40 110h50v10h-50z" fill="#f78a18"/><path d="m180 110h100v10h-100z" fill="#fff"/><path d="m50 120h50v10h-50z" fill="#f78a18"/><path d="m190 120h90v10h-90z" fill="#fff"/><path d="m60 130h40v10h-40z" fill="#f78a18"/><path d="m200 130h80v10h-80z" fill="#fff"/><path d="m80 140h150v10h-150z" fill="#f78a18"/><path d="m230 140h50v10h-50z" fill="#fff"/><path d="m80 150h160v10h-160z" fill="#f78a18"/><path d="m240 150h40v10h-40z" fill="#fff"/><path d="m80 160h170v10h-170z" fill="#f78a18"/><path d="m250 160h30v10h-30z" fill="#fff"/><path d="m80 170h180v10h-180z" fill="#f78a18"/><path d="m260 170h20v10h-20z" fill="#fff"/><path d="m80 180h50v10h-50z" fill="#f78a18"/><path d="m130 180h70v10h-70z" fill="#fff"/><path d="m200 180h70v10h-70z" fill="#f78a18"/><path d="m270 180h10v10h-10z" fill="#fff"/><path d="m80 190h50v10h-50z" fill="#f78a18"/><path d="m130 190h60v10h-60z"/><path d="m190 190h20v10h-20z" fill="#fff"/><path d="m210 190h60v10h-60z" fill="#f78a18"/><path d="m80 200h50v10h-50z" fill="#f78a18"/><path d="m130 200h90v10h-90z" fill="#fff"/><path d="m220 200h40v10h-40z" fill="#f78a18"/><path d="m80 210h10v10h-10z" fill="#f78a18"/><path d="m230 210h20v10h-20z" fill="#f78a18"/><path d="m50 220h40v10h-40z" fill="#f78a18"/><path d="m230 220h10v10h-10z" fill="#f78a18"/><path d="m50 230h10v10h-10z" fill="#f78a18"/><path d="m230 230h20v10h-20z" fill="#f78a18"/><path d="m50 240h10v10h-10z"/><path d="m240 240h20v10h-20z" fill="#f78a18"/><path d="m260 240h20v10h-20z"/><path d="m50 250h10v10h-10z"/><path d="m100 110h60v10h-60z" fill="#4bea69"/><path d="m170 110h60v10h-60z" fill="#4bea69"/><path d="m100 120h10v10h-10z" fill="#4bea69"/><path d="m110 120h20v10h-20z" fill="#fff"/><path d="m130 120h20v10h-20z"/><path d="m150 120h10v10h-10z" fill="#4bea69"/><path d="m170 120h10v10h-10z" fill="#4bea69"/><path d="m180 120h20v10h-20z" fill="#fff"/><path d="m200 120h20v10h-20z"/><path d="m220 120h10v10h-10z" fill="#4bea69"/><path d="m70 130h40v10h-40z" fill="#4bea69"/><path d="m110 130h20v10h-20z" fill="#fff"/><path d="m130 130h20v10h-20z"/><path d="m150 130h30v10h-30z" fill="#4bea69"/><path d="m180 130h20v10h-20z" fill="#fff"/><path d="m200 130h20v10h-20z"/><path d="m220 130h10v10h-10z" fill="#4bea69"/><path d="m70 140h10v10h-10z" fill="#4bea69"/><path d="m100 140h10v10h-10z" fill="#4bea69"/><path d="m110 140h20v10h-20z" fill="#fff"/><path d="m130 140h20v10h-20z"/><path d="m150 140h10v10h-10z" fill="#4bea69"/><path d="m170 140h10v10h-10z" fill="#4bea69"/><path d="m180 140h20v10h-20z" fill="#fff"/><path d="m200 140h20v10h-20z"/><path d="m220 140h10v10h-10z" fill="#4bea69"/><path d="m70 150h10v10h-10z" fill="#4bea69"/><path d="m100 150h10v10h-10z" fill="#4bea69"/><path d="m110 150h20v10h-20z" fill="#fff"/><path d="m130 150h20v10h-20z"/><path d="m150 150h10v10h-10z" fill="#4bea69"/><path d="m170 150h10v10h-10z" fill="#4bea69"/><path d="m180 150h20v10h-20z" fill="#fff"/><path d="m200 150h20v10h-20z"/><path d="m220 150h10v10h-10z" fill="#4bea69"/><path d="m100 160h60v10h-60z" fill="#4bea69"/><path d="m170 160h60v10h-60z" fill="#4bea69"/></svg>