<svg xmlns="http://www.w3.org/2000/svg" viewBox="0 -0.5 50 50" shape-rendering="crispEdges">
	<title>Bitcoin Pussies #042</title>
	<desc>Bitcoin Pussies are 69 uniquely drawn and inscribed cats on Bitcoin</desc>
	<desc xmlns:meow="https://bitcoinpussies.com/">
		<meow:traits>
			<meow:Skin>Orange, White</meow:Skin>
			<meow:Eyes>Tired</meow:Eyes>
			<meow:Gear>Cowboy hat, wild rag and a sheriff badge</meow:Gear>
			<meow:Message>This paw is the law</meow:Message>
		</meow:traits>
	</desc>
	<path stroke="#f9bd6e" d="M0 0h50M0 1h50M0 2h50M0 3h50M0 4h50M0 5h50M0 6h50M0 7h50M0 8h50M0 9h50M0 10h50M0 11h50M0 12h22M25 12h1M29 12h21M0 13h21M30 13h20M0 14h20M31 14h19M0 15h19M32 15h18M0 16h19M32 16h18M0 17h16M35 17h15M0 18h12M39 18h11M0 19h11M40 19h10M0 20h11M40 20h10M0 21h12M39 21h11M0 22h13M38 22h12M0 23h15M36 23h14M0 24h16M35 24h15M0 25h15M36 25h14M0 26h15M36 26h14M0 27h15M36 27h14M0 28h15M36 28h14M0 29h15M36 29h14M0 30h16M35 30h15M0 31h16M35 31h15M0 32h17M34 32h16M0 33h19M32 33h18M0 34h19M32 34h18M0 35h18M33 35h17M0 36h14M17 36h1M33 36h17M0 37h13M33 37h17M0 38h13M32 38h18M0 39h14M18 39h2M31 39h19M0 40h50M0 41h50M0 42h50M0 43h50M0 44h50M0 45h50M0 46h50M0 47h50M0 48h50M0 49h50" />
	<path stroke="#3e2418" d="M22 12h3M26 12h3M21 13h1M25 13h1M29 13h1M20 14h1M30 14h1M19 15h1M31 15h1M19 16h1M31 16h1M18 17h1M32 17h1M12 18h7M32 18h7M11 19h1M18 19h1M32 19h1M39 19h1M11 20h1M39 20h1M12 21h1M38 21h1M13 22h4M34 22h4M17 23h17" />
	<path stroke="#9f6835" d="M22 13h1M21 14h1M20 15h2M20 16h2M19 17h2M19 18h2M12 19h6M13 20h8M17 21h2" />
	<path stroke="#936031" d="M23 13h1M22 14h4M22 15h5M22 16h3M26 16h2M21 17h4M26 17h3M21 18h2M28 18h1M21 20h4M26 20h3M19 21h12" />
	<path stroke="#774026" d="M24 13h1M27 13h2M28 14h2M29 15h2M12 20h1M38 20h1M13 21h4M34 21h4M17 22h17" />
	<path stroke="#85562a" d="M26 13h1M26 14h2M27 15h2M28 16h3M29 17h3M29 18h3M33 19h6M29 20h9M31 21h3" />
	<path stroke="#cdc3be" d="M25 16h1M25 17h1M23 18h5M25 19h1M25 20h1" />
	<path stroke="#000000" d="M16 17h2M33 17h2M19 19h6M26 19h6M15 23h2M34 23h2M16 24h1M34 24h1M15 25h1M19 25h4M28 25h4M35 25h1M15 26h1M19 26h2M28 26h2M35 26h1M15 27h1M24 27h3M35 27h1M15 28h1M25 28h1M35 28h1M15 29h1M35 29h1M16 30h1M34 30h1M16 31h1M34 31h1M17 32h2M32 32h2M19 33h2M30 33h2M19 34h1M31 34h1M18 35h1M32 35h1M14 36h3M18 36h1M32 36h1M13 37h1M17 37h2M22 37h2M27 37h2M32 37h1M13 38h1M18 38h2M24 38h1M26 38h1M31 38h1M14 39h4M20 39h11" />
	<path stroke="#ffffff" d="M17 24h8M16 25h3M23 25h2M16 26h3M21 26h3M17 27h6M17 28h1M20 28h2M18 29h3M31 35h1M29 36h3M29 37h3M22 38h2M27 38h4" />
	<path stroke="#fe9033" d="M25 24h9M25 25h3M32 25h3M24 26h4M30 26h5M16 27h1M23 27h1M27 27h8M16 28h1M22 28h3M26 28h5M33 28h2M16 29h2M21 29h14M17 30h17M17 31h17M19 32h13M20 34h2M30 34h1M19 35h4M27 35h1M29 35h2M19 36h5M26 36h3M14 37h1M19 37h3M24 37h3M14 38h3M20 38h2M25 38h1" />
	<path stroke="#ffb5a0" d="M18 28h2M31 28h2" />
	<path stroke="#bc331d" d="M21 33h2M22 34h2M23 35h1" />
	<path stroke="#a42008" d="M23 33h3M24 34h2M24 35h1M24 36h1" />
	<path stroke="#911702" d="M26 33h2M29 33h1M26 34h1M25 35h2M25 36h1" />
	<path stroke="#ffab00" d="M28 33h1M29 34h1" />
	<path stroke="#ffba00" d="M27 34h1M28 35h1" />
	<path stroke="#ffc441" d="M28 34h1" />
	<path stroke="#ef8e3f" d="M15 37h2M17 38h1" />
</svg>