<svg width="495" height="494" viewBox="0 0 495 494" xmlns="http://www.w3.org/2000/svg" xmlns:xlink="http://www.w3.org/1999/xlink" xml:space="preserve" overflow="hidden"><defs><clipPath id="clip0"><rect x="219" y="1804" width="495" height="494"/></clipPath></defs><g clip-path="url(#clip0)" transform="translate(-219 -1804)"><path d="M309.5 1903.67C309.5 1885.35 324.349 1870.5 342.667 1870.5L587.333 1870.5C605.651 1870.5 620.5 1885.35 620.5 1903.67L620.5 2036.33C620.5 2054.65 605.651 2069.5 587.333 2069.5L342.667 2069.5C324.349 2069.5 309.5 2054.65 309.5 2036.33Z" stroke="#000000" stroke-width="4.58333" stroke-miterlimit="8" fill="#FFFFFF" fill-rule="evenodd"/><text fill="#0070C0" font-family="Calibri,Calibri_MSFontService,sans-serif" font-weight="400" font-size="46" transform="matrix(1 0 0 1 347.339 1932)">TUEN LONG</text><text fill="#C00000" font-family="DFKai-SB,DFKai-SB_MSFontService,sans-serif" font-weight="700" font-size="110" transform="matrix(1 0 0 1 323.881 2025)">元</text><text fill="#C00000" font-family="DFKai-SB,DFKai-SB_MSFontService,sans-serif" font-weight="700" font-size="110" transform="matrix(1 0 0 1 488.881 2025)">朗</text><text fill="#0070C0" font-family="DFKai-SB,DFKai-SB_MSFontService,sans-serif" font-weight="700" font-size="55" transform="matrix(1 0 0 1 438.652 2036)">門</text><text fill="#0070C0" font-family="DFKai-SB,DFKai-SB_MSFontService,sans-serif" font-weight="700" font-size="55" transform="matrix(1 0 0 1 436.997 1986)">屯</text><text font-family="PMingLiU,PMingLiU_MSFontService,sans-serif" font-weight="400" font-size="83" transform="matrix(1 0 0 1 423.766 2203)">🚍</text><rect x="219.5" y="1804.5" width="494" height="493" stroke="#000000" stroke-width="1.14583" stroke-miterlimit="8" stroke-opacity="0.0196078" fill="none"/></g></svg>