<svg version="1.1" id="レイヤー_2" xmlns="http://www.w3.org/2000/svg" x="0" y="0" viewBox="0 0 500 500" style="enable-background:new 0 0 500 500" xml:space="preserve"><style>.st1{fill:#c9ccd6}.st2{stroke-width:1.3;stroke-linecap:round;stroke-linejoin:round}.st2,.st3{fill:none;stroke:#000;stroke-miterlimit:10}</style><path style="fill:#fff" d="M0 0h500v500H0z"/><path class="st1" d="M361.5 428.6c-53.6-19.9-99.9-58.8-128.9-108-15.4-26.2-27-55.2-35.7-84.4-2.4-7.9-9.4-27.5-9.5-27.9-6.4-1.6-33.7-18.5-38.9-22 3.6 21.2-4.8 40.9-15.9 59.3-11.1 18.4-24.8 35.6-32.6 55.6-4.7 12.1-7.2 25.9-2.9 38.2 3.4 9.7 10.5 17.6 16.8 25.7s12.1 17.6 11.9 27.9c-.1 3.2-.7 6.5.2 9.6s4.2 5.8 7.2 4.6c2.7-1.1 3.4-4.6 3.5-7.5.2-16.3-9-31-17.1-45.1-8.1-14.1-15.8-30.2-12.2-46.1 2.3-10.4 9.2-19.1 15.4-27.9 13.7-19.4 24.7-40.7 33.5-63.6-5 46.2-.6 91.5 12.6 136.1 8.1 27.6 23.7 57.7 46.3 75.6 6.4 5.1 13.8 9.2 21.9 9.9 2.5.2 5.5-.2 6.5-2.5 1.2-2.9-2-5.6-4.6-7.2-29.3-18.4-49.4-49.2-60.1-82.1-10.6-32.9-12.1-119.4-11.7-120.4 8.3 38.8 23 92.7 40 128.6 10.8 22.9 23.7 45.6 42.8 62.2s45.5 26.8 70.2 21.2c1-.2 2-.5 2.7-1.3 1.4-1.5.4-4.2-1.4-5.3s-4-1-6.1-1c-24.6.2-48.2-12.2-65.5-29.6-17.4-17.4-29.3-39.6-39.2-62.1-13.6-30.9-23.2-66.8-29.6-100.6 19.6 42.2 39 88.3 68.2 124.5 29.1 36.3 68.5 66.3 114.1 75.3 1.1.2 2.3.4 3.3 0 2.2-.9 2.4-4.1 1-6s-4-2.8-6.2-3.7zM324.6 166.5c8.8-5 18.1-9.9 28.2-10.8s21.3 3.2 26 12.2c1.2 2.2 1.9 4.7 3.7 6.5 1.7 1.8 5 2.5 6.7.7 1.5-1.6 1-4.2.2-6.3-4.8-12.4-17.1-21.5-30.3-22.5-11.2-.9-22.1 3.6-32.5 7.9-14.2 6-28.5 11.9-42.7 17.9 3.7 1.9 8.4 4.4 13.1 6.9 9.9-2.1 18.8-7.5 27.6-12.5zM412.3 233.6c-2.4-7.5-8.9-13-15.8-16.7-13.2-7.2-28.7-9.2-43.7-8-15 1.2-26.9 3.9-41.2 8.6 6 1 15.8 9.6 26.4 9.5 4.4-.1 8.6-1.7 12.9-2.9 7.6-2.2 15.7-3 23.4-1.4 7.7 1.6 15.1 5.8 19.6 12.3 1.9 2.6 3.2 5.6 5.4 8 2.2 2.4 5.6 4.1 8.6 3.1 4.9-1.4 6-7.8 4.4-12.5zM341.8 338.2s-11.5 7.5-11.7 7.7c17.8 22.2 30.3 44.6 40.8 71.1.8 1.9 1.5 3.9 2.9 5.4 1.3 1.5 3.4 2.6 5.4 2.2 2.5-.5 4-3.3 4.1-5.8 0-2.6-1-5-2.1-7.3-12-25.8-23.7-49.6-39.4-73.3z"/><path class="st1" d="M350.3 415.3c2.6 2.1 6.6 4.2 9 1.9 1.4-1.3 1.5-3.6.7-5.3s-2.1-3.1-3.5-4.5c-5.2-5.1-10.5-10.2-15.7-15.3-20-19.5-39.9-38.7-55.5-61.9-.5.2-8.5 3.8-10.8 4.9 21.3 29.7 47.3 57.2 75.8 80.2zM123.6 132.1c4 6.7 8.8 13.1 11.1 20.5 1.3 4.4 1.7 9.1 3.5 13.3 3 7 9.3 11 16.6 13 6 1.6 16.5 8.8 29.2 15.3.4-7.2-2.3-13.4-4.7-20.6-2.9-8.7-1.1-19.3 4.4-26.6 5.5-7.3 13.8-11.4 23-11.1-16.2-18-11.8-46.8-27-65.1-8.1-9.6-21.1-14.8-33.6-13.3s-23.9 9.7-29.4 21c-4.1 8.4-4.9 18.3-3.3 27.5 1.4 9.3 5.3 18.1 10.2 26.1zm27.4 35.1c-2 1.2-4.6.6-6.1-1.3l8.3-3.3c.2 1.8-.6 3.7-2.2 4.6zm-4.9-8.5c2-1.2 4.6-.6 6.1 1.3l-8.3 3.2c-.2-1.8.6-3.6 2.2-4.5z"/><path class="st2" d="M187.2 143c-5.7 5.7-8.5 12.9-8.9 20.9-.4 8 2.2 16.2 7.2 22.5M155.6 178.9c8.9 4.9 17.9 9.8 26.8 14.8M135.8 175.5c15.6 11.4 32 21.7 49 30.9M192.7 178.5c2 7.4 9.5 12.1 17 14 7.4 2 15.3 2.1 22.6 4.4 7.3 2.3 16.2 6.4 17.2 14M194.4 138.9c6-4.1 14.5-3.6 20.9-.2 9.5 5 13.8 16.6 22.7 22.7 7.9 5.4 18.1 5.5 27.6 6.8 9.1 1.2 18.1 3.8 26.1 8.2 8 4.4 15.1 10.9 19.5 18.9"/><path class="st2" d="M242.6 170.9c6.8 3.3 14.3 4.5 21.7 5.7s15 2.4 21.7 5.7c6.7 3.3 12.7 9.1 14.2 16.5"/><path class="st2" d="M257 181c7.7 1.4 18.5 4.6 24.7 7.3 6.2 2.8 10 7.8 12.6 14M232.5 173.1c11.6 15 31.6 8.8 43.3 29.3"/><path d="M185 184.6c.4 22.7 10.7 43.9 20.7 64.1 12.5 25.2 25.6 50.1 38.4 75.1 2.9 5.6 6.2 11.6 12 13.9 6.4 2.5 13.6-.3 19.9-3.2 6.1-2.7 12.2-5.5 18.2-8.2 1.5-.7 3.1-1.4 4.7-1.1 3.2.4 5 4.3 4.4 7.4s-2.6 5.8-4.5 8.5c-1.8 2.6-3.6 5.7-3.3 8.9.5 5.2 6.3 8.5 11.5 8.1s9.8-3.3 14.1-6.1c26.3-17.2 52.7-34.5 78.3-51.4 11.4-6.7 22.8-13.5 34.2-20.2 1.2-.7 2.5-1.8 2.2-3.1-.2-1.2-1.6-1.7-2.7-2-4.9-1.2-10.1-1.5-15.1-.8-2.3.3-4.7.8-7 .5-2.3-.3-4.7-1.7-5.3-4-.7-2.4.6-4.9 2.3-6.8 2.3-2.6 6.4-5.2.6-8.3-14.8-7.8-91.2-33.8-133.7-54.8.3 2.7.2 5.7-.6 8.3s-3.1 5.8-5.8 5.8c-2.3 0-2.8-2.9-3.8-5s-2-7.3-3.3-7.1c-1.3.2 3.1 10.3.1 12.4-1 .7-1.2-3.2-2.4-3.4-1.2-.2-2.9 6.2-3.7 6.1-.9-.1-.7-6.4-1.5-5.8-.9 1.8-.7 3.8-1 5.8-.4 2.6-1.5 5.4-2.9 5.4-1.7 0-2-2.5-2.4-3.5-2.8-7.7-4.4-10.7-9.7-14.4s-11.9-5.3-18.3-6.4c-6.4-1-13-1.6-19.2-3.4-6.3-2.1-12.3-5.5-15.4-11.3z"/><path class="st2" d="M354.3 333.4c14.1 10.3 34 35.4 35.3 33.5 1.4-1.9-3.5-7.9-7.1-11.5M359.1 326.7c5.8 6 11 12.2 15.9 19 5.4.4 7.5 3.3 7.5 5M370.2 320c5.8 6.2 11.3 12.7 16.2 19.6M376.3 314.9c4.1 9 6.5 16.9 15.5 21.1 1.1.5 4 2.3 4.3 3.6.2.8-.7 2.6-1.2 3.2-.7 1 .8 3.2 1.6 5.2s1.9 3.9 2.7 5.9"/><path class="st3" d="M413.6 405.7c-1.3-.7-2.6-1.6-2.9-3-.3-1.6 1.3-3.2 2.9-3 1.6.2 2.8 2 2.4 3.5-.2 1.7-1.9 2.8-2.4 2.5z"/><path class="st2" d="M330.5 203.3c-.8-.8-1.2-2-.7-3 .7-1.4 2.8-1.5 4.2-.7 1.1.6 1.9 1.6 2.2 2.7s-.2 2.5-1.3 3.1c-1.1.6-3.7-1.4-4.4-2.1zM340.9 156.6c-1.5-1.8-2.4-4.1-3.1-6.3-.7-2.2-.9-4.7 0-6.9s2.9-4 5.3-4.1c2.4-.1 4.6 1.4 6.2 3.3 1.9 2.3 3.2 5.3 3 8.3-.2 3-.9 6.2-3.7 7.3-2.8 1-6.3.1-7.7-1.6zM285.6 139.5c-.5-1.3-.3-3.1.9-3.9 1.1-.7 2.7-.3 3.8.4 1.5.9 2.7 2.4 2.9 4.1s-.7 3-2.4 3.5c-1.6.6-4.7-2.7-5.2-4.1z"/><path class="st3" d="M228.8 78.2c1.6.4 3.4-1.1 3.2-2.7s-2.1-2.8-3.6-2.1c-1.5.6-2.5 4 .4 4.8z"/><path class="st2" d="M128.7 212.8c.5-1 1.9-1.5 3-1.2s2 1.3 2.3 2.4c.4 1.3.2 3.1-1 3.6-3.5 1.2-5.2-3-4.3-4.8zM154.9 266c1.6 1.3 4.5.5 5.1-1.5s-1.2-4.3-3.3-4.1c-2.1.1-4.4 3.4-1.8 5.6zM188.5 363.8c-2.4-2.8-4.4-6.1-5-9.7s.4-7.7 3.2-10.1c3.6-3 8.8-2.7 13.4-1.8 5.6 1 11.8 2.8 14.6 7.8 2.1 3.7 1.7 8.5-.6 12s-6.2 5.9-10.3 6.7c-6 1.2-12.4-1.3-15.3-4.9z"/><path class="st2" d="M195.7 342.9c.1 1.8 1 3.7 2.5 4.7 1.6 1 3.8 1 5.1-.4 1.7-1.7 1.3-4.5.3-6.7-.7-1.7-2.4-4.4-4.2-4.6-4.7-.4-3.8 5.2-3.7 7z"/></svg>