<svg xmlns="http://www.w3.org/2000/svg" viewBox="0 -0.5 50 50" shape-rendering="crispEdges">
	<title>Bitcoin Pussies #066</title>
	<desc>Bitcoin Pussies are 69 uniquely drawn and inscribed cats on Bitcoin</desc>
	<desc xmlns:meow="https://bitcoinpussies.com/">
		<meow:traits>
			<meow:Skin>Lightgrey, White (Shiny)</meow:Skin>
			<meow:Eyes>Open</meow:Eyes>
			<meow:Gear>Octopus costume</meow:Gear>
			<meow:Message>Octopussy cat</meow:Message>
		</meow:traits>
	</desc>
	<path stroke="#3a9bfd" d="M0 0h50M0 1h50M0 2h13M14 2h34M0 3h47M48 3h2M0 4h46M47 4h3M0 5h5M6 5h27M34 5h12M47 5h3M0 6h47M48 6h2M0 7h21M23 7h25M0 8h20M21 8h2M24 8h6M31 8h19M0 9h20M21 9h2M24 9h26M0 10h6M8 10h13M23 10h27M0 11h5M6 11h2M9 11h41M0 12h4M5 12h4M10 12h27M38 12h12M0 13h4M5 13h4M10 13h40M0 14h5M6 14h2M9 14h12M23 14h5M30 14h20M0 15h6M8 15h8M19 15h1M24 15h3M31 15h1M35 15h15M0 16h15M36 16h14M0 17h15M36 17h14M0 18h15M36 18h14M0 19h15M36 19h14M0 20h15M36 20h6M43 20h7M0 21h15M36 21h5M42 21h1M44 21h6M0 22h15M36 22h6M43 22h7M0 23h14M37 23h13M0 24h4M5 24h9M37 24h13M0 25h14M37 25h2M40 25h10M0 26h14M37 26h1M40 26h3M44 26h1M46 26h2M49 26h1M0 27h14M37 27h1M41 27h1M45 27h2M49 27h1M0 28h3M5 28h7M13 28h2M37 28h2M45 28h1M48 28h2M0 29h1M2 29h2M6 29h1M8 29h4M13 29h3M35 29h1M38 29h1M45 29h1M48 29h2M1 30h1M3 30h1M11 30h1M14 30h2M35 30h2M38 30h2M42 30h1M48 30h2M0 31h1M2 31h2M10 31h2M38 31h1M48 31h2M0 32h5M6 32h1M10 32h1M40 32h1M45 32h1M47 32h3M0 33h5M18 33h1M32 33h1M39 33h1M43 33h1M47 33h3M0 34h6M9 34h1M11 34h1M18 34h1M32 34h1M39 34h1M0 35h6M11 35h2M33 35h2M0 36h4M8 36h1M11 36h1M13 36h3M33 36h3M0 37h3M9 37h1M13 37h4M33 37h5M0 38h2M8 38h1M11 38h7M32 38h6M0 39h2M8 39h1M11 39h9M31 39h7M0 40h3M9 40h1M11 40h7M33 40h4M0 41h2M9 41h10M32 41h8M0 42h3M8 42h13M30 42h20M0 43h50M0 44h50M0 45h50M0 46h50M0 47h50M0 48h50M0 49h50" />
	<path stroke="#ffffff" d="M13 2h1M48 2h2M47 3h1M46 4h1M46 5h1M47 6h1M48 7h2M30 8h1M6 10h2M5 11h1M8 11h1M4 12h1M9 12h1M4 13h1M9 13h1M5 14h1M8 14h1M6 15h2M21 15h2M28 15h2M21 16h2M28 16h2M42 20h1M41 21h1M43 21h1M42 22h1M24 24h3M23 25h5M22 26h2M25 26h1M27 26h2M21 27h4M26 27h4M20 28h11M1 29h1M21 29h9M0 30h1M2 30h1M10 30h1M1 31h1M25 33h1M25 34h1M46 34h1M23 35h4M22 36h6M21 37h9M22 38h1M24 38h3M28 38h1" />
	<path stroke="#0d74d0" d="M5 5h1M33 5h1M21 7h2M20 8h1M23 8h1M20 9h1M23 9h1M21 10h2M37 12h1M4 24h1M45 26h1M7 37h2M6 38h1M9 38h1M6 39h1M9 39h1M7 40h2" />
	<path stroke="#000000" d="M21 14h2M28 14h2M16 15h3M20 15h1M23 15h1M27 15h1M30 15h1M32 15h3M15 16h1M19 16h2M23 16h5M30 16h2M35 16h1M15 17h1M19 17h1M21 17h2M28 17h2M31 17h1M35 17h1M15 18h1M18 18h1M32 18h1M35 18h1M15 19h1M17 19h1M33 19h1M35 19h1M15 20h2M21 20h9M34 20h2M15 21h2M20 21h1M30 21h1M34 21h2M15 22h1M19 22h1M31 22h1M35 22h1M14 23h2M18 23h1M20 23h2M29 23h2M32 23h1M35 23h2M14 24h1M17 24h1M20 24h2M29 24h2M33 24h1M36 24h1M14 25h1M17 25h1M33 25h1M36 25h1M14 26h1M17 26h1M24 26h1M26 26h1M33 26h1M36 26h1M14 27h1M17 27h2M25 27h1M32 27h2M36 27h1M15 28h1M19 28h1M31 28h1M35 28h1M16 29h1M20 29h1M30 29h1M34 29h1M16 30h1M21 30h9M34 30h1M14 31h2M19 31h2M30 31h2M35 31h2M13 32h1M17 32h17M37 32h1M13 33h1M17 33h1M19 33h2M24 33h1M26 33h1M30 33h2M33 33h1M37 33h1M12 34h1M16 34h2M19 34h2M23 34h2M26 34h2M31 34h1M33 34h2M38 34h1M13 35h3M18 35h2M22 35h1M27 35h1M31 35h2M35 35h3M16 36h1M18 36h2M21 36h1M28 36h2M31 36h2M17 37h2M20 37h1M30 37h1M32 37h1M18 38h2M21 38h1M23 38h1M27 38h1M29 38h1M31 38h1M20 39h11" />
	<path stroke="#acacac" d="M16 16h3M32 16h3M16 17h1M34 17h1M16 18h1M34 18h1M16 19h1M34 19h1M21 21h9M22 22h7M23 23h5M18 24h1M23 24h1M27 24h1M32 24h1M22 25h1M28 25h1M18 26h4M29 26h4M19 27h2M30 27h2M16 35h2M17 36h1M19 37h1M31 37h1M20 38h1M30 38h1" />
	<path stroke="#f7baa7" d="M17 17h2M32 17h2M17 18h1M33 18h1" />
	<path stroke="#f95229" d="M20 17h1M23 17h1M27 17h1M30 17h1M19 18h5M25 18h1M27 18h5M18 19h6M27 19h6M17 20h4M30 20h4M17 21h3M31 21h3M16 22h3M32 22h3M16 23h2M33 23h2M15 24h2M34 24h2M15 25h2M34 25h2M15 26h2M34 26h2M15 27h2M34 27h2M16 28h3M32 28h3M17 29h3M31 29h3M17 30h4M30 30h4M16 31h3M21 31h9M32 31h3M14 32h2M35 32h2M14 33h3M21 33h3M27 33h3M34 33h3M13 34h1M15 34h1M21 34h1M29 34h2M35 34h1M37 34h1M20 35h1M28 35h1M30 35h1M20 36h1M30 36h1" />
	<path stroke="#fec4b6" d="M24 17h3M24 18h1M26 18h1M24 19h3" />
	<path stroke="#7bcdff" d="M20 22h2M29 22h2M19 23h1M22 23h1M28 23h1M31 23h1M19 24h1M22 24h1M28 24h1M31 24h1M20 25h2M29 25h2" />
	<path stroke="#f1cec7" d="M18 25h2M31 25h2" />
	<path stroke="#b7f9a0" d="M39 25h1M38 26h2M43 26h1M38 27h1M42 27h2M3 28h2M42 28h1M46 28h1M42 29h1M8 30h1M45 30h1M45 31h1M41 32h1M41 33h1M7 34h2" />
	<path stroke="#64bd42" d="M48 26h1M40 27h1M44 27h1M48 27h1M40 28h1M44 28h1M5 29h1M40 29h1M44 29h1M47 29h1M5 30h1M9 30h1M41 30h1M44 30h1M47 30h1M5 31h1M9 31h1M47 31h1M9 32h1M6 33h1M46 33h1M43 34h1M45 34h1M7 35h1M43 35h2M7 36h1M44 36h1" />
	<path stroke="#96ea76" d="M39 27h1M47 27h1M39 28h1M43 28h1M47 28h1M4 29h1M39 29h1M43 29h1M46 29h1M4 30h1M40 30h1M43 30h1M46 30h1M4 31h1M8 31h1M40 31h5M46 31h1M5 32h1M8 32h1M42 32h3M46 32h1M5 33h1M8 33h2M42 33h1M44 33h2M6 34h1M42 34h1M44 34h1M6 35h1M6 36h1" />
	<path stroke="#c74f7a" d="M12 28h1M36 28h1M41 28h1M36 29h1M6 30h1M13 30h1M7 31h1M13 31h1M7 32h1M38 33h1M10 34h1M40 34h2M10 35h1M12 36h1M36 36h2M12 37h1" />
	<path stroke="#f78fb3" d="M7 29h1M12 29h1M37 29h1M41 29h1M7 30h1M12 30h1M37 30h1M6 31h1M12 31h1M37 31h1M39 31h1M11 32h2M38 32h2M7 33h1M10 33h3M40 33h1M8 35h2M38 35h2M9 36h2M38 36h1M10 37h2M10 38h1M10 39h1M38 39h1M10 40h1" />
	<path stroke="#fcc5ba" d="M16 32h1M34 32h1M14 34h1M22 34h1M28 34h1M36 34h1M21 35h1M29 35h1" />
	<path stroke="#764f22" d="M47 34h3M40 35h3M45 35h1M4 36h2M39 36h1M43 36h1M45 36h1M3 37h1M6 37h1M38 37h1M44 37h1M2 38h1M7 38h1M38 38h1M45 38h1M2 39h1M7 39h1M39 39h11M3 40h4" />
	<path stroke="#ad875a" d="M46 35h2M40 36h1M46 36h1M39 37h2M45 37h2M3 38h1M39 38h1M46 38h1M3 39h1" />
	<path stroke="#9c754a" d="M48 35h1M41 36h2M47 36h2M4 37h1M41 37h2M47 37h2M4 38h1M40 38h3M47 38h2M4 39h2" />
	<path stroke="#906b40" d="M49 35h1M49 36h1M5 37h1M43 37h1M49 37h1M5 38h1M43 38h2M49 38h1" />
	<path stroke="#3384d6" d="M18 40h15M37 40h13M2 41h7M19 41h13M40 41h10M3 42h5M21 42h9" />
</svg>