<svg height="320" shape-rendering="crispEdges" viewBox="0 0 320 320" width="320" xmlns="http://www.w3.org/2000/svg"><rect fill="#e1d7d5" height="100%" width="100%"/><g fill="#5a65fa"><path d="m90 210h140v10h-140z"/><path d="m90 220h140v10h-140z"/><path d="m90 230h140v10h-140z"/><path d="m90 240h140v10h-140z"/><path d="m90 250h20v10h-20z"/><path d="m120 250h110v10h-110z"/><path d="m90 260h20v10h-20z"/><path d="m120 260h110v10h-110z"/><path d="m90 270h20v10h-20z"/><path d="m120 270h110v10h-110z"/><path d="m90 280h20v10h-20z"/><path d="m120 280h110v10h-110z"/><path d="m90 290h20v10h-20z"/><path d="m120 290h110v10h-110z"/><path d="m90 300h20v10h-20z"/><path d="m120 300h110v10h-110z"/><path d="m90 310h20v10h-20z"/><path d="m120 310h110v10h-110z"/></g><path d="m110 210h10v10h-10z" fill="#068940"/><path d="m140 210h10v10h-10z" fill="#068940"/><path d="m170 210h10v10h-10z" fill="#068940"/><path d="m200 210h10v10h-10z" fill="#068940"/><path d="m90 220h10v10h-10z" fill="#0b5027"/><path d="m120 220h10v10h-10z" fill="#0b5027"/><path d="m150 220h10v10h-10z" fill="#0b5027"/><path d="m180 220h10v10h-10z" fill="#0b5027"/><path d="m210 220h10v10h-10z" fill="#0b5027"/><path d="m100 230h10v10h-10z" fill="#068940"/><path d="m130 230h10v10h-10z" fill="#068940"/><path d="m160 230h10v10h-10z" fill="#068940"/><path d="m190 230h10v10h-10z" fill="#068940"/><path d="m220 230h10v10h-10z" fill="#068940"/><path d="m110 240h10v10h-10z" fill="#0b5027"/><path d="m140 240h10v10h-10z" fill="#0b5027"/><path d="m170 240h10v10h-10z" fill="#0b5027"/><path d="m200 240h10v10h-10z" fill="#0b5027"/><path d="m90 250h10v10h-10z" fill="#068940"/><path d="m120 250h10v10h-10z" fill="#068940"/><path d="m150 250h10v10h-10z" fill="#068940"/><path d="m180 250h10v10h-10z" fill="#068940"/><path d="m210 250h10v10h-10z" fill="#068940"/><path d="m100 260h10v10h-10z" fill="#0b5027"/><path d="m130 260h10v10h-10z" fill="#0b5027"/><path d="m160 260h10v10h-10z" fill="#0b5027"/><path d="m190 260h10v10h-10z" fill="#0b5027"/><path d="m220 260h10v10h-10z" fill="#0b5027"/><path d="m140 270h10v10h-10z" fill="#068940"/><path d="m170 270h10v10h-10z" fill="#068940"/><path d="m200 270h10v10h-10z" fill="#068940"/><path d="m90 280h10v10h-10z" fill="#0b5027"/><path d="m120 280h10v10h-10z" fill="#0b5027"/><path d="m150 280h10v10h-10z" fill="#0b5027"/><path d="m180 280h10v10h-10z" fill="#0b5027"/><path d="m210 280h10v10h-10z" fill="#0b5027"/><path d="m100 290h10v10h-10z" fill="#068940"/><path d="m130 290h10v10h-10z" fill="#068940"/><path d="m160 290h10v10h-10z" fill="#068940"/><path d="m190 290h10v10h-10z" fill="#068940"/><path d="m220 290h10v10h-10z" fill="#068940"/><path d="m140 300h10v10h-10z" fill="#0b5027"/><path d="m170 300h10v10h-10z" fill="#0b5027"/><path d="m200 300h10v10h-10z" fill="#0b5027"/><path d="m90 310h10v10h-10z" fill="#068940"/><path d="m120 310h10v10h-10z" fill="#068940"/><path d="m150 310h10v10h-10z" fill="#068940"/><path d="m180 310h10v10h-10z" fill="#068940"/><path d="m210 310h10v10h-10z" fill="#068940"/><path d="m50 60h90v10h-90z" fill="#fd8b5b"/><path d="m50 70h90v10h-90z" fill="#a86f60"/><path d="m50 80h90v10h-90z" fill="#a86f60"/><path d="m60 90h30v10h-30z" fill="#5a423f"/><path d="m90 90h40v10h-40z" fill="#a86f60"/><path d="m60 100h30v10h-30z" fill="#5a423f"/><path d="m90 100h40v10h-40z" fill="#a86f60"/><path d="m60 110h30v10h-30z" fill="#5a423f"/><path d="m90 110h40v10h-40z" fill="#a86f60"/><path d="m60 120h30v10h-30z" fill="#5a423f"/><path d="m90 120h40v10h-40z" fill="#a86f60"/><path d="m60 130h30v10h-30z" fill="#5a423f"/><path d="m90 130h40v10h-40z" fill="#a86f60"/><path d="m250 130h30v10h-30z" fill="#fd8b5b"/><path d="m60 140h30v10h-30z" fill="#5a423f"/><path d="m90 140h40v10h-40z" fill="#a86f60"/><path d="m130 140h120v10h-120z" fill="#fd8b5b"/><path d="m250 140h30v10h-30z" fill="#a86f60"/><path d="m60 150h30v10h-30z" fill="#5a423f"/><path d="m90 150h190v10h-190z" fill="#a86f60"/><path d="m60 160h30v10h-30z" fill="#5a423f"/><path d="m90 160h190v10h-190z" fill="#a86f60"/><path d="m60 170h40v10h-40z" fill="#5a423f"/><path d="m100 170h180v10h-180z" fill="#a86f60"/><path d="m60 180h60v10h-60z" fill="#5a423f"/><path d="m120 180h10v10h-10z"/><path d="m130 180h10v10h-10z" fill="#fff"/><path d="m140 180h10v10h-10z"/><path d="m150 180h10v10h-10z" fill="#fff"/><path d="m160 180h10v10h-10z"/><path d="m170 180h80v10h-80z" fill="#5a423f"/><path d="m250 180h30v10h-30z" fill="#a86f60"/><path d="m70 190h210v10h-210z" fill="#5a423f"/><path d="m80 200h200v10h-200z" fill="#5a423f"/><path d="m250 210h30v10h-30z" fill="#5a423f"/><path d="m100 110h60v10h-60z" fill="#068940"/><path d="m170 110h60v10h-60z" fill="#257ced"/><path d="m100 120h10v10h-10z" fill="#068940"/><path d="m110 120h20v10h-20z" fill="#fff"/><path d="m130 120h20v10h-20z"/><path d="m150 120h10v10h-10z" fill="#068940"/><path d="m170 120h10v10h-10z" fill="#257ced"/><path d="m180 120h20v10h-20z" fill="#fff"/><path d="m200 120h20v10h-20z"/><path d="m220 120h10v10h-10z" fill="#257ced"/><path d="m70 130h30v10h-30z" fill="#257ced"/><path d="m100 130h10v10h-10z" fill="#068940"/><path d="m110 130h20v10h-20z" fill="#fff"/><path d="m130 130h20v10h-20z"/><path d="m150 130h10v10h-10z" fill="#068940"/><path d="m160 130h20v10h-20z" fill="#257ced"/><path d="m180 130h20v10h-20z" fill="#fff"/><path d="m200 130h20v10h-20z"/><path d="m220 130h10v10h-10z" fill="#257ced"/><path d="m70 140h10v10h-10z" fill="#257ced"/><path d="m100 140h10v10h-10z" fill="#068940"/><path d="m110 140h20v10h-20z" fill="#fff"/><path d="m130 140h20v10h-20z"/><path d="m150 140h10v10h-10z" fill="#068940"/><path d="m170 140h10v10h-10z" fill="#257ced"/><path d="m180 140h20v10h-20z" fill="#fff"/><path d="m200 140h20v10h-20z"/><path d="m220 140h10v10h-10z" fill="#257ced"/><path d="m70 150h10v10h-10z" fill="#257ced"/><path d="m100 150h10v10h-10z" fill="#068940"/><path d="m110 150h20v10h-20z" fill="#fff"/><path d="m130 150h20v10h-20z"/><path d="m150 150h10v10h-10z" fill="#068940"/><path d="m170 150h10v10h-10z" fill="#257ced"/><path d="m180 150h20v10h-20z" fill="#fff"/><path d="m200 150h20v10h-20z"/><path d="m220 150h10v10h-10z" fill="#257ced"/><path d="m100 160h60v10h-60z" fill="#068940"/><path d="m170 160h60v10h-60z" fill="#257ced"/></svg>