<svg xmlns="http://www.w3.org/2000/svg" viewBox="0 -0.5 50 50" shape-rendering="crispEdges">
	<title>Bitcoin Pussies #024</title>
	<desc>Bitcoin Pussies are 69 uniquely drawn and inscribed cats on Bitcoin</desc>
	<desc xmlns:meow="https://bitcoinpussies.com/">
		<meow:traits>
			<meow:Skin>Black (Shiny)</meow:Skin>
			<meow:Eyes>Open</meow:Eyes>
			<meow:Gear>Magical broom and wizard hat</meow:Gear>
			<meow:Message>They kept calling me a taproot wizard, like wtf is that supposed to mean?</meow:Message>
		</meow:traits>
	</desc>
	<path stroke="#8b6ea6" d="M0 0h50M0 1h50M0 2h50M0 3h50M0 4h50M0 5h50M0 6h50M0 7h25M26 7h24M0 8h24M27 8h23M0 9h23M28 9h22M0 10h23M28 10h22M0 11h22M29 11h21M0 12h22M29 12h21M0 13h21M30 13h20M0 14h20M30 14h20M0 15h20M31 15h19M0 16h19M32 16h18M0 17h16M35 17h15M0 18h15M36 18h14M0 19h15M36 19h14M0 20h15M36 20h14M0 21h13M38 21h12M0 22h12M40 22h10M0 23h11M40 23h10M0 24h11M40 24h10M0 25h15M36 25h14M0 26h15M36 26h14M0 27h15M36 27h14M0 28h15M36 28h14M0 29h15M36 29h14M0 30h16M35 30h15M0 31h16M35 31h15M0 32h17M34 32h16M0 33h19M32 33h18M0 34h19M32 34h18M0 35h18M33 35h17M0 36h14M17 36h1M33 36h6M45 36h5M0 37h13M33 37h5M46 37h4M0 38h13M32 38h4M47 38h3M0 39h9M48 39h2M0 40h9M49 40h1M0 41h9M48 41h2M0 42h36M47 42h3M0 43h38M46 43h4M0 44h39M45 44h5M0 45h50M0 46h50M0 47h50M0 48h50M0 49h50" />
	<path stroke="#000000" d="M25 7h1M24 8h3M23 9h2M26 9h2M23 10h1M27 10h1M22 11h2M27 11h2M22 12h1M28 12h1M21 13h1M28 13h2M20 14h2M29 14h1M20 15h1M29 15h2M19 16h2M30 16h2M16 17h4M31 17h4M15 18h1M19 18h1M30 18h3M35 18h1M15 19h1M19 19h1M30 19h1M35 19h1M15 20h1M19 20h2M30 20h2M35 20h1M13 21h3M18 21h1M32 21h1M35 21h3M12 22h4M17 22h17M35 22h5M11 23h2M15 23h5M31 23h5M38 23h2M11 24h7M33 24h7M15 25h1M20 25h2M29 25h2M35 25h1M15 26h1M20 26h2M29 26h2M35 26h1M15 27h1M35 27h1M15 28h1M35 28h1M15 29h1M35 29h1M16 30h1M34 30h1M16 31h1M34 31h1M17 32h2M32 32h2M19 33h2M30 33h2M19 34h1M31 34h1M18 35h1M32 35h1M14 36h3M18 36h1M32 36h1M13 37h1M17 37h2M22 37h2M27 37h2M32 37h1M13 38h1M18 38h2M24 38h1M26 38h1M31 38h1M14 39h4M20 39h11" />
	<path stroke="#1a1616" d="M25 9h1M24 10h3M24 11h3M23 12h5M24 13h4M23 14h6M21 15h8M21 16h1M23 16h7M20 17h3M27 17h4M21 20h2M27 20h3M19 21h13M13 23h2M36 23h2" />
	<path stroke="#cecece" d="M22 13h2M22 14h1M22 16h1" />
	<path stroke="#f4ce67" d="M23 17h4M23 18h1M26 18h1M23 19h1M26 19h1M23 20h4" />
	<path stroke="#2c2c2c" d="M16 18h3M33 18h2M16 19h1M34 19h1M16 20h1M34 20h1M16 21h1M34 21h1M16 22h1M34 22h1M20 23h11M18 24h2M22 24h7M31 24h2M16 25h3M23 25h5M32 25h3M16 26h3M23 26h5M32 26h3M16 27h4M22 27h2M25 27h1M27 27h2M31 27h4M16 28h2M20 28h5M26 28h5M33 28h2M16 29h19M17 30h17M17 31h17M19 32h13M21 33h9M20 34h11M19 35h13M19 36h13M14 37h3M19 37h3M24 37h3M29 37h3M14 38h4M20 38h4M25 38h1M27 38h4" />
	<path stroke="#4a236b" d="M20 18h3M24 18h2M27 18h3M20 19h3M24 19h2M27 19h3" />
	<path stroke="#ecbaaf" d="M17 19h2M31 19h3M17 20h2M32 20h2M17 21h1M33 21h1" />
	<path stroke="#f6e475" d="M20 24h2M29 24h1M19 25h1M28 25h1M21 27h1" />
	<path stroke="#ebe178" d="M30 24h1M22 25h1M31 25h1M19 26h1M22 26h1M28 26h1M31 26h1M20 27h1M29 27h2" />
	<path stroke="#ffffff" d="M24 27h1M26 27h1M25 28h1" />
	<path stroke="#e6aeaf" d="M18 28h2M31 28h2" />
	<path stroke="#644a24" d="M39 36h6M38 37h1M45 37h1M36 38h2M46 38h1M9 39h5M18 39h2M31 39h6M47 39h1M9 40h1M48 40h1M9 41h28M47 41h1M36 42h2M46 42h1M38 43h1M45 43h1M39 44h6" />
	<path stroke="#c9964b" d="M39 37h6M38 38h1M43 38h1M45 38h1M37 39h10M37 40h11M37 41h10M38 42h8M39 43h6" />
	<path stroke="#dabb8d" d="M39 38h4M44 38h1" />
	<path stroke="#986e31" d="M10 40h27" />
</svg>