<svg height="320" shape-rendering="crispEdges" viewBox="0 0 320 320" width="320" xmlns="http://www.w3.org/2000/svg"><rect fill="#e1d7d5" height="100%" width="100%"/><path d="m90 210h140v10h-140z" fill="#cbc1bc"/><path d="m90 220h140v10h-140z" fill="#cbc1bc"/><path d="m90 230h140v10h-140z" fill="#cbc1bc"/><path d="m90 240h140v10h-140z" fill="#cbc1bc"/><path d="m90 250h20v10h-20z" fill="#cbc1bc"/><path d="m120 250h110v10h-110z" fill="#cbc1bc"/><path d="m90 260h20v10h-20z" fill="#cbc1bc"/><path d="m120 260h110v10h-110z" fill="#cbc1bc"/><path d="m90 270h20v10h-20z" fill="#cbc1bc"/><path d="m120 270h110v10h-110z" fill="#cbc1bc"/><path d="m90 280h20v10h-20z" fill="#cbc1bc"/><path d="m120 280h110v10h-110z" fill="#cbc1bc"/><path d="m90 290h20v10h-20z" fill="#cbc1bc"/><path d="m120 290h110v10h-110z" fill="#cbc1bc"/><path d="m90 300h20v10h-20z" fill="#cbc1bc"/><path d="m120 300h110v10h-110z" fill="#cbc1bc"/><path d="m90 310h20v10h-20z" fill="#cbc1bc"/><path d="m120 310h110v10h-110z" fill="#cbc1bc"/><g fill="#fff0be"><path d="m90 220h10v10h-10z"/><path d="m110 220h10v10h-10z"/><path d="m130 220h10v10h-10z"/><path d="m150 220h10v10h-10z"/><path d="m170 220h10v10h-10z"/><path d="m190 220h10v10h-10z"/><path d="m210 220h10v10h-10z"/><path d="m100 240h10v10h-10z"/><path d="m120 240h10v10h-10z"/><path d="m140 240h10v10h-10z"/><path d="m160 240h10v10h-10z"/><path d="m180 240h10v10h-10z"/><path d="m200 240h10v10h-10z"/><path d="m220 240h10v10h-10z"/><path d="m90 260h10v10h-10z"/><path d="m130 260h10v10h-10z"/><path d="m150 260h10v10h-10z"/><path d="m170 260h10v10h-10z"/><path d="m190 260h10v10h-10z"/><path d="m210 260h10v10h-10z"/><path d="m100 280h10v10h-10z"/><path d="m120 280h10v10h-10z"/><path d="m140 280h10v10h-10z"/><path d="m160 280h10v10h-10z"/><path d="m180 280h10v10h-10z"/><path d="m200 280h10v10h-10z"/><path d="m220 280h10v10h-10z"/><path d="m90 300h10v10h-10z"/><path d="m130 300h10v10h-10z"/><path d="m150 300h10v10h-10z"/><path d="m170 300h10v10h-10z"/><path d="m190 300h10v10h-10z"/><path d="m210 300h10v10h-10z"/></g><path d="m110 30h10v10h-10z" fill="#6b3f39"/><path d="m200 30h10v10h-10z" fill="#6b3f39"/><path d="m110 40h10v10h-10z" fill="#6b3f39"/><path d="m200 40h10v10h-10z" fill="#6b3f39"/><path d="m100 50h30v10h-30z" fill="#6b3f39"/><path d="m190 50h30v10h-30z" fill="#6b3f39"/><path d="m60 60h10v10h-10z" fill="#6b3f39"/><path d="m90 60h20v10h-20z" fill="#6b3f39"/><path d="m110 60h10v10h-10z" fill="#4d271b"/><path d="m120 60h10v10h-10z" fill="#6b3f39"/><path d="m190 60h10v10h-10z" fill="#6b3f39"/><path d="m200 60h10v10h-10z" fill="#4d271b"/><path d="m210 60h20v10h-20z" fill="#6b3f39"/><path d="m250 60h10v10h-10z" fill="#6b3f39"/><path d="m60 70h50v10h-50z" fill="#6b3f39"/><path d="m110 70h10v10h-10z" fill="#4d271b"/><path d="m120 70h20v10h-20z" fill="#6b3f39"/><path d="m180 70h20v10h-20z" fill="#6b3f39"/><path d="m200 70h10v10h-10z" fill="#4d271b"/><path d="m210 70h50v10h-50z" fill="#6b3f39"/><path d="m50 80h10v10h-10z" fill="#6b3f39"/><path d="m60 80h10v10h-10z" fill="#4d271b"/><path d="m70 80h30v10h-30z" fill="#6b3f39"/><path d="m100 80h10v10h-10z" fill="#4d271b"/><path d="m110 80h100v10h-100z" fill="#6b3f39"/><path d="m210 80h10v10h-10z" fill="#4d271b"/><path d="m220 80h30v10h-30z" fill="#6b3f39"/><path d="m250 80h10v10h-10z" fill="#4d271b"/><path d="m260 80h10v10h-10z" fill="#6b3f39"/><path d="m50 90h50v10h-50z" fill="#6b3f39"/><path d="m100 90h10v10h-10z" fill="#4d271b"/><path d="m110 90h100v10h-100z" fill="#6b3f39"/><path d="m210 90h10v10h-10z" fill="#4d271b"/><path d="m220 90h50v10h-50z" fill="#6b3f39"/><path d="m40 100h10v10h-10z" fill="#6b3f39"/><path d="m50 100h10v10h-10z" fill="#4d271b"/><path d="m60 100h200v10h-200z" fill="#6b3f39"/><path d="m260 100h10v10h-10z" fill="#4d271b"/><path d="m270 100h10v10h-10z" fill="#6b3f39"/><path d="m40 110h10v10h-10z" fill="#6b3f39"/><path d="m50 110h10v10h-10z" fill="#4d271b"/><path d="m60 110h200v10h-200z" fill="#6b3f39"/><path d="m260 110h10v10h-10z" fill="#4d271b"/><path d="m270 110h10v10h-10z" fill="#6b3f39"/><path d="m30 120h10v10h-10z" fill="#6b3f39"/><path d="m40 120h10v10h-10z" fill="#4d271b"/><path d="m50 120h220v10h-220z" fill="#6b3f39"/><path d="m270 120h10v10h-10z" fill="#4d271b"/><path d="m280 120h10v10h-10z" fill="#6b3f39"/><path d="m30 130h10v10h-10z" fill="#6b3f39"/><path d="m40 130h10v10h-10z" fill="#4d271b"/><path d="m50 130h220v10h-220z" fill="#6b3f39"/><path d="m270 130h10v10h-10z" fill="#4d271b"/><path d="m280 130h10v10h-10z" fill="#6b3f39"/><path d="m30 140h10v10h-10z" fill="#6b3f39"/><path d="m40 140h10v10h-10z" fill="#4d271b"/><path d="m50 140h220v10h-220z" fill="#6b3f39"/><path d="m270 140h10v10h-10z" fill="#4d271b"/><path d="m280 140h10v10h-10z" fill="#6b3f39"/><path d="m30 150h10v10h-10z" fill="#6b3f39"/><path d="m40 150h10v10h-10z" fill="#4d271b"/><path d="m50 150h220v10h-220z" fill="#6b3f39"/><path d="m270 150h10v10h-10z" fill="#4d271b"/><path d="m280 150h10v10h-10z" fill="#6b3f39"/><path d="m20 160h10v10h-10z" fill="#6b3f39"/><path d="m30 160h10v10h-10z" fill="#4d271b"/><path d="m40 160h240v10h-240z" fill="#6b3f39"/><path d="m280 160h10v10h-10z" fill="#4d271b"/><path d="m290 160h10v10h-10z" fill="#6b3f39"/><path d="m20 170h10v10h-10z" fill="#6b3f39"/><path d="m30 170h10v10h-10z" fill="#4d271b"/><path d="m40 170h240v10h-240z" fill="#6b3f39"/><path d="m280 170h10v10h-10z" fill="#4d271b"/><path d="m290 170h10v10h-10z" fill="#6b3f39"/><path d="m20 180h70v10h-70z" fill="#6b3f39"/><path d="m90 180h10v10h-10z" fill="#4d271b"/><path d="m100 180h40v10h-40z" fill="#6b3f39"/><path d="m140 180h20v10h-20z"/><path d="m160 180h10v10h-10z" fill="#76858b"/><path d="m170 180h10v10h-10z"/><path d="m180 180h10v10h-10z" fill="#76858b"/><path d="m190 180h20v10h-20z"/><path d="m210 180h10v10h-10z" fill="#6b3f39"/><path d="m220 180h10v10h-10z" fill="#4d271b"/><path d="m230 180h70v10h-70z" fill="#6b3f39"/><path d="m20 190h20v10h-20z" fill="#6b3f39"/><path d="m70 190h20v10h-20z" fill="#6b3f39"/><path d="m90 190h10v10h-10z" fill="#4d271b"/><path d="m100 190h30v10h-30z" fill="#6b3f39"/><path d="m130 190h30v10h-30z"/><path d="m160 190h10v10h-10z" fill="#fff"/><path d="m170 190h10v10h-10z"/><path d="m180 190h10v10h-10z" fill="#fff"/><path d="m190 190h10v10h-10z"/><path d="m200 190h20v10h-20z" fill="#6b3f39"/><path d="m220 190h10v10h-10z" fill="#4d271b"/><path d="m230 190h20v10h-20z" fill="#6b3f39"/><path d="m280 190h20v10h-20z" fill="#6b3f39"/><path d="m20 200h10v10h-10z" fill="#6b3f39"/><path d="m80 200h160v10h-160z" fill="#6b3f39"/><path d="m290 200h10v10h-10z" fill="#6b3f39"/><path d="m100 110h60v10h-60z" fill="#b9185c"/><path d="m170 110h60v10h-60z" fill="#b9185c"/><path d="m100 120h10v10h-10z" fill="#b9185c"/><path d="m110 120h20v10h-20z" fill="#fff"/><path d="m130 120h20v10h-20z"/><path d="m150 120h10v10h-10z" fill="#b9185c"/><path d="m170 120h10v10h-10z" fill="#b9185c"/><path d="m180 120h20v10h-20z" fill="#fff"/><path d="m200 120h20v10h-20z"/><path d="m220 120h10v10h-10z" fill="#b9185c"/><path d="m70 130h40v10h-40z" fill="#b9185c"/><path d="m110 130h20v10h-20z" fill="#fff"/><path d="m130 130h20v10h-20z"/><path d="m150 130h30v10h-30z" fill="#b9185c"/><path d="m180 130h20v10h-20z" fill="#fff"/><path d="m200 130h20v10h-20z"/><path d="m220 130h10v10h-10z" fill="#b9185c"/><path d="m70 140h10v10h-10z" fill="#b9185c"/><path d="m100 140h10v10h-10z" fill="#b9185c"/><path d="m110 140h20v10h-20z" fill="#fff"/><path d="m130 140h20v10h-20z"/><path d="m150 140h10v10h-10z" fill="#b9185c"/><path d="m170 140h10v10h-10z" fill="#b9185c"/><path d="m180 140h20v10h-20z" fill="#fff"/><path d="m200 140h20v10h-20z"/><path d="m220 140h10v10h-10z" fill="#b9185c"/><path d="m70 150h10v10h-10z" fill="#b9185c"/><path d="m100 150h10v10h-10z" fill="#b9185c"/><path d="m110 150h20v10h-20z" fill="#fff"/><path d="m130 150h20v10h-20z"/><path d="m150 150h10v10h-10z" fill="#b9185c"/><path d="m170 150h10v10h-10z" fill="#b9185c"/><path d="m180 150h20v10h-20z" fill="#fff"/><path d="m200 150h20v10h-20z"/><path d="m220 150h10v10h-10z" fill="#b9185c"/><path d="m100 160h60v10h-60z" fill="#b9185c"/><path d="m170 160h60v10h-60z" fill="#b9185c"/></svg>