<svg height="320" shape-rendering="crispEdges" viewBox="0 0 320 320" width="320" xmlns="http://www.w3.org/2000/svg"><rect fill="#d5d7e1" height="100%" width="100%"/><g fill="#fffdf2"><path d="m90 210h140v10h-140z"/><path d="m90 220h140v10h-140z"/><path d="m90 230h140v10h-140z"/><path d="m90 240h140v10h-140z"/><path d="m90 250h20v10h-20z"/><path d="m120 250h110v10h-110z"/><path d="m90 260h20v10h-20z"/><path d="m120 260h110v10h-110z"/><path d="m90 270h20v10h-20z"/><path d="m120 270h110v10h-110z"/><path d="m90 280h20v10h-20z"/><path d="m120 280h110v10h-110z"/><path d="m90 290h20v10h-20z"/><path d="m120 290h110v10h-110z"/><path d="m90 300h20v10h-20z"/><path d="m120 300h110v10h-110z"/><path d="m90 310h20v10h-20z"/><path d="m120 310h110v10h-110z"/></g><path d="m130 230h20v10h-20z" fill="#abaaa8"/><path d="m160 230h20v10h-20z" fill="#abaaa8"/><path d="m130 240h10v10h-10z" fill="#abaaa8"/><path d="m160 240h20v10h-20z" fill="#abaaa8"/><path d="m130 250h20v10h-20z" fill="#abaaa8"/><path d="m160 250h20v10h-20z" fill="#abaaa8"/><path d="m130 270h20v10h-20z" fill="#abaaa8"/><path d="m160 270h10v10h-10z" fill="#abaaa8"/><path d="m180 270h10v10h-10z" fill="#abaaa8"/><path d="m130 280h20v10h-20z" fill="#abaaa8"/><path d="m160 280h20v10h-20z" fill="#abaaa8"/><path d="m130 290h10v10h-10z" fill="#abaaa8"/><path d="m160 290h10v10h-10z" fill="#abaaa8"/><path d="m80 50h20v10h-20z" fill="#f86100"/><path d="m100 50h10v10h-10z" fill="#f89865"/><path d="m110 50h30v10h-30z" fill="#f86100"/><path d="m140 50h10v10h-10z" fill="#f89865"/><path d="m150 50h30v10h-30z" fill="#f86100"/><path d="m180 50h10v10h-10z" fill="#f89865"/><path d="m190 50h30v10h-30z" fill="#f86100"/><path d="m220 50h10v10h-10z" fill="#f89865"/><path d="m230 50h10v10h-10z" fill="#f86100"/><path d="m60 60h10v10h-10z" fill="#f89865"/><path d="m70 60h30v10h-30z" fill="#f86100"/><path d="m100 60h10v10h-10z" fill="#f89865"/><path d="m110 60h30v10h-30z" fill="#f86100"/><path d="m140 60h10v10h-10z" fill="#f89865"/><path d="m150 60h30v10h-30z" fill="#f86100"/><path d="m180 60h10v10h-10z" fill="#f89865"/><path d="m190 60h30v10h-30z" fill="#f86100"/><path d="m220 60h10v10h-10z" fill="#f89865"/><path d="m230 60h30v10h-30z" fill="#f86100"/><path d="m40 70h20v10h-20z" fill="#f86100"/><path d="m60 70h10v10h-10z" fill="#f89865"/><path d="m70 70h40v10h-40z" fill="#f86100"/><path d="m110 70h10v10h-10z" fill="#f89865"/><path d="m120 70h30v10h-30z" fill="#f86100"/><path d="m150 70h10v10h-10z" fill="#f89865"/><path d="m160 70h30v10h-30z" fill="#f86100"/><path d="m190 70h10v10h-10z" fill="#f89865"/><path d="m200 70h30v10h-30z" fill="#f86100"/><path d="m230 70h10v10h-10z" fill="#f89865"/><path d="m240 70h40v10h-40z" fill="#f86100"/><path d="m40 80h30v10h-30z" fill="#f86100"/><path d="m70 80h10v10h-10z" fill="#f89865"/><path d="m80 80h30v10h-30z" fill="#f86100"/><path d="m110 80h10v10h-10z" fill="#f89865"/><path d="m120 80h30v10h-30z" fill="#f86100"/><path d="m150 80h10v10h-10z" fill="#f89865"/><path d="m160 80h30v10h-30z" fill="#f86100"/><path d="m190 80h10v10h-10z" fill="#f89865"/><path d="m200 80h30v10h-30z" fill="#f86100"/><path d="m230 80h10v10h-10z" fill="#f89865"/><path d="m240 80h40v10h-40z" fill="#f86100"/><path d="m40 90h30v10h-30z" fill="#f86100"/><path d="m70 90h10v10h-10z" fill="#f89865"/><path d="m80 90h30v10h-30z" fill="#f86100"/><path d="m110 90h10v10h-10z" fill="#f89865"/><path d="m120 90h30v10h-30z" fill="#f86100"/><path d="m150 90h10v10h-10z" fill="#f89865"/><path d="m160 90h30v10h-30z" fill="#f86100"/><path d="m190 90h10v10h-10z" fill="#f89865"/><path d="m200 90h30v10h-30z" fill="#f86100"/><path d="m230 90h10v10h-10z" fill="#f89865"/><path d="m240 90h40v10h-40z" fill="#f86100"/><path d="m40 100h30v10h-30z" fill="#f86100"/><path d="m70 100h180v10h-180z" fill="#fff"/><path d="m250 100h30v10h-30z" fill="#f86100"/><path d="m50 110h220v10h-220z" fill="#fff"/><path d="m50 120h220v10h-220z" fill="#fff"/><path d="m60 130h200v10h-200z" fill="#fff"/><path d="m50 140h220v10h-220z" fill="#fff"/><path d="m50 150h220v10h-220z" fill="#fff"/><path d="m60 160h200v10h-200z" fill="#fff"/><path d="m50 170h220v10h-220z" fill="#fff"/><path d="m50 180h100v10h-100z" fill="#fff"/><path d="m150 180h30v10h-30z" fill="#dcd8d3"/><path d="m180 180h90v10h-90z" fill="#fff"/><path d="m60 190h200v10h-200z" fill="#fff"/><path d="m70 200h180v10h-180z" fill="#fff"/><path d="m100 110h60v10h-60z" fill="#8dd122"/><path d="m170 110h60v10h-60z" fill="#8dd122"/><path d="m100 120h10v10h-10z" fill="#8dd122"/><path d="m110 120h20v10h-20z" fill="#fff"/><path d="m130 120h20v10h-20z"/><path d="m150 120h10v10h-10z" fill="#8dd122"/><path d="m170 120h10v10h-10z" fill="#8dd122"/><path d="m180 120h20v10h-20z" fill="#fff"/><path d="m200 120h20v10h-20z"/><path d="m220 120h10v10h-10z" fill="#8dd122"/><path d="m70 130h40v10h-40z" fill="#8dd122"/><path d="m110 130h20v10h-20z" fill="#fff"/><path d="m130 130h20v10h-20z"/><path d="m150 130h30v10h-30z" fill="#8dd122"/><path d="m180 130h20v10h-20z" fill="#fff"/><path d="m200 130h20v10h-20z"/><path d="m220 130h10v10h-10z" fill="#8dd122"/><path d="m70 140h10v10h-10z" fill="#8dd122"/><path d="m100 140h10v10h-10z" fill="#8dd122"/><path d="m110 140h20v10h-20z" fill="#fff"/><path d="m130 140h20v10h-20z"/><path d="m150 140h10v10h-10z" fill="#8dd122"/><path d="m170 140h10v10h-10z" fill="#8dd122"/><path d="m180 140h20v10h-20z" fill="#fff"/><path d="m200 140h20v10h-20z"/><path d="m220 140h10v10h-10z" fill="#8dd122"/><path d="m70 150h10v10h-10z" fill="#8dd122"/><path d="m100 150h10v10h-10z" fill="#8dd122"/><path d="m110 150h20v10h-20z" fill="#fff"/><path d="m130 150h20v10h-20z"/><path d="m150 150h10v10h-10z" fill="#8dd122"/><path d="m170 150h10v10h-10z" fill="#8dd122"/><path d="m180 150h20v10h-20z" fill="#fff"/><path d="m200 150h20v10h-20z"/><path d="m220 150h10v10h-10z" fill="#8dd122"/><path d="m100 160h60v10h-60z" fill="#8dd122"/><path d="m170 160h60v10h-60z" fill="#8dd122"/></svg>