<svg xmlns="http://www.w3.org/2000/svg" viewBox="0 -0.5 50 50" shape-rendering="crispEdges">
	<title>Bitcoin Pussies #034</title>
	<desc>Bitcoin Pussies are 69 uniquely drawn and inscribed cats on Bitcoin</desc>
	<desc xmlns:meow="https://bitcoinpussies.com/">
		<meow:traits>
			<meow:Skin>Orange</meow:Skin>
			<meow:Eyes>Closed</meow:Eyes>
			<meow:Gear>In a frog costume on a lilypad with a duck</meow:Gear>
			<meow:Message>Send me a bitcoin and you will get two frogcoins</meow:Message>
		</meow:traits>
	</desc>
	<path stroke="#4f6499" d="M0 0h50M0 1h50M0 2h50M0 3h50M0 4h11M17 4h21M42 4h8M0 5h37M42 5h8M0 6h6M16 6h20M42 6h8M0 7h39M44 7h6M0 8h39M45 8h5M0 9h39M45 9h5M0 10h39M45 10h5M0 11h38M46 11h4M0 12h20M23 12h5M31 12h19M0 13h15M24 13h3M36 13h14M0 14h14M37 14h13M0 15h14M37 15h13M0 16h14M37 16h13M0 17h14M37 17h13M0 18h14M37 18h13M0 19h14M37 19h13M0 20h4M7 20h7M37 20h13M0 21h3M11 21h3M37 21h13M0 22h2M9 22h5M37 22h13M0 23h2M9 23h5M37 23h13M0 24h2M9 24h5M37 24h13M0 25h3M8 25h6M37 25h13M0 26h4M7 26h7M37 26h5M45 26h5M0 27h14M37 27h4M46 27h4M0 28h15M36 28h4M47 28h3M0 29h16M35 29h5M47 29h3M0 30h17M34 30h6M47 30h3M0 31h18M33 31h8M46 31h4M0 32h18M37 32h5M45 32h5M0 33h14M38 33h12M0 34h12M39 34h11M0 35h11M42 35h8M0 36h11M39 36h11M0 37h11M39 37h11M0 38h11M39 38h11M0 39h11M39 39h11M0 40h11M39 40h11M0 41h11M14 41h1M38 41h12M0 42h12M13 42h1M36 42h14M0 43h14M33 43h17M0 44h23M27 44h23M0 45h4M12 45h11M28 45h22M0 46h24M28 46h22M0 47h26M28 47h22M0 48h26M28 48h22M0 49h26M28 49h22" />
	<path stroke="#687aa7" d="M11 4h6M6 6h10M38 11h8M8 21h3M39 35h3M4 45h8" />
	<path stroke="#ccad4c" d="M38 4h1M41 4h1M41 6h1M39 7h1" />
	<path stroke="#fac100" d="M39 4h2M38 5h1M40 5h2M38 6h3M40 7h4M39 8h6M39 9h6" />
	<path stroke="#e97500" d="M37 5h1M36 6h2" />
	<path stroke="#000000" d="M39 5h1M15 13h4M32 13h4M14 14h1M36 14h1M14 15h1M36 15h1M14 16h1M36 16h1M14 17h1M36 17h1M14 18h1M36 18h1M14 19h1M36 19h1M19 23h3M29 23h3M21 24h2M28 24h2M22 25h1M25 25h1M28 25h1M24 26h1M26 26h1M20 32h1M30 32h1M19 33h1M31 33h1M19 34h1M31 34h1M18 35h1M32 35h1M17 36h2M32 36h1M16 37h1M18 37h1M32 37h1M17 38h3M21 38h1M23 38h1M27 38h1M29 38h1M31 38h1M20 39h11" />
	<path stroke="#887f65" d="M39 10h6" />
	<path stroke="#455800" d="M20 12h3M28 12h3M19 13h1M23 13h1M27 13h1M31 13h1M19 14h1M23 14h5M31 14h1M18 15h1M32 15h1M17 16h1M33 16h1M16 17h1M34 17h1M16 18h1M34 18h1M15 19h1M19 19h13M35 19h1M14 20h1M18 20h1M32 20h1M36 20h1M14 21h1M17 21h1M33 21h1M36 21h1M14 22h1M17 22h1M33 22h1M36 22h1M14 23h1M17 23h1M33 23h1M36 23h1M14 24h1M17 24h1M33 24h1M36 24h1M14 25h1M17 25h1M33 25h1M36 25h1M14 26h1M17 26h1M33 26h1M36 26h1M14 27h1M17 27h1M33 27h1M36 27h1M15 28h1M18 28h1M32 28h1M35 28h1M16 29h1M19 29h13M34 29h1M17 30h1M33 30h1M18 31h15" />
	<path stroke="#ffffff" d="M20 13h1M22 13h1M28 13h1M30 13h1M20 14h1M28 14h1M20 15h1M28 15h1" />
	<path stroke="#1f2506" d="M21 13h1M29 13h1M21 14h2M29 14h2M21 15h2M29 15h2M23 17h1M27 17h1" />
	<path stroke="#f79100" d="M15 14h4M15 15h1M15 16h1M15 17h1M15 18h1M19 20h12M18 21h14M18 22h15M18 23h1M22 23h7M32 23h1M18 24h3M23 24h5M30 24h3M18 25h4M23 25h2M26 25h2M29 25h4M20 26h4M25 26h1M27 26h4M18 27h15M20 28h12M21 32h3M27 32h3M20 33h3M28 33h3M20 34h2M29 34h2M19 35h3M29 35h3M19 36h4M28 36h4M17 37h1M19 37h5M27 37h5M24 38h3" />
	<path stroke="#d17700" d="M32 14h4M35 15h1M35 16h1M35 17h1M35 18h1M31 20h1M32 21h1M19 28h1M24 32h3M26 33h2M27 34h2M27 35h2M26 36h2M26 37h1M20 38h1M22 38h1M28 38h1M30 38h1" />
	<path stroke="#ffc0b1" d="M16 15h2M33 15h2M16 16h1M34 16h1" />
	<path stroke="#bfde44" d="M19 15h1M23 15h5M31 15h1M18 16h15M17 17h1M20 17h3M24 17h3M28 17h3M17 18h1M20 18h11M17 19h2M32 19h2M33 20h1M34 21h1M34 22h1M34 23h1M34 24h1M34 25h1M34 26h1M33 28h1M32 29h1M20 30h12" />
	<path stroke="#ffab84" d="M18 17h2M31 17h2M18 18h2M31 18h2" />
	<path stroke="#a2c11b" d="M33 17h1M33 18h1M16 19h1M34 19h1M15 20h3M34 20h2M15 21h2M35 21h1M15 22h2M35 22h1M15 23h2M35 23h1M15 24h2M35 24h1M15 25h2M35 25h1M15 26h2M35 26h1M15 27h2M34 27h2M16 28h2M34 28h1M17 29h2M33 29h1M18 30h2M32 30h1" />
	<path stroke="#003100" d="M4 20h3M3 21h1M7 21h1M2 22h1M8 22h1M2 23h1M8 23h1M3 24h1M7 24h1M4 25h3M42 26h3M41 27h1M45 27h1M40 28h1M46 28h1M40 29h1M46 29h1M41 30h1M45 30h1M42 31h3M18 32h2M31 32h6M14 33h4M36 33h2M12 34h2M38 34h1M11 35h1M38 35h1M11 36h1M38 36h1M11 37h1M14 37h2M33 37h2M38 37h1M11 38h1M38 38h1M11 39h1M14 39h2M38 39h1M11 40h1M13 40h1M16 40h1M23 40h5M35 40h3M12 41h1M15 41h2M32 41h4M14 42h19" />
	<path stroke="#377c00" d="M4 21h3M3 22h5M3 23h5M4 24h3M42 27h3M41 28h5M41 29h5M42 30h3M18 33h1M32 33h4M14 34h5M32 34h6M12 35h6M33 35h5M12 36h5M33 36h5M12 37h2M35 37h3M12 38h5M32 38h6M12 39h2M16 39h4M31 39h7M12 40h1M17 40h6M28 40h7M17 41h15" />
	<path stroke="#38466c" d="M2 24h1M8 24h1M3 25h1M7 25h1M4 26h3M40 30h1M46 30h1M41 31h1M45 31h1M42 32h3M14 40h2M38 40h1M11 41h1M13 41h1M36 41h2M12 42h1M33 42h3M14 43h19" />
	<path stroke="#ffadaa" d="M18 26h2M31 26h2" />
	<path stroke="#db8100" d="M23 33h3M22 34h5M22 35h5M23 36h3M24 37h2" />
	<path stroke="#3e4f78" d="M23 44h4M23 45h5M24 46h3" />
	<path stroke="#445581" d="M27 46h1M26 47h2M26 48h2M26 49h2" />
</svg>