<svg version="1.1" id="レイヤー_1" xmlns="http://www.w3.org/2000/svg" x="0" y="0" viewBox="0 0 500 500" style="enable-background:new 0 0 500 500" xml:space="preserve"><style>.st1{stroke-width:1.3}.st1,.st2{fill:none;stroke:#000;stroke-linecap:round;stroke-linejoin:round;stroke-miterlimit:10}.st3{fill:#e24062}</style><path style="fill:#fff" d="M0 0h500v500H0z"/><g id="レイヤー_2_00000163778311715589306420000006390774765588425866_"><path class="st1" d="M149.5 154c-6.2 7.5-10.6 18.1-12.4 26.3-1.8 8.2-13.3 33.2-14.1 35.2M148.9 174.6l-4.2 8M149.9 179.9c-.8 2.5-2.3 5.4-2.2 7.6.1 2.2 2.3 6.7.8 10.4s-8.1 12.7-9.1 13.7M120.9 222.4c-1.7 4.2-26.5 55.6-28.8 65.5-2.3 9.9.8 9.2 7.8 7.6 6.9-1.6 12-4 12-4M114.2 265.6l5.4-3.8M167.2 155c-.8 3.2-2.3 16.2.8 21.5M159.9 238.9s-10.2-.6-12.6-11.5c-2.4-10.9 14.3-31.1 17.1-34.4s4.3-7 4.3-9.6"/><path class="st1" d="M157.2 212.6c-2.1 4.5-5.6 16.6 3.8 18.3 9.4 1.7 25.8.9 24.8 15.4"/><path d="M152.9 236.9c-4.7 2.4-29.3 15.1-32.2 20.3-3 5.3 0 8.3 2.1 10.4s-8.5 17.9-10.4 21.8c-1.9 4-.8 6.6 5.5 4.5 6.2-2.1 24.3-9.6 24.3-9.6s-73 64.2-78.3 75.9-16.9 36.5-24.1 45.6S0 456.5 0 456.5V500h500v-93.2s-89.8-47.8-121.8-55S327 331.5 327 327s4.1-9.2-7.3-15.4c-11.5-6.2-28.6-16.2-31.1-18.6s-6.2-9.8-4.1-9.8 24.1 6.1 27.9 6.8c3.6.6 15.4 4.7 14.1 0s-2.6-12.6-2.6-12.6-42-6-74-3.2-71.3 4.1-74.4-.4c-3-4.5-.5-10.9 3.2-20.1 3-7.5-3-13.6-13.8-14.6-7.8-.8-12-2.2-12-2.2z"/><path class="st2" d="M210.5 187.8c.1.6 1 .8 1.9.7M211 196s-1.2.1-1.8-.1c-.6-.2 1.1-1.2 3-1.2 1.8 0 3.1.5 3.6 1.2.1.2-1.7.1-2.1.1"/><path class="st1" d="M179.3 192.4c5.1 1.5 17.4 2.3 17.2 14.9M286 222.9c1.5 2.1 4 8.1-2.4 14.7s-4.7 12.4-4.7 12.4M266 183.2c0 5.8-1.5 16.8 23.9 24.8s33.5 11.5 30.3 23.3c-3.2 11.9 4.3 17.5 21.3 20 16.9 2.4 86.8.8 99.8 3 13 2.3 29.6 4.7 24.1 14.1s-13.2 13.4-5.3 18.6M293.8 296.6c2.8-.5 16.1-1.7 16.1-1.7M300.1 300.5c6-1.3 51.2-6.8 79.8-3s38 7.2 34.3 14.3c-3.8 7.2-21.6 9.2-11.7 14.9 10 5.6 50.8 6.6 54.2 6.6"/><path class="st1" d="M281.1 176c.9 1.6 3.1 4.4 2.9 7-.2 2.5-4.2 4-2.2 8.8 2.1 4.9 5.9 11.2 5.9 11.2M282.5 157.4c1.7 2.7 10.6 18 11.5 21 .8 3-.2 6.3 1.4 10s8.7 23.1 8.7 23.1"/><path d="M195.3 201.7s14.5 7.5 15.3 8 2.4.6 3.4-.1 17.4-9.6 17.4-9.6.2 4.4 5 5.9c4.8 1.4 27.1 9.1 33 10.6 5.9 1.4 15.1 5 13.4 12.4-1.7 7.3-7.2 7.2-8.4 15.6.2 2.6.2 4.6.2 4.6s-15.9-.2-19.9-6.3c-1.6-2.3 3.9-7.3 3.9-9.8 0-5.5-7.1-6.2-16.3-7.3-11.6-1.4-42.8-.7-46.1-10.1-1.7-5.4.4-10.7-.9-13.9z"/><path class="st1" d="M239.3 188.6c-2.2 1.9-9.3 6.9-8.1 12.7"/></g><g id="レイヤー_3"><path class="st3" d="M162.8 129c.3-1.3 2-2.1 3.2-1.3.1-.6.6-1 1.1-1.1.6-.1 1.2.2 1.4.7.7-.9 2.3-.7 2.8.3.5-1 2.3-1 2.8 0 1.3-.7 3.2.5 3.1 2 .9-.1 1.8.3 2.3 1.1s.5 1.8 0 2.6c1.5.4 2.1 2.6 1 3.7 1.2.4 1.6 2.3.6 3.1 1.2 1.4.8 3.7-.8 4.6.6 1.5-.8 3.3-2.4 3.1.1.9-.3 1.9-1 2.5s-1.8.7-2.7.3c-.3.9-1.1 1.5-2 1.6s-1.9-.3-2.4-1c-1 1.3-3.1 1.5-4.3.5-1.4.6-3.2-.1-3.8-1.4-1.7-.3-3-2-2.8-3.7-1.4-.1-2.5-1.7-2-3.1-.8-.3-1.5-1-1.6-1.9s.2-1.8.9-2.3c-1.3-1.6-.8-4.3 1.1-5.2-.2-1.4 1-2.8 2.4-2.8-.3-.9 0-2 .8-2.6.7-.6 1.9-.4 2.3.3z"/><path class="st3" d="M200.3 177.8c-.3.9-1.2 1.7-2.1 1.9s-2-.1-2.7-.8c-.2 1.2-1.2 2.2-2.3 2.5-1.2.3-2.5-.1-3.3-1-.4 1-1.4 1.7-2.4 1.7s-2-.7-2.4-1.7c-.6.9-1.7 1.4-2.8 1.1-1-.3-1.9-1.3-1.9-2.3-.9.2-2-.2-2.4-1s-.2-1.9.5-2.6c-.9.1-1.7-.4-2.1-1.2s-.3-1.7.2-2.4c-1 0-2-.7-2.3-1.6-.4-.9-.2-2.1.5-2.8-.8-.3-1.4-1.1-1.5-1.9-.1-.9.4-1.7 1.2-2.1-.8-.5-1.2-1.6-1-2.5s1-1.7 2-1.9c-.6-.9-.7-2.1-.1-3 .6-.9 1.7-1.4 2.8-1.3.3-1.7 2.5-2.7 3.9-1.8.1-.9.7-1.7 1.5-2s1.8-.2 2.5.4c.4-1.1 1.4-1.9 2.5-2s2.3.4 3 1.3c1.5-1.2 4-.6 4.8 1.1.7-.9 2.3-.9 3 0 0-1.2 1.5-2.1 2.7-1.8-.7.1-1.2-.6-1.2-1.3s.5-1.2.9-1.8c-.4.6-1.2.8-1.9.6s-1.2-.9-1.2-1.6c-.3.4-.7.9-1.2 1.1-.5.2-1.2.3-1.7 0s-.8-1-.5-1.5c-.2.7-.9 1.2-1.6 1.2-.7 0-1.4-.4-1.7-1-.4-.6-.4-1.3-.3-2-.3 1.1-1.5 1.6-2.4 1.3s-1.4-1.5-1.1-2.4c-.4.8-1.7 1.1-2.4.6-.8-.6-.8-1.8-.1-2.5-.9.4-2.1 0-2.6-.9s-.3-2.1.5-2.7c-.7-.1-1.3-.8-1.2-1.5s.8-1.3 1.5-1.3c-.8-.5-1.2-1.5-1-2.5.2-.9 1-1.7 1.9-1.9-.9-.1-1.6-.8-1.8-1.6s.2-1.8 1-2.2c-1.1.1-2.5-.2-3.3-1.1s-.9-2.3-.3-3.3c-.7.9-2.3.5-2.8-.4s-.4-2.2.2-3.2c-1.2.2-2.5-.5-2.9-1.6s.1-2.5 1.1-3.1c-1.1-.9-1.5-2.6-1-3.9s1.8-2.3 3.3-2.4c-.1-1.1.4-2.3 1.3-3 .9-.7 2.1-.9 3.2-.6.4-.7.7-1.5 1.3-2.1s1.4-1 2.2-1c.8.1 1.6.7 1.6 1.6.6-1.1 1.7-1.9 2.9-2 1.2-.2 2.5.3 3.3 1.3.7-.8 1.9-1.1 2.9-.7s1.6 1.5 1.5 2.6c.9-.2 2 .3 2.5 1.1s.4 2-.2 2.7c.5-.2 1.1-.2 1.5.2-.5-1.1-.3-2.4.4-3.4s1.9-1.4 3.1-1.1c-.5-1-.1-2.4.9-3s2.4-.3 3 .6c.6-1.4 2.7-1.8 3.8-.7.2-1.3 1.3-2.4 2.6-2.7 1.3-.3 2.7.2 3.5 1.3.6-.8 1.6-1.3 2.5-1.2 1 .1 1.9.7 2.3 1.6 1.1-.6 2.7-.4 3.6.4s1.3 2.4.7 3.6c0-.7.4-1.7 1.2-2.1s1.8-.3 2.4.3c.3-1 1.2-1.8 2.3-1.9s2.1.6 2.5 1.5c.6-.9 1.7-1.4 2.7-1.2 1 .2 1.9 1 2.2 2 .5-.5 1.4-.7 2.1-.4.7.3 1.1 1.1 1.1 1.8.7-.6 1.8-.6 2.6-.1s1.3 1.5 1.1 2.4c.9-.3 2.1.1 2.6.9s.4 2-.4 2.7c.8 0 1.6.6 1.8 1.5.2.8-.1 1.8-.8 2.3 1.4.6 2.2 2.6 1.5 4 .6-.7 1.7-.9 2.5-.4s1.1 1.7.6 2.5c.9-.2 1.9.1 2.4.8s.7 1.7.3 2.5c1.3-.2 2.7.5 3.3 1.6s.6 2.7-.3 3.7c.6-.1 1.3.3 1.5.8.3.6.1 1.3-.4 1.7.7-.9 1.8-1.3 2.8-1.2 1 .2 1.9 1 2.1 1.9.8-.9 2.4-.9 3.3-.2.9.8 1.1 2.3.4 3.3.8-.8 2.3-.7 3.1.1.8.9.6 2.3-.2 3.1 1.1-.2 2.4.5 2.8 1.6.5 1.1.1 2.4-.8 3.1 1 .2 1.9 1.1 1.9 2.1s-.6 2.1-1.6 2.4c.8.4 1.2 1.4 1.1 2.3s-.9 1.6-1.8 1.8c.5.9.6 2.1.1 3.1s-1.5 1.7-2.5 1.8c.3.3.5.8.5 1.3-.4.2-.8.5-1.3.7 1-.3 2 .1 2.5.9s.5 1.9-.1 2.6c1 .2 1.8 1 1.9 2s-.6 2-1.5 2.3c.7.7 1 1.8.8 2.8-.3 1-1.1 1.8-2 2 .5.9.5 2.1-.1 2.9s-1.7 1.3-2.7 1.2c.3.9.2 1.9-.4 2.6-.6.7-1.6 1.1-2.5.9-.1 1.1-.8 2.1-1.8 2.5s-2.2.3-3.1-.3c-.9.8-2 1.4-3.2 1.4s-2.4-1-2.3-2.2c-.9.6-2.1.7-3 .1-.9-.5-1.5-1.6-1.3-2.7-.7.7-1.9.9-2.7.3-.9-.5-1.3-1.7-.9-2.6 0 .7-1.1 1-1.6.6s-.7-1.2-.9-1.9c.5.9.5 2 .1 2.9s-1.4 1.4-2.4 1.5c.4 1.1.2 2.4-.6 3.2-.7.9-2 1.3-3.1 1-.5 2.1-3.2 3.4-5.2 2.6-1.2 1.1-3.2 1.3-4.5.3-1.3 1-3.5.7-4.5-.6-.4.8-1.3 1.3-2.2 1.2-.9 0-1.7-.5-2.2-1.3-.8.8-2.1.9-3 .4-1-.5-1.5-1.7-1.3-2.7-.9.3-1.9.1-2.6-.5-.7-.6-.9-1.7-.7-2.5-1 .1-2.1-.7-2.4-1.7-.4-1 0-2.3.8-3-.7.2-1.5-.1-1.9-.7-.3-.6-.1-1.5.4-2-.2.5-.9.8-1.5.6s-1-.6-1.4-1c-.1.8-.2 1.6-.8 2.1-.5.5-1.6.6-2 0 .1.8.2 1.6-.1 2.4-.3.7-1.1 1.3-1.9 1.1.1 1.1-.7 2.3-1.8 2.8-1.5.1-3.4-.5-3.4-.5zM380 106.5c1-.6 2.3-1.1 3.4-.7 1.2.4 1.9 1.7 2.4 2.9.5 1.3 1 2.8.7 4.2-.5 1.9-2.4 3.1-4.1 4-1.2.7-2.5 1.4-3.9 1.5s-3-.5-3.6-1.8c-.4-.9-.4-2.1-1.2-2.5-.3-.2-1.2-1.3-1.3-1.6-1.6-3.4 4.5-4.4 7.6-6zM315.3 215.4c3-1.8 3.3-3.8 4-4.9 2-3.5 2.2 5 .6 6.9-1.6 1.8-4 2.8-6.4 3.2-1 .2-2 .3-2.9 0s-1.8-1.1-1.9-2.1c0-1 2.3-.5 6.6-3.1zM349.2 343.8c-1.9.6-4.3 1.4-4.7 3.4-.4 1.8 1.1 3.5 2.7 4.4 3.9 2.2 9.1 1.4 12.7-1.3 3.6-2.7 5.6-7.1 6.1-11.6.1-1.1.1-2.4-.9-3-.8-.4-10.9 6.5-15.9 8.1zM427.8 208.9c.7.1 1.5.2 2 .6.8.6 1 1.7.7 2.7-.3.9-1.1 1.7-1.9 2.2-2.7 1.7-6.6 1.2-8.8-1.1-.7-.8-1.3-1.8-1.4-2.9 0-1.2 6.9-1.8 9.4-1.5zM476.2 239c1.2-1.1 2.9-1.8 4.5-1.6s3.1 1.6 3.1 3.3c0 1.8-1.7 3.2-3.3 4-1.1.6-2.3 1.2-3.6 1.3-1.3.1-2.7-.4-3.4-1.5s1.5-4.4 2.7-5.5z"/></g></svg>