<svg height="320" shape-rendering="crispEdges" viewBox="0 0 320 320" width="320" xmlns="http://www.w3.org/2000/svg"><rect fill="#d5d7e1" height="100%" width="100%"/><g fill="#b87b11"><path d="m90 210h140v10h-140z"/><path d="m90 220h140v10h-140z"/><path d="m90 230h140v10h-140z"/><path d="m90 240h140v10h-140z"/><path d="m90 250h20v10h-20z"/><path d="m120 250h110v10h-110z"/><path d="m90 260h20v10h-20z"/><path d="m120 260h110v10h-110z"/><path d="m90 270h20v10h-20z"/><path d="m120 270h110v10h-110z"/><path d="m90 280h20v10h-20z"/><path d="m120 280h110v10h-110z"/><path d="m90 290h20v10h-20z"/><path d="m120 290h110v10h-110z"/><path d="m90 300h20v10h-20z"/><path d="m120 300h110v10h-110z"/><path d="m90 310h20v10h-20z"/><path d="m120 310h110v10h-110z"/></g><path d="m90 210h140v10h-140z" fill="#2b83f6"/><path d="m90 230h140v10h-140z" fill="#2b83f6"/><path d="m90 250h20v10h-20z" fill="#2b83f6"/><path d="m120 250h110v10h-110z" fill="#2b83f6"/><path d="m90 270h20v10h-20z" fill="#2b83f6"/><path d="m120 270h110v10h-110z" fill="#2b83f6"/><path d="m90 290h20v10h-20z" fill="#2b83f6"/><path d="m120 290h110v10h-110z" fill="#2b83f6"/><path d="m90 310h20v10h-20z" fill="#2b83f6"/><path d="m120 310h110v10h-110z" fill="#2b83f6"/><path d="m110 90h110v10h-110z" fill="#85634f"/><path d="m90 100h140v10h-140z" fill="#85634f"/><path d="m90 110h150v10h-150z" fill="#85634f"/><path d="m90 120h150v10h-150z" fill="#85634f"/><path d="m90 130h150v10h-150z" fill="#85634f"/><path d="m80 140h160v10h-160z" fill="#85634f"/><path d="m70 150h170v10h-170z" fill="#85634f"/><path d="m70 160h170v10h-170z" fill="#85634f"/><path d="m90 170h20v10h-20z" fill="#85634f"/><path d="m110 170h40v10h-40z" fill="#eff2fa"/><path d="m150 170h60v10h-60z"/><path d="m210 170h30v10h-30z" fill="#eff2fa"/><path d="m90 180h10v10h-10z" fill="#d0aea9"/><path d="m100 180h40v10h-40z" fill="#85634f"/><path d="m140 180h10v10h-10z" fill="#eff2fa"/><path d="m150 180h60v10h-60z"/><path d="m210 180h10v10h-10z" fill="#eff2fa"/><path d="m220 180h20v10h-20z" fill="#85634f"/><path d="m90 190h20v10h-20z" fill="#d0aea9"/><path d="m110 190h30v10h-30z" fill="#eff2fa"/><path d="m140 190h40v10h-40z" fill="#d0aea9"/><path d="m180 190h10v10h-10z"/><path d="m190 190h30v10h-30z" fill="#d0aea9"/><path d="m220 190h20v10h-20z" fill="#eff2fa"/><path d="m90 200h80v10h-80z" fill="#d0aea9"/><path d="m170 200h10v10h-10z"/><path d="m180 200h10v10h-10z" fill="#d0aea9"/><path d="m190 200h10v10h-10z"/><path d="m200 200h40v10h-40z" fill="#d0aea9"/><path d="m100 110h60v10h-60z"/><path d="m170 110h60v10h-60z"/><path d="m100 120h40v10h-40z"/><path d="m140 120h10v10h-10z" fill="#fff"/><path d="m150 120h10v10h-10z"/><path d="m170 120h40v10h-40z"/><path d="m210 120h10v10h-10z" fill="#fff"/><path d="m220 120h10v10h-10z"/><path d="m70 130h70v10h-70z"/><path d="m140 130h10v10h-10z" fill="#fff"/><path d="m150 130h60v10h-60z"/><path d="m210 130h10v10h-10z" fill="#fff"/><path d="m220 130h10v10h-10z"/><path d="m70 140h10v10h-10z"/><path d="m100 140h60v10h-60z"/><path d="m170 140h60v10h-60z"/><path d="m70 150h10v10h-10z"/><path d="m100 150h60v10h-60z"/><path d="m170 150h60v10h-60z"/><path d="m100 160h60v10h-60z"/><path d="m170 160h60v10h-60z"/></svg>