<svg height="320" shape-rendering="crispEdges" viewBox="0 0 320 320" width="320" xmlns="http://www.w3.org/2000/svg"><rect fill="#e1d7d5" height="100%" width="100%"/><g fill="#5648ed"><path d="m90 210h140v10h-140z"/><path d="m90 220h140v10h-140z"/><path d="m90 230h140v10h-140z"/><path d="m90 240h140v10h-140z"/><path d="m90 250h20v10h-20z"/><path d="m120 250h110v10h-110z"/><path d="m90 260h20v10h-20z"/><path d="m120 260h110v10h-110z"/><path d="m90 270h20v10h-20z"/><path d="m120 270h110v10h-110z"/><path d="m90 280h20v10h-20z"/><path d="m120 280h110v10h-110z"/><path d="m90 290h20v10h-20z"/><path d="m120 290h110v10h-110z"/><path d="m90 300h20v10h-20z"/><path d="m120 300h110v10h-110z"/><path d="m90 310h20v10h-20z"/><path d="m120 310h110v10h-110z"/></g><path d="m140 240h10v10h-10z" fill="#70e890"/><path d="m170 240h10v10h-10z" fill="#70e890"/><path d="m150 250h20v10h-20z" fill="#70e890"/><path d="m150 260h20v10h-20z" fill="#70e890"/><path d="m140 270h10v10h-10z" fill="#70e890"/><path d="m170 270h10v10h-10z" fill="#70e890"/><path d="m70 60h50v10h-50z" fill="#7e5243"/><path d="m190 60h50v10h-50z" fill="#7e5243"/><path d="m70 70h50v10h-50z" fill="#7e5243"/><path d="m190 70h50v10h-50z" fill="#7e5243"/><path d="m70 80h50v10h-50z" fill="#7e5243"/><path d="m190 80h50v10h-50z" fill="#7e5243"/><path d="m70 90h170v10h-170z" fill="#ffc110"/><path d="m70 100h170v10h-170z" fill="#5648ed"/><path d="m70 110h170v10h-170z" fill="#ffc110"/><path d="m70 120h20v10h-20z" fill="#7e5243"/><path d="m90 120h140v10h-140z" fill="#d4b7b2"/><path d="m230 120h10v10h-10z" fill="#7e5243"/><path d="m70 130h20v10h-20z" fill="#7e5243"/><path d="m90 130h140v10h-140z" fill="#d4b7b2"/><path d="m230 130h10v10h-10z" fill="#7e5243"/><path d="m60 140h30v10h-30z" fill="#7e5243"/><path d="m90 140h140v10h-140z" fill="#d4b7b2"/><path d="m230 140h10v10h-10z" fill="#7e5243"/><path d="m50 150h40v10h-40z" fill="#7e5243"/><path d="m90 150h140v10h-140z" fill="#d4b7b2"/><path d="m230 150h10v10h-10z" fill="#7e5243"/><path d="m40 160h50v10h-50z" fill="#7e5243"/><path d="m90 160h170v10h-170z" fill="#d4b7b2"/><path d="m260 160h20v10h-20z" fill="#7e5243"/><path d="m70 170h20v10h-20z" fill="#7e5243"/><path d="m90 170h10v10h-10z" fill="#d4b7b2"/><path d="m100 170h10v10h-10z" fill="#c3a199"/><path d="m110 170h10v10h-10z" fill="#d4b7b2"/><path d="m120 170h10v10h-10z" fill="#c3a199"/><path d="m130 170h150v10h-150z" fill="#d4b7b2"/><path d="m60 180h30v10h-30z" fill="#7e5243"/><path d="m90 180h10v10h-10z" fill="#d4b7b2"/><path d="m100 180h10v10h-10z" fill="#c3a199"/><path d="m110 180h10v10h-10z" fill="#d4b7b2"/><path d="m120 180h10v10h-10z" fill="#c3a199"/><path d="m130 180h10v10h-10z" fill="#d4b7b2"/><path d="m140 180h40v10h-40z"/><path d="m180 180h10v10h-10z" fill="#fff"/><path d="m190 180h10v10h-10z"/><path d="m200 180h10v10h-10z" fill="#fff"/><path d="m210 180h30v10h-30z"/><path d="m240 180h30v10h-30z" fill="#d4b7b2"/><path d="m50 190h40v10h-40z" fill="#7e5243"/><path d="m90 190h10v10h-10z" fill="#d4b7b2"/><path d="m100 190h10v10h-10z" fill="#c3a199"/><path d="m110 190h10v10h-10z" fill="#d4b7b2"/><path d="m120 190h10v10h-10z" fill="#c3a199"/><path d="m130 190h20v10h-20z"/><path d="m150 190h10v10h-10z" fill="#fff"/><path d="m160 190h60v10h-60z"/><path d="m220 190h10v10h-10z" fill="#fff"/><path d="m230 190h20v10h-20z"/><path d="m250 190h10v10h-10z" fill="#d4b7b2"/><path d="m40 200h50v10h-50z" fill="#7e5243"/><path d="m90 200h10v10h-10z" fill="#d4b7b2"/><path d="m100 200h10v10h-10z" fill="#c3a199"/><path d="m110 200h10v10h-10z" fill="#d4b7b2"/><path d="m120 200h10v10h-10z" fill="#c3a199"/><path d="m130 200h120v10h-120z" fill="#d18687"/><path d="m100 110h60v10h-60z" fill="#ff638d"/><path d="m170 110h60v10h-60z" fill="#ff638d"/><path d="m100 120h10v10h-10z" fill="#ff638d"/><path d="m110 120h20v10h-20z" fill="#fff"/><path d="m130 120h20v10h-20z"/><path d="m150 120h10v10h-10z" fill="#ff638d"/><path d="m170 120h10v10h-10z" fill="#ff638d"/><path d="m180 120h20v10h-20z" fill="#fff"/><path d="m200 120h20v10h-20z"/><path d="m220 120h10v10h-10z" fill="#ff638d"/><path d="m70 130h40v10h-40z" fill="#ff638d"/><path d="m110 130h20v10h-20z" fill="#fff"/><path d="m130 130h20v10h-20z"/><path d="m150 130h30v10h-30z" fill="#ff638d"/><path d="m180 130h20v10h-20z" fill="#fff"/><path d="m200 130h20v10h-20z"/><path d="m220 130h10v10h-10z" fill="#ff638d"/><path d="m70 140h40v10h-40z" fill="#ff638d"/><path d="m110 140h20v10h-20z" fill="#fff"/><path d="m130 140h20v10h-20z"/><path d="m150 140h30v10h-30z" fill="#ff638d"/><path d="m180 140h20v10h-20z" fill="#fff"/><path d="m200 140h20v10h-20z"/><path d="m220 140h10v10h-10z" fill="#ff638d"/><path d="m70 150h10v10h-10z" fill="#ff638d"/><path d="m100 150h10v10h-10z" fill="#ff638d"/><path d="m110 150h20v10h-20z" fill="#fff"/><path d="m130 150h20v10h-20z"/><path d="m150 150h10v10h-10z" fill="#ff638d"/><path d="m170 150h10v10h-10z" fill="#ff638d"/><path d="m180 150h20v10h-20z" fill="#fff"/><path d="m200 150h20v10h-20z"/><path d="m220 150h10v10h-10z" fill="#ff638d"/><path d="m100 160h60v10h-60z" fill="#ff638d"/><path d="m170 160h60v10h-60z" fill="#ff638d"/></svg>