<svg height="320" shape-rendering="crispEdges" viewBox="0 0 320 320" width="320" xmlns="http://www.w3.org/2000/svg"><rect fill="#e1d7d5" height="100%" width="100%"/><g fill="#cfc2ab"><path d="m90 210h140v10h-140z"/><path d="m90 220h140v10h-140z"/><path d="m90 230h140v10h-140z"/><path d="m90 240h140v10h-140z"/><path d="m90 250h20v10h-20z"/><path d="m120 250h110v10h-110z"/><path d="m90 260h20v10h-20z"/><path d="m120 260h110v10h-110z"/><path d="m90 270h20v10h-20z"/><path d="m120 270h110v10h-110z"/><path d="m90 280h20v10h-20z"/><path d="m120 280h110v10h-110z"/><path d="m90 290h20v10h-20z"/><path d="m120 290h110v10h-110z"/><path d="m90 300h20v10h-20z"/><path d="m120 300h110v10h-110z"/><path d="m90 310h20v10h-20z"/><path d="m120 310h110v10h-110z"/></g><path d="m130 210h30v10h-30z" fill="#00a556"/><path d="m170 210h30v10h-30z" fill="#ffc925"/><path d="m210 210h20v10h-20z" fill="#fe500c"/><path d="m90 220h30v10h-30z" fill="#9f21a0"/><path d="m130 220h30v10h-30z" fill="#00a556"/><path d="m170 220h30v10h-30z" fill="#ffc925"/><path d="m90 230h30v10h-30z" fill="#9f21a0"/><path d="m130 230h30v10h-30z" fill="#00a556"/><path d="m200 230h30v10h-30z" fill="#9f21a0"/><path d="m90 240h30v10h-30z" fill="#9f21a0"/><path d="m160 240h30v10h-30z" fill="#c5030e"/><path d="m200 240h30v10h-30z" fill="#9f21a0"/><path d="m120 250h30v10h-30z" fill="#fe500c"/><path d="m160 250h30v10h-30z" fill="#c5030e"/><path d="m200 250h30v10h-30z" fill="#9f21a0"/><path d="m90 260h20v10h-20z" fill="#ffc925"/><path d="m120 260h30v10h-30z" fill="#fe500c"/><path d="m160 260h30v10h-30z" fill="#c5030e"/><path d="m90 270h20v10h-20z" fill="#ffc925"/><path d="m120 270h30v10h-30z" fill="#fe500c"/><path d="m190 270h30v10h-30z" fill="#ffc925"/><path d="m90 280h20v10h-20z" fill="#ffc925"/><path d="m150 280h30v10h-30z" fill="#00a556"/><path d="m190 280h30v10h-30z" fill="#ffc925"/><path d="m120 290h20v10h-20z" fill="#9f21a0"/><path d="m150 290h30v10h-30z" fill="#00a556"/><path d="m190 290h30v10h-30z" fill="#ffc925"/><path d="m90 300h10v10h-10z" fill="#c5030e"/><path d="m120 300h20v10h-20z" fill="#9f21a0"/><path d="m150 300h30v10h-30z" fill="#00a556"/><path d="m220 300h10v10h-10z" fill="#9f21a0"/><path d="m90 310h10v10h-10z" fill="#c5030e"/><path d="m120 310h20v10h-20z" fill="#9f21a0"/><path d="m180 310h30v10h-30z" fill="#c5030e"/><path d="m220 310h10v10h-10z" fill="#9f21a0"/><path d="m70 40h10v10h-10z" fill="#eab118"/><path d="m150 40h20v10h-20z" fill="#eab118"/><path d="m240 40h10v10h-10z" fill="#eab118"/><path d="m70 50h10v10h-10z" fill="#eab118"/><path d="m150 50h20v10h-20z" fill="#eab118"/><path d="m240 50h10v10h-10z" fill="#eab118"/><path d="m70 60h20v10h-20z" fill="#eab118"/><path d="m140 60h40v10h-40z" fill="#eab118"/><path d="m230 60h20v10h-20z" fill="#eab118"/><path d="m60 70h20v10h-20z" fill="#257ced"/><path d="m80 70h10v10h-10z" fill="#db8323"/><path d="m90 70h10v10h-10z" fill="#eab118"/><path d="m130 70h10v10h-10z" fill="#eab118"/><path d="m140 70h40v10h-40z" fill="#34ac80"/><path d="m180 70h10v10h-10z" fill="#eab118"/><path d="m220 70h10v10h-10z" fill="#eab118"/><path d="m230 70h10v10h-10z" fill="#db8323"/><path d="m240 70h20v10h-20z" fill="#ff1a0b"/><path d="m60 80h10v10h-10z" fill="#257ced"/><path d="m70 80h10v10h-10z" fill="#00499c"/><path d="m80 80h10v10h-10z" fill="#db8323"/><path d="m90 80h20v10h-20z" fill="#eab118"/><path d="m120 80h20v10h-20z" fill="#eab118"/><path d="m140 80h10v10h-10z" fill="#34ac80"/><path d="m150 80h20v10h-20z" fill="#42ffb0"/><path d="m170 80h10v10h-10z" fill="#068940"/><path d="m180 80h20v10h-20z" fill="#eab118"/><path d="m210 80h20v10h-20z" fill="#eab118"/><path d="m230 80h10v10h-10z" fill="#db8323"/><path d="m240 80h10v10h-10z" fill="#d22209"/><path d="m250 80h10v10h-10z" fill="#ff1a0b"/><path d="m60 90h20v10h-20z" fill="#00499c"/><path d="m80 90h10v10h-10z" fill="#db8323"/><path d="m90 90h50v10h-50z" fill="#eab118"/><path d="m140 90h20v10h-20z" fill="#34ac80"/><path d="m160 90h20v10h-20z" fill="#068940"/><path d="m180 90h50v10h-50z" fill="#eab118"/><path d="m230 90h10v10h-10z" fill="#db8323"/><path d="m240 90h20v10h-20z" fill="#d22209"/><path d="m70 100h180v10h-180z" fill="#eab118"/><path d="m70 110h180v10h-180z" fill="#eab118"/><path d="m70 120h180v10h-180z" fill="#eab118"/><path d="m70 130h180v10h-180z" fill="#eab118"/><path d="m70 140h180v10h-180z" fill="#eab118"/><path d="m70 150h180v10h-180z" fill="#eab118"/><path d="m70 160h180v10h-180z" fill="#eab118"/><path d="m70 170h180v10h-180z" fill="#eab118"/><path d="m80 180h10v10h-10z" fill="#6e3206"/><path d="m90 180h50v10h-50z" fill="#db8323"/><path d="m140 180h40v10h-40z" fill="#6e3206"/><path d="m180 180h50v10h-50z" fill="#db8323"/><path d="m230 180h10v10h-10z" fill="#6e3206"/><path d="m70 190h180v10h-180z" fill="#eab118"/><path d="m70 200h180v10h-180z" fill="#eab118"/><path d="m100 110h60v10h-60z" fill="#d7d3cd"/><path d="m170 110h60v10h-60z" fill="#d7d3cd"/><path d="m100 120h10v10h-10z" fill="#d7d3cd"/><path d="m110 120h20v10h-20z" fill="#fdf8ff"/><path d="m130 120h20v10h-20z"/><path d="m150 120h10v10h-10z" fill="#d7d3cd"/><path d="m170 120h10v10h-10z" fill="#d7d3cd"/><path d="m180 120h20v10h-20z" fill="#fdf8ff"/><path d="m200 120h20v10h-20z"/><path d="m220 120h10v10h-10z" fill="#d7d3cd"/><path d="m70 130h40v10h-40z" fill="#d7d3cd"/><path d="m110 130h20v10h-20z" fill="#fdf8ff"/><path d="m130 130h20v10h-20z"/><path d="m150 130h30v10h-30z" fill="#d7d3cd"/><path d="m180 130h20v10h-20z" fill="#fdf8ff"/><path d="m200 130h20v10h-20z"/><path d="m220 130h10v10h-10z" fill="#d7d3cd"/><path d="m70 140h10v10h-10z" fill="#d7d3cd"/><path d="m100 140h10v10h-10z" fill="#d7d3cd"/><path d="m110 140h20v10h-20z" fill="#fdf8ff"/><path d="m130 140h20v10h-20z"/><path d="m150 140h10v10h-10z" fill="#d7d3cd"/><path d="m170 140h10v10h-10z" fill="#d7d3cd"/><path d="m180 140h20v10h-20z" fill="#fdf8ff"/><path d="m200 140h20v10h-20z"/><path d="m220 140h10v10h-10z" fill="#d7d3cd"/><path d="m70 150h10v10h-10z" fill="#d7d3cd"/><path d="m100 150h10v10h-10z" fill="#d7d3cd"/><path d="m110 150h20v10h-20z" fill="#fdf8ff"/><path d="m130 150h20v10h-20z"/><path d="m150 150h10v10h-10z" fill="#d7d3cd"/><path d="m170 150h10v10h-10z" fill="#d7d3cd"/><path d="m180 150h20v10h-20z" fill="#fdf8ff"/><path d="m200 150h20v10h-20z"/><path d="m220 150h10v10h-10z" fill="#d7d3cd"/><path d="m100 160h60v10h-60z" fill="#d7d3cd"/><path d="m170 160h60v10h-60z" fill="#d7d3cd"/></svg>