<?xml version="1.0" encoding="UTF-8"?><svg id="b" xmlns="http://www.w3.org/2000/svg" viewBox="0 0 198.43 340.16"><defs><style>.f{fill:#0a0b00;}.g{opacity:.78;}.g,.h{stroke:#f2f2f2;}.g,.h,.i,.j,.k{fill:none;stroke-miterlimit:10;}.h,.i,.k{stroke-width:.5px;}.i,.j{stroke:#ff0;}.k{stroke:#999;}.l{fill:#999;}.m{fill:#ccc;}.n{fill:#ff0;opacity:.23;}.o{fill:#f2f2f2;}</style></defs><g id="c"><g id="d"><rect class="o" width="198.43" height="340.16" rx="1.34" ry="1.34"/><path class="f" d="m6.93,333.51c-1.16,0-2.1-.87-2.1-1.95V8.6c0-1.08.94-1.95,2.1-1.95h184.56c1.16,0,2.1.87,2.1,1.95v322.96c0,1.08-.94,1.95-2.1,1.95"/><rect class="h" x="7.74" y="9.5" width="182.95" height="321.15" rx="1.34" ry="1.34"/><path class="m" d="m99.67,28.68h-.87l-3.14-8.05h-.48c-.11,0-.2-.01-.24-.03-.05-.02-.09-.06-.12-.11-.03-.05-.05-.11-.05-.17s.02-.11.05-.17c.03-.05.07-.09.12-.11.05-.02.13-.03.24-.03h2.32c.12,0,.2.01.25.03.05.02.09.06.12.11.03.05.05.11.05.17s-.02.11-.05.17c-.03.05-.08.09-.12.11-.05.02-.13.03-.24.03h-1.19l2.89,7.43h.04l2.86-7.43h-1.19c-.12,0-.2-.01-.25-.03-.05-.02-.09-.06-.12-.11-.03-.05-.05-.11-.05-.17s.02-.11.05-.17c.03-.05.08-.09.12-.11.05-.02.13-.03.25-.03h2.31c.12,0,.2.01.25.03.05.02.09.06.12.11.03.05.05.11.05.17s-.02.11-.05.17c-.04.05-.08.09-.12.11-.05.02-.13.03-.25.03h-.47l-3.09,8.05Z"/><g id="e"><polygon class="n" points="30.59 150.39 68.35 150.39 68.35 86.13 30.59 150.39"/><line class="i" x1="68.35" y1="86.21" x2="68.35" y2="150.31"/><polygon class="n" points="167.82 150.31 130.06 150.31 130.06 86.05 167.82 150.31"/><line class="i" x1="130.06" y1="86.13" x2="130.06" y2="150.24"/><polygon class="j" points="106.11 150.3 30.59 150.3 68.35 85.76 106.11 150.3"/><line class="g" x1="106.11" y1="118.03" x2="30.59" y2="118.03"/><polygon class="j" points="167.82 150.3 92.3 150.3 130.06 85.76 167.82 150.3"/><line class="g" x1="167.82" y1="118.03" x2="92.3" y2="118.03"/><polygon class="n" points="94.81 254.26 57.05 254.26 57.05 190 94.81 254.26"/><line class="i" x1="57.08" y1="190.08" x2="57.08" y2="254.18"/><polygon class="j" points="94.84 254.4 19.31 254.4 57.08 189.86 94.84 254.4"/><line class="g" x1="94.84" y1="222.13" x2="19.31" y2="222.13"/><polygon class="n" points="179.11 254.26 141.35 254.26 141.35 190 179.11 254.26"/><line class="i" x1="141.35" y1="189.94" x2="141.35" y2="254.04"/><polygon class="j" points="179.11 254.4 103.58 254.4 141.35 189.86 179.11 254.4"/><line class="g" x1="179.11" y1="222.13" x2="103.59" y2="222.13"/><line class="g" x1="136.95" y1="179.45" x2="61.43" y2="179.45"/><line class="i" x1="99.22" y1="147.17" x2="99.16" y2="190.84"/><polygon class="n" points="136.41 211.28 99.16 190.84 99.25 147.66 136.41 211.28"/><polygon class="j" points="136.98 211.72 61.46 211.72 99.22 147.17 136.98 211.72"/><line class="i" x1="99.16" y1="190.84" x2="61.46" y2="211.72"/><line class="i" x1="99.16" y1="190.84" x2="136.98" y2="211.72"/></g><path class="l" d="m98.48,304.9v1.18h.42c.06,0,.09.01.12.03.02.02.03.05.03.08,0,.03-.01.06-.03.08-.02.02-.06.03-.12.03h-.94c-.05,0-.09-.01-.12-.03-.02-.02-.03-.05-.03-.08,0-.03.01-.06.03-.08.02-.02.06-.03.12-.03h.3v-2.69h-.3c-.05,0-.09-.01-.12-.03-.02-.02-.03-.05-.03-.08s.01-.06.03-.08c.02-.02.06-.03.12-.03h1.36c.28,0,.52.09.71.27.19.18.29.38.29.6,0,.16-.06.31-.18.45-.12.14-.32.26-.6.36.16.11.3.24.41.38.11.14.3.43.55.86h.17c.05,0,.09.01.12.03.02.02.03.05.03.08,0,.03-.01.06-.03.08-.02.02-.06.03-.12.03h-.3c-.28-.5-.49-.83-.65-1-.15-.17-.33-.3-.53-.4h-.72Zm0-.23h.61c.2,0,.38-.04.54-.11.16-.07.28-.16.35-.25s.11-.19.11-.3c0-.15-.08-.29-.23-.43-.15-.14-.33-.2-.55-.2h-.83v1.29Z"/><path class="l" d="m93.05,312.33h-1.48l-.3.82h.43c.05,0,.09.01.12.03.02.02.03.05.03.08,0,.03-.01.06-.03.08-.02.02-.06.03-.12.03h-.84c-.05,0-.09-.01-.12-.03-.02-.02-.03-.05-.03-.08,0-.03.01-.06.03-.08.02-.02.06-.03.12-.03h.17l1-2.69h-.67c-.05,0-.09-.01-.12-.03-.02-.02-.03-.05-.03-.08s.01-.06.03-.08c.02-.02.06-.03.12-.03h1.13l1.1,2.91h.17c.05,0,.09.01.12.03.02.02.03.05.03.08,0,.03-.01.06-.03.08-.02.02-.06.03-.12.03h-.84c-.06,0-.09-.01-.12-.03-.02-.02-.03-.05-.03-.08,0-.03.01-.06.03-.08.02-.02.06-.03.12-.03h.43l-.31-.82Zm-.09-.23l-.62-1.64h-.08l-.6,1.64h1.31Z"/><path class="l" d="m107.72,311.89c0,.3-.06.58-.18.84-.12.26-.29.46-.5.6-.21.14-.44.21-.69.21-.36,0-.68-.15-.96-.46s-.41-.7-.41-1.19.14-.88.41-1.19c.28-.31.6-.46.96-.46.25,0,.47.07.69.21.21.14.38.34.5.6.12.26.18.53.18.84Zm-.23,0c0-.37-.11-.7-.32-.99-.21-.29-.49-.44-.83-.44-.32,0-.59.14-.81.42-.22.28-.34.61-.34,1.01,0,.42.12.76.35,1.03.24.27.5.4.8.4.34,0,.61-.15.83-.44.21-.29.32-.62.32-.99Z"/><path class="l" d="m99.32,317.24v2.69h.58c.05,0,.09.01.12.03.02.02.03.05.03.08,0,.03-.01.06-.03.08-.02.02-.06.03-.12.03h-1.4c-.05,0-.09-.01-.12-.03-.02-.02-.03-.05-.03-.08,0-.03.01-.06.03-.08.02-.02.06-.03.12-.03h.58v-2.69h-.92v.78c0,.06-.01.09-.03.12-.02.02-.05.03-.08.03-.03,0-.06-.01-.08-.03-.02-.02-.03-.06-.03-.12v-1.01h2.52v1.01c0,.06-.01.09-.03.12-.02.02-.05.03-.08.03s-.06-.01-.08-.03c-.02-.02-.03-.06-.03-.12v-.78h-.92Z"/><path class="k" d="m106.34,309.6c-.74-2.52-2.78-4.48-5.33-5.11"/><path class="k" d="m101.02,318.88c2.37-.59,4.28-2.31,5.14-4.55"/><path class="k" d="m92.32,314.33c.84,2.2,2.7,3.89,4.99,4.51"/><path class="k" d="m97.55,304.64c-2.54.67-4.55,2.65-5.25,5.18"/></g></g></svg>