<svg height="320" shape-rendering="crispEdges" viewBox="0 0 320 320" width="320" xmlns="http://www.w3.org/2000/svg"><rect fill="#e1d7d5" height="100%" width="100%"/><g fill="#5a65fa"><path d="m90 210h140v10h-140z"/><path d="m90 220h140v10h-140z"/><path d="m90 230h140v10h-140z"/><path d="m90 240h140v10h-140z"/><path d="m90 250h20v10h-20z"/><path d="m120 250h110v10h-110z"/><path d="m90 260h20v10h-20z"/><path d="m120 260h110v10h-110z"/><path d="m90 270h20v10h-20z"/><path d="m120 270h110v10h-110z"/><path d="m90 280h20v10h-20z"/><path d="m120 280h110v10h-110z"/><path d="m90 290h20v10h-20z"/><path d="m120 290h110v10h-110z"/><path d="m90 300h20v10h-20z"/><path d="m120 300h110v10h-110z"/><path d="m90 310h20v10h-20z"/><path d="m120 310h110v10h-110z"/></g><path d="m140 220h20v10h-20z" fill="#fa6fe2"/><path d="m170 220h10v10h-10z" fill="#fa6fe2"/><path d="m140 230h10v10h-10z" fill="#fa6fe2"/><path d="m160 230h20v10h-20z" fill="#fa6fe2"/><path d="m130 250h20v10h-20z" fill="#fa6fe2"/><path d="m160 250h10v10h-10z" fill="#fa6fe2"/><path d="m180 250h10v10h-10z" fill="#fa6fe2"/><path d="m130 260h20v10h-20z" fill="#fa6fe2"/><path d="m160 260h30v10h-30z" fill="#fa6fe2"/><path d="m140 280h20v10h-20z" fill="#fa6fe2"/><path d="m170 280h10v10h-10z" fill="#fa6fe2"/><path d="m140 290h10v10h-10z" fill="#fa6fe2"/><path d="m160 290h20v10h-20z" fill="#fa6fe2"/><path d="m170 70h10v10h-10z" fill="#63a0f9"/><path d="m170 80h10v10h-10z" fill="#63a0f9"/><path d="m130 90h30v10h-30z" fill="#807f7e"/><path d="m170 90h20v10h-20z" fill="#63a0f9"/><path d="m160 100h10v10h-10z" fill="#807f7e"/><path d="m170 100h20v10h-20z" fill="#63a0f9"/><path d="m160 110h10v10h-10z" fill="#807f7e"/><path d="m170 110h20v10h-20z" fill="#63a0f9"/><path d="m160 120h10v10h-10z"/><path d="m170 120h10v10h-10z" fill="#63a0f9"/><path d="m180 120h20v10h-20z" fill="#ffc110"/><path d="m150 130h30v10h-30z"/><path d="m180 130h40v10h-40z" fill="#ffc110"/><path d="m50 140h30v10h-30z"/><path d="m140 140h30v10h-30z"/><path d="m170 140h20v10h-20z" fill="#ffc110"/><path d="m190 140h10v10h-10z" fill="#e11833"/><path d="m200 140h50v10h-50z" fill="#ffc110"/><path d="m50 150h120v10h-120z"/><path d="m170 150h10v10h-10z" fill="#ffc110"/><path d="m180 150h30v10h-30z" fill="#e11833"/><path d="m210 150h10v10h-10z" fill="#63a0f9"/><path d="m220 150h50v10h-50z" fill="#ffc110"/><path d="m50 160h110v10h-110z"/><path d="m160 160h20v10h-20z" fill="#ffc110"/><path d="m180 160h20v10h-20z" fill="#e11833"/><path d="m200 160h80v10h-80z" fill="#63a0f9"/><path d="m50 170h20v10h-20z"/><path d="m70 170h90v10h-90z" fill="#fff"/><path d="m160 170h20v10h-20z" fill="#ffc110"/><path d="m180 170h20v10h-20z" fill="#e11833"/><path d="m200 170h80v10h-80z" fill="#63a0f9"/><path d="m50 180h50v10h-50z" fill="#fff"/><path d="m100 180h10v10h-10z"/><path d="m110 180h170v10h-170z" fill="#fff"/><path d="m50 190h60v10h-60z" fill="#fff"/><path d="m110 190h30v10h-30z"/><path d="m140 190h10v10h-10z" fill="#fff"/><path d="m150 190h110v10h-110z" fill="#807f7e"/><path d="m290 190h10v10h-10z" fill="#63a0f9"/><path d="m50 200h100v10h-100z" fill="#fff"/><path d="m150 200h100v10h-100z" fill="#807f7e"/><path d="m280 200h10v10h-10z" fill="#63a0f9"/><path d="m60 210h10v10h-10z"/><path d="m70 210h10v10h-10z" fill="#807f7e"/><path d="m80 210h10v10h-10z"/><path d="m90 210h10v10h-10z" fill="#807f7e"/><path d="m100 210h10v10h-10z"/><path d="m110 210h10v10h-10z" fill="#807f7e"/><path d="m120 210h10v10h-10z"/><path d="m140 210h140v10h-140z" fill="#63a0f9"/><path d="m100 110h60v10h-60z" fill="#d19a54"/><path d="m170 110h60v10h-60z" fill="#d19a54"/><path d="m100 120h10v10h-10z" fill="#d19a54"/><path d="m110 120h20v10h-20z" fill="#fff"/><path d="m130 120h20v10h-20z"/><path d="m150 120h10v10h-10z" fill="#d19a54"/><path d="m170 120h10v10h-10z" fill="#d19a54"/><path d="m180 120h20v10h-20z" fill="#fff"/><path d="m200 120h20v10h-20z"/><path d="m220 120h10v10h-10z" fill="#d19a54"/><path d="m70 130h40v10h-40z" fill="#d19a54"/><path d="m110 130h20v10h-20z" fill="#fff"/><path d="m130 130h20v10h-20z"/><path d="m150 130h30v10h-30z" fill="#d19a54"/><path d="m180 130h20v10h-20z" fill="#fff"/><path d="m200 130h20v10h-20z"/><path d="m220 130h10v10h-10z" fill="#d19a54"/><path d="m70 140h10v10h-10z" fill="#d19a54"/><path d="m100 140h10v10h-10z" fill="#d19a54"/><path d="m110 140h20v10h-20z" fill="#fff"/><path d="m130 140h20v10h-20z"/><path d="m150 140h10v10h-10z" fill="#d19a54"/><path d="m170 140h10v10h-10z" fill="#d19a54"/><path d="m180 140h20v10h-20z" fill="#fff"/><path d="m200 140h20v10h-20z"/><path d="m220 140h10v10h-10z" fill="#d19a54"/><path d="m70 150h10v10h-10z" fill="#d19a54"/><path d="m100 150h10v10h-10z" fill="#d19a54"/><path d="m110 150h20v10h-20z" fill="#fff"/><path d="m130 150h20v10h-20z"/><path d="m150 150h10v10h-10z" fill="#d19a54"/><path d="m170 150h10v10h-10z" fill="#d19a54"/><path d="m180 150h20v10h-20z" fill="#fff"/><path d="m200 150h20v10h-20z"/><path d="m220 150h10v10h-10z" fill="#d19a54"/><path d="m100 160h60v10h-60z" fill="#d19a54"/><path d="m170 160h60v10h-60z" fill="#d19a54"/></svg>