<svg xmlns="http://www.w3.org/2000/svg" width="512" height="512" fill="none"><path fill="#F90" d="M0 0h512v512H0z"/><path fill="#56C399" d="M84 340h344v160H84z"/><g><animateTransform attributeName="transform" dur="0.4s" keyTimes="0;0.5;1" repeatCount="indefinite" type="translate" values="0 0;0 28;0 0"/><path fill="#82DCB9" d="M196 176h120v296H196z"/><path fill="#D22D27" d="m264 403 52 12v10l-52-22Z"/><path fill="#fff" d="m283 401 3.625 1.69-6.762 14.501-3.625-1.69zM301 408l3.864 1.035-4.141 15.455-3.864-1.035z"/><path fill="#56C399" d="m196 300 120-16v4l-120 16v-4Z"/><path fill="#fff" d="m212 292 3.985-.349 1.394 15.94-3.985.348zM240 288l3.985-.349 1.394 15.94-3.985.348zM268 284l3.985-.349 1.394 15.94-3.985.348zM296 280l3.985-.349 1.394 15.94-3.985.348z"/><path fill="#56C399" d="M196 96h120v80H196z"/><path fill="#82DCB9" d="M250 96h12v36h-12z"><animate attributeName="fill" begin="5s" dur="0.4s" repeatCount="5" values="#82DCB9; #fff; #82DCB9"/></path><path fill="#96469A" d="M196 96c0-17.673 14.327-32 32-32h56c17.673 0 32 14.327 32 32H196ZM196 120h120V96H196z"/><path fill="#704B9F" d="M196 144h120v-24H196z"/><path stroke="#121212" stroke-width="6" d="M250 202h12M178.027 179.789l24 22"/><circle cx="226" cy="203" r="24" stroke="#121212" stroke-width="6"/><path stroke="#121212" stroke-width="6" d="m333.973 179.789-24 22"/><circle cx="27" cy="27" r="24" stroke="#121212" stroke-width="6" transform="matrix(-1 0 0 1 313 176)"/><mask id="a" width="42" height="42" x="265" y="182" maskUnits="userSpaceOnUse" style="mask-type:alpha"><circle cx="286" cy="203" r="21" fill="#D9D9D9"/></mask><g mask="url(#a)"><path fill="#D9D9D9" d="M272.179 182h8.782l-10.539 42h-8.781l10.538-42Z"><animateTransform attributeName="transform" dur="4s" keyTimes="0;0.1;0.3;1" repeatCount="indefinite" type="translate" values="-32 0;-32 0;48 0;48 0"/></path></g><mask id="b" width="42" height="42" x="205" y="182" maskUnits="userSpaceOnUse" style="mask-type:alpha"><circle cx="226" cy="203" r="21" fill="#D9D9D9"/></mask><g mask="url(#b)"><path fill="#D9D9D9" d="M212.179 182h8.782l-10.539 42h-8.781l10.538-42Z"><animateTransform attributeName="transform" dur="4s" keyTimes="0;0.1;0.3;1" repeatCount="indefinite" type="translate" values="-32 0;-32 0;48 0;48 0"/></path></g><path stroke="#121212" stroke-width="6" d="M230 340h50"/><path fill="#2D2D2D" stroke="#121212" stroke-width="6" d="M261 356h16v-16h-16zM257 420h24v-64h-24z"/><path fill="#fff" stroke="#121212" stroke-width="6" d="M257 368h24v-12h-24z"/><path fill="#D22D27" d="M265 388h8v-8h-8z"><animate attributeName="fill" dur="4s" keyTimes="0;0.8;1" repeatCount="indefinite" values="#6C0400;#FF0900;#6C0400"/></path></g></svg>