<svg height="320" shape-rendering="crispEdges" viewBox="0 0 320 320" width="320" xmlns="http://www.w3.org/2000/svg"><rect fill="#d5d7e1" height="100%" width="100%"/><g fill="#fffdf2"><path d="m90 210h140v10h-140z"/><path d="m90 220h140v10h-140z"/><path d="m90 230h140v10h-140z"/><path d="m90 240h140v10h-140z"/><path d="m90 250h20v10h-20z"/><path d="m120 250h110v10h-110z"/><path d="m90 260h20v10h-20z"/><path d="m120 260h110v10h-110z"/><path d="m90 270h20v10h-20z"/><path d="m120 270h110v10h-110z"/><path d="m90 280h20v10h-20z"/><path d="m120 280h110v10h-110z"/><path d="m90 290h20v10h-20z"/><path d="m120 290h110v10h-110z"/><path d="m90 300h20v10h-20z"/><path d="m120 300h110v10h-110z"/><path d="m90 310h20v10h-20z"/><path d="m120 310h110v10h-110z"/></g><path d="m90 210h140v10h-140z" fill="#c5b9a1"/><path d="m90 220h140v10h-140z" fill="#c5b9a1"/><path d="m90 230h140v10h-140z" fill="#c5b9a1"/><path d="m90 240h140v10h-140z" fill="#c5b9a1"/><path d="m90 250h20v10h-20z" fill="#c5b9a1"/><path d="m120 250h110v10h-110z" fill="#c5b9a1"/><path d="m90 260h20v10h-20z" fill="#c5b9a1"/><path d="m120 260h110v10h-110z" fill="#c5b9a1"/><path d="m90 270h20v10h-20z" fill="#c5b9a1"/><path d="m120 270h110v10h-110z" fill="#c5b9a1"/><path d="m90 280h20v10h-20z" fill="#c5b9a1"/><path d="m120 280h110v10h-110z" fill="#c5b9a1"/><path d="m90 290h20v10h-20z" fill="#c5b9a1"/><path d="m120 290h110v10h-110z" fill="#c5b9a1"/><path d="m90 300h20v10h-20z" fill="#c5b9a1"/><path d="m120 300h110v10h-110z" fill="#c5b9a1"/><path d="m90 310h20v10h-20z" fill="#c5b9a1"/><path d="m120 310h110v10h-110z" fill="#c5b9a1"/><path d="m90 50h40v10h-40z" fill="#f3322c"/><path d="m190 50h40v10h-40z" fill="#f3322c"/><path d="m70 60h80v10h-80z" fill="#f3322c"/><path d="m170 60h80v10h-80z" fill="#f3322c"/><path d="m30 70h10v10h-10z" fill="#f3322c"/><path d="m60 70h200v10h-200z" fill="#f3322c"/><path d="m280 70h10v10h-10z" fill="#f3322c"/><path d="m30 80h70v10h-70z" fill="#f3322c"/><path d="m100 80h20v10h-20z" fill="#fff"/><path d="m120 80h80v10h-80z" fill="#f3322c"/><path d="m200 80h20v10h-20z" fill="#fff"/><path d="m220 80h70v10h-70z" fill="#f3322c"/><path d="m30 90h10v10h-10z" fill="#f3322c"/><path d="m40 90h10v10h-10z" fill="#fff"/><path d="m50 90h220v10h-220z" fill="#f3322c"/><path d="m270 90h10v10h-10z" fill="#fff"/><path d="m280 90h10v10h-10z" fill="#f3322c"/><path d="m30 100h10v10h-10z" fill="#f3322c"/><path d="m40 100h40v10h-40z" fill="#fff"/><path d="m80 100h160v10h-160z" fill="#f3322c"/><path d="m240 100h40v10h-40z" fill="#fff"/><path d="m280 100h10v10h-10z" fill="#f3322c"/><path d="m30 110h20v10h-20z" fill="#f3322c"/><path d="m50 110h220v10h-220z" fill="#fff"/><path d="m270 110h20v10h-20z" fill="#f3322c"/><path d="m30 120h30v10h-30z" fill="#f3322c"/><path d="m60 120h200v10h-200z" fill="#fff"/><path d="m260 120h30v10h-30z" fill="#f3322c"/><path d="m40 130h30v10h-30z" fill="#f3322c"/><path d="m70 130h180v10h-180z" fill="#fff"/><path d="m250 130h30v10h-30z" fill="#f3322c"/><path d="m40 140h40v10h-40z" fill="#f3322c"/><path d="m80 140h160v10h-160z" fill="#fff"/><path d="m240 140h40v10h-40z" fill="#f3322c"/><path d="m50 150h40v10h-40z" fill="#f3322c"/><path d="m90 150h140v10h-140z" fill="#fff"/><path d="m230 150h40v10h-40z" fill="#f3322c"/><path d="m50 160h60v10h-60z" fill="#f3322c"/><path d="m110 160h100v10h-100z" fill="#fff"/><path d="m210 160h60v10h-60z" fill="#f3322c"/><path d="m60 170h200v10h-200z" fill="#f3322c"/><path d="m70 180h100v10h-100z" fill="#f3322c"/><path d="m170 180h20v10h-20z" fill="#fff"/><path d="m190 180h60v10h-60z" fill="#f3322c"/><path d="m80 190h160v10h-160z" fill="#f3322c"/><path d="m100 200h120v10h-120z" fill="#f3322c"/><path d="m100 110h60v10h-60z"/><path d="m170 110h60v10h-60z"/><path d="m100 120h10v10h-10z"/><path d="m110 120h20v10h-20z" fill="#fff"/><path d="m130 120h30v10h-30z"/><path d="m170 120h10v10h-10z"/><path d="m180 120h20v10h-20z" fill="#fff"/><path d="m200 120h30v10h-30z"/><path d="m70 130h40v10h-40z"/><path d="m110 130h20v10h-20z" fill="#fff"/><path d="m130 130h50v10h-50z"/><path d="m180 130h20v10h-20z" fill="#fff"/><path d="m200 130h30v10h-30z"/><path d="m70 140h10v10h-10z"/><path d="m100 140h10v10h-10z"/><path d="m110 140h20v10h-20z" fill="#fff"/><path d="m130 140h30v10h-30z"/><path d="m170 140h10v10h-10z"/><path d="m180 140h20v10h-20z" fill="#fff"/><path d="m200 140h30v10h-30z"/><path d="m70 150h10v10h-10z"/><path d="m100 150h10v10h-10z"/><path d="m110 150h20v10h-20z" fill="#fff"/><path d="m130 150h30v10h-30z"/><path d="m170 150h10v10h-10z"/><path d="m180 150h20v10h-20z" fill="#fff"/><path d="m200 150h30v10h-30z"/><path d="m100 160h60v10h-60z"/><path d="m170 160h60v10h-60z"/></svg>