<?xml version="1.0" encoding="UTF-8"?><svg id="_レイヤー_2" xmlns="http://www.w3.org/2000/svg" viewBox="0 0 833.33 833.33"><defs><style>.cls-1,.cls-2,.cls-3{stroke-width:0px;}.cls-2{fill:#369fba;}.cls-3{fill:#fff;}</style></defs><g id="_レイヤー_1-2"><rect class="cls-2" width="833.33" height="833.33"/><path class="cls-3" d="m208.33,510v21.67c0,5.52,4.48,10,10,10h21.67c5.52,0,10-4.48,10-10v-31.67h-31.67c-5.52,0-10,4.48-10,10Z"/><path class="cls-3" d="m615,458.33h-31.67v-73.33c0-5.52-4.48-10-10-10h-31.67v-31.67c0-5.52-4.48-10-10-10h-52.5v-31.67c0-5.52-4.48-10-10-10h-10.83v-20.83h20.83v10.83c0,5.52,4.48,10,10,10h42.5c5.52,0,10-4.48,10-10v-10.83h10.83c5.52,0,10-4.48,10-10v-21.67c0-5.52-4.48-10-10-10h-10.83v-10.83c0-5.52-4.48-10-10-10h-10.83v-10.83c0-5.52-4.48-10-10-10h-21.67c-5.52,0-10,4.48-10,10v10.83h-10.83c-5.52,0-10,4.48-10,10v10.83h-10.83c-5.52,0-10,4.48-10,10v94.17h-20.83v-135.83c0-5.52-4.48-10-10-10h-10.83v-10.83c0-5.52-4.48-10-10-10h-10.83v-10.83c0-5.52-4.48-10-10-10h-63.33c-5.52,0-10,4.48-10,10v63.33c0,5.52,4.48,10,10,10h10.83v31.67c0,5.52,4.48,10,10,10h10.83v10.83c0,5.52,4.48,10,10,10h10.83v10.83c0,5.52,4.48,10,10,10h10.83v20.83h-73.33c-5.52,0-10,4.48-10,10v31.67h-31.67c-5.52,0-10,4.48-10,10v115h41.67v73.33c0,5.52,4.48,10,10,10h21.67c5.52,0,10-4.48,10-10v-31.67h83.33v31.67c0,5.52,4.48,10,10,10h21.67c5.52,0,10-4.48,10-10v-31.67h73.33c5.52,0,10-4.48,10-10v-31.67h73.33c5.52,0,10-4.48,10-10v-21.67c0-5.52-4.48-10-10-10Z"/><path class="cls-1" d="m479.17,463.21v-10.83h-20.83v31.67c0,5.52,4.48,10,10,10h21.67c5.52,0,10-4.48,10-10v-10.83h-10.83c-5.52,0-10-4.48-10-10Z"/><path class="cls-1" d="m395.83,463.21v-10.83h-20.83v31.67c0,5.52,4.48,10,10,10h21.67c5.52,0,10-4.48,10-10v-10.83h-10.83c-5.52,0-10-4.48-10-10Z"/><path class="cls-2" d="m468.33,410.71h21.67c5.52,0,10,4.48,10,10v31.67h-41.67v-31.67c0-5.52,4.48-10,10-10Z"/><path class="cls-2" d="m385,410.71h21.67c5.52,0,10,4.48,10,10v31.67h-41.67v-31.67c0-5.52,4.48-10,10-10Z"/></g></svg>