<svg height="320" shape-rendering="crispEdges" viewBox="0 0 320 320" width="320" xmlns="http://www.w3.org/2000/svg"><rect fill="#e1d7d5" height="100%" width="100%"/><g fill="#80a72d"><path d="m90 210h140v10h-140z"/><path d="m90 220h140v10h-140z"/><path d="m90 230h140v10h-140z"/><path d="m90 240h140v10h-140z"/><path d="m90 250h20v10h-20z"/><path d="m120 250h110v10h-110z"/><path d="m90 260h20v10h-20z"/><path d="m120 260h110v10h-110z"/><path d="m90 270h20v10h-20z"/><path d="m120 270h110v10h-110z"/><path d="m90 280h20v10h-20z"/><path d="m120 280h110v10h-110z"/><path d="m90 290h20v10h-20z"/><path d="m120 290h110v10h-110z"/><path d="m90 300h20v10h-20z"/><path d="m120 300h110v10h-110z"/><path d="m90 310h20v10h-20z"/><path d="m120 310h110v10h-110z"/></g><path d="m130 220h10v10h-10z"/><path d="m110 230h30v10h-30z"/><path d="m110 240h10v10h-10z"/><path d="m130 240h30v10h-30z"/><path d="m120 250h20v10h-20z"/><path d="m150 250h30v10h-30z"/><path d="m140 260h20v10h-20z"/><path d="m170 260h30v10h-30z"/><path d="m160 270h20v10h-20z"/><path d="m190 270h30v10h-30z"/><path d="m190 280h10v10h-10z"/><path d="m210 280h10v10h-10z"/><path d="m210 290h10v10h-10z"/><path d="m50 90h220v10h-220z" fill="#8dd122"/><path d="m30 100h30v10h-30z" fill="#8dd122"/><path d="m60 100h10v10h-10z" fill="#ff82ad"/><path d="m70 100h30v10h-30z" fill="#ff1ad2"/><path d="m100 100h10v10h-10z" fill="#ff82ad"/><path d="m110 100h100v10h-100z" fill="#8dd122"/><path d="m210 100h10v10h-10z" fill="#ff82ad"/><path d="m220 100h30v10h-30z" fill="#ff1ad2"/><path d="m250 100h10v10h-10z" fill="#ff82ad"/><path d="m260 100h30v10h-30z" fill="#8dd122"/><path d="m30 110h10v10h-10z" fill="#8dd122"/><path d="m40 110h10v10h-10z" fill="#80a72d"/><path d="m50 110h10v10h-10z" fill="#8dd122"/><path d="m60 110h10v10h-10z" fill="#ff82ad"/><path d="m70 110h30v10h-30z" fill="#ff1ad2"/><path d="m100 110h10v10h-10z" fill="#ff82ad"/><path d="m110 110h100v10h-100z" fill="#8dd122"/><path d="m210 110h10v10h-10z" fill="#ff82ad"/><path d="m220 110h30v10h-30z" fill="#ff1ad2"/><path d="m250 110h10v10h-10z" fill="#ff82ad"/><path d="m260 110h10v10h-10z" fill="#8dd122"/><path d="m270 110h10v10h-10z" fill="#80a72d"/><path d="m280 110h10v10h-10z" fill="#8dd122"/><path d="m20 120h20v10h-20z" fill="#8dd122"/><path d="m40 120h10v10h-10z" fill="#80a72d"/><path d="m50 120h10v10h-10z" fill="#8dd122"/><path d="m60 120h10v10h-10z" fill="#ff82ad"/><path d="m70 120h30v10h-30z" fill="#ff1ad2"/><path d="m100 120h10v10h-10z" fill="#ff82ad"/><path d="m110 120h100v10h-100z" fill="#8dd122"/><path d="m210 120h10v10h-10z" fill="#ff82ad"/><path d="m220 120h30v10h-30z" fill="#ff1ad2"/><path d="m250 120h10v10h-10z" fill="#ff82ad"/><path d="m260 120h10v10h-10z" fill="#8dd122"/><path d="m270 120h10v10h-10z" fill="#80a72d"/><path d="m280 120h20v10h-20z" fill="#8dd122"/><path d="m20 130h20v10h-20z" fill="#8dd122"/><path d="m40 130h10v10h-10z" fill="#80a72d"/><path d="m50 130h30v10h-30z" fill="#8dd122"/><path d="m80 130h10v10h-10z" fill="#b2958d"/><path d="m90 130h140v10h-140z" fill="#8dd122"/><path d="m230 130h10v10h-10z" fill="#b2958d"/><path d="m240 130h30v10h-30z" fill="#8dd122"/><path d="m270 130h10v10h-10z" fill="#80a72d"/><path d="m280 130h20v10h-20z" fill="#8dd122"/><path d="m20 140h20v10h-20z" fill="#8dd122"/><path d="m40 140h10v10h-10z" fill="#80a72d"/><path d="m50 140h30v10h-30z" fill="#8dd122"/><path d="m80 140h10v10h-10z" fill="#b2958d"/><path d="m90 140h140v10h-140z" fill="#8dd122"/><path d="m230 140h10v10h-10z" fill="#b2958d"/><path d="m240 140h30v10h-30z" fill="#8dd122"/><path d="m270 140h10v10h-10z" fill="#80a72d"/><path d="m280 140h20v10h-20z" fill="#8dd122"/><path d="m20 150h20v10h-20z" fill="#8dd122"/><path d="m40 150h10v10h-10z" fill="#80a72d"/><path d="m50 150h30v10h-30z" fill="#8dd122"/><path d="m80 150h10v10h-10z" fill="#b2958d"/><path d="m90 150h140v10h-140z" fill="#8dd122"/><path d="m230 150h10v10h-10z" fill="#b2958d"/><path d="m240 150h30v10h-30z" fill="#8dd122"/><path d="m270 150h10v10h-10z" fill="#80a72d"/><path d="m280 150h20v10h-20z" fill="#8dd122"/><path d="m20 160h20v10h-20z" fill="#8dd122"/><path d="m40 160h10v10h-10z" fill="#80a72d"/><path d="m50 160h30v10h-30z" fill="#8dd122"/><path d="m80 160h10v10h-10z" fill="#b2958d"/><path d="m90 160h140v10h-140z" fill="#8dd122"/><path d="m230 160h10v10h-10z" fill="#b2958d"/><path d="m240 160h30v10h-30z" fill="#8dd122"/><path d="m270 160h10v10h-10z" fill="#80a72d"/><path d="m280 160h20v10h-20z" fill="#8dd122"/><path d="m20 170h20v10h-20z" fill="#8dd122"/><path d="m40 170h10v10h-10z" fill="#80a72d"/><path d="m50 170h10v10h-10z" fill="#8dd122"/><path d="m60 170h10v10h-10z" fill="#ff82ad"/><path d="m70 170h30v10h-30z" fill="#ff1ad2"/><path d="m100 170h10v10h-10z" fill="#ff82ad"/><path d="m110 170h100v10h-100z" fill="#8dd122"/><path d="m210 170h10v10h-10z" fill="#ff82ad"/><path d="m220 170h30v10h-30z" fill="#ff1ad2"/><path d="m250 170h10v10h-10z" fill="#ff82ad"/><path d="m260 170h10v10h-10z" fill="#8dd122"/><path d="m270 170h10v10h-10z" fill="#80a72d"/><path d="m280 170h20v10h-20z" fill="#8dd122"/><path d="m30 180h10v10h-10z" fill="#8dd122"/><path d="m40 180h10v10h-10z" fill="#80a72d"/><path d="m50 180h10v10h-10z" fill="#8dd122"/><path d="m60 180h10v10h-10z" fill="#ff82ad"/><path d="m70 180h30v10h-30z" fill="#ff1ad2"/><path d="m100 180h10v10h-10z" fill="#ff82ad"/><path d="m110 180h50v10h-50z" fill="#8dd122"/><path d="m160 180h30v10h-30z" fill="#1f1d29"/><path d="m190 180h20v10h-20z" fill="#8dd122"/><path d="m210 180h10v10h-10z" fill="#ff82ad"/><path d="m220 180h30v10h-30z" fill="#ff1ad2"/><path d="m250 180h10v10h-10z" fill="#ff82ad"/><path d="m260 180h10v10h-10z" fill="#8dd122"/><path d="m270 180h10v10h-10z" fill="#80a72d"/><path d="m280 180h10v10h-10z" fill="#8dd122"/><path d="m30 190h30v10h-30z" fill="#8dd122"/><path d="m60 190h10v10h-10z" fill="#ff82ad"/><path d="m70 190h30v10h-30z" fill="#ff1ad2"/><path d="m100 190h10v10h-10z" fill="#ff82ad"/><path d="m110 190h100v10h-100z" fill="#8dd122"/><path d="m210 190h10v10h-10z" fill="#ff82ad"/><path d="m220 190h30v10h-30z" fill="#ff1ad2"/><path d="m250 190h10v10h-10z" fill="#ff82ad"/><path d="m260 190h30v10h-30z" fill="#8dd122"/><path d="m50 200h220v10h-220z" fill="#8dd122"/><path d="m100 110h60v10h-60z" fill="#e8705b"/><path d="m170 110h60v10h-60z" fill="#e8705b"/><path d="m100 120h10v10h-10z" fill="#e8705b"/><path d="m110 120h20v10h-20z" fill="#fff"/><path d="m130 120h20v10h-20z"/><path d="m150 120h10v10h-10z" fill="#e8705b"/><path d="m170 120h10v10h-10z" fill="#e8705b"/><path d="m180 120h20v10h-20z" fill="#fff"/><path d="m200 120h20v10h-20z"/><path d="m220 120h10v10h-10z" fill="#e8705b"/><path d="m70 130h40v10h-40z" fill="#e8705b"/><path d="m110 130h20v10h-20z" fill="#fff"/><path d="m130 130h20v10h-20z"/><path d="m150 130h30v10h-30z" fill="#e8705b"/><path d="m180 130h20v10h-20z" fill="#fff"/><path d="m200 130h20v10h-20z"/><path d="m220 130h10v10h-10z" fill="#e8705b"/><path d="m70 140h10v10h-10z" fill="#e8705b"/><path d="m100 140h10v10h-10z" fill="#e8705b"/><path d="m110 140h20v10h-20z" fill="#fff"/><path d="m130 140h20v10h-20z"/><path d="m150 140h10v10h-10z" fill="#e8705b"/><path d="m170 140h10v10h-10z" fill="#e8705b"/><path d="m180 140h20v10h-20z" fill="#fff"/><path d="m200 140h20v10h-20z"/><path d="m220 140h10v10h-10z" fill="#e8705b"/><path d="m70 150h10v10h-10z" fill="#e8705b"/><path d="m100 150h10v10h-10z" fill="#e8705b"/><path d="m110 150h20v10h-20z" fill="#fff"/><path d="m130 150h20v10h-20z"/><path d="m150 150h10v10h-10z" fill="#e8705b"/><path d="m170 150h10v10h-10z" fill="#e8705b"/><path d="m180 150h20v10h-20z" fill="#fff"/><path d="m200 150h20v10h-20z"/><path d="m220 150h10v10h-10z" fill="#e8705b"/><path d="m100 160h60v10h-60z" fill="#e8705b"/><path d="m170 160h60v10h-60z" fill="#e8705b"/></svg>