<?xml version="1.0" encoding="utf-8"?>
<!-- Generator: Adobe Illustrator 27.6.1, SVG Export Plug-In . SVG Version: 6.00 Build 0)  -->
<svg version="1.1" id="レイヤー_1" xmlns="http://www.w3.org/2000/svg" xmlns:xlink="http://www.w3.org/1999/xlink" x="0px"
	 y="0px" viewBox="0 0 2000 2000" style="enable-background:new 0 0 2000 2000;" xml:space="preserve">
<style type="text/css">
	.st0{fill:#FFFFFF;}
	.st1{fill-rule:evenodd;clip-rule:evenodd;fill:#231815;}
</style>
<rect x="0" class="st0" width="2000" height="2000"/>
<g>
	<g>
		<path class="st1" d="M1621.6,790.5c-6-14.6-16.7-25.2-26-36.5c-12.4-15.2-28.1-28.7-49.8-34.4c-12.3-3.2-27.3-2.1-37.9-0.7
			c-33.2,4.5-61.3,17.2-84.9,33.7c-12.4,8.6-20.7,22-32.3,30.9c-16.5,12.7-51.6,24.2-78.6,23.9c-11.6-22.4,7.6-49.9,16.8-61.8
			c7.3-9.4,14.5-18.7,21.8-28.1c20.9-26,80.4-61.4,44.9-112.3c-43.4-62.3-110.9-11.9-141.8,28.8c-4.1,5.3-33.9,43.3-47.7,26
			c-8.1-10.1-0.1-24.8,4.2-33c13.6-25.6,34.7-47.8,45.6-75.8c19.1-48.9-13.3-97.7-52.7-106.7c-24.9-5.7-50.2,3.4-73,4.2
			c-6.3-14.3-12.6-28.6-19-42.8c-28.6-47.7-73.7-63.1-151.6-62.5c-11.2,1.6-22.5,3.3-33.7,4.9c-31,6.7-62.2,14.5-88.5,26
			c-64.3,28.1-110,74.1-160.8,115.1c-23.5,19-45.5,41.2-63.9,65.3c-6.6,6.3-13.1,12.6-19.7,19c-12.2,15.1-24.6,29.2-36.5,44.9
			c-8.3,11-20.4,19-28.1,30.9c-7.4-2-13.1-7-19-10.5c-21.8-13.1-43.7-22.2-64.6-35.8c-6.8-4.5-16-12.9-24.6-14.7
			c-12.5-2.7-21.4,6-27.4,10.5c-5.4,21.4,16.6,26,30.9,32.3c9.6,6.1,19.2,12.2,28.8,18.3c18.3,11.3,38.5,19.3,55.5,30.9
			c8.3,5.7,21.4,17,35.8,9.8c10-5,15.8-20.8,22.5-29.5c5.4-5.1,10.8-10.3,16.1-15.4c17.7-24.2,37.4-45.7,56.2-68.8
			c16.6-20.5,37.6-41.6,58.3-58.3c12.4-11.7,24.8-23.4,37.2-35.1c46.6-35.5,93.6-71.1,155.9-90.6c72.3-22.6,161.8-31.4,195.2,33
			c4.6,8.8,11,20.3,11.2,33c-28.8,7.4-62.2,30.9-71.6,57.6c-9.9,28,6.7,53.1,21.8,63.9c4.9,3.5,7.5,10.7,14,12.6
			c5.5,1.6,19.5-2.1,23.9-3.5c38.1-12,51.9-55.4,51.2-103.9c36.3-19.8,102.5-10.3,89.2,43.5c-10.8,43.6-97.4,112.6-33.7,156.6
			c53.8,37.1,97-41,127.1-63.9c16.8-12.8,40.2-19.7,51.2,4.2c9,22.3-23.5,42.8-31.6,53.4c-29.6,38.7-92.3,86.6-48.4,149.5
			c13.9,20,68.4,5,89.2-2.1c49.1-16.9,72.3-59.1,126.4-73.7c41.1-11.1,81.4,28.2,88.5,54.1c4.8,17.6-3.1,56.9-7,68.8
			c-26.4,80.7-80.8,136.3-127.8,196.6c-17.3,21.1-34.6,42.1-52,63.2c-3.7,0.2-7.5,0.5-11.2,0.7c-12.4,10.5-24.8,21.1-37.2,31.6
			c-15.3,10.6-32.7,18.7-49.1,27.4c-5.8,5.1-11.7,10.3-17.6,15.4c-15.4,8.7-30.9,17.3-46.3,26c-17.5,12.2-35.1,24.3-52.7,36.5
			c-49.7,27.8-99.1,50.8-147.4,80c-19.9,11.9-39.8,23.9-59.7,35.8c-35.7,15.9-70.5,34.1-103.2,54.1c-22.1,13.5-44.2,29.1-68.8,40
			c-45.9,20.4-117.6,52-142.5,92c-44.4,71.3,46.3,86.4,112.3,77.9c1.6,6.3,3.3,12.6,4.9,19c4.2,12.2,13.8,25.2,23.2,32.3
			c43.5,33,104.1,12.5,141.8-9.1c14.1,11.8,17,29.8,36.5,37.2c72.2,27.6,145.9-36.3,175.5-73.7c24.9-31.5,47.5-64.6,71.6-97.6
			c21.7-29.8,45.1-57.7,64.6-90.6c11.3-19,16.4-40.9,25.3-62.5c11.6-28.2,29.6-56,37.2-87.1c6.7-27.4-5.6-49.5-5.6-72.3
			c37.7-39.1,73.1-82.7,106-126.4c14-15.9,28.1-31.8,42.1-47.7c38.1-52,80.9-101.7,106.7-165.7
			C1625.8,877,1635.3,823.7,1621.6,790.5z M1094.3,518.1c-8.1,18.9-11,37.2-32.3,42.8c-19-16.6,9.3-49,19.7-56.9
			c5.6-3,11.2-6.1,16.8-9.1C1103.1,500.2,1096.2,513.7,1094.3,518.1z M956.7,1656.1c-19.3,11.3-41,24.3-63.2,30.9
			c-24.8,7.3-61.4-8.3-71.6-21.8c-3.5-4.6-4.8-13.5-5.6-20.4c0-0.2,0-0.5,0-0.7c89.6-29.6,164.7-69.7,234.5-118.6
			c21.1-14,42.1-28.1,63.2-42.1c16.8-14,33.7-28.1,50.5-42.1c25.7-19,48.1-41.3,70.9-63.2c9.2-8.9,19.6-16.3,27.4-26.7
			c2.5,2-9.9,16.8-12.6,19.7c-17.1,20.4-34.2,40.7-51.2,61.1C1125,1513.3,1054.4,1598.8,956.7,1656.1z M1302.1,1371
			c-8.4,20.6-16.8,41.2-25.3,61.8c-29,59.9-69.5,103.5-104.6,155.9c-18.8,28-38.1,60.5-64.6,80.7c-13.2,10.1-39.5,28.8-55.5,33.7
			c-28.8,8.9-60.8-4.8-67.4-23.9c6.8-9.1,31.6-20.7,42.1-27.4c19.8-12.5,37.2-29.6,55.5-44.2c8.8-7,14.5-16.8,22.5-24.6
			c20.8-20.1,41.7-40.3,62.5-60.4c5.4-7.3,10.8-14.5,16.1-21.8c7-6.1,14-12.2,21.1-18.3c36.5-44.4,76.9-84.6,106.7-135.5
			C1312.8,1353.4,1304.9,1365.2,1302.1,1371z M1328.1,1228.5c-24.6,32.7-54.5,64.9-84.9,92c-17.1,16.8-34.2,33.7-51.2,50.5
			c-37.7,30.1-72.2,62.3-111.6,91.3c-58.4,42.9-117.1,88.7-187.4,119.3c-42.4,18.5-82.9,33.8-132.7,42.8
			c-20.7,3.8-58.5-0.1-65.3-9.8c0.5-21.6,20-34.4,33.7-43.5c15.3-10.2,31.1-23,47.7-31.6c27.6-13.1,55.2-26.2,82.8-39.3
			c91.3-53.3,189-102.6,278.7-158.7c21.8-11.5,43.5-22.9,65.3-34.4c20.6-13.6,41.2-27.1,61.8-40.7c20.5-13.1,43-23.2,61.1-38.6
			c0.7,0,1.4,0,2.1,0C1328.1,1228.1,1328.1,1228.3,1328.1,1228.5z M583.3,735.7c-7.4,12.1-22,26-24.6,41.4
			c-18.9,6.3-69.9-53.2-97.6-20.4c-0.2,1.4-0.5,2.8-0.7,4.2c9.9,12.7,77.4,49.7,95.5,54.8c5.1-0.2,10.3-0.5,15.4-0.7
			c2.3-3.1,3-2.6,2.1-5.6c4.1-3.6,10.5-4.4,13.3-9.1c14.2-23.5,22.1-47.7,37.9-68.8c26.5-35.4,67.7-59.9,110.9-78.6
			c12-5.2,26.1-15.4,40.7-16.1c-0.5,27.8-6.1,51.6,15.4,61.8c3.6-0.7,4.3-1.5,6.3-3.5c3.9,0.6,5.3,1.7,7.7,3.5
			c5.3-8.4,54.2-1,66.7,1.4c43.6,8.4,83.2,17.2,115.1,37.2c14,8.7,30,31.7,44.2,36.5c0.2,0.5,0.5,0.9,0.7,1.4
			c-11,12.4-18,28-27.4,42.1c-13.7,20.7-29,41.3-38.6,66c-8.7,22.2-2.8,48.5,18.3,56.2c76.6,27.9,90-103.1,150.2-108.1
			c20,19-4.8,49-14,63.2c-23.1,35.3-46.1,68.4-70.9,101.1c-10.7,14-30.2,25.7-37.2,42.8c-1.2,0.5-2.3,0.9-3.5,1.4
			c-20.1-19.7-40.3-39.3-60.4-59c-9.3-13.7-21.2-33.1-35.8-41.4c-0.9,0-1.9,0-2.8,0c0.2,1.2,0.5,2.3,0.7,3.5
			c-0.5,0.7-0.9,1.4-1.4,2.1c-2.1-0.9-4.2-1.9-6.3-2.8c-3.7,2.1-7.5,4.2-11.2,6.3c-2.1,1.9-3.8,6.4-4.2,9.8
			c17.1,31,44.7,61.8,71.6,83.5c15.6,12.6,25,28.3,43.5,38.6c25.2-2.8,42.7-27.3,55.5-43.5c36.1-46,77.4-87.8,106.7-141.1
			c14.3-26,25.1-67.5-3.5-88.5c-52.2-38.1-105.2,40.8-127.1,71.6c-7.8,10.9-14.5,29.1-29.5,32.3c-2.4,0.7-3.4,0-4.9-2.1
			c-6.4-17.2,19.7-49.3,26-59.7c19.2-31.8,38.3-62.7,59.7-92.7c8.7-12.2,30.1-33.9,33.7-48.4c-1.9,1.6-3.7,3.3-5.6,4.9
			c1.4-5.6,2.8-11.2,4.2-16.8c-27.3-20.8-36.2,6.7-49.1,26.7c-4.4,6.1-8.9,12.2-13.3,18.3c-0.9,0-1.9,0-2.8,0
			c-7.1-5.4-11.5-13.1-19.7-17.6c5-20.4,54.3-58.7,29.5-75.1c-18.1-12-52.1,42.5-56.9,54.8c-9.6-0.9-13.6-7.2-21.8-9.8
			c-1.8-19.7,42.5-57,22.5-70.9c-23.1-16.1-53.2,36.6-55.5,57.6c-6.3,2.3-19.8-4.3-28.8-5.6c-0.5-0.5-0.9-0.9-1.4-1.4
			c5-22.1,19.7-35.4,23.9-57.6c-1.6-2.1-3.3-4.2-4.9-6.3c-22.2-23.8-50.5,39.7-53.4,56.9c-24.1-2.1-48.2-4.2-72.3-6.3
			c-0.5-11.9-0.9-23.9-1.4-35.8c12.8-9.4,32.4-12.7,48.4-18.3c38.6-13.4,115.2-48.7,108.8-101.8c-2.3-19.3-4.1-30.6-13.3-42.1
			c-18.7-23.3-64.6-18.8-92-8.4c-43.7,16.5-88.6,83.4-87.8,146c-22.2,9.1-44.5,18.3-66.7,27.4C656.7,649.8,612.5,687.8,583.3,735.7z
			 M882.3,482.3c7-3.2,14.1-2.6,20.4-5.6c31.9,0,35.5,31.2,20.4,52.7c-22,31.3-70.1,40.8-106.7,57.6c-0.7,0-1.4,0-2.1,0
			C816.9,544,851.3,496.2,882.3,482.3z M388.1,709c4.6-18.3-8.6-24.7-27.4-23.9c-6,5.5-11.4,9.1-12.6,19.7
			C356.9,718.3,375.1,718.6,388.1,709z M442.8,737.1c0.1-9.3-3.2-15.7-9.8-18.3c-6.1-0.5-12.2-0.9-18.3-1.4
			c-5.4,4.9-12.3,8.2-12.6,18.3C414.1,754.1,428.8,748.4,442.8,737.1z M943.4,833.3c7-16,26.1-39.9,23.2-59
			c-0.5-0.2-0.9-0.5-1.4-0.7c-0.7,0.9-1.4,1.9-2.1,2.8c-6.2-5.5-19.4-11.9-27.4-14.7c-2.1,0-4.2,0-6.3,0
			c-36.6-20.5-70.9-31.2-130.6-30.2c-16.8,6.6-38.3,3.8-54.1,9.1c-55.1,18.6-95.3,51.5-122.9,98.3c-5.3,8.9-28.8,60.7-18.3,77.2
			c10,15.7,68.3,32.8,92,37.2c21.1,3.9,38.4-3.2,58.3-0.7c21.8,2.8,44.6-6.9,61.8-11.9C871.8,924.1,921.4,883.9,943.4,833.3z
			 M668.2,913.3c-10.8-5.1-21.5-10.3-32.3-15.4c-4.2-9.1,4-23.9,7-31.6c8.9-22.7,20.8-39.1,36.5-54.8c5.4-4.7,10.8-9.4,16.1-14
			c0,0-8.5,27.4-9.8,35.1c-6.3,37,17.5,78.3,39.3,87.8c0.2,0.7,0.5,1.4,0.7,2.1C706.7,921.9,684.9,920.2,668.2,913.3z M876,863.5
			c-3.5,3.3-7,6.6-10.5,9.8c-0.2,0-0.5,0-0.7,0c3.4-25.7,10-50-0.7-75.8c-5.3-12.8-17.2-18.9-22.5-30.9c-2.8-0.8-1.1-1.6-2.8,0.7
			c-0.9-0.5-1.9-0.9-2.8-1.4c-0.2-0.5-0.5-0.9-0.7-1.4c1.2-0.5,2.3-0.9,3.5-1.4c25.7,2,39.3,15.8,59,22.5c9.4,3.2,15.1-1.1,23.2,2.1
			c0.7,0.5,1.4,0.9,2.1,1.4c-9.4,17.5-18.7,35.1-28.1,52.7C888.6,849,882.3,856.2,876,863.5z M1529.6,803.8
			c-6.5-3.1-15.5-1.4-22.5-0.7c-9.2,12.1-11.7,40.2-12.6,59.7c-0.5,0.2-0.9,0.5-1.4,0.7c-12.7-4.7-57.2-26.7-73.7-16.1
			c-2.3,2.6-4.7,5.1-7,7.7c-0.2,34.4-0.5,68.8-0.7,103.2c-12.2-1.5-28.4-18.6-38.6-26c-20.5-14.8-36.9-33.5-56.9-47.7
			c-17.5-12.4-36.4-27-50.5-42.8c-11.6-13-29.5-44.5-51.2-44.9c-9.2,4.7-17,2.4-18.3,15.4c10.8,22.9,33.8,43.1,52.7,58.3
			c9.4,9.4,18.7,18.7,28.1,28.1c30.9,24.5,57.1,51.7,89.9,75.1c18.7,13.4,47.6,41.2,77.2,27.4c0.9-4.6,3.5-8.1,4.2-10.5
			c-0.2-5.4-0.5-10.8-0.7-16.1c2.7-19.2,6.3-75.5,1.4-89.2c8.2-5.3,28.4,10.6,38.6,10.5c6,0,26.2,5.2,34.4,0.7
			c3.7-4,7.5-8,11.2-11.9c-5.3-19.2,4.1-48.7,6.3-72.3c-1.2-1.2-2.3-2.3-3.5-3.5c-3.6,0.5-3,0.5-4.9,2.1c-0.2,0-0.5,0-0.7,0
			c0.7-1.2,1.4-2.3,2.1-3.5C1531.5,806.1,1530.5,805,1529.6,803.8z M687.2,806.6c-0.7,1.4-1.4,2.8-2.1,4.2c0,0.9,0,1.9,0,2.8
			c0.2,0,0.5,0,0.7,0C687.3,811.9,688.4,809.1,687.2,806.6z M680.8,836.1c1.8-2.1,2.8-8.2,1.4-11.2
			C681.8,828.6,681.3,832.3,680.8,836.1z M756,1419.5c10.8-6.6,21.5-13.1,32.3-19.7c0.2-0.5,0.5-0.9,0.7-1.4c0-0.2,0-0.5,0-0.7
			c-3.5,2.1-7,4.2-10.5,6.3c9.9-13.8,29.7-20,37.2-35.8c0.9-0.7,1.9-1.4,2.8-2.1c-0.9,1.9-1.9,3.7-2.8,5.6c0,0.2,0,0.5,0,0.7
			c3.8-1.7,5.6-4.4,7.7-7.7c-0.9,0.5-1.9,0.9-2.8,1.4c3.2-7.5,6.2-16.6,11.2-22.5c1.9-1.4,3.7-2.8,5.6-4.2
			c11.8-34.3,24-105.5,5.6-151.6c-5.4-12.9-10.8-25.7-16.1-38.6c-4.2-8.7-8.4-17.3-12.6-26c16-6.1,44.3-1.4,66.7-1.4
			c61.7,0,91.4,11.9,133.4,28.8c9.1,3.6,21.3,7,28.1,13.3c-13.1,21.9-67.5,60.4-67.4,87.1c13.6,9.4,26,34.7,37.2,41.4
			c6.3,3.7,20.1,2.6,27.4,2.8c0.2,0,0.5,0,0.7,0c13.8-29.5-13-30.3-18.3-52c6.1-7.3,12.2-14.5,18.3-21.8c0.7-0.2,1.4-0.5,2.1-0.7
			c4.7,7.5,9.4,15,14,22.5c5.7,4.4,18.2,8,29.5,5.6c15.6-18.1-10.8-41-16.8-55.5c-1-1.5-1.6-0.9-0.7-2.8c2.1-2.1,4.2-4.2,6.3-6.3
			c2.7-1.1,5-0.1,7.7,0.7c0.2,0,0.5,0,0.7,0c0.2-0.5,0.5-0.9,0.7-1.4c-0.9-0.5-1.9-0.9-2.8-1.4c-0.7-0.9-1.4-1.9-2.1-2.8
			c0.7-0.9,1.4-1.9,2.1-2.8c17.6,5,14.1,24.9,48.4,24.6c10.7-31.8-7.2-33.8-22.5-55.5c7.2-10.9,17.1-19.6,23.2-31.6
			c0.5,0,0.9,0,1.4,0c13.7,12.7,18.5,22.6,42.8,26c14.3-22.7-5.4-44.2-21.1-56.9c1.4-11.4,10.9-14.8,14-24.6c0.7,0,1.4,0,2.1,0
			c13.1,10.4,41.9,43.5,54.1,11.9c3.6-12.3-17-29.3-25.3-33c-10-12.6-9.8-9.2,0.7-23.2c11.5,1.5,18.2,11.8,26.7,16.8
			c6.4,3.8,14.9,4.3,22.5,7c7.4-8.4,6.8-14.9,7-26.7c-10.5-9.1-21.1-18.3-31.6-27.4c1.7-7,7.6-11.3,11.2-16.8
			c14.8,4,25.5,17.5,37.2,25.3c6.9,4.6,14.8,5.5,21.8,8.4c6.7-4.1,9.9-9.2,13.3-16.1c-1.2-4.2-2.3-8.4-3.5-12.6
			c-18.3-14.5-36.5-29-54.8-43.5c-8-3.6-24.2-3.8-30.9,0.7c-12.5,8.4-21.7,27.3-30.9,39.3c-9.8,11.7-19.7,23.4-29.5,35.1
			c-22.9,32.3-42.2,65.9-64.6,99c-9.1,11.5-18.3,22.9-27.4,34.4c-17.3,0.2-50.4-24.6-67.4-31.6c-8.5-3.5-19.6-5.5-27.4-8.4
			c-10.6-3.9-20.4-0.9-30.9-4.2c-43.8-14-99.2-3.9-148.8-2.8c-6.8-8.2-13.6-16.4-20.4-24.6c-12.4-13.2-29.7-25-44.9-35.1
			c-30.5-20.3-65.7-29.5-107.4-39.3c-9.3-2.2-23.7,1-30.2-0.7c-8.8-2.4-24.1-4-37.9-6.3c-8.8-59.3-46.3-101.6-87.8-129.2
			c-14.6-9.7-25-22.4-49.8-22.5c-11.5,4.2-20.8,1.9-25.3,12.6c-2.4,6.4,4.1,11.9,7,15.4c50,9.4,86.4,44.8,103.9,85.6
			c4.7,14,9.4,28.1,14,42.1c-0.2,0.5-0.5,0.9-0.7,1.4c-67.4,16-118.5,49.9-149.5,102.5c-16.3,27.6-23.2,65.9,4.9,87.8
			c24.2,18.8,72,17.4,101.8,4.9c57-23.9,93-84.3,88.5-162.9c8.7-0.2,17.3-0.5,26-0.7c55.3-8.7,111.6,22.3,141.8,44.9
			c10.1,9.4,20.1,18.7,30.2,28.1c0.2,0.7,0.5,1.4,0.7,2.1c-6.6,3.3-16.9,3.7-23.2,5.6c-20.7,6.2-41.5,15.2-58.3,26
			c-46.8,30.1-87.3,78.6-107.4,134.8c-18.7,52.2-0.1,114.7,31.6,137.6c0.6,11.3,17,19.8,28.1,25.3
			C667.8,1446.1,717.2,1436.3,756,1419.5z M847.9,1260.8c-0.2,0-0.5,0-0.7,0c-0.2-3.3-0.5-6.6-0.7-9.8
			C848.3,1252.8,848.2,1257,847.9,1260.8z M845.1,1282.6c0.2,0,0.5,0,0.7,0c0,0.7,0,1.4,0,2.1c-0.5-0.5-0.9-0.9-1.4-1.4
			C844.6,1283.1,844.9,1282.8,845.1,1282.6z M838.1,1304.3c0.5,0,0.9,0,1.4,0c-0.7,0.7-1.4,1.4-2.1,2.1
			C837.6,1305.7,837.9,1305,838.1,1304.3z M827.6,1334.5c0.2,0,0.5,0,0.7,0c-0.2,0.9-0.5,1.9-0.7,2.8c-0.2,0-0.5,0-0.7,0
			C827.1,1336.4,827.3,1335.5,827.6,1334.5z M468.8,1147.8c-20.9,13.5-70.1,28.6-77.2-7c-0.2,0-0.5,0-0.7,0c0,1.4,0,2.8,0,4.2
			c-0.2,0-0.5,0-0.7,0c-10.6-15.4,6.1-30.8,9.8-41.4c9.6-27.8,79-78.9,117.9-79.3C518.4,1074.8,499.3,1128.1,468.8,1147.8z
			 M564.3,1329.6c-1.5-2.7-1.2-6.6-0.7-9.1c0.2,0,0.5,0,0.7,0C564.3,1323.5,564.3,1326.6,564.3,1329.6z M573.4,1254.5
			c0.2-0.5,0.5-0.9,0.7-1.4c0.2,0,0.5,0,0.7,0C574.4,1253.6,573.9,1254,573.4,1254.5z M575.5,1252.4c-0.2,0-0.5,0-0.7,0
			c-0.2,0-0.5,0-0.7,0c1.4-3.3,2.8-6.6,4.2-9.8C579,1245.8,576.5,1248.5,575.5,1252.4z M810,1372.4c-0.7,0.5-1.4,0.9-2.1,1.4
			c0.7-1.2,1.4-2.3,2.1-3.5C810,1371,810,1371.7,810,1372.4z M813.5,1367.5c-0.2,0-0.5,0-0.7,0c0.5-0.9,0.9-1.9,1.4-2.8
			c0.2,0.2,0.5,0.5,0.7,0.7C814.5,1366.1,814,1366.8,813.5,1367.5z M601.5,1404c6.6,5.1,13.1,10.3,19.7,15.4
			C613.7,1416.8,605.9,1410,601.5,1404z M644.3,1401.2c-8.4-3.1-15.8-11-21.1-17.6c-27.7-34.6-32.7-65.9-14.7-115.8
			c20.2-56,62.8-100.8,114.4-125.7c7.8-3.8,19.6-7.5,24.6-9.8c2.6,2.1,23.9-2.6,28.8-4.9c11.3,5.8,13.5,25.9,19,35.8
			c1.6,2.9,6.1,5.4,7.7,9.1c12.4,28.2,19.8,73.9,11.2,109.5c-6.3,26.5-12.7,51-26,70.2C763.7,1387.8,699.1,1421.3,644.3,1401.2z
			 M680.8,838.2c0,1.2,0,2.3,0,3.5c0.5,0,0.9,0,1.4,0C681.6,839,682.5,839.8,680.8,838.2z M1403.2,1087.4c2.4-5.8-0.3-13.3-3.5-17.6
			c-3.5-3.3-7-6.6-10.5-9.8c-10.5-13.5-26.1-43.9-40-52c-6.1-0.2-12.2-0.5-18.3-0.7c-5.4,3.4-10.2,5-14.7,8.4
			c-0.5,26.9,25.2,31.3,30.9,53.4c-18.5,1.4-37,2.8-55.5,4.2c-6.8,1.8-16.3,6-26,6.3c-1.2,3.3,0.8,2.8-2.8,4.2
			c-6.2,15.3,10.8,41.7,16.8,54.1c-4.5,4.3-58.3,13.6-68.8,18.3c-0.4,4.8-2.2,10.4,1.4,15.4c4.1,5.6,11.8,1.9,19,4.9
			c3.8,1.6,80.9-11,88.5-14.7c2.3-2.6,4.7-5.1,7-7.7c-0.2-15.2-13.9-36-21.1-49.1c7-5.3,77.7-9.6,92.7-10.5
			C1400,1092.1,1401.6,1089.8,1403.2,1087.4z M1167.4,1063.5c0.9,0.2,1.9,0.5,2.8,0.7c0.2,0,0.5,0,0.7,0c0.2-0.5,0.5-0.9,0.7-1.4
			c-1.2-0.7-2.3-1.4-3.5-2.1C1167.8,1061.7,1167.6,1062.6,1167.4,1063.5z M390.2,1137.3c0.2-0.2,0.5-0.5,0.7-0.7
			c-0.5-0.5-0.9-0.9-1.4-1.4C389.7,1135.9,390,1136.6,390.2,1137.3z M797.4,1328.9c-0.2,0.7-0.5,1.4-0.7,2.1
			C797.7,1329.6,797.2,1329.9,797.4,1328.9z M790.4,1397.7c2.6-1.6,2.7-1.9,2.8-4.2c-1.2,1.2-2.3,2.3-3.5,3.5c0,0.2,0,0.5,0,0.7
			C789.9,1397.7,790.1,1397.7,790.4,1397.7z"/>
	</g>
</g>
</svg>
