<?xml version="1.0" encoding="UTF-8"?><svg id="b" xmlns="http://www.w3.org/2000/svg" viewBox="0 0 198.29 340.37"><defs><style>.f,.g,.h,.i,.j{fill:none;stroke-miterlimit:10;}.f,.h{stroke:lime;}.k{fill:#0a0b00;}.g{opacity:.78;}.g,.i{stroke:#f2f2f2;}.l{fill:lime;opacity:.33;}.h,.i,.j{stroke-width:.5px;}.j{stroke:#999;}.m{fill:#999;}.n{fill:#ccc;}.o{fill:#f2f2f2;}</style></defs><g id="c"><g id="d"><rect class="o" width="198.29" height="340.37" rx="1.34" ry="1.34"/><g id="e"><path class="k" d="m6.93,333.71c-1.16,0-2.1-.87-2.1-1.95V8.61c0-1.08.94-1.95,2.1-1.95h184.43c1.16,0,2.1.87,2.1,1.95v323.15c0,1.08-.94,1.95-2.1,1.95"/></g><path class="n" d="m95.05,28.67h-.87l-3.13-8.05h-.48c-.11,0-.2-.01-.24-.03-.05-.02-.09-.06-.12-.11-.03-.05-.05-.11-.05-.17s.02-.11.05-.17c.03-.05.07-.09.12-.11.05-.02.13-.03.24-.03h2.32c.12,0,.2.01.25.03.05.02.09.06.12.11.03.05.05.11.05.17s-.02.11-.05.17c-.03.05-.08.09-.12.11-.05.02-.13.03-.24.03h-1.19l2.89,7.43h.04l2.85-7.43h-1.19c-.12,0-.2-.01-.25-.03-.05-.02-.09-.06-.12-.11-.03-.05-.05-.11-.05-.17s.02-.11.05-.17c.03-.05.08-.09.12-.11.05-.02.13-.03.25-.03h2.31c.12,0,.2.01.25.03.05.02.09.06.12.11.03.05.05.11.05.17s-.02.11-.05.17c-.03.05-.08.09-.12.11-.05.02-.13.03-.25.03h-.47l-3.08,8.05Z"/><path class="n" d="m104.01,20.62v7.43h2.13c.15,0,.25.03.32.08.06.06.1.13.1.23s-.03.16-.1.22-.17.09-.32.09h-4.89c-.15,0-.25-.03-.32-.09s-.1-.13-.1-.22c0-.09.03-.17.1-.23.06-.06.17-.08.32-.08h2.13v-7.43h-2.13c-.15,0-.25-.03-.32-.08-.06-.06-.1-.13-.1-.23s.03-.17.1-.23c.06-.06.17-.08.32-.08h4.89c.15,0,.25.03.32.08.06.06.1.13.1.23s-.03.17-.1.23c-.06.06-.17.08-.32.08h-2.13Z"/><line class="g" x1="95.86" y1="215.26" x2="158.18" y2="215.26"/><line class="h" x1="126.99" y1="241.89" x2="127.04" y2="205.87"/><polygon class="l" points="96.31 189 127.04 205.87 126.96 241.49 96.31 189"/><polygon class="f" points="95.83 188.64 158.15 188.64 126.99 241.89 95.83 188.64"/><line class="h" x1="127.04" y1="205.87" x2="158.15" y2="188.64"/><line class="h" x1="127.04" y1="205.87" x2="95.83" y2="188.64"/><line class="g" x1="101.79" y1="215.26" x2="39.47" y2="215.26"/><line class="h" x1="70.66" y1="241.89" x2="70.6" y2="205.87"/><polygon class="l" points="101.34 189 70.6 205.87 70.68 241.49 101.34 189"/><polygon class="f" points="101.81 188.64 39.5 188.64 70.66 241.89 101.81 188.64"/><line class="h" x1="70.6" y1="205.87" x2="39.5" y2="188.64"/><line class="h" x1="70.6" y1="205.87" x2="101.81" y2="188.64"/><line class="g" x1="107.37" y1="124.88" x2="45.05" y2="124.88"/><line class="h" x1="76.23" y1="151.5" x2="76.18" y2="98.3"/><polygon class="l" points="107.03 98.42 76.18 98.42 76.26 151.11 107.03 98.42"/><polygon class="f" points="107.39 98.25 45.07 98.25 76.23 151.5 107.39 98.25"/><line class="g" x1="90.76" y1="124.87" x2="153.08" y2="124.87"/><line class="h" x1="121.9" y1="151.5" x2="121.95" y2="98.29"/><polygon class="l" points="91.1 98.41 121.95 98.41 121.87 151.1 91.1 98.41"/><polygon class="f" points="90.74 98.24 153.06 98.24 121.9 151.5 90.74 98.24"/><line class="g" x1="114.33" y1="179.2" x2="176.65" y2="179.2"/><line class="h" x1="145.47" y1="205.82" x2="145.52" y2="152.62"/><polygon class="l" points="114.67 152.74 145.52 152.74 145.44 205.43 114.67 152.74"/><polygon class="f" points="114.31 152.57 176.63 152.57 145.47 205.82 114.31 152.57"/><line class="g" x1="83.82" y1="179.25" x2="21.51" y2="179.25"/><line class="h" x1="52.69" y1="205.88" x2="52.64" y2="152.68"/><polygon class="l" points="83.49 152.8 52.64 152.8 52.72 205.48 83.49 152.8"/><polygon class="f" points="83.85 152.63 21.53 152.63 52.69 205.88 83.85 152.63"/><rect class="i" x="7.73" y="9.51" width="182.83" height="321.35" rx="1.34" ry="1.34"/><path class="m" d="m98.34,304.9v1.18h.42c.06,0,.09.01.12.03.02.02.03.05.03.08,0,.03-.01.06-.03.08-.02.02-.06.03-.12.03h-.94c-.05,0-.09-.01-.12-.03-.02-.02-.03-.05-.03-.08,0-.03.01-.06.03-.08.02-.02.06-.03.12-.03h.3v-2.69h-.3c-.05,0-.09-.01-.12-.03-.02-.02-.03-.05-.03-.08s.01-.06.03-.08c.02-.02.06-.03.12-.03h1.36c.28,0,.52.09.71.27.19.18.29.38.29.6,0,.16-.06.31-.18.45-.12.14-.32.26-.6.36.16.11.3.24.41.38.11.14.3.43.55.86h.17c.05,0,.09.01.12.03.02.02.03.05.03.08,0,.03-.01.06-.03.08-.02.02-.06.03-.12.03h-.3c-.28-.5-.49-.83-.65-1-.15-.17-.33-.3-.53-.4h-.72Zm0-.23h.61c.2,0,.38-.04.54-.11.16-.07.28-.16.35-.25s.11-.19.11-.3c0-.15-.08-.29-.23-.43-.15-.14-.33-.2-.55-.2h-.83v1.29Z"/><path class="m" d="m92.92,312.33h-1.48l-.3.82h.43c.05,0,.09.01.12.03.02.02.03.05.03.08,0,.03-.01.06-.03.08-.02.02-.06.03-.12.03h-.84c-.05,0-.09-.01-.12-.03-.02-.02-.03-.05-.03-.08,0-.03.01-.06.03-.08.02-.02.06-.03.12-.03h.17l1-2.69h-.67c-.05,0-.09-.01-.12-.03-.02-.02-.03-.05-.03-.08s.01-.06.03-.08c.02-.02.06-.03.12-.03h1.13l1.1,2.91h.17c.05,0,.09.01.12.03.02.02.03.05.03.08,0,.03-.01.06-.03.08-.02.02-.06.03-.12.03h-.84c-.06,0-.09-.01-.12-.03-.02-.02-.03-.05-.03-.08,0-.03.01-.06.03-.08.02-.02.06-.03.12-.03h.43l-.31-.82Zm-.09-.23l-.62-1.64h-.08l-.6,1.64h1.31Z"/><path class="m" d="m107.58,311.89c0,.3-.06.58-.18.84-.12.26-.29.46-.5.6-.21.14-.44.21-.69.21-.36,0-.68-.15-.96-.46s-.41-.7-.41-1.19.14-.88.41-1.19c.28-.31.6-.46.96-.46.25,0,.47.07.69.21.21.14.38.34.5.6.12.26.18.53.18.84Zm-.23,0c0-.37-.11-.7-.32-.99-.21-.29-.49-.44-.83-.44-.32,0-.59.14-.81.42-.22.28-.34.61-.34,1.01,0,.42.12.76.35,1.03.24.27.5.4.8.4.34,0,.61-.15.83-.44.21-.29.32-.62.32-.99Z"/><path class="m" d="m99.19,317.24v2.69h.58c.05,0,.09.01.12.03.02.02.03.05.03.08,0,.03-.01.06-.03.08-.02.02-.06.03-.12.03h-1.4c-.05,0-.09-.01-.12-.03-.02-.02-.03-.05-.03-.08,0-.03.01-.06.03-.08.02-.02.06-.03.12-.03h.58v-2.69h-.92v.78c0,.06-.01.09-.03.12-.02.02-.05.03-.08.03-.03,0-.06-.01-.08-.03-.02-.02-.03-.06-.03-.12v-1.01h2.52v1.01c0,.06-.01.09-.03.12-.02.02-.05.03-.08.03s-.06-.01-.08-.03c-.02-.02-.03-.06-.03-.12v-.78h-.92Z"/><path class="j" d="m106.21,309.6c-.74-2.52-2.78-4.48-5.33-5.11"/><path class="j" d="m100.88,318.88c2.37-.59,4.28-2.31,5.14-4.55"/><path class="j" d="m92.18,314.33c.84,2.2,2.7,3.89,4.99,4.51"/><path class="j" d="m97.42,304.64c-2.54.67-4.55,2.65-5.25,5.18"/></g></g></svg>