<svg height="320" shape-rendering="crispEdges" viewBox="0 0 320 320" width="320" xmlns="http://www.w3.org/2000/svg"><rect fill="#e1d7d5" height="100%" width="100%"/><g fill="#1f1d29"><path d="m90 210h140v10h-140z"/><path d="m90 220h140v10h-140z"/><path d="m90 230h140v10h-140z"/><path d="m90 240h140v10h-140z"/><path d="m90 250h20v10h-20z"/><path d="m120 250h110v10h-110z"/><path d="m90 260h20v10h-20z"/><path d="m120 260h110v10h-110z"/><path d="m90 270h20v10h-20z"/><path d="m120 270h110v10h-110z"/><path d="m90 280h20v10h-20z"/><path d="m120 280h110v10h-110z"/><path d="m90 290h20v10h-20z"/><path d="m120 290h110v10h-110z"/><path d="m90 300h20v10h-20z"/><path d="m120 300h110v10h-110z"/><path d="m90 310h20v10h-20z"/><path d="m120 310h110v10h-110z"/></g><path d="m120 210h30v10h-30z" fill="#4bea69"/><path d="m180 210h30v10h-30z" fill="#4bea69"/><path d="m120 220h30v10h-30z" fill="#4bea69"/><path d="m180 220h30v10h-30z" fill="#4bea69"/><path d="m120 230h30v10h-30z" fill="#4bea69"/><path d="m180 230h30v10h-30z" fill="#4bea69"/><path d="m120 240h30v10h-30z"/><path d="m180 240h30v10h-30z"/><path d="m120 250h30v10h-30z"/><path d="m180 250h30v10h-30z"/><path d="m120 260h30v10h-30z"/><path d="m180 260h30v10h-30z"/><path d="m120 270h30v10h-30z" fill="#4bea69"/><path d="m180 270h30v10h-30z" fill="#4bea69"/><path d="m120 280h30v10h-30z" fill="#4bea69"/><path d="m180 280h30v10h-30z" fill="#4bea69"/><path d="m120 290h30v10h-30z" fill="#4bea69"/><path d="m180 290h30v10h-30z" fill="#4bea69"/><path d="m120 300h30v10h-30z"/><path d="m180 300h30v10h-30z"/><path d="m120 310h30v10h-30z"/><path d="m180 310h30v10h-30z"/><path d="m70 30h70v10h-70z" fill="#1f1d29"/><path d="m180 30h70v10h-70z" fill="#1f1d29"/><path d="m70 40h70v10h-70z" fill="#1f1d29"/><path d="m180 40h70v10h-70z" fill="#1f1d29"/><path d="m70 50h70v10h-70z" fill="#1f1d29"/><path d="m180 50h70v10h-70z" fill="#1f1d29"/><path d="m70 60h70v10h-70z" fill="#1f1d29"/><path d="m180 60h70v10h-70z" fill="#1f1d29"/><path d="m70 70h70v10h-70z" fill="#1f1d29"/><path d="m180 70h70v10h-70z" fill="#1f1d29"/><path d="m70 80h70v10h-70z" fill="#1f1d29"/><path d="m180 80h70v10h-70z" fill="#1f1d29"/><path d="m70 90h70v10h-70z" fill="#1f1d29"/><path d="m180 90h70v10h-70z" fill="#1f1d29"/><path d="m90 100h140v10h-140z" fill="#807f7e"/><path d="m90 110h140v10h-140z" fill="#807f7e"/><path d="m90 120h140v10h-140z" fill="#807f7e"/><path d="m90 130h140v10h-140z" fill="#807f7e"/><path d="m90 140h140v10h-140z" fill="#807f7e"/><path d="m270 140h30v10h-30z" fill="#1f1d29"/><path d="m90 150h140v10h-140z" fill="#807f7e"/><path d="m270 150h30v10h-30z" fill="#1f1d29"/><path d="m90 160h140v10h-140z" fill="#807f7e"/><path d="m270 160h30v10h-30z" fill="#1f1d29"/><path d="m90 170h180v10h-180z" fill="#807f7e"/><path d="m90 180h140v10h-140z" fill="#807f7e"/><path d="m230 180h10v10h-10z" fill="#62616d"/><path d="m240 180h10v10h-10z" fill="#807f7e"/><path d="m250 180h10v10h-10z" fill="#62616d"/><path d="m260 180h10v10h-10z" fill="#807f7e"/><path d="m90 190h80v10h-80z" fill="#807f7e"/><path d="m170 190h20v10h-20z" fill="#e5e5de"/><path d="m190 190h10v10h-10z" fill="#807f7e"/><path d="m200 190h20v10h-20z" fill="#e5e5de"/><path d="m220 190h50v10h-50z" fill="#807f7e"/><path d="m90 200h180v10h-180z" fill="#807f7e"/><path d="m100 110h60v10h-60z" fill="#d7d3cd"/><path d="m170 110h60v10h-60z" fill="#d7d3cd"/><path d="m100 120h10v10h-10z" fill="#d7d3cd"/><path d="m110 120h20v10h-20z" fill="#fdf8ff"/><path d="m130 120h20v10h-20z"/><path d="m150 120h10v10h-10z" fill="#d7d3cd"/><path d="m170 120h10v10h-10z" fill="#d7d3cd"/><path d="m180 120h20v10h-20z" fill="#fdf8ff"/><path d="m200 120h20v10h-20z"/><path d="m220 120h10v10h-10z" fill="#d7d3cd"/><path d="m70 130h40v10h-40z" fill="#d7d3cd"/><path d="m110 130h20v10h-20z" fill="#fdf8ff"/><path d="m130 130h20v10h-20z"/><path d="m150 130h30v10h-30z" fill="#d7d3cd"/><path d="m180 130h20v10h-20z" fill="#fdf8ff"/><path d="m200 130h20v10h-20z"/><path d="m220 130h10v10h-10z" fill="#d7d3cd"/><path d="m70 140h10v10h-10z" fill="#d7d3cd"/><path d="m100 140h10v10h-10z" fill="#d7d3cd"/><path d="m110 140h20v10h-20z" fill="#fdf8ff"/><path d="m130 140h20v10h-20z"/><path d="m150 140h10v10h-10z" fill="#d7d3cd"/><path d="m170 140h10v10h-10z" fill="#d7d3cd"/><path d="m180 140h20v10h-20z" fill="#fdf8ff"/><path d="m200 140h20v10h-20z"/><path d="m220 140h10v10h-10z" fill="#d7d3cd"/><path d="m70 150h10v10h-10z" fill="#d7d3cd"/><path d="m100 150h10v10h-10z" fill="#d7d3cd"/><path d="m110 150h20v10h-20z" fill="#fdf8ff"/><path d="m130 150h20v10h-20z"/><path d="m150 150h10v10h-10z" fill="#d7d3cd"/><path d="m170 150h10v10h-10z" fill="#d7d3cd"/><path d="m180 150h20v10h-20z" fill="#fdf8ff"/><path d="m200 150h20v10h-20z"/><path d="m220 150h10v10h-10z" fill="#d7d3cd"/><path d="m100 160h60v10h-60z" fill="#d7d3cd"/><path d="m170 160h60v10h-60z" fill="#d7d3cd"/></svg>