<svg xmlns="http://www.w3.org/2000/svg" width="512" height="512" fill="none"><path fill="#F90" d="M0 0h512v512H0z"/><path fill="#DA420F" d="M84 340h344v160H84z"/><g><animateTransform attributeName="transform" dur="0.4s" keyTimes="0;0.5;1" repeatCount="indefinite" type="translate" values="0 0;0 28;0 0"/><path fill="#F15824" d="M196 176h120v296H196z"/><path fill="#DA420F" d="M196 96h120v80H196z"/><path fill="#F15824" d="M250 96h12v36h-12z"><animate attributeName="fill" begin="5s" dur="0.4s" repeatCount="5" values="#F15824; #fff; #F15824"/></path><path fill="#fff" d="M196 176h120V96H196z"/><circle cx="256" cy="82" r="40" fill="#fff"/><circle cx="204" cy="98" r="32" fill="#fff"/><circle cx="308" cy="98" r="32" fill="#fff"/><path fill="#121212" fill-rule="evenodd" d="M213.488 163.428C195.296 166.503 184 182.999 184 201.449c0 19.853 12.967 38.588 32.82 38.551 8.083-.015 16.116-1.326 22.065-5.212 3.375-2.204 5.191-4.855 6.818-7.229 2.391-3.49 4.373-6.383 10.297-6.383s7.906 2.893 10.297 6.383c1.627 2.374 3.443 5.025 6.818 7.229 5.949 3.886 13.982 5.197 22.065 5.212 19.853.037 32.82-18.698 32.82-38.551 0-18.45-11.296-34.946-29.488-38.021C287.224 161.52 272.921 160 256 160s-31.224 1.52-42.512 3.428Zm4.461 15.447c-9.828 1.632-16.616 10.301-16.616 20.263 0 9.904 6.71 18.713 16.569 19.648 8.051.765 17.091.596 22.306-2.824 1.761-1.154 3.464-2.83 5.191-4.528 3.269-3.214 6.621-6.511 10.601-6.511 3.98 0 7.332 3.297 10.601 6.511 1.727 1.698 3.43 3.374 5.191 4.528 5.215 3.42 14.255 3.589 22.306 2.824 9.859-.935 16.569-9.744 16.569-19.648 0-9.962-6.788-18.631-16.616-20.263-10.226-1.698-24.027-3.413-38.051-3.413-14.024 0-27.825 1.715-38.051 3.413Z" clip-rule="evenodd"/><path fill="#0047FF" d="M201.333 199.138c0-9.962 6.788-18.631 16.616-20.263 10.227-1.698 24.027-3.413 38.051-3.413 14.024 0 27.825 1.715 38.051 3.413 9.828 1.632 16.616 10.301 16.616 20.263 0 9.904-6.71 18.713-16.569 19.648-8.051.765-17.091.596-22.305-2.824-5.095-3.34-9.71-11.039-15.793-11.039-6.082 0-10.698 7.699-15.792 11.039-5.215 3.42-14.255 3.589-22.306 2.824-9.859-.935-16.569-9.744-16.569-19.648Z"><animate attributeName="fill" dur="4s" keyTimes="0;0.25;0.5;0.75;1" repeatCount="indefinite" values="#0732A0;#9129E3;#4378FF;#0732A0;#0732A0"/></path><path fill="#fff" d="M298.785 326.892 220 313s-6.946 39.392 32.474 46.343c39.421 6.951 46.311-32.451 46.311-32.451Z"/></g></svg>