<svg height="320" shape-rendering="crispEdges" viewBox="0 0 320 320" width="320" xmlns="http://www.w3.org/2000/svg"><rect fill="#d5d7e1" height="100%" width="100%"/><g fill="#cbc1bc"><path d="m90 210h140v10h-140z"/><path d="m90 220h140v10h-140z"/><path d="m90 230h140v10h-140z"/><path d="m90 240h140v10h-140z"/><path d="m90 250h20v10h-20z"/><path d="m120 250h110v10h-110z"/><path d="m90 260h20v10h-20z"/><path d="m120 260h110v10h-110z"/><path d="m90 270h20v10h-20z"/><path d="m120 270h110v10h-110z"/><path d="m90 280h20v10h-20z"/><path d="m120 280h110v10h-110z"/><path d="m90 290h20v10h-20z"/><path d="m120 290h110v10h-110z"/><path d="m90 300h20v10h-20z"/><path d="m120 300h110v10h-110z"/><path d="m90 310h20v10h-20z"/><path d="m120 310h110v10h-110z"/></g><path d="m160 220h10v10h-10z" fill="#eab118"/><path d="m150 230h10v10h-10z" fill="#eab118"/><path d="m160 230h10v10h-10z" fill="#db8323"/><path d="m170 230h10v10h-10z" fill="#eab118"/><path d="m160 240h10v10h-10z" fill="#eab118"/><path d="m150 250h30v10h-30z" fill="#eab118"/><path d="m140 260h10v10h-10z" fill="#eab118"/><path d="m150 260h30v10h-30z" fill="#db8323"/><path d="m180 260h10v10h-10z" fill="#eab118"/><path d="m140 270h20v10h-20z" fill="#eab118"/><path d="m160 270h20v10h-20z" fill="#db8323"/><path d="m180 270h10v10h-10z" fill="#eab118"/><path d="m140 280h10v10h-10z" fill="#eab118"/><path d="m150 280h30v10h-30z" fill="#db8323"/><path d="m180 280h10v10h-10z" fill="#eab118"/><path d="m150 290h30v10h-30z" fill="#eab118"/><path d="m110 70h60v10h-60z" fill="#34ac80"/><path d="m110 80h60v10h-60z" fill="#34ac80"/><path d="m80 90h210v10h-210z" fill="#34ac80"/><path d="m80 100h210v10h-210z" fill="#34ac80"/><path d="m80 110h210v10h-210z" fill="#34ac80"/><path d="m80 120h210v10h-210z" fill="#34ac80"/><path d="m80 130h210v10h-210z" fill="#34ac80"/><path d="m80 140h210v10h-210z" fill="#34ac80"/><path d="m80 150h210v10h-210z" fill="#34ac80"/><path d="m80 160h210v10h-210z" fill="#34ac80"/><path d="m80 170h210v10h-210z" fill="#34ac80"/><path d="m90 180h50v10h-50z" fill="#34ac80"/><path d="m140 180h30v10h-30z" fill="#fff"/><path d="m170 180h10v10h-10z" fill="#34ac80"/><path d="m180 180h30v10h-30z" fill="#fff"/><path d="m210 180h10v10h-10z" fill="#34ac80"/><path d="m220 180h30v10h-30z" fill="#fff"/><path d="m250 180h10v10h-10z" fill="#34ac80"/><path d="m260 180h30v10h-30z" fill="#fff"/><path d="m90 190h50v10h-50z" fill="#34ac80"/><path d="m140 190h30v10h-30z" fill="#fff"/><path d="m170 190h10v10h-10z" fill="#34ac80"/><path d="m180 190h30v10h-30z" fill="#fff"/><path d="m210 190h10v10h-10z" fill="#34ac80"/><path d="m220 190h30v10h-30z" fill="#fff"/><path d="m250 190h10v10h-10z" fill="#34ac80"/><path d="m260 190h30v10h-30z" fill="#fff"/><path d="m90 200h200v10h-200z" fill="#34ac80"/><path d="m90 210h200v10h-200z" fill="#34ac80"/><path d="m100 110h60v10h-60z"/><path d="m170 110h60v10h-60z"/><path d="m100 120h40v10h-40z"/><path d="m140 120h10v10h-10z" fill="#fff"/><path d="m150 120h10v10h-10z"/><path d="m170 120h40v10h-40z"/><path d="m210 120h10v10h-10z" fill="#fff"/><path d="m220 120h10v10h-10z"/><path d="m70 130h70v10h-70z"/><path d="m140 130h10v10h-10z" fill="#fff"/><path d="m150 130h60v10h-60z"/><path d="m210 130h10v10h-10z" fill="#fff"/><path d="m220 130h10v10h-10z"/><path d="m70 140h10v10h-10z"/><path d="m100 140h60v10h-60z"/><path d="m170 140h60v10h-60z"/><path d="m70 150h10v10h-10z"/><path d="m100 150h60v10h-60z"/><path d="m170 150h60v10h-60z"/><path d="m100 160h60v10h-60z"/><path d="m170 160h60v10h-60z"/></svg>