<?xml version="1.0" encoding="UTF-8"?><svg id="b" xmlns="http://www.w3.org/2000/svg" viewBox="0 0 198.19 340.16"><defs><style>.g,.h,.i,.j,.k{fill:none;stroke-miterlimit:10;}.g,.i{stroke:lime;}.l{fill:#0a0b00;}.h{opacity:.78;}.h,.j{stroke:#f2f2f2;}.m{fill:lime;opacity:.33;}.i,.j,.k{stroke-width:.5px;}.k{stroke:#999;}.n{fill:#999;}.o{fill:#ccc;}.p{fill:#f2f2f2;}</style></defs><g id="c"><g id="d"><rect class="p" width="198.19" height="340.16" rx="1.34" ry="1.34"/><g id="e"><path class="l" d="m6.92,333.51c-1.16,0-2.09-.87-2.09-1.95V8.6c0-1.08.94-1.95,2.09-1.95h184.34c1.16,0,2.09.87,2.09,1.95v322.96c0,1.08-.94,1.95-2.09,1.95"/></g><g id="f"><polygon class="m" points="22.98 92.35 60.7 92.35 60.7 156.53 22.98 92.35"/><line class="g" x1="60.7" y1="156.45" x2="60.7" y2="92.42"/><polygon class="m" points="175.23 92.63 137.52 92.63 137.52 156.81 175.23 92.63"/><line class="g" x1="137.52" y1="156.73" x2="137.52" y2="92.71"/><polygon class="m" points="99.11 183.49 61.39 183.49 61.39 247.67 99.11 183.49"/><line class="g" x1="61.39" y1="247.59" x2="61.39" y2="183.57"/><polygon class="m" points="174.54 183.49 136.83 183.49 136.83 247.67 174.54 183.49"/><line class="g" x1="136.83" y1="247.59" x2="136.83" y2="183.56"/><polygon class="g" points="99.11 183.35 23.68 183.35 61.39 247.81 99.11 183.35"/><line class="h" x1="99.11" y1="210.37" x2="23.68" y2="210.37"/><polygon class="g" points="174.54 183.35 99.11 183.35 136.82 247.81 174.54 183.35"/><line class="h" x1="174.54" y1="210.37" x2="99.11" y2="210.37"/><polygon class="g" points="98.42 92.35 22.98 92.35 60.7 156.81 98.42 92.35"/><line class="h" x1="98.42" y1="119.37" x2="22.98" y2="119.37"/><polygon class="g" points="175.23 92.35 99.79 92.35 137.51 156.81 175.23 92.35"/><line class="h" x1="175.23" y1="119.37" x2="99.79" y2="119.37"/><line class="h" x1="136.83" y1="164.91" x2="61.39" y2="164.91"/><line class="i" x1="99.14" y1="197.14" x2="99.07" y2="153.53"/><polygon class="m" points="136.28 133.12 99.07 153.53 99.17 196.66 136.28 133.12"/><polygon class="g" points="136.86 132.68 61.42 132.68 99.14 197.14 136.86 132.68"/><line class="i" x1="99.07" y1="153.53" x2="61.42" y2="132.68"/><line class="i" x1="99.07" y1="153.53" x2="136.86" y2="132.68"/></g><path class="o" d="m99.71,28.67h-.87l-3.13-8.04h-.48c-.11,0-.2-.01-.24-.03-.05-.02-.09-.06-.12-.11-.03-.05-.05-.11-.05-.17s.02-.11.05-.17c.03-.05.07-.09.12-.11.05-.02.13-.03.24-.03h2.32c.12,0,.2.01.25.03.05.02.09.06.12.11.03.05.05.11.05.17s-.02.11-.05.17c-.03.05-.08.09-.12.11-.05.02-.13.03-.24.03h-1.19l2.89,7.42h.04l2.85-7.42h-1.19c-.12,0-.2-.01-.25-.03-.05-.02-.09-.06-.12-.11-.03-.05-.05-.11-.05-.17s.02-.11.05-.17c.03-.05.08-.09.12-.11.05-.02.13-.03.25-.03h2.31c.12,0,.2.01.25.03.05.02.09.06.12.11.03.05.05.11.05.17s-.02.11-.05.17c-.03.05-.08.09-.12.11-.05.02-.13.03-.25.03h-.47l-3.08,8.04Z"/><rect class="j" x="7.73" y="9.5" width="182.74" height="321.15" rx="1.34" ry="1.34"/><path class="n" d="m98.37,304.9v1.18h.42c.06,0,.09.01.12.03.02.02.03.05.03.08,0,.03-.01.06-.03.08-.02.02-.06.03-.12.03h-.94c-.05,0-.09-.01-.12-.03-.02-.02-.03-.05-.03-.08,0-.03.01-.06.03-.08.02-.02.06-.03.12-.03h.3v-2.69h-.3c-.05,0-.09-.01-.12-.03-.02-.02-.03-.05-.03-.08s.01-.06.03-.08c.02-.02.06-.03.12-.03h1.36c.28,0,.52.09.71.27.19.18.29.38.29.6,0,.16-.06.31-.18.45-.12.14-.32.26-.6.36.16.11.3.24.41.38.11.14.3.43.55.86h.17c.05,0,.09.01.12.03.02.02.03.05.03.08,0,.03-.01.06-.03.08-.02.02-.06.03-.12.03h-.3c-.28-.5-.49-.83-.65-1-.15-.17-.33-.3-.53-.4h-.72Zm0-.23h.61c.2,0,.38-.04.54-.11.16-.07.28-.16.35-.25s.11-.19.11-.3c0-.15-.08-.29-.23-.43-.15-.14-.33-.2-.55-.2h-.83v1.29Z"/><path class="n" d="m92.95,312.33h-1.48l-.3.82h.43c.05,0,.09.01.12.03.02.02.03.05.03.08,0,.03-.01.06-.03.08-.02.02-.06.03-.12.03h-.84c-.05,0-.09-.01-.12-.03-.02-.02-.03-.05-.03-.08,0-.03.01-.06.03-.08.02-.02.06-.03.12-.03h.17l1-2.69h-.67c-.05,0-.09-.01-.12-.03-.02-.02-.03-.05-.03-.08s.01-.06.03-.08c.02-.02.06-.03.12-.03h1.13l1.1,2.91h.17c.05,0,.09.01.12.03.02.02.03.05.03.08,0,.03-.01.06-.03.08-.02.02-.06.03-.12.03h-.84c-.06,0-.09-.01-.12-.03-.02-.02-.03-.05-.03-.08,0-.03.01-.06.03-.08.02-.02.06-.03.12-.03h.43l-.31-.82Zm-.09-.23l-.62-1.64h-.08l-.6,1.64h1.31Z"/><path class="n" d="m107.61,311.89c0,.3-.06.58-.18.84-.12.26-.29.46-.5.6-.21.14-.44.21-.69.21-.36,0-.68-.15-.96-.46s-.41-.7-.41-1.19.14-.88.41-1.19c.28-.31.6-.46.96-.46.25,0,.47.07.69.21.21.14.38.34.5.6.12.26.18.53.18.84Zm-.23,0c0-.37-.11-.7-.32-.99-.21-.29-.49-.44-.83-.44-.32,0-.59.14-.81.42-.22.28-.34.61-.34,1.01,0,.42.12.76.35,1.03.24.27.5.4.8.4.34,0,.61-.15.83-.44.21-.29.32-.62.32-.99Z"/><path class="n" d="m99.22,317.24v2.69h.58c.05,0,.09.01.12.03.02.02.03.05.03.08,0,.03-.01.06-.03.08-.02.02-.06.03-.12.03h-1.4c-.05,0-.09-.01-.12-.03-.02-.02-.03-.05-.03-.08,0-.03.01-.06.03-.08.02-.02.06-.03.12-.03h.58v-2.69h-.92v.78c0,.06-.01.09-.03.12-.02.02-.05.03-.08.03-.03,0-.06-.01-.08-.03-.02-.02-.03-.06-.03-.12v-1.01h2.52v1.01c0,.06-.01.09-.03.12-.02.02-.05.03-.08.03s-.06-.01-.08-.03c-.02-.02-.03-.06-.03-.12v-.78h-.92Z"/><path class="k" d="m106.24,309.6c-.74-2.52-2.78-4.48-5.33-5.11"/><path class="k" d="m100.91,318.88c2.37-.59,4.28-2.31,5.14-4.55"/><path class="k" d="m92.21,314.33c.84,2.2,2.7,3.89,4.99,4.51"/><path class="k" d="m97.45,304.64c-2.54.67-4.55,2.65-5.25,5.18"/></g></g></svg>