<svg xmlns="http://www.w3.org/2000/svg" viewBox="0 -0.5 50 50" shape-rendering="crispEdges">
	<title>Bitcoin Pussies #010</title>
	<desc>Bitcoin Pussies are 69 uniquely drawn and inscribed cats on Bitcoin</desc>
	<desc xmlns:meow="https://bitcoinpussies.com/">
		<meow:traits>
			<meow:Skin>White</meow:Skin>
			<meow:Eyes>Smiling</meow:Eyes>
			<meow:Gear>Irish Shamrock Beanie, pot of digital gold and pure luck</meow:Gear>
			<meow:Message>Aye</meow:Message>
		</meow:traits>
	</desc>
	<path stroke="#b3ff8f" d="M0 0h50M0 1h50M0 2h50M0 3h50M0 4h4M6 4h3M11 4h39M0 5h4M7 5h1M11 5h39M0 6h2M7 6h1M13 6h37M0 7h2M7 7h1M13 7h37M0 8h3M12 8h9M30 8h20M0 9h6M9 9h11M31 9h19M0 10h3M12 10h8M31 10h19M0 11h2M13 11h7M31 11h19M0 12h2M13 12h7M31 12h19M0 13h4M11 13h9M31 13h19M0 14h4M6 14h1M8 14h1M11 14h9M31 14h19M0 15h7M9 15h11M31 15h19M0 16h8M10 16h7M34 16h16M0 17h9M12 17h2M37 17h13M0 18h14M37 18h13M0 19h14M37 19h13M0 20h14M37 20h13M0 21h15M36 21h14M0 22h16M35 22h15M0 23h15M36 23h14M0 24h15M36 24h14M0 25h15M36 25h14M0 26h15M36 26h14M0 27h15M36 27h5M42 27h8M0 28h16M35 28h3M39 28h1M43 28h7M0 29h16M35 29h2M43 29h7M0 30h17M34 30h2M44 30h6M0 31h19M32 31h3M44 31h6M0 32h20M31 32h4M44 32h6M0 33h19M32 33h4M43 33h7M0 34h19M32 34h3M44 34h6M0 35h18M33 35h2M44 35h6M0 36h17M33 36h2M44 36h6M0 37h16M34 37h1M44 37h6M0 38h17M34 38h1M44 38h2M48 38h2M0 39h20M49 39h1M0 40h50M0 41h50M0 42h50M0 43h50M0 44h50M0 45h50M0 46h50M0 47h50M0 48h50M0 49h50" />
	<path stroke="#023a00" d="M4 4h2M9 4h2M4 5h3M8 5h3M2 6h3M6 6h1M8 6h5M2 7h3M6 7h1M8 7h1M11 7h2M3 8h3M7 8h1M9 8h3M6 9h1M8 9h1M3 10h3M7 10h1M9 10h3M2 11h2M6 11h1M8 11h1M10 11h3M2 12h5M8 12h1M10 12h3M4 13h3M8 13h3M4 14h2M9 14h2" />
	<path stroke="#40a500" d="M5 6h1M5 7h1M9 7h2M6 8h1M8 8h1M7 9h1M6 10h1M8 10h1M4 11h2M7 11h1M9 11h1M7 12h1M9 12h1M7 13h1M7 14h1M7 15h2M8 16h2M9 17h3" />
	<path stroke="#000000" d="M21 8h9M20 9h1M30 9h1M20 10h1M30 10h1M20 11h1M30 11h1M20 12h1M30 12h1M20 13h1M30 13h1M20 14h1M30 14h1M20 15h1M30 15h1M17 16h4M30 16h4M14 17h4M33 17h4M14 18h1M17 18h17M36 18h1M14 19h1M18 19h1M32 19h1M36 19h1M14 20h1M17 20h1M33 20h1M36 20h1M15 21h2M34 21h2M16 22h1M34 22h1M15 23h1M35 23h1M15 24h1M20 24h2M29 24h2M35 24h1M15 25h1M19 25h1M22 25h1M25 25h1M28 25h1M31 25h1M35 25h1M15 26h1M24 26h1M26 26h1M35 26h1M15 27h1M35 27h1M16 28h1M34 28h1M16 29h1M34 29h1M17 30h2M32 30h2M19 31h2M30 31h2M35 31h6M43 31h1M20 32h1M30 32h1M35 32h6M42 32h2M19 33h1M31 33h1M36 33h7M19 34h1M31 34h1M35 34h6M42 34h2M18 35h1M32 35h1M35 35h5M43 35h1M17 36h2M32 36h1M35 36h5M43 36h1M16 37h1M18 37h1M32 37h1M35 37h5M42 37h2M17 38h3M21 38h1M23 38h1M29 38h1M31 38h1M36 38h4M41 38h2M20 39h7M30 39h1M37 39h5" />
	<path stroke="#00c200" d="M21 9h2M25 9h3M21 10h2M25 10h3M21 11h2M25 11h3M21 12h2M25 12h3M21 13h2M25 13h3M21 14h1M26 14h2M18 17h5M25 17h3" />
	<path stroke="#00d300" d="M23 9h2M23 10h2M23 11h2M23 12h2M23 13h2M23 17h2" />
	<path stroke="#00ad00" d="M28 9h2M28 10h2M28 11h2M28 12h2M28 13h2M28 14h2M28 17h5" />
	<path stroke="#ffdf66" d="M22 14h3M22 15h1" />
	<path stroke="#ffbf4f" d="M25 14h1M25 15h1M22 16h4" />
	<path stroke="#6c4409" d="M21 15h1M23 15h2M26 15h4M21 16h1M26 16h4" />
	<path stroke="#ffffff" d="M15 18h2M34 18h2M15 19h1M19 19h13M35 19h1M15 20h1M18 20h15M35 20h1M17 21h17M17 22h17M16 23h19M16 24h4M22 24h7M31 24h4M16 25h3M20 25h2M23 25h2M26 25h2M29 25h2M32 25h3M16 26h2M20 26h4M25 26h1M27 26h4M33 26h2M16 27h19M17 28h17M17 29h17M19 30h13M21 31h9M21 32h9M20 33h11M20 34h11M19 35h13M19 36h13M17 37h1M19 37h13M20 38h1M22 38h1M24 38h3M30 38h1" />
	<path stroke="#ffd2c7" d="M16 19h2M33 19h2M16 20h1M34 20h1" />
	<path stroke="#ffbaa9" d="M18 26h2M31 26h2" />
	<path stroke="#fff000" d="M41 27h1M42 28h1M38 29h1M42 29h1M37 30h2M40 30h2M33 37h1M28 38h1M43 38h1M47 38h1M29 39h1M31 39h2M43 39h1M45 39h1M48 39h1" />
	<path stroke="#ffd300" d="M38 28h1M39 29h1M41 29h1M36 30h1M32 38h2" />
	<path stroke="#ffbb12" d="M40 28h2M37 29h1M40 29h1M39 30h1M42 30h2M27 38h1M35 38h1M46 38h1M27 39h2M33 39h4M42 39h1M44 39h1M46 39h2" />
	<path stroke="#d4d4d4" d="M41 31h2M41 32h1M41 34h1" />
	<path stroke="#2b2b2b" d="M40 35h1M40 36h1M42 36h1M40 37h2M40 38h1" />
	<path stroke="#5d5d5d" d="M41 35h2M41 36h1" />
</svg>