<svg height="320" shape-rendering="crispEdges" viewBox="0 0 320 320" width="320" xmlns="http://www.w3.org/2000/svg"><rect fill="#d5d7e1" height="100%" width="100%"/><path d="m90 210h140v10h-140z" fill="#f98f30"/><path d="m90 220h140v10h-140z" fill="#f98f30"/><path d="m90 230h140v10h-140z" fill="#f98f30"/><path d="m90 240h140v10h-140z" fill="#f98f30"/><path d="m90 250h20v10h-20z" fill="#f98f30"/><path d="m120 250h110v10h-110z" fill="#f98f30"/><path d="m90 260h20v10h-20z" fill="#f98f30"/><path d="m120 260h110v10h-110z" fill="#f98f30"/><path d="m90 270h20v10h-20z" fill="#f98f30"/><path d="m120 270h110v10h-110z" fill="#f98f30"/><path d="m90 280h20v10h-20z" fill="#f98f30"/><path d="m120 280h110v10h-110z" fill="#f98f30"/><path d="m90 290h20v10h-20z" fill="#f98f30"/><path d="m120 290h110v10h-110z" fill="#f98f30"/><path d="m90 300h20v10h-20z" fill="#f98f30"/><path d="m120 300h110v10h-110z" fill="#f98f30"/><path d="m90 310h20v10h-20z" fill="#f98f30"/><path d="m120 310h110v10h-110z" fill="#f98f30"/><path d="m160 220h10v10h-10z" fill="#eab118"/><path d="m150 230h10v10h-10z" fill="#eab118"/><path d="m160 230h10v10h-10z" fill="#db8323"/><path d="m170 230h10v10h-10z" fill="#eab118"/><path d="m160 240h10v10h-10z" fill="#eab118"/><path d="m150 250h30v10h-30z" fill="#eab118"/><path d="m140 260h10v10h-10z" fill="#eab118"/><path d="m150 260h30v10h-30z" fill="#db8323"/><path d="m180 260h10v10h-10z" fill="#eab118"/><path d="m140 270h20v10h-20z" fill="#eab118"/><path d="m160 270h20v10h-20z" fill="#db8323"/><path d="m180 270h10v10h-10z" fill="#eab118"/><path d="m140 280h10v10h-10z" fill="#eab118"/><path d="m150 280h30v10h-30z" fill="#db8323"/><path d="m180 280h10v10h-10z" fill="#eab118"/><path d="m150 290h30v10h-30z" fill="#eab118"/><g fill="#eed811"><path d="m130 20h30v10h-30z"/><path d="m120 30h80v10h-80z"/><path d="m120 40h120v10h-120z"/><path d="m110 50h120v10h-120z"/><path d="m110 60h110v10h-110z"/><path d="m100 70h110v10h-110z"/><path d="m100 80h100v10h-100z"/><path d="m90 90h100v10h-100z"/><path d="m90 100h90v10h-90z"/><path d="m80 110h90v10h-90z"/><path d="m80 120h80v10h-80z"/><path d="m70 130h230v10h-230z"/><path d="m70 140h220v10h-220z"/><path d="m60 150h210v10h-210z"/><path d="m60 160h190v10h-190z"/><path d="m50 170h180v10h-180z"/><path d="m100 180h110v10h-110z"/><path d="m90 190h100v10h-100z"/><path d="m90 200h80v10h-80z"/><path d="m80 210h70v10h-70z"/><path d="m80 220h50v10h-50z"/><path d="m70 230h40v10h-40z"/><path d="m70 240h20v10h-20z"/><path d="m60 250h10v10h-10z"/></g><path d="m100 110h60v10h-60z" fill="#d7d3cd"/><path d="m170 110h60v10h-60z" fill="#d7d3cd"/><path d="m100 120h10v10h-10z" fill="#d7d3cd"/><path d="m110 120h20v10h-20z" fill="#fdf8ff"/><path d="m130 120h20v10h-20z"/><path d="m150 120h10v10h-10z" fill="#d7d3cd"/><path d="m170 120h10v10h-10z" fill="#d7d3cd"/><path d="m180 120h20v10h-20z" fill="#fdf8ff"/><path d="m200 120h20v10h-20z"/><path d="m220 120h10v10h-10z" fill="#d7d3cd"/><path d="m70 130h40v10h-40z" fill="#d7d3cd"/><path d="m110 130h20v10h-20z" fill="#fdf8ff"/><path d="m130 130h20v10h-20z"/><path d="m150 130h30v10h-30z" fill="#d7d3cd"/><path d="m180 130h20v10h-20z" fill="#fdf8ff"/><path d="m200 130h20v10h-20z"/><path d="m220 130h10v10h-10z" fill="#d7d3cd"/><path d="m70 140h10v10h-10z" fill="#d7d3cd"/><path d="m100 140h10v10h-10z" fill="#d7d3cd"/><path d="m110 140h20v10h-20z" fill="#fdf8ff"/><path d="m130 140h20v10h-20z"/><path d="m150 140h10v10h-10z" fill="#d7d3cd"/><path d="m170 140h10v10h-10z" fill="#d7d3cd"/><path d="m180 140h20v10h-20z" fill="#fdf8ff"/><path d="m200 140h20v10h-20z"/><path d="m220 140h10v10h-10z" fill="#d7d3cd"/><path d="m70 150h10v10h-10z" fill="#d7d3cd"/><path d="m100 150h10v10h-10z" fill="#d7d3cd"/><path d="m110 150h20v10h-20z" fill="#fdf8ff"/><path d="m130 150h20v10h-20z"/><path d="m150 150h10v10h-10z" fill="#d7d3cd"/><path d="m170 150h10v10h-10z" fill="#d7d3cd"/><path d="m180 150h20v10h-20z" fill="#fdf8ff"/><path d="m200 150h20v10h-20z"/><path d="m220 150h10v10h-10z" fill="#d7d3cd"/><path d="m100 160h60v10h-60z" fill="#d7d3cd"/><path d="m170 160h60v10h-60z" fill="#d7d3cd"/></svg>