<svg height="320" shape-rendering="crispEdges" viewBox="0 0 320 320" width="320" xmlns="http://www.w3.org/2000/svg"><rect fill="#e1d7d5" height="100%" width="100%"/><g fill="#4bea69"><path d="m90 210h140v10h-140z"/><path d="m90 220h140v10h-140z"/><path d="m90 230h140v10h-140z"/><path d="m90 240h140v10h-140z"/><path d="m90 250h20v10h-20z"/><path d="m120 250h110v10h-110z"/><path d="m90 260h20v10h-20z"/><path d="m120 260h110v10h-110z"/><path d="m90 270h20v10h-20z"/><path d="m120 270h110v10h-110z"/><path d="m90 280h20v10h-20z"/><path d="m120 280h110v10h-110z"/><path d="m90 290h20v10h-20z"/><path d="m120 290h110v10h-110z"/><path d="m90 300h20v10h-20z"/><path d="m120 300h110v10h-110z"/><path d="m90 310h20v10h-20z"/><path d="m120 310h110v10h-110z"/></g><path d="m120 210h20v10h-20z"/><path d="m180 210h20v10h-20z"/><path d="m120 220h20v10h-20z"/><path d="m180 220h20v10h-20z"/><path d="m90 240h20v10h-20z"/><path d="m150 240h20v10h-20z"/><path d="m210 240h20v10h-20z"/><path d="m90 250h20v10h-20z"/><path d="m150 250h20v10h-20z"/><path d="m210 250h20v10h-20z"/><path d="m120 270h20v10h-20z"/><path d="m180 270h20v10h-20z"/><path d="m120 280h20v10h-20z"/><path d="m180 280h20v10h-20z"/><path d="m90 300h20v10h-20z"/><path d="m150 300h20v10h-20z"/><path d="m210 300h20v10h-20z"/><path d="m90 310h20v10h-20z"/><path d="m150 310h20v10h-20z"/><path d="m210 310h20v10h-20z"/><path d="m70 70h60v10h-60z" fill="#4bea69"/><path d="m130 70h80v10h-80z" fill="#ffd067"/><path d="m210 70h50v10h-50z" fill="#e9265c"/><path d="m60 80h20v10h-20z" fill="#4bea69"/><path d="m80 80h50v10h-50z" fill="#42ffb0"/><path d="m130 80h80v10h-80z" fill="#fff"/><path d="m210 80h30v10h-30z" fill="#fd8b5b"/><path d="m240 80h30v10h-30z" fill="#e9265c"/><path d="m60 90h10v10h-10z" fill="#4bea69"/><path d="m70 90h10v10h-10z" fill="#42ffb0"/><path d="m80 90h50v10h-50z" fill="#4bea69"/><path d="m130 90h80v10h-80z" fill="#ffd067"/><path d="m210 90h30v10h-30z" fill="#e9265c"/><path d="m240 90h20v10h-20z" fill="#fff"/><path d="m260 90h20v10h-20z" fill="#e9265c"/><path d="m60 100h10v10h-10z" fill="#4bea69"/><path d="m70 100h10v10h-10z" fill="#42ffb0"/><path d="m80 100h50v10h-50z" fill="#4bea69"/><path d="m130 100h80v10h-80z" fill="#ffd067"/><path d="m210 100h30v10h-30z" fill="#e9265c"/><path d="m240 100h20v10h-20z" fill="#fff"/><path d="m260 100h20v10h-20z" fill="#e9265c"/><path d="m60 110h70v10h-70z" fill="#4bea69"/><path d="m130 110h80v10h-80z" fill="#ffd067"/><path d="m210 110h50v10h-50z" fill="#e9265c"/><path d="m260 110h10v10h-10z" fill="#fd8b5b"/><path d="m270 110h10v10h-10z" fill="#e9265c"/><path d="m20 120h40v10h-40z" fill="#a38654"/><path d="m60 120h70v10h-70z" fill="#4bea69"/><path d="m130 120h80v10h-80z" fill="#ffd067"/><path d="m210 120h50v10h-50z" fill="#e9265c"/><path d="m260 120h10v10h-10z" fill="#fd8b5b"/><path d="m270 120h10v10h-10z" fill="#e9265c"/><path d="m20 130h40v10h-40z" fill="#a38654"/><path d="m60 130h70v10h-70z" fill="#4bea69"/><path d="m130 130h80v10h-80z" fill="#ffd067"/><path d="m210 130h70v10h-70z" fill="#e9265c"/><path d="m20 140h40v10h-40z" fill="#a38654"/><path d="m60 140h70v10h-70z" fill="#4bea69"/><path d="m130 140h80v10h-80z" fill="#ffd067"/><path d="m210 140h50v10h-50z" fill="#e9265c"/><path d="m260 140h10v10h-10z" fill="#fd8b5b"/><path d="m270 140h10v10h-10z" fill="#e9265c"/><path d="m20 150h40v10h-40z" fill="#a38654"/><path d="m60 150h70v10h-70z" fill="#4bea69"/><path d="m130 150h80v10h-80z" fill="#ffd067"/><path d="m210 150h70v10h-70z" fill="#e9265c"/><path d="m20 160h40v10h-40z" fill="#a38654"/><path d="m60 160h70v10h-70z" fill="#4bea69"/><path d="m130 160h80v10h-80z" fill="#ffd067"/><path d="m210 160h70v10h-70z" fill="#e9265c"/><path d="m60 170h70v10h-70z" fill="#4bea69"/><path d="m130 170h80v10h-80z" fill="#ffd067"/><path d="m210 170h70v10h-70z" fill="#e9265c"/><path d="m60 180h10v10h-10z" fill="#4bea69"/><path d="m70 180h20v10h-20z" fill="#42ffb0"/><path d="m90 180h40v10h-40z" fill="#4bea69"/><path d="m130 180h80v10h-80z" fill="#ffd067"/><path d="m210 180h70v10h-70z" fill="#e9265c"/><path d="m60 190h10v10h-10z" fill="#4bea69"/><path d="m70 190h20v10h-20z" fill="#42ffb0"/><path d="m90 190h40v10h-40z" fill="#4bea69"/><path d="m130 190h10v10h-10z" fill="#ffd067"/><path d="m140 190h20v10h-20z" fill="#fff"/><path d="m160 190h10v10h-10z" fill="#ffd067"/><path d="m170 190h10v10h-10z" fill="#fff"/><path d="m180 190h30v10h-30z" fill="#ffd067"/><path d="m210 190h60v10h-60z" fill="#e9265c"/><path d="m70 200h60v10h-60z" fill="#4bea69"/><path d="m130 200h80v10h-80z" fill="#ffd067"/><path d="m210 200h50v10h-50z" fill="#e9265c"/><path d="m100 210h20v10h-20z" fill="#4bea69"/><path d="m240 210h20v10h-20z" fill="#e9265c"/><path d="m100 220h10v10h-10z" fill="#4bea69"/><path d="m240 220h10v10h-10z" fill="#e9265c"/><path d="m240 230h10v10h-10z" fill="#e9265c"/><path d="m240 250h10v10h-10z" fill="#e9265c"/><path d="m100 110h60v10h-60z" fill="#2b83f6"/><path d="m170 110h60v10h-60z" fill="#2b83f6"/><path d="m100 120h10v10h-10z" fill="#2b83f6"/><path d="m110 120h20v10h-20z" fill="#fff"/><path d="m130 120h20v10h-20z"/><path d="m150 120h10v10h-10z" fill="#2b83f6"/><path d="m170 120h10v10h-10z" fill="#2b83f6"/><path d="m180 120h20v10h-20z" fill="#fff"/><path d="m200 120h20v10h-20z"/><path d="m220 120h10v10h-10z" fill="#2b83f6"/><path d="m70 130h40v10h-40z" fill="#2b83f6"/><path d="m110 130h20v10h-20z" fill="#fff"/><path d="m130 130h20v10h-20z"/><path d="m150 130h30v10h-30z" fill="#2b83f6"/><path d="m180 130h20v10h-20z" fill="#fff"/><path d="m200 130h20v10h-20z"/><path d="m220 130h10v10h-10z" fill="#2b83f6"/><path d="m70 140h10v10h-10z" fill="#2b83f6"/><path d="m100 140h10v10h-10z" fill="#2b83f6"/><path d="m110 140h20v10h-20z" fill="#fff"/><path d="m130 140h20v10h-20z"/><path d="m150 140h10v10h-10z" fill="#2b83f6"/><path d="m170 140h10v10h-10z" fill="#2b83f6"/><path d="m180 140h20v10h-20z" fill="#fff"/><path d="m200 140h20v10h-20z"/><path d="m220 140h10v10h-10z" fill="#2b83f6"/><path d="m70 150h10v10h-10z" fill="#2b83f6"/><path d="m100 150h10v10h-10z" fill="#2b83f6"/><path d="m110 150h20v10h-20z" fill="#fff"/><path d="m130 150h20v10h-20z"/><path d="m150 150h10v10h-10z" fill="#2b83f6"/><path d="m170 150h10v10h-10z" fill="#2b83f6"/><path d="m180 150h20v10h-20z" fill="#fff"/><path d="m200 150h20v10h-20z"/><path d="m220 150h10v10h-10z" fill="#2b83f6"/><path d="m100 160h60v10h-60z" fill="#2b83f6"/><path d="m170 160h60v10h-60z" fill="#2b83f6"/></svg>