<svg height="320" shape-rendering="crispEdges" viewBox="0 0 320 320" width="320" xmlns="http://www.w3.org/2000/svg"><rect fill="#d5d7e1" height="100%" width="100%"/><path d="m90 210h140v10h-140z" fill="#fd8b5b"/><path d="m90 220h140v10h-140z" fill="#fd8b5b"/><path d="m90 230h140v10h-140z" fill="#fd8b5b"/><path d="m90 240h140v10h-140z" fill="#fd8b5b"/><path d="m90 250h20v10h-20z" fill="#fd8b5b"/><path d="m120 250h110v10h-110z" fill="#fd8b5b"/><path d="m90 260h20v10h-20z" fill="#fd8b5b"/><path d="m120 260h110v10h-110z" fill="#fd8b5b"/><path d="m90 270h20v10h-20z" fill="#fd8b5b"/><path d="m120 270h110v10h-110z" fill="#fd8b5b"/><path d="m90 280h20v10h-20z" fill="#fd8b5b"/><path d="m120 280h110v10h-110z" fill="#fd8b5b"/><path d="m90 290h20v10h-20z" fill="#fd8b5b"/><path d="m120 290h110v10h-110z" fill="#fd8b5b"/><path d="m90 300h20v10h-20z" fill="#fd8b5b"/><path d="m120 300h110v10h-110z" fill="#fd8b5b"/><path d="m90 310h20v10h-20z" fill="#fd8b5b"/><path d="m120 310h110v10h-110z" fill="#fd8b5b"/><path d="m90 210h140v10h-140z" fill="#1f1d29"/><path d="m90 220h140v10h-140z" fill="#1f1d29"/><path d="m90 230h140v10h-140z" fill="#1f1d29"/><path d="m90 240h140v10h-140z" fill="#1f1d29"/><path d="m90 250h20v10h-20z" fill="#1f1d29"/><path d="m120 250h110v10h-110z" fill="#1f1d29"/><path d="m90 260h20v10h-20z" fill="#1f1d29"/><path d="m120 260h110v10h-110z" fill="#1f1d29"/><path d="m90 270h20v10h-20z" fill="#1f1d29"/><path d="m120 270h110v10h-110z" fill="#1f1d29"/><path d="m90 280h20v10h-20z" fill="#1f1d29"/><path d="m120 280h110v10h-110z" fill="#1f1d29"/><path d="m90 290h20v10h-20z" fill="#1f1d29"/><path d="m120 290h110v10h-110z" fill="#1f1d29"/><path d="m90 300h20v10h-20z" fill="#1f1d29"/><path d="m120 300h110v10h-110z" fill="#1f1d29"/><path d="m90 310h20v10h-20z" fill="#1f1d29"/><path d="m120 310h110v10h-110z" fill="#1f1d29"/><path d="m110 30h50v10h-50z" fill="#b2958d"/><path d="m90 40h10v10h-10z" fill="#1f1d29"/><path d="m130 40h80v10h-80z" fill="#b2958d"/><path d="m90 50h20v10h-20z" fill="#1f1d29"/><path d="m220 50h40v10h-40z" fill="#b2958d"/><path d="m90 60h20v10h-20z" fill="#f3322c"/><g fill="#1f1d29"><path d="m90 70h20v10h-20z"/><path d="m150 70h10v10h-10z"/><path d="m190 70h10v10h-10z"/><path d="m230 70h10v10h-10z"/><path d="m90 80h20v10h-20z"/><path d="m140 80h20v10h-20z"/><path d="m180 80h20v10h-20z"/><path d="m220 80h20v10h-20z"/><path d="m80 90h40v10h-40z"/><path d="m130 90h30v10h-30z"/><path d="m170 90h30v10h-30z"/><path d="m210 90h30v10h-30z"/><path d="m80 100h160v10h-160z"/><path d="m80 110h160v10h-160z"/><path d="m80 120h160v10h-160z"/><path d="m80 130h160v10h-160z"/><path d="m80 140h160v10h-160z"/><path d="m80 150h160v10h-160z"/><path d="m80 160h160v10h-160z"/><path d="m80 170h160v10h-160z"/><path d="m80 180h20v10h-20z"/></g><path d="m100 180h10v10h-10z" fill="#abaaa8"/><path d="m110 180h10v10h-10z" fill="#1f1d29"/><path d="m120 180h20v10h-20z" fill="#ffe939"/><path d="m140 180h10v10h-10z" fill="#1f1d29"/><path d="m150 180h20v10h-20z" fill="#ffe939"/><path d="m170 180h10v10h-10z" fill="#1f1d29"/><path d="m180 180h10v10h-10z" fill="#abaaa8"/><path d="m190 180h50v10h-50z" fill="#1f1d29"/><path d="m80 190h160v10h-160z" fill="#1f1d29"/><path d="m80 200h160v10h-160z" fill="#1f1d29"/><path d="m100 110h60v10h-60z"/><path d="m170 110h60v10h-60z"/><path d="m100 120h10v10h-10z"/><path d="m110 120h20v10h-20z" fill="#fff"/><path d="m130 120h30v10h-30z"/><path d="m170 120h10v10h-10z"/><path d="m180 120h20v10h-20z" fill="#fff"/><path d="m200 120h30v10h-30z"/><path d="m70 130h40v10h-40z"/><path d="m110 130h20v10h-20z" fill="#fff"/><path d="m130 130h50v10h-50z"/><path d="m180 130h20v10h-20z" fill="#fff"/><path d="m200 130h30v10h-30z"/><path d="m70 140h10v10h-10z"/><path d="m100 140h10v10h-10z"/><path d="m110 140h20v10h-20z" fill="#fff"/><path d="m130 140h30v10h-30z"/><path d="m170 140h10v10h-10z"/><path d="m180 140h20v10h-20z" fill="#fff"/><path d="m200 140h30v10h-30z"/><path d="m70 150h10v10h-10z"/><path d="m100 150h10v10h-10z"/><path d="m110 150h20v10h-20z" fill="#fff"/><path d="m130 150h30v10h-30z"/><path d="m170 150h10v10h-10z"/><path d="m180 150h20v10h-20z" fill="#fff"/><path d="m200 150h30v10h-30z"/><path d="m100 160h60v10h-60z"/><path d="m170 160h60v10h-60z"/></svg>