<svg height="320" shape-rendering="crispEdges" viewBox="0 0 320 320" width="320" xmlns="http://www.w3.org/2000/svg"><rect fill="#e1d7d5" height="100%" width="100%"/><path d="m90 210h140v10h-140z" fill="#4bea69"/><path d="m90 220h140v10h-140z" fill="#4bea69"/><path d="m90 230h140v10h-140z" fill="#4bea69"/><path d="m90 240h140v10h-140z" fill="#4bea69"/><path d="m90 250h20v10h-20z" fill="#4bea69"/><path d="m120 250h110v10h-110z" fill="#4bea69"/><path d="m90 260h20v10h-20z" fill="#4bea69"/><path d="m120 260h110v10h-110z" fill="#4bea69"/><path d="m90 270h20v10h-20z" fill="#4bea69"/><path d="m120 270h110v10h-110z" fill="#4bea69"/><path d="m90 280h20v10h-20z" fill="#4bea69"/><path d="m120 280h110v10h-110z" fill="#4bea69"/><path d="m90 290h20v10h-20z" fill="#4bea69"/><path d="m120 290h110v10h-110z" fill="#4bea69"/><path d="m90 300h20v10h-20z" fill="#4bea69"/><path d="m120 300h110v10h-110z" fill="#4bea69"/><path d="m90 310h20v10h-20z" fill="#4bea69"/><path d="m120 310h110v10h-110z" fill="#4bea69"/><path d="m90 210h140v10h-140z" fill="#5d6061"/><path d="m90 220h140v10h-140z" fill="#5d6061"/><path d="m90 230h40v10h-40z" fill="#5d6061"/><path d="m130 230h70v10h-70z" fill="#d8dadf"/><path d="m200 230h30v10h-30z" fill="#5d6061"/><path d="m90 240h140v10h-140z" fill="#5d6061"/><path d="m90 250h20v10h-20z" fill="#76858b"/><path d="m120 250h20v10h-20z" fill="#5d6061"/><path d="m140 250h30v10h-30z" fill="#d8dadf"/><path d="m170 250h20v10h-20z" fill="#5d6061"/><path d="m190 250h10v10h-10z" fill="#d8dadf"/><path d="m200 250h30v10h-30z" fill="#5d6061"/><path d="m90 260h20v10h-20z" fill="#5d6061"/><path d="m120 260h10v10h-10z" fill="#5d6061"/><path d="m130 260h10v10h-10z" fill="#d8dadf"/><path d="m140 260h30v10h-30z" fill="#5d6061"/><path d="m170 260h20v10h-20z" fill="#d8dadf"/><path d="m190 260h40v10h-40z" fill="#5d6061"/><path d="m90 270h20v10h-20z" fill="#76858b"/><path d="m120 270h30v10h-30z" fill="#5d6061"/><path d="m150 270h10v10h-10z" fill="#d8dadf"/><path d="m160 270h70v10h-70z" fill="#5d6061"/><path d="m90 280h20v10h-20z" fill="#5d6061"/><path d="m120 280h10v10h-10z" fill="#5d6061"/><path d="m130 280h20v10h-20z" fill="#d8dadf"/><path d="m150 280h10v10h-10z" fill="#5d6061"/><path d="m160 280h40v10h-40z" fill="#d8dadf"/><path d="m200 280h30v10h-30z" fill="#5d6061"/><path d="m90 290h20v10h-20z" fill="#76858b"/><path d="m120 290h110v10h-110z" fill="#5d6061"/><path d="m90 300h20v10h-20z" fill="#5d6061"/><path d="m120 300h10v10h-10z" fill="#5d6061"/><path d="m130 300h70v10h-70z" fill="#d8dadf"/><path d="m200 300h30v10h-30z" fill="#5d6061"/><path d="m90 310h20v10h-20z" fill="#76858b"/><path d="m120 310h110v10h-110z" fill="#5d6061"/><g fill="#fff"><path d="m90 40h140v10h-140z"/><path d="m70 50h180v10h-180z"/><path d="m60 60h200v10h-200z"/><path d="m60 70h200v10h-200z"/><path d="m50 80h220v10h-220z"/><path d="m50 90h220v10h-220z"/><path d="m50 100h220v10h-220z"/><path d="m50 110h220v10h-220z"/><path d="m50 120h220v10h-220z"/><path d="m50 130h220v10h-220z"/><path d="m50 140h220v10h-220z"/><path d="m60 150h200v10h-200z"/><path d="m60 160h200v10h-200z"/><path d="m70 170h180v10h-180z"/><path d="m90 180h150v10h-150z"/><path d="m200 190h30v10h-30z"/><path d="m200 200h20v10h-20z"/><path d="m190 210h20v10h-20z"/><path d="m190 220h10v10h-10z"/></g><path d="m100 110h60v10h-60z" fill="#8dd122"/><path d="m170 110h60v10h-60z" fill="#8dd122"/><path d="m100 120h10v10h-10z" fill="#8dd122"/><path d="m110 120h20v10h-20z" fill="#fff"/><path d="m130 120h20v10h-20z"/><path d="m150 120h10v10h-10z" fill="#8dd122"/><path d="m170 120h10v10h-10z" fill="#8dd122"/><path d="m180 120h20v10h-20z" fill="#fff"/><path d="m200 120h20v10h-20z"/><path d="m220 120h10v10h-10z" fill="#8dd122"/><path d="m70 130h40v10h-40z" fill="#8dd122"/><path d="m110 130h20v10h-20z" fill="#fff"/><path d="m130 130h20v10h-20z"/><path d="m150 130h30v10h-30z" fill="#8dd122"/><path d="m180 130h20v10h-20z" fill="#fff"/><path d="m200 130h20v10h-20z"/><path d="m220 130h10v10h-10z" fill="#8dd122"/><path d="m70 140h10v10h-10z" fill="#8dd122"/><path d="m100 140h10v10h-10z" fill="#8dd122"/><path d="m110 140h20v10h-20z" fill="#fff"/><path d="m130 140h20v10h-20z"/><path d="m150 140h10v10h-10z" fill="#8dd122"/><path d="m170 140h10v10h-10z" fill="#8dd122"/><path d="m180 140h20v10h-20z" fill="#fff"/><path d="m200 140h20v10h-20z"/><path d="m220 140h10v10h-10z" fill="#8dd122"/><path d="m70 150h10v10h-10z" fill="#8dd122"/><path d="m100 150h10v10h-10z" fill="#8dd122"/><path d="m110 150h20v10h-20z" fill="#fff"/><path d="m130 150h20v10h-20z"/><path d="m150 150h10v10h-10z" fill="#8dd122"/><path d="m170 150h10v10h-10z" fill="#8dd122"/><path d="m180 150h20v10h-20z" fill="#fff"/><path d="m200 150h20v10h-20z"/><path d="m220 150h10v10h-10z" fill="#8dd122"/><path d="m100 160h60v10h-60z" fill="#8dd122"/><path d="m170 160h60v10h-60z" fill="#8dd122"/></svg>