<svg xmlns="http://www.w3.org/2000/svg" viewBox="0 -0.5 50 50" shape-rendering="crispEdges">
	<title>Bitcoin Pussies #016</title>
	<desc>Bitcoin Pussies are 69 uniquely drawn and inscribed cats on Bitcoin</desc>
	<desc xmlns:meow="https://bitcoinpussies.com/">
		<meow:traits>
			<meow:Skin>White (Shiny)</meow:Skin>
			<meow:Eyes>Open</meow:Eyes>
			<meow:Gear>Fast food restaurant worker hat and microphone</meow:Gear>
			<meow:Message>Meowcome to nekodonalds, how may I help you?</meow:Message>
		</meow:traits>
	</desc>
	<path stroke="#a29c94" d="M0 0h50M0 1h50M0 2h50M0 3h50M0 4h50M0 5h50M0 6h50M0 7h50M0 8h50M0 9h50M0 10h50M0 11h50M0 12h50M0 13h21M29 13h21M0 14h15M18 14h2M30 14h2M35 14h15M0 15h14M36 15h14M0 16h14M36 16h14M0 17h14M36 17h14M0 18h14M36 18h14M0 19h14M36 19h14M0 20h15M35 20h15M0 21h15M35 21h15M0 22h14M36 22h14M0 23h14M36 23h14M0 24h13M37 24h13M0 25h12M38 25h12M0 26h13M37 26h13M0 27h12M38 27h12M0 28h13M37 28h13M0 29h14M36 29h14M0 30h15M35 30h15M0 31h17M33 31h17M0 32h14M16 32h3M31 32h19M0 33h13M17 33h1M32 33h18M0 34h13M17 34h1M32 34h18M0 35h14M33 35h17M0 36h15M33 36h17M0 37h16M33 37h17M0 38h17M32 38h18M0 39h19M31 39h19M0 40h50M0 41h50M0 42h50M0 43h50M0 44h50M0 45h50M0 46h50M0 47h50M0 48h50M0 49h50" />
	<path stroke="#000000" d="M21 13h8M15 14h3M20 14h1M29 14h1M32 14h3M14 15h1M18 15h3M29 15h3M35 15h1M14 16h1M20 16h1M29 16h1M35 16h1M14 17h1M18 17h14M35 17h1M14 18h1M17 18h1M21 18h1M30 18h1M32 18h1M35 18h1M14 19h1M16 19h1M22 19h8M33 19h1M35 19h1M15 20h1M34 20h1M15 21h1M34 21h1M14 22h1M19 22h3M29 22h3M35 22h1M14 23h1M18 23h1M22 23h1M28 23h1M32 23h1M35 23h1M13 24h1M36 24h1M12 25h1M24 25h1M26 25h1M37 25h1M13 26h1M25 26h1M36 26h1M12 27h1M37 27h1M13 28h1M36 28h1M14 29h1M35 29h1M15 30h2M33 30h2M17 31h3M30 31h3M14 32h2M19 32h1M30 32h1M13 33h1M16 33h1M18 33h1M31 33h1M13 34h1M16 34h1M18 34h1M31 34h1M14 35h1M17 35h1M32 35h1M15 36h1M17 36h1M32 36h1M16 37h2M32 37h1M17 38h2M20 38h1M22 38h1M27 38h1M29 38h1M31 38h1M19 39h12" />
	<path stroke="#b90010" d="M21 14h8M21 15h3M27 15h2M21 16h3M25 16h1M27 16h2M22 18h8M20 31h3M25 31h1M20 32h3M25 32h1" />
	<path stroke="#ffffff" d="M15 15h3M32 15h3M15 16h1M19 16h1M30 16h1M34 16h1M15 17h1M34 17h1M15 18h1M18 18h3M31 18h1M34 18h1M15 19h1M17 19h5M30 19h3M34 19h1M16 20h18M16 21h18M16 22h3M22 22h7M32 22h3M16 23h2M20 23h1M23 23h5M30 23h1M33 23h2M14 24h1M16 24h3M22 24h7M32 24h4M13 25h2M16 25h2M22 25h2M25 25h1M27 25h2M33 25h4M14 26h1M16 26h2M20 26h5M26 26h5M33 26h3M13 27h3M17 27h3M23 27h14M14 28h3M23 28h13M15 29h5M23 29h12M17 30h16M14 33h2M19 33h12M14 34h2M19 34h12M15 35h2M18 35h14M16 36h1M18 36h14M18 37h14M19 38h1M21 38h1M23 38h4M28 38h1M30 38h1" />
	<path stroke="#ffce00" d="M24 15h3M24 16h1M26 16h1" />
	<path stroke="#ffd4c6" d="M16 16h3M31 16h3M16 17h2M32 17h2M16 18h1M33 18h1" />
	<path stroke="#3f3f3f" d="M15 22h1M15 23h1M15 24h1M15 25h1M15 26h1M16 27h1M20 27h1M17 28h5M20 29h2" />
	<path stroke="#f7bf04" d="M19 23h1M21 23h1M19 24h3" />
	<path stroke="#45bff5" d="M29 23h1M31 23h1M29 24h3" />
	<path stroke="#ffb2a2" d="M18 25h1M32 25h1M18 26h2M31 26h2" />
	<path stroke="#fece4e" d="M19 25h3" />
	<path stroke="#6dd1ff" d="M29 25h3" />
	<path stroke="#2a2a2a" d="M21 27h2M22 28h1M22 29h1" />
	<path stroke="#ad000c" d="M23 31h2M26 31h4M23 32h2M26 32h4" />
</svg>