<svg viewBox="-360 -360 720 720" width="100%" height="100%" xmlns="http://www.w3.org/2000/svg"><path id="loop-1" stroke="none" fill="none" d="M -32,0 a32,32 0 1,0 64,0 a32,32 0 1,0 -64,0" class="loop-1"></path><path id="loop-2.1" stroke="none" fill="none" d="M -64,0 a64,64 0 1,0 128,0 a64,64 0 1,0 -128,0" class="loop-2"></path><path id="loop-2.2" stroke="none" fill="none" d="M 64,0 a64,64 180 1,0 -128,0 a64,64 180 1,0 128,0" class="loop-2"></path><path id="loop-3.1" stroke="none" fill="none" d="M -128,0 a128,128 0 1,0 256,0 a128,128 0 1,0 -256,0" class="loop-3"></path><path id="loop-3.2" stroke="none" fill="none" d="M 0,-128 a128,128 90 1,0 0,256 a128,128 90 1,0 0,-256" class="loop-3"></path><path id="loop-3.3" stroke="none" fill="none" d="M 0,128 a128,128 180 1,0 0,-256 a128,128 180 1,0 0,256" class="loop-3"></path><path id="loop-3.4" stroke="none" fill="none" d="M 128,0 a128,128 270 1,0 -256,0 a128,128 270 1,0 256,0" class="loop-3"></path><path id="loop-4.1" stroke="none" fill="none" d="M -256,0 a256,256 0 1,0 512,0 a256,256 0 1,0 -512,0" class="loop-4"></path><path id="loop-4.2" stroke="none" fill="none" d="M 0,-256 a256,256 90 1,0 0,512 a256,256 90 1,0 0,-512" class="loop-4"></path><path id="loop-4.3" stroke="none" fill="none" d="M 0,256 a256,256 180 1,0 0,-512 a256,256 180 1,0 0,512" class="loop-4"></path><path id="loop-4.4" stroke="none" fill="none" d="M 256,0 a256,256 270 1,0 -512,0 a256,256 270 1,0 512,0" class="loop-4"></path><circle fill="hsl(46, 90%, 52%)" r="4" cy="0" cx="0" class="loop-circle" id="circle-1"></circle><circle fill="hsl(136, 90%, 52%)" r="8" cy="" cx="" class="loop-circle" id="circle-1"><animateMotion repeatCount="indefinite" dur="1s"><mpath href="#loop-1"></mpath></animateMotion></circle><circle fill="hsl(226, 90%, 52%)" r="12.94427191" cy="" cx="" class="loop-circle" id="circle-2.2"><animateMotion repeatCount="indefinite" dur="1.61803398875s"><mpath href="#loop-2.2"></mpath></animateMotion></circle><circle fill="hsl(316, 90%, 52%)" r="12.94427191" cy="" cx="" class="loop-circle" id="circle-2.1"><animateMotion repeatCount="indefinite" dur="1.61803398875s"><mpath href="#loop-2.1"></mpath></animateMotion></circle><circle fill="hsl(226, 90%, 52%)" r="20.94427191" cy="" cx="" class="loop-circle" id="circle-3.1"><animateMotion repeatCount="indefinite" dur="3.2360679775s"><mpath href="#loop-3.1"></mpath></animateMotion></circle><circle fill="hsl(316, 90%, 52%)" r="20.94427191" cy="" cx="" class="loop-circle" id="circle-3.2"><animateMotion repeatCount="indefinite" dur="3.2360679775s"><mpath href="#loop-3.2"></mpath></animateMotion></circle><circle fill="hsl(46, 90%, 52%)" r="20.94427191" cy="" cx="" class="loop-circle" id="circle-3.3"><animateMotion repeatCount="indefinite" dur="3.2360679775s"><mpath href="#loop-3.3"></mpath></animateMotion></circle><circle fill="hsl(136, 90%, 52%)" r="20.94427191" cy="" cx="" class="loop-circle" id="circle-3.4"><animateMotion repeatCount="indefinite" dur="3.2360679775s"><mpath href="#loop-3.4"></mpath></animateMotion></circle><circle fill="hsl(46, 90%, 52%)" r="33.88854382" cy="" cx="" class="loop-circle" id="circle-4.1"><animateMotion repeatCount="indefinite" dur="6.472135955s"><mpath href="#loop-4.1"></mpath></animateMotion></circle><circle fill="hsl(316, 90%, 52%)" r="33.88854382" cy="" cx="" class="loop-circle" id="circle-4.2"><animateMotion repeatCount="indefinite" dur="6.472135955s"><mpath href="#loop-4.2"></mpath></animateMotion></circle><circle fill="hsl(226, 90%, 52%)" r="33.88854382" cy="" cx="" class="loop-circle" id="circle-4.3"><animateMotion repeatCount="indefinite" dur="6.472135955s"><mpath href="#loop-4.3"></mpath></animateMotion></circle><circle fill="hsl(136, 90%, 52%)" r="33.88854382" cy="" cx="" class="loop-circle" id="circle-4.4"><animateMotion repeatCount="indefinite" dur="6.472135955s"><mpath href="#loop-4.4"></mpath></animateMotion></circle><g transform="rotate(45 0 0)"><circle fill="hsl(136, 90%, 52%)" r="33.88854382" cy="" cx="" class="loop-circle" id="circle-4.1.2"><animateMotion repeatCount="indefinite" dur="6.472135955s"><mpath href="#loop-4.1"></mpath></animateMotion></circle><circle fill="hsl(226, 90%, 52%)" r="33.88854382" cy="" cx="" class="loop-circle" id="circle-4.2.2"><animateMotion repeatCount="indefinite" dur="6.472135955s"><mpath href="#loop-4.2"></mpath></animateMotion></circle><circle fill="hsl(316, 90%, 52%)" r="33.88854382" cy="" cx="" class="loop-circle" id="circle-4.3.2"><animateMotion repeatCount="indefinite" dur="6.472135955s"><mpath href="#loop-4.3"></mpath></animateMotion></circle><circle fill="hsl(46, 90%, 52%)" r="33.88854382" cy="" cx="" class="loop-circle" id="circle-4.4.2"><animateMotion repeatCount="indefinite" dur="6.472135955s"><mpath href="#loop-4.4"></mpath></animateMotion></circle></g></svg>