<svg xml:space="preserve" style="enable-background:new 0 0 50 50;" viewBox="0 0 50 50" y="0px" x="0px" xmlns:xlink="http://www.w3.org/1999/xlink" xmlns="http://www.w3.org/2000/svg" id="レイヤー_1" version="1.1">
<style type="text/css">
	.st0{fill:#FFFFFF;}
	.st1{fill:#86DBD9;}
	.st2{fill:#FFAFCB;}
	.st3{fill:none;stroke:#060606;stroke-width:0.3174;stroke-linecap:round;stroke-linejoin:round;stroke-miterlimit:10;}
</style>
<g>
	<rect height="50" width="50" class="st0" y="0"></rect>
	<circle r="0.53" cy="22.68" cx="32.88" class="st1"></circle>
	<ellipse ry="0.82" rx="0.53" cy="18.84" cx="21.93" class="st1"></ellipse>
	<ellipse ry="0.82" rx="0.53" cy="18.83" cx="28.01" class="st1"></ellipse>
	<circle r="0.53" cy="24.36" cx="38.01" class="st1"></circle>
	<path d="M36.95,17.66c-1.13-0.37-2.37,0.62-1.86,2.81c0,0-0.13,1.05-0.46,1.32c0,0,1.51,0.47,2.2-0.74
		c0.05-0.09,0.92-0.41,0.98-0.53C38.21,19.69,38.74,18.24,36.95,17.66z" class="st1"></path>
	<path d="M32.88,36.56c-0.68-0.9-1.4-1.53-2.64-1.8c-0.13-0.03,0.36-0.13,0.24-0.13c0.66-0.54,0.52-1.51,0.52-1.51
		c-0.84,0.14-1.26,0.95-1.26,0.95l-0.38-0.27l0.74-1.28c0.86-0.06,0.84-0.47,0.84-0.47l-1.31-0.68l0.05,0.7l-0.81,1.5l-1.03-0.26
		c0,0,0.49-0.5,0.63-0.81c0.15-0.31,0.19-1.25,0.19-1.25s-0.51,0.23-1.17,1.4c-0.14,0.25-1.13,0.32-1.55,0.82
		c-0.42,0.5-0.14,0.44-0.14,0.44c-0.03,0.65,0.5,0.68,0.5,0.68l-0.47,0.64c-0.1-0.1-0.21-0.18-0.33-0.24l0.03-1.88l0.14-0.68
		l-1.16,0.24c0.12,0.44,0.35,0.53,0.35,0.53l0.01,1.17c-1.03-1.03-2.01-1.12-2.01-1.12l0.43-0.67c-0.39-0.13-0.52-0.4-0.52-0.4
		l-0.62,0.38c-0.47-0.09-0.92,0.06-0.92,0.06l-0.41-1.12c0.51-0.38,0.23-1.11,0.23-1.11l-1.84,0.67c0.01,0.36,1.06,0.71,1.06,0.71
		s0.56,1.65,0.59,2.22c0.01,0.15,0.05,0.25,0.11,0.31c-0.12,0.03-0.25,0.07-0.39,0.12l-0.39-0.59c0,0-1.26-1.55-3.65-1.95
		c0,0,0.52,0.91,1.04,1.87c0.34,0.64,0.99,0.43,0.99,0.43l1.29-0.3c-0.88,0.33-1.4,0.85-2.15,2.22c-0.85,1.56-0.93,2.54-0.93,2.54
		s0.14-0.66,2.25-1.28c1.69-0.49,2.71-0.65,3.14-1.18c-0.15,0.22,0.17,0.19-0.2,0.29c0,0-0.28,1.26,1.46,2.14
		c1.47,0.75,2.16,1.81,2.16,1.81s1.22-1.14,1.01-2.94c-0.04-0.31-0.08-0.59-0.13-0.83c0.05,0.06,0.1,0.12,0.15,0.18
		c0.4,0.4,2.54-0.31,2.96-0.45c0.15,0.15,0.31,0.32,0.48,0.51c0.81,0.94,1.97,0.68,1.97,0.68c2.01,0.78,2.68,0.09,2.68,0.09
		S33.56,37.46,32.88,36.56z M24.2,35.77c-0.41-0.25-1.38-0.33-1.79,0.01c0,0,0.03-0.42,0.02-0.31c0.02-0.33-0.07-0.64-0.25-0.87
		l0.07,0.03c0,0,0.01-0.36,0.48-0.04s2.1,0.17,2.1,0.17l0.16,0.09C24.19,34.78,24.2,35.77,24.2,35.77z" class="st1"></path>
	<g>
		<ellipse ry="0.46" rx="0.68" cy="20.03" cx="28.48" class="st2"></ellipse>
		<ellipse ry="0.46" rx="0.68" cy="20.03" cx="21.52" class="st2"></ellipse>
	</g>
	<circle r="0.49" cy="26.12" cx="38.18" class="st2"></circle>
	<circle r="0.46" cy="24" cx="31.53" class="st2"></circle>
	<path d="M20.07,30.76c0,0-1.92,0.21-2.99-0.9c-0.78-0.8-0.98-1.7-0.89-2.47s0.77-1.13,1.56-0.96
		c0,0,0.21-0.43,0.72-0.64c0.51-0.21,0.88,0.3,0.88,0.3s0.33-1,1.38-1s1.76,1.62,1.72,2.33C22.41,28.12,22.26,30.29,20.07,30.76z" class="st2"></path>
	<path d="M30.11,31.6c0,0-1.05-0.64-0.91-1.93c0.12-1.14,0.93-1.53,1.51-1.45c0.58,0.07,0.69,0.45,0.69,0.45
		s0.37-0.07,0.66,0.3c0,0,0.64-0.48,0.99,0.34c0,0,1.5,0.36,0.19,2.07C31.94,33.09,30.11,31.6,30.11,31.6z" class="st2"></path>
	<path d="M27.65,5.99c0,0-0.56-1.77-2.51-1.64S23,6.66,23.1,7.45c0,0-5.2,1.97-5.56,5.78
		c-0.36,3.81,0.75,5.15,0.75,5.15s0.46,0.38,0.54,0s0.48-1.77,1.82-3.23c1.34-1.46,1.12-2.21,1.12-2.21s1.22,3.35,4.64,2.65
		c0,0,1.34,0.57,2.61,0.1c0,0,2.09,1.47,2.24,2.53c0,0,0.54-0.7,1.22-0.05c0,0,1.59-1.12,1.1-4.22s-1.84-4.91-5.79-6.26
		C27.79,7.68,27.95,6.71,27.65,5.99z" class="st2"></path>
	<path d="M26.71,31.35c0.08-0.67-0.16-1.89-0.16-1.89s-0.64-1.57-1.78-0.56c0,0-1-0.78-1.34,0.32
		c0,0-0.97-0.02-0.91,1.04c0,0,0.32,2.34,1.57,2.37C25.62,32.65,26.64,32.02,26.71,31.35z" class="st2"></path>
	<path d="M23,38.42l-0.17,0.53c0,0,0.6,0.58-0.29,1.1c0,0,0.3,0.89-0.59,1.24c0,0,0.96,0.61-2.34,1.25
		c0,0,1.18,3.36,5.74,3.14s4.93-3.17,4.93-3.17s-2.31-0.07-2.27-1.2c0,0-0.59-0.06-0.65-1.22c0,0-0.94-0.89-0.02-1.29
		c0,0-0.7-0.93,0.17-1.04c0.87-0.11,2.26,0.24,2.26,0.24s-0.86-0.53-0.28-1.61l-0.15-0.12c0,0-0.84,0.53-2.79,0.53
		c0,0,0.12,1.72-0.92,3.65C25.63,40.45,24.28,38.69,23,38.42z" class="st2"></path>
	<path d="M20.82,36.95c0,0,0.15,0.83-0.67,0.98l1.89-0.1c0,0-0.67-0.61-0.65-1.15L20.82,36.95z" class="st2"></path>
	<circle r="0.19" cy="18.62" cx="21.85" class="st0"></circle>
	<circle r="0.19" cy="18.62" cx="27.97" class="st0"></circle>
	<circle r="0.19" cy="24.23" cx="37.9" class="st0"></circle>
	<circle r="0.19" cy="22.59" cx="32.75" class="st0"></circle>
	<path d="M34.52,24.6c0.19,0.07,0.62,0.19,0.41,0.35c-0.21,0.16-0.42,0.31-0.64,0.11c-0.23-0.19-0.37-0.48-0.21-0.48
		C34.24,24.58,34.52,24.6,34.52,24.6z"></path>
	<path d="M28.59,15.24c0.43,0.56,1.03,0.97,1.57,1.44c0.45,0.39,0.91,0.97,1.07,1.53" class="st3"></path>
	<path d="M31.6,21.06c-0.39,0.24-0.72,0.29-1.19,0.31" class="st3"></path>
	<path d="M22.28,25.33c-0.28-0.03-0.69-0.09-0.73-0.07" class="st3"></path>
	<path d="M20.78,36.85c0.09,0.23,0.05,0.51-0.11,0.71c-0.2,0.26-0.55,0.38-0.89,0.38" class="st3"></path>
	<path d="M16.03,36.93c0.23,0.02,0.46,0.05,0.69,0.06" class="st3"></path>
	<path d="M19.34,37.85c0.88,0.23,1.75,0.08,2.66-0.04" class="st3"></path>
	<path d="M23.04,38.38c-0.02,0.09-0.06,0.16-0.11,0.23c-0.18,0.24-0.48,0.34-0.77,0.42c-0.81,0.22-1.65,0.3-2.49,0.25" class="st3"></path>
	<path d="M12.97,32.53c-0.52,1.09-0.91,2.23-1.27,3.4" class="st3"></path>
	<path d="M15.86,29.08c-0.94,0.66-1.7,1.54-2.32,2.48" class="st3"></path>
	<path d="M27.75,31.75c-0.38,0.05-0.76,0.06-1.13,0.06" class="st3"></path>
	<path d="M29.44,31.23c-0.21,0.12-0.44,0.22-0.68,0.3" class="st3"></path>
	<path d="M20.97,31.33c0.21,0.12,0.79,0.34,1.51,0.31" class="st3"></path>
	<path d="M27.49,24.7c-0.02,0.72-0.02,1.35,0.15,1.71" class="st3"></path>
	<path d="M22.46,24.7c0.02,0.74,0.05,1.37-0.13,1.73" class="st3"></path>
	<path d="M26.13,25.15c1.04-0.21,2.02-0.73,2.79-1.46s1.33-1.69,1.59-2.72" class="st3"></path>
	<path d="M18.46,18.46c-0.18-0.15-0.47-0.05-0.64,0.12c-0.33,0.32-0.45,0.83-0.35,1.28s0.42,0.83,0.81,1.08
		s0.86,0.36,1.32,0.38" class="st3"></path>
	<path d="M24.77,19.16c0.04,0.29-0.01,0.59-0.13,0.85c-0.03,0.07-0.07,0.13-0.07,0.21c-0.01,0.08,0.03,0.17,0.08,0.24
		s0.12,0.12,0.19,0.17" class="st3"></path>
	<path d="M27.85,16.39c0.34-0.03,0.69,0.11,0.91,0.37" class="st3"></path>
	<path d="M22.28,16.39c-0.34-0.03-0.69,0.11-0.91,0.37" class="st3"></path>
	<ellipse ry="0.87" rx="0.59" cy="18.86" cx="28.05" class="st3"></ellipse>
	<path d="M22.51,40.1c0.26,0.15,0.26,0.55,0.08,0.79s-0.48,0.34-0.77,0.42c-0.81,0.22-1.29,0.3-2.12,0.25" class="st3"></path>
	<path d="M23.88,25.15c-1.04-0.21-2.02-0.73-2.79-1.46S19.76,22,19.5,20.97" class="st3"></path>
	<path d="M22.45,38.93c0.16-0.02,0.34-0.03,0.48,0.06c0.26,0.15,0.26,0.55,0.08,0.79c-0.18,0.24-0.48,0.34-0.77,0.42
		c-0.81,0.22-1.65,0.3-2.49,0.25" class="st3"></path>
	<path d="M21.94,41.31c0.2,0.11,0.2,0.36,0.07,0.5c-0.2,0.22-0.48,0.34-0.77,0.42c-0.81,0.22-1.29,0.3-2.12,0.25
		c0,0-2.96-0.21-5-1.43c-0.41-0.24-1.67-1.15-2.06-1.68" class="st3"></path>
	<ellipse ry="0.87" rx="0.59" cy="18.86" cx="21.96" class="st3"></ellipse>
	<ellipse ry="0.64" rx="0.52" cy="22.62" cx="25" class="st3" transform="matrix(0.9397 -0.3419 0.3419 0.9397 -6.2276 9.912)"></ellipse>
	<path d="M21.45,11.63c0.11,1.16,0.6,2.3,1.46,3.08c0.86,0.78,2.28,1.09,3.4,0.81" class="st3"></path>
	<path d="M25.08,13.54c0.13,0.4,0.27,0.8,0.48,1.16c0.21,0.36,0.5,0.69,0.87,0.88c0.27,0.14,0.57,0.19,0.87,0.22
		c0.5,0.05,1.1-0.02,1.59-0.12" class="st3"></path>
	<path d="M21.75,13.12c-0.31,1.01-1.01,1.84-1.65,2.68c-0.63,0.84-1.19,1.6-1.22,2.66" class="st3"></path>
	<path d="M25.25,7.28c4.14,0.23,7.84,2.44,8.24,6.58c0.17,1.71,0.25,3.06-1.02,4.36" class="st3"></path>
	<path d="M16.79,12.41c-0.57,2.05-0.6,4.61,0.99,6.22" class="st3"></path>
	<path d="M24.73,7.28c-0.63,0.05-1.26,0.13-1.88,0.26c-0.62,0.13-1.24,0.32-1.82,0.57c-0.07,0.03-0.14,0.08-0.21,0.09
		c-0.07,0.01-0.12,0.03-0.19,0.06c-0.12,0.06-0.24,0.12-0.36,0.19c-0.24,0.13-0.47,0.27-0.7,0.42c-0.45,0.3-0.87,0.64-1.25,1.03
		c-0.38,0.38-0.71,0.81-0.98,1.28c-0.03,0.06-0.07,0.12-0.1,0.17" class="st3"></path>
	<path d="M22.23,7.52c-0.19-0.74-0.04-1.66,0.43-2.26s1.23-0.96,2-0.94h0.65c0.76-0.02,1.52,0.34,2,0.94
		c0.47,0.6,0.63,1.52,0.43,2.26" class="st3"></path>
	<path d="M27.82,26.24c-0.68,1.08-1.24,1.76-1.83,2.35" class="st3"></path>
	<path d="M27.59,25.34c0.28-0.03,0.7-0.06,0.98-0.09c0.04,0,0.08-0.01,0.11,0.01c0.04,0.02,0.06,0.06,0.09,0.1
		c0.11,0.19,0.04,0.09,0.15,0.28" class="st3"></path>
	<path d="M28.89,27.1c-0.26,0.92-0.85,3.07-0.85,3.07c-0.02,0.09-0.06,0.18-0.14,0.2c-0.08,0.02-0.15-0.06-0.21-0.12
		c-0.2-0.2-0.56-0.35-0.83-0.33" class="st3"></path>
	<path d="M11.7,39.38c-0.17-1.11,1.67-2.98,3.85-2.54" class="st3"></path>
	<path d="M16.63,36.84c-0.08-0.59-0.54-1.09-1.12-1.36c-1.15-0.52-2.37-0.31-3.25,0.1c-0.57,0.26-0.94,0.77-1.01,1.34
		c-0.1,0.82,0.03,1.67,0.15,1.98c0.1,0.26,0.34,0.81,0.85,0.74" class="st3"></path>
	<path d="M16.95,33.51" class="st3"></path>
	<path d="M16.8,34.1c-0.23,0.7-0.35,1.43-0.36,2.16" class="st3"></path>
	<g>
		<path d="M33.59,35.23c0.06,0.36,0.07,0.66,0.07,1.03" class="st3"></path>
		<path d="M37.09,35.15c0.28,0.09,0.45,0.25,0.75,0.44c0.53,0.33,0.94,0.77,1.01,1.34c0.1,0.82-0.03,1.67-0.15,1.98
			c-0.1,0.26-0.34,0.81-0.85,0.74" class="st3"></path>
		<path d="M33.53,36.59c0.15-0.49,0.62-0.97,1.13-1.2" class="st3"></path>
		<path d="M38.09,34.97c0.08,0.23,0.25,0.73,0.31,0.96" class="st3"></path>
		<path d="M32.9,28.22c1.7,0.83,3.17,2.42,3.98,3.89" class="st3"></path>
		<path d="M29.68,36.51c-0.08,0.03-0.16,0.08-0.23,0.14c-0.24,0.23-0.22,0.65-0.02,0.91c0.2,0.26,0.55,0.38,0.89,0.38" class="st3"></path>
		<path d="M27.59,40.1c-0.26,0.15-0.26,0.55-0.08,0.79c0.18,0.24,0.48,0.34,0.77,0.42c0.81,0.22,1.29,0.3,2.12,0.25" class="st3"></path>
		<path d="M30.76,37.85c-0.99,0.26-2.02,0.02-3.03-0.09c-0.16-0.02-0.34-0.03-0.48,0.06c-0.26,0.15-0.26,0.55-0.08,0.79
			c0.18,0.24,0.48,0.34,0.77,0.42c0.81,0.22,1.65,0.3,2.49,0.25" class="st3"></path>
		<path d="M27.65,38.93c-0.16-0.02-0.34-0.03-0.48,0.06c-0.26,0.15-0.26,0.55-0.08,0.79c0.18,0.24,0.48,0.34,0.77,0.42
			c0.81,0.22,1.65,0.3,2.49,0.25" class="st3"></path>
		<path d="M35.74,41.19c0.84-0.51,1.64-1.07,2.29-1.81" class="st3"></path>
		<path d="M28.16,41.31c-0.12,0.06-0.18,0.19-0.16,0.32c0.02,0.14,0.13,0.25,0.24,0.33c0.27,0.21,0.62,0.28,0.95,0.36
			c0.59,0.15,1.18,0.21,1.79,0.16c0.2-0.01,0.4-0.04,0.6-0.06c0.44-0.06,0.88-0.14,1.32-0.23c0.57-0.12,1.13-0.28,1.67-0.48
			c0.07-0.03,0.14-0.05,0.21-0.08" class="st3"></path>
		<path d="M38.4,39.38c0.17-1.11-2.05-3.04-4.38-2.42" class="st3"></path>
	</g>
	<path d="M17.11,30.58c0.1,0.36,0.05,0.59,0.03,0.86" class="st3"></path>
	<path d="M32.54,32c-0.02,0.21,0.04,0.49,0.17,0.65" class="st3"></path>
	<path d="M18.95,19.32c0.07,0.53,0.02,1.06-0.13,1.57c-0.08,0.27-0.19,0.53-0.25,0.8c-0.06,0.27-0.06,0.57,0.06,0.82
		c0.06,0.11,0.14,0.22,0.26,0.27c0.12,0.05,0.26,0.04,0.35-0.05" class="st3"></path>
	<path d="M31.6,27.1c0.24,0.09,0.67,0.32,0.93,0.49c0.42,0.27,0.32,0.53,0.26,0.83c-0.03,0.15-0.06,0.31-0.1,0.47" class="st3"></path>
	<path d="M30.46,27.65c-0.05,0.09-0.08,0.18-0.08,0.28" class="st3"></path>
	<path d="M25.49,33.22c0.02,0.19,0.05,0.55,0.05,0.76" class="st3"></path>
	<path d="M19.9,30.71c-1.41-0.44-2.29-2.47-2.12-3.86c0.07-0.53,0.45-1.24,1.03-1.09c1.51,0.4,2.44,3.88,1.15,4.95
		L19.9,30.71z" class="st3"></path>
	<path d="M16.75,26.37c0.17-0.31,0.54-0.49,0.9-0.48c0.16,0.01,0.33,0.05,0.43,0.18" class="st3"></path>
	<path d="M18.92,25.65c0.02-0.15,0.1-0.28,0.22-0.38s0.25-0.16,0.4-0.2c0.26-0.07,0.57-0.05,0.76,0.15" class="st3"></path>
	<path d="M30.26,31.65c-0.56-0.88-0.09-2.22,0.67-2.77c0.29-0.21,0.83-0.35,1.08,0c0.64,0.91-0.5,2.93-1.71,2.8
		L30.26,31.65z" class="st3"></path>
	<path d="M30.59,28.17c0.24-0.06,0.53,0.04,0.72,0.21c0.09,0.08,0.16,0.18,0.15,0.29" class="st3"></path>
	<path d="M32.12,28.88c0.08-0.06,0.19-0.08,0.3-0.07c0.11,0.01,0.22,0.05,0.31,0.1c0.18,0.09,0.34,0.25,0.35,0.43" class="st3"></path>
	<path d="M23.76,30.29c-0.01-0.24,0.13-0.47,0.34-0.61s0.46-0.17,0.7-0.13c0.21,0.03,0.42,0.12,0.52,0.31" class="st3"></path>
	<path d="M22.12,30.26" class="st3"></path>
	<path d="M22.24,30.2c-0.14-0.9,0.67-1.28,1.16-0.98c0.21-0.68,1-0.75,1.43-0.35c0.5-0.72,1.58-0.24,1.61,0.54" class="st3"></path>
	<path d="M26.72,36.83c0.88,0.03,1.76-0.15,2.56-0.53" class="st3"></path>
	<path d="M19.69,42.63c0.69,2.09,3.04,2.97,5.08,3.05h0.42c2.04-0.08,4.39-0.96,5.08-3.05" class="st3"></path>
	<path d="M24.65,39.4c0.46,0.38,0.72,0.71,1.01,1.23c0.11-0.78,0.76-1.06,0.93-2.83c0.21-2.28-1.25-3.1-1.96-2.94
		c-0.32,0.07-0.59,0.39-0.53,0.71" class="st3"></path>
	<path d="M21.47,36.62c0.02,0.62,0.44,1.3,1.42,1.69c0.3,0.12,0.6,0.27,0.89,0.44" class="st3"></path>
	<path d="M25.03,36.8c-0.51-1.31-1.62-1.52-2.02-1.55c-0.19-0.02-0.37,0-0.53,0.04" class="st3"></path>
	<path d="M29.62,32.24c-0.19,0.47-0.44,0.92-0.73,1.34" class="st3"></path>
	<path d="M30.15,32.43c-0.2,0.47-0.5,1-0.85,1.48" class="st3"></path>
	<path d="M26.51,36.15c0.46,0.18,1.09,0.06,1.54-0.55c0.44-0.61,1.09-1.12,1.88-1.33c-0.52-0.16-0.64-0.58-1.83-0.9
		c-0.07-0.02-0.3-0.06-0.37-0.07" class="st3"></path>
	<path d="M27.24,34.16c-0.95,0.13-1.21,0.76-1.28,0.99c-0.02,0.06-0.03,0.12-0.03,0.18" class="st3"></path>
	<path d="M25.99,33.79c-0.08,0.12-0.11,0.24-0.11,0.34c0.02,0.19,0.2,0.39,0.43,0.4" class="st3"></path>
	<path d="M25.51,34.2c-0.01,0.21-0.03,0.42-0.05,0.64" class="st3"></path>
	<path d="M24.93,33.31c0.04,0.37,0.03,0.88,0.01,1.26" class="st3"></path>
	<path d="M19.27,31.15c0.15,0.28,0.45,0.47,0.77,0.48s0.63-0.14,0.83-0.38c0.2-0.25,0.28-0.58,0.23-0.9" class="st3"></path>
	<path d="M24.56,32.82c0.06,0.13,0.13,0.25,0.24,0.34s0.25,0.15,0.38,0.13c0.18-0.02,0.33-0.17,0.4-0.34
		c0.07-0.17,0.06-0.36,0.04-0.54" class="st3"></path>
	<path d="M30.89,32.03c-0.38,0.84-1.7,0.26-1.24-0.64" class="st3"></path>
	<path d="M28.69,35.58c0.78-0.92,2.26-1.17,3.3-0.54c0.56,0.34,0.96,0.87,1.39,1.37c0.42,0.5,0.91,0.98,1.53,1.17
		c-0.44,0.29-0.96,0.39-1.48,0.29c-3.16-0.58-2.94-3-4.24-2.72" class="st3"></path>
	<path d="M28.75,35.6c0.56,0.28,1.62,2.26,3.56,1.94" class="st3"></path>
	<path d="M20.2,33.82c-0.8-1.55-2.76-2.64-4.48-2.41c1.83,0.24,2.09,1.92,3.42,2.51" class="st3"></path>
	<path d="M15.96,31.5c1.3,0.73,1.3,2.72,2.44,2.8" class="st3"></path>
	<path d="M25.4,34.28c0.32-0.62,0.49-1.15,1.08-1.52c0.27-0.17,0.74-0.34,0.94-0.59c0.52-0.66,0.87-0.99,1.44-0.97
		c-0.44,0.35,0.02,1.44-1.24,2.16c-0.63,0.37-1.81,0.14-2.2,0.94" class="st3"></path>
	<path d="M20.29,31.76c0.38,0.79,0.61,1.64,0.68,2.51" class="st3"></path>
	<path d="M20.78,31.49c0.38,0.79,0.64,1.91,0.71,2.78" class="st3"></path>
	<path d="M29.66,34.12c0.49-0.64,1.23-1.03,1.98-1.03c-0.27,0.06-0.52,0.25-0.69,0.51c-0.21,0.34-0.29,0.79-0.59,1.03" class="st3"></path>
	<path d="M21.88,32.36c0.2-0.2,0.43-0.37,0.68-0.49" class="st3"></path>
	<path d="M23.22,32.72c-0.1,0.12-0.18,0.27-0.23,0.42" class="st3"></path>
	<path d="M22.4,34.45c-0.06,0.09-0.16,0.15-0.26,0.16" class="st3"></path>
	<path d="M28.69,35.58c-0.22,0.29-0.41,0.63-0.5,0.99" class="st3"></path>
	<path d="M30.07,24.68c-0.14,0.21-0.18,0.37-0.14,0.62" class="st3"></path>
	<path d="M34.87,32.82c-0.27,0.06-0.4,0.07-0.65,0.09c-0.62,0.04-1.45-0.28-1.87-0.34c-0.07-0.01-0.15-0.01-0.21,0.03
		c-0.21,0.17,0.2,0.66,0.18,0.78c-0.03,0.15-0.24,0.27-0.42,0.32c-0.09,0.03-0.19,0.07-0.22,0.17c-0.02,0.07,0,0.15,0.04,0.21
		c0.12,0.24,0.33,0.42,0.55,0.57c0.55,0.38,1.2,0.6,1.87,0.69c0.42,0.06,0.84,0.07,1.26,0.05" class="st3"></path>
	<path d="M37.3,32.06c-0.27,0.11-0.6,0.24-0.94,0.36" class="st3"></path>
	<path d="M36.86,35.2c0.73-0.14,1.43-0.38,2.04-0.78c0.82-0.54,1.53-0.94,1.56-1.92" class="st3"></path>
	<path d="M32.1,20.46c-0.68,0.54-0.74,1.7-1.25,2.41c-0.21,0.29-0.49,0.51-0.68,0.81c-0.19,0.3-0.25,0.73,0,0.98" class="st3"></path>
	<path d="M41.63,23.44c-0.13,0.36-0.1,0.75-0.02,1.12s0.22,0.73,0.29,1.1c0.06,0.29,0.08,0.6-0.02,0.88
		c-0.1,0.28-0.35,0.52-0.65,0.54" class="st3"></path>
	<path d="M41.36,27.18c0.05,0.25-0.02,0.52-0.19,0.71c-0.17,0.19-0.42,0.31-0.68,0.3" class="st3"></path>
	<path d="M40.67,28.32c-0.19,0.5-0.6,0.91-1.1,1.1s-1.08,0.16-1.55-0.09" class="st3"></path>
	<path d="M38.19,29.03c-0.38,0.38-0.93,0.59-1.47,0.6c-0.54,0.01-1.08-0.16-1.54-0.44" class="st3"></path>
	<path d="M35.73,28.83c-0.36,0.25-0.82,0.36-1.25,0.3" class="st3"></path>
	<path d="M40.84,21.22c0.33,0.07,0.68-0.02,1-0.15c0.32-0.13,0.62-0.3,0.96-0.37c0.33-0.08,0.72-0.04,0.97,0.19
		c0.19,0.17,0.28,0.44,0.31,0.7c0.05,0.62-0.27,1.24-0.78,1.59c-0.51,0.35-1.19,0.42-1.78,0.22" class="st3"></path>
	<path d="M33.25,19.41c-0.24-0.11-0.22-0.2-0.35-0.43c-0.13-0.23-0.24-0.47-0.41-0.68c-0.17-0.2-0.42-0.36-0.68-0.34
		c-0.2,0.02-0.38,0.14-0.52,0.28c-0.32,0.35-0.42,0.89-0.27,1.34c0.15,0.45,0.53,0.82,0.99,0.97" class="st3"></path>
	<path d="M40.98,21.19c-0.68-0.96-1.64-1.74-2.66-2.01" class="st3"></path>
	<path d="M37.63,17.97c-0.49-0.34-1.12-0.46-1.7-0.31c-0.58,0.15-1.08,0.56-1.32,1.1c-0.24,0.54-0.21,1.2,0.09,1.71
		c0.13,0.21,0.36,0.41,0.34,0.66" class="st3"></path>
	<path d="M35.06,19.95c0.05,0.39,0.05,0.79-0.01,1.18c-0.02,0.12-0.04,0.24-0.09,0.36c-0.05,0.11-0.14,0.21-0.25,0.26" class="st3"></path>
	<path d="M37.1,20.28c-0.07,0.53-0.38,1.02-0.83,1.3c-0.45,0.28-1.03,0.35-1.54,0.18" class="st3"></path>
	<path d="M38.19,18.86c0.21,0.52,0.03,1.01-0.2,1.44c-0.22,0.41-0.66,0.73-1.12,0.72" class="st3"></path>
	<path d="M34.59,18.76c-0.57,0.11-1.1,0.41-1.49,0.84" class="st3"></path>
	<path d="M40.26,29.04c0.73,1.25,0.95,2.93,0.25,3.67" class="st3"></path>
	<path d="M40.51,32.71c0.17-0.76-1.14-1.62-2.18-1.08" class="st3"></path>
	<circle r="0.59" cy="24.36" cx="38.03" class="st3"></circle>
	<circle r="0.55" cy="22.71" cx="32.86" class="st3"></circle>
	<path d="M34.93,23.91c0.94,0.33,1.57,1.64,1.26,2.55c-0.11,0.39-0.49,0.61-1.16,0.43c-0.64-0.17-2.04-0.44-2.34-1.02
		C32.03,24.64,33.94,23.53,34.93,23.91z" class="st3"></path>
	<path d="M34.97,24.97c0.04-0.05,0.03-0.13-0.04-0.16c-0.25-0.13-0.55-0.26-0.81-0.22c-0.03,0-0.06,0.01-0.08,0.04
		c-0.01,0.02-0.01,0.05,0,0.08c0.04,0.13,0.12,0.23,0.23,0.3s0.25,0.07,0.37,0.09C34.81,25.12,34.91,25.04,34.97,24.97z" class="st3"></path>
	<path d="M33.32,25.28c0.06,0.17,0.2,0.28,0.37,0.34c0.16,0.06,0.34,0.04,0.5-0.03l0.19-0.36
		c-0.03,0.11-0.07,0.21-0.11,0.31l-0.02,0.04c0.11,0.18,0.27,0.31,0.46,0.37c0.18,0.06,0.38,0.05,0.56-0.04" class="st3"></path>
	<path d="M29.99,26.96c0.04,0.13,0.18,0.35,0.26,0.46c0.08,0.11,0.21,0.19,0.35,0.18c0.06-0.01,0.11-0.03,0.17-0.05
		c0.34-0.15,0.69-0.39,0.79-0.75c0.09-0.33-0.04-0.69-0.28-0.94s-0.57-0.38-0.9-0.47c-0.3-0.07-0.61-0.11-0.91-0.04
		s-0.58,0.25-0.72,0.52c-0.17,0.33-0.1,0.75,0.12,1.04c0.05,0.07,0.12,0.13,0.19,0.18c0.15,0.08,0.33,0.08,0.5,0.04
		C29.72,27.1,29.99,26.96,29.99,26.96z" class="st3"></path>
	<path d="M39.38,34.18c-0.1,0.69-0.36,1.22-0.81,1.75" class="st3"></path>
	<path d="M36,29.57c-0.19,0.22-0.32,0.49-0.38,0.78" class="st3"></path>
	<path d="M37.29,29.58c-0.46,0.44-0.78,1.03-0.9,1.66" class="st3"></path>
	<path d="M36.29,32.31c0.46,0.83,0.65,1.89,0.54,2.89c-0.01,0.12-0.09,0.21-0.21,0.24l-0.89,0.08
		c-0.18,0.05-0.36-0.09-0.35-0.28c0.02-0.88-0.16-1.61-0.49-2.37c-0.07-0.15,0.01-0.33,0.17-0.38l0.9-0.31
		C36.08,32.14,36.22,32.19,36.29,32.31z" class="st3"></path>
	<line y2="18.37" x2="37.97" y1="18.33" x1="37.94" class="st3"></line>
	<line y2="11.84" x2="17" y1="11.89" x1="16.98" class="st3"></line>
	<line y2="41.41" x2="35.27" y1="41.39" x1="35.31" class="st3"></line>
	<line y2="32.07" x2="13.23" y1="32.03" x1="13.25" class="st3"></line>
	<line y2="31.86" x2="37.8" y1="31.84" x1="37.84" class="st3"></line>
	<path d="M19.89,26.67c-0.4-1.12,0.9-2.3,1.8-1.22c1.49,1.78,0.79,4.83-1.64,5.26" class="st3"></path>
	<path d="M17.73,27.38c-0.34-1.14-2.07-1.34-2.17,0.07c-0.16,2.31,2.19,4.38,4.41,3.3" class="st3"></path>
	<path d="M32.17,29.81c0.31-0.7,1.58-0.62,1.57,0.31c-0.03,1.53-1.86,2.58-3.39,1.6" class="st3"></path>
	<path d="M30.65,29.1c0.36-0.68-0.5-1.61-1.22-1.01c-1.19,0.97-0.87,3.04,0.85,3.62" class="st3"></path>
	<path d="M25.51,32.45c-0.51,0.18-1.05,0.26-1.59,0.23c-0.27-0.02-0.54-0.06-0.77-0.2c-0.21-0.13-0.36-0.33-0.48-0.54
		c-0.31-0.52-0.49-1.1-0.66-1.68c0.66,0.11,1.33,0.19,2,0.22c0.28,0.01,0.56,0.03,0.81,0.13c0.32,0.14,0.56,0.43,0.68,0.75
		c0.12,0.33,0.12,0.69,0.04,1.03" class="st3"></path>
	<path d="M24.81,30.62c0.38-0.87,0.81-1.04,1.84-1.2c0.26,0.83,0.76,2.29-1.25,3.07" class="st3"></path>
	<path d="M19.23,35.62c0.38-0.46,0.78-0.94,1.33-1.2s1.28-0.21,1.65,0.26c0.2,0.26,0.27,0.61,0.2,0.93
		s-0.27,0.61-0.54,0.8c-0.26,0.19-0.58,0.29-0.89,0.38c-0.91,0.27-1.84,0.5-2.71,0.9c-0.87,0.39-1.68,0.97-2.18,1.79
		c0.11-1,0.35-2,0.8-2.9c0.45-0.9,0.93-1.81,1.76-2.38c0.56-0.39,1.51-0.63,1.91,0.09" class="st3"></path>
	<path d="M25.01,34.73c-0.37-0.68-0.5-0.75-0.92-1.01c-0.29-0.18-0.84-0.24-1.09-0.47c-0.67-0.63-1.1-0.93-1.69-0.81
		c0.53,0.3,0.26,1.59,1.71,2.16c0.53,0.21,1.3,0.02,1.9,0.21" class="st3"></path>
	<line y2="39.07" x2="24.25" y1="39.04" x1="24.22" class="st3"></line>
	<path d="M22.05,29.3c0.04,0.14,0.13,0.45,0.16,0.56" class="st3"></path>
	<path d="M22.43,26.86c0.15,0.21,0.29,0.41,0.43,0.59c0.34,0.45,0.66,0.81,1,1.14" class="st3"></path>
	<circle r="0.49" cy="6.85" cx="6.37" class="st3"></circle>
	<circle r="0.49" cy="38.64" cx="5.16" class="st3"></circle>
	<circle r="0.49" cy="27.38" cx="45.02" class="st3"></circle>
	<g>
		<g>
			<g>
				<path d="M9.06,22.25c0.21,0,0.42,0,0.62,0" class="st3"></path>
				<path d="M10.68,22.25c0.21,0,0.42,0,0.62,0" class="st3"></path>
			</g>
		</g>
		<g>
			<path d="M10.18,21.12c0,0.21,0,0.42,0,0.62" class="st3"></path>
			<path d="M10.18,22.75c0,0.21,0,0.42,0,0.62" class="st3"></path>
		</g>
	</g>
	<g>
		<g>
			<g>
				<path d="M42.07,42.89c0.21,0,0.42,0,0.62,0" class="st3"></path>
				<path d="M43.69,42.89c0.21,0,0.42,0,0.62,0" class="st3"></path>
			</g>
		</g>
		<g>
			<path d="M43.19,41.76c0,0.21,0,0.42,0,0.62" class="st3"></path>
			<path d="M43.19,43.39c0,0.21,0,0.42,0,0.62" class="st3"></path>
		</g>
	</g>
	<g>
		<g>
			<g>
				<path d="M38.42,9.18c0.21,0,0.42,0,0.62,0" class="st3"></path>
				<path d="M40.05,9.18c0.21,0,0.42,0,0.62,0" class="st3"></path>
			</g>
		</g>
		<g>
			<path d="M39.55,8.06c0,0.21,0,0.42,0,0.62" class="st3"></path>
			<path d="M39.55,9.69c0,0.21,0,0.42,0,0.62" class="st3"></path>
		</g>
	</g>
</g>
</svg>
