<?xml version="1.0" encoding="UTF-8"?><svg xmlns="http://www.w3.org/2000/svg" viewBox="0 0 198.43 340.16"><defs><style>.g{mix-blend-mode:soft-light;}.g,.h{fill:red;}.i{isolation:isolate;}.j{stroke:#f2f2f2;}.j,.k,.l,.m{fill:none;stroke-miterlimit:10;}.j,.k,.m{stroke-width:.5px;}.k,.l{stroke:red;}.m{stroke:#999;}.n{fill:#999;}.o{fill:#ccc;}.h{opacity:.22;}.p{fill:#140016;}.q{fill:#f2f2f2;}</style></defs><g class="i"><g id="b"><g id="c"><g id="d"><rect class="q" width="198.43" height="340.16" rx="1.34" ry="1.34"/><g id="e"><path class="p" d="m6.93,333.51c-1.16,0-2.1-.87-2.1-1.95V8.6c0-1.08.94-1.95,2.1-1.95h184.56c1.16,0,2.1.87,2.1,1.95v322.96c0,1.08-.94,1.95-2.1,1.95"/></g><rect class="j" x="7.74" y="9.5" width="182.95" height="321.15" rx="1.34" ry="1.34"/><path class="o" d="m99.54,23.85l2.69,3.47h.22c.13,0,.23.03.29.08.06.05.09.12.09.21s-.03.15-.09.2c-.06.05-.16.08-.29.08h-1.82c-.13,0-.23-.03-.29-.08-.06-.05-.09-.12-.09-.2s.03-.15.09-.21c.06-.05.16-.08.29-.08h.9l-2.34-3.01-2.31,3.01h.9c.13,0,.23.03.29.08.06.05.09.12.09.21s-.03.15-.09.2c-.06.05-.16.08-.29.08h-1.81c-.13,0-.23-.03-.29-.08-.06-.05-.09-.12-.09-.2,0-.06.02-.12.05-.17.04-.05.08-.08.12-.09s.18-.02.41-.02l2.66-3.47-2.53-3.28h-.21c-.14,0-.23-.03-.29-.08s-.09-.12-.09-.21.03-.15.09-.21c.06-.05.15-.08.29-.08h1.54c.14,0,.24.03.3.08.06.05.09.12.09.21s-.03.15-.09.21c-.06.05-.16.08-.3.08h-.63l2.18,2.82,2.17-2.82h-.63c-.14,0-.24-.03-.3-.08-.06-.05-.09-.12-.09-.21s.03-.15.09-.21c.06-.05.16-.08.3-.08h1.55c.13,0,.23.03.29.08.06.05.09.12.09.21s-.03.15-.09.21c-.06.05-.16.08-.29.08h-.22l-2.52,3.28Z"/><g id="f"><line class="g" x1="127.74" y1="324.23" x2="71.44" y2="323.9"/><polygon class="l" points="71.01 324.23 127.74 324.23 99.37 275.75 71.01 324.23"/><polygon class="h" points="70.69 277.33 127.42 277.33 99.05 228.85 70.69 277.33"/><polygon class="l" points="70.69 277.33 127.42 277.33 99.05 228.85 70.69 277.33"/><line class="k" x1="80.77" y1="190" x2="80.82" y2="238.48"/><polygon class="h" points="52.84 238.15 80.74 238.15 80.74 190.37 52.84 238.15"/><polygon class="l" points="52.4 238.48 109.13 238.48 80.77 190 52.4 238.48"/><line class="k" x1="117.66" y1="190" x2="117.61" y2="238.48"/><polygon class="h" points="145.59 238.15 117.68 238.15 117.68 190.37 145.59 238.15"/><polygon class="l" points="146.02 238.48 89.29 238.48 117.66 190 146.02 238.48"/><line class="k" x1="99.21" y1="146.24" x2="99.26" y2="179.03"/><polygon class="h" points="70.85 194.72 99.26 179.03 127.58 194.72 70.85 194.72"/><polygon class="l" points="70.85 194.72 127.58 194.72 99.21 146.24 70.85 194.72"/><line class="k" x1="99.26" y1="179.03" x2="127.58" y2="194.72"/><line class="k" x1="99.26" y1="179.03" x2="70.85" y2="194.72"/><line class="k" x1="70.32" y1="108.26" x2="70.27" y2="141.05"/><polygon class="h" points="70.32 108.26 70.27 141.05 41.95 156.73 70.32 108.26"/><polygon class="l" points="98.68 156.73 41.95 156.73 70.32 108.26 98.68 156.73"/><line class="k" x1="70.27" y1="141.05" x2="41.95" y2="156.73"/><line class="k" x1="70.27" y1="141.05" x2="98.68" y2="156.73"/><line class="k" x1="128.11" y1="108.26" x2="128.06" y2="141.05"/><polygon class="h" points="156.04 156.4 128.06 141.05 128.13 108.62 156.04 156.4"/><polygon class="l" points="156.47 156.73 99.75 156.73 128.11 108.26 156.47 156.73"/><line class="k" x1="128.06" y1="141.05" x2="99.75" y2="156.73"/><line class="k" x1="128.06" y1="141.05" x2="156.47" y2="156.73"/><line class="k" x1="70.32" y1="75.18" x2="70.36" y2="107.98"/><polygon class="h" points="70.32 75.18 70.36 107.98 98.68 123.66 70.32 75.18"/><polygon class="l" points="41.95 123.66 98.68 123.66 70.32 75.18 41.95 123.66"/><line class="k" x1="70.36" y1="107.98" x2="98.68" y2="123.66"/><line class="k" x1="70.36" y1="107.98" x2="41.95" y2="123.66"/><line class="k" x1="128.11" y1="75.18" x2="128.16" y2="107.98"/><polygon class="h" points="100 123.66 127.98 108.31 128.11 75.18 100 123.66"/><polygon class="l" points="99.75 123.66 156.47 123.66 128.11 75.18 99.75 123.66"/><line class="k" x1="128.16" y1="107.98" x2="156.47" y2="123.66"/><line class="k" x1="128.2" y1="108.02" x2="99.78" y2="123.7"/><line class="k" x1="99.24" y1="35.93" x2="99.29" y2="68.72"/><polygon class="h" points="70.92 84.4 99.29 68.72 127.61 84.4 70.92 84.4"/><polygon class="l" points="70.88 84.4 127.61 84.4 99.24 35.93 70.88 84.4"/><line class="k" x1="99.29" y1="68.72" x2="127.61" y2="84.4"/><line class="k" x1="99.29" y1="68.72" x2="70.88" y2="84.4"/></g><path class="n" d="m98.48,304.9v1.18h.42c.06,0,.09.01.12.03.02.02.03.05.03.08,0,.03-.01.06-.03.08-.02.02-.06.03-.12.03h-.94c-.05,0-.09-.01-.12-.03-.02-.02-.03-.05-.03-.08,0-.03.01-.06.03-.08.02-.02.06-.03.12-.03h.3v-2.69h-.3c-.05,0-.09-.01-.12-.03-.02-.02-.03-.05-.03-.08s.01-.06.03-.08c.02-.02.06-.03.12-.03h1.36c.28,0,.52.09.71.27.19.18.29.38.29.6,0,.16-.06.31-.18.45-.12.14-.32.26-.6.36.16.11.3.24.41.38.11.14.3.43.55.86h.17c.05,0,.09.01.12.03.02.02.03.05.03.08,0,.03-.01.06-.03.08-.02.02-.06.03-.12.03h-.3c-.28-.5-.49-.83-.65-1-.15-.17-.33-.3-.53-.4h-.72Zm0-.23h.61c.2,0,.38-.04.54-.11.16-.07.28-.16.35-.25s.11-.19.11-.3c0-.15-.08-.29-.23-.43-.15-.14-.33-.2-.55-.2h-.83v1.29Z"/><path class="n" d="m93.05,312.33h-1.48l-.3.82h.43c.05,0,.09.01.12.03.02.02.03.05.03.08,0,.03-.01.06-.03.08-.02.02-.06.03-.12.03h-.84c-.05,0-.09-.01-.12-.03-.02-.02-.03-.05-.03-.08,0-.03.01-.06.03-.08.02-.02.06-.03.12-.03h.17l1-2.69h-.67c-.05,0-.09-.01-.12-.03-.02-.02-.03-.05-.03-.08s.01-.06.03-.08c.02-.02.06-.03.12-.03h1.13l1.1,2.91h.17c.05,0,.09.01.12.03.02.02.03.05.03.08,0,.03-.01.06-.03.08-.02.02-.06.03-.12.03h-.84c-.06,0-.09-.01-.12-.03-.02-.02-.03-.05-.03-.08,0-.03.01-.06.03-.08.02-.02.06-.03.12-.03h.43l-.31-.82Zm-.09-.23l-.62-1.64h-.08l-.6,1.64h1.31Z"/><path class="n" d="m107.72,311.89c0,.3-.06.58-.18.84-.12.26-.29.46-.5.6-.21.14-.44.21-.69.21-.36,0-.68-.15-.96-.46s-.41-.7-.41-1.19.14-.88.41-1.19c.28-.31.6-.46.96-.46.25,0,.47.07.69.21.21.14.38.34.5.6.12.26.18.53.18.84Zm-.23,0c0-.37-.11-.7-.32-.99-.21-.29-.49-.44-.83-.44-.32,0-.59.14-.81.42-.22.28-.34.61-.34,1.01,0,.42.12.76.35,1.03.24.27.5.4.8.4.34,0,.61-.15.83-.44.21-.29.32-.62.32-.99Z"/><path class="n" d="m99.32,317.24v2.69h.58c.05,0,.09.01.12.03.02.02.03.05.03.08,0,.03-.01.06-.03.08-.02.02-.06.03-.12.03h-1.4c-.05,0-.09-.01-.12-.03-.02-.02-.03-.05-.03-.08,0-.03.01-.06.03-.08.02-.02.06-.03.12-.03h.58v-2.69h-.92v.78c0,.06-.01.09-.03.12-.02.02-.05.03-.08.03-.03,0-.06-.01-.08-.03-.02-.02-.03-.06-.03-.12v-1.01h2.52v1.01c0,.06-.01.09-.03.12-.02.02-.05.03-.08.03s-.06-.01-.08-.03c-.02-.02-.03-.06-.03-.12v-.78h-.92Z"/><path class="m" d="m106.34,309.6c-.74-2.52-2.78-4.48-5.33-5.11"/><path class="m" d="m101.02,318.88c2.37-.59,4.28-2.31,5.14-4.55"/><path class="m" d="m92.32,314.33c.84,2.2,2.7,3.89,4.99,4.51"/><path class="m" d="m97.55,304.64c-2.54.67-4.55,2.65-5.25,5.18"/></g></g></g></g></svg>