<svg xmlns="http://www.w3.org/2000/svg" width="512" height="512" fill="none"><path fill="#F90" d="M0 0h512v512H0z"/><path fill="#2D2D2D" d="M84 340h344v160H84z"/><g><animateTransform attributeName="transform" dur="0.4s" keyTimes="0;0.5;1" repeatCount="indefinite" type="translate" values="0 0;0 28;0 0"/><path fill="#E3E3E3" d="M196 176h120v296H196z"/><path fill="#2D2D2D" d="M196 96h120v80H196z"/><path fill="#E3E3E3" d="M250 96h12v36h-12z"><animate attributeName="fill" begin="5s" dur="0.4s" repeatCount="5" values="#E3E3E3; #fff; #E3E3E3"/></path><path fill="#fff" d="M176 176h20v20h-20zM336 176h-20v20h20zM176 196h12v32h-12zM336 196h-12v32h12z"/><circle cx="253.504" cy="68" r="28" fill="#121212"/><circle cx="234.606" cy="101.134" r="28" fill="#121212"/><circle cx="274.764" cy="101.134" r="28" fill="#121212"/><circle cx="203.11" cy="79.811" r="28" fill="#121212"/><circle cx="185" cy="114.457" r="28" fill="#121212"/><circle cx="326.732" cy="114.457" r="28" fill="#121212"/><circle cx="307.047" cy="79.811" r="28" fill="#121212"/><path fill="red" d="M204 179h47v48h-47v-48Z"/><path stroke="#121212" stroke-width="6" d="M204 179h47v48h-47v-48Zm0 0h-8M251 188h10"/><path fill="#0075FF" d="M308 179h-47v48h47v-48Z"/><path stroke="#121212" stroke-width="6" d="M308 179h-47v48h47v-48Zm0 0h8"/><mask id="a" width="41" height="42" x="207" y="182" maskUnits="userSpaceOnUse" style="mask-type:alpha"><path fill="#121212" d="M207 182h41v42h-41v-42Z"/></mask><g mask="url(#a)"><path fill="#FFF" d="M215.112 182h8.77l-10.524 43.235h-8.77L215.112 182Z"><animateTransform attributeName="transform" dur="4s" keyTimes="0;0.1;0.3;1" repeatCount="indefinite" type="translate" values="-32 0;-32 0;48 0;48 0"/></path></g><mask id="b" width="41" height="42" x="264" y="182" maskUnits="userSpaceOnUse" style="mask-type:alpha"><path fill="#121212" d="M264 182h41v42h-41v-42Z"/></mask><g mask="url(#b)"><path fill="#FFF" d="M271.112 182h8.77l-10.524 43.235h-8.77L271.112 182Z"><animateTransform attributeName="transform" dur="4s" keyTimes="0;0.1;0.3;1" repeatCount="indefinite" type="translate" values="-32 0;-32 0;48 0;48 0"/></path></g><path stroke="#121212" stroke-width="6" d="M246 327.391s12.823-5.38 16 0c3.153 5.341-7.5 14-7.5 14s13.132-4.082 16 1.5c3.219 6.265-12.5 13-12.5 13"/></g></svg>