<?xml version="1.0" encoding="UTF-8"?><svg xmlns="http://www.w3.org/2000/svg" viewBox="0 0 197.89 340.16"><defs><style>.f,.g,.h,.i,.j{fill:none;stroke-miterlimit:10;}.f,.h{stroke:lime;}.k{fill:#0a0b00;}.g{opacity:.78;}.g,.i{stroke:#f2f2f2;}.l{fill:lime;opacity:.33;}.m{mix-blend-mode:lighten;}.n{isolation:isolate;}.h,.i,.j{stroke-width:.5px;}.j{stroke:#999;}.o{fill:#999;}.p{fill:#f2f2f2;}</style></defs><g class="n"><g id="b"><g id="c"><g id="d"><rect class="p" width="197.89" height="340.16" rx="1.34" ry="1.34"/><g id="e"><path class="k" d="m6.91,333.51c-1.15,0-2.09-.87-2.09-1.95V8.6c0-1.08.94-1.95,2.09-1.95h184.06c1.15,0,2.09.87,2.09,1.95v322.96c0,1.08-.94,1.95-2.09,1.95"/></g><rect class="i" x="7.72" y="9.5" width="182.45" height="321.15" rx="1.34" ry="1.34"/><path class="p" d="m88.83,28.65h-.87l-3.13-8.03h-.48c-.11,0-.19-.01-.24-.03-.05-.02-.09-.06-.12-.11-.03-.05-.05-.11-.05-.17s.02-.11.05-.17c.03-.05.07-.09.12-.11.05-.02.13-.03.24-.03h2.32c.12,0,.2.01.25.03.05.02.09.06.12.11.03.05.05.11.05.17s-.02.11-.05.17-.08.09-.12.11c-.05.02-.13.03-.24.03h-1.19l2.88,7.41h.04l2.85-7.41h-1.18c-.12,0-.2-.01-.25-.03-.05-.02-.09-.06-.12-.11s-.05-.11-.05-.17.02-.11.05-.17.08-.09.12-.11c.05-.02.13-.03.25-.03h2.31c.12,0,.2.01.25.03.05.02.09.06.12.11s.05.11.05.17-.02.11-.05.17c-.03.05-.08.09-.12.11-.05.02-.13.03-.25.03h-.47l-3.08,8.03Z"/><path class="p" d="m96.25,20.62v7.41h2.13c.15,0,.25.03.32.08.06.06.1.13.1.23,0,.09-.03.16-.1.22-.06.06-.17.09-.32.09h-4.88c-.15,0-.25-.03-.32-.09-.06-.06-.1-.13-.1-.22,0-.09.03-.17.1-.23.06-.06.17-.08.32-.08h2.13v-7.41h-2.13c-.15,0-.25-.03-.32-.08-.06-.06-.1-.13-.1-.23s.03-.17.1-.23c.06-.06.17-.08.32-.08h4.88c.15,0,.25.03.32.08.06.06.1.13.1.23s-.03.17-.1.23c-.06.06-.17.08-.32.08h-2.13Z"/><path class="p" d="m103.83,20.62v7.41h2.13c.15,0,.25.03.32.08.06.06.1.13.1.23,0,.09-.03.16-.1.22-.06.06-.17.09-.32.09h-4.88c-.15,0-.25-.03-.32-.09-.06-.06-.1-.13-.1-.22,0-.09.03-.17.1-.23.06-.06.17-.08.32-.08h2.13v-7.41h-2.13c-.15,0-.25-.03-.32-.08-.06-.06-.1-.13-.1-.23s.03-.17.1-.23c.06-.06.17-.08.32-.08h4.88c.15,0,.25.03.32.08.06.06.1.13.1.23s-.03.17-.1.23c-.06.06-.17.08-.32.08h-2.13Z"/><path class="p" d="m111.4,20.62v7.41h2.13c.15,0,.25.03.32.08.06.06.1.13.1.23,0,.09-.03.16-.1.22-.06.06-.17.09-.32.09h-4.88c-.15,0-.25-.03-.32-.09-.06-.06-.1-.13-.1-.22,0-.09.03-.17.1-.23.06-.06.17-.08.32-.08h2.13v-7.41h-2.13c-.15,0-.25-.03-.32-.08-.06-.06-.1-.13-.1-.23s.03-.17.1-.23c.06-.06.17-.08.32-.08h4.88c.15,0,.25.03.32.08.06.06.1.13.1.23s-.03.17-.1.23c-.06.06-.17.08-.32.08h-2.13Z"/><g class="m"><line class="h" x1="56.12" y1="253.29" x2="56.08" y2="223.19"/><polygon class="l" points="81.76 209.1 56.08 223.19 56.12 253.29 81.76 209.1"/><polygon class="f" points="82.16 208.8 30.09 208.8 56.12 253.29 82.16 208.8"/><line class="h" x1="56.08" y1="223.19" x2="30.09" y2="208.8"/><line class="h" x1="56.08" y1="223.19" x2="82.16" y2="208.8"/><line class="h" x1="141.66" y1="253.3" x2="141.7" y2="223.19"/><polygon class="l" points="116.22 209.1 141.9 223.19 141.66 253.3 116.22 209.1"/><polygon class="f" points="115.62 208.8 167.69 208.8 141.66 253.3 115.62 208.8"/><line class="h" x1="141.7" y1="223.19" x2="167.69" y2="208.8"/><line class="h" x1="141.7" y1="223.19" x2="115.62" y2="208.8"/><line class="h" x1="49.6" y1="212.24" x2="49.55" y2="167.74"/><polygon class="l" points="75.44 168.04 49.55 168.04 49.56 212.24 75.44 168.04"/><polygon class="f" points="75.63 167.74 23.56 167.74 49.6 212.24 75.63 167.74"/><line class="h" x1="148.29" y1="212.23" x2="148.33" y2="167.73"/><polygon class="l" points="122.45 168.04 148.33 168.04 148.29 212.23 122.45 168.04"/><polygon class="f" points="122.25 167.73 174.32 167.73 148.29 212.23 122.25 167.73"/><line class="h" x1="98.96" y1="253.3" x2="99.01" y2="223.19"/><polygon class="l" points="73.53 209.1 99.21 223.19 124.47 209.09 73.53 209.1"/><polygon class="f" points="72.93 208.8 125 208.8 98.96 253.3 72.93 208.8"/><line class="h" x1="99.01" y1="223.19" x2="125" y2="208.8"/><line class="h" x1="99.01" y1="223.19" x2="72.93" y2="208.8"/><line class="h" x1="98.96" y1="131.36" x2="99" y2="101.25"/><polygon class="l" points="73.53 87.16 99.21 101.25 125 86.86 73.53 87.16"/><polygon class="f" points="72.93 86.86 125 86.86 98.96 131.36 72.93 86.86"/><line class="h" x1="99" y1="101.25" x2="125" y2="86.86"/><line class="h" x1="99" y1="101.25" x2="72.93" y2="86.86"/><line class="h" x1="123.22" y1="169.38" x2="123.27" y2="124.88"/><polygon class="l" points="97.19 124.88 123.27 125.18 123.22 169.38 97.19 124.88"/><polygon class="f" points="97.19 124.88 149.26 124.88 123.22 169.38 97.19 124.88"/><line class="g" x1="149.12" y1="147.13" x2="97.32" y2="147.13"/><line class="h" x1="74.71" y1="169.38" x2="74.67" y2="124.88"/><polygon class="l" points="100.55 125.18 74.67 125.18 74.68 169.38 100.55 125.18"/><polygon class="f" points="100.75 124.88 48.68 124.88 74.71 169.38 100.75 124.88"/><line class="g" x1="100.61" y1="147.13" x2="48.81" y2="147.13"/><line class="g" x1="124.86" y1="109.11" x2="73.06" y2="109.11"/><line class="g" x1="174.19" y1="189.98" x2="122.39" y2="189.98"/><line class="g" x1="167.56" y1="231.05" x2="115.75" y2="231.05"/><line class="g" x1="124.87" y1="231.05" x2="73.06" y2="231.05"/><line class="g" x1="82.02" y1="231.04" x2="30.22" y2="231.04"/><line class="g" x1="75.5" y1="189.99" x2="23.7" y2="189.99"/></g><path class="o" d="m98.21,304.9v1.18h.42c.06,0,.09.01.12.03.02.02.03.05.03.08,0,.03-.01.06-.03.08-.02.02-.06.03-.12.03h-.94c-.05,0-.09-.01-.12-.03-.02-.02-.03-.05-.03-.08,0-.03.01-.06.03-.08.02-.02.06-.03.12-.03h.3v-2.69h-.3c-.05,0-.09-.01-.12-.03-.02-.02-.03-.05-.03-.08s.01-.06.03-.08c.02-.02.06-.03.12-.03h1.36c.28,0,.52.09.71.27.19.18.29.38.29.6,0,.16-.06.31-.18.45-.12.14-.32.26-.6.36.16.11.3.24.41.38.11.14.3.43.55.86h.17c.05,0,.09.01.12.03.02.02.03.05.03.08,0,.03-.01.06-.03.08-.02.02-.06.03-.12.03h-.3c-.28-.5-.49-.83-.65-1-.15-.17-.33-.3-.53-.4h-.72Zm0-.23h.61c.2,0,.38-.04.54-.11.16-.07.28-.16.35-.25s.11-.19.11-.3c0-.15-.08-.29-.23-.43-.15-.14-.33-.2-.55-.2h-.83v1.29Z"/><path class="o" d="m92.78,312.33h-1.48l-.3.82h.43c.05,0,.09.01.12.03.02.02.03.05.03.08,0,.03-.01.06-.03.08-.02.02-.06.03-.12.03h-.84c-.05,0-.09-.01-.12-.03-.02-.02-.03-.05-.03-.08,0-.03.01-.06.03-.08.02-.02.06-.03.12-.03h.17l1-2.69h-.67c-.05,0-.09-.01-.12-.03-.02-.02-.03-.05-.03-.08s.01-.06.03-.08c.02-.02.06-.03.12-.03h1.13l1.1,2.91h.17c.05,0,.09.01.12.03.02.02.03.05.03.08,0,.03-.01.06-.03.08-.02.02-.06.03-.12.03h-.84c-.06,0-.09-.01-.12-.03-.02-.02-.03-.05-.03-.08,0-.03.01-.06.03-.08.02-.02.06-.03.12-.03h.43l-.31-.82Zm-.09-.23l-.62-1.64h-.08l-.6,1.64h1.31Z"/><path class="o" d="m107.45,311.89c0,.3-.06.58-.18.84-.12.26-.29.46-.5.6-.21.14-.44.21-.69.21-.36,0-.68-.15-.96-.46s-.41-.7-.41-1.19.14-.88.41-1.19c.28-.31.6-.46.96-.46.25,0,.47.07.69.21.21.14.38.34.5.6.12.26.18.53.18.84Zm-.23,0c0-.37-.11-.7-.32-.99-.21-.29-.49-.44-.83-.44-.32,0-.59.14-.81.42-.22.28-.34.61-.34,1.01,0,.42.12.76.35,1.03.24.27.5.4.8.4.34,0,.61-.15.83-.44.21-.29.32-.62.32-.99Z"/><path class="o" d="m99.05,317.24v2.69h.58c.05,0,.09.01.12.03.02.02.03.05.03.08,0,.03-.01.06-.03.08-.02.02-.06.03-.12.03h-1.4c-.05,0-.09-.01-.12-.03-.02-.02-.03-.05-.03-.08,0-.03.01-.06.03-.08.02-.02.06-.03.12-.03h.58v-2.69h-.92v.78c0,.06-.01.09-.03.12-.02.02-.05.03-.08.03-.03,0-.06-.01-.08-.03-.02-.02-.03-.06-.03-.12v-1.01h2.52v1.01c0,.06-.01.09-.03.12-.02.02-.05.03-.08.03s-.06-.01-.08-.03c-.02-.02-.03-.06-.03-.12v-.78h-.92Z"/><path class="j" d="m106.07,309.6c-.74-2.52-2.78-4.48-5.33-5.11"/><path class="j" d="m100.75,318.88c2.37-.59,4.28-2.31,5.14-4.55"/><path class="j" d="m92.05,314.33c.84,2.2,2.7,3.89,4.99,4.51"/><path class="j" d="m97.28,304.64c-2.54.67-4.55,2.65-5.25,5.18"/></g></g></g></g></svg>