<svg height="320" shape-rendering="crispEdges" viewBox="0 0 320 320" width="320" xmlns="http://www.w3.org/2000/svg"><rect fill="#e1d7d5" height="100%" width="100%"/><g fill="#b87b11"><path d="m90 210h140v10h-140z"/><path d="m90 220h140v10h-140z"/><path d="m90 230h140v10h-140z"/><path d="m90 240h140v10h-140z"/><path d="m90 250h20v10h-20z"/><path d="m120 250h110v10h-110z"/><path d="m90 260h20v10h-20z"/><path d="m120 260h110v10h-110z"/><path d="m90 270h20v10h-20z"/><path d="m120 270h110v10h-110z"/><path d="m90 280h20v10h-20z"/><path d="m120 280h110v10h-110z"/><path d="m90 290h20v10h-20z"/><path d="m120 290h110v10h-110z"/><path d="m90 300h20v10h-20z"/><path d="m120 300h110v10h-110z"/><path d="m90 310h20v10h-20z"/><path d="m120 310h110v10h-110z"/></g><path d="m190 220h10v10h-10z" fill="#fe500c"/><path d="m130 240h20v10h-20z" fill="#fe500c"/><path d="m160 240h10v10h-10z" fill="#fe500c"/><path d="m190 240h10v10h-10z" fill="#fe500c"/><path d="m130 250h10v10h-10z" fill="#fe500c"/><path d="m150 250h10v10h-10z" fill="#fe500c"/><path d="m170 250h10v10h-10z" fill="#fe500c"/><path d="m190 250h10v10h-10z" fill="#fe500c"/><path d="m130 270h20v10h-20z" fill="#fe500c"/><path d="m170 270h30v10h-30z" fill="#fe500c"/><path d="m130 280h10v10h-10z" fill="#fe500c"/><path d="m150 280h10v10h-10z" fill="#fe500c"/><path d="m180 280h10v10h-10z" fill="#fe500c"/><path d="m40 50h30v10h-30z" fill="#cd916d"/><path d="m80 50h20v10h-20z" fill="#cd916d"/><path d="m220 50h20v10h-20z" fill="#cd916d"/><path d="m250 50h30v10h-30z" fill="#cd916d"/><path d="m40 60h30v10h-30z" fill="#cd916d"/><path d="m80 60h20v10h-20z" fill="#cd916d"/><path d="m100 60h120v10h-120z" fill="#4d271b"/><path d="m220 60h20v10h-20z" fill="#cd916d"/><path d="m250 60h30v10h-30z" fill="#cd916d"/><path d="m40 70h30v10h-30z" fill="#cd916d"/><path d="m80 70h20v10h-20z" fill="#cd916d"/><path d="m100 70h120v10h-120z" fill="#4d271b"/><path d="m220 70h20v10h-20z" fill="#cd916d"/><path d="m250 70h30v10h-30z" fill="#cd916d"/><path d="m40 80h30v10h-30z" fill="#cd916d"/><path d="m80 80h20v10h-20z" fill="#cd916d"/><path d="m100 80h120v10h-120z" fill="#4d271b"/><path d="m220 80h20v10h-20z" fill="#cd916d"/><path d="m250 80h30v10h-30z" fill="#cd916d"/><path d="m40 90h70v10h-70z" fill="#cd916d"/><path d="m110 90h110v10h-110z" fill="#4d271b"/><path d="m220 90h60v10h-60z" fill="#cd916d"/><path d="m40 100h70v10h-70z" fill="#cd916d"/><path d="m110 100h110v10h-110z" fill="#4d271b"/><path d="m220 100h60v10h-60z" fill="#cd916d"/><path d="m40 110h70v10h-70z" fill="#cd916d"/><path d="m110 110h110v10h-110z" fill="#4d271b"/><path d="m220 110h60v10h-60z" fill="#cd916d"/><path d="m80 120h140v10h-140z" fill="#4d271b"/><path d="m80 130h150v10h-150z" fill="#4d271b"/><path d="m80 140h150v10h-150z" fill="#4d271b"/><path d="m80 150h150v10h-150z" fill="#4d271b"/><path d="m80 160h50v10h-50z" fill="#4d271b"/><path d="m130 160h130v10h-130z" fill="#a86f60"/><path d="m80 170h50v10h-50z" fill="#4d271b"/><path d="m130 170h130v10h-130z" fill="#a86f60"/><path d="m80 180h50v10h-50z" fill="#4d271b"/><path d="m130 180h60v10h-60z" fill="#a86f60"/><path d="m190 180h20v10h-20z" fill="#6b3f39"/><path d="m210 180h20v10h-20z" fill="#a86f60"/><path d="m230 180h20v10h-20z" fill="#6b3f39"/><path d="m250 180h10v10h-10z" fill="#a86f60"/><path d="m80 190h50v10h-50z" fill="#4d271b"/><path d="m130 190h130v10h-130z" fill="#a86f60"/><path d="m80 200h50v10h-50z" fill="#4d271b"/><path d="m130 200h10v10h-10z" fill="#a86f60"/><path d="m140 200h110v10h-110z" fill="#6b3f39"/><path d="m250 200h10v10h-10z" fill="#a86f60"/><path d="m130 210h130v10h-130z" fill="#a86f60"/><path d="m100 110h60v10h-60z"/><path d="m170 110h60v10h-60z"/><path d="m100 120h10v10h-10z"/><path d="m110 120h20v10h-20z" fill="#fff"/><path d="m130 120h30v10h-30z"/><path d="m170 120h10v10h-10z"/><path d="m180 120h20v10h-20z" fill="#fff"/><path d="m200 120h30v10h-30z"/><path d="m70 130h40v10h-40z"/><path d="m110 130h20v10h-20z" fill="#fff"/><path d="m130 130h50v10h-50z"/><path d="m180 130h20v10h-20z" fill="#fff"/><path d="m200 130h30v10h-30z"/><path d="m70 140h10v10h-10z"/><path d="m100 140h10v10h-10z"/><path d="m110 140h20v10h-20z" fill="#fff"/><path d="m130 140h30v10h-30z"/><path d="m170 140h10v10h-10z"/><path d="m180 140h20v10h-20z" fill="#fff"/><path d="m200 140h30v10h-30z"/><path d="m70 150h10v10h-10z"/><path d="m100 150h10v10h-10z"/><path d="m110 150h20v10h-20z" fill="#fff"/><path d="m130 150h30v10h-30z"/><path d="m170 150h10v10h-10z"/><path d="m180 150h20v10h-20z" fill="#fff"/><path d="m200 150h30v10h-30z"/><path d="m100 160h60v10h-60z"/><path d="m170 160h60v10h-60z"/></svg>