<?xml version="1.0" encoding="UTF-8"?><svg id="b" xmlns="http://www.w3.org/2000/svg" viewBox="0 0 198.23 340.16"><defs><style>.f{fill:#0a0b00;}.g,.h{stroke:#f2f2f2;}.g,.h,.i,.j,.k{fill:none;stroke-miterlimit:10;}.g,.h,.i,.k{stroke-width:.5px;}.h{opacity:.78;}.i,.j{stroke:#ff0;}.k{stroke:#999;}.l{fill:#999;}.m{fill:#ccc;}.n{fill:#ff0;opacity:.23;}.o{fill:#f2f2f2;}</style></defs><g id="c"><g id="d"><rect class="o" width="198.23" height="340.16" rx="1.34" ry="1.34"/><g id="e"><path class="f" d="m6.93,333.7c-1.16,0-2.09-.87-2.09-1.95V8.79c0-1.08.94-1.95,2.09-1.95h184.38c1.16,0,2.09.87,2.09,1.95v322.96c0,1.08-.94,1.95-2.09,1.95"/></g><path class="m" d="m95.81,28.67h-.87l-3.13-8.05h-.48c-.11,0-.2-.01-.24-.03-.05-.02-.09-.06-.12-.11-.03-.05-.05-.11-.05-.17s.02-.11.05-.17c.03-.05.07-.09.12-.11.05-.02.13-.03.24-.03h2.32c.12,0,.2.01.25.03.05.02.09.06.12.11.03.05.05.11.05.17s-.02.11-.05.17c-.03.05-.08.09-.12.11-.05.02-.13.03-.24.03h-1.19l2.89,7.42h.04l2.85-7.42h-1.19c-.12,0-.2-.01-.25-.03-.05-.02-.09-.06-.12-.11-.03-.05-.05-.11-.05-.17s.02-.11.05-.17c.03-.05.08-.09.12-.11.05-.02.13-.03.25-.03h2.31c.12,0,.2.01.25.03.05.02.09.06.12.11.03.05.05.11.05.17s-.02.11-.05.17c-.03.05-.08.09-.12.11-.05.02-.13.03-.25.03h-.47l-3.08,8.05Z"/><path class="m" d="m104.77,20.62v7.42h2.13c.15,0,.25.03.32.08.06.06.1.13.1.23s-.03.16-.1.22-.17.09-.32.09h-4.89c-.15,0-.25-.03-.32-.09s-.1-.13-.1-.22c0-.09.03-.17.1-.23.06-.06.17-.08.32-.08h2.13v-7.42h-2.13c-.15,0-.25-.03-.32-.08-.06-.06-.1-.13-.1-.23s.03-.17.1-.23c.06-.06.17-.08.32-.08h4.89c.15,0,.25.03.32.08.06.06.1.13.1.23s-.03.17-.1.23c-.06.06-.17.08-.32.08h-2.13Z"/><rect class="g" x="7.73" y="9.76" width="182.77" height="321.15" rx="1.34" ry="1.34"/><polygon class="j" points="95.88 245.4 39.76 245.4 67.82 197.44 95.88 245.4"/><line class="h" x1="95.88" y1="225.29" x2="39.76" y2="225.29"/><polygon class="j" points="80.28 203.98 24.15 203.98 52.21 156.01 80.28 203.98"/><polygon class="j" points="174.25 203.98 118.12 203.98 146.18 156.01 174.25 203.98"/><polygon class="j" points="158.67 245.4 102.55 245.4 130.61 197.44 158.67 245.4"/><line class="h" x1="158.67" y1="225.29" x2="102.55" y2="225.29"/><polygon class="n" points="145.96 156.26 145.96 203.82 174.02 203.82 145.96 156.26"/><line class="i" x1="145.96" y1="203.62" x2="145.96" y2="156.49"/><polygon class="n" points="130.61 197.64 130.61 245.2 158.67 245.2 130.61 197.64"/><line class="i" x1="130.61" y1="244.83" x2="130.61" y2="197.86"/><polygon class="n" points="52.21 156.27 52.21 203.83 24.15 203.83 52.21 156.27"/><line class="i" x1="52.21" y1="203.7" x2="52.21" y2="156.5"/><polygon class="n" points="67.82 197.86 67.82 245.42 39.76 245.42 67.82 197.86"/><line class="i" x1="67.82" y1="245.29" x2="67.82" y2="198.09"/><line class="h" x1="81.66" y1="180" x2="25.53" y2="180"/><line class="h" x1="174.25" y1="180" x2="118.12" y2="180"/><line class="h" x1="87.59" y1="118.71" x2="143.71" y2="118.71"/><line class="i" x1="115.63" y1="94.73" x2="115.67" y2="127.18"/><polygon class="n" points="87.99 142.37 115.67 127.18 115.6 95.09 87.99 142.37"/><polygon class="j" points="87.56 142.7 143.69 142.7 115.63 94.73 87.56 142.7"/><line class="i" x1="115.67" y1="127.18" x2="143.69" y2="142.7"/><line class="i" x1="115.67" y1="127.18" x2="87.56" y2="142.7"/><line class="h" x1="116.1" y1="118.71" x2="59.98" y2="118.71"/><line class="i" x1="88.06" y1="94.73" x2="88.01" y2="127.18"/><polygon class="n" points="115.7 142.37 88.01 127.18 88.08 95.09 115.7 142.37"/><polygon class="j" points="116.12 142.7 60 142.7 88.06 94.73 116.12 142.7"/><line class="i" x1="88.01" y1="127.18" x2="60" y2="142.7"/><line class="i" x1="88.01" y1="127.18" x2="116.12" y2="142.7"/><path class="l" d="m98.46,304.9v1.18h.42c.06,0,.09.01.12.03.02.02.03.05.03.08,0,.03-.01.06-.03.08-.02.02-.06.03-.12.03h-.94c-.05,0-.09-.01-.12-.03-.02-.02-.03-.05-.03-.08,0-.03.01-.06.03-.08.02-.02.06-.03.12-.03h.3v-2.69h-.3c-.05,0-.09-.01-.12-.03-.02-.02-.03-.05-.03-.08s.01-.06.03-.08c.02-.02.06-.03.12-.03h1.36c.28,0,.52.09.71.27.19.18.29.38.29.6,0,.16-.06.31-.18.45-.12.14-.32.26-.6.36.16.11.3.24.41.38.11.14.3.43.55.86h.17c.05,0,.09.01.12.03.02.02.03.05.03.08,0,.03-.01.06-.03.08-.02.02-.06.03-.12.03h-.3c-.28-.5-.49-.83-.65-1-.15-.17-.33-.3-.53-.4h-.72Zm0-.23h.61c.2,0,.38-.04.54-.11.16-.07.28-.16.35-.25s.11-.19.11-.3c0-.15-.08-.29-.23-.43-.15-.14-.33-.2-.55-.2h-.83v1.29Z"/><path class="l" d="m93.04,312.33h-1.48l-.3.82h.43c.05,0,.09.01.12.03.02.02.03.05.03.08,0,.03-.01.06-.03.08-.02.02-.06.03-.12.03h-.84c-.05,0-.09-.01-.12-.03-.02-.02-.03-.05-.03-.08,0-.03.01-.06.03-.08.02-.02.06-.03.12-.03h.17l1-2.69h-.67c-.05,0-.09-.01-.12-.03-.02-.02-.03-.05-.03-.08s.01-.06.03-.08c.02-.02.06-.03.12-.03h1.13l1.1,2.91h.17c.05,0,.09.01.12.03.02.02.03.05.03.08,0,.03-.01.06-.03.08-.02.02-.06.03-.12.03h-.84c-.06,0-.09-.01-.12-.03-.02-.02-.03-.05-.03-.08,0-.03.01-.06.03-.08.02-.02.06-.03.12-.03h.43l-.31-.82Zm-.09-.23l-.62-1.64h-.08l-.6,1.64h1.31Z"/><path class="l" d="m107.7,311.89c0,.3-.06.58-.18.84-.12.26-.29.46-.5.6-.21.14-.44.21-.69.21-.36,0-.68-.15-.96-.46s-.41-.7-.41-1.19.14-.88.41-1.19c.28-.31.6-.46.96-.46.25,0,.47.07.69.21.21.14.38.34.5.6.12.26.18.53.18.84Zm-.23,0c0-.37-.11-.7-.32-.99-.21-.29-.49-.44-.83-.44-.32,0-.59.14-.81.42-.22.28-.34.61-.34,1.01,0,.42.12.76.35,1.03.24.27.5.4.8.4.34,0,.61-.15.83-.44.21-.29.32-.62.32-.99Z"/><path class="l" d="m99.31,317.24v2.69h.58c.05,0,.09.01.12.03.02.02.03.05.03.08,0,.03-.01.06-.03.08-.02.02-.06.03-.12.03h-1.4c-.05,0-.09-.01-.12-.03-.02-.02-.03-.05-.03-.08,0-.03.01-.06.03-.08.02-.02.06-.03.12-.03h.58v-2.69h-.92v.78c0,.06-.01.09-.03.12-.02.02-.05.03-.08.03-.03,0-.06-.01-.08-.03-.02-.02-.03-.06-.03-.12v-1.01h2.52v1.01c0,.06-.01.09-.03.12-.02.02-.05.03-.08.03s-.06-.01-.08-.03c-.02-.02-.03-.06-.03-.12v-.78h-.92Z"/><path class="k" d="m106.33,309.6c-.74-2.52-2.78-4.48-5.33-5.11"/><path class="k" d="m101,318.88c2.37-.59,4.28-2.31,5.14-4.55"/><path class="k" d="m92.3,314.33c.84,2.2,2.7,3.89,4.99,4.51"/><path class="k" d="m97.54,304.64c-2.54.67-4.55,2.65-5.25,5.18"/></g></g></svg>