<svg xmlns="http://www.w3.org/2000/svg" viewBox="0 -0.5 50 50" shape-rendering="crispEdges">
	<title>Bitcoin Pussies #067</title>
	<desc>Bitcoin Pussies are 69 uniquely drawn and inscribed cats on Bitcoin</desc>
	<desc xmlns:meow="https://bitcoinpussies.com/">
		<meow:traits>
			<meow:Skin>White, Brown (Shiny)</meow:Skin>
			<meow:Eyes>With one eye patch</meow:Eyes>
			<meow:Gear>Pirate costume with a ship</meow:Gear>
			<meow:Message>Ahoy meowties, time to plunder some bitcoins</meow:Message>
		</meow:traits>
	</desc>
	<path stroke="#6afff6" d="M0 0h50M0 1h50M0 2h40M41 2h9M0 3h26M28 3h1M31 3h8M43 3h7M0 4h27M30 4h9M44 4h6M0 5h28M29 5h10M44 5h6M0 6h36M47 6h3M0 7h6M8 7h3M13 7h22M48 7h2M0 8h7M9 8h1M12 8h24M47 8h3M0 9h8M11 9h26M48 9h2M0 10h9M10 10h27M49 10h1M0 11h37M49 11h1M0 12h38M49 12h1M0 13h20M23 13h3M29 13h9M48 13h2M0 14h18M23 14h3M31 14h6M48 14h1M0 15h17M32 15h4M0 16h17M47 16h1M0 17h11M14 17h2M46 17h2M0 18h10M45 18h3M0 19h10M0 20h10M0 21h11M0 22h12M0 23h8M9 23h4M1 24h7M10 24h2M1 25h5M7 25h1M10 25h2M2 26h4M11 26h2M2 27h3" />
	<path stroke="#000000" d="M40 2h1M26 3h2M29 3h2M39 3h1M41 3h2M27 4h3M39 4h1M43 4h1M28 5h1M43 5h1M36 6h3M42 6h5M6 7h2M11 7h2M35 7h1M47 7h1M7 8h2M10 8h2M36 8h1M46 8h1M8 9h3M37 9h1M47 9h1M9 10h1M37 10h1M48 10h1M37 11h1M39 11h1M41 11h2M44 11h1M48 11h1M38 12h1M40 12h4M48 12h1M20 13h3M26 13h3M38 13h1M40 13h1M43 13h1M47 13h1M18 14h2M22 14h1M26 14h1M29 14h2M37 14h1M40 14h4M47 14h1M49 14h1M17 15h1M23 15h3M31 15h1M36 15h1M39 15h1M41 15h2M44 15h1M47 15h2M17 16h1M31 16h5M46 16h1M48 16h1M11 17h3M16 17h2M31 17h7M45 17h1M48 17h1M10 18h1M14 18h2M18 18h1M30 18h2M34 18h1M38 18h1M44 18h1M48 18h1M10 19h1M15 19h4M30 19h4M38 19h1M45 19h5M10 20h1M38 20h1M11 21h1M37 21h1M48 21h2M12 22h1M16 22h17M36 22h1M13 23h1M15 23h2M27 23h1M29 23h1M33 23h5M40 23h3M45 23h3M12 24h1M15 24h2M19 24h3M28 24h1M30 24h3M34 24h4M40 24h3M45 24h3M12 25h1M15 25h1M18 25h1M22 25h1M27 25h1M33 25h1M35 25h1M13 26h3M27 26h1M33 26h1M35 26h1M49 26h1M12 27h1M15 27h1M25 27h1M28 27h1M33 27h1M35 27h15M12 28h1M16 28h1M24 28h3M29 28h4M34 28h2M12 29h1M16 29h1M33 29h3M13 30h1M15 30h2M34 30h1M13 31h1M15 31h2M34 31h1M13 32h1M15 32h1M17 32h2M32 32h2M13 33h2M19 33h2M30 33h2M19 34h1M31 34h1M12 35h1M18 35h1M32 35h1M11 36h1M13 36h1M18 36h1M32 36h1M11 37h1M13 37h6M22 37h2M27 37h2M32 37h1M11 38h1M18 38h2M24 38h1M26 38h1M31 38h1M12 39h7M20 39h11" />
	<path stroke="#9e5000" d="M40 3h1M40 4h1M39 5h2M39 6h3M36 7h11M39 18h4M40 19h5M40 20h2M47 20h3M40 21h2M47 21h1M37 22h13M38 23h2M43 23h2M48 23h2M38 24h2M43 24h2M48 24h2M36 25h14M36 26h13" />
	<path stroke="#bc0000" d="M41 4h2M41 5h2" />
	<path stroke="#f5f5f5" d="M37 8h9M38 9h9M38 10h10M38 11h1M40 11h1M43 11h1M45 11h3M39 12h1M44 12h4M39 13h1M41 13h2M44 13h3M38 14h2M44 14h3M37 15h2M40 15h1M43 15h1M45 15h2M49 15h1M36 16h10M49 16h1M38 17h7M49 17h1M43 18h1M49 18h1M39 19h1M39 20h1M42 20h5M38 21h2M42 21h5" />
	<path stroke="#ffde6f" d="M20 14h2M18 15h2M22 15h1M18 16h1M11 18h2M37 18h1" />
	<path stroke="#ffd53f" d="M27 14h2M26 15h1M29 15h2M22 16h5M30 16h1M13 18h1M35 18h2M13 19h2M34 19h2" />
	<path stroke="#4a4343" d="M20 15h2M27 15h2M19 16h2M29 16h1M18 17h2M22 17h4M30 17h1M11 19h2M36 19h2M23 20h1M25 20h1" />
	<path stroke="#352e2e" d="M21 16h1M27 16h2M20 17h2M26 17h4M19 18h3M27 18h3M19 19h3M23 19h1M25 19h1M27 19h3M11 20h3M36 20h2M29 25h4M29 26h4M32 27h1M33 28h1" />
	<path stroke="#603f18" d="M16 18h2M32 18h2" />
	<path stroke="#ffffff" d="M22 18h5M22 19h1M24 19h1M26 19h1M20 25h1M25 25h1M24 26h3M23 27h2M26 27h2M23 28h1M27 28h1M22 29h7M22 30h7M21 31h9M19 32h13M21 33h9M20 34h11M19 35h13M19 36h13M19 37h2M24 37h3M30 37h2M15 38h3M25 38h1" />
	<path stroke="#282121" d="M14 20h9M24 20h1M26 20h10M12 21h3" />
	<path stroke="#6d151a" d="M15 21h3M34 21h3M14 22h2M35 22h1M14 25h1M14 27h1M15 28h1M15 29h1" />
	<path stroke="#a20616" d="M18 21h14M13 22h1M33 22h2M14 23h1M14 24h1M14 28h1M14 29h1M14 30h1" />
	<path stroke="#bd353b" d="M32 21h2M13 24h1M13 25h1M13 27h1M13 28h1M13 29h1M14 31h1M14 32h1" />
	<path stroke="#358cd2" d="M8 23h1M0 24h1M8 24h2M0 25h1M6 25h1M8 25h2M0 26h2M6 26h5M0 27h2M5 27h7M0 28h12M36 28h14M0 29h12M36 29h14M0 30h13M35 30h15M0 31h13M35 31h15M0 32h13M16 32h1M34 32h16" />
	<path stroke="#8f6535" d="M17 23h2M22 23h5M32 23h1M17 24h1M23 24h2M26 24h2M33 24h1M16 25h1M34 25h1M12 37h1M21 37h1M29 37h1M12 38h3M20 38h3M28 38h3" />
	<path stroke="#4e3312" d="M19 23h3M30 23h2M18 24h1M22 24h1M25 24h1M17 25h1M23 25h2M26 25h1M16 26h3M22 26h2M34 26h1M16 27h3M22 27h1M34 27h1M17 28h1M20 28h3M28 28h1M17 29h5M29 29h4M17 30h5M29 30h5M17 31h4M30 31h4M12 36h1M23 38h1M27 38h1" />
	<path stroke="#565151" d="M28 23h1M29 24h1M28 25h1M28 26h1M29 27h3" />
	<path stroke="#009ca5" d="M19 25h1M21 25h1M19 26h3" />
	<path stroke="#008991" d="M19 27h3" />
	<path stroke="#ffbbbc" d="M18 28h2" />
	<path stroke="#c39a74" d="M0 33h13M15 33h4M32 33h18M0 34h19M32 34h18M0 35h12M13 35h5M33 35h17M0 36h11M14 36h4M33 36h17M0 37h11M33 37h17M0 38h11M32 38h18M0 39h12M19 39h1M31 39h19M0 40h11M32 40h18M0 41h13M18 41h2M31 41h19M0 42h22M29 42h21M0 43h50M0 44h50M0 45h50M0 46h50M0 47h50M0 48h50M0 49h50" />
	<path stroke="#a57f59" d="M11 40h21M13 41h5M20 41h11M22 42h7" />
</svg>