<svg height="320" shape-rendering="crispEdges" viewBox="0 0 320 320" width="320" xmlns="http://www.w3.org/2000/svg"><rect fill="#d5d7e1" height="100%" width="100%"/><g fill="#fd8b5b"><path d="m90 210h140v10h-140z"/><path d="m90 220h140v10h-140z"/><path d="m90 230h140v10h-140z"/><path d="m90 240h140v10h-140z"/><path d="m90 250h20v10h-20z"/><path d="m120 250h110v10h-110z"/><path d="m90 260h20v10h-20z"/><path d="m120 260h110v10h-110z"/><path d="m90 270h20v10h-20z"/><path d="m120 270h110v10h-110z"/><path d="m90 280h20v10h-20z"/><path d="m120 280h110v10h-110z"/><path d="m90 290h20v10h-20z"/><path d="m120 290h110v10h-110z"/><path d="m90 300h20v10h-20z"/><path d="m120 300h110v10h-110z"/><path d="m90 310h20v10h-20z"/><path d="m120 310h110v10h-110z"/></g><path d="m140 210h40v10h-40z"/><path d="m140 220h10v10h-10z" fill="#e5e5de"/><path d="m150 220h20v10h-20z"/><path d="m170 220h10v10h-10z" fill="#e5e5de"/><path d="m140 230h10v10h-10z" fill="#e5e5de"/><path d="m150 230h20v10h-20z"/><path d="m170 230h10v10h-10z" fill="#e5e5de"/><path d="m140 240h10v10h-10z" fill="#e5e5de"/><path d="m150 240h20v10h-20z"/><path d="m170 240h10v10h-10z" fill="#e5e5de"/><path d="m140 250h10v10h-10z" fill="#e5e5de"/><path d="m150 250h20v10h-20z"/><path d="m170 250h10v10h-10z" fill="#e5e5de"/><path d="m140 260h10v10h-10z" fill="#e5e5de"/><path d="m150 260h20v10h-20z"/><path d="m170 260h10v10h-10z" fill="#e5e5de"/><path d="m140 270h10v10h-10z" fill="#e5e5de"/><path d="m150 270h20v10h-20z"/><path d="m170 270h10v10h-10z" fill="#e5e5de"/><path d="m140 280h10v10h-10z" fill="#e5e5de"/><path d="m150 280h20v10h-20z"/><path d="m170 280h10v10h-10z" fill="#e5e5de"/><path d="m140 290h10v10h-10z" fill="#e5e5de"/><path d="m150 290h20v10h-20z"/><path d="m170 290h10v10h-10z" fill="#e5e5de"/><path d="m140 300h10v10h-10z" fill="#e5e5de"/><path d="m150 300h20v10h-20z"/><path d="m170 300h10v10h-10z" fill="#e5e5de"/><path d="m140 310h10v10h-10z" fill="#e5e5de"/><path d="m150 310h20v10h-20z"/><path d="m170 310h10v10h-10z" fill="#e5e5de"/><path d="m90 40h30v10h-30z" fill="#abaaa8"/><path d="m200 40h30v10h-30z" fill="#abaaa8"/><path d="m90 50h30v10h-30z" fill="#abaaa8"/><path d="m200 50h30v10h-30z" fill="#abaaa8"/><path d="m90 60h30v10h-30z" fill="#abaaa8"/><path d="m200 60h30v10h-30z" fill="#abaaa8"/><path d="m90 70h30v10h-30z" fill="#abaaa8"/><path d="m200 70h30v10h-30z" fill="#abaaa8"/><path d="m90 80h30v10h-30z" fill="#abaaa8"/><path d="m200 80h30v10h-30z" fill="#abaaa8"/><path d="m90 90h140v10h-140z" fill="#abaaa8"/><path d="m90 100h140v10h-140z" fill="#abaaa8"/><path d="m90 110h140v10h-140z" fill="#abaaa8"/><path d="m90 120h140v10h-140z" fill="#abaaa8"/><path d="m90 130h140v10h-140z" fill="#abaaa8"/><path d="m90 140h140v10h-140z" fill="#abaaa8"/><path d="m90 150h140v10h-140z" fill="#abaaa8"/><path d="m90 160h140v10h-140z" fill="#807f7e"/><path d="m90 170h140v10h-140z" fill="#807f7e"/><path d="m90 180h20v10h-20z" fill="#807f7e"/><path d="m110 180h110v10h-110z"/><path d="m220 180h10v10h-10z" fill="#807f7e"/><path d="m90 190h30v10h-30z" fill="#807f7e"/><path d="m120 190h20v10h-20z" fill="#fff"/><path d="m140 190h40v10h-40z" fill="#807f7e"/><path d="m180 190h20v10h-20z" fill="#fff"/><path d="m200 190h30v10h-30z" fill="#807f7e"/><path d="m90 200h140v10h-140z" fill="#807f7e"/><path d="m90 210h140v10h-140z" fill="#807f7e"/><path d="m100 110h60v10h-60z" fill="#027c92"/><path d="m170 110h60v10h-60z" fill="#027c92"/><path d="m100 120h10v10h-10z" fill="#027c92"/><path d="m110 120h20v10h-20z" fill="#fff"/><path d="m130 120h20v10h-20z"/><path d="m150 120h10v10h-10z" fill="#027c92"/><path d="m170 120h10v10h-10z" fill="#027c92"/><path d="m180 120h20v10h-20z" fill="#fff"/><path d="m200 120h20v10h-20z"/><path d="m220 120h10v10h-10z" fill="#027c92"/><path d="m70 130h40v10h-40z" fill="#027c92"/><path d="m110 130h20v10h-20z" fill="#fff"/><path d="m130 130h20v10h-20z"/><path d="m150 130h30v10h-30z" fill="#027c92"/><path d="m180 130h20v10h-20z" fill="#fff"/><path d="m200 130h20v10h-20z"/><path d="m220 130h10v10h-10z" fill="#027c92"/><path d="m70 140h10v10h-10z" fill="#027c92"/><path d="m100 140h10v10h-10z" fill="#027c92"/><path d="m110 140h20v10h-20z" fill="#fff"/><path d="m130 140h20v10h-20z"/><path d="m150 140h10v10h-10z" fill="#027c92"/><path d="m170 140h10v10h-10z" fill="#027c92"/><path d="m180 140h20v10h-20z" fill="#fff"/><path d="m200 140h20v10h-20z"/><path d="m220 140h10v10h-10z" fill="#027c92"/><path d="m70 150h10v10h-10z" fill="#027c92"/><path d="m100 150h10v10h-10z" fill="#027c92"/><path d="m110 150h20v10h-20z" fill="#fff"/><path d="m130 150h20v10h-20z"/><path d="m150 150h10v10h-10z" fill="#027c92"/><path d="m170 150h10v10h-10z" fill="#027c92"/><path d="m180 150h20v10h-20z" fill="#fff"/><path d="m200 150h20v10h-20z"/><path d="m220 150h10v10h-10z" fill="#027c92"/><path d="m100 160h60v10h-60z" fill="#027c92"/><path d="m170 160h60v10h-60z" fill="#027c92"/></svg>