<svg height="320" shape-rendering="crispEdges" viewBox="0 0 320 320" width="320" xmlns="http://www.w3.org/2000/svg"><rect fill="#d5d7e1" height="100%" width="100%"/><g fill="#867c1d"><path d="m90 210h140v10h-140z"/><path d="m90 220h140v10h-140z"/><path d="m90 230h140v10h-140z"/><path d="m90 240h140v10h-140z"/><path d="m90 250h20v10h-20z"/><path d="m120 250h110v10h-110z"/><path d="m90 260h20v10h-20z"/><path d="m120 260h110v10h-110z"/><path d="m90 270h20v10h-20z"/><path d="m120 270h110v10h-110z"/><path d="m90 280h20v10h-20z"/><path d="m120 280h110v10h-110z"/><path d="m90 290h20v10h-20z"/><path d="m120 290h110v10h-110z"/><path d="m90 300h20v10h-20z"/><path d="m120 300h110v10h-110z"/><path d="m90 310h20v10h-20z"/><path d="m120 310h110v10h-110z"/></g><path d="m140 220h10v10h-10z" fill="#db8323"/><path d="m180 220h10v10h-10z" fill="#db8323"/><path d="m140 230h10v10h-10z" fill="#db8323"/><path d="m180 230h10v10h-10z" fill="#db8323"/><path d="m150 240h10v10h-10z" fill="#db8323"/><path d="m170 240h10v10h-10z" fill="#db8323"/><path d="m150 250h10v10h-10z" fill="#db8323"/><path d="m170 250h10v10h-10z" fill="#db8323"/><path d="m160 260h10v10h-10z" fill="#db8323"/><path d="m140 270h20v10h-20z" fill="#db8323"/><path d="m170 270h20v10h-20z" fill="#db8323"/><path d="m140 280h20v10h-20z" fill="#db8323"/><path d="m170 280h20v10h-20z" fill="#db8323"/><path d="m140 20h50v10h-50z" fill="#d4b7b2"/><path d="m110 30h40v10h-40z" fill="#d4b7b2"/><path d="m150 30h30v10h-30z" fill="#d18687"/><path d="m180 30h40v10h-40z" fill="#d4b7b2"/><path d="m110 40h10v10h-10z" fill="#d4b7b2"/><path d="m120 40h90v10h-90z" fill="#d18687"/><path d="m210 40h10v10h-10z" fill="#d4b7b2"/><path d="m90 50h30v10h-30z" fill="#d4b7b2"/><path d="m120 50h90v10h-90z" fill="#d18687"/><path d="m210 50h30v10h-30z" fill="#d4b7b2"/><path d="m90 60h10v10h-10z" fill="#d4b7b2"/><path d="m100 60h50v10h-50z" fill="#d18687"/><path d="m150 60h30v10h-30z" fill="#a86f60"/><path d="m180 60h50v10h-50z" fill="#d18687"/><path d="m230 60h10v10h-10z" fill="#d4b7b2"/><path d="m60 70h40v10h-40z" fill="#d4b7b2"/><path d="m100 70h20v10h-20z" fill="#d18687"/><path d="m120 70h90v10h-90z" fill="#a86f60"/><path d="m210 70h20v10h-20z" fill="#d18687"/><path d="m230 70h40v10h-40z" fill="#d4b7b2"/><path d="m60 80h10v10h-10z" fill="#d4b7b2"/><path d="m70 80h50v10h-50z" fill="#d18687"/><path d="m120 80h90v10h-90z" fill="#a86f60"/><path d="m210 80h50v10h-50z" fill="#d18687"/><path d="m260 80h10v10h-10z" fill="#d4b7b2"/><path d="m60 90h10v10h-10z" fill="#d4b7b2"/><path d="m70 90h20v10h-20z" fill="#d18687"/><path d="m90 90h150v10h-150z" fill="#a86f60"/><path d="m240 90h20v10h-20z" fill="#d18687"/><path d="m260 90h10v10h-10z" fill="#d4b7b2"/><path d="m40 100h30v10h-30z" fill="#d4b7b2"/><path d="m70 100h10v10h-10z" fill="#d18687"/><path d="m80 100h170v10h-170z" fill="#a86f60"/><path d="m250 100h10v10h-10z" fill="#d18687"/><path d="m260 100h30v10h-30z" fill="#d4b7b2"/><path d="m40 110h10v10h-10z" fill="#d4b7b2"/><path d="m50 110h30v10h-30z" fill="#d18687"/><path d="m80 110h170v10h-170z" fill="#a86f60"/><path d="m250 110h30v10h-30z" fill="#d18687"/><path d="m280 110h10v10h-10z" fill="#d4b7b2"/><path d="m40 120h10v10h-10z" fill="#d4b7b2"/><path d="m50 120h20v10h-20z" fill="#d18687"/><path d="m70 120h190v10h-190z" fill="#a86f60"/><path d="m260 120h20v10h-20z" fill="#d18687"/><path d="m280 120h10v10h-10z" fill="#d4b7b2"/><path d="m40 130h10v10h-10z" fill="#d4b7b2"/><path d="m50 130h40v10h-40z" fill="#d18687"/><path d="m90 130h60v10h-60z" fill="#a86f60"/><path d="m150 130h30v10h-30z" fill="#fff0ee"/><path d="m180 130h70v10h-70z" fill="#a86f60"/><path d="m250 130h30v10h-30z" fill="#d18687"/><path d="m280 130h10v10h-10z" fill="#d4b7b2"/><path d="m50 140h20v10h-20z" fill="#d4b7b2"/><path d="m70 140h30v10h-30z" fill="#d18687"/><path d="m100 140h40v10h-40z" fill="#a86f60"/><path d="m140 140h50v10h-50z" fill="#fff0ee"/><path d="m190 140h40v10h-40z" fill="#a86f60"/><path d="m230 140h30v10h-30z" fill="#d18687"/><path d="m260 140h20v10h-20z" fill="#d4b7b2"/><path d="m70 150h20v10h-20z" fill="#d4b7b2"/><path d="m90 150h10v10h-10z" fill="#d18687"/><path d="m100 150h30v10h-30z" fill="#a86f60"/><path d="m130 150h70v10h-70z" fill="#fff0ee"/><path d="m200 150h30v10h-30z" fill="#a86f60"/><path d="m230 150h10v10h-10z" fill="#d18687"/><path d="m240 150h20v10h-20z" fill="#d4b7b2"/><path d="m90 160h10v10h-10z" fill="#d4b7b2"/><path d="m100 160h10v10h-10z" fill="#a86f60"/><path d="m110 160h20v10h-20z" fill="#e11833"/><path d="m130 160h70v10h-70z" fill="#fff0ee"/><path d="m200 160h20v10h-20z" fill="#e11833"/><path d="m220 160h10v10h-10z" fill="#a86f60"/><path d="m230 160h10v10h-10z" fill="#d4b7b2"/><path d="m80 170h10v10h-10z" fill="#d4b7b2"/><path d="m90 170h150v10h-150z" fill="#e11833"/><path d="m240 170h10v10h-10z" fill="#d4b7b2"/><path d="m70 180h40v10h-40z" fill="#d4b7b2"/><path d="m110 180h30v10h-30z" fill="#e11833"/><path d="m140 180h50v10h-50z" fill="#d4b7b2"/><path d="m190 180h30v10h-30z" fill="#e11833"/><path d="m220 180h40v10h-40z" fill="#d4b7b2"/><path d="m70 190h10v10h-10z" fill="#d4b7b2"/><path d="m80 190h20v10h-20z" fill="#c3a199"/><path d="m100 190h50v10h-50z" fill="#d4b7b2"/><path d="m150 190h30v10h-30z" fill="#c3a199"/><path d="m180 190h50v10h-50z" fill="#d4b7b2"/><path d="m230 190h20v10h-20z" fill="#c3a199"/><path d="m250 190h10v10h-10z" fill="#d4b7b2"/><path d="m80 200h170v10h-170z" fill="#c3a199"/><path d="m100 110h60v10h-60z" fill="#068940"/><path d="m170 110h60v10h-60z" fill="#257ced"/><path d="m100 120h10v10h-10z" fill="#068940"/><path d="m110 120h20v10h-20z" fill="#fff"/><path d="m130 120h20v10h-20z"/><path d="m150 120h10v10h-10z" fill="#068940"/><path d="m170 120h10v10h-10z" fill="#257ced"/><path d="m180 120h20v10h-20z" fill="#fff"/><path d="m200 120h20v10h-20z"/><path d="m220 120h10v10h-10z" fill="#257ced"/><path d="m70 130h30v10h-30z" fill="#257ced"/><path d="m100 130h10v10h-10z" fill="#068940"/><path d="m110 130h20v10h-20z" fill="#fff"/><path d="m130 130h20v10h-20z"/><path d="m150 130h10v10h-10z" fill="#068940"/><path d="m160 130h20v10h-20z" fill="#257ced"/><path d="m180 130h20v10h-20z" fill="#fff"/><path d="m200 130h20v10h-20z"/><path d="m220 130h10v10h-10z" fill="#257ced"/><path d="m70 140h10v10h-10z" fill="#257ced"/><path d="m100 140h10v10h-10z" fill="#068940"/><path d="m110 140h20v10h-20z" fill="#fff"/><path d="m130 140h20v10h-20z"/><path d="m150 140h10v10h-10z" fill="#068940"/><path d="m170 140h10v10h-10z" fill="#257ced"/><path d="m180 140h20v10h-20z" fill="#fff"/><path d="m200 140h20v10h-20z"/><path d="m220 140h10v10h-10z" fill="#257ced"/><path d="m70 150h10v10h-10z" fill="#257ced"/><path d="m100 150h10v10h-10z" fill="#068940"/><path d="m110 150h20v10h-20z" fill="#fff"/><path d="m130 150h20v10h-20z"/><path d="m150 150h10v10h-10z" fill="#068940"/><path d="m170 150h10v10h-10z" fill="#257ced"/><path d="m180 150h20v10h-20z" fill="#fff"/><path d="m200 150h20v10h-20z"/><path d="m220 150h10v10h-10z" fill="#257ced"/><path d="m100 160h60v10h-60z" fill="#068940"/><path d="m170 160h60v10h-60z" fill="#257ced"/></svg>