<svg height="320" shape-rendering="crispEdges" viewBox="0 0 320 320" width="320" xmlns="http://www.w3.org/2000/svg"><rect fill="#d5d7e1" height="100%" width="100%"/><g fill="#cfc2ab"><path d="m90 210h140v10h-140z"/><path d="m90 220h140v10h-140z"/><path d="m90 230h140v10h-140z"/><path d="m90 240h140v10h-140z"/><path d="m90 250h20v10h-20z"/><path d="m120 250h110v10h-110z"/><path d="m90 260h20v10h-20z"/><path d="m120 260h110v10h-110z"/><path d="m90 270h20v10h-20z"/><path d="m120 270h110v10h-110z"/><path d="m90 280h20v10h-20z"/><path d="m120 280h110v10h-110z"/><path d="m90 290h20v10h-20z"/><path d="m120 290h110v10h-110z"/><path d="m90 300h20v10h-20z"/><path d="m120 300h110v10h-110z"/><path d="m90 310h20v10h-20z"/><path d="m120 310h110v10h-110z"/></g><path d="m90 210h20v10h-20z" fill="#df2c39"/><path d="m110 210h20v10h-20z"/><path d="m130 210h20v10h-20z" fill="#df2c39"/><path d="m150 210h20v10h-20z"/><path d="m170 210h20v10h-20z" fill="#df2c39"/><path d="m190 210h20v10h-20z"/><path d="m210 210h20v10h-20z" fill="#df2c39"/><path d="m90 220h20v10h-20z" fill="#df2c39"/><path d="m110 220h20v10h-20z"/><path d="m130 220h20v10h-20z" fill="#df2c39"/><path d="m150 220h20v10h-20z"/><path d="m170 220h20v10h-20z" fill="#df2c39"/><path d="m190 220h20v10h-20z"/><path d="m210 220h20v10h-20z" fill="#df2c39"/><path d="m90 230h20v10h-20z"/><path d="m110 230h20v10h-20z" fill="#f938d8"/><path d="m130 230h20v10h-20z"/><path d="m150 230h20v10h-20z" fill="#f938d8"/><path d="m170 230h20v10h-20z"/><path d="m190 230h20v10h-20z" fill="#f938d8"/><path d="m210 230h20v10h-20z"/><path d="m90 240h20v10h-20z"/><path d="m110 240h20v10h-20z" fill="#f938d8"/><path d="m130 240h20v10h-20z"/><path d="m150 240h20v10h-20z" fill="#f938d8"/><path d="m170 240h20v10h-20z"/><path d="m190 240h20v10h-20z" fill="#f938d8"/><path d="m210 240h20v10h-20z"/><path d="m90 250h20v10h-20z" fill="#5c25fb"/><path d="m120 250h10v10h-10z"/><path d="m130 250h20v10h-20z" fill="#5c25fb"/><path d="m150 250h20v10h-20z"/><path d="m170 250h20v10h-20z" fill="#5c25fb"/><path d="m190 250h20v10h-20z"/><path d="m210 250h20v10h-20z" fill="#5c25fb"/><path d="m90 260h20v10h-20z" fill="#5c25fb"/><path d="m120 260h10v10h-10z"/><path d="m130 260h20v10h-20z" fill="#5c25fb"/><path d="m150 260h20v10h-20z"/><path d="m170 260h20v10h-20z" fill="#5c25fb"/><path d="m190 260h20v10h-20z"/><path d="m210 260h20v10h-20z" fill="#5c25fb"/><path d="m90 270h20v10h-20z"/><path d="m120 270h10v10h-10z" fill="#2a86fd"/><path d="m130 270h20v10h-20z"/><path d="m150 270h20v10h-20z" fill="#2a86fd"/><path d="m170 270h20v10h-20z"/><path d="m190 270h20v10h-20z" fill="#2a86fd"/><path d="m210 270h20v10h-20z"/><path d="m90 280h20v10h-20z"/><path d="m120 280h10v10h-10z" fill="#2a86fd"/><path d="m130 280h20v10h-20z"/><path d="m150 280h20v10h-20z" fill="#2a86fd"/><path d="m170 280h20v10h-20z"/><path d="m190 280h20v10h-20z" fill="#2a86fd"/><path d="m210 280h20v10h-20z"/><path d="m90 290h20v10h-20z" fill="#45faff"/><path d="m120 290h10v10h-10z"/><path d="m130 290h20v10h-20z" fill="#45faff"/><path d="m150 290h20v10h-20z"/><path d="m170 290h20v10h-20z" fill="#45faff"/><path d="m190 290h20v10h-20z"/><path d="m210 290h20v10h-20z" fill="#45faff"/><path d="m90 300h20v10h-20z" fill="#45faff"/><path d="m120 300h10v10h-10z"/><path d="m130 300h20v10h-20z" fill="#45faff"/><path d="m150 300h20v10h-20z"/><path d="m170 300h20v10h-20z" fill="#45faff"/><path d="m190 300h20v10h-20z"/><path d="m210 300h20v10h-20z" fill="#45faff"/><path d="m90 310h20v10h-20z"/><path d="m120 310h10v10h-10z" fill="#38dd56"/><path d="m130 310h20v10h-20z"/><path d="m150 310h20v10h-20z" fill="#38dd56"/><path d="m170 310h20v10h-20z"/><path d="m190 310h20v10h-20z" fill="#38dd56"/><path d="m210 310h20v10h-20z"/><path d="m140 40h90v10h-90z" fill="#c3a199"/><path d="m130 50h120v10h-120z" fill="#c3a199"/><path d="m120 60h50v10h-50z" fill="#c3a199"/><path d="m170 60h80v10h-80z" fill="#343235"/><path d="m110 70h50v10h-50z" fill="#c3a199"/><path d="m160 70h10v10h-10z" fill="#343235"/><path d="m170 70h90v10h-90z" fill="#b2958d"/><path d="m100 80h50v10h-50z" fill="#c3a199"/><path d="m150 80h10v10h-10z" fill="#343235"/><path d="m160 80h30v10h-30z" fill="#b2958d"/><path d="m190 80h20v10h-20z" fill="#d4b7b2"/><path d="m210 80h10v10h-10z" fill="#b2958d"/><path d="m220 80h20v10h-20z" fill="#d4b7b2"/><path d="m240 80h10v10h-10z" fill="#b2958d"/><path d="m250 80h10v10h-10z" fill="#d4b7b2"/><path d="m90 90h50v10h-50z" fill="#c3a199"/><path d="m140 90h10v10h-10z" fill="#343235"/><path d="m150 90h10v10h-10z" fill="#b2958d"/><path d="m160 90h20v10h-20z" fill="#d4b7b2"/><path d="m180 90h10v10h-10z" fill="#b2958d"/><path d="m190 90h20v10h-20z" fill="#d4b7b2"/><path d="m210 90h10v10h-10z" fill="#b2958d"/><path d="m220 90h20v10h-20z" fill="#d4b7b2"/><path d="m240 90h10v10h-10z" fill="#b2958d"/><path d="m250 90h10v10h-10z" fill="#d4b7b2"/><path d="m80 100h50v10h-50z" fill="#c3a199"/><path d="m130 100h10v10h-10z" fill="#343235"/><path d="m140 100h40v10h-40z" fill="#d4b7b2"/><path d="m180 100h10v10h-10z" fill="#b2958d"/><path d="m190 100h20v10h-20z" fill="#d4b7b2"/><path d="m210 100h10v10h-10z" fill="#b2958d"/><path d="m220 100h20v10h-20z" fill="#d4b7b2"/><path d="m240 100h10v10h-10z" fill="#b2958d"/><path d="m250 100h10v10h-10z" fill="#d4b7b2"/><path d="m70 110h50v10h-50z" fill="#c3a199"/><path d="m120 110h10v10h-10z" fill="#343235"/><path d="m130 110h50v10h-50z" fill="#d4b7b2"/><path d="m180 110h10v10h-10z" fill="#b2958d"/><path d="m190 110h20v10h-20z" fill="#d4b7b2"/><path d="m210 110h10v10h-10z" fill="#b2958d"/><path d="m220 110h20v10h-20z" fill="#d4b7b2"/><path d="m240 110h10v10h-10z" fill="#b2958d"/><path d="m250 110h10v10h-10z" fill="#d4b7b2"/><path d="m60 120h60v10h-60z" fill="#c3a199"/><path d="m120 120h10v10h-10z" fill="#343235"/><path d="m130 120h50v10h-50z" fill="#d4b7b2"/><path d="m180 120h10v10h-10z" fill="#b2958d"/><path d="m190 120h20v10h-20z" fill="#d4b7b2"/><path d="m210 120h10v10h-10z" fill="#b2958d"/><path d="m220 120h20v10h-20z" fill="#d4b7b2"/><path d="m240 120h10v10h-10z" fill="#b2958d"/><path d="m250 120h10v10h-10z" fill="#d4b7b2"/><path d="m60 130h60v10h-60z" fill="#c3a199"/><path d="m120 130h10v10h-10z" fill="#343235"/><path d="m130 130h50v10h-50z" fill="#d4b7b2"/><path d="m180 130h10v10h-10z" fill="#b2958d"/><path d="m190 130h20v10h-20z" fill="#d4b7b2"/><path d="m210 130h10v10h-10z" fill="#b2958d"/><path d="m220 130h20v10h-20z" fill="#d4b7b2"/><path d="m240 130h10v10h-10z" fill="#b2958d"/><path d="m250 130h10v10h-10z" fill="#d4b7b2"/><path d="m60 140h60v10h-60z" fill="#c3a199"/><path d="m120 140h10v10h-10z" fill="#343235"/><path d="m130 140h50v10h-50z" fill="#d4b7b2"/><path d="m180 140h10v10h-10z" fill="#b2958d"/><path d="m190 140h20v10h-20z" fill="#d4b7b2"/><path d="m210 140h10v10h-10z" fill="#b2958d"/><path d="m220 140h20v10h-20z" fill="#d4b7b2"/><path d="m240 140h10v10h-10z" fill="#b2958d"/><path d="m250 140h10v10h-10z" fill="#d4b7b2"/><path d="m60 150h60v10h-60z" fill="#c3a199"/><path d="m120 150h10v10h-10z" fill="#343235"/><path d="m130 150h40v10h-40z" fill="#d4b7b2"/><path d="m170 150h10v10h-10z" fill="#b2958d"/><path d="m180 150h30v10h-30z" fill="#d4b7b2"/><path d="m210 150h10v10h-10z" fill="#b2958d"/><path d="m220 150h20v10h-20z" fill="#d4b7b2"/><path d="m240 150h10v10h-10z" fill="#b2958d"/><path d="m250 150h10v10h-10z" fill="#d4b7b2"/><path d="m60 160h60v10h-60z" fill="#c3a199"/><path d="m120 160h10v10h-10z" fill="#343235"/><path d="m130 160h30v10h-30z" fill="#d4b7b2"/><path d="m160 160h10v10h-10z" fill="#b2958d"/><path d="m170 160h30v10h-30z" fill="#d4b7b2"/><path d="m200 160h10v10h-10z" fill="#b2958d"/><path d="m210 160h30v10h-30z" fill="#d4b7b2"/><path d="m240 160h10v10h-10z" fill="#b2958d"/><path d="m250 160h10v10h-10z" fill="#d4b7b2"/><path d="m60 170h30v10h-30z" fill="#c3a199"/><path d="m90 170h10v10h-10z" fill="#343235"/><path d="m100 170h20v10h-20z" fill="#c3a199"/><path d="m120 170h10v10h-10z" fill="#343235"/><path d="m130 170h20v10h-20z" fill="#d4b7b2"/><path d="m150 170h10v10h-10z" fill="#b2958d"/><path d="m160 170h30v10h-30z" fill="#d4b7b2"/><path d="m190 170h10v10h-10z" fill="#b2958d"/><path d="m200 170h30v10h-30z" fill="#d4b7b2"/><path d="m230 170h10v10h-10z" fill="#b2958d"/><path d="m240 170h20v10h-20z" fill="#d4b7b2"/><path d="m60 180h20v10h-20z" fill="#c3a199"/><path d="m80 180h30v10h-30z" fill="#343235"/><path d="m110 180h10v10h-10z" fill="#c3a199"/><path d="m120 180h20v10h-20z" fill="#a86f60"/><path d="m140 180h10v10h-10z" fill="#d4b7b2"/><path d="m150 180h10v10h-10z" fill="#b2958d"/><path d="m160 180h20v10h-20z" fill="#d4b7b2"/><path d="m180 180h10v10h-10z" fill="#b2958d"/><path d="m190 180h30v10h-30z" fill="#d4b7b2"/><path d="m220 180h10v10h-10z" fill="#b2958d"/><path d="m230 180h30v10h-30z" fill="#d4b7b2"/><path d="m60 190h30v10h-30z" fill="#c3a199"/><path d="m90 190h10v10h-10z" fill="#343235"/><path d="m100 190h20v10h-20z" fill="#c3a199"/><path d="m120 190h30v10h-30z" fill="#a86f60"/><path d="m150 190h10v10h-10z" fill="#b2958d"/><path d="m160 190h20v10h-20z" fill="#d4b7b2"/><path d="m180 190h10v10h-10z" fill="#b2958d"/><path d="m190 190h20v10h-20z" fill="#d4b7b2"/><path d="m210 190h10v10h-10z" fill="#b2958d"/><path d="m220 190h30v10h-30z" fill="#d4b7b2"/><path d="m60 200h60v10h-60z" fill="#c3a199"/><path d="m120 200h30v10h-30z" fill="#a86f60"/><path d="m150 200h10v10h-10z" fill="#b2958d"/><path d="m160 200h20v10h-20z" fill="#d4b7b2"/><path d="m180 200h10v10h-10z" fill="#b2958d"/><path d="m190 200h20v10h-20z" fill="#d4b7b2"/><path d="m210 200h10v10h-10z" fill="#b2958d"/><path d="m220 200h20v10h-20z" fill="#d4b7b2"/><path d="m120 210h30v10h-30z" fill="#a86f60"/><path d="m120 220h30v10h-30z" fill="#a86f60"/><path d="m100 110h60v10h-60z" fill="#d19a54"/><path d="m170 110h60v10h-60z" fill="#d19a54"/><path d="m100 120h10v10h-10z" fill="#d19a54"/><path d="m110 120h20v10h-20z" fill="#fff"/><path d="m130 120h20v10h-20z"/><path d="m150 120h10v10h-10z" fill="#d19a54"/><path d="m170 120h10v10h-10z" fill="#d19a54"/><path d="m180 120h20v10h-20z" fill="#fff"/><path d="m200 120h20v10h-20z"/><path d="m220 120h10v10h-10z" fill="#d19a54"/><path d="m70 130h40v10h-40z" fill="#d19a54"/><path d="m110 130h20v10h-20z" fill="#fff"/><path d="m130 130h20v10h-20z"/><path d="m150 130h30v10h-30z" fill="#d19a54"/><path d="m180 130h20v10h-20z" fill="#fff"/><path d="m200 130h20v10h-20z"/><path d="m220 130h10v10h-10z" fill="#d19a54"/><path d="m70 140h10v10h-10z" fill="#d19a54"/><path d="m100 140h10v10h-10z" fill="#d19a54"/><path d="m110 140h20v10h-20z" fill="#fff"/><path d="m130 140h20v10h-20z"/><path d="m150 140h10v10h-10z" fill="#d19a54"/><path d="m170 140h10v10h-10z" fill="#d19a54"/><path d="m180 140h20v10h-20z" fill="#fff"/><path d="m200 140h20v10h-20z"/><path d="m220 140h10v10h-10z" fill="#d19a54"/><path d="m70 150h10v10h-10z" fill="#d19a54"/><path d="m100 150h10v10h-10z" fill="#d19a54"/><path d="m110 150h20v10h-20z" fill="#fff"/><path d="m130 150h20v10h-20z"/><path d="m150 150h10v10h-10z" fill="#d19a54"/><path d="m170 150h10v10h-10z" fill="#d19a54"/><path d="m180 150h20v10h-20z" fill="#fff"/><path d="m200 150h20v10h-20z"/><path d="m220 150h10v10h-10z" fill="#d19a54"/><path d="m100 160h60v10h-60z" fill="#d19a54"/><path d="m170 160h60v10h-60z" fill="#d19a54"/></svg>