<?xml version="1.0" encoding="UTF-8"?><svg id="b" xmlns="http://www.w3.org/2000/svg" viewBox="0 0 197.05 338.52"><defs><style>.f,.g,.h,.i,.j{fill:none;stroke-miterlimit:10;}.f,.h{stroke:lime;}.k{fill:#0a0b00;}.g{opacity:.78;}.g,.i{stroke:#f2f2f2;}.l{fill:lime;opacity:.33;}.h,.i,.j{stroke-width:.5px;}.j{stroke:#999;}.m{fill:#999;}.n{fill:#ccc;}.o{fill:#f2f2f2;}</style></defs><g id="c"><g id="d"><rect class="o" width="197.05" height="338.52" rx="1.34" ry="1.34"/><path class="k" d="m6.88,331.9c-1.15,0-2.08-.87-2.08-1.94V8.56c0-1.07.93-1.94,2.08-1.94h183.28c1.15,0,2.08.87,2.08,1.94v321.4c0,1.07-.93,1.94-2.08,1.94"/><rect class="i" x="7.68" y="9.46" width="181.68" height="319.61" rx="1.34" ry="1.34"/><path class="n" d="m89.78,20.62v7.38h2.12c.15,0,.25.03.32.08.06.06.1.13.1.22s-.03.16-.1.22c-.06.06-.17.09-.32.09h-4.86c-.15,0-.25-.03-.32-.09-.06-.06-.1-.13-.1-.22,0-.09.03-.17.1-.22.06-.06.17-.08.32-.08h2.12v-7.38h-2.12c-.15,0-.25-.03-.32-.08-.06-.06-.1-.13-.1-.22s.03-.17.1-.22c.06-.06.17-.08.32-.08h4.86c.15,0,.25.03.32.08.06.06.1.13.1.22s-.03.17-.1.22c-.06.06-.17.08-.32.08h-2.12Z"/><path class="n" d="m98.83,20.62v7.38h2.12c.15,0,.25.03.32.08.06.06.1.13.1.22s-.03.16-.1.22c-.06.06-.17.09-.32.09h-4.86c-.15,0-.25-.03-.32-.09-.06-.06-.1-.13-.1-.22,0-.09.03-.17.1-.22.06-.06.17-.08.32-.08h2.12v-7.38h-2.12c-.15,0-.25-.03-.32-.08-.06-.06-.1-.13-.1-.22s.03-.17.1-.22c.06-.06.17-.08.32-.08h4.86c.15,0,.25.03.32.08.06.06.1.13.1.22s-.03.17-.1.22c-.06.06-.17.08-.32.08h-2.12Z"/><path class="n" d="m107.89,20.62v7.38h2.12c.15,0,.25.03.32.08.06.06.1.13.1.22s-.03.16-.1.22c-.06.06-.17.09-.32.09h-4.86c-.15,0-.25-.03-.32-.09-.06-.06-.1-.13-.1-.22,0-.09.03-.17.1-.22.06-.06.17-.08.32-.08h2.12v-7.38h-2.12c-.15,0-.25-.03-.32-.08-.06-.06-.1-.13-.1-.22s.03-.17.1-.22c.06-.06.17-.08.32-.08h4.86c.15,0,.25.03.32.08.06.06.1.13.1.22s-.03.17-.1.22c-.06.06-.17.08-.32.08h-2.12Z"/><g id="e"><polygon class="f" points="139.63 116.36 56.38 116.36 98.01 187.5 139.63 116.36"/><polyline class="h" points="98.01 187.5 98.01 152.29 98.01 116.44"/><polygon class="l" points="98.01 187.12 98.01 116.44 56.38 115.97 98.01 187.12"/><line class="g" x1="139.63" y1="151.93" x2="56.38" y2="151.93"/><polygon class="f" points="90.74 153.04 173.99 153.04 132.36 224.18 90.74 153.04"/><polyline class="h" points="132.36 224.19 132.36 188.97 173.99 153.12"/><line class="h" x1="132.36" y1="188.97" x2="90.74" y2="153.12"/><polygon class="l" points="132.36 223.8 132.36 188.97 173.99 152.65 132.36 223.8"/><line class="g" x1="90.74" y1="188.61" x2="173.99" y2="188.61"/><polygon class="f" points="105.37 153.04 22.12 153.04 63.75 224.18 105.37 153.04"/><polyline class="h" points="63.75 224.18 63.75 188.97 22.12 153.12"/><line class="h" x1="63.75" y1="188.97" x2="105.37" y2="153.12"/><polygon class="l" points="63.75 223.8 63.75 188.97 22.12 152.65 63.75 223.8"/><line class="g" x1="105.37" y1="188.61" x2="22.12" y2="188.61"/></g><path class="m" d="m97.32,304.9v1.18h.42c.06,0,.09.01.12.03.02.02.03.05.03.08,0,.03-.01.06-.03.08-.02.02-.06.03-.12.03h-.94c-.05,0-.09-.01-.12-.03-.02-.02-.03-.05-.03-.08,0-.03.01-.06.03-.08.02-.02.06-.03.12-.03h.3v-2.69h-.3c-.05,0-.09-.01-.12-.03-.02-.02-.03-.05-.03-.08s.01-.06.03-.08c.02-.02.06-.03.12-.03h1.36c.28,0,.52.09.71.27.19.18.29.38.29.6,0,.16-.06.31-.18.45-.12.14-.32.26-.6.36.16.11.3.24.41.38.11.14.3.43.55.86h.17c.05,0,.09.01.12.03.02.02.03.05.03.08,0,.03-.01.06-.03.08-.02.02-.06.03-.12.03h-.3c-.28-.5-.49-.83-.65-1-.15-.17-.33-.3-.53-.4h-.72Zm0-.23h.61c.2,0,.38-.04.54-.11.16-.07.28-.16.35-.25s.11-.19.11-.3c0-.15-.08-.29-.23-.43-.15-.14-.33-.2-.55-.2h-.83v1.29Z"/><path class="m" d="m91.9,312.33h-1.48l-.3.82h.43c.05,0,.09.01.12.03.02.02.03.05.03.08,0,.03-.01.06-.03.08-.02.02-.06.03-.12.03h-.84c-.05,0-.09-.01-.12-.03-.02-.02-.03-.05-.03-.08,0-.03.01-.06.03-.08.02-.02.06-.03.12-.03h.17l1-2.69h-.67c-.05,0-.09-.01-.12-.03-.02-.02-.03-.05-.03-.08s.01-.06.03-.08c.02-.02.06-.03.12-.03h1.13l1.1,2.91h.17c.05,0,.09.01.12.03.02.02.03.05.03.08,0,.03-.01.06-.03.08-.02.02-.06.03-.12.03h-.84c-.06,0-.09-.01-.12-.03-.02-.02-.03-.05-.03-.08,0-.03.01-.06.03-.08.02-.02.06-.03.12-.03h.43l-.31-.82Zm-.09-.23l-.62-1.64h-.08l-.6,1.64h1.31Z"/><path class="m" d="m106.56,311.89c0,.3-.06.58-.18.84-.12.26-.29.46-.5.6-.21.14-.44.21-.69.21-.36,0-.68-.15-.96-.46s-.41-.7-.41-1.19.14-.88.41-1.19c.28-.31.6-.46.96-.46.25,0,.47.07.69.21.21.14.38.34.5.6.12.26.18.53.18.84Zm-.23,0c0-.37-.11-.7-.32-.99-.21-.29-.49-.44-.83-.44-.32,0-.59.14-.81.42-.22.28-.34.61-.34,1.01,0,.42.12.76.35,1.03.24.27.5.4.8.4.34,0,.61-.15.83-.44.21-.29.32-.62.32-.99Z"/><path class="m" d="m98.16,317.24v2.69h.58c.05,0,.09.01.12.03.02.02.03.05.03.08,0,.03-.01.06-.03.08-.02.02-.06.03-.12.03h-1.4c-.05,0-.09-.01-.12-.03-.02-.02-.03-.05-.03-.08,0-.03.01-.06.03-.08.02-.02.06-.03.12-.03h.58v-2.69h-.92v.78c0,.06-.01.09-.03.12-.02.02-.05.03-.08.03-.03,0-.06-.01-.08-.03-.02-.02-.03-.06-.03-.12v-1.01h2.52v1.01c0,.06-.01.09-.03.12-.02.02-.05.03-.08.03s-.06-.01-.08-.03c-.02-.02-.03-.06-.03-.12v-.78h-.92Z"/><path class="j" d="m105.19,309.6c-.74-2.52-2.78-4.48-5.33-5.11"/><path class="j" d="m99.86,318.88c2.37-.59,4.28-2.31,5.14-4.55"/><path class="j" d="m91.16,314.33c.84,2.2,2.7,3.89,4.99,4.51"/><path class="j" d="m96.39,304.64c-2.54.67-4.55,2.65-5.25,5.18"/></g></g></svg>