<svg height="320" shape-rendering="crispEdges" viewBox="0 0 320 320" width="320" xmlns="http://www.w3.org/2000/svg"><rect fill="#d5d7e1" height="100%" width="100%"/><path d="m90 210h140v10h-140z" fill="#1f1d29"/><path d="m90 220h140v10h-140z" fill="#1f1d29"/><path d="m90 230h140v10h-140z" fill="#1f1d29"/><path d="m90 240h140v10h-140z" fill="#1f1d29"/><path d="m90 250h20v10h-20z" fill="#1f1d29"/><path d="m120 250h110v10h-110z" fill="#1f1d29"/><path d="m90 260h20v10h-20z" fill="#1f1d29"/><path d="m120 260h110v10h-110z" fill="#1f1d29"/><path d="m90 270h20v10h-20z" fill="#1f1d29"/><path d="m120 270h110v10h-110z" fill="#1f1d29"/><path d="m90 280h20v10h-20z" fill="#1f1d29"/><path d="m120 280h110v10h-110z" fill="#1f1d29"/><path d="m90 290h20v10h-20z" fill="#1f1d29"/><path d="m120 290h110v10h-110z" fill="#1f1d29"/><path d="m90 300h20v10h-20z" fill="#1f1d29"/><path d="m120 300h110v10h-110z" fill="#1f1d29"/><path d="m90 310h20v10h-20z" fill="#1f1d29"/><path d="m120 310h110v10h-110z" fill="#1f1d29"/><g fill="#ffef16"><path d="m90 210h20v10h-20z"/><path d="m130 210h10v10h-10z"/><path d="m180 210h10v10h-10z"/><path d="m220 210h10v10h-10z"/><path d="m90 220h20v10h-20z"/><path d="m140 220h40v10h-40z"/><path d="m220 220h10v10h-10z"/><path d="m90 230h30v10h-30z"/><path d="m210 230h20v10h-20z"/><path d="m90 240h30v10h-30z"/><path d="m210 240h20v10h-20z"/><path d="m90 250h20v10h-20z"/><path d="m130 250h10v10h-10z"/><path d="m150 250h10v10h-10z"/><path d="m190 250h10v10h-10z"/><path d="m210 250h20v10h-20z"/><path d="m90 260h20v10h-20z"/><path d="m140 260h10v10h-10z"/><path d="m160 260h20v10h-20z"/><path d="m190 260h10v10h-10z"/><path d="m210 260h20v10h-20z"/><path d="m90 270h20v10h-20z"/><path d="m140 270h10v10h-10z"/><path d="m160 270h20v10h-20z"/><path d="m210 270h20v10h-20z"/><path d="m90 280h20v10h-20z"/><path d="m190 280h10v10h-10z"/><path d="m210 280h20v10h-20z"/><path d="m90 290h20v10h-20z"/><path d="m210 290h20v10h-20z"/><path d="m90 300h20v10h-20z"/><path d="m210 300h20v10h-20z"/><path d="m90 310h20v10h-20z"/><path d="m210 310h20v10h-20z"/></g><path d="m120 30h80v10h-80z" fill="#ff7216"/><path d="m100 40h40v10h-40z" fill="#ff7216"/><path d="m140 40h10v10h-10z" fill="#f78a18"/><path d="m150 40h20v10h-20z" fill="#ff7216"/><path d="m170 40h10v10h-10z" fill="#f78a18"/><path d="m180 40h40v10h-40z" fill="#ff7216"/><path d="m80 50h50v10h-50z" fill="#ff7216"/><path d="m130 50h10v10h-10z" fill="#f78a18"/><path d="m140 50h10v10h-10z" fill="#ff7216"/><path d="m150 50h20v10h-20z" fill="#f78a18"/><path d="m170 50h10v10h-10z" fill="#ff7216"/><path d="m180 50h10v10h-10z" fill="#f78a18"/><path d="m190 50h50v10h-50z" fill="#ff7216"/><path d="m70 60h10v10h-10z" fill="#ff7216"/><path d="m80 60h10v10h-10z" fill="#f78a18"/><path d="m90 60h10v10h-10z" fill="#ff7216"/><path d="m100 60h120v10h-120z" fill="#f78a18"/><path d="m220 60h10v10h-10z" fill="#ff7216"/><path d="m230 60h10v10h-10z" fill="#f78a18"/><path d="m240 60h10v10h-10z" fill="#ff7216"/><path d="m60 70h10v10h-10z" fill="#ff7216"/><path d="m70 70h10v10h-10z" fill="#f78a18"/><path d="m80 70h10v10h-10z" fill="#ff7216"/><path d="m90 70h40v10h-40z" fill="#f78a18"/><path d="m130 70h10v10h-10z" fill="#ffc110"/><path d="m140 70h10v10h-10z" fill="#f78a18"/><path d="m150 70h20v10h-20z" fill="#ffc110"/><path d="m170 70h10v10h-10z" fill="#f78a18"/><path d="m180 70h10v10h-10z" fill="#ffc110"/><path d="m190 70h40v10h-40z" fill="#f78a18"/><path d="m230 70h10v10h-10z" fill="#ff7216"/><path d="m240 70h10v10h-10z" fill="#f78a18"/><path d="m250 70h10v10h-10z" fill="#ff7216"/><path d="m50 80h10v10h-10z" fill="#ff7216"/><path d="m60 80h10v10h-10z" fill="#f78a18"/><path d="m70 80h10v10h-10z" fill="#ff7216"/><path d="m80 80h30v10h-30z" fill="#f78a18"/><path d="m110 80h100v10h-100z" fill="#ffc110"/><path d="m210 80h30v10h-30z" fill="#f78a18"/><path d="m240 80h10v10h-10z" fill="#ff7216"/><path d="m250 80h10v10h-10z" fill="#f78a18"/><path d="m260 80h10v10h-10z" fill="#ff7216"/><path d="m50 90h20v10h-20z" fill="#ff7216"/><path d="m70 90h30v10h-30z" fill="#f78a18"/><path d="m100 90h30v10h-30z" fill="#ffc110"/><path d="m130 90h10v10h-10z" fill="#ffef16"/><path d="m140 90h10v10h-10z" fill="#ffc110"/><path d="m150 90h20v10h-20z" fill="#ffef16"/><path d="m170 90h10v10h-10z" fill="#ffc110"/><path d="m180 90h10v10h-10z" fill="#ffef16"/><path d="m190 90h30v10h-30z" fill="#ffc110"/><path d="m220 90h30v10h-30z" fill="#f78a18"/><path d="m250 90h20v10h-20z" fill="#ff7216"/><path d="m40 100h20v10h-20z" fill="#ff7216"/><path d="m60 100h30v10h-30z" fill="#f78a18"/><path d="m90 100h30v10h-30z" fill="#ffc110"/><path d="m120 100h80v10h-80z" fill="#ffef16"/><path d="m200 100h30v10h-30z" fill="#ffc110"/><path d="m230 100h30v10h-30z" fill="#f78a18"/><path d="m260 100h20v10h-20z" fill="#ff7216"/><path d="m40 110h20v10h-20z" fill="#ff7216"/><path d="m60 110h20v10h-20z" fill="#f78a18"/><path d="m80 110h30v10h-30z" fill="#ffc110"/><path d="m110 110h100v10h-100z" fill="#ffef16"/><path d="m210 110h30v10h-30z" fill="#ffc110"/><path d="m240 110h20v10h-20z" fill="#f78a18"/><path d="m260 110h20v10h-20z" fill="#ff7216"/><path d="m30 120h30v10h-30z" fill="#ff7216"/><path d="m60 120h20v10h-20z" fill="#f78a18"/><path d="m80 120h20v10h-20z" fill="#ffc110"/><path d="m100 120h120v10h-120z" fill="#ffef16"/><path d="m220 120h20v10h-20z" fill="#ffc110"/><path d="m240 120h20v10h-20z" fill="#f78a18"/><path d="m260 120h30v10h-30z" fill="#ff7216"/><path d="m30 130h20v10h-20z" fill="#ff7216"/><path d="m50 130h20v10h-20z" fill="#f78a18"/><path d="m70 130h20v10h-20z" fill="#ffc110"/><path d="m90 130h140v10h-140z" fill="#ffef16"/><path d="m230 130h20v10h-20z" fill="#ffc110"/><path d="m250 130h20v10h-20z" fill="#f78a18"/><path d="m270 130h20v10h-20z" fill="#ff7216"/><path d="m30 140h10v10h-10z" fill="#ff7216"/><path d="m40 140h10v10h-10z" fill="#f78a18"/><path d="m50 140h10v10h-10z" fill="#ff7216"/><path d="m60 140h20v10h-20z" fill="#f78a18"/><path d="m80 140h20v10h-20z" fill="#ffc110"/><path d="m100 140h130v10h-130z" fill="#ffef16"/><path d="m230 140h10v10h-10z" fill="#ffc110"/><path d="m240 140h20v10h-20z" fill="#f78a18"/><path d="m260 140h10v10h-10z" fill="#ff7216"/><path d="m270 140h10v10h-10z" fill="#f78a18"/><path d="m280 140h10v10h-10z" fill="#ff7216"/><path d="m30 150h20v10h-20z" fill="#ff7216"/><path d="m50 150h20v10h-20z" fill="#f78a18"/><path d="m70 150h20v10h-20z" fill="#ffc110"/><path d="m90 150h140v10h-140z" fill="#ffef16"/><path d="m230 150h20v10h-20z" fill="#ffc110"/><path d="m250 150h20v10h-20z" fill="#f78a18"/><path d="m270 150h20v10h-20z" fill="#ff7216"/><path d="m30 160h20v10h-20z" fill="#ff7216"/><path d="m50 160h20v10h-20z" fill="#f78a18"/><path d="m70 160h20v10h-20z" fill="#ffc110"/><path d="m90 160h140v10h-140z" fill="#ffef16"/><path d="m230 160h20v10h-20z" fill="#ffc110"/><path d="m250 160h20v10h-20z" fill="#f78a18"/><path d="m270 160h20v10h-20z" fill="#ff7216"/><path d="m30 170h10v10h-10z" fill="#ff7216"/><path d="m40 170h10v10h-10z" fill="#f78a18"/><path d="m50 170h10v10h-10z" fill="#ff7216"/><path d="m60 170h20v10h-20z" fill="#f78a18"/><path d="m80 170h20v10h-20z" fill="#ffc110"/><path d="m100 170h120v10h-120z" fill="#ffef16"/><path d="m220 170h20v10h-20z" fill="#ffc110"/><path d="m240 170h20v10h-20z" fill="#f78a18"/><path d="m260 170h10v10h-10z" fill="#ff7216"/><path d="m270 170h10v10h-10z" fill="#f78a18"/><path d="m280 170h10v10h-10z" fill="#ff7216"/><path d="m30 180h20v10h-20z" fill="#ff7216"/><path d="m50 180h20v10h-20z" fill="#f78a18"/><path d="m70 180h20v10h-20z" fill="#ffc110"/><path d="m90 180h60v10h-60z" fill="#ffef16"/><path d="m150 180h20v10h-20z" fill="#fff"/><path d="m170 180h10v10h-10z" fill="#ffc110"/><path d="m180 180h50v10h-50z" fill="#ffef16"/><path d="m230 180h20v10h-20z" fill="#ffc110"/><path d="m250 180h20v10h-20z" fill="#f78a18"/><path d="m270 180h20v10h-20z" fill="#ff7216"/><path d="m30 190h30v10h-30z" fill="#ff7216"/><path d="m60 190h20v10h-20z" fill="#f78a18"/><path d="m80 190h20v10h-20z" fill="#ffc110"/><path d="m100 190h120v10h-120z" fill="#ffef16"/><path d="m220 190h20v10h-20z" fill="#ffc110"/><path d="m240 190h20v10h-20z" fill="#f78a18"/><path d="m260 190h30v10h-30z" fill="#ff7216"/><path d="m40 200h30v10h-30z" fill="#ff7216"/><path d="m70 200h20v10h-20z" fill="#f78a18"/><path d="m90 200h20v10h-20z" fill="#ffc110"/><path d="m110 200h100v10h-100z" fill="#ffef16"/><path d="m210 200h20v10h-20z" fill="#ffc110"/><path d="m230 200h20v10h-20z" fill="#f78a18"/><path d="m250 200h30v10h-30z" fill="#ff7216"/><path d="m100 110h60v10h-60z" fill="#fe500c"/><path d="m170 110h60v10h-60z" fill="#fe500c"/><path d="m100 120h10v10h-10z" fill="#fe500c"/><path d="m110 120h20v10h-20z" fill="#fff"/><path d="m130 120h20v10h-20z"/><path d="m150 120h10v10h-10z" fill="#fe500c"/><path d="m170 120h10v10h-10z" fill="#fe500c"/><path d="m180 120h20v10h-20z" fill="#fff"/><path d="m200 120h20v10h-20z"/><path d="m220 120h10v10h-10z" fill="#fe500c"/><path d="m70 130h40v10h-40z" fill="#fe500c"/><path d="m110 130h20v10h-20z" fill="#fff"/><path d="m130 130h20v10h-20z"/><path d="m150 130h30v10h-30z" fill="#fe500c"/><path d="m180 130h20v10h-20z" fill="#fff"/><path d="m200 130h20v10h-20z"/><path d="m220 130h10v10h-10z" fill="#fe500c"/><path d="m70 140h10v10h-10z" fill="#fe500c"/><path d="m100 140h10v10h-10z" fill="#fe500c"/><path d="m110 140h20v10h-20z" fill="#fff"/><path d="m130 140h20v10h-20z"/><path d="m150 140h10v10h-10z" fill="#fe500c"/><path d="m170 140h10v10h-10z" fill="#fe500c"/><path d="m180 140h20v10h-20z" fill="#fff"/><path d="m200 140h20v10h-20z"/><path d="m220 140h10v10h-10z" fill="#fe500c"/><path d="m70 150h10v10h-10z" fill="#fe500c"/><path d="m100 150h10v10h-10z" fill="#fe500c"/><path d="m110 150h20v10h-20z" fill="#fff"/><path d="m130 150h20v10h-20z"/><path d="m150 150h10v10h-10z" fill="#fe500c"/><path d="m170 150h10v10h-10z" fill="#fe500c"/><path d="m180 150h20v10h-20z" fill="#fff"/><path d="m200 150h20v10h-20z"/><path d="m220 150h10v10h-10z" fill="#fe500c"/><path d="m100 160h60v10h-60z" fill="#fe500c"/><path d="m170 160h60v10h-60z" fill="#fe500c"/></svg>