<svg xmlns="http://www.w3.org/2000/svg" viewBox="0 -0.5 50 50" shape-rendering="crispEdges">
	<title>Bitcoin Pussies #009</title>
	<desc>Bitcoin Pussies are 69 uniquely drawn and inscribed cats on Bitcoin</desc>
	<desc xmlns:meow="https://bitcoinpussies.com/">
		<meow:traits>
			<meow:Skin>White</meow:Skin>
			<meow:Eyes>Open</meow:Eyes>
			<meow:Gear>None</meow:Gear>
			<meow:Message>Meeeeooowwwwww</meow:Message>
		</meow:traits>
	</desc>
	<path stroke="#f78285" d="M0 0h50M0 1h50M0 2h50M0 3h50M0 4h50M0 5h50M0 6h50M0 7h50M0 8h50M0 9h50M0 10h50M0 11h50M0 12h50M0 13h50M0 14h15M18 14h14M35 14h15M0 15h14M20 15h10M36 15h14M0 16h14M36 16h14M0 17h14M36 17h14M0 18h14M36 18h14M0 19h14M36 19h14M0 20h15M35 20h15M0 21h15M35 21h15M0 22h14M36 22h14M0 23h14M36 23h14M0 24h13M37 24h13M0 25h12M38 25h12M0 26h13M37 26h13M0 27h12M38 27h12M0 28h13M37 28h13M0 29h14M36 29h14M0 30h15M36 30h14M0 31h17M36 31h14M0 32h14M16 32h3M35 32h15M0 33h13M17 33h1M34 33h16M0 34h13M17 34h1M33 34h17M0 35h14M33 35h17M0 36h15M33 36h17M0 37h16M33 37h17M0 38h17M32 38h18M0 39h19M31 39h19M0 40h50M0 41h50M0 42h50M0 43h50M0 44h50M0 45h50M0 46h50M0 47h50M0 48h50M0 49h50" />
	<path stroke="#000000" d="M15 14h3M32 14h3M14 15h1M18 15h2M30 15h2M35 15h1M14 16h1M20 16h10M35 16h1M14 17h1M18 17h2M30 17h2M35 17h1M14 18h1M17 18h1M32 18h1M35 18h1M14 19h1M16 19h1M33 19h1M35 19h1M15 20h1M34 20h1M15 21h1M34 21h1M14 22h1M19 22h3M29 22h3M35 22h1M14 23h1M18 23h1M22 23h1M28 23h1M32 23h1M35 23h1M13 24h1M36 24h1M12 25h1M24 25h1M26 25h1M37 25h1M13 26h1M25 26h1M36 26h1M12 27h1M37 27h1M13 28h1M36 28h1M14 29h1M33 29h3M15 30h2M32 30h1M35 30h1M17 31h3M25 31h3M31 31h1M35 31h1M14 32h2M19 32h1M24 32h1M27 32h1M34 32h1M13 33h1M16 33h1M18 33h1M23 33h1M27 33h1M33 33h1M13 34h1M16 34h1M18 34h1M26 34h1M32 34h1M14 35h1M17 35h1M25 35h1M32 35h1M15 36h1M17 36h1M32 36h1M16 37h2M32 37h1M17 38h2M20 38h1M22 38h1M27 38h1M29 38h1M31 38h1M19 39h12" />
	<path stroke="#ffffff" d="M15 15h3M32 15h3M15 16h1M19 16h1M30 16h1M34 16h1M15 17h1M20 17h10M34 17h1M15 18h1M18 18h14M34 18h1M15 19h1M17 19h16M34 19h1M16 20h18M16 21h18M15 22h4M22 22h7M32 22h3M15 23h3M20 23h1M23 23h5M30 23h1M33 23h2M14 24h5M22 24h7M32 24h4M13 25h5M22 25h2M27 25h2M33 25h4M14 26h4M20 26h5M26 26h5M33 26h3M13 27h24M14 28h22M15 29h18M17 30h15M33 30h2M20 31h5M28 31h3M32 31h3M20 32h4M25 32h2M28 32h6M14 33h2M19 33h4M24 33h3M28 33h5M14 34h2M19 34h7M27 34h5M15 35h2M18 35h7M26 35h6M16 36h1M18 36h14M18 37h14M19 38h1M21 38h1M23 38h4M28 38h1M30 38h1" />
	<path stroke="#ffd4c6" d="M16 16h3M31 16h3M16 17h2M32 17h2M16 18h1M33 18h1" />
	<path stroke="#45bff5" d="M19 23h1M21 23h1M19 24h3" />
	<path stroke="#ffec52" d="M29 23h1M31 23h1M29 24h3" />
	<path stroke="#ffe0d3" d="M18 25h1M32 25h1M18 26h2M31 26h2" />
	<path stroke="#6dd1ff" d="M19 25h3" />
	<path stroke="#ffb790" d="M25 25h1" />
	<path stroke="#fff07e" d="M29 25h3" />
</svg>