<svg xmlns="http://www.w3.org/2000/svg" viewBox="0 0 50 50"><defs><style>.cls-2{fill:#231815}.cls-3,.cls-4,.cls-6,.cls-7{fill:none;stroke:#231815;stroke-linecap:round}.cls-3,.cls-7{stroke-miterlimit:10}.cls-3,.cls-6{stroke-width:.43px}.cls-4{stroke-width:.23px}.cls-4,.cls-6{stroke-linejoin:round}.cls-7{stroke-width:.71px}</style></defs><path style="fill:#fff" d="M0 0h50v50H0z" id="_背景"/><g id="_ライン_太_"><circle class="cls-2" cx="28.55" cy="17.45" r=".4"/><path class="cls-7" d="M29.8 16.7c0 .08.33 1.23.46 1.72.03.11-.02.22-.11.29l-.35.24M29.15 19.35s-.21 1.31-1.16 2.04c-.62.47-1.48.43-2.08-.06l-1.45-1.18M23.05 32.85l1.8 6.1M25.65 39.35s3.3.9 6-2.3M31.01 38.68l.3.5M26.75 40.25s1.1 3.5 3.2 4.1M35.05 34.96l-3.42 3.3M36.12 38.18c-1.96 2.69-4.45 5.88-5.4 6.17M28.65 44.65l.2 4.9M19.85 20.85l-.8 1.3M20.65 20.95s3.37.55 4.9 2.42M19.75 22.55s1.84.39 3.45.88M11.87 48.91c-.03.21-.06.42-.08.64M18.75 22.75s-1.09 2.29-2.47 6.51M25.15 21.65v.36M21.35 20.05l-.1.3M23.96 15.61c-1.18-.43-1.08 1.84-.36 2.24"/><path class="cls-7" d="M27.65 19.35s.1.3.4.45M42.05 22.98l.51-.37M42.32 24.47l.54.04M42.08 26.02l.35.41M30.26 14.52s0 .4-.23 1.39M30.65 13.85c-.13-.53-.61-.72-1.12-.62-.61.12-1.05.56-1.48.98-.27.26-.56.49-.89.68-.68.39-1.53.62-2.31.66M31.75 12.95c.31.43.48.99.44 1.52-.04.52-.35.97-.64 1.39-.28.41-.71.84-.61 1.38M31.45 12.25c-.07-1.18-.92-2.14-2.03-2.51-.84-.28-1.74-.18-2.59-.38-.55-.13-1.05-.45-1.48-.81M24.57 8.95c-1.09-.05-2.11.5-2.83 1.3-.77.86-1.01 1.84-1.18 2.94-.09.62-.25 1.24-.71 1.68M20.18 15.56s.7 2.24-.03 3.09M22.85 18.25s-.99.9-2.35 1.1M15.05 29.65l3.4.1M18.05 22.55s-2.4 3.1-3.3 6.4M27.15 24.95c.32-.57.53-.95.85-1.52.52-.92 1.49-2.78 2.85-2.38M31.55 21.35s.9.81.5 2.21M31.21 24.25s1.64-.3 3.54 1.6M34.75 24.85s1-1.8 2.65-1.2M38.05 23.95c.63.63.43 1.55.23 2.32-.41 1.58-.98 3.1-1.58 4.62-.4 1.03-.82 2.04-1.26 3.05-.03.07-.06.14-.09.2M37.25 31.55c.36.9.64 1.85.83 2.8.14.69.24 1.39.18 2.09-.05.6-.31 1.52-1 1.68a.525.525 0 0 1-.49-.16c-.35-.35-.49-.95-.32-1.42M36.12 34.27c-.07.43-.15.86-.26 1.28-.06.21-.12.43-.2.63-.1.28-.37.76.09.87M24.45 39.65s-1.8 3.8-2.3 4.5M25.65 40.25s-2.6 5.81-3.7 7.4M12.85 30.05s-3.1.8-3.6 7.9M13.65 29.95s5.1.3 4.2 11.2M17.74 41.9l-.09 6.35M15.35 49.25s4.07-.2 5.7-1.1M7.85 40.05s-.9 3.6 0 6.1M14.95 42.95s-.7 2.66 0 5.58M8.32 46.86s2.99 1.7 6.06 2.18M9.85 38.55l7.1 2.2M8.65 40.15l6.3 2M15.62 41.9l1.03-.45M8.02 39.3l1.03-.45M19.05 30.27c.8.68 1.31 1.75 1.55 2.61.4 1.5.77 3.12.85 4.66.18 3.31 0 7.1-.23 9.9M25.95 25.05c-.65-.21-1.56.37-1.98.8-.77.8-1.29 1.81-1.64 2.85-.43 1.31-.75 2.69-.98 4.05"/><path class="cls-7" d="M25.75 24.25c-1.1-.5-2.14-.29-2.77.14-1.89 1.31-2.38 3.59-3.01 5.66M26.57 25.5c1.26 1.96 4.1 6.64 5.48 10.85"/></g><g id="_ライン_細_"><path class="cls-3" d="M25.4 38.4s3.59.77 5.8-2.2M8.3 41.9l5.85 1.85M14 30.7c-.45-.13-.92.07-1.29.32-.92.65-1.51 1.64-1.87 2.69-.26.77-.41 1.56-.55 2.36-.12.67-.19 1.25-.19 1.93M18.75 40.05l1.93-.4M33.53 29.95s.17.25.27.75M27.87 27.9s.27-.12.78-.14M32.5 27.6s.3.1.6.5"/><path d="M30.75 26.94s-.32-.17-.84-.12" style="stroke-width:.46px;stroke-miterlimit:10;fill:none;stroke:#231815;stroke-linecap:round"/><circle class="cls-2" cx="32.4" cy="28.4" r=".1"/><circle class="cls-2" cx="32" cy="29" r=".1"/><circle class="cls-2" cx="33.2" cy="31.3" r=".1"/><circle class="cls-2" cx="32.7" cy="29.5" r=".1"/><circle class="cls-2" cx="29.7" cy="28.2" r=".1"/><circle class="cls-2" cx="33" cy="29" r=".1"/><circle class="cls-2" cx="33.6" cy="29.3" r=".1"/><circle class="cls-2" cx="19.8" cy="40.5" r=".1"/><circle class="cls-2" cx="19.9" cy="40.8" r=".1"/><circle class="cls-2" cx="19.9" cy="41.1" r=".1"/><circle class="cls-2" cx="19.8" cy="41.4" r=".1"/><circle class="cls-2" cx="19.4" cy="41.5" r=".1"/><circle class="cls-2" cx="19.05" cy="43.03" r=".06"/><circle class="cls-2" cx="18.95" cy="43.53" r=".06"/><circle class="cls-2" cx="18.75" cy="43.23" r=".06"/><circle class="cls-2" cx="19.15" cy="43.73" r=".06"/><circle class="cls-2" cx="19.25" cy="43.33" r=".06"/><circle class="cls-2" cx="19.95" cy="43.43" r=".06"/><circle class="cls-2" cx="20.05" cy="43.03" r=".06"/><circle class="cls-2" cx="20.35" cy="42.93" r=".06"/><circle class="cls-2" cx="20.45" cy="43.33" r=".06"/><circle class="cls-2" cx="20.25" cy="43.63" r=".06"/><circle class="cls-2" cx="19.3" cy="41.2" r=".1"/><circle class="cls-2" cx="19.3" cy="40.9" r=".1"/><circle class="cls-2" cx="19.4" cy="40.6" r=".1"/><circle class="cls-2" cx="19.5" cy="40.3" r=".1"/><circle class="cls-2" cx="33.7" cy="32.2" r=".1"/><circle class="cls-2" cx="32.8" cy="32.3" r=".1"/><circle class="cls-2" cx="33.1" cy="33" r=".1"/><circle class="cls-2" cx="32" cy="33" r=".1"/><circle class="cls-2" cx="32.2" cy="31.9" r=".1"/><circle class="cls-2" cx="31.3" cy="32.5" r=".1"/><circle class="cls-2" cx="29.4" cy="27.5" r=".1"/><circle class="cls-2" cx="30.2" cy="27.6" r=".1"/><path class="cls-3" d="M31.03 27.6c-.19.25-.34.83.08.95.37.1.57-.37.66-.65"/><path class="cls-2" d="M32.57 26.4s.05-.06.08-.08c.33-.25.77-.13 1.12.01.24.09.46.22.68.34.15.08.29.17.43.27.21.15.41.3.57.5s.31.5.22.75c-.1.27-.41.32-.62.15-.24-.19-.46-.39-.71-.56-.27-.18-.56-.35-.84-.5-.21-.12-.44-.22-.64-.35-.12-.08-.29-.17-.32-.33-.01-.07 0-.14.05-.2ZM31.66 26.11V26c-.09-.41-.51-.59-.86-.72-.24-.08-.49-.13-.74-.18-.16-.03-.33-.06-.5-.07-.25-.02-.51-.03-.76.02s-.56.18-.65.43c-.1.27.11.51.38.52.3 0 .6 0 .91.03.33.04.65.1.97.16.24.05.48.12.72.15.15.02.33.06.46-.04.05-.05.09-.11.09-.18Z"/><path class="cls-3" d="M28.4 28.5s3.07.75 4.28 1.7c.07.06.08.16.02.23-.3.36-1.24 1.38-2.48 1.51L28.4 28.5Z"/><path class="cls-2" d="M28.8 29.2s2.2.6 3.6 1.5c0 0-1 1-2.18 1.24L28.8 29.2Z"/><path class="cls-3" d="m32.1 29.95-.3.55M31.4 29.65l-.3.55M30.7 29.35l-.3.55M30 29.05l-.3.55M29.3 28.75l-.3.55"/><path class="cls-4" d="m19.48 42.88-.19-.24-.55.04-.4.67.46.68.65-.05.16-.43M19.71 42.86l.14-.26.55-.05.5.6-.35.75-.65.05-.22-.4M19.8 42.6v-.25s.49-.14.67-.58c0 0-.4-.34-.92.28M19.31 42.61l-.03-.25s-.49 0-.73-.39c0 0 .35-.44.93.02"/></g><g id="_窓"><path class="cls-6" d="M37.4 4.5H45M37.8 5.3h6.9M37.8 19.1h6.9M45.5 19.6v-15M36.9 19.6v-15M37.4 19.9H45M37.7 18.5V5.8M38.2 8.15h2.6V5.8M44.7 18.5V5.8M41.6 5.8v2.35h2.6M44.2 11.8h-2.6V8.95h2.6M38.2 11.8h2.6V8.95h-2.6M44.2 15.45h-2.6V12.6h2.6M38.2 15.45h2.6V12.6h-2.6M41.6 18.5v-2.25h2.6M38.2 16.25h2.6v2.25M5 4.5h7.6M5.4 5.3h6.9M5.4 19.1h6.9M13.1 19.6v-15M4.5 19.6v-15M5 19.9h7.6M5.3 18.5V5.8M5.8 8.15h2.6V5.8M12.3 18.5V5.8M9.2 5.8v2.35h2.6M11.8 11.8H9.2V8.95h2.6M5.8 11.8h2.6V8.95H5.8M11.8 15.45H9.2V12.6h2.6M5.8 15.45h2.6V12.6H5.8M9.2 18.5v-2.25h2.6M5.8 16.25h2.6v2.25"/></g></svg>