<svg version="1.1" id="レイヤー_2_00000015325710824440777740000010430150517019766202_" xmlns="http://www.w3.org/2000/svg" x="0" y="0" viewBox="0 0 500 500" style="enable-background:new 0 0 500 500" xml:space="preserve"><style>.st1{fill:none;stroke:#000;stroke-width:1.3;stroke-linecap:round;stroke-linejoin:round;stroke-miterlimit:10}.st3{fill:#e2f95d}</style><path style="fill:#fff" d="M0 0h500v500H0z"/><path class="st1" d="M142.9 195.7c-5.1-6.4-3.5-18.4-.6-27.9 5.8-19.3 17.2-36.8 31.9-50.5 5.6-5.2 11.8-10 19-12.5s15.6-2.5 22.2 1.5c7.5 4.6 11.3 13.7 12 22.4s-1.4 17.5-3.2 26.1c-.8 3.8-1.2 8.4 1.7 11 2.6 2.2 6.5 1.6 9.9.9 4-.9 8.1-2 12.1-1.5 4.1.5 8.2 3.1 9.2 7 1 3.7-.8 7.5-3 10.6s-4.7 6.1-5.6 9.8c-.9 3.7.7 8.4 4.4 9.2 2.8.6 5.7-1.1 8.6-1.3 3.3-.1 6.5 2.2 7.4 5.3s-.4 6.8-3.2 8.6"/><path class="st1" d="M244.9 186.5c-1.5 3.6-2.9 7.5-2.6 11.4s3 7.9 6.9 8.5c2.2.4 4.4-.4 6.6-.5s4.8.4 5.7 2.4c1 2-.2 4.4-1.3 6.3M158.9 178.4c-1.4 3.5-2.6 7.6-.5 10.7 2.2 3.2 6.8 3.2 10.7 2.9s8.4-.4 10.8 2.7c3.4 4.4-.8 11.3 1.7 16.3 1.4 3 4.9 4.5 8.2 4.5s6.5-1.2 9.5-2.3 6.3-2.3 9.6-2.2M160.6 174h0M162.3 170.6h0"/><path d="M143.4 195.2c-15.9 17.6-30.3 36.6-42.9 56.7-1.9 3.1-3.9 6.2-4.6 9.8-.7 3.6 0 7.6 2.7 10 2.4 2.2 6.2 2.8 8.2 5.4 4.5 5.6-2.2 15.4 2.7 20.7 4 4.3 12.9 2.1 15.4 7.4 1.3 2.9-1.3 7.1.3 9.8 1.3 2.1 5.2 2.4 7.1 4 4.7 4 1.1 9.7-.9 15.5-2.8 8-7.5 20.2-2.8 27.3 4.8 7.3 18.6 9.6 27.3 10.6 24.4 2.7 49.2 3.6 73.6 6.2 14.2 1.6 28.5 3.1 42.7 4.7 2.3.3 4.8.5 7-.4 3.4-1.5 6.6-5.3 7.1-9s.2-7.5 1.3-11.1c2.1-7.2 8.1-13.7 5.8-20.8-1.9-5.7-9.6-11-10.8-16.9-.9-4.7 2.7-6.5 3.3-11.3 1.2-10.3-11.6-19.2-8.4-29 1.7-5.3 7.6-8.5 9.1-13.9 1.2-4.6-1.1-9.2-3.5-13.3-7.4-12.9-16-25.1-25.4-36.6-3.8.4-9.2 2.5-17.1 5.1-2.7.9-10.5 3.9-10.8 1-.2-2.6 4.3-10.2-3.1-12-14.2-3.5-35.2 8.3-46.3 7.4-4.3-.4-7.4-5-7.8-7.9-.4-3-.3-8.6-1.6-11.3-4.4-8.7-19.3-2.8-27.6-8.1z"/><path class="st1" d="M98.3 271.4c-1.8 3.9-3.3 11.5-5.3 18.2s-1.8 9.4-13.5 17.5c-.9.7-3.3 2.7-2.6 3.7s1.7-.4 3-.7M108.4 281.3c-3.9 5.3-6 10.1-8.4 14.4-5 8.8-2.8 11 .2 16.8.6 1.1 2.4 6.9.5 5.7-1.6-1-3.1-3.5-4.7-4.5M82.7 313.3c-.7 1.8-1.3 3.7-2 5.5M86.8 315c-1 1.7-1.2 3.3-2 4.8M91 315.4c-.2 1.6-.8 2.4-1.3 4.1M185.9 375c2.4 13.1 4 21.7 6.4 34.7M231.9 378.9c-.4 13.7-.5 18.7-.8 32.5 0-.9.1-1.8.1-2.7M199.1 376c.6 12.7 1 20.3 1.6 33.1M218.3 377.5c1.5 11.7 2.5 19.8 3.9 31.6M159.2 405.1c-5.5 1.8-10.1 5.8-12.8 10.9-.8 1.5-1.4 3.2-1.4 4.9s.8 3.5 2.3 4.3M165.6 411.7c-4.7 1-11.3 4-10.9 9.8.4 5.8 16 7.9 19.7 8.1 26 1.6 49 3.4 74.4-2.7 2.9-.7 13.7-4.3 8.5-9.2M226.5 450.8c20.9 2.2 42.2 0 62.2-6.5 5.3-1.7 19.2-6.5 22.2-14.2 3.8-9.6-6.6-15.1-12.6-17.4M286.5 268.9c.9 2.6 2.1 5.3 3.4 8 1.3 2.8 3 5.5 5.7 6.9 1.9 1 3.5 1.7 5.5 2.2s4.7 2.4 4.2 3.1c-.2.7-3.4.5-6 .2M281.5 278.1c6.2 5.9 8 10.4 7.2 21.9-.1 1-.1 2.4.9 2.7 1 .4 2-4.2 2.2-5.2M300 293.6c1.1 1.4 2.2 2.9 3.3 4.3M298.1 296.9c1.4 2.1 2.8 4.2 4.2 6.4"/><path d="M294.4 296.9c1.5 2 2.3 3 3.4 5.3" style="fill:#e2f95d;stroke:#000;stroke-width:1.3;stroke-linecap:round;stroke-linejoin:round;stroke-miterlimit:10"/><path class="st3" d="M391.4 181.8c-6.4-4.3-9.4-12.1-12.1-19.4-2.7-7.6-6.8-14.8-8-21.7-1.1-6.1-.4-12.3.4-18.4.3-2.3.6-4.6 1.5-6.6 1-2.1 2.8-3.8 5.1-4.1-1.8.1-3.6.6-5.1 1.6 1.7-3 4.3-5.4 7.4-6.9-5 1.7-10.4 4-12.6 8.8-2.3 4.9-.5 10.7-.3 16.2.3 8.3-3.3 16.4-3.2 24.8.1 6.7 2.7 13.2 7.2 18.2.2 7.5.3 15.1.5 22.6 0 .4.1.8.4 1 .6.3 1.1-.7 1.1-1.4v-20.3c4.4 3.9 10 6.5 15.9 7.1-.9-.8-1.8-1.5-2.7-2.3 1.2 1 3 1.3 4.5.8zM372.8 199.6c-.9 0-1.6 1-.4 1.7.2.1 1.3 0 1.5-.6.2-.5-.5-1.3-1.1-1.1zM372.2 203.2c-.7.9-.3 1.4.8 1.3.2.1.9-.2.7-.8-.2-.7-1.1-1-1.5-.5z"/><circle class="st3" cx="373.1" cy="206.4" r=".5"/><circle class="st3" cx="241.8" cy="334.8" r="2.2"/><circle class="st3" cx="227.1" cy="340" r=".4"/><circle class="st3" cx="236.3" cy="355.1" r=".6"/><ellipse class="st3" cx="261.4" cy="341.8" rx="1.3" ry="1.2"/><ellipse class="st3" cx="215.5" cy="362.8" rx=".8" ry=".9"/><circle class="st3" cx="210.7" cy="335.9" r=".3"/><circle class="st3" cx="232" cy="314.7" r="1.3"/></svg>