<svg width="600" height="600" xmlns="http://www.w3.org/2000/svg"><path fill="#929292" fill-rule="evenodd" d="M0 600h600V0H0Z"/><path fill="#fff" fill-rule="evenodd" d="M44 600h556l6-475-73-22 13 9-3 17-291-68-73-47-13-18h-25l4 45-7 49-63 144-26 93-5 273Z"/><defs><pattern id="pattern1" x="0" y="0" width="8" height="8" patternUnits="userSpaceOnUse" patternTransform="rotate(45)"><circle cx="3" cy="3" r="3" fill="#D5D5D5"/></pattern><pattern id="pattern2" x="0" y="0" width="100" height="55" patternUnits="userSpaceOnUse" patternTransform="rotate(0)"><path id="path259" fill="#02253d" fill-rule="evenodd" stroke="none" d="M0 51h95V0H0Z"/><path id="path260" fill="#004d81" fill-rule="evenodd" stroke="none" d="m5 44 1 4h81l1-4 4-1V8l-4-2-1-4H6L5 6 2 8v33l3 3Z"/><path id="path261" fill="#02253d" fill-rule="evenodd" stroke="none" d="M64 24c0-9-8-18-18-18s-19 9-19 18c0 10 9 20 19 20s18-10 18-20Z"/><path id="path262" fill="#004d81" fill-rule="evenodd" stroke="none" d="M56 19c-2-4-5-9-9-9V8h-4v2c-4 2-7 5-7 9 0 3 3 5 8 8 5 2 5 3 5 5s0 2-3 2-4-1-4-4l-8 2c2 4 5 7 9 8v3h4v-3c6-1 9-4 9-10 0-4-3-6-9-8-4-2-4-3-4-5l1-2c3 0 5 1 5 5Z"/></pattern></defs><path fill="url(#pattern1)" fill-rule="evenodd" d="M44 600h556l6-475-73-22 13 9-3 17-291-68-73-47-13-18h-25l4 45-7 49-63 144-26 93-5 273Z"/><g><animateTransform attributeName="transform" type="translate" from="0,0" to="0,-50" dur="2.0s" begin="tear2.end;0s;" fill="freeze" id="tear"/><animateTransform attributeName="transform" type="translate" from="0,-50" to="0,0" dur="2.0s" begin="tear.end;" fill="freeze" id="tear2"/><path class="base" d="m447 435-2 35-5 42-3 27 3 29 13 7 4-4 12-30-1-13-8-19-3-20 6-29v-81l-15 6-1 50Z"/><path fill="#fff" fill-rule="evenodd" d="m447 443-1 32-5 37-2 25 2 27 12 7 3-4 11-27-1-12-7-18-3-20 5-28 1-18v-52l-14 5-1 46Z"/></g><g id="lip"><path class="base" d="m449 598 62-27 38-53 42-15h34l32-17 42-4 20 15 3 17 10 5 20 26-3 31-31 32-52 14-73 7-76 1-35-7-33-25Z"/><path fill="#7E1A1B" fill-rule="evenodd" d="m466 601 57-24 36-49 38-14h31l29-16 39-4 19 14 2 16 10 5 18 23-3 29-29 29-48 13-66 7-70 1-32-7-31-23Z"/><path class="base" d="m568 555 24 21 10 6 26 5 22-11 16-32 2 30 24-2 9-15 4 13 11-15-11 33-17 2-20 2 16 10 4 18-10-11-19-16-17 12-14 2-20-8-14 1-50 6-59-3 54-6 28-12-15-12 35 10-19-28Z"/></g><path id="newkage" class="base" d="M313 773-81 664l53-764 41 3L46 39l3 79 6-29V-4l13-4 10 42 5 72-47 215 6 24 1-15 4-10 6-11 46-188 2-45-6-81 6 9 4 58v49l14 7 2-27 1-34-1-50-14-50 16 44 6 44 1 43v18L57 316l-4 22v17l1 27 21 23-22-11 52 137ZM134 108l7-65-1-38-4-21 11-8 35 33 49 36 37 21-27-19-51-43-32-28 50 8 34 37 30 26 46 5-27-26-26-27 4 1 26 27 27 25 1-8-31-37-38-43 53 34 20 29 30 28 9-11-21-35 42 41 33 6-23-36-20-40 4-4 18 39 29 43 24 25 87 38v5L256 72l-81-54 12 16 9 9 9 12 8 21-11-20-9-9-10-8-28-37-9-15-3-3 3 17 3 40-12 68Zm419 11Zm0 0-17-10-14-8-26-18-26-26-38-45-26-51 34 52 31 37 36 32 26 16 32 15-10 2Zm49-3-35-23-22-15-36-23-33-29-26-27 4-8 19 22 37 34 41 27 54 41Zm22 8-32-23-40-30-41-27-35-34-20-31 20 28 33 33 43 27 38 30Zm51-38-84-39-19-11-32-40 20-7 30 34 42 36Z"/><path class="base" d="m245 485-51-10-48-18-37-23-27-35-20-54-16-36-29-20-14-63 6-31 36-23 35-54 41-22 45-18 64-21 74-14 76 4 62 18 73 35 17 16 41-12 30-5 29 2-3 88-30-6-23 4-28 12-2 93-6 38-12 40-18 30-21 30-42 27-98 23-49 5Z"/><path id="grass" fill="#7E1A1B" fill-rule="evenodd" stroke="none" d="m249 462-50-9-48-17-37-22-26-32c-2-1-21-51-21-51l-16-34-28-19-15-52 6-28 36-22 34-51 41-25 44-17 63-20 74-13 75 4 62 17 67 33 18 21 40-14 34-6 10 52-35 6-36 15-2 103-6 36-11 39-15 26-19 26-39 28-97 22-48 5Z"/><path class="base" d="M316 430h-44l-40-8-39-14-30-19-21-27-38-98-6-42 1-2-1-4 8-33 33-42 33-21 36-14 51-17 59-11 61 3 50 15 54 27 15 18 10 44v6l-2 87-4 30-9 33-13 21-15 22-31 24-79 18-39 4Z"/><path class="base" d="m272 423-40-8-39-14-30-18-21-27-38-98-4-36 7-33 34-42 32-21 36-14 52-17 59-11 61 3 49 15 55 27 14 18 11 44-4 80-4 30-9 33-13 21-15 23-31 23-79 19-39 4Z"/><mask id="mask1" maskUnits="userSpaceOnUse" maskContentUnits="userSpaceOnUse" mask-type="alpha"><path class="base" d="m272 423-40-8-39-14-30-18-21-27-38-98-4-36 7-33 34-42 32-21 36-14 52-17 59-11 61 3 49 15 55 27 14 18 11 44-4 80-4 30-9 33-13 21-15 23-31 23-79 19-39 4Z"/></mask><g mask="url(#mask1)"><g id="johngroup"><g id="ninja"><g><animateTransform attributeName="transform" type="scale" from="1,1" to="1,0.8" dur="0.05s" begin="nidoum5.end;" fill="freeze"/><animateTransform attributeName="transform" type="scale" from="2,2" to="2,2" dur="0.05s" begin="nidoum9.end;" fill="freeze"/><animateTransform attributeName="transform" type="scale" from="1,0.8" to="1,0.8" dur="0.05s" begin="nidoum11.end;" fill="freeze"/><animateTransform attributeName="transform" type="scale" from="1,0.8" to="1,1" dur="0.05s" begin="nidoum12.end;" fill="freeze"/><g><animateTransform attributeName="transform" type="translate" from="0,0" to="-10,80" dur="0.05s" begin="nidoum5.end;" fill="freeze" id="nidoum8"/><animateTransform attributeName="transform" type="translate" from="-10,80" to="10,80" dur="0.05s" begin="nidoum8.end;" fill="freeze" id="nidoum9"/><animateTransform attributeName="transform" type="translate" from="-150,-100" to="-120,-100" dur="0.05s" begin="nidoum9.end;" fill="freeze" id="nidoum10"/><animateTransform attributeName="transform" type="translate" from="-120,-100" to="-150,-100" dur="0.05s" begin="nidoum10.end;" fill="freeze" id="nidoum11"/><animateTransform attributeName="transform" type="translate" from="10,80" to="-5,80" dur="0.05s" begin="nidoum11.end;" fill="freeze" id="nidoum12"/><animateTransform attributeName="transform" type="translate" from="-5,80" to="0,0" dur="0.05s" begin="nidoum12.end;" fill="freeze" id="nidoum13"/><animateTransform attributeName="transform" type="translate" from="0,0" to="0,0" dur="1s" begin="nidoum13.end;" fill="freeze" id="nidoum14"/><g><animate attributeName="opacity" to="0" begin="nidoum14.end;" dur="0.5s" fill="freeze" id="nidoum15"/><animate attributeName="opacity" to="1" begin="nilast.end;" dur="0.1s" fill="freeze"/><path id="yaiba" fill="#274050" fill-rule="evenodd" stroke="none" d="m249 226 2-13v-38h-57l-1-43h238v251h-90v-45h46V175h-86v44l-9 25 40 17v51l-55-23-32 94h-49l38-113-27-11v-50l42 17Z"/></g></g></g><g id="g50"><animateTransform attributeName="transform" type="translate" from="0,0" to="-50,0" dur="0.05s" begin="nifirst2.end;" fill="freeze" id="nidoum"/><animateTransform attributeName="transform" type="translate" from="-50,0" to="50,0" dur="0.05s" begin="nidoum.end;" fill="freeze" id="nidoum2"/><animateTransform attributeName="transform" type="translate" from="50,0" to="-100,0" dur="0.05s" begin="nidoum2.end;" fill="freeze" id="nidoum3"/><animateTransform attributeName="transform" type="translate" from="-100,0" to="100,0" dur="0.05s" begin="nidoum3.end;" fill="freeze" id="nidoum4"/><animateTransform attributeName="transform" type="translate" from="100,0" to="-150,0" dur="0.05s" begin="nidoum4.end;" fill="freeze" id="nidoum5"/><animateTransform attributeName="transform" type="translate" from="-150,0" to="150,0" dur="0.05s" begin="nidoum5.end;" fill="freeze" id="nidoum6"/><animateTransform attributeName="transform" type="translate" from="150,0" to="-5000,0" dur="0.05s" begin="nidoum6.end;" fill="freeze" id="nidoum7"/><animateTransform attributeName="transform" type="translate" from="0,0" to="0,0" dur="0s" begin="nilast.end;" fill="freeze"/><g id="g51"><animateTransform attributeName="transform" type="translate" from="0,0" to="0,-7" dur="1s" begin="nihandm2.end;0s;" fill="freeze"/><animateTransform attributeName="transform" type="translate" from="0,-7" to="0,0" dur="1s" begin="nihandm.end;" fill="freeze"/><g id="katana"><path id="path352" fill="#395a6f" fill-rule="evenodd" stroke="none" d="m379 256 46-86 8-5 10 4v10l-46 87-9-4-9-6Z"/><path id="path353" fill="#001828" fill-rule="evenodd" stroke="none" d="m397 266-9-4-9-6 46-86 4 5 10 4h4l-46 87Zm-3-16 8-1-5-6-8 1 5 6Zm5-10 8-1-5-6-8 1 5 6Zm5-10 8-1-5-6-8 1 5 6Zm5-9 8-1-5-6-8 1 5 6Zm5-9 8-1-5-6-8 1 5 6Zm5-9 8-1-5-6-8 1 5 6Zm5-9 8-1-5-6-8 1 5 6Zm4-8 8-1-5-6-8 1 5 6Z"/><path id="path354" fill="#395a6f" fill-rule="evenodd" stroke="none" d="m370 260-6-4 4-8h8l30 15 5 6-5 8-13-5-23-12Z"/><path id="path355" fill="#19435c" fill-rule="evenodd" stroke="none" d="m370 264-6-4 4-8h8l30 15 5 6-5 8-13-5-23-12Z"/><path id="path356" fill="#395a6f" fill-rule="evenodd" stroke="none" d="m331 344 46-86 4 1 10 4 4 4-46 87-9-4-9-6Z"/></g><path id="path352" fill="#001828" fill-rule="evenodd" stroke="none" d="m233 458-13-38-30 7-25-4-19-16-9-36 4-16 25-22 57-63 25-11 20 1 55-20v218Z"/><path id="path353" fill="#0f3046" fill-rule="evenodd" stroke="none" d="M322 471V252l64 16 33 5 14 9 9 11 85 62 5 42-9 25-59 10h-42l-11 39Z"/><path id="path354" fill="#001828" fill-rule="evenodd" stroke="none" d="m374 433-39-5-23-18 1-11 127 14 57-15 20 14-49 26Zm-9-25-15-22 47-14 23-15-23-39 30 29 8-24 6 34 24 8 24-10-22 12 21 5h-30l-28 10-43 9-12 1Zm-43-37 5-145 51 40-8 45Z"/><path id="path355" fill="#162d3c" fill-rule="evenodd" stroke="none" d="m365 269-11 37-27 49-42-44-5-43 85 1Z"/><path id="path356" fill="#091e2c" fill-rule="evenodd" stroke="none" d="m327 355-42-44-5-43h41Z"/></g><g id="g52"><path id="path357" fill="#395a6f" fill-rule="evenodd" stroke="none" d="m249 223 29 58 41 11 41-21 14-57Z"/><path id="path358" fill="#1e3442" fill-rule="evenodd" stroke="none" d="m315 209-66 14 25 58 41 19Zm7 31 5 4 10 3-4-3 13-1 12 1-8-5 2-9 4-6-33 10-1 6Z"/><path id="path359" fill="#11212c" fill-rule="evenodd" stroke="none" d="m315 242 2 26-12-8 3-11-6 5-18 4 11-5 5-6-4 2-14-2-8 1 4-4-8-14 40 5 2 6 3-2 2 2 3-2-2 4-3-1Z"/><g id="g53"><path id="path360" fill="#5b7f96" fill-rule="evenodd" stroke="none" d="m328 237 4 3 12-1 3-7v-4l-19 5v4Z"/><path id="path361" fill="#1e3442" fill-rule="evenodd" stroke="none" d="M342 234c-1-2-3-4-5-4s-4 3-4 5 2 4 5 4c2 0 4-2 4-5Z"/><path id="path362" fill="#5b7f96" fill-rule="evenodd" stroke="none" d="m337 235 3-2v2h-3Z"/></g><g id="g54"><path id="path363" fill="#182e3c" fill-rule="evenodd" stroke="none" d="m301 239-4 3-11 1-5-6v-5l19 3 1 4Z"/><path id="path364" fill="#0e191f" fill-rule="evenodd" stroke="none" d="M288 238c-1-2 1-4 3-5 3 0 5 2 5 5 0 2-2 4-4 4s-4-1-4-4Z"/></g><path id="path365" fill="#001828" fill-rule="evenodd" stroke="none" d="m312 309-42-28-20-49-4-1-4-10 3-17-1-10 3-7h3v-1l16-26-9-4 49-19 63 40 7 5 4 7 1 9 4 9-3 8-15 55-38 37Zm-21-29-9-9 24-18 10-4 13 2 25 14 5-40-28 12-31 2-32-5 12 35Z"/><path id="path366" fill="#0f3046" fill-rule="evenodd" stroke="none" d="m320 304-1-15 6-10-7-8-2-22 13 2 24 15-5 9 8-10 5-41 21-9-17 56-36 33Zm-9-68-4-54h4l13-1 45-2 7 3v5l4 2 1 5-9 6 11 2 2 5-3 5-20 9-31 13Zm60-57-2-2-58 3-2-18 5-8-12-1 4-16 39 8 26 32Z"/><path id="path367" fill="#152733" fill-rule="evenodd" stroke="none" d="m266 199 1 28h34l30-2 31-7-3-27-31-1-28 3-34 6Z"/><path id="path368" fill="#395a6f" fill-rule="evenodd" stroke="none" d="m312 223 18-1 32-6-3-23-31-1-19 2Z"/><path id="path369" fill="#142733" fill-rule="evenodd" stroke="none" d="m341 201-5 5 5 5 5-5Z"/><path id="path370" fill="#395a6f" fill-rule="evenodd" stroke="none" d="m341 201 2 5-2 5 5-5Z"/><path id="path371" fill="#11212c" fill-rule="evenodd" stroke="none" d="m284 206-5 5 5 5 5-5Z"/><path id="path372" fill="#1d3543" fill-rule="evenodd" stroke="none" d="M284 206v10l5-5Z"/><path id="path373" fill="#11212c" fill-rule="evenodd" stroke="none" d="m307 221 1-4h-6l1-3h3l1-12h-3v-2h5l1-4 2 1v3h1v-3h3l-1 4h1s5 0 5 4c0 3-2 4-2 4s3 1 3 5l-3 4h-5l-1 4h-2v-4h-1v4Zm3-6h4s2 0 3-2c0-2-3-3-3-3h-3Zm1-8h4l1-2-1-1v-1h-4Z"/></g><g id="g55"><animateTransform attributeName="transform" type="translate" from="0,0" to="0,-7" dur="1s" begin="nihandm2.end;0s;" fill="freeze" id="nihandm"/><animateTransform attributeName="transform" type="translate" from="0,-7" to="0,0" dur="1s" begin="nihandm.end;" fill="freeze" id="nihandm2"/><path id="path374" fill="#1e3442" fill-rule="evenodd" stroke="none" d="m316 311 4-8 5 1 3 13 21 7 5 4-1 9-8 3h-12l-18-6Z"/><path id="path375" fill="#162d3c" fill-rule="evenodd" stroke="none" d="M286 354h-73l-33 5-25 23-1 20 35 14 22 3 86-30-11-35Z"/><path id="path376" fill="#214055" fill-rule="evenodd" stroke="none" d="m376 422 86 9 33-1 29-19 3-20-32-18-22-6-99 21 2 34Z"/><path id="path377" fill="#162d3c" fill-rule="evenodd" stroke="none" d="m372 424 90 7 33-1 17-11-11-5-15-6-46 2-68 4Z"/><path id="path378" fill="#0c2537" fill-rule="evenodd" stroke="none" d="m261 387-50 8-40 1-16-14-1 20 35 14 22 3 86-30-3-10-33 8Z"/><path id="path379" fill="#395a6f" fill-rule="evenodd" stroke="none" d="m376 420-27-1-26-15-9-8-14-3-2-7-14 4-10-23 2-15h15l6-2 8-37 12-25-1-27 3-3 6 3 1 23-5 26 20-4 5 7v4l3 7-1 8 1 8-2 8-10 2 1 8 11 3 12 31h6l8 14Z"/><path id="path380" fill="#1e3442" fill-rule="evenodd" stroke="none" d="m376 426-27-2-9-2-8-9-19-16-13-4-3-4-14 4-5-9-5-19 6-12 12-1 6-2 5-37 12-32 2-20 3 3v18l-5 25-6 11 1 11 6 11-4 15 3 5 3-2 8-5 9-11h5l7-1-4 2 5 5-11 2v12l-21 8-3 3v3l17-5 7-5-7 7-19 9 2 8 3 2 19-12 4-4-4 7-17 11 2 7 9-4 1-7v7l7 6h-5l-2 3 14 8 18 2 15-1Zm-74-33 2-1 4-6v-3l-6 2-2 4Zm29-59-7-2h6l18-2v2Zm-19-7 2-4 11-1 14-4 7-5v4l-5 2-16 4-10 1Z"/><path id="path381" fill="#0e191f" fill-rule="evenodd" stroke="none" d="m298 390-1-1 1-1 1-6 3-2 4-1v-10l2-3 20-6 5-12 3 2v1l-2 3v5l-5 2-20 8v11l-8 3Z"/><path id="path382" fill="#14232b" fill-rule="evenodd" stroke="none" d="m202 387-19-9 7-18 23-8 54-1 22-1 7-19 4-7 9 10 1 13-4 19h-2l-36 11-66 10Z"/><path id="path383" fill="#1f3743" fill-rule="evenodd" stroke="none" d="m354 398-7-9 1-13 4-9 5 7 11 13 106-12 3 9-9 14-72 9-37-2Z"/><path id="path384" fill="#1b3b4f" fill-rule="evenodd" stroke="none" d="m203 383-15-6 5-21 18-7h54l24 1 7-19 4-7 5 10 2 13-4 19h-2l-33 6-65 11Z"/><path id="path385" fill="#395a6f" fill-rule="evenodd" stroke="none" d="m355 397-5-9 1-12 2-9 4 7 12 13 25-7 34-9 25-5 23 6-3 16-7 7-64 9-41-2-6-5Z"/><path id="path386" fill="#162d3c" fill-rule="evenodd" stroke="none" d="M370 384h-3l-7 43 3 3 3-1 5-42-1-3Z"/><path id="path387" fill="#091e2c" fill-rule="evenodd" stroke="none" d="m304 382-7-18-11-15 1-3h3l12 16 7 18-5 2Z"/></g><g><animate attributeName="opacity" from="1" to="0" begin="nifirst.end;" dur="0.5s" fill="freeze"/><animate attributeName="opacity" from="0" to="1" begin="nidoum15.end;" dur="0.1s" fill="freeze" id="nilast"/><path id="path388" fill="#000" fill-rule="evenodd" stroke="none" d="M85 434h448V69H85Z"/></g><filter id="filter3" x="0" y="0" width="600" height="600" filterUnits="userSpaceOnUse" primitiveUnits="userSpaceOnUse" color-interpolation-filters="sRGB"><feGaussianBlur stdDeviation="9.4"/><feOffset result="offsetblur"/><feFlood flood-color="#00a1fe" flood-opacity="1"/><feComposite in2="offsetblur" operator="in"/><feMerge><feMergeNode/><feMergeNode in="SourceGraphic"/></feMerge></filter><g><animate attributeName="opacity" from="0" to="1" begin="0s;nilast.end;" dur="1.5s" fill="freeze" id="nifirst"/><animate attributeName="opacity" to="0" begin="nifirst.end;" dur="4s" fill="freeze" id="nifirst2"/><path id="path389" fill="#00a1fe" fill-opacity=".7" fill-rule="evenodd" stroke="none" filter="url(#filter3)" d="m301 239-4 3-11 1-5-6v-1l20 2v1Zm27-2 4 3 12-1 3-7v-2l-16 6-3 1Z"/></g></g></g></g><g id="flash"><animateTransform attributeName="transform" type="translate" from="0,0" to="0,0" dur="0.1s" begin="first2.end;0s;" fill="freeze" id="movestart"/><animateTransform attributeName="transform" type="translate" from="0,0" to="-1800,0" dur="0.5s" begin="movestart.end;" fill="freeze" id="first"/><animateTransform attributeName="transform" type="translate" from="-1800,0" to="-1800,0" dur="3.0s" begin="first.end" fill="freeze" id="first2"/><path fill="#fff" fill-rule="evenodd" d="M545 600h610L1426 0H816Z"/></g><path fill="#fff" fill-rule="evenodd" d="m135 208 110-93 62-18-141 104-31 7Zm53-9L325 95l46-13 14 4-147 101Z"/></g><path class="base" d="m258 476-43-9-59-21-40-25 9-4-2-7-6-8-10-13-17-23-16-37-11-28-9-16-23-13-8-15-4-33 33-7 2-22 5-13 6-10-1 26-4 32 6 28 16 50 16 41 13 24 25 33 25 17 55 16 49 7 63 1 86-19 46-19 29-30 15-24 4-2 2 4-14 26-31 33-49 18-78 19-3 4 7 8Z"/><path id="path61" fill="#000" fill-rule="evenodd" stroke="none" d="m525 169 33-17 31-10 19-1-1 8-17 1-30 10-30 15-6-1 1-5Z"/><path id="path62" fill="#000" fill-rule="evenodd" stroke="none" d="m519 313 6-31 1-97 3-4 4 4-1 97-5 33-5 3-3-5Z"/><path id="path63" fill="#000" fill-rule="evenodd" stroke="none" d="m159 111 46-19 47-13 62-11 66 2 46 13 36 14 29 18 15 13-1 5h-5l-13-12-28-16-35-15-46-12-62-3-62 11-47 14-44 19-6-1 2-7Z"/><path class="base" d="m526 393 19-13 19-25 1-33-20 44-19 27Zm67 64-16 6h-10l-7-5-3-14 4-13 19-12 17-4h16l7 18-11 3-9 7-7 14Zm-77-35-1 41 11 26 29 4 21-7-24-3-23-6-9-24-4-31Zm-47 187c0-29-24-59-75-83l-6-3 11-4c16-5 43-7 43-7s-41-2-62 1l-12 2-7-3c-59-21-142-4-256-5-115-2-212 9-212 70S56 697 172 697c117 0 297-27 297-88Z"/><path fill="#fff" fill-rule="evenodd" d="M466 608c0-27-25-57-76-81l-6-3s2-3 8-5c16-5 36-6 36-6s-29 0-50 2l-13 2-7-2c-58-20-139-3-252-5-115-1-213 9-213 68S55 694 171 694s295-27 295-86Z"/><g id="titleText"><animateTransform attributeName="transform" type="translate" from="0,0" to="0,-5" dur="0.1s" begin="title2.end;0s;" fill="freeze" id="title"/><animateTransform attributeName="transform" type="translate" from="0,-5" to="0,0" dur="0.1s" begin="title.end;" fill="freeze" id="title2"/><path id="CRYPTO-NINJA" fill="#000" fill-rule="evenodd" stroke="none" d="M392 575h7v8h-7Zm-26 0h7v8h-7Zm-27 0h8v8h-8Zm-21-36h11l6 44h-8l-1-13h-4l-2 13h-7Zm6 15-1 9h2Zm-23-15h7v44h-22v-22h8v14h7Zm-41 0h7l7 22v-22h8v44h-8l-7-22v22h-7Zm-23 0h15v7h-4v29h4v8h-15v-8h4v-29h-4Zm-30 0h7l8 22v-22h7v44h-7l-8-22v22h-7Zm-38 0h18v44h-22v-33Zm5 7-2 4v25h8v-29Zm-35-7h21v7h-7v37h-7v-37h-7Zm-27 0h22v25h-15v19h-7Zm7 7v11h8v-11Zm-33-7h7l4 11 3-11h7l-7 22v22h-7v-22Zm-27 0h22v25h-4l4 19h-7l-4-19h-3v19h-8Zm8 7v11h7v-11Zm-34-7h22v11h-8v-4h-7v29h7v-3h8v11H33Z"/></g></svg>