<svg height="320" shape-rendering="crispEdges" viewBox="0 0 320 320" width="320" xmlns="http://www.w3.org/2000/svg"><rect fill="#e1d7d5" height="100%" width="100%"/><g fill="#e9265c"><path d="m90 210h140v10h-140z"/><path d="m90 220h140v10h-140z"/><path d="m90 230h140v10h-140z"/><path d="m90 240h140v10h-140z"/><path d="m90 250h20v10h-20z"/><path d="m120 250h110v10h-110z"/><path d="m90 260h20v10h-20z"/><path d="m120 260h110v10h-110z"/><path d="m90 270h20v10h-20z"/><path d="m120 270h110v10h-110z"/><path d="m90 280h20v10h-20z"/><path d="m120 280h110v10h-110z"/><path d="m90 290h20v10h-20z"/><path d="m120 290h110v10h-110z"/><path d="m90 300h20v10h-20z"/><path d="m120 300h110v10h-110z"/><path d="m90 310h20v10h-20z"/><path d="m120 310h110v10h-110z"/></g><path d="m130 240h70v10h-70z"/><path d="m130 250h30v10h-30z"/><path d="m170 250h50v10h-50z"/><path d="m130 260h30v10h-30z"/><path d="m170 260h30v10h-30z"/><path d="m210 260h10v10h-10z"/><path d="m60 50h30v10h-30z" fill="#7d635e"/><path d="m190 50h30v10h-30z" fill="#7d635e"/><path d="m60 60h10v10h-10z" fill="#7d635e"/><path d="m70 60h20v10h-20z" fill="#f38b7c"/><path d="m90 60h10v10h-10z" fill="#7d635e"/><path d="m180 60h10v10h-10z" fill="#7d635e"/><path d="m190 60h20v10h-20z" fill="#f38b7c"/><path d="m210 60h10v10h-10z" fill="#7d635e"/><path d="m60 70h10v10h-10z" fill="#7d635e"/><path d="m70 70h30v10h-30z" fill="#f38b7c"/><path d="m100 70h10v10h-10z" fill="#7d635e"/><path d="m170 70h10v10h-10z" fill="#7d635e"/><path d="m180 70h30v10h-30z" fill="#f38b7c"/><path d="m210 70h10v10h-10z" fill="#7d635e"/><path d="m70 80h10v10h-10z" fill="#7d635e"/><path d="m80 80h30v10h-30z" fill="#f38b7c"/><path d="m110 80h10v10h-10z" fill="#7d635e"/><path d="m160 80h10v10h-10z" fill="#7d635e"/><path d="m170 80h30v10h-30z" fill="#f38b7c"/><path d="m200 80h10v10h-10z" fill="#7d635e"/><path d="m80 90h10v10h-10z" fill="#7d635e"/><path d="m90 90h20v10h-20z" fill="#f38b7c"/><path d="m110 90h20v10h-20z" fill="#7d635e"/><path d="m150 90h20v10h-20z" fill="#7d635e"/><path d="m170 90h20v10h-20z" fill="#f38b7c"/><path d="m190 90h10v10h-10z" fill="#7d635e"/><path d="m90 100h100v10h-100z" fill="#7d635e"/><path d="m90 110h80v10h-80z" fill="#7d635e"/><path d="m90 120h80v10h-80z" fill="#7d635e"/><path d="m90 130h80v10h-80z" fill="#7d635e"/><path d="m90 140h80v10h-80z" fill="#7d635e"/><path d="m90 150h60v10h-60z" fill="#7d635e"/><path d="m150 150h80v10h-80z" fill="#d4b7b2"/><path d="m230 150h30v10h-30z"/><path d="m90 160h60v10h-60z" fill="#7d635e"/><path d="m150 160h80v10h-80z" fill="#d4b7b2"/><path d="m230 160h30v10h-30z"/><path d="m90 170h60v10h-60z" fill="#7d635e"/><path d="m150 170h110v10h-110z" fill="#d4b7b2"/><path d="m90 180h60v10h-60z" fill="#7d635e"/><path d="m150 180h20v10h-20z"/><path d="m170 180h90v10h-90z" fill="#d4b7b2"/><path d="m90 190h60v10h-60z" fill="#7d635e"/><path d="m150 190h110v10h-110z" fill="#d4b7b2"/><path d="m90 200h60v10h-60z" fill="#7d635e"/><path d="m150 200h110v10h-110z" fill="#d4b7b2"/><path d="m100 110h60v10h-60z" fill="#00a556"/><path d="m170 110h60v10h-60z" fill="#00a556"/><path d="m100 120h10v10h-10z" fill="#00a556"/><path d="m110 120h20v10h-20z" fill="#fff"/><path d="m130 120h20v10h-20z"/><path d="m150 120h10v10h-10z" fill="#00a556"/><path d="m170 120h10v10h-10z" fill="#00a556"/><path d="m180 120h20v10h-20z" fill="#fff"/><path d="m200 120h20v10h-20z"/><path d="m220 120h10v10h-10z" fill="#00a556"/><path d="m70 130h40v10h-40z" fill="#00a556"/><path d="m110 130h20v10h-20z" fill="#fff"/><path d="m130 130h20v10h-20z"/><path d="m150 130h30v10h-30z" fill="#00a556"/><path d="m180 130h20v10h-20z" fill="#fff"/><path d="m200 130h20v10h-20z"/><path d="m220 130h10v10h-10z" fill="#00a556"/><path d="m70 140h10v10h-10z" fill="#00a556"/><path d="m100 140h10v10h-10z" fill="#00a556"/><path d="m110 140h20v10h-20z" fill="#fff"/><path d="m130 140h20v10h-20z"/><path d="m150 140h10v10h-10z" fill="#00a556"/><path d="m170 140h10v10h-10z" fill="#00a556"/><path d="m180 140h20v10h-20z" fill="#fff"/><path d="m200 140h20v10h-20z"/><path d="m220 140h10v10h-10z" fill="#00a556"/><path d="m70 150h10v10h-10z" fill="#00a556"/><path d="m100 150h10v10h-10z" fill="#00a556"/><path d="m110 150h20v10h-20z" fill="#fff"/><path d="m130 150h20v10h-20z"/><path d="m150 150h10v10h-10z" fill="#00a556"/><path d="m170 150h10v10h-10z" fill="#00a556"/><path d="m180 150h20v10h-20z" fill="#fff"/><path d="m200 150h20v10h-20z"/><path d="m220 150h10v10h-10z" fill="#00a556"/><path d="m100 160h60v10h-60z" fill="#00a556"/><path d="m170 160h60v10h-60z" fill="#00a556"/></svg>