<?xml version="1.0" encoding="utf-8"?>
<!-- Generator: Adobe Illustrator 27.7.0, SVG Export Plug-In . SVG Version: 6.00 Build 0)  -->
<svg version="1.1" xmlns="http://www.w3.org/2000/svg" xmlns:xlink="http://www.w3.org/1999/xlink" x="0px" y="0px"
	 viewBox="0 0 1080 1080" style="enable-background:new 0 0 1080 1080;" xml:space="preserve">
<style type="text/css">
	.st0{fill:#FFFFFF;}
	.st1{fill:url(#SVGID_1_);stroke:#A3AED8;stroke-width:13;stroke-miterlimit:10;}
	.st2{fill:#F95AE3;}
	.st3{fill:#F9AD00;}
	.st4{fill:#F9F92D;}
	.st5{fill:#35F0E3;}
	.st6{fill:#EDD544;}
	.st7{fill:#FF9289;}
	.st8{fill:#A3AED8;}
</style>
<g id="BG_00000049199473064088084310000008836133144443458486_">
	<rect class="st0" width="1080" height="1080"/>
</g>
<g id="face">
	<linearGradient id="SVGID_1_" gradientUnits="userSpaceOnUse" x1="539" y1="862.4534" x2="539" y2="213.6201">
		<stop  offset="0" style="stop-color:#79B130"/>
		<stop  offset="1" style="stop-color:#008500"/>
	</linearGradient>
	<rect x="214.58" y="213.62" class="st1" width="648.83" height="648.83"/>
</g>
<g id="BG">
	
		<rect x="619.13" y="697.23" transform="matrix(-1 -4.495083e-11 4.495083e-11 -1 1278.0009 1434.2028)" width="39.74" height="39.74"/>
	
		<rect x="421.32" y="697.23" transform="matrix(-1 -4.495083e-11 4.495083e-11 -1 882.3818 1434.2028)" width="39.74" height="39.74"/>
	
		<rect x="263.26" y="339.45" transform="matrix(-1 -4.495083e-11 4.495083e-11 -1 566.2546 718.6453)" class="st2" width="39.74" height="39.74"/>
	
		<rect x="303" y="220.23" transform="matrix(-1 -4.495083e-11 4.495083e-11 -1 645.7308 480.191)" class="st0" width="39.74" height="39.74"/>
	
		<rect x="382.03" y="816.43" transform="matrix(-1 -4.495083e-11 4.495083e-11 -1 803.7944 1672.5901)" class="st0" width="39.74" height="39.74"/>
	
		<rect x="382.03" y="339.45" transform="matrix(-1 -4.495083e-11 4.495083e-11 -1 803.7944 718.6453)" class="st3" width="39.74" height="39.74"/>
	
		<rect x="382.03" y="458.7" transform="matrix(-1 -4.495083e-11 4.495083e-11 -1 803.7944 957.1327)" class="st4" width="39.74" height="39.74"/>
	
		<rect x="263.26" y="458.7" transform="matrix(-1 -4.495083e-11 4.495083e-11 -1 566.2546 957.1327)" class="st5" width="39.74" height="39.74"/>
	<rect x="461.06" y="736.81" width="158.42" height="39.74"/>
	
		<rect x="303" y="379.22" transform="matrix(-1 -4.491619e-11 4.491619e-11 -1 685.4688 837.9184)" class="st0" width="79.48" height="79.48"/>
	<polygon class="st0" points="777.39,220.23 777.39,299.7 777.39,299.7 777.39,299.72 697.84,299.72 697.84,220.28 619.48,220.23 
		540,220.23 540,299.7 618.36,299.7 618.36,299.72 618.36,299.75 618.36,379.19 460.52,379.22 460.52,458.7 540,458.71 
		619.23,458.71 619.23,696.75 698.26,697.08 698.26,776.46 619.48,776.46 619.23,776.46 540,776.46 540,855.94 856.87,855.94 
		856.87,220.23 	"/>
	
		<rect x="646.57" y="564.72" transform="matrix(-1.836970e-16 1 -1 -1.836970e-16 1315.2589 -81.848)" class="st6" width="103.96" height="103.96"/>
	
		<rect x="673.54" y="602.07" transform="matrix(-1.836970e-16 1 -1 -1.836970e-16 1325.3254 -71.4693)" class="st7" width="49.71" height="49.71"/>
	
		<rect x="704.63" y="598.08" transform="matrix(-1.836970e-16 1 -1 -1.836970e-16 1339.9575 -106.5466)" class="st0" width="37.25" height="37.25"/>
	
		<rect x="658.4" y="499.51" transform="matrix(-1.836970e-16 1 -1 -1.836970e-16 1276.8037 -119.7219)" class="st8" width="79.72" height="158.06"/>
	
		<rect x="303" y="538.68" transform="matrix(-1.836970e-16 1 -1 -1.836970e-16 999.7419 235.6856)" class="st0" width="158.06" height="158.06"/>
	
		<rect x="330.34" y="564.72" transform="matrix(-1.836970e-16 1 -1 -1.836970e-16 999.0243 234.3866)" class="st6" width="103.96" height="103.96"/>
	
		<rect x="357.31" y="602.07" transform="matrix(-1.836970e-16 1 -1 -1.836970e-16 1009.0908 244.7654)" class="st7" width="49.71" height="49.71"/>
	
		<rect x="388.39" y="598.08" transform="matrix(-1.836970e-16 1 -1 -1.836970e-16 1023.7228 209.6881)" class="st0" width="37.25" height="37.25"/>
	
		<rect x="342.17" y="499.51" transform="matrix(-1.836970e-16 1 -1 -1.836970e-16 960.569 196.5127)" class="st8" width="79.72" height="158.06"/>
	
		<rect x="698.26" y="339.45" transform="matrix(-1 -4.495083e-11 4.495083e-11 -1 1436.2637 718.6453)" class="st3" width="39.74" height="39.74"/>
	
		<rect x="738" y="299.84" transform="matrix(-1 -4.495083e-11 4.495083e-11 -1 1515.7399 639.4142)" class="st3" width="39.74" height="39.74"/>
</g>
</svg>
