<svg xmlns="http://www.w3.org/2000/svg" width="512" height="512" fill="none"><path fill="#F90" d="M0 0h512v512H0z"/><path fill="#0097D8" d="M84 340h344v160H84z"/><path fill="#2C71A3" d="m388 407 40-32v12l-40 20ZM124 407l-40-32v12l40 20ZM124 430l-40 36v-16l40-20ZM388 430l40 36v-16l-40-20Z"/><g><animateTransform attributeName="transform" dur="0.4s" keyTimes="0;0.5;1" repeatCount="indefinite" type="translate" values="0 0;0 28;0 0"/><path fill="#00B2FF" d="M196 176h120v296H196z"/><path fill="#2C71A3" d="m227 400-31 31v-16l31-15ZM222 336l-26 8v-16l26 8ZM276 347l40 36v-16l-40-20ZM276 324l40-32v12l-40 20Z"/><path fill="#0097D8" d="M196 96h120v80H196z"/><path fill="#00B2FF" d="M250 96h12v36h-12z"><animate attributeName="fill" begin="5s" dur="0.4s" repeatCount="5" values="#00B2FF; #fff; #00B2FF"/></path><circle cx="256" cy="96" r="32" fill="#121212"/><path fill="#121212" d="M196 96h120v56l-21-32-39 20-39-20-21 32V96Z"/><path fill="#121212" d="M204 179h47v48h-47v-48Z"/><path stroke="#121212" stroke-width="6" d="M204 179h47m-47 0v48h47v-48m-47 0h-8m55 0h65"/><path stroke="#121212" stroke-width="6" d="M230.711 343H280"/><path fill="#77492D" d="m343 359-65-16 77 47.5 13-26 7-14-22.5-10.5-6.75 13.5L343 359Z"/><path stroke="#121212" stroke-width="6" d="m368 364.5 7-14-22.5-10.5-6.75 13.5m22.25 11-13 26-77-47.5 65 16 2.75-5.5m22.25 11-22.25-11"/><path stroke="#fff" stroke-width="6" d="M370.001 319c-10.5-15.5-23.5-54.5 8.5-86.5s17.333-49.333 5.999-54c-5.999-3.5-24.4-9.6 0-34"><animate attributeName="stroke" dur="4s" keyTimes="0;0.8;1" repeatCount="indefinite" values="white;transparent;white"/></path></g></svg>