<svg xmlns="http://www.w3.org/2000/svg" viewBox="0 0 50 50"><defs><style>.cls-2{fill:#231815}.cls-4{stroke-width:.43px}.cls-4,.cls-5,.cls-6,.cls-8{stroke:#231815;stroke-linecap:round;stroke-miterlimit:10;fill:none}.cls-5{stroke-width:.43px}.cls-6,.cls-8{stroke-width:.71px}</style></defs><path id="_背景" d="M0 0h50v50H0z" style="fill:#fff"/><g id="_ライン_太_"><circle cx="28.55" cy="17.45" r=".4" class="cls-2"/><path d="M29.8 16.7c0 .08.33 1.23.46 1.72.03.11-.02.22-.11.29l-.35.24M28.65 44.65l.2 4.9M13.35 40.28c-.26 1.24-.5 2.49-.73 3.75-.27 1.55-.52 3.11-.73 4.67-.04.29-.08.57-.11.86M23.96 15.61c-1.18-.43-1.08 1.84-.36 2.24M27.65 19.35s.1.3.4.45M44.48 21.9l.24-.59M45.49 23.02l.48-.25M46.1 24.46l.51.18M22.95 18.35s-.4.8-1.2.9M23.08 32.79l1.8 6.1M27.04 40.9c.45 1.06 1.43 2.94 2.92 3.37M9.12 33.92s-3.5 10.2-3.3 12.4M6.02 47.02s.9 1.7 5 2.6M9.41 33.23l4.6 1.2M17.81 23.13s-.63.65-1.61 2.35" class="cls-8"/><path d="m9.69 34.23 4.17 1.05" class="cls-4"/><path d="M25 39.73c.84.61 1.99.66 2.87.12.64-.39 1.06-.99 1.58-1.52.62-.64 1.39-1.1 2.25-1.35M12.85 23.15s1.2-.4 2.1 1.5 1.1 3 1.1 3M12.15 23.35c-.85.24-1.09 1.21-1.12 1.99-.04 1.23.39 2.39.68 3.57.31 1.28.61 2.56.91 3.84l.14.58M8.6 23.06s.96-.44 1.96.84M7.93 23.33c-.82.33-.95 1.32-.9 2.1.09 1.22.65 2.33 1.06 3.47.45 1.24.91 2.32 1.36 3.55M29.45 14.15s.06 1.3.48 1.75M28.65 14.35s-.4 1.1-1.6 1.7M27.05 14.68s-.6 1.07-2.4 1.57M32.25 14.55s0 1.8-1.46 2.5M20.31 16.21c.07.3.24.95.34 1.14M21.05 18.85h0M38.45 24.35h0M39.35 24.15h0M40.25 23.85h0M20.75 18.15h0M25.99 24.54s4.3 6.3 6.1 11.8M37.22 32.9l-5.53 5.31M38.82 34.4s-6.36 9.4-8.03 9.9" class="cls-8"/><path d="m25.19 21.62-.3 1.5M21.39 20.02l-.5 1.9" class="cls-6"/><path d="M29.15 19.35s-.21 1.31-1.16 2.04c-.62.47-1.48.43-2.08-.06l-1.45-1.18" style="stroke-width:.71px;fill:none;stroke:#231815;stroke-linecap:round;stroke-miterlimit:10"/></g><g id="_ライン_細_"><path d="m31.37 39.1-.3-.5-.22-.35" class="cls-8"/><path d="M25.6 39c.7.3 1.22.19 1.77-.14.64-.39 1.06-.99 1.58-1.52.62-.64 1.39-1.1 2.25-1.35M13.47 25.11s-1.02.81-1.02 2.16M13.82 25.46s.23 1.1-.99 2.1M14.47 27.81s-1.02.81-1.02 2.16M14.82 28.16s.23 1.1-.99 2.1M9.56 25.15s-.91.92-.75 2.27M9.95 25.45s.36 1.06-.73 2.21M10.68 27.92s-.91.92-.75 2.27M11.12 28.77c-.02.42-.19 1.02-.78 1.65M11.57 30.87c-.26.36-.66 1.09-.55 2.02M11.96 32.41c-.12.23-.28.47-.52.71M15.17 30.81s-1.02.81-1.02 2.16" class="cls-4"/><path d="M23.95 15.61c-1.18-.43-1.08 1.84-.36 2.24" class="cls-6"/><path d="M31.13 11.55c-.1-.2-.18-.41-.28-.6-1.39-2.63-4.93-2.98-7.41-1.87-1.87.84-3.44 2.53-3.57 4.64-.02.27-.02.57 0 .85.01.26 0 .6.16.82.18.25.45.05.66-.04.77-.35 1.57-.66 2.37-.95 1.74-.65 3.51-1.21 5.32-1.61.42-.09.85-.18 1.27-.25.3-.05.61-.13.92-.08.32.06.57.27.82.46.3.23.58.47.86.73.35.31.91.08 1.28-.05.41-.14.82-.32 1.17-.58.2-.15.42-.43.33-.7-.1-.32-.61-.33-.88-.32-.41.02-.81.11-1.21.16-.38.05-.88.16-1.25.04a.788.788 0 0 1-.39-.31c-.07-.1-.13-.21-.18-.33Z" style="stroke-width:.71px;stroke:#231815;stroke-linecap:round;stroke-miterlimit:10;fill:#231815"/><path d="M25.37 24.95s-3.5.9-2.33 7.15" class="cls-4"/><path d="M37.52 32.22s-.17-.77.64-2.05c.21-.34.21-.78.09-1.17-.17-.61-.37-1.5-.13-1.77M39.25 33.75l2.82-2.38c.19-.15.35-.34.46-.55.34-.66.45-2.33.53-3.17M39.35 28.95l-1.24-4.18M41.05 28.45l-1.24-4.28M41.85 27.45l-1-3.5M41.45 23.55s1.2.6 1.6 3.2M39.85 29.35l1.14-.32a.75.75 0 0 0 .42-.3l.95-1.57M39.05 24.45s-.1.73.4 1.42.3 1.62.3 1.62-.04.66.58 1.16" class="cls-8"/></g><g id="_くも"><path d="M49.7 7.8c-.36-.3-.84-.49-1.31-.45s-.84.34-1.1.72c-.09.13-.25.2-.4.14-.3-.13-.79-.27-1.18-.01-.53.35-.59.95-.44 1.5.04.15-.09.3-.25.27-.67-.13-1.47.4-1.17 1.14.03.08-.05.15-.13.11-.2-.11-.49-.19-.71-.15-.22.04-.42.17-.54.35-.14.19-.16.44-.16.67M42 12.5c-.62-.42-1.56-.37-2.1.3-.21.26-.3.64-.26.97.01.11-.08.2-.19.19-.23-.03-.46-.01-.67.09-.36.19-.43.6-.4.97 0 .04-.03.07-.06.07-.32-.04-1.53-.19-1.53 1.31M36.8 17s1.11 1.67 2.71.37c.11-.09.26-.08.37.01.47.42 1.71 1.42 4.31.13a.32.32 0 0 1 .36.05c.32.29 1.12.81 2.25.08.12-.08.27-.07.39 0 .34.21 1.11.56 2.51.16M.35 14.3s1.18.85 2.98.08c.1-.04.22-.04.33.01.36.18 1.51.54 2.54-.09M7.3 14.3s.7.9 1.81.2c.13-.08.29-.11.42-.01.35.26 1.08.62 1.84-.14.08-.08.21-.11.31-.05.49.26 1.96.84 3.43-.3M.3 4.9s.72-.81 1.48-.12c.07.06.17.06.24 0 .26-.24.92-.68 1.67-.03.1.09.24.11.36.07.73-.26 3.18-.9 3.8 2.07.03.15.18.26.33.22.39-.08 1.09-.09 1.29.8.02.1.12.16.22.15.41-.05 1.37-.03 1.22 1.23M11.1 9.8s1.91-.33 2.09 1.37c.02.21.22.36.43.33.34-.04.78 0 .93.45.05.15.17.26.32.31.42.12.93.54.63 1.34" class="cls-5"/><circle cx="6.75" cy="14.25" r=".25" class="cls-2"/><path d="M25.27 24.24c-.65-.43-1.48-.65-2.22-.87-1.19-.35-2.41-.59-3.6-.92M18.77 22.74s-4.8 10.1-6.97 26.8" class="cls-8"/></g></svg>