<svg height="320" shape-rendering="crispEdges" viewBox="0 0 320 320" width="320" xmlns="http://www.w3.org/2000/svg"><rect fill="#d5d7e1" height="100%" width="100%"/><g fill="#068940"><path d="m90 210h140v10h-140z"/><path d="m90 220h140v10h-140z"/><path d="m90 230h140v10h-140z"/><path d="m90 240h140v10h-140z"/><path d="m90 250h20v10h-20z"/><path d="m120 250h110v10h-110z"/><path d="m90 260h20v10h-20z"/><path d="m120 260h110v10h-110z"/><path d="m90 270h20v10h-20z"/><path d="m120 270h110v10h-110z"/><path d="m90 280h20v10h-20z"/><path d="m120 280h110v10h-110z"/><path d="m90 290h20v10h-20z"/><path d="m120 290h110v10h-110z"/><path d="m90 300h20v10h-20z"/><path d="m120 300h110v10h-110z"/><path d="m90 310h20v10h-20z"/><path d="m120 310h110v10h-110z"/></g><path d="m180 240h10v10h-10z"/><path d="m140 250h20v10h-20z"/><path d="m170 250h20v10h-20z"/><path d="m170 260h20v10h-20z"/><path d="m160 270h30v10h-30z"/><path d="m170 280h20v10h-20z"/><path d="m140 290h50v10h-50z"/><path d="m150 20h40v10h-40z" fill="#903707"/><path d="m150 30h60v10h-60z" fill="#903707"/><path d="m140 40h30v10h-30z" fill="#903707"/><path d="m170 40h10v10h-10z" fill="#db8323"/><path d="m180 40h10v10h-10z" fill="#903707"/><path d="m190 40h10v10h-10z" fill="#db8323"/><path d="m200 40h10v10h-10z" fill="#903707"/><path d="m140 50h20v10h-20z" fill="#903707"/><path d="m160 50h10v10h-10z" fill="#db8323"/><path d="m170 50h10v10h-10z" fill="#552e05"/><path d="m180 50h10v10h-10z" fill="#db8323"/><path d="m190 50h10v10h-10z" fill="#552e05"/><path d="m200 50h10v10h-10z" fill="#903707"/><path d="m140 60h20v10h-20z" fill="#903707"/><path d="m160 60h20v10h-20z" fill="#c16710"/><path d="m180 60h10v10h-10z" fill="#db8323"/><path d="m190 60h10v10h-10z" fill="#c16710"/><path d="m200 60h10v10h-10z" fill="#903707"/><path d="m110 70h50v10h-50z" fill="#903707"/><path d="m160 70h10v10h-10z" fill="#c16710"/><path d="m170 70h10v10h-10z" fill="#db8323"/><path d="m180 70h10v10h-10z" fill="#552e05"/><path d="m190 70h10v10h-10z" fill="#db8323"/><path d="m200 70h10v10h-10z" fill="#903707"/><path d="m100 80h110v10h-110z" fill="#903707"/><path d="m90 90h110v10h-110z" fill="#903707"/><path d="m80 100h130v10h-130z" fill="#903707"/><path d="m70 110h140v10h-140z" fill="#903707"/><path d="m210 110h10v10h-10z" fill="#552e05"/><path d="m60 120h40v10h-40z" fill="#903707"/><path d="m110 120h100v10h-100z" fill="#903707"/><path d="m210 120h30v10h-30z" fill="#552e05"/><path d="m50 130h40v10h-40z" fill="#903707"/><path d="m110 130h100v10h-100z" fill="#903707"/><path d="m210 130h50v10h-50z" fill="#552e05"/><path d="m40 140h40v10h-40z" fill="#903707"/><path d="m100 140h110v10h-110z" fill="#903707"/><path d="m210 140h70v10h-70z" fill="#552e05"/><path d="m20 150h40v10h-40z" fill="#903707"/><path d="m90 150h120v10h-120z" fill="#903707"/><path d="m240 150h50v10h-50z" fill="#552e05"/><path d="m20 160h30v10h-30z" fill="#903707"/><path d="m90 160h120v10h-120z" fill="#903707"/><path d="m250 160h10v10h-10z" fill="#552e05"/><path d="m270 160h10v10h-10z" fill="#552e05"/><path d="m90 170h110v10h-110z" fill="#903707"/><path d="m90 180h80v10h-80z" fill="#903707"/><path d="m170 180h20v10h-20z" fill="#fd8b5b"/><path d="m190 180h20v10h-20z" fill="#903707"/><path d="m100 190h20v10h-20z" fill="#552e05"/><path d="m120 190h100v10h-100z" fill="#903707"/><path d="m90 200h60v10h-60z" fill="#552e05"/><path d="m150 200h80v10h-80z" fill="#903707"/><path d="m100 110h60v10h-60z" fill="#2b83f6"/><path d="m170 110h60v10h-60z" fill="#2b83f6"/><path d="m100 120h10v10h-10z" fill="#2b83f6"/><path d="m110 120h20v10h-20z" fill="#fff"/><path d="m130 120h20v10h-20z"/><path d="m150 120h10v10h-10z" fill="#2b83f6"/><path d="m170 120h10v10h-10z" fill="#2b83f6"/><path d="m180 120h20v10h-20z" fill="#fff"/><path d="m200 120h20v10h-20z"/><path d="m220 120h10v10h-10z" fill="#2b83f6"/><path d="m70 130h40v10h-40z" fill="#2b83f6"/><path d="m110 130h20v10h-20z" fill="#fff"/><path d="m130 130h20v10h-20z"/><path d="m150 130h30v10h-30z" fill="#2b83f6"/><path d="m180 130h20v10h-20z" fill="#fff"/><path d="m200 130h20v10h-20z"/><path d="m220 130h10v10h-10z" fill="#2b83f6"/><path d="m70 140h10v10h-10z" fill="#2b83f6"/><path d="m100 140h10v10h-10z" fill="#2b83f6"/><path d="m110 140h20v10h-20z" fill="#fff"/><path d="m130 140h20v10h-20z"/><path d="m150 140h10v10h-10z" fill="#2b83f6"/><path d="m170 140h10v10h-10z" fill="#2b83f6"/><path d="m180 140h20v10h-20z" fill="#fff"/><path d="m200 140h20v10h-20z"/><path d="m220 140h10v10h-10z" fill="#2b83f6"/><path d="m70 150h10v10h-10z" fill="#2b83f6"/><path d="m100 150h10v10h-10z" fill="#2b83f6"/><path d="m110 150h20v10h-20z" fill="#fff"/><path d="m130 150h20v10h-20z"/><path d="m150 150h10v10h-10z" fill="#2b83f6"/><path d="m170 150h10v10h-10z" fill="#2b83f6"/><path d="m180 150h20v10h-20z" fill="#fff"/><path d="m200 150h20v10h-20z"/><path d="m220 150h10v10h-10z" fill="#2b83f6"/><path d="m100 160h60v10h-60z" fill="#2b83f6"/><path d="m170 160h60v10h-60z" fill="#2b83f6"/></svg>