<?xml version="1.0" encoding="UTF-8"?><svg id="b" xmlns="http://www.w3.org/2000/svg" viewBox="0 0 198.43 340.28"><defs><style>.f{stroke:#f2f2f2;}.f,.g,.h,.i{fill:none;stroke-miterlimit:10;}.f,.h,.i{stroke-width:.5px;}.g,.i{stroke:blue;}.j{fill:blue;opacity:.33;}.h{stroke:#999;}.k{fill:#999;}.l{fill:#140016;}.m{fill:#f2f2f2;}</style></defs><g id="c"><g id="d"><rect class="m" width="198.43" height="340.28" rx="1.34" ry="1.34"/><g id="e"><path class="l" d="m6.93,333.63c-1.16,0-2.1-.87-2.1-1.95V8.6c0-1.08.94-1.95,2.1-1.95h184.56c1.16,0,2.1.87,2.1,1.95v323.07c0,1.08-.94,1.95-2.1,1.95"/></g><rect class="f" x="7.74" y="9.51" width="182.95" height="321.27" rx="1.34" ry="1.34"/><path class="m" d="m86.79,28.68h-.87l-3.14-8.05h-.48c-.11,0-.2-.01-.25-.03-.05-.02-.09-.06-.12-.11-.03-.05-.05-.11-.05-.17s.02-.12.05-.17c.03-.05.07-.09.12-.11s.13-.03.25-.03h2.32c.12,0,.2.01.25.03s.09.06.12.11.05.11.05.17-.02.11-.05.17c-.03.05-.08.09-.12.11-.05.02-.13.03-.24.03h-1.19l2.89,7.43h.04l2.85-7.43h-1.19c-.12,0-.2-.01-.25-.03-.05-.02-.09-.06-.12-.11-.03-.05-.05-.11-.05-.17s.02-.12.05-.17c.03-.05.08-.09.12-.11s.13-.03.25-.03h2.31c.12,0,.2.01.25.03s.09.06.12.11.05.11.05.17-.02.11-.05.17c-.03.05-.08.09-.12.11-.05.02-.13.03-.25.03h-.47l-3.08,8.05Z"/><path class="m" d="m95.76,20.62v7.43h2.14c.15,0,.25.03.32.09s.1.13.1.23c0,.09-.03.16-.1.22-.06.06-.17.09-.32.09h-4.89c-.15,0-.25-.03-.32-.09-.06-.06-.1-.13-.1-.22,0-.09.03-.17.1-.23.06-.06.17-.09.32-.09h2.14v-7.43h-2.14c-.15,0-.25-.03-.32-.08-.06-.06-.1-.13-.1-.23s.03-.17.1-.23c.06-.06.17-.08.32-.08h4.89c.15,0,.25.03.32.08.06.06.1.13.1.23s-.03.17-.1.23-.17.08-.32.08h-2.14Z"/><path class="m" d="m104.87,20.62v7.43h2.13c.15,0,.26.03.32.09s.1.13.1.23c0,.09-.03.16-.1.22-.06.06-.17.09-.32.09h-4.89c-.15,0-.25-.03-.32-.09-.06-.06-.1-.13-.1-.22,0-.09.03-.17.1-.23s.17-.09.32-.09h2.14v-7.43h-2.14c-.15,0-.25-.03-.32-.08s-.1-.13-.1-.23.03-.17.1-.23c.06-.06.17-.08.32-.08h4.89c.15,0,.26.03.32.08.06.06.1.13.1.23s-.03.17-.1.23-.17.08-.32.08h-2.13Z"/><path class="m" d="m113.99,20.62v7.43h2.14c.15,0,.25.03.32.09s.1.13.1.23c0,.09-.03.16-.1.22-.06.06-.17.09-.32.09h-4.89c-.15,0-.25-.03-.32-.09-.06-.06-.1-.13-.1-.22,0-.09.03-.17.1-.23s.17-.09.32-.09h2.14v-7.43h-2.14c-.15,0-.25-.03-.32-.08s-.1-.13-.1-.23.03-.17.1-.23c.06-.06.17-.08.32-.08h4.89c.15,0,.25.03.32.08.06.06.1.13.1.23s-.03.17-.1.23-.17.08-.32.08h-2.14Z"/><line class="i" x1="43.99" y1="212.47" x2="44.04" y2="182.28"/><polygon class="j" points="18.28 168.15 44.04 182.28 43.97 212.13 18.28 168.15"/><polygon class="g" points="17.89 167.85 70.1 167.85 43.99 212.47 17.89 167.85"/><line class="i" x1="44.04" y1="182.28" x2="70.1" y2="167.85"/><line class="i" x1="44.04" y1="182.28" x2="17.89" y2="167.85"/><line class="i" x1="154.43" y1="212.46" x2="154.39" y2="182.28"/><polygon class="j" points="154.43 212.46 154.18 182.28 128.33 167.84 154.43 212.46"/><polygon class="g" points="180.54 167.84 128.33 167.84 154.43 212.46 180.54 167.84"/><line class="i" x1="154.39" y1="182.28" x2="128.33" y2="167.84"/><line class="i" x1="154.39" y1="182.28" x2="180.54" y2="167.84"/><line class="i" x1="154.43" y1="250.67" x2="154.48" y2="206.05"/><polygon class="j" points="128.52 206.35 154.48 206.35 154.43 250.67 128.52 206.35"/><polygon class="g" points="128.33 206.05 180.54 206.05 154.43 250.67 128.33 206.05"/><line class="i" x1="99.38" y1="134.11" x2="99.42" y2="89.49"/><polygon class="j" points="73.47 89.8 99.42 89.8 99.38 134.11 73.47 89.8"/><polygon class="g" points="73.27 89.49 125.49 89.49 99.38 134.11 73.27 89.49"/><line class="i" x1="128.36" y1="169.41" x2="128.32" y2="139.23"/><polygon class="j" points="153.87 125.1 128.11 139.23 102.26 124.79 153.87 125.1"/><polygon class="g" points="154.47 124.79 102.26 124.79 128.36 169.41 154.47 124.79"/><line class="i" x1="128.32" y1="139.23" x2="102.26" y2="124.79"/><line class="i" x1="128.32" y1="139.23" x2="154.47" y2="124.79"/><line class="i" x1="44.22" y1="250.67" x2="44.26" y2="206.05"/><polygon class="j" points="18.31 206.35 44.26 206.35 44.25 250.67 18.31 206.35"/><polygon class="g" points="18.11 206.05 70.33 206.05 44.22 250.67 18.11 206.05"/><line class="i" x1="99.31" y1="250.67" x2="99.36" y2="206.05"/><polygon class="j" points="73.4 206.35 99.36 206.35 99.31 250.67 73.4 206.35"/><polygon class="g" points="73.21 206.05 125.42 206.05 99.31 250.67 73.21 206.05"/><line class="i" x1="70.41" y1="169.41" x2="70.37" y2="139.23"/><polygon class="j" points="95.92 125.1 70.16 139.23 44.31 124.79 95.92 125.1"/><polygon class="g" points="96.52 124.79 44.31 124.79 70.41 169.41 96.52 124.79"/><line class="i" x1="70.37" y1="139.23" x2="44.31" y2="124.79"/><line class="i" x1="70.37" y1="139.23" x2="96.52" y2="124.79"/><path class="k" d="m98.61,304.9v1.18h.42c.06,0,.09.01.12.03.02.02.03.05.03.08,0,.03-.01.06-.03.08-.02.02-.06.03-.12.03h-.94c-.05,0-.09-.01-.12-.03-.02-.02-.03-.05-.03-.08,0-.03.01-.06.03-.08.02-.02.06-.03.12-.03h.3v-2.69h-.3c-.05,0-.09-.01-.12-.03-.02-.02-.03-.05-.03-.08s.01-.06.03-.08c.02-.02.06-.03.12-.03h1.36c.28,0,.52.09.71.27.19.18.29.38.29.6,0,.16-.06.31-.18.45-.12.14-.32.26-.6.36.16.11.3.24.41.38.11.14.3.43.55.86h.17c.05,0,.09.01.12.03.02.02.03.05.03.08,0,.03-.01.06-.03.08-.02.02-.06.03-.12.03h-.3c-.28-.5-.49-.83-.65-1-.15-.17-.33-.3-.53-.4h-.72Zm0-.23h.61c.2,0,.38-.04.54-.11.16-.07.28-.16.35-.25s.11-.19.11-.3c0-.15-.08-.29-.23-.43-.15-.14-.33-.2-.55-.2h-.83v1.29Z"/><path class="k" d="m93.18,312.33h-1.48l-.3.82h.43c.05,0,.09.01.12.03.02.02.03.05.03.08,0,.03-.01.06-.03.08-.02.02-.06.03-.12.03h-.84c-.05,0-.09-.01-.12-.03-.02-.02-.03-.05-.03-.08,0-.03.01-.06.03-.08.02-.02.06-.03.12-.03h.17l1-2.69h-.67c-.05,0-.09-.01-.12-.03-.02-.02-.03-.05-.03-.08s.01-.06.03-.08c.02-.02.06-.03.12-.03h1.13l1.1,2.91h.17c.05,0,.09.01.12.03.02.02.03.05.03.08,0,.03-.01.06-.03.08-.02.02-.06.03-.12.03h-.84c-.06,0-.09-.01-.12-.03-.02-.02-.03-.05-.03-.08,0-.03.01-.06.03-.08.02-.02.06-.03.12-.03h.43l-.31-.82Zm-.09-.23l-.62-1.64h-.08l-.6,1.64h1.31Z"/><path class="k" d="m107.85,311.89c0,.3-.06.58-.18.84-.12.26-.29.46-.5.6-.21.14-.44.21-.69.21-.36,0-.68-.15-.96-.46s-.41-.7-.41-1.19.14-.88.41-1.19c.28-.31.6-.46.96-.46.25,0,.47.07.69.21.21.14.38.34.5.6.12.26.18.53.18.84Zm-.23,0c0-.37-.11-.7-.32-.99-.21-.29-.49-.44-.83-.44-.32,0-.59.14-.81.42-.22.28-.34.61-.34,1.01,0,.42.12.76.35,1.03.24.27.5.4.8.4.34,0,.61-.15.83-.44.21-.29.32-.62.32-.99Z"/><path class="k" d="m99.45,317.24v2.69h.58c.05,0,.09.01.12.03.02.02.03.05.03.08,0,.03-.01.06-.03.08-.02.02-.06.03-.12.03h-1.4c-.05,0-.09-.01-.12-.03-.02-.02-.03-.05-.03-.08,0-.03.01-.06.03-.08.02-.02.06-.03.12-.03h.58v-2.69h-.92v.78c0,.06-.01.09-.03.12-.02.02-.05.03-.08.03-.03,0-.06-.01-.08-.03-.02-.02-.03-.06-.03-.12v-1.01h2.52v1.01c0,.06-.01.09-.03.12-.02.02-.05.03-.08.03s-.06-.01-.08-.03c-.02-.02-.03-.06-.03-.12v-.78h-.92Z"/><path class="h" d="m106.47,309.6c-.74-2.52-2.78-4.48-5.33-5.11"/><path class="h" d="m101.15,318.88c2.37-.59,4.28-2.31,5.14-4.55"/><path class="h" d="m92.45,314.33c.84,2.2,2.7,3.89,4.99,4.51"/><path class="h" d="m97.68,304.64c-2.54.67-4.55,2.65-5.25,5.18"/></g></g></svg>