<svg xmlns="http://www.w3.org/2000/svg" viewBox="0 -0.5 50 50" shape-rendering="crispEdges">
	<title>Bitcoin Pussies #018</title>
	<desc>Bitcoin Pussies are 69 uniquely drawn and inscribed cats on Bitcoin</desc>
	<desc xmlns:meow="https://bitcoinpussies.com/">
		<meow:traits>
			<meow:Skin>Black</meow:Skin>
			<meow:Eyes>Closed</meow:Eyes>
			<meow:Gear>Egg and pan</meow:Gear>
			<meow:Message>GM. Breakfast is ready</meow:Message>
		</meow:traits>
	</desc>
	<path stroke="#87371b" d="M0 0h50M0 1h50M0 2h50M0 3h50M0 4h50M0 5h50M0 6h50M0 7h50M0 8h50M0 9h50M0 10h50M0 11h50M0 12h50M0 13h25M28 13h22M0 14h24M29 14h21M0 15h16M19 15h3M30 15h2M35 15h15M0 16h15M36 16h14M0 17h15M36 17h14M0 18h15M36 18h14M0 19h15M36 19h14M0 20h15M36 20h14M0 21h15M36 21h14M0 22h16M35 22h15M0 23h15M36 23h14M0 24h15M36 24h14M0 25h15M36 25h14M0 26h15M36 26h14M0 27h15M36 27h14M0 28h16M35 28h15M0 29h16M35 29h15M0 30h17M34 30h16M0 31h16M35 31h15M0 32h16M35 32h15M0 33h15M36 33h14M0 34h13M36 34h14M0 35h11M39 35h11M0 36h10M40 36h10M0 37h9M0 38h9M0 39h9M0 40h9M41 40h9M0 41h9M41 41h9M0 42h10M40 42h10M0 43h11M39 43h11M0 44h12M38 44h12M0 45h13M37 45h13M0 46h50M0 47h50M0 48h50M0 49h50" />
	<path stroke="#000000" d="M25 13h3M24 14h1M28 14h1M16 15h3M22 15h2M29 15h1M32 15h3M15 16h1M19 16h3M30 16h2M35 16h1M15 17h1M20 17h1M31 17h1M35 17h1M15 18h1M19 18h2M31 18h1M35 18h1M15 19h1M18 19h1M21 19h1M27 19h4M32 19h1M35 19h1M15 20h1M17 20h1M22 20h5M33 20h1M35 20h1M15 21h2M34 21h2M16 22h1M34 22h1M15 23h1M35 23h1M15 24h1M20 24h3M28 24h3M35 24h1M15 25h1M25 25h1M35 25h1M15 26h1M24 26h3M35 26h1M15 27h1M35 27h1M16 28h1M34 28h1M16 29h1M34 29h1M17 30h2M32 30h2M16 31h1M19 31h2M30 31h2M34 31h1M16 32h1M24 32h3M34 32h1M15 33h1M35 33h1M13 34h3M35 34h1M11 35h3M15 35h1M35 35h4M10 36h1M14 36h2M35 36h1M39 36h1M9 37h1M15 37h2M34 37h1M40 37h10M9 38h1M17 38h2M22 38h1M24 38h1M26 38h1M28 38h1M32 38h2M40 38h1M9 39h2M19 39h13M39 39h11M9 40h1M11 40h1M38 40h1M40 40h1M9 41h1M12 41h2M36 41h2M40 41h1M10 42h1M14 42h22M39 42h1M11 43h1M38 43h1M12 44h1M37 44h1M13 45h24" />
	<path stroke="#ff9d26" d="M25 14h2M26 16h2" />
	<path stroke="#ffb944" d="M27 14h1M25 15h2M25 16h1" />
	<path stroke="#f68900" d="M24 15h1M28 15h1M24 16h1M28 16h1M25 17h3" />
	<path stroke="#fffaf1" d="M27 15h1M23 16h1M22 17h3M28 17h2M22 18h5" />
	<path stroke="#2c2c2c" d="M16 16h3M32 16h3M16 17h1M34 17h1M16 18h1M34 18h1M16 19h1M19 19h2M31 19h1M34 19h1M16 20h1M18 20h4M27 20h6M34 20h1M17 21h17M17 22h17M16 23h19M16 24h4M23 24h5M31 24h4M16 25h9M26 25h9M16 26h2M20 26h4M27 26h4M33 26h2M16 27h19M17 28h17M17 29h17M19 30h13M17 31h2M21 31h9M32 31h2M17 32h7M27 32h7M16 33h19M16 34h19M14 35h1M16 35h19M16 36h19M17 37h17M19 38h3M23 38h1M25 38h1M27 38h1M29 38h3" />
	<path stroke="#f5f1e3" d="M22 16h1M29 16h1M21 17h1M30 17h1M21 18h1M27 18h4M22 19h5" />
	<path stroke="#f5b3a5" d="M17 17h3M32 17h2M17 18h2M32 18h2M17 19h1M33 19h1" />
	<path stroke="#e79e8e" d="M18 26h2M31 26h2" />
	<path stroke="#838383" d="M11 36h3M36 36h3M10 37h3M37 37h3M10 38h5M36 38h4M11 39h6M35 39h4M12 40h6M32 40h6M14 41h22" />
	<path stroke="#676767" d="M13 37h2M35 37h2M15 38h2M34 38h2M17 39h2M32 39h3M18 40h14" />
	<path stroke="#383838" d="M41 38h9" />
	<path stroke="#006ccd" d="M10 40h1M10 41h2M11 42h3M12 43h3M13 44h1" />
	<path stroke="#004b8e" d="M39 40h1M38 41h2M36 42h3M32 43h6M31 44h6" />
	<path stroke="#005fb6" d="M15 43h17M14 44h17" />
</svg>