<svg xmlns="http://www.w3.org/2000/svg" width="512" height="512" fill="none"><path fill="#F90" d="M0 0h512v512H0z"/><path fill="#36CF00" d="M84 340h344v160H84z"/><g><animateTransform attributeName="transform" dur="0.4s" keyTimes="0;0.5;1" repeatCount="indefinite" type="translate" values="0 0;0 28;0 0"/><path fill="#3BE200" d="M196 176h120v296H196z"/><path fill="#36CF00" d="M196 96h120v80H196z"/><path fill="#3BE200" d="M250 96h12v36h-12z"><animate attributeName="fill" begin="5s" dur="0.4s" repeatCount="5" values="#3BE200; #fff; #3BE200"/></path><path fill="#AD00FF" d="M316 135.5H196v-40L240 5h77l-45 22v42l44 26.5v40ZM156 135.5h200v16H156z"/><path fill="#FFB039" d="M196 119.5h120v16H196zM257 11.5l2.694 8.292h8.719l-7.054 5.124 2.694 8.292L257 28.084l-7.053 5.124 2.694-8.292-7.054-5.124h8.719L257 11.5ZM236 46.5l2.694 8.292h8.719l-7.054 5.124 2.694 8.292L236 63.084l-7.053 5.124 2.694-8.292-7.054-5.124h8.719L236 46.5ZM251 79.5l2.694 8.292h8.719l-7.054 5.124 2.694 8.292L251 96.084l-7.053 5.124 2.694-8.292-7.054-5.124h8.719L251 79.5ZM207 88.5l2.694 8.292h8.719l-7.054 5.124 2.694 8.292-7.053-5.124-7.053 5.124 2.694-8.292-7.054-5.124h8.719L207 88.5ZM294 91.5l2.694 8.292h8.719l-7.054 5.124 2.694 8.292-7.053-5.124-7.053 5.124 2.694-8.292-7.054-5.124h8.719L294 91.5Z"/><path d="M260 184h56v8h-56zM268 192h40v8h-40zM276 200h24v8h-24zM196 176h120v8H196zM204 192h40v8h-40zM196 184h56v8h-56zM212 200h24v8h-24z" fill="#121212"/><mask height="24" id="a" maskUnits="userSpaceOnUse" style="mask-type:alpha" width="56" x="196" y="184"><path d="M204 192h40v8h-40zM196 184h56v8h-56zM212 200h24v8h-24z" fill="#121212"/></mask><g mask="url(#a)"><g><animateTransform attributeName="transform" dur="4s" keyTimes="0;0.1;0.3;1" repeatCount="indefinite" type="translate" values="-32 0;-32 0;48 0;48 0"/><path d="M204 184h8v8h-8zM212 192h8v8h-8zM220 200h8v8h-8z" fill="#fff"/></g></g><mask height="24" id="b" maskUnits="userSpaceOnUse" style="mask-type:alpha" width="56" x="260" y="184"><path d="M268 192h40v8h-40zM260 184h56v8h-56zM276 200h24v8h-24z" fill="#121212"/></mask><g mask="url(#b)"><g><animateTransform attributeName="transform" dur="4s" keyTimes="0;0.1;0.3;1" repeatCount="indefinite" type="translate" values="-32 0;-32 0;48 0;48 0"/><path d="M268 184h8v8h-8zM276 192h8v8h-8zM284 200h8v8h-8z" fill="#fff"/></g></g><path stroke="#121212" stroke-width="6" d="M230.711 344H280"/><path fill="#fff" d="m368.922 415.44-38.548-34.957-32.47-18.932-17.49-17.491h-13.5l38.126 46.324 16.85 18.878 31.606 24.563 15.426-18.385Z"/><path stroke="#121212" stroke-width="6" d="m321.89 409.262 31.606 24.563 15.426-18.385-38.548-34.957m-8.484 28.779 8.484-28.779m-8.484 28.779-16.85-18.878m25.334-9.901-32.47-18.932m7.136 28.833-38.126-46.324h13.5l17.49 17.491m7.136 28.833-7.136-28.833"/><path fill="#2D2D2D" stroke="#121212" stroke-width="6" d="m368.922 415.44-15.427 18.385-8.495-6.602 16-18.967 7.922 7.184Z"><animate attributeName="fill" dur="4s" keyTimes="0;0.8;1" repeatCount="indefinite" values="#2d2d2d;red;#2d2d2d"/></path><path stroke="#fff" stroke-width="6" d="M383 432c28.5 7 59-4.5 66-46.5S393 313 424 267"><animate attributeName="stroke" dur="4s" keyTimes="0;0.8;1" repeatCount="indefinite" values="white;transparent;white"/></path></g></svg>