<?xml version="1.0" encoding="utf-8"?>
<!-- Generator: Adobe Illustrator 27.6.1, SVG Export Plug-In . SVG Version: 6.00 Build 0)  -->
<svg version="1.1" xmlns="http://www.w3.org/2000/svg" xmlns:xlink="http://www.w3.org/1999/xlink" x="0px" y="0px"
	 viewBox="0 0 1080 1080" style="enable-background:new 0 0 1080 1080;" xml:space="preserve">
<style type="text/css">
	.st0{fill:#FFFFFF;}
	.st1{fill:#FF153A;stroke:#A3AED8;stroke-width:13;stroke-miterlimit:10;}
	.st2{fill:#FFEA00;}
	.st3{fill:#FFAD00;}
	.st4{fill:#6D4000;}
	.st5{fill:#FF7900;}
	.st6{fill:#9A1F69;}
	.st7{fill:#FF153A;}
</style>
<g id="BG_00000049199473064088084310000008836133144443458486_">
	<rect class="st0" width="1080" height="1080"/>
</g>
<g id="face">
	<polygon class="st1" points="539.37,186.42 182.79,804.03 895.94,804.03 	"/>
</g>
<g id="BG">
	<polygon class="st0" points="412.67,691.27 412.67,591.57 499.02,641.42 	"/>
	<polygon points="484.12,650.1 412.73,608.89 412.73,691.32 	"/>
	<polygon class="st2" points="422.3,628.01 422.3,685.95 472.48,656.98 	"/>
	<polygon class="st3" points="630.5,357.03 539.06,198.66 447.62,357.03 447.63,357.03 447.62,357.03 493.34,436.22 539.06,357.03 
		584.78,436.22 630.5,357.03 630.49,357.03 	"/>
	<polygon points="429.23,640.26 429.23,673.7 458.19,656.98 	"/>
	<polygon class="st0" points="443.98,655.1 462.51,644.4 443.98,633.7 	"/>
	<polygon class="st0" points="665.45,691.27 665.45,591.57 579.1,641.42 	"/>
	<polygon class="st4" points="355.65,691.32 355.65,691.32 355.65,691.32 355.65,691.32 355.65,691.32 291.21,691.32 323.43,747.13 
		387.87,747.13 	"/>
	<polygon class="st4" points="724.28,691.32 724.28,691.32 692.06,747.13 756.49,747.13 788.71,691.32 	"/>
	<polygon class="st4" points="705.83,503.95 650.67,472.1 650.67,535.8 594.86,568.02 594.86,567.84 594.71,567.93 539.21,535.89 
		539.21,535.8 539.14,535.84 539.06,535.8 539.06,535.89 483.48,567.97 483.25,567.84 483.25,568.02 427.45,535.8 427.45,472.1 
		372.29,503.95 371.65,503.58 371.65,568.02 539.06,664.5 706.47,568.02 706.47,568.02 706.47,503.58 	"/>
	<polygon points="594,650.1 665.39,608.89 665.39,691.32 	"/>
	<polygon class="st2" points="655.81,628.01 655.81,685.95 605.64,656.98 	"/>
	<polygon points="648.89,640.26 648.89,673.7 619.93,656.98 	"/>
	<polygon class="st0" points="634.14,655.1 615.61,644.4 634.14,633.7 	"/>
	<polygon class="st0" points="539.91,712.12 453.31,712.12 496.61,747.12 583.21,747.12 626.51,712.12 	"/>
	<polygon points="669.99,747.12 626.69,712.12 583.39,747.12 496.61,747.12 453.31,712.12 410.01,747.12 323.4,747.12 366.7,782.12 
		713.3,782.12 756.6,747.12 	"/>
	<polygon class="st5" points="473.42,401.71 433.57,470.73 473.42,470.73 493.34,436.22 	"/>
	<g>
		<polygon class="st5" points="499.21,288.02 479.29,322.52 479.29,322.52 479.29,322.52 479.29,322.52 479.29,322.52 
			499.21,357.03 539.06,357.03 519.14,322.52 539.06,288.02 		"/>
		<polygon class="st5" points="598.83,322.52 598.83,322.52 598.83,322.52 578.9,288.02 539.06,288.02 558.98,322.52 539.06,357.03 
			578.9,357.03 598.83,322.52 598.83,322.52 		"/>
	</g>
	<polygon class="st5" points="604.7,401.71 584.78,436.22 604.7,470.73 644.55,470.73 	"/>
	<polygon class="st6" points="254.32,693.02 314.67,797.55 193.97,797.55 	"/>
	<polygon class="st6" points="824.07,693.02 884.42,797.55 763.72,797.55 	"/>
	<polygon class="st7" points="538.93,731.38 500.21,664.32 577.64,664.32 	"/>
	<polygon class="st6" points="539.06,515.4 493.34,436.22 584.78,436.22 	"/>
</g>
</svg>
