<svg xmlns="http://www.w3.org/2000/svg" width="512" height="512" fill="none"><path fill="#F90" d="M0 0h512v512H0z"/><path fill="#36CF00" d="M84 340h344v160H84z"/><g><animateTransform attributeName="transform" dur="0.4s" keyTimes="0;0.5;1" repeatCount="indefinite" type="translate" values="0 0;0 28;0 0"/><path fill="#3BE200" d="M196 176h120v296H196z"/><path fill="#36CF00" d="M196 96h120v80H196z"/><path fill="#3BE200" d="M250 96h12v36h-12z"><animate attributeName="fill" begin="5s" dur="0.4s" repeatCount="5" values="#3BE200; #fff; #3BE200"/></path><path fill="#AD00FF" d="M316 135.5H196v-40L240 5h77l-45 22v42l44 26.5v40ZM156 135.5h200v16H156z"/><path fill="#FFB039" d="M196 119.5h120v16H196zM257 11.5l2.694 8.292h8.719l-7.054 5.124 2.694 8.292L257 28.084l-7.053 5.124 2.694-8.292-7.054-5.124h8.719L257 11.5ZM236 46.5l2.694 8.292h8.719l-7.054 5.124 2.694 8.292L236 63.084l-7.053 5.124 2.694-8.292-7.054-5.124h8.719L236 46.5ZM251 79.5l2.694 8.292h8.719l-7.054 5.124 2.694 8.292L251 96.084l-7.053 5.124 2.694-8.292-7.054-5.124h8.719L251 79.5ZM207 88.5l2.694 8.292h8.719l-7.054 5.124 2.694 8.292-7.053-5.124-7.053 5.124 2.694-8.292-7.054-5.124h8.719L207 88.5ZM294 91.5l2.694 8.292h8.719l-7.054 5.124 2.694 8.292-7.053-5.124-7.053 5.124 2.694-8.292-7.054-5.124h8.719L294 91.5Z"/><path fill="#121212" d="M204 179h47v48h-47v-48Z"/><path stroke="#121212" stroke-width="6" d="M204 179h47v48h-47v-48Zm0 0h-8M251 188h10"/><path fill="#121212" d="M308 179h-47v48h47v-48Z"/><path stroke="#121212" stroke-width="6" d="M308 179h-47v48h47v-48Zm0 0h8"/><mask id="a" width="41" height="42" x="207" y="182" maskUnits="userSpaceOnUse" style="mask-type:alpha"><path fill="#121212" d="M207 182h41v42h-41v-42Z"/></mask><g mask="url(#a)"><path fill="#FFF" d="M215.112 182h8.77l-10.524 43.235h-8.77L215.112 182Z"><animateTransform attributeName="transform" dur="4s" keyTimes="0;0.1;0.3;1" repeatCount="indefinite" type="translate" values="-32 0;-32 0;48 0;48 0"/></path></g><mask id="b" width="41" height="42" x="264" y="182" maskUnits="userSpaceOnUse" style="mask-type:alpha"><path fill="#121212" d="M264 182h41v42h-41v-42Z"/></mask><g mask="url(#b)"><path fill="#FFF" d="M271.112 182h8.77l-10.524 43.235h-8.77L271.112 182Z"><animateTransform attributeName="transform" dur="4s" keyTimes="0;0.1;0.3;1" repeatCount="indefinite" type="translate" values="-32 0;-32 0;48 0;48 0"/></path></g><path stroke="#121212" stroke-width="6" d="M228 340h56"/><path fill="#D22D27" stroke="#121212" stroke-width="6" d="M268 359.25V340h-22.5v19.25c0 6.213 5.037 11.25 11.25 11.25S268 365.463 268 359.25Z"/></g></svg>