<svg height="320" shape-rendering="crispEdges" viewBox="0 0 320 320" width="320" xmlns="http://www.w3.org/2000/svg"><rect fill="#e1d7d5" height="100%" width="100%"/><g fill="#9f21a0"><path d="m90 210h140v10h-140z"/><path d="m90 220h140v10h-140z"/><path d="m90 230h140v10h-140z"/><path d="m90 240h140v10h-140z"/><path d="m90 250h20v10h-20z"/><path d="m120 250h110v10h-110z"/><path d="m90 260h20v10h-20z"/><path d="m120 260h110v10h-110z"/><path d="m90 270h20v10h-20z"/><path d="m120 270h110v10h-110z"/><path d="m90 280h20v10h-20z"/><path d="m120 280h110v10h-110z"/><path d="m90 290h20v10h-20z"/><path d="m120 290h110v10h-110z"/><path d="m90 300h20v10h-20z"/><path d="m120 300h110v10h-110z"/><path d="m90 310h20v10h-20z"/><path d="m120 310h110v10h-110z"/></g><path d="m90 210h140v10h-140z" fill="#1929f4"/><path d="m90 220h140v10h-140z" fill="#1929f4"/><path d="m90 230h140v10h-140z" fill="#1929f4"/><path d="m90 250h20v10h-20z" fill="#ff82ad"/><path d="m120 250h110v10h-110z" fill="#ff82ad"/><path d="m90 270h20v10h-20z" fill="#fff449"/><path d="m120 270h110v10h-110z" fill="#fff449"/><path d="m110 20h10v10h-10z" fill="#e8705b"/><path d="m160 20h10v10h-10z" fill="#e8705b"/><path d="m200 20h10v10h-10z" fill="#e8705b"/><path d="m100 30h10v10h-10z" fill="#e8705b"/><path d="m110 30h10v10h-10z" fill="#fff671"/><path d="m120 30h10v10h-10z" fill="#e8705b"/><path d="m150 30h10v10h-10z" fill="#e8705b"/><path d="m160 30h10v10h-10z" fill="#fff671"/><path d="m170 30h10v10h-10z" fill="#e8705b"/><path d="m190 30h10v10h-10z" fill="#e8705b"/><path d="m200 30h10v10h-10z" fill="#fff671"/><path d="m210 30h10v10h-10z" fill="#e8705b"/><path d="m100 40h10v10h-10z" fill="#e8705b"/><path d="m110 40h10v10h-10z" fill="#fff671"/><path d="m120 40h10v10h-10z" fill="#ffc110"/><path d="m150 40h10v10h-10z" fill="#e8705b"/><path d="m160 40h10v10h-10z" fill="#fff671"/><path d="m170 40h10v10h-10z" fill="#ffc110"/><path d="m190 40h10v10h-10z" fill="#e8705b"/><path d="m200 40h10v10h-10z" fill="#fff671"/><path d="m210 40h10v10h-10z" fill="#ffc110"/><path d="m110 50h10v10h-10z" fill="#ffc110"/><path d="m160 50h10v10h-10z" fill="#ffc110"/><path d="m200 50h10v10h-10z" fill="#ffc110"/><path d="m100 60h30v10h-30z" fill="#7cc4f2"/><path d="m150 60h30v10h-30z" fill="#7cc4f2"/><path d="m190 60h30v10h-30z" fill="#7cc4f2"/><path d="m100 70h10v10h-10z" fill="#26b1f3"/><path d="m110 70h20v10h-20z" fill="#7cc4f2"/><path d="m150 70h10v10h-10z" fill="#26b1f3"/><path d="m160 70h20v10h-20z" fill="#7cc4f2"/><path d="m190 70h10v10h-10z" fill="#26b1f3"/><path d="m200 70h20v10h-20z" fill="#7cc4f2"/><path d="m80 80h160v10h-160z" fill="#ff638d"/><path d="m70 90h50v10h-50z" fill="#ff638d"/><path d="m120 90h60v10h-60z" fill="#fff"/><path d="m180 90h70v10h-70z" fill="#ff638d"/><path d="m70 100h40v10h-40z" fill="#ff638d"/><path d="m110 100h80v10h-80z" fill="#fff"/><path d="m190 100h60v10h-60z" fill="#ff638d"/><path d="m70 110h40v10h-40z" fill="#ff638d"/><path d="m110 110h80v10h-80z" fill="#fff"/><path d="m190 110h50v10h-50z" fill="#ff638d"/><path d="m240 110h10v10h-10z" fill="#fff"/><path d="m70 120h10v10h-10z" fill="#fff"/><path d="m80 120h30v10h-30z" fill="#ff638d"/><path d="m110 120h90v10h-90z" fill="#fff"/><path d="m200 120h30v10h-30z" fill="#ff638d"/><path d="m230 120h20v10h-20z" fill="#fff"/><path d="m70 130h20v10h-20z" fill="#fff"/><path d="m90 130h20v10h-20z" fill="#ff638d"/><path d="m110 130h140v10h-140z" fill="#fff"/><path d="m70 140h20v10h-20z" fill="#fff"/><path d="m90 140h20v10h-20z" fill="#ff638d"/><path d="m110 140h140v10h-140z" fill="#fff"/><path d="m70 150h20v10h-20z" fill="#fff"/><path d="m90 150h10v10h-10z" fill="#ff638d"/><path d="m100 150h150v10h-150z" fill="#fff"/><path d="m70 160h180v10h-180z" fill="#fff"/><path d="m70 170h180v10h-180z" fill="#fff"/><path d="m70 180h10v10h-10z" fill="#ff638d"/><path d="m80 180h10v10h-10z" fill="#fff"/><path d="m90 180h20v10h-20z" fill="#ff638d"/><path d="m110 180h20v10h-20z" fill="#fff"/><path d="m130 180h50v10h-50z" fill="#ff638d"/><path d="m180 180h20v10h-20z" fill="#fff"/><path d="m200 180h20v10h-20z" fill="#ff638d"/><path d="m220 180h20v10h-20z" fill="#fff"/><path d="m240 180h10v10h-10z" fill="#ff638d"/><path d="m60 190h10v10h-10z" fill="#ff638d"/><path d="m70 190h10v10h-10z" fill="#fff"/><path d="m80 190h10v10h-10z" fill="#ff638d"/><path d="m90 190h20v10h-20z" fill="#fff"/><path d="m110 190h20v10h-20z" fill="#ff638d"/><path d="m130 190h50v10h-50z" fill="#fff"/><path d="m180 190h20v10h-20z" fill="#ff638d"/><path d="m200 190h20v10h-20z" fill="#fff"/><path d="m220 190h20v10h-20z" fill="#ff638d"/><path d="m240 190h10v10h-10z" fill="#fff"/><path d="m250 190h10v10h-10z" fill="#ff638d"/><path d="m60 200h200v10h-200z" fill="#ff638d"/><path d="m100 110h60v10h-60z" fill="#2b83f6"/><path d="m170 110h60v10h-60z" fill="#2b83f6"/><path d="m100 120h10v10h-10z" fill="#2b83f6"/><path d="m110 120h20v10h-20z" fill="#fff"/><path d="m130 120h20v10h-20z"/><path d="m150 120h10v10h-10z" fill="#2b83f6"/><path d="m170 120h10v10h-10z" fill="#2b83f6"/><path d="m180 120h20v10h-20z" fill="#fff"/><path d="m200 120h20v10h-20z"/><path d="m220 120h10v10h-10z" fill="#2b83f6"/><path d="m70 130h40v10h-40z" fill="#2b83f6"/><path d="m110 130h20v10h-20z" fill="#fff"/><path d="m130 130h20v10h-20z"/><path d="m150 130h30v10h-30z" fill="#2b83f6"/><path d="m180 130h20v10h-20z" fill="#fff"/><path d="m200 130h20v10h-20z"/><path d="m220 130h10v10h-10z" fill="#2b83f6"/><path d="m70 140h10v10h-10z" fill="#2b83f6"/><path d="m100 140h10v10h-10z" fill="#2b83f6"/><path d="m110 140h20v10h-20z" fill="#fff"/><path d="m130 140h20v10h-20z"/><path d="m150 140h10v10h-10z" fill="#2b83f6"/><path d="m170 140h10v10h-10z" fill="#2b83f6"/><path d="m180 140h20v10h-20z" fill="#fff"/><path d="m200 140h20v10h-20z"/><path d="m220 140h10v10h-10z" fill="#2b83f6"/><path d="m70 150h10v10h-10z" fill="#2b83f6"/><path d="m100 150h10v10h-10z" fill="#2b83f6"/><path d="m110 150h20v10h-20z" fill="#fff"/><path d="m130 150h20v10h-20z"/><path d="m150 150h10v10h-10z" fill="#2b83f6"/><path d="m170 150h10v10h-10z" fill="#2b83f6"/><path d="m180 150h20v10h-20z" fill="#fff"/><path d="m200 150h20v10h-20z"/><path d="m220 150h10v10h-10z" fill="#2b83f6"/><path d="m100 160h60v10h-60z" fill="#2b83f6"/><path d="m170 160h60v10h-60z" fill="#2b83f6"/></svg>