<svg height="320" shape-rendering="crispEdges" viewBox="0 0 320 320" width="320" xmlns="http://www.w3.org/2000/svg"><rect fill="#d5d7e1" height="100%" width="100%"/><g fill="#fffdf2"><path d="m90 210h140v10h-140z"/><path d="m90 220h140v10h-140z"/><path d="m90 230h140v10h-140z"/><path d="m90 240h140v10h-140z"/><path d="m90 250h20v10h-20z"/><path d="m120 250h110v10h-110z"/><path d="m90 260h20v10h-20z"/><path d="m120 260h110v10h-110z"/><path d="m90 270h20v10h-20z"/><path d="m120 270h110v10h-110z"/><path d="m90 280h20v10h-20z"/><path d="m120 280h110v10h-110z"/><path d="m90 290h20v10h-20z"/><path d="m120 290h110v10h-110z"/><path d="m90 300h20v10h-20z"/><path d="m120 300h110v10h-110z"/><path d="m90 310h20v10h-20z"/><path d="m120 310h110v10h-110z"/></g><path d="m130 240h70v10h-70z" fill="#26b1f3"/><path d="m130 250h10v10h-10z" fill="#26b1f3"/><path d="m150 250h10v10h-10z" fill="#26b1f3"/><path d="m170 250h10v10h-10z" fill="#26b1f3"/><path d="m190 250h30v10h-30z" fill="#26b1f3"/><path d="m130 260h30v10h-30z" fill="#26b1f3"/><path d="m170 260h30v10h-30z" fill="#26b1f3"/><path d="m210 260h10v10h-10z" fill="#26b1f3"/><path d="m140 30h40v10h-40z" fill="#b92b3c"/><path d="m110 40h10v10h-10z" fill="#cd916d"/><path d="m120 40h10v10h-10z" fill="#e4a499"/><path d="m130 40h60v10h-60z" fill="#b92b3c"/><path d="m190 40h10v10h-10z" fill="#e4a499"/><path d="m200 40h10v10h-10z" fill="#cd916d"/><path d="m100 50h20v10h-20z" fill="#cd916d"/><path d="m120 50h10v10h-10z" fill="#e4a499"/><path d="m130 50h60v10h-60z" fill="#b92b3c"/><path d="m190 50h10v10h-10z" fill="#e4a499"/><path d="m200 50h20v10h-20z" fill="#cd916d"/><path d="m90 60h20v10h-20z" fill="#cd916d"/><path d="m110 60h10v10h-10z" fill="#e4a499"/><path d="m120 60h20v10h-20z" fill="#b92b3c"/><path d="m140 60h10v10h-10z" fill="#ffe939"/><path d="m150 60h20v10h-20z" fill="#e9265c"/><path d="m170 60h30v10h-30z" fill="#b92b3c"/><path d="m200 60h10v10h-10z" fill="#e4a499"/><path d="m210 60h20v10h-20z" fill="#cd916d"/><path d="m90 70h20v10h-20z" fill="#cd916d"/><path d="m110 70h10v10h-10z" fill="#e4a499"/><path d="m120 70h30v10h-30z" fill="#b92b3c"/><path d="m150 70h20v10h-20z" fill="#ffe939"/><path d="m170 70h10v10h-10z" fill="#e9265c"/><path d="m180 70h20v10h-20z" fill="#b92b3c"/><path d="m200 70h10v10h-10z" fill="#e4a499"/><path d="m210 70h20v10h-20z" fill="#cd916d"/><path d="m90 80h20v10h-20z" fill="#cd916d"/><path d="m110 80h10v10h-10z" fill="#e4a499"/><path d="m120 80h50v10h-50z" fill="#b92b3c"/><path d="m170 80h10v10h-10z" fill="#ffe939"/><path d="m180 80h10v10h-10z" fill="#e9265c"/><path d="m190 80h10v10h-10z" fill="#b92b3c"/><path d="m200 80h10v10h-10z" fill="#e4a499"/><path d="m210 80h20v10h-20z" fill="#cd916d"/><path d="m90 90h20v10h-20z" fill="#cd916d"/><path d="m110 90h10v10h-10z" fill="#e4a499"/><path d="m120 90h30v10h-30z" fill="#b92b3c"/><path d="m150 90h20v10h-20z" fill="#ffe939"/><path d="m170 90h10v10h-10z" fill="#e9265c"/><path d="m180 90h20v10h-20z" fill="#b92b3c"/><path d="m200 90h10v10h-10z" fill="#e4a499"/><path d="m210 90h20v10h-20z" fill="#cd916d"/><path d="m90 100h20v10h-20z" fill="#cd916d"/><path d="m110 100h10v10h-10z" fill="#e4a499"/><path d="m120 100h20v10h-20z" fill="#b92b3c"/><path d="m140 100h10v10h-10z" fill="#ffe939"/><path d="m150 100h20v10h-20z" fill="#e9265c"/><path d="m170 100h30v10h-30z" fill="#b92b3c"/><path d="m200 100h10v10h-10z" fill="#e4a499"/><path d="m210 100h20v10h-20z" fill="#cd916d"/><path d="m90 110h20v10h-20z" fill="#cd916d"/><path d="m110 110h10v10h-10z" fill="#e4a499"/><path d="m120 110h30v10h-30z" fill="#b92b3c"/><path d="m150 110h20v10h-20z" fill="#ffe939"/><path d="m170 110h10v10h-10z" fill="#e9265c"/><path d="m180 110h20v10h-20z" fill="#b92b3c"/><path d="m200 110h10v10h-10z" fill="#e4a499"/><path d="m210 110h20v10h-20z" fill="#cd916d"/><path d="m90 120h20v10h-20z" fill="#cd916d"/><path d="m110 120h10v10h-10z" fill="#e4a499"/><path d="m120 120h50v10h-50z" fill="#b92b3c"/><path d="m170 120h10v10h-10z" fill="#ffe939"/><path d="m180 120h10v10h-10z" fill="#e9265c"/><path d="m190 120h10v10h-10z" fill="#b92b3c"/><path d="m200 120h10v10h-10z" fill="#e4a499"/><path d="m210 120h20v10h-20z" fill="#cd916d"/><path d="m90 130h20v10h-20z" fill="#cd916d"/><path d="m110 130h10v10h-10z" fill="#e4a499"/><path d="m120 130h30v10h-30z" fill="#b92b3c"/><path d="m150 130h20v10h-20z" fill="#ffe939"/><path d="m170 130h10v10h-10z" fill="#e9265c"/><path d="m180 130h20v10h-20z" fill="#b92b3c"/><path d="m200 130h10v10h-10z" fill="#e4a499"/><path d="m210 130h20v10h-20z" fill="#cd916d"/><path d="m90 140h20v10h-20z" fill="#cd916d"/><path d="m110 140h10v10h-10z" fill="#e4a499"/><path d="m120 140h20v10h-20z" fill="#b92b3c"/><path d="m140 140h10v10h-10z" fill="#ffe939"/><path d="m150 140h20v10h-20z" fill="#e9265c"/><path d="m170 140h30v10h-30z" fill="#b92b3c"/><path d="m200 140h10v10h-10z" fill="#e4a499"/><path d="m210 140h20v10h-20z" fill="#cd916d"/><path d="m90 150h20v10h-20z" fill="#cd916d"/><path d="m110 150h10v10h-10z" fill="#e4a499"/><path d="m120 150h30v10h-30z" fill="#b92b3c"/><path d="m150 150h20v10h-20z" fill="#ffe939"/><path d="m170 150h10v10h-10z" fill="#e9265c"/><path d="m180 150h20v10h-20z" fill="#b92b3c"/><path d="m200 150h10v10h-10z" fill="#e4a499"/><path d="m210 150h20v10h-20z" fill="#cd916d"/><path d="m90 160h20v10h-20z" fill="#cd916d"/><path d="m110 160h10v10h-10z" fill="#e4a499"/><path d="m120 160h50v10h-50z" fill="#b92b3c"/><path d="m170 160h10v10h-10z" fill="#ffe939"/><path d="m180 160h10v10h-10z" fill="#e9265c"/><path d="m190 160h10v10h-10z" fill="#b92b3c"/><path d="m200 160h10v10h-10z" fill="#e4a499"/><path d="m210 160h20v10h-20z" fill="#cd916d"/><path d="m90 170h20v10h-20z" fill="#cd916d"/><path d="m110 170h10v10h-10z" fill="#e4a499"/><path d="m120 170h30v10h-30z" fill="#b92b3c"/><path d="m150 170h20v10h-20z" fill="#ffe939"/><path d="m170 170h10v10h-10z" fill="#e9265c"/><path d="m180 170h20v10h-20z" fill="#b92b3c"/><path d="m200 170h10v10h-10z" fill="#e4a499"/><path d="m210 170h20v10h-20z" fill="#cd916d"/><path d="m90 180h20v10h-20z" fill="#cd916d"/><path d="m110 180h10v10h-10z" fill="#e4a499"/><path d="m120 180h20v10h-20z" fill="#b92b3c"/><path d="m140 180h10v10h-10z" fill="#ffe939"/><path d="m150 180h20v10h-20z" fill="#e9265c"/><path d="m170 180h30v10h-30z" fill="#b92b3c"/><path d="m200 180h10v10h-10z" fill="#e4a499"/><path d="m210 180h20v10h-20z" fill="#cd916d"/><path d="m90 190h20v10h-20z" fill="#cd916d"/><path d="m110 190h10v10h-10z" fill="#e4a499"/><path d="m120 190h30v10h-30z" fill="#b92b3c"/><path d="m150 190h20v10h-20z" fill="#ffe939"/><path d="m170 190h10v10h-10z" fill="#e9265c"/><path d="m180 190h20v10h-20z" fill="#b92b3c"/><path d="m200 190h10v10h-10z" fill="#e4a499"/><path d="m210 190h20v10h-20z" fill="#cd916d"/><path d="m90 200h20v10h-20z" fill="#cd916d"/><path d="m110 200h10v10h-10z" fill="#e4a499"/><path d="m120 200h50v10h-50z" fill="#b92b3c"/><path d="m170 200h10v10h-10z" fill="#ffe939"/><path d="m180 200h10v10h-10z" fill="#e9265c"/><path d="m190 200h10v10h-10z" fill="#b92b3c"/><path d="m200 200h10v10h-10z" fill="#e4a499"/><path d="m210 200h20v10h-20z" fill="#cd916d"/><path d="m100 110h60v10h-60z" fill="#ffc110"/><path d="m170 110h60v10h-60z" fill="#f98f30"/><path d="m100 120h10v10h-10z" fill="#ffc110"/><path d="m110 120h20v10h-20z" fill="#fff"/><path d="m130 120h20v10h-20z"/><path d="m150 120h10v10h-10z" fill="#ffc110"/><path d="m170 120h10v10h-10z" fill="#f98f30"/><path d="m180 120h20v10h-20z" fill="#fff"/><path d="m200 120h20v10h-20z"/><path d="m220 120h10v10h-10z" fill="#f98f30"/><path d="m70 130h30v10h-30z" fill="#f98f30"/><path d="m100 130h10v10h-10z" fill="#ffc110"/><path d="m110 130h20v10h-20z" fill="#fff"/><path d="m130 130h20v10h-20z"/><path d="m150 130h10v10h-10z" fill="#ffc110"/><path d="m160 130h20v10h-20z" fill="#f98f30"/><path d="m180 130h20v10h-20z" fill="#fff"/><path d="m200 130h20v10h-20z"/><path d="m220 130h10v10h-10z" fill="#f98f30"/><path d="m70 140h10v10h-10z" fill="#f98f30"/><path d="m100 140h10v10h-10z" fill="#ffc110"/><path d="m110 140h20v10h-20z" fill="#fff"/><path d="m130 140h20v10h-20z"/><path d="m150 140h10v10h-10z" fill="#ffc110"/><path d="m170 140h10v10h-10z" fill="#f98f30"/><path d="m180 140h20v10h-20z" fill="#fff"/><path d="m200 140h20v10h-20z"/><path d="m220 140h10v10h-10z" fill="#f98f30"/><path d="m70 150h10v10h-10z" fill="#f98f30"/><path d="m100 150h10v10h-10z" fill="#ffc110"/><path d="m110 150h20v10h-20z" fill="#fff"/><path d="m130 150h20v10h-20z"/><path d="m150 150h10v10h-10z" fill="#ffc110"/><path d="m170 150h10v10h-10z" fill="#f98f30"/><path d="m180 150h20v10h-20z" fill="#fff"/><path d="m200 150h20v10h-20z"/><path d="m220 150h10v10h-10z" fill="#f98f30"/><path d="m100 160h60v10h-60z" fill="#ffc110"/><path d="m170 160h60v10h-60z" fill="#f98f30"/></svg>