<svg height="320" shape-rendering="crispEdges" viewBox="0 0 320 320" width="320" xmlns="http://www.w3.org/2000/svg"><rect fill="#d5d7e1" height="100%" width="100%"/><g fill="#867c1d"><path d="m90 210h140v10h-140z"/><path d="m90 220h140v10h-140z"/><path d="m90 230h140v10h-140z"/><path d="m90 240h140v10h-140z"/><path d="m90 250h20v10h-20z"/><path d="m120 250h110v10h-110z"/><path d="m90 260h20v10h-20z"/><path d="m120 260h110v10h-110z"/><path d="m90 270h20v10h-20z"/><path d="m120 270h110v10h-110z"/><path d="m90 280h20v10h-20z"/><path d="m120 280h110v10h-110z"/><path d="m90 290h20v10h-20z"/><path d="m120 290h110v10h-110z"/><path d="m90 300h20v10h-20z"/><path d="m120 300h110v10h-110z"/><path d="m90 310h20v10h-20z"/><path d="m120 310h110v10h-110z"/></g><path d="m120 210h10v10h-10z" fill="#ffc110"/><path d="m190 210h10v10h-10z" fill="#ffc110"/><path d="m130 220h10v10h-10z" fill="#ffc110"/><path d="m180 220h10v10h-10z" fill="#ffc110"/><path d="m140 230h10v10h-10z" fill="#ffc110"/><path d="m170 230h10v10h-10z" fill="#ffc110"/><path d="m150 240h20v10h-20z" fill="#ffc110"/><path d="m130 250h60v10h-60z" fill="#ffc110"/><path d="m130 260h10v10h-10z" fill="#ffc110"/><path d="m150 260h20v10h-20z" fill="#ffc110"/><path d="m180 260h10v10h-10z" fill="#ffc110"/><path d="m130 270h60v10h-60z" fill="#ffc110"/><path d="m140 280h40v10h-40z" fill="#ffc110"/><path d="m130 290h10v10h-10z" fill="#ffc110"/><path d="m150 290h20v10h-20z" fill="#ffc110"/><path d="m180 290h10v10h-10z" fill="#ffc110"/><path d="m130 300h10v10h-10z" fill="#ffc110"/><path d="m180 300h10v10h-10z" fill="#ffc110"/><path d="m140 50h30v10h-30z" fill="#6b7212"/><path d="m170 50h10v10h-10z" fill="#aa940c"/><path d="m180 50h10v10h-10z" fill="#6b7212"/><path d="m140 60h30v10h-30z" fill="#6b7212"/><path d="m170 60h10v10h-10z" fill="#aa940c"/><path d="m180 60h10v10h-10z" fill="#6b7212"/><path d="m140 70h30v10h-30z" fill="#6b7212"/><path d="m170 70h10v10h-10z" fill="#aa940c"/><path d="m180 70h10v10h-10z" fill="#6b7212"/><path d="m90 80h70v10h-70z" fill="#f3322c"/><path d="m160 80h10v10h-10z" fill="#6b7212"/><path d="m170 80h70v10h-70z" fill="#f3322c"/><path d="m90 90h70v10h-70z" fill="#f3322c"/><path d="m160 90h10v10h-10z" fill="#bd2d24"/><path d="m170 90h70v10h-70z" fill="#f3322c"/><path d="m60 100h20v10h-20z" fill="#f3322c"/><path d="m80 100h10v10h-10z" fill="#bd2d24"/><path d="m90 100h70v10h-70z" fill="#f3322c"/><path d="m160 100h10v10h-10z" fill="#bd2d24"/><path d="m170 100h70v10h-70z" fill="#f3322c"/><path d="m240 100h10v10h-10z" fill="#bd2d24"/><path d="m250 100h20v10h-20z" fill="#f3322c"/><path d="m60 110h20v10h-20z" fill="#f3322c"/><path d="m80 110h10v10h-10z" fill="#bd2d24"/><path d="m90 110h70v10h-70z" fill="#f3322c"/><path d="m160 110h10v10h-10z" fill="#bd2d24"/><path d="m170 110h70v10h-70z" fill="#f3322c"/><path d="m240 110h10v10h-10z" fill="#bd2d24"/><path d="m250 110h20v10h-20z" fill="#f3322c"/><path d="m60 120h20v10h-20z" fill="#f3322c"/><path d="m80 120h10v10h-10z" fill="#bd2d24"/><path d="m90 120h70v10h-70z" fill="#f3322c"/><path d="m160 120h10v10h-10z" fill="#bd2d24"/><path d="m170 120h70v10h-70z" fill="#f3322c"/><path d="m240 120h10v10h-10z" fill="#bd2d24"/><path d="m250 120h20v10h-20z" fill="#f3322c"/><path d="m60 130h20v10h-20z" fill="#f3322c"/><path d="m80 130h10v10h-10z" fill="#bd2d24"/><path d="m90 130h70v10h-70z" fill="#f3322c"/><path d="m160 130h10v10h-10z" fill="#bd2d24"/><path d="m170 130h70v10h-70z" fill="#f3322c"/><path d="m240 130h10v10h-10z" fill="#bd2d24"/><path d="m250 130h20v10h-20z" fill="#f3322c"/><path d="m60 140h20v10h-20z" fill="#f3322c"/><path d="m80 140h10v10h-10z" fill="#bd2d24"/><path d="m90 140h70v10h-70z" fill="#f3322c"/><path d="m160 140h10v10h-10z" fill="#bd2d24"/><path d="m170 140h70v10h-70z" fill="#f3322c"/><path d="m240 140h10v10h-10z" fill="#bd2d24"/><path d="m250 140h20v10h-20z" fill="#f3322c"/><path d="m60 150h20v10h-20z" fill="#f3322c"/><path d="m80 150h10v10h-10z" fill="#bd2d24"/><path d="m90 150h70v10h-70z" fill="#f3322c"/><path d="m160 150h10v10h-10z" fill="#bd2d24"/><path d="m170 150h70v10h-70z" fill="#f3322c"/><path d="m240 150h10v10h-10z" fill="#bd2d24"/><path d="m250 150h20v10h-20z" fill="#f3322c"/><path d="m60 160h20v10h-20z" fill="#f3322c"/><path d="m80 160h10v10h-10z" fill="#bd2d24"/><path d="m90 160h70v10h-70z" fill="#f3322c"/><path d="m160 160h10v10h-10z" fill="#bd2d24"/><path d="m170 160h70v10h-70z" fill="#f3322c"/><path d="m240 160h10v10h-10z" fill="#bd2d24"/><path d="m250 160h20v10h-20z" fill="#f3322c"/><path d="m60 170h20v10h-20z" fill="#f3322c"/><path d="m80 170h10v10h-10z" fill="#bd2d24"/><path d="m90 170h70v10h-70z" fill="#f3322c"/><path d="m160 170h10v10h-10z" fill="#bd2d24"/><path d="m170 170h70v10h-70z" fill="#f3322c"/><path d="m240 170h10v10h-10z" fill="#bd2d24"/><path d="m250 170h20v10h-20z" fill="#f3322c"/><path d="m60 180h20v10h-20z" fill="#f3322c"/><path d="m80 180h10v10h-10z" fill="#bd2d24"/><path d="m90 180h50v10h-50z" fill="#4d271b"/><path d="m140 180h10v10h-10z" fill="#ffe939"/><path d="m150 180h30v10h-30z" fill="#4d271b"/><path d="m180 180h10v10h-10z" fill="#ffe939"/><path d="m190 180h50v10h-50z" fill="#4d271b"/><path d="m240 180h10v10h-10z" fill="#bd2d24"/><path d="m250 180h20v10h-20z" fill="#f3322c"/><path d="m60 190h20v10h-20z" fill="#f3322c"/><path d="m80 190h10v10h-10z" fill="#bd2d24"/><path d="m90 190h70v10h-70z" fill="#f3322c"/><path d="m160 190h10v10h-10z" fill="#bd2d24"/><path d="m170 190h70v10h-70z" fill="#f3322c"/><path d="m240 190h10v10h-10z" fill="#bd2d24"/><path d="m250 190h20v10h-20z" fill="#f3322c"/><path d="m60 200h20v10h-20z" fill="#f3322c"/><path d="m80 200h10v10h-10z" fill="#bd2d24"/><path d="m90 200h70v10h-70z" fill="#f3322c"/><path d="m160 200h10v10h-10z" fill="#bd2d24"/><path d="m170 200h70v10h-70z" fill="#f3322c"/><path d="m240 200h10v10h-10z" fill="#bd2d24"/><path d="m250 200h20v10h-20z" fill="#f3322c"/><path d="m100 110h60v10h-60z" fill="#ffc110"/><path d="m170 110h60v10h-60z" fill="#f98f30"/><path d="m100 120h10v10h-10z" fill="#ffc110"/><path d="m110 120h20v10h-20z" fill="#fff"/><path d="m130 120h20v10h-20z"/><path d="m150 120h10v10h-10z" fill="#ffc110"/><path d="m170 120h10v10h-10z" fill="#f98f30"/><path d="m180 120h20v10h-20z" fill="#fff"/><path d="m200 120h20v10h-20z"/><path d="m220 120h10v10h-10z" fill="#f98f30"/><path d="m70 130h30v10h-30z" fill="#f98f30"/><path d="m100 130h10v10h-10z" fill="#ffc110"/><path d="m110 130h20v10h-20z" fill="#fff"/><path d="m130 130h20v10h-20z"/><path d="m150 130h10v10h-10z" fill="#ffc110"/><path d="m160 130h20v10h-20z" fill="#f98f30"/><path d="m180 130h20v10h-20z" fill="#fff"/><path d="m200 130h20v10h-20z"/><path d="m220 130h10v10h-10z" fill="#f98f30"/><path d="m70 140h10v10h-10z" fill="#f98f30"/><path d="m100 140h10v10h-10z" fill="#ffc110"/><path d="m110 140h20v10h-20z" fill="#fff"/><path d="m130 140h20v10h-20z"/><path d="m150 140h10v10h-10z" fill="#ffc110"/><path d="m170 140h10v10h-10z" fill="#f98f30"/><path d="m180 140h20v10h-20z" fill="#fff"/><path d="m200 140h20v10h-20z"/><path d="m220 140h10v10h-10z" fill="#f98f30"/><path d="m70 150h10v10h-10z" fill="#f98f30"/><path d="m100 150h10v10h-10z" fill="#ffc110"/><path d="m110 150h20v10h-20z" fill="#fff"/><path d="m130 150h20v10h-20z"/><path d="m150 150h10v10h-10z" fill="#ffc110"/><path d="m170 150h10v10h-10z" fill="#f98f30"/><path d="m180 150h20v10h-20z" fill="#fff"/><path d="m200 150h20v10h-20z"/><path d="m220 150h10v10h-10z" fill="#f98f30"/><path d="m100 160h60v10h-60z" fill="#ffc110"/><path d="m170 160h60v10h-60z" fill="#f98f30"/></svg>