<svg xmlns="http://www.w3.org/2000/svg" viewBox="0 -0.5 50 50" shape-rendering="crispEdges">
	<title>Bitcoin Pussies #040</title>
	<desc>Bitcoin Pussies are 69 uniquely drawn and inscribed cats on Bitcoin</desc>
	<desc xmlns:meow="https://bitcoinpussies.com/">
		<meow:traits>
			<meow:Skin>Orange</meow:Skin>
			<meow:Eyes>Wink</meow:Eyes>
			<meow:Gear>Hat</meow:Gear>
			<meow:Message>GM</meow:Message>
		</meow:traits>
	</desc>
	<path stroke="#88a64b" d="M0 0h50M0 1h50M0 2h50M0 3h50M0 4h50M0 5h50M0 6h50M0 7h21M30 7h20M0 8h21M30 8h20M0 9h21M30 9h20M0 10h21M30 10h20M0 11h21M30 11h20M0 12h21M30 12h20M0 13h21M30 13h20M0 14h19M32 14h18M0 15h19M32 15h18M0 16h19M32 16h18M0 17h18M33 17h17M0 18h17M34 18h16M0 19h15M36 19h14M0 20h14M37 20h13M0 21h13M38 21h12M0 22h14M37 22h13M0 23h15M36 23h14M0 24h15M36 24h14M0 25h15M36 25h14M0 26h14M37 26h13M0 27h13M38 27h12M0 28h14M37 28h13M0 29h14M37 29h13M0 30h15M36 30h14M0 31h16M35 31h15M0 32h18M33 32h17M0 33h20M31 33h19M0 34h19M32 34h18M0 35h13M15 35h4M32 35h18M0 36h13M16 36h2M33 36h17M0 37h13M33 37h17M0 38h14M33 38h17M0 39h15M32 39h18M0 40h20M31 40h19M0 41h50M0 42h50M0 43h50M0 44h50M0 45h50M0 46h50M0 47h50M0 48h50M0 49h50" />
	<path stroke="#000000" d="M21 7h9M21 8h1M29 8h1M21 9h1M29 9h1M21 10h1M29 10h1M21 11h1M29 11h1M21 12h1M29 12h1M21 13h1M29 13h1M19 14h13M19 15h1M31 15h1M19 16h13M18 17h2M31 17h2M17 18h1M33 18h1M15 19h2M34 19h2M14 20h1M36 20h1M13 21h1M17 21h1M33 21h1M37 21h1M14 22h3M29 22h3M34 22h3M15 23h1M20 23h2M28 23h1M32 23h1M35 23h1M15 24h1M19 24h1M22 24h1M35 24h1M15 25h1M25 25h1M35 25h1M14 26h1M24 26h3M36 26h1M13 27h1M37 27h1M14 28h1M36 28h1M14 29h1M36 29h1M15 30h1M35 30h1M16 31h2M33 31h2M18 32h4M23 32h2M26 32h2M29 32h4M20 33h1M22 33h2M25 33h1M27 33h2M30 33h1M19 34h1M23 34h2M26 34h2M31 34h1M13 35h2M19 35h1M31 35h1M13 36h1M15 36h1M18 36h1M32 36h1M13 37h1M16 37h3M32 37h1M14 38h1M18 38h1M32 38h1M15 39h5M21 39h1M23 39h1M27 39h1M29 39h1M31 39h1M20 40h11" />
	<path stroke="#1f1f1f" d="M22 8h5M22 9h1M24 9h3M22 10h1M24 10h3M22 11h5M22 12h1M24 12h3M22 13h5" />
	<path stroke="#141414" d="M27 8h2M27 9h2M27 10h2M27 11h2M27 12h2M27 13h2M27 15h4" />
	<path stroke="#ffffff" d="M23 9h1M23 10h1M23 12h1M30 23h1" />
	<path stroke="#181818" d="M20 15h7" />
	<path stroke="#6f4b23" d="M20 17h5M18 18h6M19 19h4M19 20h1M31 28h2M29 29h5M30 30h3M24 35h1M26 35h1M14 36h1M25 36h1M30 36h2M15 37h1M29 37h3M30 38h2M30 39h1" />
	<path stroke="#ffe4c5" d="M25 17h2M24 18h4M23 19h3M20 20h4M23 26h1M27 26h2M22 27h6M23 28h5M33 28h3M17 29h1M24 29h3M34 29h2M16 30h3M33 30h2M18 31h3M30 31h3M14 37h1" />
	<path stroke="#fe9800" d="M27 17h4M28 18h5M17 19h2M26 19h8M15 20h4M24 20h12M18 21h15M17 22h12M32 22h2M16 23h4M22 23h6M33 23h2M16 24h3M20 24h2M23 24h6M32 24h3M16 25h9M26 25h3M32 25h3M15 26h3M20 26h3M29 26h2M33 26h3M14 27h8M28 27h9M15 28h8M28 28h3M15 29h2M18 29h6M27 29h2M19 30h11M21 31h9M22 32h1M25 32h1M28 32h1M21 33h1M29 33h1M20 34h3M25 34h1M28 34h3M20 35h4M25 35h1M27 35h4M19 36h6M26 36h4M19 37h10M15 38h3M19 38h11M20 39h1M22 39h1M24 39h3M28 39h1" />
	<path stroke="#ffc8ca" d="M14 21h3M34 21h3" />
	<path stroke="#9bb000" d="M29 23h1M31 23h1M29 24h3" />
	<path stroke="#7f9101" d="M29 25h3" />
	<path stroke="#ffa1a4" d="M18 26h2M31 26h2" />
	<path stroke="#292929" d="M24 33h1M26 33h1" />
</svg>